<svg enable-background="new 0 0 50 50" height="50" viewBox="0 0 50 50" width="50" xmlns="http://www.w3.org/2000/svg"><g fill="#4bbab5"><path d="m9.656 36.615c.213-.202.398-.381.552-.546.153-.162.281-.318.381-.469.102-.151.174-.301.222-.452.045-.151.071-.313.071-.486v-.014c0-.196-.037-.378-.111-.546-.074-.165-.176-.313-.301-.438-.128-.125-.281-.222-.458-.29-.179-.068-.372-.105-.583-.105-.213 0-.406.026-.574.077s-.321.122-.461.216c-.137.094-.264.205-.378.336s-.225.281-.333.449l.276.185c.205-.301.418-.531.637-.691.222-.162.486-.242.799-.242.145 0 .284.026.421.077.134.048.253.122.352.213.102.094.182.208.242.341s.091.281.091.446c0 .136-.017.264-.054.39-.037.122-.099.253-.185.387-.088.134-.202.278-.338.432-.139.151-.31.321-.509.509l-1.836 1.691v.273h3.349v-.348h-2.776z"/><path d="m14.494 35.725c-.151-.134-.33-.236-.532-.31-.205-.074-.426-.108-.662-.108-.23 0-.432.023-.6.071-.168.051-.33.117-.492.196l.122-1.887h2.436v-.347h-2.755l-.142 2.431.281.185c.154-.085.318-.159.497-.222.176-.06.381-.091.609-.091.196 0 .378.028.543.088.168.06.31.142.429.247s.21.23.279.375c.065.145.099.304.099.478v.014c0 .176-.034.344-.099.495-.068.154-.157.287-.27.401-.117.114-.253.205-.415.267-.159.065-.338.097-.534.097-.261 0-.517-.065-.765-.196-.247-.134-.483-.313-.708-.543l-.259.267c.213.225.469.415.768.574.296.159.611.239.947.239.25 0 .478-.04.685-.119.208-.08.387-.191.537-.335.153-.142.273-.313.358-.509.088-.196.131-.412.131-.651v-.014c0-.225-.043-.432-.131-.617-.084-.186-.204-.345-.357-.476z"/><path d="m15.944 36.041h1.879v.39h-1.879z"/><path d="m18.23 33.727.1.296.946-.33v4.662h.353v-5.052h-.279z"/><path d="m23.401 35.932c-.159-.114-.344-.205-.554-.27s-.432-.105-.665-.119l1.66-1.942v-.261h-3.07v.347h2.573l-1.691 1.993.094.208h.267c.219 0 .421.026.608.071.188.048.35.119.483.213.136.094.242.208.318.341s.117.29.117.469v.014c0 .168-.034.318-.1.455-.062.136-.151.25-.261.347-.108.097-.236.171-.384.225-.148.057-.304.082-.466.082-.324 0-.608-.068-.859-.205-.25-.139-.472-.338-.668-.597l-.281.239c.202.267.449.483.75.651.299.168.648.253 1.049.253.21 0 .412-.034.606-.105.193-.071.364-.171.512-.298.148-.128.264-.281.353-.463.085-.179.128-.378.128-.597v-.014c0-.233-.045-.432-.139-.606-.096-.172-.221-.317-.38-.431z"/><path d="m26.55 36.615c.213-.202.398-.381.552-.546.153-.162.281-.318.381-.469.102-.151.176-.301.222-.452.045-.151.071-.313.071-.486v-.014c0-.196-.037-.378-.111-.546-.074-.165-.176-.313-.301-.438-.128-.125-.281-.222-.458-.29-.179-.068-.372-.105-.583-.105-.213 0-.406.026-.574.077s-.321.122-.461.216c-.137.094-.264.205-.378.336s-.225.281-.333.449l.276.185c.205-.301.418-.531.637-.691.222-.162.486-.242.799-.242.145 0 .284.026.421.077.134.048.253.122.352.213.102.094.182.208.242.341s.091.281.091.446c0 .136-.017.264-.054.39-.037.122-.099.253-.185.387-.088.134-.202.278-.338.432-.139.151-.31.321-.509.509l-1.836 1.691v.273h3.349v-.348h-2.775z"/><path d="m34.042 34.704h-.455l-2.212 2.34v-3.918h-.347v5.231h.347v-.89l.867-.895 1.413 1.785h.435l-1.612-2.035z"/><path d="m38.357 35.662h-3.141v-2.322h-.364v5.017h.364v-2.351h3.141v2.351h.361v-5.017h-.361z"/><path d="m39.667 35.02h2.478l-2.575 3.138v.199h3.09v-.315h-2.581l2.581-3.139v-.199h-2.993z"/><path d="m43.434 37.749h.461v.608h-.461z"/><path d="m31.658 19.288h-6.698c-.861-6.376-1.396-9.45-3.315-9.45s-2.451 3.076-3.312 9.45h-3.019c-.861-6.374-1.396-9.45-3.315-9.45s-2.451 3.076-3.312 9.45h-1.875v.981h6.698c.861 6.374 1.396 9.447 3.315 9.447s2.451-3.073 3.312-9.447h3.019c.861 6.374 1.393 9.447 3.312 9.447 1.922 0 2.453-3.073 3.315-9.447h1.876v-.981zm-21.034 0c.279-2.055.637-4.591 1.046-6.163.088-.347.571-.347.662 0 .407 1.572.768 4.108 1.046 6.163zm6.53 7.138c-.088.35-.574.35-.662.003-.407-1.572-.765-4.108-1.043-6.161h2.751c-.278 2.053-.637 4.589-1.046 6.158zm3.116-7.138c.279-2.055.637-4.591 1.043-6.163.091-.347.574-.347.665 0 .407 1.572.768 4.108 1.046 6.163zm6.53 7.138c-.088.35-.574.35-.662 0-.407-1.569-.765-4.105-1.043-6.158h2.752c-.28 2.053-.641 4.589-1.047 6.158z"/></g></svg>