<svg enable-background="new 0 0 50 50" height="50" viewBox="0 0 50 50" width="50" xmlns="http://www.w3.org/2000/svg"><g fill="#4bbab5"><path d="m33.986 29.435h-3.034v2.822h3.034zm-.341 2.509h-2.383v-2.174h2.383z"/><path d="m18.614 25.132h1.092v.388h-1.092z"/><path d="m18.614 26.711h1.092v.391h-1.092z"/><path d="m18.614 25.92h1.092v.391h-1.092z"/><path d="m18.614 27.488h1.092v.4h-1.092z"/><path d="m18.614 24.345h1.092v.391h-1.092z"/><path d="m17.141 27.165c.117 0 .209-.095.212-.21v-3.249c0-.115-.092-.21-.21-.21h-.003l-7.803.014c-.117 0-.21.092-.21.21v3.235c0 .115.092.21.21.21zm-7.58-3.249h7.381l-.014 2.827h-7.367z"/><path d="m18.6 23.576h1.095v.388h-1.095z"/><path d="m6.998 24.187.195-.316.182-.293.179.293.195.316.196-.316.193-.316h-1.529l.193.316z"/><path d="m8.321 23.569.025.056h.017l.025-.056v.056h.017v-.07h-.028l-.022.051-.023-.051h-.028v.07h.017z"/><path d="m8.242 23.625h.017v-.056h.03v-.014h-.078v.014h.031z"/><circle cx="16.662" cy="28.501" r=".692"/><path d="m32.506 31.624c.422 0 .765-.344.765-.765 0-.073-.011-.14-.028-.207-.092-.321-.386-.559-.738-.559-.288 0-.539.159-.671.397-.061.109-.095.235-.095.369.001.421.345.765.767.765z"/><circle cx="12.885" cy="28.759" r=".93"/><path d="m44.228 13.33.003-.003h-27.498-.003c-.056 0-.106.02-.148.05l-10.748 8.329h-.056c-.134 0-.243.109-.246.243v11.849c.005.126.106.223.229.232v.014h.299v2.288c0 .187.587.341 1.313.341s1.316-.154 1.316-.341v-2.288-.005h1.425v.005h22.217v2.288c0 .187.587.341 1.313.341s1.316-.154 1.316-.341v-2.288h.087l.483-.184 1.623-1.693 2.252-2.35 1.945-2.034v.279c0 .19.59.341 1.316.341s1.313-.151 1.313-.341v-3.029l.489-.509v-10.951c-.006-.134-.109-.24-.24-.243zm-9.176 20.225h-29.028v-11.349h29.029v11.349zm.109-11.846h-28.551l10.181-7.893h26.796zm8.818 2.632-8.449 8.818v-5.504l8.449-7.999zm0-4.988-8.449 7.999v-5.322l8.449-7.896z"/></g></svg>