<svg enable-background="new 0 0 50 50" height="50" viewBox="0 0 50 50" width="50" xmlns="http://www.w3.org/2000/svg"><g fill="#4bbab5"><path d="m23.905 36.34.181-.311.168-.289.168.289.181.311.182-.311.182-.311h-1.423l.182.311z"/><path d="m25.033 35.732h.027v.058h.017v-.058h.027v-.014h-.071z"/><path d="m25.166 35.77-.022-.052h-.024v.072h.016v-.058l.022.058h.017l.022-.058v.058h.016v-.072h-.024z"/><path d="m14.054 36.34.182-.311.168-.289.167.289.179.311.185-.311.181-.311h-1.422l.181.311z"/><path d="m15.316 35.77-.022-.052h-.025v.072h.014v-.058l.025.058h.014l.025-.058v.058h.013v-.072h-.025z"/><path d="m15.182 35.732h.027v.058h.017v-.058h.027v-.014h-.071z"/><path d="m23.694 32.706h1.161v.479h-1.161z"/><path d="m23.694 27.894h1.161v.479h-1.161z"/><path d="m23.694 29.823h1.161v.479h-1.161z"/><path d="m23.694 28.86h1.161v.476h-1.161z"/><path d="m23.694 31.746h1.161v.476h-1.161z"/><path d="m23.694 30.775h1.161v.487h-1.161z"/><path d="m19.659 26.217v.008c-.314 0-.57.267-.57.6s.256.603.57.603.569-.27.569-.603v-.005c.001-.333-.255-.603-.569-.603z"/><path d="m23.694 26.934h1.161v.479h-1.161z"/><path d="m13.842 25.974h1.164v.476h-1.164z"/><path d="m13.842 26.934h1.164v.479h-1.164z"/><path d="m20.832 22.14c.102 0 .184-.088.184-.192v-3.94c0-.107-.083-.193-.184-.193l-6.799-.003c-.102.003-.182.085-.184.193v3.943c.003.104.083.19.184.192zm-6.614-3.937h6.43v3.549h-6.43z"/><path d="m18.469 27.993h2.297v-2.262h-2.297zm.237-1.989h1.805v1.739h-1.805z"/><path d="m20.644 23.303-.008.022c-.176 0-.316.149-.316.333s.14.333.316.333c.173 0 .314-.149.314-.333v-.022c0-.182-.138-.328-.306-.333z"/><path d="m19.359 23.991c.173 0 .314-.148.314-.333v-.019l-.008.019c0-.184-.14-.333-.314-.333-.176 0-.316.148-.316.333 0 .184.14.333.316.333z"/><path d="m13.897 23.635c0 .184.14.333.314.333.176 0 .314-.146.316-.33v-.003c0-.184-.14-.333-.316-.333-.174 0-.314.149-.314.333z"/><path d="m32.152 38.522c.102 0 .182-.085.184-.193v-22.712c-.003-.107-.083-.19-.184-.193h-19.684c-.102.003-.182.085-.184.193v22.699c0 .105.083.193.184.193zm-.179-22.696v22.308h-9.479l-.011-22.308zm-9.847 0v22.308h-9.484l-.008-22.308z"/><path d="m40.248 7.185.003-.003h-20.823-.003c-.041 0-.08.016-.113.041l-8.136 6.667h-.044c-.102 0-.182.088-.184.195v25.745c.003.099.08.179.173.184v2.732c0 .107.083.195.182.195h1.692c.052 0 .099-.025.135-.06l1.599-1.775c.03-.036.052-.083.052-.135v-.944h16.822v2.718c0 .107.082.195.182.195h1.692c.052 0 .099-.025.135-.06l1.599-1.775c.033-.036.052-.083.052-.135v-.011-2.845l1.508-1.665v.597c0 .105.083.193.184.193h1.689c.052 0 .099-.022.135-.06l1.599-1.772c.03-.036.052-.083.052-.135v-27.894c-.003-.105-.083-.19-.182-.193zm-27.428 35.364h-1.323v-2.523h1.323zm1.595-1.657-1.227 1.365v-2.234h1.227zm17.56 1.657v-2.523h1.321l.006 2.523zm1.326-2.914h-21.981v-25.343h21.981zm.082-25.742h-21.62l7.709-6.317h20.292zm1.508 26.999-1.227 1.362v-2.377l1.227-1.356zm3.572-4.039h-1.318v-.809l1.323-1.461zm1.598-1.656-1.23 1.365v-2.383l1.23-1.356zm0-2.938-6.397 7.057v-25.167l6.397-6.32z"/><path d="m13.839 32.706h1.164v.479h-1.164z"/><path d="m13.839 29.823h1.164v.479h-1.164z"/><path d="m13.842 28.86h1.164v.476h-1.164z"/><path d="m13.839 31.746h1.164v.476h-1.164z"/><path d="m13.839 30.775h1.164v.487h-1.164z"/><path d="m13.842 27.894h1.164v.479h-1.164z"/><path d="m29.511 33.879-.011.022c-.391 0-.704.333-.704.746s.314.746.704.746c.391 0 .704-.333.704-.746v-.022c0-.407-.311-.737-.693-.746z"/><path d="m29.511 26.217-.011.022c-.316 0-.569.27-.569.603s.253.6.569.6c.314 0 .567-.267.567-.6v-.022c0-.331-.248-.595-.556-.603z"/><ellipse cx="19.659" cy="34.625" rx=".704" ry=".746"/><path d="m25.349 23.303-.025.022c-.173 0-.314.149-.314.333s.14.333.314.333c.176 0 .316-.149.316-.333v-.022c.001-.176-.129-.319-.291-.333z"/><path d="m27.922 23.303-.011.022c-.173 0-.316.149-.316.333s.143.333.316.333.314-.149.314-.333v-.022c0-.179-.132-.325-.303-.333z"/><path d="m29.21 23.983c.173 0 .314-.148.314-.333v-.014l-.008.014c0-.184-.14-.333-.314-.333-.176 0-.316.149-.316.333s.14.333.316.333z"/><path d="m26.637 23.303-.011.022c-.173 0-.316.149-.316.333s.143.333.316.333.314-.149.314-.333v-.022c-.001-.179-.135-.325-.303-.333z"/><path d="m28.322 27.985h2.297v-2.262h-2.297zm.234-1.989h1.805v1.739h-1.805z"/><ellipse cx="15.498" cy="23.636" rx=".314" ry=".333"/><ellipse cx="16.785" cy="23.636" rx=".314" ry=".333"/><ellipse cx="18.071" cy="23.636" rx=".314" ry=".333"/><path d="m24.04 23.325c-.173 0-.314.149-.314.333s.14.333.314.333h.025c.173 0 .314-.148.314-.333v-.022l-.025.022c0-.184-.141-.333-.314-.333z"/><path d="m30.675 22.155c.102 0 .182-.088.184-.193v-3.954c0-.107-.082-.195-.182-.195h-.003l-6.801.014c-.102 0-.184.088-.184.193v3.943c0 .104.082.193.184.193h6.802zm-6.607-3.954h6.433l-.014 3.566h-6.419z"/><path d="m23.681 25.996h1.164v.476h-1.164z"/><path d="m30.498 23.303-.011.014c-.173 0-.316.151-.316.333 0 .184.143.333.316.333s.314-.149.314-.333v-.014c0-.179-.132-.325-.303-.333z"/></g></svg>