<svg enable-background="new 0 0 50 30.833" height="30.833" viewBox="0 0 50 30.833" width="50" xmlns="http://www.w3.org/2000/svg"><g fill="#4bbab5"><path d="m32.647 22.251c-3.098 0-6.115 1.115-8.739 3.224-5.309 4.276-10.302 4.281-15.632 0-.386-.312-.953-.18-1.214.285-.261.47-.158 1.115.24 1.432 2.946 2.363 5.902 3.562 8.799 3.562s5.848-1.2 8.788-3.562c2.331-1.876 5.01-2.87 7.759-2.87s5.477.999 7.884 2.88c.147.106.31.169.479.169.294 0 .566-.18.73-.47.261-.475.147-1.12-.251-1.432-2.696-2.108-5.756-3.218-8.843-3.218z"/><path d="m7.752 3.06c.713 0 1.035.344 1.514.867.572.618 1.279 1.385 2.646 1.385 1.361 0 2.074-.766 2.641-1.385.479-.523.801-.867 1.514-.867.719 0 1.035.344 1.514.867.572.618 1.279 1.385 2.646 1.385s2.075-.766 2.641-1.385c.485-.523.8-.867 1.513-.867.719 0 1.035.344 1.519.867.566.618 1.274 1.385 2.641 1.385 1.361 0 2.074-.766 2.641-1.385.483-.524.799-.867 1.518-.867.714 0 1.035.344 1.514.867.572.618 1.279 1.385 2.641 1.385 1.367 0 2.075-.766 2.646-1.385.479-.523.8-.867 1.514-.867.463 0 .838-.444.838-.988s-.376-.988-.838-.988c-1.361 0-2.075.766-2.641 1.385-.485.523-.8.867-1.519.867-.713 0-1.029-.344-1.514-.867-.566-.618-1.279-1.385-2.641-1.385-1.367 0-2.074.766-2.646 1.385-.479.523-.801.867-1.514.867s-1.035-.344-1.514-.867c-.572-.618-1.279-1.385-2.646-1.385-1.361 0-2.069.766-2.641 1.385-.479.523-.8.867-1.514.867-.718 0-1.034-.344-1.513-.867-.572-.618-1.279-1.385-2.646-1.385-1.361 0-2.074.766-2.641 1.385-.485.523-.801.867-1.514.867-.719 0-1.035-.344-1.519-.867-.566-.62-1.279-1.386-2.64-1.386-.463 0-.833.444-.833.988-.001.545.37.989.833.989z"/><path d="m13.725 13.836c-.8 0-1.274.851-.729 1.575l4.285 5.613c.234.312.463.471.697.486.234-.016.468-.175.703-.486l4.28-5.613c.55-.724.076-1.575-.73-1.575h-3.065-2.369z"/><path d="m16.811 9.019h2.336c-.087-1.358-2.249-1.358-2.336 0z"/><path d="m16.795 9.981h2.369v.967h-2.369z"/><path d="m16.795 11.91h2.369v.967h-2.369z"/><path d="m26.782 15.673h3.065 2.369 3.071c.8 0 1.274-.851.73-1.575l-4.285-5.613c-.234-.312-.463-.47-.697-.486-.234.016-.468.174-.702.486l-4.28 5.613c-.55.724-.076 1.575.729 1.575"/><path d="m32.201 20.49h-2.336c.087 1.358 2.249 1.358 2.336 0"/><path d="m29.847 18.564h2.369v.962h-2.369z"/><path d="m29.847 16.635h2.369v.962h-2.369z"/></g></svg>