<svg enable-background="new 0 0 50 30.833" height="30.833" viewBox="0 0 50 30.833" width="50" xmlns="http://www.w3.org/2000/svg"><g fill="#4bbab5"><path d="m32.878 22.306c-3.118 0-6.154 1.118-8.796 3.233-5.343 4.291-10.369 4.291-15.734 0-.389-.312-.959-.181-1.222.285-.263.471-.159 1.118.241 1.441 2.965 2.367 5.94 3.568 8.856 3.568s5.886-1.2 8.845-3.573c2.345-1.879 5.042-2.872 7.809-2.872s5.513.997 7.935 2.883c.148.11.312.17.482.17.296 0 .57-.175.734-.471.263-.477.148-1.124-.252-1.436-2.71-2.115-5.79-3.228-8.898-3.228z"/><path d="m7.822 3.067c.718 0 1.041.345 1.523.871.576.619 1.288 1.386 2.663 1.386 1.37 0 2.088-.767 2.658-1.386.482-.526.806-.871 1.524-.871.723 0 1.041.345 1.524.871.575.619 1.288 1.386 2.663 1.386 1.376 0 2.088-.767 2.658-1.386.488-.526.806-.871 1.524-.871.723 0 1.041.345 1.529.871.57.619 1.282 1.386 2.658 1.386 1.375 0 2.088-.767 2.663-1.386.482-.526.8-.871 1.524-.871.718 0 1.041.345 1.524.871.575.619 1.288 1.386 2.658 1.386 1.375 0 2.088-.767 2.663-1.386.482-.526.805-.871 1.523-.871.466 0 .844-.444.844-.992s-.378-.992-.844-.992c-1.37 0-2.088.773-2.658 1.392-.488.52-.805.866-1.529.866-.718 0-1.036-.345-1.524-.866-.57-.619-1.288-1.392-2.658-1.392-1.375 0-2.088.773-2.663 1.392-.482.52-.805.866-1.523.866s-1.041-.345-1.524-.866c-.575-.619-1.288-1.392-2.663-1.392-1.37 0-2.082.773-2.658 1.392-.482.52-.805.866-1.524.866-.723 0-1.041-.345-1.524-.866-.575-.619-1.288-1.392-2.663-1.392-1.37 0-2.088.773-2.658 1.392-.488.52-.806.866-1.524.866-.723 0-1.041-.345-1.529-.866-.569-.619-1.282-1.392-2.657-1.392-.466 0-.839.444-.839.992s.373.992.839.992z"/><path d="m13.383 10.357c-.806 0-1.282.855-.735 1.578l4.313 5.628c.235.312.466.471.701.488.235-.016.471-.175.707-.488l4.307-5.628c.554-.723.077-1.578-.734-1.578z"/><path d="m30.003 10.356c-.236.016-.471.175-.707.488l-4.307 5.628c-.553.723-.077 1.578.735 1.578h8.56c.805 0 1.282-.855.734-1.578l-4.313-5.628c-.237-.312-.467-.471-.702-.488z"/></g></svg>