<svg enable-background="new 0 0 50 29.5" height="29.5" viewBox="0 0 50 29.5" width="50" xmlns="http://www.w3.org/2000/svg"><g fill="#4bbab5"><path d="m29.945 18.662c1.322 0 2.407-1.091 2.407-2.407 0-1.332-1.085-2.407-2.407-2.407s-2.407 1.075-2.407 2.407c0 1.317 1.086 2.407 2.407 2.407z"/><path d="m39.576 18.662c1.321 0 2.396-1.091 2.396-2.407 0-1.332-1.075-2.407-2.396-2.407-1.332 0-2.407 1.075-2.407 2.407 0 1.317 1.075 2.407 2.407 2.407z"/><path d="m39.576 22.267c-2.003 0-3.618 1.615-3.618 3.608 0 1.998 1.615 3.618 3.618 3.618 1.992 0 3.608-1.62 3.608-3.618 0-1.993-1.615-3.608-3.608-3.608z"/><path d="m29.945 22.267c-1.993 0-3.608 1.615-3.608 3.608 0 1.998 1.615 3.618 3.608 3.618s3.608-1.62 3.608-3.618c0-1.993-1.615-3.608-3.608-3.608z"/><path d="m20.313 22.267c-1.993 0-3.608 1.615-3.608 3.608 0 1.998 1.615 3.618 3.608 3.618 2.003 0 3.618-1.62 3.618-3.618 0-1.993-1.615-3.608-3.618-3.608z"/><path d="m20.313 18.662c1.332 0 2.407-1.091 2.407-2.407 0-1.332-1.075-2.407-2.407-2.407-1.322 0-2.396 1.075-2.396 2.407 0 1.317 1.075 2.407 2.396 2.407z"/><path d="m10.424 22.267c-1.993 0-3.608 1.615-3.608 3.608 0 1.998 1.615 3.618 3.608 3.618 2.003 0 3.618-1.62 3.618-3.618 0-1.993-1.616-3.608-3.618-3.608z"/><path d="m10.426 9.556c.666 0 1.206-.545 1.206-1.206 0-.655-.54-1.201-1.206-1.201-.661 0-1.201.545-1.201 1.201 0 .661.541 1.206 1.201 1.206z"/><path d="m10.427 2.835c.498 0 .902-.409.902-.902 0-.498-.404-.902-.902-.902-.493 0-.897.404-.897.902 0 .493.404.902.897.902z"/><path d="m20.316 2.835c.498 0 .902-.409.902-.902 0-.498-.404-.902-.902-.902-.493 0-.897.404-.897.902.001.493.405.902.897.902z"/><path d="m29.942 2.835c.498 0 .902-.409.902-.902 0-.498-.404-.902-.902-.902-.493 0-.897.404-.897.902.001.493.405.902.897.902z"/><path d="m39.569 2.835c.498 0 .902-.409.902-.902 0-.498-.404-.902-.902-.902-.493 0-.897.404-.897.902 0 .493.404.902.897.902z"/><path d="m20.316 9.556c.666 0 1.206-.545 1.206-1.206 0-.655-.54-1.201-1.206-1.201-.661 0-1.201.545-1.201 1.201 0 .661.54 1.206 1.201 1.206z"/><path d="m29.942 9.556c.666 0 1.206-.545 1.206-1.206 0-.655-.54-1.201-1.206-1.201-.661 0-1.201.545-1.201 1.201 0 .661.54 1.206 1.201 1.206z"/><path d="m39.637 9.754c.666 0 1.206-.545 1.206-1.206 0-.655-.54-1.201-1.206-1.201-.661 0-1.201.545-1.201 1.201 0 .661.54 1.206 1.201 1.206z"/><path d="m10.423 18.662c1.332 0 2.407-1.091 2.407-2.407 0-1.332-1.075-2.407-2.407-2.407-1.322 0-2.396 1.075-2.396 2.407 0 1.317 1.074 2.407 2.396 2.407z"/></g></svg>