<svg enable-background="new 0 0 50 50" height="50" viewBox="0 0 50 50" width="50" xmlns="http://www.w3.org/2000/svg"><path d="m42.348 19.719v-1.871c0-.197-.161-.359-.356-.359h-26.998c-.084 0-.164.03-.221.079l-8.08 6.416.036.047c-.018.033-.032.072-.032.12v8.271c0 .196.162.356.359.356h28.649c.034 0 .063-.007.089-.017l.043.04 6.42-6.716c.064-.071.1-.156.1-.246v-.089c.519-.232.863-.748.869-1.324v-2.406c.12-.085.201-.223.219-.394v-1.169c-.01-.385-.416-.655-1.097-.738zm-.718-.002c-.736.063-1.186.345-1.186.753l.001 1.189c.017.152.097.286.218.373v.83c0 .069 0 .206-.005.291h-1.12c-.535 0-.775.691-.775 1.376 0 .662.243 1.373.775 1.373h1.898l-5.378 5.628v-7.218l5.573-5.586v.991zm-1.845 5.458h-.185c-.045-.079-.129-.294-.129-.659s.084-.579.129-.658h.182c-.061.214-.094.437-.094.658 0 .222.033.444.097.659zm1.587-2.919c.354.049.751.054 1.128-.001v.272c-.348.1-.762.101-1.128-.002zm-.962 2.26c0-.364.085-.579.131-.658h.145c.507 0 .63-.321.661-.602.375.078.77.08 1.147.002l.006 1.17c0 .41-.335.746-.745.747h-1.214c-.046-.079-.131-.294-.131-.659zm1.518-2.934c-.026.001-.058.002-.084.001-.224 0-.45-.032-.674-.094v-.361c.496.146 1.052.146 1.551 0v.345c-.051.021-.103.04-.158.056zm-6.586 2.931v7.548h-27.934v-7.548zm-27.267-.723 7.04-5.587h26.018l-5.581 5.587z" fill="#4bbab5"/></svg>