<svg enable-background="new 0 0 50 50" height="50" viewBox="0 0 50 50" width="50" xmlns="http://www.w3.org/2000/svg"><path d="m41.756 8.329-.813-.707-1.101 1.123.223.194-1.117 1.137-.503-.442-.425.433-.133-.082-.124.129-.053-.036-.127.132-.127-.112-.484.495c-.366-.307-.636-.479-.847-.52l-.124-.022-4.197 4.281-.043.06c-.171.275-.016.653.49 1.183l-1.514 1.57-.565.028-.208.211h-.016l.009.008-21.273 21.676-.045.051-.473 2.846c-.012.282.095.447.186.534.101.096.236.149.389.149.045 0 .092-.005.141-.014.333-.064 2.432-.501 2.702-.558l.07-.014 21.22-21.681.04.054.003-.098.208-.208.025-.575 1.545-1.539c.723.679.884.606 1.064.527l4.16-4.214.074-.09c.186-.281-.034-.593-.366-.974l.468-.476-.146-.171.093-.175.13-.132-.099-.163.419-.43-.459-.541 1.114-1.14.233.284 1.101-1.126zm-31.771 32.537c.296.304.53.529.713.695-.605.126-1.47.304-1.835.377l.316-1.905c.184.195.442.464.806.833zm.408-.557-.05-.053c-.479-.485-.758-.786-.918-.965l20.94-21.333c.161.121.441.36.878.805l.115.121c.565.563.841.903.971 1.083l-20.886 21.333c-.178-.144-.506-.433-1.05-.991zm21.033-22.894 1.297-1.345c.155.171.391.42.751.783.335.343.561.565.71.707l-1.322 1.322c-.136-.178-.344-.419-.658-.738-.338-.357-.592-.585-.778-.729zm2.472-1.104-.04-.042c-.686-.696-.9-.946-.918-.966-.27-.256-.447-.487-.527-.611l3.754-3.83c.639.566 2.569 2.534 3.099 3.16l-3.719 3.791c-.168-.133-.456-.369-.717-.586-.079-.069-.327-.296-.932-.916z" fill="#4bbab5"/></svg>