<svg enable-background="new 0 0 30 30" height="30" viewBox="0 0 30 30" width="30" xmlns="http://www.w3.org/2000/svg"><path d="m7.065 8.914v9.474c0 1.894 1.576 3.491 3.445 3.491l-1.476 1.495v.495h11.806v-.495l-1.476-1.495c1.87 0 3.444-1.595 3.446-3.487v-9.485c-.005-3.469-3.511-3.976-7.815-3.981h-.122c-4.3.005-7.808.513-7.808 3.988zm12.3 10.969c-.788 0-1.474-.696-1.474-1.495s.686-1.494 1.474-1.494c.79 0 1.476.695 1.476 1.494s-.686 1.495-1.476 1.495zm-3.444-10.969h4.92v4.985h-4.92zm-6.886 0h4.921v4.985h-4.921zm1.475 7.98c.787 0 1.474.695 1.474 1.494s-.687 1.495-1.474 1.495c-.788 0-1.476-.696-1.476-1.495.001-.799.688-1.494 1.476-1.494z" fill="#4bbab5"/></svg>