<svg enable-background="new 0 0 30 30" height="30" viewBox="0 0 30 30" width="30" xmlns="http://www.w3.org/2000/svg"><path d="m16.978 23.124c.098-.122.25-.178.397-.145l1.785.403c.181.04.36-.067.42-.25.063-.195-.039-.41-.229-.476l-1.609-.564c-.148-.052-.254-.188-.275-.346-.038-.302-.088-.682-.123-.969-.024-.196.087-.381.268-.435.82-.259 1.257-1.305 1.788-2.008.243-.324.586-.544.972-.626 2.11-.45 2.829-2.745 3.05-5.173.131-1.429-.514-2.012-.852-3.075.425-.136.895-.804 1.549-.446.038-.715-.82-1.017-1.007-1.5.127-.14.267-1.001.232-1.271-.034-.263-.598.335-.696.217-.112-.141.077-.734-.131-1.04-.007-.01-.013-.014-.021-.014-.115 0-.339 1.022-.511 1.102-.13.062-.363-.266-.596-.716-.387-.74-.172.851-.136 1.153-1.018.163-1.659.869-1.944 1.787-.317 1.009-1.199 3.258-2.821 3.363-1.952.125-4.125-1.778-5.149-2.88-.547-.583-.948-2.263-1.903-2.13-.432.056-.771.697-1.279.834 0 0-2.266.586-2.278 1.258v.012c.001.043.011.086.032.13.207.431 1.341.995 2.208 1.375.038.015.06.059.046.103-.011.04-.052.067-.092.059-.743-.139-1.483-.169-.743.494.182.166.866.512 1.507.818.039.019.061.062.046.107-.014.04-.056.062-.094.051-.523-.129-.994-.189-.967.051.064.535 2.04 2.108 2.04 2.108-.25.32.768 1.474.929 1.617-.232-.08-.485.015-.155.328.49.464.599 1.209 1.015 1.643 1.226 1.275 3.064.313 4.013 2.466.048.11.264.563.451.958.052.118.052.254 0 .372-.057.118-.163.203-.283.232l-1.225.265c-.181.036-.307.211-.289.405.021.207.197.362.394.339l1.212-.118c.043-.004.081.019.098.056.021.037.015.085-.011.118l-.098.121c-.127.159-.105.398.047.53.07.06.15.089.231.089h.003c.101-.001.202-.049.275-.14zm4.816-15.504c.163 0 .286.133.286.299 0 .165-.127.298-.286.298-.157 0-.285-.133-.285-.298.001-.166.128-.299.285-.299z" fill="#fff"/></svg>