<svg enable-background="new 0 0 30 30" height="30" viewBox="0 0 30 30" width="30" xmlns="http://www.w3.org/2000/svg"><path d="m22.734 11.851c-.187.189-.238.613-.251 1.44l-1.376-.218c-.063-.95-.351-.951-.453-.951-.097 0-.361.001-.441.809l-1.147-.182c-.054-1.016-.353-1.016-.457-1.016-.099 0-.374.001-.448.872l-.873-.138v-.85c0-.246-.202-.448-.448-.448h-.078c.026-.726.039-1.18.04-1.194-.001-.438-.425-5.172-1.768-5.172h-.054c-1.344 0-1.768 4.734-1.768 5.179.001.012.013.464.04 1.189-.243.004-.439.203-.439.447v.836l-1.069.169c-.071-.888-.348-.889-.449-.889-.105 0-.407.001-.458 1.032l-1.143.181c-.079-.823-.346-.824-.443-.824-.102 0-.394.001-.454.966l-1.278.204c-.012-.828-.064-1.253-.252-1.441-.14-.142-.374-.142-.515 0-.216.216-.252.746-.255 1.835v.316c0 .093 0 .18.001.28.001.18.002.367.002.558s-.001.378-.002.558c0 .1 0 .187-.001.28v.316c.003 1.089.039 1.619.255 1.835.07.071.162.11.258.11.095 0 .187-.039.258-.11.183-.184.237-.595.25-1.388h6.002c.116 1.722.248 3.101.392 4.103.003.026.006.05.011.076h-.173c-.111 0-.263.042-.355.16l-1.16 1.48c-.073.094-.114.236-.101.354l.157 1.444c.016.157.137.272.285.272.079 0 .157-.034.219-.096l1.242-1.245c.002-.002.006-.003.01-.004l1.811-.005c.002.001.005.002.009.003l1.252 1.251c.06.06.138.094.218.095.149 0 .269-.115.286-.273l.156-1.445c.013-.118-.027-.255-.101-.351l-1.159-1.479c-.093-.119-.245-.161-.357-.161h-.068c.004-.026.008-.05.012-.076.142-1.002.274-2.382.39-4.103h5.989c.013.793.067 1.204.25 1.388.071.071.163.11.258.11.096 0 .188-.039.258-.11.217-.217.253-.749.255-1.845v-.271c0-.104 0-.203-.001-.315-.001-.18-.002-.367-.002-.558s.001-.378.002-.558c0-.113 0-.212.001-.315v-.271c-.003-1.096-.038-1.628-.254-1.845-.143-.144-.377-.144-.518-.001z" fill="#fff"/></svg>