<svg enable-background="new 0 0 30 30" height="30" viewBox="0 0 30 30" width="30" xmlns="http://www.w3.org/2000/svg"><g fill="#4bbab5"><path d="m7.632 23.99h2.661v-1.359h9.412v1.359h2.662v-2.234c.659-.654.999-1.618 1.001-2.697v-.021c-.003-1.404-.578-2.615-1.686-3.2-.306-2.365-1.555-4.087-3.091-4.087h-7.184c-1.539 0-2.787 1.722-3.094 4.087-1.107.586-1.683 1.801-1.684 3.208v.003c0 1.083.341 2.052 1.002 2.708v2.233zm10.608-3.985h-6.479c-.151 0-.268-.122-.268-.276s.117-.279.268-.279h6.479c.146 0 .264.125.264.279s-.118.276-.264.276zm0-1.019h-6.479c-.151 0-.268-.125-.268-.278 0-.154.117-.277.268-.277h6.479c.146 0 .264.123.264.277 0 .153-.118.278-.264.278zm-.823-3.521c0-.678.525-1.228 1.175-1.228.647 0 1.175.55 1.175 1.228zm4.175 3.583c0 .645-.499 1.167-1.117 1.167-.614 0-1.114-.521-1.114-1.167 0-.641.5-1.166 1.114-1.166.618 0 1.117.521 1.117 1.166zm-10.183-6.461h7.184c1.011 0 1.898 1.251 2.227 2.948-.165-.033-.341-.052-.52-.062v-.008c0-.985-.764-1.787-1.707-1.787-.944 0-1.71.802-1.71 1.787h-6.965c-.261 0-.509.024-.74.07.329-1.698 1.217-2.948 2.231-2.948zm-1.887 5.295c.617 0 1.116.521 1.116 1.166s-.499 1.167-1.116 1.167c-.615 0-1.117-.521-1.117-1.167 0-.642.503-1.166 1.117-1.166z"/><path d="m19.192 6.208h-9.098c-.319-.384-.784-.63-1.307-.63-.961 0-1.742.813-1.742 1.82 0 1.003.781 1.816 1.742 1.816.522 0 .987-.249 1.307-.626h9.101c.382.638 1.054 1.065 1.828 1.065.848 0 1.574-.513 1.93-1.255l-1.44-.003c-.512.003-.923-.445-.923-1 0-.55.414-.997.923-.997h1.436c-.352-.741-1.075-1.255-1.92-1.258h-.013c-.771.003-1.44.431-1.824 1.068zm-9.946 2.018h-.916l-.46-.828.46-.828h.916l.459.828z"/></g></svg>