<svg enable-background="new 0 0 30 30" height="30" viewBox="0 0 30 30" width="30" xmlns="http://www.w3.org/2000/svg"><g fill="#fff"><path d="m24.504 18.34s-.37-.547-.388-.57c0 0-2.624-3.221-2.583-5.949.411.004.702-.077.758-.265.142-.438-.945-1.242-2.435-1.804-1.489-.556-2.814-.649-2.955-.212-.07.213.163.523.597.84.386 1.808 1.412 4.075 1.412 4.075s.358.738.557 1.064l1.485 2.264.989 1.351s-.041 1.162-1.096.872l-2.703-3.692-.543.426c-.151.125-.371.085-.482-.072-.123-.161-.096-.389.057-.509l.542-.424-.628-.86-.54.432c-.152.12-.371.086-.49-.077-.112-.163-.09-.39.064-.509l.541-.425-.645-.881-.54.43c-.146.119-.366.084-.484-.077-.117-.155-.089-.383.063-.504l.535-.43-.637-.876-.54.432c-.153.114-.371.086-.49-.077-.118-.162-.09-.39.064-.509l.541-.425-4.058-5.551-.021.019s-1.899-1.126-2.297 2.16c-.077.631-.178 2.081-.756 2.697-.586.611-1.856 1.321-2.462 1.631v.001l.058.091c.731-.175 2.259-.685 2.828-1.209.57-.515 1.52-2.507 1.52-2.507l10.016 13.684c.554.756 1.247 1.083 1.979 1.082h.002c.732-.002 1.504-.331 2.213-.889 1.424-1.124 2.05-2.743.952-4.248z"/><path d="m15.553 11.025c-.117-.157-.335-.192-.482-.073l-.541.426.425.579.536-.424c.152-.119.181-.347.062-.508z"/><path d="m16.623 12.485c-.118-.161-.336-.196-.489-.075l-.542.423.425.582.543-.426c.152-.12.18-.349.063-.504z"/><path d="m17.088 14.875.536-.424c.152-.119.181-.347.062-.508-.118-.163-.33-.193-.484-.079l-.539.432z"/><path d="m18.142 16.313.541-.425c.146-.119.175-.346.056-.509-.112-.162-.329-.191-.484-.076l-.539.431z"/></g></svg>