<svg enable-background="new 0 0 30 30" height="30" viewBox="0 0 30 30" width="30" xmlns="http://www.w3.org/2000/svg"><path d="m22.332 17.559c-.533.109-.911.566-.972 1.1l-5.99 1.215v-1.916l4.746-.964c.249.471.763.748 1.297.639.66-.135 1.091-.803.965-1.491-.129-.686-.772-1.136-1.432-1-.533.108-.911.565-.973 1.097l-4.603.935v-1.916l3.36-.682c.249.471.764.746 1.297.637.66-.132 1.092-.8.963-1.487-.13-.686-.77-1.139-1.43-1.004-.533.108-.911.565-.973 1.099l-3.216.652v-1.916l1.97-.401c.252.471.768.748 1.301.639.66-.134 1.092-.802.962-1.49-.129-.687-.769-1.137-1.43-1.001-.533.109-.911.566-.973 1.097l-1.83.371v-1.914l.583-.118c.25.47.768.745 1.298.639.662-.135 1.094-.804.965-1.491-.13-.688-.772-1.137-1.432-1.001-.531.107-.909.563-.969 1.097l-.446.089v-1.238c.491-.165.851-.639.851-1.202 0-.7-.549-1.271-1.221-1.271-.674 0-1.219.571-1.219 1.268 0 .565.359 1.04.85 1.204v1.239l-.445-.089c-.061-.534-.439-.99-.972-1.097-.661-.135-1.303.314-1.43 1.001-.129.686.303 1.355.963 1.491.533.105 1.048-.17 1.297-.639l.587.118v1.915l-1.831-.371c-.061-.531-.439-.991-.972-1.099-.661-.133-1.303.316-1.43 1.004-.13.688.302 1.355.962 1.49.533.109 1.048-.168 1.297-.639l1.973.401v1.916l-3.217-.652c-.061-.534-.439-.991-.972-1.099-.661-.132-1.303.317-1.43 1.004-.129.688.302 1.355.962 1.487.533.109 1.048-.166 1.297-.637l3.36.682v1.916l-4.604-.935c-.061-.534-.441-.991-.972-1.1-.661-.132-1.303.317-1.432 1.004s.305 1.355.965 1.491c.531.109 1.048-.168 1.297-.639l4.746.964v1.916l-5.99-1.215c-.06-.534-.441-.991-.972-1.1-.662-.134-1.303.315-1.432 1.005-.13.684.305 1.353.965 1.487.531.108 1.048-.17 1.298-.639l6.131 1.247v3.64h.739v-3.64l6.132-1.244c.247.471.763.745 1.297.637.66-.133 1.092-.801.965-1.487-.128-.694-.771-1.143-1.431-1.009zm-1.301-1.949c.415-.085.816.195.895.623.081.431-.188.848-.603.933-.411.081-.812-.198-.894-.627-.077-.429.191-.847.602-.929zm-1.385-2.42c.414-.082.812.198.894.626.08.431-.191.848-.603.93-.411.085-.812-.196-.894-.627-.081-.427.191-.845.603-.929zm-1.386-2.417c.411-.085.812.196.894.627.08.427-.191.844-.603.929-.41.085-.812-.198-.894-.626-.081-.431.19-.846.603-.93zm-1.387-2.42c.41-.081.812.198.894.629.08.427-.191.846-.602.927-.415.085-.812-.195-.894-.623-.081-.432.191-.849.602-.933zm-4.037 1.556c-.415-.081-.684-.5-.603-.927.079-.431.48-.71.894-.629.411.085.681.502.602.933-.08.428-.482.707-.893.623zm-1.389 2.42c-.411-.085-.681-.502-.599-.929.079-.431.48-.712.891-.627.414.083.683.5.602.93-.079.427-.48.71-.894.626zm-1.387 2.417c-.411-.083-.681-.5-.599-.93.079-.427.48-.708.891-.626.414.084.683.502.602.929-.078.431-.479.712-.894.627zm-1.386 2.42c-.411-.085-.683-.502-.602-.93.081-.431.484-.71.894-.626.414.081.683.5.602.929-.078.429-.479.709-.894.627zm-1.387 2.418c-.41-.085-.682-.502-.602-.93.083-.427.482-.71.894-.626.411.081.683.5.602.93-.078.428-.479.709-.894.626zm7.713-12.162c-.419 0-.762-.354-.762-.789 0-.439.343-.795.762-.795.421 0 .761.356.761.795 0 .435-.341.789-.761.789zm7.71 12.162c-.411.081-.812-.198-.894-.626-.078-.431.191-.849.605-.93.411-.085.812.198.894.626.079.428-.19.845-.605.93z" fill="#fff"/></svg>