<svg enable-background="new 0 0 30 30" height="30" viewBox="0 0 30 30" width="30" xmlns="http://www.w3.org/2000/svg"><g fill="#4bbab5"><path d="m16.087 5.583-10.281.981.067.677 6.912 2.2 11.331-1.774v-.716z"/><path d="m6.586 7.779.044 1.516 6.535 2.636v-2.263c-.178.046-.624 0-.624 0z"/><path d="m23.515 8.105-10.015 1.493v2.403l9.992-1.937z"/><path d="m8.415 10.298-.736-.303v1.026c.268.14.736.024.736.024z"/><path d="m22.015 11.277c.268.14.736.024.736.024l-.011-.815-.739.084z"/><path d="m13.501 13.727c.089.093.959.024.959.024l-.023-1.656-.936.21z"/><path d="m7.322 14.731 6.312 4.059 9.1-3.033-7.071-2.893c-.423-.186-.981.117-.981.117l-.022.56c0 .443-.178.49-.178.49l-.892-.024c-.469-.024-.335-.653-.335-.653zm1.137.35c-.233 0-.423-.115-.423-.257s.19-.257.423-.257c.234 0 .424.115.424.257.001.142-.189.257-.424.257zm5.264 3.523c-.234 0-.423-.115-.423-.257s.189-.257.423-.257.423.115.423.257c.001.142-.188.257-.423.257zm7.895-3.104c.234 0 .425.115.425.257s-.19.257-.425.257c-.233 0-.423-.115-.423-.257s.19-.257.423-.257zm-6.244-2.449c.233 0 .423.115.423.257s-.19.257-.423.257c-.234 0-.424-.115-.424-.257s.19-.257.424-.257zm-.822 1.064 2.857 1.268v.515l-2.964.874-2.425-1.466v-.515z"/><path d="m13.478 19.047-6.401-4.106.156 2.542 6.245 4.76z"/><path d="m13.746 19.07v3.36l9.3-3.453v-.116l-.223-.071.067-2.752z"/><path d="m12.965 22.687.358-.187-6-4.619-.447.163z"/><path d="m12.72 22.85-5.978-4.527v.327l6.312 5.156 10.17-4.106v-.536l-10.102 3.803s-.135.093-.402-.117z"/></g></svg>