<svg enable-background="new 0 0 30 30" height="30" viewBox="0 0 30 30" width="30" xmlns="http://www.w3.org/2000/svg"><g fill="#fff"><path d="m10.795 18.213v-1.381l-1.708 1.261c-.026 0-.026.03-.053.03h-.026-.052-.053-.026c-.027 0-.027 0-.053-.03l-1.708-1.291v1.381l1.84 1.411z"/><path d="m9.034 22.296h-.026-.079-.053-.026c-.026 0-.026 0-.052-.03l-1.682-1.231v1.591c0 .511.341.901.788.901h2.103c.446 0 .788-.39.788-.901v-1.651l-1.708 1.291c-.027 0-.027.03-.053.03z"/><path d="m10.69 16.171c-.131-.27-.394-.45-.683-.45h-2.103c-.289 0-.525.18-.683.45l1.735 1.291z"/><path d="m21.124 18.093h-.027-.052-.053-.026c-.026 0-.026 0-.053-.03l-1.708-1.201v1.351l1.84 1.351 1.839-1.381v-1.381l-1.708 1.261c-.026 0-.026.03-.052.03z"/><path d="m21.124 22.326h-.026-.079-.079-.026c-.027 0-.027 0-.053-.03l-1.655-1.321v1.651c0 .511.341.901.788.901h2.102c.446 0 .787-.388.788-.897v-1.654l-1.708 1.321c-.026-.001-.026.029-.052.029z"/><path d="m17.524 23.227.657-1.471v-1.231h1.314l1.55 1.141 1.839-1.411v-1.351l-1.708 1.261c-.026 0-.026.03-.052.03h-.026-.053-.052-.027c-.026 0-.026 0-.052-.03l-1.446-1.141v-.3h-1.314v-3.603h4.205v-1.501c0-.901-.552-1.591-1.314-1.771v-3.032c0-.181-.105-.301-.263-.301v-1.501c0-.12-.052-.21-.157-.27l-1.052-.6c-.078-.06-.183-.03-.262 0-.053.06-.105.18-.105.27v2.101c-.158 0-.263.12-.263.301v3.002h-.789v-5.404c0-.511-.341-.901-.788-.901h-4.731c-.446 0-.788.39-.788.901v5.404h-.788v-3.002c0-.181-.106-.301-.263-.301v-2.101c0-.09-.053-.21-.132-.27s-.184-.06-.262 0l-1.052.6c-.079.06-.131.15-.131.27v1.501c-.158 0-.263.12-.263.301v3.032c-.762.18-1.314.87-1.314 1.771v1.501h4.205v3.603h-1.314v.3l-1.446 1.141c-.026 0-.026.03-.052.03h-.026-.053-.079-.026c-.026 0-.026 0-.053-.03l-1.682-1.291v1.411l1.84 1.351 1.577-1.141h1.314v1.261l.657 1.471c.158.329.446.57.786.571h3.447c.341-.001.629-.211.787-.571zm2.207-16.332.526.3v1.321h-.526zm-.263 2.222h1.051v2.702h-1.051zm-9.724-1.922.526-.3v1.621h-.526zm.789 4.624h-1.051v-2.702h1.051zm2.628-4.504c0-.18.105-.3.263-.3h3.153c.158 0 .263.12.263.3v4.204c0 .18-.105.3-.263.3h-3.153c-.158 0-.263-.12-.263-.3zm2.365 9.608h-1.051c-.158 0-.263-.121-.263-.301s.105-.3.263-.3h1.051c.158 0 .263.12.263.3s-.105.301-.263.301zm.526.6c.157 0 .263.12.263.3s-.106.3-.263.3h-2.103c-.157 0-.262-.12-.262-.3s.105-.3.262-.3zm-3.417-3.903c0-.51.342-.901.789-.901s.788.391.788.901c0 .511-.341.901-.788.901s-.789-.39-.789-.901zm2.891 8.106h-1.051c-.158 0-.263-.12-.263-.3s.105-.3.263-.3h1.051c.158 0 .263.12.263.3s-.105.3-.263.3zm.526-1.201h-2.103c-.157 0-.262-.12-.262-.3s.105-.3.262-.3h2.103c.157 0 .263.12.263.3s-.106.3-.263.3zm.525-1.201h-3.153c-.158 0-.263-.12-.263-.3s.105-.3.263-.3h3.153c.158 0 .263.12.263.3s-.105.3-.263.3zm0-4.803c-.446 0-.788-.39-.788-.901 0-.51.342-.901.788-.901.447 0 .789.391.789.901 0 .511-.342.901-.789.901z"/><path d="m19.993 15.721c-.315 0-.578.21-.709.51l1.76 1.261 1.735-1.291c-.131-.3-.394-.48-.683-.48z"/><ellipse cx="16.577" cy="13.62" rx=".263" ry=".3"/><ellipse cx="13.423" cy="13.62" rx=".263" ry=".3"/><path d="m13.686 7.615h2.628v3.603h-2.628z"/></g></svg>