<svg enable-background="new 0 0 30 30" height="30" viewBox="0 0 30 30" width="30" xmlns="http://www.w3.org/2000/svg"><path d="m20.762 10.955c-1.507 0-3.015 1.196-3.928 2.086-.311-.322-.699-.563-1.132-.69.35-.801 1.017-1.423 1.699-1.901 1.441-1.012 1.288-2.726 0-3.54-2.401-1.516-6.243-.505-6.243 2.023 0 1.587 1.136 3.175 1.982 4.136-.307.328-.536.736-.656 1.192-.761-.369-1.352-1.071-1.806-1.789-.96-1.517-2.589-1.356-3.362 0-1.44 2.528-.48 6.573 1.921 6.573 1.508 0 3.016-1.196 3.929-2.087.311.323.699.564 1.132.691-.35.801-1.017 1.423-1.699 1.901-1.441 1.012-1.288 2.726 0 3.539 2.401 1.517 6.243.506 6.243-2.022 0-1.587-1.136-3.175-1.982-4.136.307-.328.536-.736.656-1.192.76.369 1.351 1.071 1.806 1.789.96 1.517 2.588 1.356 3.361 0 1.441-2.528.48-6.573-1.921-6.573zm-5.762 5.145c-.577 0-1.045-.492-1.045-1.1s.468-1.1 1.045-1.1 1.045.492 1.045 1.1-.468 1.1-1.045 1.1z" fill="#4bbab5"/></svg>