<svg enable-background="new 0 0 30 30" height="30" viewBox="0 0 30 30" width="30" xmlns="http://www.w3.org/2000/svg" xmlns:xlink="http://www.w3.org/1999/xlink"><clipPath id="a"><path d="m-187.182-40.967h16.568v5.596h-16.568z"/></clipPath><clipPath id="b"><path d="m-142.872-43.825h11.247v11.311h-11.247z"/></clipPath><clipPath id="c"><path d="m-124.306-44.476h12.942v12.613h-12.942z"/></clipPath><clipPath id="d"><path d="m-103.775-44.476h10.214v12.613h-10.214z"/></clipPath><clipPath id="e"><path d="m-85.84-43.682h9.279v12.682h-9.279z"/></clipPath><clipPath id="f"><path d="m-68-45.616h11.247v15.616h-11.247z"/></clipPath><clipPath id="g"><path d="m-48.281-43.682h12.362v12.682h-12.362z"/></clipPath><clipPath id="h"><path d="m-48.281-43.682h12.362v12.682h-12.362z"/></clipPath><g fill="#fff"><path d="m69.282 80.213v-1.381l-1.708 1.261c-.026 0-.026.03-.053.03h-.026-.052-.053-.026c-.027 0-.027 0-.053-.03l-1.708-1.291v1.381l1.84 1.411z"/><path d="m67.521 84.296h-.026-.079-.053-.026c-.026 0-.026 0-.052-.03l-1.682-1.231v1.591c0 .511.341.901.788.901h2.103c.446 0 .788-.39.788-.901v-1.651l-1.708 1.291c-.027 0-.027.03-.053.03z"/><path d="m69.177 78.171c-.131-.27-.394-.45-.683-.45h-2.103c-.289 0-.525.18-.683.45l1.735 1.291z"/><path d="m79.611 80.093h-.027-.052-.053-.026c-.026 0-.026 0-.053-.03l-1.708-1.201v1.351l1.84 1.351 1.839-1.381v-1.381l-1.708 1.261c-.026 0-.026.03-.052.03z"/><path d="m79.61 84.326h-.026-.079-.079-.026c-.027 0-.027 0-.053-.03l-1.655-1.321v1.651c0 .511.341.901.788.901h2.102c.446 0 .787-.388.788-.897v-1.654l-1.708 1.321c-.026-.001-.026.029-.052.029z"/><path d="m76.01 85.227.657-1.471v-1.231h1.314l1.55 1.141 1.839-1.411v-1.351l-1.708 1.261c-.026 0-.026.03-.052.03h-.026-.053-.052-.027c-.026 0-.026 0-.052-.03l-1.446-1.141v-.3h-1.314v-3.603h4.205v-1.501c0-.901-.552-1.591-1.314-1.771v-3.032c0-.181-.105-.301-.263-.301v-1.501c0-.12-.052-.21-.157-.27l-1.052-.6c-.078-.06-.183-.03-.262 0-.053.06-.105.18-.105.27v2.101c-.158 0-.263.12-.263.301v3.002h-.789v-5.404c0-.511-.341-.901-.788-.901h-4.731c-.446 0-.788.39-.788.901v5.404h-.788v-3.002c0-.181-.106-.301-.263-.301v-2.101c0-.09-.053-.21-.132-.27s-.184-.06-.262 0l-1.052.6c-.079.06-.131.15-.131.27v1.501c-.158 0-.263.12-.263.301v3.032c-.762.18-1.314.87-1.314 1.771v1.501h4.205v3.603h-1.314v.3l-1.446 1.141c-.026 0-.026.03-.052.03h-.026-.053-.079-.026c-.026 0-.026 0-.053-.03l-1.682-1.291v1.411l1.84 1.351 1.577-1.141h1.314v1.261l.657 1.471c.158.329.446.57.786.571h3.447c.341-.001.63-.211.787-.571zm2.207-16.332.526.3v1.321h-.526zm-.263 2.222h1.051v2.702h-1.051zm-9.724-1.922.526-.3v1.621h-.526zm.789 4.624h-1.051v-2.702h1.051zm2.628-4.504c0-.18.105-.3.263-.3h3.153c.158 0 .263.12.263.3v4.204c0 .18-.105.3-.263.3h-3.153c-.158 0-.263-.12-.263-.3zm2.365 9.608h-1.051c-.158 0-.263-.121-.263-.301s.105-.3.263-.3h1.051c.158 0 .263.12.263.3s-.105.301-.263.301zm.526.6c.157 0 .263.12.263.3s-.106.3-.263.3h-2.103c-.157 0-.262-.12-.262-.3s.105-.3.262-.3zm-3.417-3.903c0-.51.342-.901.789-.901s.788.391.788.901c0 .511-.341.901-.788.901s-.789-.39-.789-.901zm2.891 8.106h-1.051c-.158 0-.263-.12-.263-.3s.105-.3.263-.3h1.051c.158 0 .263.12.263.3s-.105.3-.263.3zm.526-1.201h-2.103c-.157 0-.262-.12-.262-.3s.105-.3.262-.3h2.103c.157 0 .263.12.263.3s-.106.3-.263.3zm.525-1.201h-3.153c-.158 0-.263-.12-.263-.3s.105-.3.263-.3h3.153c.158 0 .263.12.263.3s-.105.3-.263.3zm0-4.803c-.446 0-.788-.39-.788-.901 0-.51.342-.901.788-.901.447 0 .789.391.789.901 0 .511-.342.901-.789.901z"/><path d="m78.48 77.721c-.315 0-.578.21-.709.51l1.76 1.261 1.735-1.291c-.131-.3-.394-.48-.683-.48z"/><ellipse cx="75.064" cy="75.62" rx=".263" ry=".3"/><ellipse cx="71.91" cy="75.62" rx=".263" ry=".3"/><path d="m72.173 69.615h2.628v3.603h-2.628z"/><path d="m-61.726 58.085v9.227c0 1.845 1.534 3.4 3.355 3.4l-1.437 1.456v.482h11.498v-.482l-1.437-1.456c1.821 0 3.354-1.554 3.356-3.396v-9.237c-.005-3.378-3.42-3.872-7.611-3.877h-.119c-4.188.004-7.605.499-7.605 3.883zm11.98 10.683c-.768 0-1.436-.678-1.436-1.456s.668-1.455 1.436-1.455c.769 0 1.437.677 1.437 1.455s-.668 1.456-1.437 1.456zm-3.355-10.683h4.791v4.855h-4.791zm-6.706 0h4.793v4.855h-4.793zm1.437 7.772c.767 0 1.436.677 1.436 1.455s-.669 1.456-1.436 1.456c-.768 0-1.437-.678-1.437-1.456s.669-1.455 1.437-1.455z"/><path d="m98.228 85.124c.098-.122.25-.178.397-.145l1.785.403c.181.04.36-.067.42-.25.063-.195-.039-.41-.229-.476l-1.609-.564c-.148-.052-.254-.188-.275-.346-.038-.302-.088-.682-.123-.969-.024-.196.087-.381.268-.435.82-.259 1.257-1.305 1.788-2.008.243-.324.586-.544.972-.626 2.11-.45 2.829-2.745 3.05-5.173.131-1.429-.514-2.012-.852-3.075.425-.136.895-.804 1.549-.446.038-.715-.82-1.017-1.007-1.5.127-.14.267-1.001.232-1.271-.035-.262-.599.336-.697.218-.112-.141.077-.734-.131-1.04-.007-.01-.013-.014-.021-.014-.115 0-.339 1.022-.511 1.102-.13.062-.363-.266-.596-.716-.387-.74-.172.851-.136 1.153-1.018.163-1.659.869-1.944 1.787-.317 1.009-1.199 3.258-2.821 3.363-1.952.125-4.125-1.778-5.149-2.88-.547-.583-.948-2.263-1.903-2.13-.432.055-.771.696-1.279.832 0 0-2.266.586-2.278 1.258v.012c.001.043.011.086.032.13.207.431 1.341.995 2.208 1.375.038.015.06.059.046.103-.011.04-.052.067-.092.059-.743-.138-1.483-.169-.743.494.182.166.866.512 1.507.818.039.019.061.062.046.107-.014.04-.056.062-.094.051-.523-.129-.994-.189-.967.051.064.535 2.04 2.108 2.04 2.108-.25.32.768 1.474.929 1.617-.232-.08-.485.015-.155.328.49.464.599 1.209 1.015 1.643 1.226 1.275 3.064.313 4.013 2.466.048.11.264.563.451.958.052.118.052.254 0 .372-.057.118-.163.203-.283.232l-1.225.265c-.181.036-.307.211-.289.405.021.207.197.362.394.339l1.212-.118c.043-.004.081.019.098.056.021.037.015.085-.011.118l-.098.121c-.127.159-.105.398.047.53.07.06.15.089.231.089h.003c.101-.001.202-.049.275-.14zm4.816-15.504c.163 0 .286.133.286.299 0 .165-.127.298-.286.298-.157 0-.285-.133-.285-.298.001-.166.128-.299.285-.299z"/><path d="m123.156 80.268h3.899v4.238h-3.899z"/><path d="m117.955 74.694h3.899v4.238h-3.899z"/><path d="m112.945 74.695h3.896v4.237h-3.896z"/><path d="m117.955 69.245h3.899v4.237h-3.899z"/><path d="m123.156 69.245h3.899v4.237h-3.899z"/><path d="m123.156 74.695h3.899v4.237h-3.899z"/><path d="m112.949 80.268h3.893v4.238h-3.893z"/><path d="m112.945 69.245h3.896v4.237h-3.896z"/><path d="m117.958 80.268h3.896v4.238h-3.896z"/><path d="m155.4 73.851c-.187.189-.238.613-.251 1.44l-1.376-.218c-.063-.95-.351-.951-.453-.951-.097 0-.361.001-.441.809l-1.147-.182c-.054-1.016-.353-1.016-.457-1.016-.099 0-.374.001-.448.872l-.873-.138v-.85c0-.246-.202-.448-.448-.448h-.078c.026-.726.039-1.18.04-1.194-.001-.438-.425-5.172-1.768-5.172h-.054c-1.344 0-1.768 4.734-1.768 5.179.001.012.013.464.04 1.189-.243.004-.439.203-.439.447v.836l-1.069.169c-.071-.888-.348-.889-.449-.889-.105 0-.407.001-.458 1.032l-1.143.181c-.079-.823-.346-.824-.443-.824-.102 0-.394.001-.454.966l-1.278.204c-.012-.828-.064-1.253-.252-1.441-.14-.142-.374-.142-.515 0-.216.216-.252.746-.255 1.835v.316c0 .093 0 .18.001.28.001.18.002.367.002.558s-.001.378-.002.558c0 .1 0 .187-.001.28v.316c.003 1.089.039 1.619.255 1.835.07.071.162.11.258.11.095 0 .187-.039.258-.11.183-.184.237-.595.25-1.388h6.002c.116 1.722.248 3.101.392 4.103.003.026.006.05.011.076h-.173c-.111 0-.263.042-.355.16l-1.16 1.48c-.073.094-.114.236-.101.354l.157 1.444c.016.157.137.272.285.272.079 0 .157-.035.219-.096l1.242-1.245c.002-.002.006-.003.01-.004l1.811-.005c.002.001.005.002.009.003l1.252 1.251c.06.06.138.094.218.095.149 0 .269-.115.286-.273l.156-1.445c.013-.118-.027-.255-.101-.351l-1.159-1.479c-.093-.119-.245-.161-.357-.161h-.068c.004-.026.008-.05.012-.076.142-1.002.274-2.382.39-4.103h5.989c.013.793.067 1.204.25 1.388.071.071.163.11.258.11.096 0 .188-.039.258-.11.217-.217.253-.749.255-1.845v-.271c0-.104 0-.203-.001-.315-.001-.18-.002-.367-.002-.558s.001-.378.002-.558c0-.113 0-.212.001-.315v-.271c-.003-1.096-.038-1.628-.254-1.845-.142-.144-.376-.144-.518-.001z"/><path d="m20.762 10.955c-1.507 0-3.015 1.196-3.928 2.086-.311-.322-.699-.563-1.132-.69.35-.801 1.017-1.423 1.699-1.901 1.441-1.012 1.288-2.726 0-3.54-2.401-1.516-6.243-.505-6.243 2.023 0 1.587 1.136 3.175 1.982 4.136-.307.328-.536.736-.656 1.192-.761-.369-1.352-1.071-1.806-1.789-.96-1.517-2.589-1.356-3.362 0-1.44 2.528-.48 6.573 1.921 6.573 1.508 0 3.016-1.196 3.929-2.087.311.323.699.564 1.132.691-.35.801-1.017 1.423-1.699 1.901-1.441 1.012-1.288 2.726 0 3.539 2.401 1.517 6.243.506 6.243-2.022 0-1.587-1.136-3.175-1.982-4.136.307-.328.536-.736.656-1.192.76.369 1.351 1.071 1.806 1.789.96 1.517 2.588 1.356 3.361 0 1.441-2.528.48-6.573-1.921-6.573zm-5.762 5.145c-.577 0-1.045-.492-1.045-1.1s.468-1.1 1.045-1.1 1.045.492 1.045 1.1-.468 1.1-1.045 1.1z"/><path d="m174.034 67.583-10.281.981.066.677 6.913 2.2 11.331-1.774v-.716z"/><path d="m164.533 69.779.044 1.516 6.535 2.636v-2.263c-.178.046-.624 0-.624 0z"/><path d="m181.462 70.105-10.015 1.493v2.403l9.992-1.937z"/><path d="m166.362 72.298-.736-.303v1.026c.268.14.736.024.736.024z"/><path d="m179.962 73.277c.268.14.736.024.736.024l-.011-.815-.739.084z"/><path d="m171.448 75.727c.089.093.959.024.959.024l-.023-1.656-.936.21z"/><path d="m165.269 76.731 6.312 4.059 9.1-3.033-7.071-2.893c-.423-.186-.981.117-.981.117l-.022.56c0 .443-.178.49-.178.49l-.892-.024c-.469-.024-.335-.653-.335-.653zm1.137.35c-.233 0-.423-.115-.423-.257s.19-.257.423-.257c.234 0 .424.115.424.257.001.142-.189.257-.424.257zm5.264 3.523c-.234 0-.423-.115-.423-.257s.189-.257.423-.257.423.115.423.257c.001.142-.188.257-.423.257zm7.895-3.104c.234 0 .425.115.425.257s-.19.257-.425.257c-.233 0-.423-.115-.423-.257s.19-.257.423-.257zm-6.244-2.449c.233 0 .423.115.423.257s-.19.257-.423.257c-.234 0-.424-.115-.424-.257s.19-.257.424-.257zm-.822 1.064 2.857 1.268v.515l-2.964.874-2.425-1.466v-.515z"/><path d="m171.425 81.047-6.401-4.106.156 2.542 6.245 4.76z"/><path d="m171.693 81.07v3.36l9.3-3.453v-.116l-.223-.071.067-2.752z"/><path d="m170.912 84.687.358-.187-6.001-4.619-.446.163z"/><path d="m170.667 84.85-5.978-4.527v.327l6.312 5.156 10.17-4.106v-.536l-10.102 3.803s-.135.093-.402-.117z"/><path d="m207.034 79.559c-.533.109-.911.566-.972 1.1l-5.99 1.215v-1.916l4.746-.964c.249.471.763.748 1.297.639.66-.135 1.091-.803.965-1.491-.129-.686-.772-1.136-1.432-1-.533.108-.911.565-.973 1.097l-4.603.935v-1.916l3.36-.682c.249.471.764.746 1.297.637.66-.132 1.092-.8.963-1.487-.13-.686-.77-1.139-1.43-1.004-.533.108-.911.565-.973 1.099l-3.216.652v-1.916l1.97-.401c.252.471.768.748 1.3.639.66-.134 1.092-.802.962-1.49-.129-.687-.769-1.137-1.43-1.001-.533.109-.911.566-.973 1.097l-1.83.371v-1.915l.583-.118c.25.47.768.745 1.298.639.662-.135 1.094-.804.965-1.491-.13-.688-.772-1.137-1.432-1.001-.531.107-.909.563-.969 1.097l-.445.089v-1.239c.491-.165.851-.639.851-1.202 0-.7-.549-1.271-1.221-1.271-.674 0-1.219.571-1.219 1.268 0 .565.359 1.04.85 1.204v1.239l-.445-.089c-.061-.534-.439-.99-.972-1.097-.661-.135-1.303.314-1.43 1.001-.129.686.303 1.355.963 1.491.533.105 1.048-.17 1.297-.639l.587.118v1.915l-1.831-.371c-.061-.531-.439-.991-.972-1.099-.661-.133-1.303.316-1.43 1.004-.13.688.302 1.355.962 1.49.533.109 1.048-.168 1.297-.639l1.973.401v1.916l-3.217-.652c-.061-.534-.439-.991-.972-1.099-.661-.132-1.303.317-1.43 1.004-.129.688.302 1.355.962 1.487.533.109 1.048-.166 1.297-.637l3.36.682v1.916l-4.604-.935c-.061-.534-.441-.991-.972-1.1-.661-.132-1.303.317-1.432 1.004s.305 1.355.965 1.491c.531.109 1.048-.168 1.297-.639l4.746.964v1.916l-5.99-1.215c-.06-.534-.441-.991-.972-1.1-.662-.134-1.303.315-1.432 1.005-.13.684.305 1.353.965 1.487.531.108 1.048-.17 1.298-.639l6.131 1.247v3.64h.739v-3.64l6.132-1.244c.247.471.763.745 1.297.637.66-.133 1.092-.801.965-1.487-.128-.692-.771-1.141-1.431-1.007zm-1.3-1.949c.415-.085.816.195.895.623.081.431-.188.848-.603.933-.411.081-.812-.198-.894-.627-.078-.429.19-.847.602-.929zm-1.385-2.42c.414-.082.812.198.894.626.08.431-.191.848-.603.93-.411.085-.812-.196-.894-.627-.081-.427.19-.845.603-.929zm-1.387-2.417c.411-.085.812.196.894.627.08.427-.191.844-.603.929-.41.085-.812-.198-.894-.626-.081-.431.191-.846.603-.93zm-1.386-2.42c.41-.081.812.198.894.629.08.427-.191.846-.602.927-.415.085-.812-.195-.894-.623-.081-.432.19-.849.602-.933zm-4.037 1.556c-.415-.081-.684-.5-.603-.927.079-.431.48-.71.894-.629.411.085.681.502.602.933-.081.428-.483.707-.893.623zm-1.39 2.42c-.411-.085-.681-.502-.599-.929.079-.431.48-.712.891-.627.414.083.683.5.602.93-.078.427-.479.71-.894.626zm-1.386 2.417c-.411-.083-.681-.5-.599-.93.079-.427.48-.708.891-.626.414.084.683.502.602.929-.078.431-.48.712-.894.627zm-1.387 2.42c-.411-.085-.683-.502-.602-.93.081-.431.484-.71.894-.626.414.081.683.5.602.929-.078.429-.479.709-.894.627zm-1.386 2.418c-.41-.085-.682-.502-.602-.93.083-.427.482-.71.894-.626.411.081.683.5.602.93-.078.428-.479.709-.894.626zm7.712-12.162c-.419 0-.762-.354-.762-.789 0-.439.343-.795.762-.795.421 0 .761.356.761.795 0 .435-.34.789-.761.789zm7.71 12.162c-.411.081-.812-.198-.894-.626-.078-.431.191-.849.605-.93.411-.085.812.198.894.626.079.428-.19.845-.605.93z"/><path d="m217.965 74.65v.255c.452.187 1.13.364 2.079.364.659 0 1.19-.113 1.58-.24v-.293c-.409.121-.976.212-1.767.212-.846.001-1.458-.133-1.892-.298"/><path d="m233.891 76.868c-.126.039-.284.079-.495.131-.197.048-.445.112-.757.194-.18.048-.42.115-.706.196v.177c-.003.088.01.313.113.433.05.058.118.086.211.086.048 0 .104-.007.164-.024.263-.07.48-.12.666-.161.392-.088.606-.136.766-.279.183-.161.086-.508.085-.511z"/><path d="m222.762 83.019c-.008.213-.003.352-.003.358l.003.063-.033.052c-.023.036-.573.876-2.713.876-2.135 0-2.978-1.124-3.013-1.172l-.005-.006c-.114.17-.211.438-.219.858-.003.167.057.28.183.421.576.65 2.293.817 2.853.817h.078c1.903 0 3.043-.485 3.296-1.465.042-.161.028-.29-.047-.429-.081-.152-.225-.274-.38-.373"/><path d="m234.199 75.402c-.009-.052-.017-.113-.024-.183-.027-.245-.059-.54-.353-.741 0 .003 0 .008-.002.012-.189.88-3.821 1.658-9.623 2.629-.564.095-1.01.17-1.278.22-.221.042-.425.064-.608.064-.331 0-.603-.069-.812-.205-.068-.043-.129-.095-.184-.155-.065-.068-.111-.139-.148-.213-.162-.31-.128-.628-.126-.644.012-.1.095-.17.188-.156.089.014.153.106.142.206-.001.012-.034.323.179.55.015.015.035.03.052.046.007.003.012.009.018.014.089.07.2.118.333.151.238.054.542.05.908-.017.27-.052.719-.128 1.285-.224 2.269-.38 9.175-1.535 9.348-2.35.002-.009-.014-.044-.077-.093-.17-.04-.376-.064-.634-.064-.252 0-.539.024-.857.069-2.533.361-8.643 1.116-8.789 1.134h.002c.006 0-.08.025-.19.025-.264 0-.457-.14-.551-.388-.106.059-.258.133-.445.207-.099.04-.21.077-.333.115-.406.123-.931.226-1.578.226-.917 0-1.599-.156-2.08-.337-.126-.046-.234-.095-.332-.144-.132-.065-.246-.127-.333-.183v8.036c.175.197.989.991 2.716.991 1.668 0 2.271-.528 2.409-.68-.001-.09-.003-.255.008-.468.003-.057.008-.122.013-.187.005-.061.011-.125.017-.192.062-.609.225-1.402.625-2.041-.999.641-1.113 1.199-1.113 1.206-.016.09-.086.153-.164.153-.01 0-.017 0-.028-.002-.089-.016-.151-.108-.138-.206.008-.054.208-1.309 3.009-2.272 1.736-.66 5.073-1.672 6.95-2.208.117-.034.226-.065.331-.095.248-.07.461-.129.627-.172.315-.084.563-.145.762-.196.233-.057.387-.096.496-.132.035-.01.066-.022.093-.032.097-.04.147-.079.19-.138.007-.009.011-.019.018-.027.106-.155.188-.39.081-.909"/><path d="m217.965 74.259c.399.17 1.005.321 1.89.321.831 0 1.393-.105 1.767-.228.134-.043.244-.089.333-.134.186-.092.288-.176.333-.223v-1.181c-.009-.054-.007-.12.025-.189.076-.165.28-.273.644-.34.611-.112 7.111-1.885 7.176-1.903.159-.027.588-.151.684-.404.051-.134.006-.312-.136-.527-.425-.644-.798-.718-1.041-.718-.15 0-.293.031-.431.059l-.091.017c-.448.092-6.561 1.705-6.624 1.722l-.206.055v-.454c-.504.182-1.177.325-2.056.325-.145 0-.292-.003-.447-.012-1.286-.067-2.042-.372-2.487-.68v4.058c.047.051.152.154.333.266.092.055.2.113.334.17"/><path d="m222.288 69.74c0-.053-.022-.225-.255-.416-.269-.225-.86-.509-2.155-.591-1.981-.129-2.459.426-2.559.601.348.301 1.057.67 2.482.743 1.123.06 1.931-.12 2.487-.337"/><path d="m245.714 85.99h2.661v-1.359h9.412v1.359h2.662v-2.234c.659-.654.999-1.618 1.001-2.697v-.021c-.003-1.404-.578-2.615-1.686-3.2-.306-2.365-1.555-4.087-3.091-4.087h-7.184c-1.539 0-2.787 1.722-3.094 4.087-1.107.586-1.683 1.801-1.684 3.208v.003c0 1.083.341 2.052 1.002 2.708v2.233zm10.608-3.985h-6.479c-.151 0-.268-.122-.268-.276s.117-.279.268-.279h6.479c.146 0 .264.125.264.279s-.118.276-.264.276zm0-1.019h-6.479c-.151 0-.268-.125-.268-.278 0-.154.117-.277.268-.277h6.479c.146 0 .264.123.264.277 0 .153-.118.278-.264.278zm-.823-3.521c0-.678.525-1.228 1.175-1.228.647 0 1.175.55 1.175 1.228zm4.175 3.583c0 .645-.499 1.167-1.117 1.167-.614 0-1.114-.521-1.114-1.167 0-.641.5-1.166 1.114-1.166.618 0 1.117.521 1.117 1.166zm-10.184-6.461h7.184c1.011 0 1.898 1.251 2.227 2.948-.165-.033-.341-.052-.52-.062v-.008c0-.985-.764-1.787-1.707-1.787-.944 0-1.71.802-1.71 1.787h-6.964c-.261 0-.508.024-.74.07.329-1.698 1.217-2.948 2.23-2.948zm-1.886 5.295c.617 0 1.116.521 1.116 1.166s-.499 1.167-1.116 1.167c-.615 0-1.117-.521-1.117-1.167 0-.642.502-1.166 1.117-1.166z"/><path d="m257.274 68.208h-9.098c-.319-.384-.784-.63-1.307-.63-.961 0-1.742.813-1.742 1.82 0 1.003.781 1.816 1.742 1.816.522 0 .987-.249 1.307-.626h9.101c.382.638 1.054 1.065 1.828 1.065.848 0 1.574-.513 1.93-1.255l-1.44-.003c-.512.003-.923-.445-.923-1 0-.55.414-.997.923-.997h1.436c-.352-.741-1.075-1.255-1.92-1.258h-.013c-.771.003-1.44.431-1.824 1.068zm-9.946 2.018h-.916l-.46-.828.46-.828h.916l.459.828z"/><path d="m-200.635-1.507h2.507v-1.28h8.866v1.28h2.508v-2.104c.621-.616.941-1.524.943-2.541v-.02c-.002-1.322-.544-2.464-1.588-3.014-.288-2.228-1.465-3.85-2.912-3.85h-6.767c-1.45 0-2.625 1.622-2.915 3.85-1.043.552-1.586 1.696-1.586 3.022v.003c0 1.02.321 1.933.944 2.55zm9.992-3.754h-6.103c-.142 0-.252-.115-.252-.26s.11-.263.252-.263h6.103c.138 0 .249.118.249.263s-.111.26-.249.26zm0-.96h-6.103c-.142 0-.252-.118-.252-.262 0-.145.11-.261.252-.261h6.103c.138 0 .249.116.249.261 0 .144-.111.262-.249.262zm-.775-3.317c0-.639.495-1.157 1.107-1.157.609 0 1.107.518 1.107 1.157zm3.933 3.375c0 .608-.47 1.099-1.052 1.099-.578 0-1.049-.491-1.049-1.099 0-.604.471-1.098 1.049-1.098.582 0 1.052.491 1.052 1.098zm-9.593-6.086h6.767c.952 0 1.788 1.178 2.098 2.777-.155-.031-.321-.049-.49-.058v-.008c0-.928-.72-1.683-1.608-1.683-.889 0-1.611.755-1.611 1.683h-6.56c-.246 0-.479.023-.697.066.31-1.599 1.146-2.777 2.101-2.777zm-1.777 4.988c.581 0 1.051.491 1.051 1.098 0 .608-.47 1.099-1.051 1.099-.579 0-1.052-.491-1.052-1.099 0-.604.473-1.098 1.052-1.098z"/><path d="m-189.746-18.258h-8.57c-.301-.362-.739-.593-1.231-.593-.905 0-1.641.766-1.641 1.714 0 .945.736 1.711 1.641 1.711.492 0 .93-.235 1.231-.59h8.573c.36.601.993 1.003 1.722 1.003.799 0 1.483-.483 1.818-1.182l-1.356-.003c-.482.003-.869-.419-.869-.942 0-.518.39-.939.869-.939h1.353c-.331-.698-1.013-1.183-1.809-1.185h-.013c-.726.003-1.356.406-1.718 1.006zm-9.369 1.901h-.863l-.433-.78.433-.78h.863l.432.78z"/><path d="m278.695 80.73c0-1.787-1.39-3.239-3.097-3.239-1.708 0-3.098 1.453-3.098 3.239 0 1.787 1.39 3.241 3.098 3.241 1.707 0 3.097-1.454 3.097-3.241zm-3.097 1.155c-.61 0-1.104-.516-1.104-1.154 0-.637.494-1.153 1.104-1.153s1.103.516 1.103 1.153-.493 1.154-1.103 1.154z"/><path d="m279.536 78.956c.224.544.349 1.145.349 1.774 0 2.102-1.389 3.87-3.256 4.354h5.238v-.622c0-1.899-.628-3.655-1.77-4.947-.178-.2-.365-.386-.561-.559z"/><path d="m275.598 76.246c1.708 0 3.097-1.454 3.097-3.241s-1.39-3.239-3.097-3.239c-1.708 0-3.098 1.453-3.098 3.239 0 1.787 1.39 3.241 3.098 3.241zm0-4.394c.61 0 1.103.516 1.103 1.153 0 .638-.494 1.154-1.103 1.154-.61 0-1.104-.516-1.104-1.154 0-.637.494-1.153 1.104-1.153z"/><path d="m279.885 73.005c0 1.273-.509 2.423-1.326 3.241h7.726c.854 0 1.678.144 2.45.424 1.073-.803 1.774-2.117 1.774-3.599 0-2.434-1.89-4.413-4.216-4.419h-9.663c1.868.486 3.255 2.253 3.255 4.353z"/><path d="m290.784 79.515c-1.154-1.305-2.751-2.024-4.498-2.024h-6.641c.48.331.925.726 1.327 1.179 1.346 1.523 2.086 3.58 2.086 5.792v.622.264h9.497v-.886c-.001-1.898-.629-3.656-1.771-4.947z"/><path d="m318.749 80.34s-.37-.547-.388-.57c0 0-2.624-3.221-2.583-5.949.411.004.702-.077.758-.265.142-.438-.945-1.242-2.435-1.804-1.489-.556-2.814-.649-2.955-.212-.07.213.163.523.597.84.386 1.808 1.412 4.075 1.412 4.075s.358.738.557 1.064l1.485 2.264.989 1.351s-.041 1.162-1.096.872l-2.703-3.692-.543.426c-.151.125-.371.085-.482-.072-.123-.161-.096-.389.057-.509l.542-.424-.628-.86-.54.432c-.152.12-.371.086-.49-.077-.112-.163-.09-.39.064-.509l.541-.425-.645-.881-.54.43c-.146.119-.366.084-.484-.077-.117-.155-.089-.383.063-.504l.535-.43-.637-.876-.54.432c-.153.114-.371.086-.49-.077-.118-.162-.09-.39.064-.509l.541-.425-4.058-5.551-.021.019s-1.899-1.126-2.297 2.16c-.077.631-.178 2.081-.756 2.697-.586.611-1.856 1.321-2.462 1.631v.001l.058.091c.731-.175 2.259-.685 2.828-1.209.57-.515 1.52-2.507 1.52-2.507l10.016 13.684c.554.756 1.247 1.083 1.979 1.082h.002c.732-.002 1.504-.331 2.213-.889 1.424-1.124 2.05-2.743.952-4.248z"/><path d="m309.798 73.025c-.117-.157-.335-.192-.482-.073l-.541.426.425.579.536-.424c.152-.119.181-.347.062-.508z"/><path d="m310.868 74.485c-.118-.161-.336-.196-.489-.075l-.542.423.425.582.543-.426c.152-.12.18-.349.063-.504z"/><path d="m311.333 76.875.536-.424c.152-.119.181-.347.062-.508-.118-.163-.33-.193-.484-.079l-.539.432z"/><path d="m312.387 78.313.541-.425c.146-.119.175-.346.056-.509-.112-.162-.329-.191-.484-.076l-.539.431z"/><path d="m-223.788-10.385h3.069v7.199h-3.069z"/><path d="m-217.648-16.299h7.163v2.828h-7.163z"/><path d="m-218.16-12.957v-3.857h-.767v.515h-2.41c-2.45 0-2.45 2.314-2.45 2.314v2.314h-.513v.77h4.094v-.77h-.512v-.965s-.085-.836.768-.836h1.023v.515z"/><path d="m-166.441-2.013-.171-.416c-.162-.395-.438-.731-.782-.969 1.301-.934 2.085-2.44 2.085-4.074 0-1.32-.446-2.555-1.256-3.473-.71-.805-1.66-1.319-2.719-1.481l1.339-2.602c.092-.179.022-.4-.157-.492l-.096-.05.273-.513c.046-.086.055-.186.026-.279-.028-.093-.092-.171-.177-.217l-.965-.515c-.086-.046-.186-.056-.278-.028-.093.029-.171.093-.216.178l-.283.533-.111-.058c-.086-.044-.186-.053-.278-.023-.093.03-.169.094-.213.18l-2.928 5.692c-.093.18-.022.401.156.493l.163.084-.232.45c-.093.18-.023.401.156.493l.772.4c.178.093.398.022.49-.157l.232-.45.247.127c.173.091.385.028.483-.142l.598-1.039c1.545.048 2.787 1.325 2.787 2.888 0 1.594-1.29 2.891-2.878 2.891-1.284 0-2.404-.865-2.76-2.069h1.591c.202 0 .365-.164.365-.366v-.455c0-.202-.163-.366-.365-.366h-4.045c-.2 0-.364.163-.365.365v.458c.001.201.164.365.365.365h.365c.221 1.351.976 2.537 2.096 3.307-.329.249-.584.59-.732.989l-.132.354c-.041.112-.025.237.042.336.069.099.18.157.299.157h6.872c.122 0 .235-.061.303-.163.068-.101.081-.23.034-.343zm-3.689-.352c-.367 0-.666-.301-.666-.669 0-.369.299-.67.666-.67.368 0 .668.301.668.67 0 .368-.3.669-.668.669z"/><path d="m-153.021-30.859-.171-.416c-.162-.395-.438-.731-.782-.969 1.301-.934 2.085-2.44 2.085-4.074 0-1.32-.446-2.555-1.256-3.473-.71-.805-1.66-1.319-2.719-1.481l1.339-2.602c.092-.179.022-.4-.157-.492l-.096-.05.273-.513c.046-.086.055-.186.026-.279-.028-.093-.092-.171-.177-.217l-.965-.515c-.086-.046-.186-.056-.278-.028-.093.029-.171.093-.216.178l-.283.533-.111-.058c-.086-.044-.186-.053-.278-.023-.093.03-.169.094-.213.18l-2.928 5.692c-.093.18-.022.401.156.493l.163.084-.232.45c-.093.18-.023.401.156.493l.772.4c.178.093.398.022.49-.157l.232-.45.247.127c.173.091.385.028.483-.142l.598-1.039c1.545.048 2.787 1.325 2.787 2.888 0 1.594-1.29 2.891-2.878 2.891-1.284 0-2.404-.865-2.76-2.069h1.591c.202 0 .365-.164.365-.366v-.455c0-.202-.163-.366-.365-.366h-4.045c-.2 0-.364.163-.365.365v.458c.001.201.164.365.365.365h.365c.221 1.351.976 2.537 2.096 3.307-.329.249-.584.59-.732.989l-.132.356c-.041.112-.025.237.042.336.069.099.18.157.299.157h6.872c.122 0 .235-.061.303-.163.068-.103.081-.232.034-.345zm-3.689-.353c-.367 0-.666-.301-.666-.669 0-.369.299-.67.666-.67.368 0 .668.301.668.67-.001.369-.3.669-.668.669z"/><path d="m-157.211-14.367h1.678v2.471l-.839.336v.282l.839-.337v.844l-.839.334v.281l.839-.336v.844l-.839.336v.279l.839-.336v.843l-.839.336v.282l.839-.337v.841l-.839.339v.281l.839-.338v.841l-.839.338v.282l.839-.339v.844l-.839.336v.281l.839-.338v2.445l1.294 1.271 1.224-1.271v-3.453l.838-.339v-.28l-.838.336v-.842l.838-.336v-.282l-.838.337v-.842l.838-.337v-.28l-.838.336v-.841l.838-.338v-.281l-.838.338v-.844l.838-.336v-.281l-.838.338v-.844l.838-.338v-.279l-.838.336v-.843l.838-.337v-.281l-.838.339v-1.461h1.678v-1.117h-5.874z"/><path d="m-147.206-10.278c-1.262 0-2.289 1.031-2.289 2.298s1.027 2.298 2.289 2.298 2.289-1.031 2.289-2.298-1.027-2.298-2.289-2.298zm0 4.012c-.942 0-1.707-.767-1.707-1.714s.765-1.714 1.707-1.714 1.707.767 1.707 1.714-.765 1.714-1.707 1.714z"/><path d="m-145.309-11.279h-3.817l-1.909 3.371 1.909 3.369h3.817l1.908-3.369zm-1.897 5.877c-1.416 0-2.569-1.157-2.569-2.579s1.153-2.579 2.569-2.579 2.569 1.157 2.569 2.579-1.153 2.579-2.569 2.579z"/><path d="m-127.389-2.653v-1.447h1.353v-.494l1.73-.085v-.915l-1.73-.085v-.38h-1.353v-1.177h1.353v-.493l1.73-.086v-.915l-1.73-.085v-.379h-1.353v-1.063h1.353v-.494l1.73-.085v-.915l-1.73-.085v-.38h-1.353v-1.674c0-.379-.292-.687-.65-.688h-5.477c-.358.001-.65.309-.65.688v1.674h-1.353v.38l-1.73.085v.915l1.73.085v.494h1.353v1.063h-1.353v.379l-1.73.085v.915l1.73.086v.493h1.353v1.177h-1.353v.38l-1.73.085v.915l1.73.085v.494h1.353v1.447c0 .378.292.686.65.688h5.477c.358-.002.65-.31.65-.688zm.054-3.044h.956v.363l1.73.085v.224l-1.73.085v.477h-.956zm0-3.136h.956v.364l1.73.085v.225l-1.73.085v.476h-.956zm0-3.021h.956v.363l1.73.085v.225l-1.73.085v.477h-.956zm-6.884 1.235h-.956v-.477l-1.731-.085v-.224l1.731-.086v-.363h.956zm0 3.021h-.956v-.476l-1.731-.085v-.225l1.731-.085v-.364h.956zm0 3.135h-.956v-.477l-1.731-.085v-.224l1.731-.085v-.363h.956zm1.253-8.322c-.234 0-.423-.2-.423-.446 0-.247.189-.447.423-.447s.424.2.424.447c0 .246-.19.446-.424.446z"/><path d="m-108.1-3.101h-.732v-.836h.939c.158-.271.304-.565.439-.869h-1.378v-.834h1.716c.103-.287.2-.572.289-.853h-2.007v-.833h2.25c.076-.287.143-.554.198-.795h-2.448v-.836h3.493s.006-.215.006-.377h.011c.366-.481.602-1.035.678-1.617.097-.739-.017-1.861-1.102-3.016-1.343-1.428-3.627-.314-3.952-.146-1.041-.647-2.496-1.219-3.665-.404-.842.583-1.328 1.337-1.442 2.24-.154 1.218.422 2.402.821 2.943h.015c0 .173-.006.377-.006.377h3.671v.836h-2.447c.055.241.122.508.199.795h2.248v.833h-2.006c.089.281.184.568.29.853h1.716v.836h-1.381c.135.304.283.596.442.867h.939v.836h-.732c.424.487.906.794 1.455.795h.029c.547-.001 1.03-.309 1.454-.795zm-5.356-6.768c-.3-.474-.713-1.399-.595-2.327.088-.711.475-1.305 1.146-1.771 1.48-1.03 3.975 1.34 4.001 1.363.143.14.386.144.536.013.152-.131.158-.35.015-.489-.034-.033-.285-.271-.674-.568.608-.253 1.943-.675 2.702.131.716.765 1.037 1.623.925 2.485-.055.412-.211.809-.45 1.163z"/><path d="m-86.995-11.724c-.215.071-.537.107-.637.265l-.101.093s-.029.165.136.409c0 0 1.657.509 1.736.882 0 0 .115.237-.381.294l-.099.13-.266.013-.481-1.097s-.458.122-.695.309l.036.186s-1.93-1.313-3.744.631c0 0-1.342.387-2.28-.803 0 0-.015-.387-2.28-.315l.156.165s-.156.013-.222.114c-.064.101.037.208.553.208 0 0 1.169 1.334 2.065 1.255l1.276.617.567.968s.001.083.007.211c-.132.027-.278.058-.435.092-.303-.913-1.163-1.572-2.177-1.572-1.267 0-2.295 1.028-2.295 2.295s1.028 2.295 2.295 2.295c.925 0 1.72-.549 2.083-1.338l.546.42s4.007.029 4.226-.096c0 0-.497-1.358.134-1.931.067-.061.15-.129.242-.203-.106.264-.165.551-.165.853 0 1.267 1.028 2.295 2.295 2.295 1.266 0 2.291-1.026 2.294-2.291v-.008c-.002-1.266-1.028-2.291-2.294-2.291-.021 0-.041.002-.062.003.166-.107.272-.175.272-.175l-.172-.153s.497-.115.382-.364c-.114-.248-1.32-1.74-1.32-1.74s.215-.459-.227-.784l-.212.459s-.541-.373-.756-.301zm-7.266 6.941c-.878 0-1.593-.713-1.593-1.591s.715-1.591 1.593-1.591c.674 0 1.251.422 1.482 1.016-.845.179-1.682.359-1.682.359l.108.594 1.653-.072c-.143.731-.789 1.285-1.561 1.285zm2.207-.969c.032-.114.056-.229.07-.348l.479-.022c.047.16.108.286.188.341zm7.154-2.214c.878 0 1.591.714 1.591 1.592s-.714 1.591-1.591 1.591c-.878 0-1.592-.714-1.592-1.591 0-.878.714-1.592 1.592-1.592z"/></g><path d="m-67.64-14.786c1.217 0 2.386.037 3.295.146l.195.018-.049-.237c-.016-.073-.065-.128-.146-.146h-.13c-.877-.11-1.997-.183-3.149-.183-1.169 0-2.289.073-3.149.183l-.163.018c-.065 0-.129.055-.146.146l-.032.219.195-.018c.909-.109 2.077-.146 3.279-.146z" fill="none"/><path d="m-67.575-14.439v8.949h.097c.365 0 .727-.004 1.085-.012l-.809-8.919c0-.005 0-.01.001-.015-.124-.002-.249-.003-.374-.003z" fill="none"/><path d="m-64.244-5.603c-.015-.014-.028-.033-.036-.051l-1.456-8.736c-.159-.008-.321-.016-.486-.022l1.125 8.862c.29-.015.575-.033.853-.053z" fill="none"/><path d="m-64.906-14.33 1.08 5.826c.017.055-.016.092-.065.11h-.016c-.032 0-.065-.037-.081-.073l-1.09-5.878c-.158-.013-.321-.024-.488-.035l1.448 8.689c.01.033.002.06-.021.08.501-.039.979-.088 1.425-.145l-1.737-8.527c-.145-.017-.297-.033-.455-.047z" fill="none"/><path d="m-65.039-3.618c.087.109.142.252.142.411 0 .155-.049.296-.131.404.022.013.04.03.054.052h.191c.211 0 .389-.201.389-.438s-.178-.438-.389-.438h-.244c-.004.003-.008.006-.012.009z" fill="none"/><path d="m-65.341-3.627h-.14v-.017c-.21.018-.357.211-.357.437 0 .237.178.438.389.438s.39-.201.39-.438c0-.196-.121-.366-.282-.42z" fill="none"/><path d="m-65.343-3.816c.018-.001.037-.002.056-.003v-.445c-.708.035-1.446.052-2.191.052-.804 0-1.597-.022-2.354-.063v.828c.02.017.041.03.065.039l.065.018c.915.379 2.307.33 3.703.134.022-.323.256-.572.55-.572.036 0 .071.004.106.012z" fill="none"/><path d="m-65.263-5.541-1.127-8.877c-.218-.008-.441-.013-.666-.017l.81 8.929c.333-.008.661-.02.983-.035z" fill="none"/><path d="m-65.27-2.458v-.107c-.067-.002-.134-.003-.195-.003v-.019c-.26-.008-.47-.211-.523-.486-.417.056-.978.14-1.555.14-.909 0-1.834-.128-2.208-.274l-.065-.019c-.005-.002-.01-.005-.016-.008v.776c0 .072.049.146.114.164l.065.018c.844.347 3.311.347 4.172.018l.097-.036c.065-.018.114-.092.114-.164z" fill="none"/><path d="m-70.928-5.622c.264.021.535.039.81.056l.963-8.842c-.396.016-.775.04-1.129.07l-1.44 8.644c.212.021.43.042.653.06-.008-.016-.011-.035-.011-.057l.779-5.223c0-.055.049-.091.098-.073.049 0 .081.054.065.109l-.779 5.224c0 .011-.004.022-.009.032z" fill="none"/><path d="m-70.455-14.322c-.128.012-.252.025-.373.039l-1.576 8.511c.167.021.339.041.514.06z" fill="none"/><path d="m-62.43-4.906.163-.018c.065-.018.129-.073.129-.146l.098-.42-.179.018c-1.461.219-3.327.311-5.259.311-1.997 0-3.928-.11-5.438-.329l-.032.018.065.402c.016.073.064.128.129.146 1.461.219 3.328.365 5.26.365 1.866 0 3.668-.128 5.064-.347z" fill="none"/><path d="m-67.705-5.491v-8.948c-.158 0-.316.002-.471.004l-.422 5.822c0 .055-.033.091-.081.091-.049 0-.082-.055-.082-.091l.422-5.82c-.22.004-.437.01-.649.018l-.964 8.858c.316.017.639.031.966.042l.063-.943c0-.055.049-.091.081-.091.049 0 .081.054.081.091l-.063.948c.369.011.742.017 1.119.019z" fill="none"/><path d="m-65.27-1.947c.194-.073.324-.274.324-.511v-.102c.049-.001.089-.003.114-.008h.049c.308 0 .552-.274.552-.621s-.244-.639-.552-.639h-.179v-.454c.943-.054 1.827-.14 2.597-.259l.163-.018c.194-.036.373-.201.405-.438l.065-.402c.017-.109 0-.219-.065-.31-.064-.092-.178-.146-.292-.128l-.178.018c-.039.006-.078.012-.117.017l-1.723-8.458c.082-.014.159-.062.2-.124.065-.091.098-.201.065-.311l-.049-.237c-.048-.238-.227-.402-.422-.42l-.146-.037c-.876-.109-2.013-.164-3.181-.164-1.169 0-2.305.055-3.182.164l-.146.019c-.211.036-.373.2-.422.42l-.049.237c-.016.11 0 .219.065.311.048.08.122.131.203.145l-1.563 8.441c-.05-.007-.1-.014-.149-.021h-.017c-.113-.018-.227.036-.292.128-.065.091-.081.201-.065.31l.065.402c.049.237.211.402.422.438.771.116 1.66.206 2.614.265v1.836c0 .219.129.438.324.511l.065.036c.373.146 1.312.237 2.235.238h.01c.891 0 1.766-.092 2.154-.238zm-.179-.822c-.211 0-.389-.201-.389-.438 0-.226.147-.419.357-.437v.017h.14c.161.054.282.224.282.42 0 .237-.179.438-.39.438zm-.55-.487c-1.396.196-2.788.245-3.703-.134l-.065-.018c-.024-.009-.045-.022-.065-.039v-.828c.757.041 1.55.063 2.354.063.745 0 1.483-.017 2.191-.052v.445c-.019.001-.038.002-.056.003-.035-.008-.07-.012-.106-.012-.294 0-.528.249-.55.572zm1.216-.371c.211 0 .389.201.389.438s-.178.438-.389.438h-.191c-.014-.022-.032-.039-.054-.052.082-.108.131-.249.131-.404 0-.159-.055-.302-.142-.411.004-.003.008-.006.012-.009zm2.069-2.129c-.446.057-.924.106-1.425.145.023-.02.031-.047.021-.08l-1.448-8.689c.167.011.33.022.488.035l1.09 5.878c.016.036.049.073.081.073h.016c.049-.018.082-.055.065-.11l-1.08-5.826c.158.014.31.03.455.047zm-3.679.254c-.358.008-.72.012-1.085.012-.033 0-.065 0-.097 0v-8.949c.125 0 .25.001.374.003-.001.005-.001.01-.001.015zm-.663-8.933c.225.004.448.009.666.017l1.127 8.877c-.322.015-.65.027-.983.035zm.834.023c.165.006.327.014.486.022l1.456 8.736c.008.018.021.037.036.051-.278.02-.563.038-.853.053zm-4.86-.429c.017-.091.081-.146.146-.146l.163-.018c.86-.11 1.98-.183 3.149-.183 1.152 0 2.272.073 3.149.183h.13c.081.018.13.073.146.146l.049.237-.195-.018c-.909-.109-2.078-.146-3.295-.146-1.202 0-2.37.037-3.279.146l-.195.018zm2.24 8.292c-.032 0-.081.036-.081.091l-.063.943c-.327-.011-.65-.025-.966-.042l.964-8.858c.212-.008.429-.014.649-.018l-.422 5.82c0 .036.033.091.082.091.048 0 .081-.036.081-.091l.422-5.822c.155-.002.313-.004.471-.004v8.948c-.377-.002-.75-.008-1.119-.019l.063-.948c0-.037-.032-.091-.081-.091zm-1.363-4.438c-.049-.018-.098.018-.098.073l-.779 5.223c0 .022.003.041.011.057-.223-.018-.441-.039-.653-.06l1.44-8.644c.354-.03.733-.054 1.129-.07l-.963 8.842c-.275-.017-.546-.035-.81-.056.005-.01.009-.021.009-.032l.779-5.224c.016-.055-.016-.109-.065-.109zm-.623-3.296c.121-.014.245-.027.373-.039l-1.435 8.61c-.175-.019-.347-.039-.514-.06zm-1.926 9.359c-.065-.018-.113-.073-.129-.146l-.065-.402.032-.018c1.51.219 3.441.329 5.438.329 1.932 0 3.798-.092 5.259-.311l.179-.018-.098.42c0 .073-.064.128-.129.146l-.163.018c-1.396.219-3.198.347-5.064.347-1.932 0-3.799-.146-5.26-.365zm7.273 2.666c-.861.329-3.328.329-4.172-.018l-.065-.018c-.065-.018-.114-.092-.114-.164v-.776c.006.003.011.006.016.008l.065.019c.374.146 1.299.274 2.208.274.577 0 1.138-.084 1.555-.14.053.275.263.478.523.486v.019c.061 0 .128.001.195.003v.107c0 .072-.049.146-.114.164z" fill="#fff"/><path d="m11.967 96.581c-.139 0-.252.111-.252.25v2.446c0 .139.113.251.252.251.138 0 .249-.112.249-.251v-2.446c0-.139-.111-.25-.249-.25z" fill="none"/><path d="m11.254 95.864c-.139 0-.252.112-.252.251v2.446c0 .139.112.251.252.251.138 0 .25-.112.25-.251v-2.446c0-.139-.112-.251-.25-.251z" fill="none"/><path d="m10.541 95.149c-.138 0-.25.111-.25.25v2.446c0 .139.112.252.25.252s.25-.113.25-.252v-2.446c0-.139-.112-.25-.25-.25z" fill="none"/><path d="m15.202 109.642c-.726 0-1.33-.531-1.45-1.226h2.898c-.118.695-.723 1.226-1.448 1.226z" fill="none"/><path d="m16.574 112.734c.095.009.176.071.21.16.081.213.163.447.246.709.178-.401.336-.796.47-1.176.03-.086.104-.149.192-.164.089-.015.181.019.238.089.143.179.287.365.426.553.078-.405.136-.802.176-1.185.01-.087.064-.163.143-.201.08-.037.173-.03.246.019.164.109.336.231.536.376-.021-.352-.053-.698-.095-1.033-.01-.089.025-.175.095-.231.071-.053.163-.067.247-.034.182.074.371.157.568.252-.086-.291-.178-.574-.272-.845-.031-.087-.01-.186.053-.254.062-.068.158-.095.247-.071.195.053.394.117.598.191-.136-.259-.269-.504-.404-.737-.049-.083-.046-.189.01-.269.055-.078.151-.12.247-.104.213.036.435.084.667.146-.133-.176-.269-.345-.405-.509h-3.857c-.123.974-.953 1.73-1.954 1.73-1.003 0-1.833-.756-1.956-1.73h-4.042c.324.188.644.36.957.515.083.041.136.124.139.217s-.046.181-.127.226c-.189.108-.399.219-.641.342.414.135.82.25 1.209.339.086.021.157.084.182.17.027.086.006.178-.052.243-.148.164-.302.33-.463.496.346.024.688.037 1.016.037h.114c.086 0 .166.043.213.118.046.075.05.169.01.246-.09.178-.191.362-.303.562.324-.059.638-.124.94-.197.087-.021.179.007.241.074.062.065.083.16.055.246-.059.189-.13.383-.21.581.271-.112.531-.226.778-.342.084-.04.186-.028.26.033.075.058.109.155.09.249-.044.201-.099.41-.166.626.254-.166.494-.328.721-.49.08-.058.185-.064.271-.013.084.049.133.142.124.24-.021.226-.053.462-.098.712.257-.24.5-.479.728-.718.047-.05.114-.077.181-.077.027 0 .053.004.081.013.092.031.157.115.167.213.024.237.038.491.046.762.244-.334.467-.664.67-.987.052-.081.143-.126.237-.118z" fill="#fff"/><path d="m15.202 109.642c.725 0 1.33-.531 1.448-1.226h-2.898c.12.695.723 1.226 1.45 1.226z" fill="#fff"/><path d="m19.579 102.667-8.375-8.337c-.358-.299-.833-.472-1.32-.472-1.153 0-2.089.941-2.089 2.096 0 .692.382 1.308 1.17 1.885.993.728 3.382 3.381 3.483 3.492.053.061.074.143.058.222-.016.078-.068.145-.142.178-2.456 1.093-4.07 3.502-4.166 6.181h14.007v-.004c-.074-2.04-1.013-3.932-2.608-5.223-.006-.005-.013-.011-.018-.018zm-8.788-4.822c0 .139-.112.252-.25.252s-.25-.113-.25-.252v-2.446c0-.139.112-.25.25-.25s.25.111.25.25zm.713.716c0 .139-.112.251-.25.251-.139 0-.252-.112-.252-.251v-2.446c0-.139.112-.251.252-.251.138 0 .25.112.25.251zm.712.716c0 .139-.111.251-.249.251-.139 0-.252-.112-.252-.251v-2.446c0-.139.113-.25.252-.25.138 0 .249.111.249.25z" fill="#fff"/><path d="m-205.742-37.215h1.765l1.424 3.553zm2.733 0h3.641l-1.82 4.543zm4.609 0h1.766l-3.19 3.553zm-6.18-2.834h1.234l-.648 1.915h-1.905zm2.182 0h2.419l.649 1.915h-3.718zm3.367 0h1.235l1.318 1.915h-1.904zm-6.012-.918-2.294 3.331 6.149 6.85 6.149-6.85-2.295-3.331z" fill="#fff"/><path d="m-201.635-45.09h.895v2.643h-.895z" fill="#fff"/><path d="m-203.284-42.773-1.82-1.869-.632.65 1.819 1.869z" fill="#fff"/><path d="m-198.461-42.123 1.82-1.869-.633-.649-1.82 1.868z" fill="#fff"/><path clip-path="url(#a)" d="m-186.488-40.203c.175 0 .317.035.317.078s-.142.079-.317.079c-.176 0-.318-.036-.318-.079s.142-.078.318-.078m.562 1.1c.015-.119.025-.24.051-.356.095-.413.349-.676.758-.784.374-.098.755-.156 1.139-.187.286-.024.571-.036.756-.046.656.008 1.207.05 1.749.175.221.051.446.097.648.205.1.054.196.117.283.189.144.119.217.281.248.464.063.377.027.75-.059 1.119-.111.476-.295.922-.54 1.343-.134.23-.287.445-.48.63-.254.244-.561.388-.898.477-.681.179-1.37.223-2.067.118-.137-.02-.271-.056-.406-.09-.276-.072-.486-.233-.646-.472-.177-.264-.285-.554-.358-.861-.094-.4-.148-.806-.188-1.215-.023-.237-.019-.473.01-.709m8.352-.38c.055-.3.238-.496.514-.609.278-.112.568-.181.861-.239.326-.065.654-.114.986-.135.258-.017.518-.024.693-.032.694.034 1.301.086 1.892.255.108.031.212.08.314.129.098.045.173.12.221.217.053.107.108.214.15.326.05.131.06.271.066.41.008.22.019.441.013.661-.014.574-.11 1.135-.314 1.674-.083.218-.194.42-.363.583-.187.183-.421.28-.669.348-.312.084-.631.105-.952.108-.485.004-.962-.057-1.436-.158-.469-.1-.843-.347-1.141-.72-.381-.479-.626-1.023-.763-1.617-.063-.275-.117-.552-.109-.835.003-.123.015-.246.037-.366m6.258-.72c.175 0 .318.035.318.078s-.143.079-.318.079-.317-.036-.317-.079.142-.078.317-.078m-15.793.7c.035.015.071.031.102.052.151.106.224.266.282.431.041.119.067.242.101.363.022.075.05.149.067.225.079.355.153.713.235 1.067.078.339.179.67.34.98.181.346.437.612.802.764.221.092.45.151.686.189.422.067.846.075 1.271.044.431-.031.856-.097 1.271-.223.308-.093.599-.223.846-.434.376-.323.68-.706.913-1.146.233-.439.396-.905.543-1.378.042-.136.082-.273.131-.406.072-.197.212-.318.421-.35.066-.011.135-.013.203-.01.156.01.307.043.411.174.046.057.088.121.117.187.057.13.111.262.154.398.184.585.428 1.142.736 1.671.256.44.594.795 1.042 1.04.316.174.655.284 1.007.353.531.103 1.066.129 1.605.105.325-.014.647-.056.96-.15.321-.097.603-.254.814-.523.137-.174.238-.367.322-.571.175-.43.288-.877.39-1.329.05-.221.101-.441.155-.661.028-.115.063-.228.095-.342.03-.107.055-.215.122-.308.068-.092.137-.183.25-.224.049-.017.074-.052.085-.099.008-.036.016-.073.016-.109.001-.163.001-.326-.004-.489-.004-.117-.016-.233-.023-.35-.003-.053-.029-.086-.08-.099-.035-.01-.071-.02-.107-.025-.516-.082-1.033-.161-1.555-.198-.416-.029-.833-.047-1.251-.066-.803-.036-1.605-.018-2.404.083-.488.062-.971.151-1.441.303-.237.077-.471.167-.708.243-.371.117-.751.171-1.136.098-.231-.044-.46-.11-.684-.183-.406-.132-.811-.262-1.232-.339-.819-.152-1.644-.222-2.413-.214-.627.001-1.19.023-1.751.09-.46.056-.919.117-1.378.18-.098.014-.193.042-.289.068-.051.013-.085.047-.086.104-.009.273-.018.545-.025.818-.001.041.009.082.015.123.005.035.024.058.057.073" fill="#fff"/><path clip-path="url(#b)" d="m-137.573-34.496h.649v1.504h-.649zm-.577-4.995.965.94 1.762-1.741.455.465-2.214 2.188-1.42-1.383zm-1.91-1.045-1.057-1.063.458-.461 1.057 1.063zm-.599 6.258-.458-.461 1.057-1.064.458.462zm-1.737-4.217h1.495v.652h-1.495zm4.823-4.851h.649v1.504h-.649zm3.136 7.543 1.058 1.064-.459.461-1.057-1.063zm.599-6.257.459.461-1.058 1.063-.458-.461zm1.737 4.217h-1.495v-.652h1.495zm.476-.326c0-3.123-2.518-5.655-5.623-5.655-3.106 0-5.624 2.532-5.624 5.655s2.518 5.655 5.624 5.655c3.105 0 5.623-2.532 5.623-5.655" fill="#fff"/><path clip-path="url(#c)" d="m-114.393-38.73h.956v.364l1.73.085v.225l-1.73.085v.476h-.956zm0 3.136h.956v.363l1.73.085v.224l-1.73.085v.477h-.956zm-5.631-7.088c-.234 0-.423-.2-.423-.446 0-.247.189-.447.423-.447s.424.2.424.447c0 .246-.19.446-.424.446m-1.253 8.322h-.956v-.477l-1.731-.085v-.224l1.731-.085v-.363h.956zm0-3.135h-.956v-.476l-1.731-.085v-.225l1.731-.085v-.364h.956zm0-3.021h-.956v-.477l-1.731-.085v-.224l1.731-.086v-.363h.956zm6.884-1.235h.956v.363l1.73.085v.225l-1.73.085v.477h-.956zm1.299 1.597v-.494l1.73-.085v-.915l-1.73-.085v-.38h-1.353v-1.674c0-.38-.293-.689-.652-.689h-5.472c-.359 0-.652.309-.652.689v1.674h-1.353v.38l-1.73.085v.915l1.73.085v.494h1.353v1.063h-1.353v.379l-1.73.085v.915l1.73.086v.493h1.353v1.177h-1.353v.38l-1.73.085v.915l1.73.085v.494h1.353v1.447c0 .379.293.688.652.688h5.472c.359 0 .652-.309.652-.688v-1.447h1.353v-.494l1.73-.085v-.915l-1.73-.085v-.38h-1.353v-1.177h1.353v-.493l1.73-.086v-.915l-1.73-.085v-.379h-1.353v-1.063z" fill="#fff"/><path clip-path="url(#d)" d="m-94.342-40.588c-.055.412-.211.809-.45 1.163h-7.606c-.3-.474-.713-1.399-.595-2.327.088-.711.475-1.305 1.146-1.771 1.48-1.03 3.975 1.34 4.001 1.363.143.14.386.144.536.013.152-.131.158-.35.015-.489-.034-.033-.285-.271-.674-.568.608-.253 1.943-.675 2.702.131.716.765 1.037 1.623.925 2.485m-.348-2.935c-1.343-1.428-3.627-.314-3.952-.146-1.041-.647-2.496-1.219-3.665-.404-.842.583-1.328 1.337-1.442 2.24-.154 1.218.422 2.402.821 2.943h.015c0 .173-.006.377-.006.377h3.671v.836h-2.447c.055.241.122.508.199.795h2.248v.833h-2.006c.089.281.184.568.29.853h1.716v.836h-1.381c.135.304.283.596.442.867h.939v.836h-.732c.424.487.907.795 1.456.795h.012.014c.548 0 1.032-.308 1.456-.795h-.732v-.836h.939c.158-.271.304-.565.439-.869h-1.378v-.834h1.716c.103-.287.2-.572.289-.853h-2.007v-.833h2.25c.076-.287.143-.554.198-.795h-2.448v-.836h3.493s.006-.215.006-.377h.011c.366-.481.602-1.035.678-1.617.097-.739-.017-1.861-1.102-3.016" fill="#fff"/><path clip-path="url(#e)" d="m-79.605-31c1.446 0 2.623-1.284 2.623-2.862v-1.469c.248-.142.42-.419.42-.742 0-.467-.355-.846-.788-.846-.438 0-.793.379-.793.846 0 .397.258.729.605.819v1.392c0 1.249-.925 2.264-2.064 2.264-.888 0-1.644-.62-1.934-1.488.256-.152.431-.441.431-.776v-1.912c0-.102-.019-.199-.049-.29 1.781-.382 2.963-1.955 2.963-4.087 0-.326-.196-.599-.468-.701-.069-.518-.213-1.014-.425-1.466.105-.142.17-.322.17-.518 0-.467-.355-.846-.793-.846s-.793.379-.793.846.355.846.793.846c.05 0 .096-.007.142-.016.169.371.287.777.347 1.2-.221.125-.373.37-.373.655 0 1.632-.952 2.685-2.425 2.685s-2.425-1.053-2.425-2.685c0-.285-.151-.531-.372-.655.058-.423.176-.829.347-1.2.046.009.094.016.142.016.437 0 .792-.379.792-.846s-.355-.846-.792-.846c-.438 0-.794.379-.794.846 0 .196.066.376.171.518-.212.452-.357.948-.426 1.466-.272.102-.468.375-.468.701 0 2.185 1.241 3.781 3.096 4.112-.026.083-.041.172-.041.265v1.912c0 .439.296.802.686.878.341 1.15 1.33 1.984 2.495 1.984" fill="#fff"/><path clip-path="url(#f)" d="m-67.496-44.823c0-.159.128-.287.285-.287h9.675c.157 0 .285.128.285.287v14.031c0 .157-.128.286-.285.286h-9.675c-.157 0-.285-.129-.285-.286zm.285 14.823h9.675c.412 0 .748-.32.782-.726v-14.164c-.034-.406-.37-.726-.782-.726h-9.675c-.435 0-.789.356-.789.793v14.031c0 .436.354.792.789.792" fill="#fff"/><path clip-path="url(#f)" d="m-65.883-37.555h7.02v5.143c0 .158-.128.287-.285.287h-6.45c-.157 0-.285-.129-.285-.287zm0-5.65c0-.158.128-.286.285-.286h6.45c.157 0 .285.128.285.286v5.144h-7.02zm.285 11.586h6.45c.435 0 .789-.356.789-.793v-10.793c0-.437-.354-.792-.789-.792h-6.45c-.435 0-.789.355-.789.792v10.793c0 .437.354.793.789.793" fill="#fff"/><path clip-path="url(#f)" d="m-62.373-35.936c.602 0 1.092.492 1.092 1.096s-.49 1.096-1.092 1.096-1.092-.492-1.092-1.096.49-1.096 1.092-1.096m0 2.698c.88 0 1.595-.719 1.595-1.602 0-.884-.715-1.602-1.595-1.602s-1.596.718-1.596 1.602c0 .883.716 1.602 1.596 1.602" fill="#fff"/><path clip-path="url(#f)" d="m-62.373-42.378c-.139 0-.252.113-.252.253v2.698c0 .14.113.253.252.253s.252-.113.252-.253v-2.698c0-.14-.113-.253-.252-.253" fill="#fff"/><path clip-path="url(#g)" d="m-46.253-41.609h3.21.001c.228-.001.413-.187.413-.416v-1.241c0-.229-.186-.416-.414-.416h-3.208c-.228 0-.413.187-.413.416v1.241c0 .229.184.415.411.416" fill="#fff"/><path clip-path="url(#g)" d="m-41.012-33.646v-4.525c0-.663-.536-1.203-1.194-1.203h-.09c-.596 0-1.081-.488-1.081-1.088v-.475h-2.554v.475c0 .6-.485 1.088-1.081 1.088h-.076c-.658 0-1.194.54-1.194 1.203v.336h4.819c.185 0 .334.15.334.336v3.508c0 .185-.149.335-.334.335h-4.819v.408c0 .663.536 1.203 1.194 1.203h3.312c.043-.89.775-1.601 1.669-1.601z" fill="#fff"/><path d="m-48.281-37.163h4.486v2.836h-4.486z" fill="#fff"/><path clip-path="url(#h)" d="m-36.214-33.862-1.677-1.689c-.392-.395-1.028-.395-1.42 0-.393.395-.393 1.036 0 1.431l1.677 1.688c.392.395 1.028.395 1.42 0s.392-1.035 0-1.43" fill="#fff"/><path clip-path="url(#h)" d="m-39.693-33.023h-2.371c-.555 0-1.004.453-1.004 1.011 0 .559.449 1.012 1.004 1.012h2.371c.555 0 1.004-.453 1.004-1.012 0-.558-.449-1.011-1.004-1.011" fill="#fff"/></svg>