<svg enable-background="new 0 0 30 30" height="30" viewBox="0 0 30 30" width="30" xmlns="http://www.w3.org/2000/svg"><g fill="#fff"><path d="m7.173 12.65v.255c.452.187 1.13.364 2.079.364.659 0 1.19-.113 1.58-.24v-.293c-.409.121-.976.212-1.767.212-.846.001-1.457-.133-1.892-.298"/><path d="m23.099 14.868c-.126.039-.284.079-.495.131-.197.048-.445.112-.757.194-.18.048-.42.115-.706.196v.177c-.003.088.01.313.113.433.05.058.118.086.211.086.048 0 .104-.007.164-.024.263-.07.48-.12.666-.161.392-.088.606-.136.766-.279.183-.161.086-.508.085-.511z"/><path d="m11.971 21.019c-.008.213-.003.352-.003.358l.003.063-.033.052c-.023.036-.573.876-2.713.876-2.135 0-2.978-1.124-3.013-1.172l-.006-.006c-.114.17-.211.438-.219.858-.003.167.057.28.183.421.576.65 2.293.817 2.853.817h.077c1.903 0 3.043-.485 3.296-1.465.042-.161.028-.29-.047-.429-.08-.152-.224-.274-.378-.373"/><path d="m23.408 13.402c-.009-.052-.017-.113-.024-.183-.027-.245-.059-.54-.353-.741 0 .003 0 .008-.002.012-.189.88-3.821 1.658-9.623 2.629-.564.095-1.01.17-1.278.22-.222.042-.425.064-.608.064-.331 0-.603-.069-.812-.205-.068-.043-.129-.095-.184-.155-.065-.068-.111-.139-.148-.213-.162-.31-.128-.628-.126-.644.012-.1.095-.17.188-.156.089.014.153.106.142.206-.001.012-.034.323.179.55.015.015.035.03.052.046.007.003.012.009.018.014.089.07.2.118.333.151.238.054.542.05.908-.017.27-.052.719-.128 1.285-.224 2.269-.38 9.175-1.535 9.348-2.35.002-.009-.014-.044-.077-.093-.17-.04-.376-.064-.634-.064-.252 0-.539.024-.857.069-2.533.361-8.643 1.116-8.789 1.134h.002c.006 0-.08.025-.19.025-.264 0-.457-.14-.551-.388-.106.059-.258.133-.445.207-.099.04-.21.077-.333.115-.406.123-.931.226-1.578.226-.917 0-1.599-.156-2.08-.337-.126-.046-.234-.095-.332-.144-.132-.065-.246-.127-.333-.183v8.036c.176.197.989.991 2.717.991 1.668 0 2.271-.528 2.409-.68-.001-.09-.003-.255.008-.468.003-.057.008-.122.013-.187.005-.061.011-.125.017-.192.062-.609.225-1.402.625-2.041-.999.641-1.113 1.199-1.113 1.206-.016.09-.086.153-.164.153-.01 0-.017 0-.028-.002-.089-.016-.151-.108-.138-.206.008-.054.208-1.309 3.009-2.272 1.736-.66 5.073-1.672 6.95-2.208.117-.034.226-.065.331-.095.248-.07.461-.129.627-.172.315-.084.563-.145.762-.196.233-.057.387-.096.496-.132.035-.01.066-.022.093-.032.097-.04.147-.079.19-.138.007-.009.011-.019.018-.027.104-.155.186-.39.08-.909"/><path d="m7.173 12.259c.399.17 1.005.321 1.89.321.831 0 1.393-.105 1.767-.228.134-.043.244-.089.333-.134.186-.092.288-.176.333-.223v-1.181c-.009-.054-.007-.12.025-.189.076-.165.28-.273.644-.34.611-.112 7.111-1.885 7.176-1.903.159-.027.588-.151.684-.404.051-.134.006-.312-.136-.527-.425-.644-.798-.718-1.041-.718-.15 0-.293.031-.431.059l-.091.018c-.448.092-6.561 1.705-6.624 1.722l-.206.055v-.454c-.504.182-1.177.325-2.056.325-.145 0-.292-.003-.447-.012-1.286-.067-2.042-.372-2.487-.68v4.058c.047.051.152.154.333.266.092.054.201.112.334.169"/><path d="m11.496 7.74c0-.053-.022-.225-.255-.416-.269-.225-.86-.509-2.155-.591-1.981-.13-2.459.425-2.558.601.348.301 1.057.67 2.482.743 1.122.06 1.93-.12 2.486-.337"/></g></svg>