<svg enable-background="new 0 0 30 30" height="30" viewBox="0 0 30 30" width="30" xmlns="http://www.w3.org/2000/svg"><g fill="#fff"><path d="m11.168 18.73c0-1.787-1.39-3.239-3.097-3.239-1.708 0-3.097 1.453-3.097 3.239 0 1.787 1.39 3.241 3.097 3.241s3.097-1.454 3.097-3.241zm-3.098 1.155c-.61 0-1.103-.516-1.103-1.154 0-.637.494-1.153 1.103-1.153.61 0 1.103.516 1.103 1.153.001.637-.493 1.154-1.103 1.154z"/><path d="m12.008 16.956c.224.544.349 1.145.349 1.774 0 2.102-1.389 3.87-3.256 4.354h5.238v-.622c0-1.899-.628-3.655-1.77-4.947-.178-.2-.365-.386-.561-.559z"/><path d="m8.07 14.246c1.708 0 3.097-1.454 3.097-3.241s-1.39-3.239-3.097-3.239c-1.708 0-3.097 1.453-3.097 3.239 0 1.787 1.39 3.241 3.097 3.241zm0-4.394c.61 0 1.103.516 1.103 1.153 0 .638-.494 1.154-1.103 1.154-.61 0-1.103-.516-1.103-1.154 0-.637.494-1.153 1.103-1.153z"/><path d="m12.358 11.005c0 1.273-.51 2.423-1.326 3.241h7.726c.854 0 1.678.144 2.45.424 1.073-.803 1.774-2.117 1.774-3.599 0-2.434-1.89-4.413-4.216-4.419h-9.662c1.866.486 3.254 2.253 3.254 4.353z"/><path d="m23.256 17.515c-1.154-1.305-2.751-2.024-4.498-2.024h-6.641c.48.331.925.726 1.327 1.179 1.346 1.523 2.086 3.58 2.086 5.792v.622.264h9.497v-.886c0-1.898-.629-3.656-1.771-4.947z"/></g></svg>