<?xml version="1.0" encoding="utf-8"?>
<!-- Generator: Adobe Illustrator 17.0.0, SVG Export Plug-In . SVG Version: 6.00 Build 0)  -->
<!DOCTYPE svg PUBLIC "-//W3C//DTD SVG 1.1//EN" "http://www.w3.org/Graphics/SVG/1.1/DTD/svg11.dtd">
<svg version="1.1" id="Layer_1" xmlns="http://www.w3.org/2000/svg" xmlns:xlink="http://www.w3.org/1999/xlink" x="0px" y="0px"
	 width="205px" height="50px" viewBox="0 0 205 50" enable-background="new 0 0 205 50" xml:space="preserve">
<circle fill="#4bbab5" cx="83.972" cy="33.421" r="0.976"/>
<path fill="#4bbab5" d="M84.814,24.305c0-0.971-0.139-1.909-0.398-2.797h-0.001c-1.209-4.144-5.036-7.173-9.571-7.173
	c-1.078,0-2.116,0.171-3.087,0.488c-2.15,0.7-3.98,2.111-5.211,3.956c-0.371,0.556-0.684,1.153-0.939,1.78
	c-0.101,0.249-0.194,0.502-0.276,0.761c-0.005,0.016-0.012,0.032-0.017,0.048c-0.03,0.098-0.053,0.199-0.08,0.299
	c-0.058,0.214-0.111,0.431-0.155,0.65c-0.033,0.161-0.062,0.323-0.087,0.486c-0.076,0.49-0.118,0.991-0.118,1.501
	c0,0.225,0.009,0.447,0.024,0.668c0.03,0.456,0.093,0.901,0.183,1.338c0.02,0.095,0.037,0.192,0.059,0.287
	c0.353,1.5,1.051,2.864,1.995,4.017c1.828,2.232,4.599,3.66,7.708,3.66c3.815,0,7.13-2.144,8.806-5.292
	C84.392,27.588,84.814,25.996,84.814,24.305z"/>
<circle fill="#4bbab5" cx="83.972" cy="15.166" r="0.976"/>
<path fill="#4bbab5" d="M74.844,2.604c-11.986,0-21.702,9.716-21.702,21.702s9.716,21.702,21.702,21.702s21.702-9.716,21.702-21.702
	S86.83,2.604,74.844,2.604z M90.396,27.362c-0.785,4.015-3.085,7.488-6.282,9.797c-2.607,1.883-5.809,2.994-9.27,2.994
	c-4.566,0-8.679-1.932-11.571-5.021c-1.482-1.584-2.643-3.471-3.379-5.559c-0.581-1.648-0.898-3.421-0.898-5.267
	c0-0.855,0.068-1.693,0.199-2.511c0.733-4.607,3.452-8.552,7.252-10.93c2.435-1.525,5.312-2.407,8.397-2.407
	c4.755,0,9.02,2.094,11.924,5.41c1.475,1.685,2.6,3.685,3.259,5.887c0.431,1.442,0.664,2.969,0.664,4.55
	C90.692,25.351,90.59,26.373,90.396,27.362L90.396,27.362z"/>
<circle fill="#4bbab5" cx="87.753" cy="24.293" r="0.976"/>
<circle fill="#4bbab5" cx="65.717" cy="33.421" r="0.976"/>
<circle fill="#4bbab5" cx="74.844" cy="37.201" r="0.976"/>
<circle fill="#4bbab5" cx="65.717" cy="15.166" r="0.976"/>
<circle fill="#4bbab5" cx="61.936" cy="24.293" r="0.976"/>
<circle fill="#4bbab5" cx="74.844" cy="11.384" r="0.976"/>
<circle fill="#4bbab5" cx="136.848" cy="33.421" r="0.976"/>
<path fill="#4bbab5" d="M137.69,24.305c0-0.971-0.139-1.909-0.398-2.797h-0.001c-1.209-4.144-5.036-7.173-9.571-7.173
	c-1.078,0-2.116,0.171-3.087,0.488c-2.15,0.7-3.98,2.111-5.211,3.956c-0.371,0.556-0.684,1.153-0.939,1.78
	c-0.101,0.249-0.194,0.502-0.276,0.761c-0.005,0.016-0.012,0.032-0.017,0.048c-0.03,0.098-0.053,0.199-0.08,0.299
	c-0.058,0.214-0.111,0.431-0.155,0.65c-0.033,0.161-0.062,0.323-0.087,0.486c-0.076,0.49-0.118,0.991-0.118,1.501
	c0,0.225,0.009,0.447,0.024,0.668c0.03,0.456,0.093,0.901,0.183,1.338c0.02,0.095,0.037,0.192,0.059,0.287
	c0.353,1.5,1.051,2.864,1.995,4.017c1.828,2.232,4.599,3.66,7.708,3.66c3.815,0,7.13-2.144,8.806-5.292
	C137.268,27.588,137.69,25.996,137.69,24.305z"/>
<circle fill="#4bbab5" cx="136.848" cy="15.166" r="0.976"/>
<path fill="#4bbab5" d="M127.72,2.604c-11.986,0-21.702,9.716-21.702,21.702s9.716,21.702,21.702,21.702
	c11.986,0,21.702-9.716,21.702-21.702S139.706,2.604,127.72,2.604z M143.272,27.362c-0.785,4.015-3.085,7.488-6.282,9.797
	c-2.607,1.883-5.809,2.994-9.27,2.994c-4.566,0-8.679-1.932-11.571-5.021c-1.482-1.584-2.643-3.471-3.379-5.559
	c-0.581-1.648-0.898-3.421-0.898-5.267c0-0.855,0.068-1.693,0.199-2.511c0.733-4.607,3.452-8.552,7.252-10.93
	c2.435-1.525,5.312-2.407,8.397-2.407c4.755,0,9.02,2.094,11.924,5.41c1.475,1.685,2.6,3.685,3.259,5.887
	c0.431,1.442,0.664,2.969,0.664,4.55C143.568,25.351,143.466,26.373,143.272,27.362L143.272,27.362z"/>
<circle fill="#4bbab5" cx="140.629" cy="24.293" r="0.976"/>
<circle fill="#4bbab5" cx="118.593" cy="33.421" r="0.976"/>
<circle fill="#4bbab5" cx="127.72" cy="37.201" r="0.976"/>
<circle fill="#4bbab5" cx="118.593" cy="15.166" r="0.976"/>
<circle fill="#4bbab5" cx="114.812" cy="24.293" r="0.976"/>
<circle fill="#4bbab5" cx="127.72" cy="11.384" r="0.976"/>
<circle fill="#4bbab5" cx="189.724" cy="33.421" r="0.976"/>
<path fill="#4bbab5" d="M190.566,24.305c0-0.971-0.139-1.909-0.398-2.797h-0.001c-1.209-4.144-5.036-7.173-9.571-7.173
	c-1.078,0-2.116,0.171-3.087,0.488c-2.15,0.7-3.98,2.111-5.211,3.956c-0.371,0.556-0.684,1.153-0.939,1.78
	c-0.101,0.249-0.194,0.502-0.276,0.761c-0.005,0.016-0.012,0.032-0.017,0.048c-0.03,0.098-0.053,0.199-0.08,0.299
	c-0.058,0.214-0.111,0.431-0.155,0.65c-0.033,0.161-0.062,0.323-0.087,0.486c-0.076,0.49-0.118,0.991-0.118,1.501
	c0,0.225,0.009,0.447,0.024,0.668c0.03,0.456,0.093,0.901,0.183,1.338c0.02,0.095,0.037,0.192,0.059,0.287
	c0.353,1.5,1.051,2.864,1.995,4.017c1.828,2.232,4.599,3.66,7.708,3.66c3.815,0,7.13-2.144,8.806-5.292
	C190.144,27.588,190.566,25.996,190.566,24.305z"/>
<circle fill="#4bbab5" cx="189.724" cy="15.166" r="0.976"/>
<path fill="#4bbab5" d="M180.596,2.604c-11.986,0-21.702,9.716-21.702,21.702s9.716,21.702,21.702,21.702
	c11.986,0,21.702-9.716,21.702-21.702S192.582,2.604,180.596,2.604z M196.148,27.362c-0.785,4.015-3.085,7.488-6.282,9.797
	c-2.607,1.883-5.809,2.994-9.27,2.994c-4.566,0-8.679-1.932-11.571-5.021c-1.482-1.584-2.643-3.471-3.379-5.559
	c-0.581-1.648-0.898-3.421-0.898-5.267c0-0.855,0.068-1.693,0.199-2.511c0.733-4.607,3.452-8.552,7.252-10.93
	c2.435-1.525,5.312-2.407,8.397-2.407c4.755,0,9.02,2.094,11.924,5.41c1.475,1.685,2.6,3.685,3.259,5.887
	c0.431,1.442,0.664,2.969,0.664,4.55C196.444,25.351,196.342,26.373,196.148,27.362L196.148,27.362z"/>
<circle fill="#4bbab5" cx="193.505" cy="24.293" r="0.976"/>
<circle fill="#4bbab5" cx="171.469" cy="33.421" r="0.976"/>
<circle fill="#4bbab5" cx="180.596" cy="37.201" r="0.976"/>
<circle fill="#4bbab5" cx="171.469" cy="15.166" r="0.976"/>
<circle fill="#4bbab5" cx="167.688" cy="24.293" r="0.976"/>
<circle fill="#4bbab5" cx="180.596" cy="11.384" r="0.976"/>
<circle fill="#4bbab5" cx="31.924" cy="33.421" r="0.976"/>
<path fill="#4bbab5" d="M32.766,24.305c0-0.971-0.139-1.909-0.398-2.797h-0.001c-1.209-4.144-5.036-7.173-9.571-7.173
	c-1.078,0-2.116,0.171-3.087,0.488c-2.15,0.7-3.98,2.111-5.211,3.956c-0.371,0.556-0.684,1.153-0.939,1.78
	c-0.101,0.249-0.194,0.502-0.276,0.761c-0.005,0.016-0.012,0.032-0.017,0.048c-0.03,0.098-0.053,0.199-0.08,0.299
	c-0.058,0.214-0.111,0.431-0.155,0.65c-0.033,0.161-0.062,0.323-0.087,0.486c-0.076,0.49-0.118,0.991-0.118,1.501
	c0,0.225,0.009,0.447,0.024,0.668c0.03,0.456,0.093,0.901,0.183,1.338c0.02,0.095,0.037,0.192,0.059,0.287
	c0.353,1.5,1.051,2.864,1.995,4.017c1.828,2.232,4.599,3.66,7.708,3.66c3.815,0,7.13-2.144,8.806-5.292
	C32.345,27.588,32.767,25.996,32.766,24.305z"/>
<circle fill="#4bbab5" cx="31.924" cy="15.166" r="0.976"/>
<path fill="#4bbab5" d="M22.796,2.604c-11.986,0-21.702,9.716-21.702,21.702s9.716,21.702,21.702,21.702s21.702-9.716,21.702-21.702
	S34.782,2.604,22.796,2.604z M38.348,27.362c-0.785,4.015-3.085,7.488-6.282,9.797c-2.607,1.883-5.809,2.994-9.27,2.994
	c-4.566,0-8.679-1.932-11.571-5.021c-1.482-1.584-2.643-3.471-3.379-5.559c-0.581-1.648-0.898-3.421-0.898-5.267
	c0-0.855,0.068-1.693,0.199-2.511c0.733-4.607,3.452-8.552,7.252-10.93c2.435-1.525,5.312-2.407,8.397-2.407
	c4.755,0,9.02,2.094,11.924,5.41c1.475,1.685,2.6,3.685,3.259,5.887c0.431,1.442,0.664,2.969,0.664,4.55
	C38.645,25.351,38.543,26.373,38.348,27.362L38.348,27.362z"/>
<circle fill="#4bbab5" cx="35.706" cy="24.293" r="0.976"/>
<circle fill="#4bbab5" cx="13.669" cy="33.421" r="0.976"/>
<circle fill="#4bbab5" cx="22.797" cy="37.201" r="0.976"/>
<circle fill="#4bbab5" cx="13.669" cy="15.166" r="0.976"/>
<circle fill="#4bbab5" cx="9.888" cy="24.293" r="0.976"/>
<circle fill="#4bbab5" cx="22.797" cy="11.384" r="0.976"/>
</svg>
