<?xml version="1.0" encoding="utf-8"?>
<!-- Generator: Adobe Illustrator 17.0.0, SVG Export Plug-In . SVG Version: 6.00 Build 0)  -->
<!DOCTYPE svg PUBLIC "-//W3C//DTD SVG 1.1//EN" "http://www.w3.org/Graphics/SVG/1.1/DTD/svg11.dtd">
<svg version="1.1" id="Layer_1" xmlns="http://www.w3.org/2000/svg" xmlns:xlink="http://www.w3.org/1999/xlink" x="0px" y="0px"
	 width="100px" height="50px" viewBox="0 0 100 50" enable-background="new 0 0 100 50" xml:space="preserve">
<circle fill="#4bbab5" cx="83.569" cy="33.764" r="0.975"/>
<path fill="#4bbab5" d="M84.41,24.651c0-0.971-0.139-1.909-0.398-2.796h-0.001c-1.209-4.143-5.035-7.171-9.569-7.171
	c-1.078,0-2.115,0.171-3.087,0.488c-2.15,0.7-3.979,2.111-5.209,3.955c-0.371,0.556-0.684,1.153-0.938,1.78
	c-0.101,0.249-0.194,0.502-0.276,0.761c-0.005,0.016-0.012,0.032-0.017,0.048c-0.03,0.098-0.053,0.199-0.08,0.299
	c-0.058,0.214-0.11,0.431-0.155,0.65c-0.032,0.161-0.062,0.323-0.087,0.486c-0.076,0.49-0.118,0.99-0.118,1.501
	c0,0.225,0.009,0.447,0.024,0.668c0.03,0.455,0.093,0.901,0.182,1.338c0.02,0.095,0.037,0.192,0.059,0.286
	c0.353,1.499,1.051,2.863,1.995,4.016c1.828,2.231,4.598,3.66,7.706,3.66c3.815,0,7.128-2.143,8.804-5.291
	C83.989,27.932,84.41,26.341,84.41,24.651z"/>
<circle fill="#4bbab5" cx="83.569" cy="15.513" r="0.975"/>
<path fill="#4bbab5" d="M74.443,2.954c-11.983,0-21.697,9.714-21.697,21.697s9.714,21.697,21.697,21.697S96.14,36.634,96.14,24.651
	S86.426,2.954,74.443,2.954z M89.991,27.707c-0.785,4.014-3.085,7.486-6.281,9.795c-2.606,1.883-5.807,2.993-9.268,2.993
	c-4.565,0-8.677-1.931-11.569-5.02c-1.482-1.583-2.643-3.471-3.378-5.558c-0.581-1.648-0.897-3.42-0.897-5.266
	c0-0.855,0.068-1.692,0.199-2.51c0.733-4.606,3.451-8.55,7.251-10.928c2.434-1.524,5.311-2.406,8.395-2.406
	c4.754,0,9.018,2.094,11.922,5.409c1.475,1.685,2.599,3.685,3.258,5.886c0.431,1.442,0.664,2.968,0.664,4.549
	C90.287,25.696,90.185,26.718,89.991,27.707L89.991,27.707z"/>
<circle fill="#4bbab5" cx="87.349" cy="24.638" r="0.975"/>
<circle fill="#4bbab5" cx="65.317" cy="33.764" r="0.975"/>
<circle fill="#4bbab5" cx="74.443" cy="37.544" r="0.975"/>
<circle fill="#4bbab5" cx="65.317" cy="15.513" r="0.975"/>
<circle fill="#4bbab5" cx="61.537" cy="24.638" r="0.975"/>
<circle fill="#4bbab5" cx="74.443" cy="11.733" r="0.975"/>
<circle fill="#4bbab5" cx="31.484" cy="33.764" r="0.975"/>
<path fill="#4bbab5" d="M32.326,24.651c0-0.971-0.139-1.909-0.398-2.796h-0.001c-1.209-4.143-5.035-7.171-9.569-7.171
	c-1.078,0-2.115,0.171-3.087,0.488c-2.15,0.7-3.979,2.111-5.209,3.955c-0.371,0.556-0.684,1.153-0.938,1.78
	c-0.101,0.249-0.194,0.502-0.276,0.761c-0.005,0.016-0.012,0.032-0.017,0.048c-0.03,0.098-0.053,0.199-0.08,0.299
	c-0.058,0.214-0.11,0.431-0.155,0.65c-0.032,0.161-0.062,0.323-0.087,0.486c-0.076,0.49-0.118,0.99-0.118,1.501
	c0,0.225,0.009,0.447,0.024,0.668c0.03,0.455,0.093,0.901,0.182,1.338c0.02,0.095,0.037,0.192,0.059,0.286
	c0.353,1.499,1.051,2.863,1.995,4.016c1.828,2.231,4.598,3.66,7.706,3.66c3.815,0,7.128-2.143,8.804-5.291
	C31.905,27.932,32.326,26.341,32.326,24.651z"/>
<circle fill="#4bbab5" cx="31.484" cy="15.513" r="0.975"/>
<path fill="#4bbab5" d="M22.359,2.954c-11.983,0-21.697,9.714-21.697,21.697s9.714,21.697,21.697,21.697s21.697-9.714,21.697-21.697
	S34.342,2.954,22.359,2.954z M37.906,27.707c-0.785,4.014-3.085,7.486-6.281,9.795c-2.606,1.883-5.807,2.993-9.268,2.993
	c-4.565,0-8.677-1.931-11.569-5.02c-1.482-1.583-2.643-3.471-3.378-5.558c-0.581-1.648-0.897-3.42-0.897-5.266
	c0-0.855,0.068-1.692,0.199-2.51c0.733-4.606,3.451-8.55,7.251-10.928c2.434-1.524,5.311-2.406,8.395-2.406
	c4.754,0,9.018,2.094,11.922,5.409c1.475,1.685,2.599,3.685,3.258,5.886c0.431,1.442,0.664,2.968,0.664,4.549
	C38.203,25.696,38.101,26.718,37.906,27.707L37.906,27.707z"/>
<circle fill="#4bbab5" cx="35.264" cy="24.638" r="0.975"/>
<circle fill="#4bbab5" cx="13.233" cy="33.764" r="0.975"/>
<circle fill="#4bbab5" cx="22.358" cy="37.544" r="0.975"/>
<circle fill="#4bbab5" cx="13.233" cy="15.513" r="0.975"/>
<circle fill="#4bbab5" cx="9.453" cy="24.638" r="0.975"/>
<circle fill="#4bbab5" cx="22.358" cy="11.733" r="0.975"/>
</svg>
