<?xml version="1.0" encoding="utf-8"?>
<!-- Generator: Adobe Illustrator 17.0.0, SVG Export Plug-In . SVG Version: 6.00 Build 0)  -->
<!DOCTYPE svg PUBLIC "-//W3C//DTD SVG 1.1//EN" "http://www.w3.org/Graphics/SVG/1.1/DTD/svg11.dtd">
<svg version="1.1" id="Layer_1" xmlns="http://www.w3.org/2000/svg" xmlns:xlink="http://www.w3.org/1999/xlink" x="0px" y="0px"
	 width="50px" height="50px" viewBox="0 0 50 50" enable-background="new 0 0 50 50" xml:space="preserve">
<circle fill="#4bbab5" cx="31.281" cy="34.115" r="0.976"/>
<path fill="#4bbab5" d="M32.123,24.999c0-0.971-0.139-1.909-0.398-2.797h-0.001c-1.209-4.144-5.036-7.173-9.571-7.173
	c-1.078,0-2.116,0.171-3.087,0.488c-2.15,0.7-3.98,2.111-5.211,3.956c-0.371,0.556-0.684,1.153-0.939,1.78
	c-0.101,0.249-0.194,0.502-0.276,0.761c-0.005,0.016-0.012,0.032-0.017,0.048c-0.03,0.098-0.053,0.199-0.08,0.299
	c-0.058,0.214-0.111,0.431-0.155,0.65c-0.033,0.161-0.062,0.323-0.087,0.486c-0.076,0.49-0.118,0.991-0.118,1.501
	c0,0.225,0.009,0.447,0.024,0.668c0.03,0.456,0.093,0.901,0.183,1.338c0.02,0.095,0.037,0.192,0.059,0.287
	c0.353,1.5,1.051,2.864,1.995,4.017c1.828,2.232,4.599,3.66,7.708,3.66c3.815,0,7.13-2.144,8.806-5.292
	C31.701,28.282,32.123,26.69,32.123,24.999z"/>
<circle fill="#4bbab5" cx="31.281" cy="15.86" r="0.976"/>
<path fill="#4bbab5" d="M22.153,3.298C10.167,3.298,0.451,13.014,0.451,25s9.716,21.702,21.702,21.702S43.855,36.986,43.855,25
	S34.139,3.298,22.153,3.298z M37.705,28.056c-0.785,4.015-3.085,7.488-6.282,9.797c-2.607,1.883-5.809,2.994-9.27,2.994
	c-4.566,0-8.679-1.932-11.571-5.021c-1.482-1.584-2.643-3.471-3.379-5.559C6.622,28.619,6.305,26.846,6.305,25
	c0-0.855,0.068-1.693,0.199-2.511c0.733-4.607,3.452-8.552,7.252-10.93c2.435-1.525,5.312-2.407,8.397-2.407
	c4.755,0,9.02,2.094,11.924,5.41c1.475,1.685,2.6,3.685,3.259,5.887C37.767,21.891,38,23.418,38,24.999
	C38.001,26.045,37.899,27.067,37.705,28.056L37.705,28.056z"/>
<circle fill="#4bbab5" cx="35.062" cy="24.987" r="0.976"/>
<circle fill="#4bbab5" cx="13.026" cy="34.115" r="0.976"/>
<circle fill="#4bbab5" cx="22.153" cy="37.895" r="0.976"/>
<circle fill="#4bbab5" cx="13.026" cy="15.86" r="0.976"/>
<circle fill="#4bbab5" cx="9.245" cy="24.987" r="0.976"/>
<circle fill="#4bbab5" cx="22.153" cy="12.078" r="0.976"/>
</svg>
