<?xml version="1.0" encoding="utf-8"?>
<!-- Generator: Adobe Illustrator 24.1.0, SVG Export Plug-In . SVG Version: 6.00 Build 0)  -->
<svg version="1.1" id="Layer_1" xmlns="http://www.w3.org/2000/svg" xmlns:xlink="http://www.w3.org/1999/xlink" x="0px" y="0px"
	 viewBox="0 0 2560 1253" style="enable-background:new 0 0 2560 1253;" xml:space="preserve">
<style type="text/css">
	.st0{fill:none;}
	.st1{fill:#08A08A;}
	.st2{opacity:0.3;fill:#08A08A;enable-background:new    ;}
</style>
<path class="st0" d="M862.5,0c32.7,51,58.3,108.9,73.5,174c18.4,78.9,36.5,234.8-48.7,392.2C869.4,599,770.8,765.7,577.4,819.3
	c-39.2,10.9-80.3,16.4-122.1,16.4c-167.4,0-337.7-87.4-454.3-224.3V698c48.2,45.2,101.8,83.6,159.7,114.4
	c96.2,51.1,197.7,77.3,295.6,77.3c32.1,0,63.7-2.8,94.7-8.4c31.1-11.2,61.5-25,91.1-41.6c65.7-36.7,114.3-79.2,143.5-108.5
	c49.5-49.7,90.1-107.7,120.5-172.4c28-59.5,47.4-124.5,57.9-193.4c15.3-101.4,10.6-209.1-13-309.9c-9-19-19-37.5-30-55.5H862.5z"/>
<path class="st0" d="M2560,650.2c-136.4-108.6-292.2-178.1-429.3-211.6c-51.5-12.6-158.8-38.7-285.8-38.7
	c-170.8,0-315.2,47-429.3,139.8c-205,166.8-274.8,453.9-246.5,728.6H2560V650.2z"/>
<path class="st0" d="M159.3,815C101.9,784.5,48.8,746.6,1,702.1v100.8C27.5,822,56,839,86.2,853.5c41.4,19.9,86.3,35.3,133.5,45.8
	c79.6,17.8,142.8,16.6,160.2,15.8c52.7-2.4,104.2-11.8,154-28.1c-25.5,3.7-51.5,5.6-77.7,5.6C357.8,892.6,255.9,866.3,159.3,815z"/>
<path class="st0" d="M2133.5,361.7L2133.5,361.7c149.9,35.7,297.9,102.7,426.5,192.1V335.9c-62.1-50.6-130.1-89.4-203.5-116
	c-76.1-27.6-156.6-41.4-240.1-41.4c-28.1,0-56.5,1.6-85.2,4.7c-105.3,11.5-212.5,43.7-318.7,95.8c-39.4,19.3-78,41.1-115.6,65.1
	c62.5-15.4,129.4-23.6,200.4-24.7C1946.6,317.2,2072.9,347.2,2133.5,361.7z"/>
<path class="st0" d="M1214.9,718.1c90.4-141.9,219.2-270.4,364.9-366.5c-92.9,25.2-175.9,66.5-247.9,123.8
	c-81.8,64.9-147.4,148.6-194.9,248.8c-43.9,92.4-71.7,196.8-82.7,310.4c-4,41.4-5.7,83.5-5.1,125.8c5.4-33.1,12.1-66,20.2-98.8
	C1100.3,936.7,1149.2,821.2,1214.9,718.1z"/>
<path class="st0" d="M966.9,365.8c-10.5,69.2-30,134.6-58.1,194.3c-30.6,65-71.4,123.3-121.1,173.2c-29.3,29.4-78.1,72.1-144.1,109
	c-24.3,13.5-49.1,25.3-74.3,35.3c7.7-1.7,15.3-3.6,22.9-5.6c50.8-13.7,99.8-35.6,145.6-65.1c37.3-24,72.7-53.1,105.3-86.5
	c54.9-56.4,85.9-109,94.1-123.7c43-77.5,66.8-162.8,70.7-253.6c3.2-72.6-7.2-134-16.5-172.8c-8.3-34.9-19.8-68.8-34.4-101.6
	C978,165.7,981.6,268.7,966.9,365.8z"/>
<path class="st0" d="M947.6,41.7c-3.6-14.1-7.5-28-11.8-41.7h-11.3C932.8,13.7,940.5,27.6,947.6,41.7z"/>
<path class="st0" d="M1047.1,1194.4c-3.3,24.6-5.9,49.2-7.7,73.9h13C1049.9,1243.7,1048.2,1219,1047.1,1194.4z"/>
<path class="st0" d="M1166.1,1268.3c-28.3-275.5,41.9-563.5,247.6-730.9c114.6-93.2,259.7-140.5,431.2-140.5
	c127.4,0,234.8,26.2,286.5,38.8c136.8,33.4,292.3,102.6,428.6,210.7v-89c-128.7-89.8-277-157.1-427.2-192.8l0.3-1.5l-0.3,1.5
	c-58.4-13.9-177.6-42.3-319.6-42.3c-5.3,0-10.6,0-15.9,0.1c-74,1.1-143.6,10.1-208.4,26.8c-148.5,96.3-279.9,226.5-371.6,370.5
	c-65.5,102.8-114.3,218-145.1,342.5c-9.4,38.2-17,76.6-22.8,115.2c0.8,30.3,2.8,60.6,5.9,90.9L1166.1,1268.3L1166.1,1268.3z"/>
<path class="st0" d="M1,606.8c116.1,137.8,286.7,225.9,454.3,225.9c41.5,0,82.3-5.5,121.3-16.3c192.2-53.2,290.2-219,307.9-251.7
	c84.8-156.5,66.7-311.6,48.4-390.1c-15.1-65.4-41-123.5-74-174.6H1V606.8z"/>
<path class="st1" d="M1047.1,1194.4c1,24.6,2.8,49.3,5.3,73.9h3c-3.1-30.3-5.1-60.6-5.9-90.9
	C1048.7,1183.1,1047.9,1188.7,1047.1,1194.4z"/>
<path class="st1" d="M1134.2,722.8c-44,92.7-72,197.5-83,311.4c-4.5,47-6.1,94.9-4.7,143c0.8-5.6,1.7-11.3,2.7-16.9
	c-0.6-42.3,1.1-84.4,5.1-125.8c11-113.6,38.8-218,82.7-310.4c47.6-100.1,113.2-183.8,194.9-248.8c72.1-57.2,155-98.6,247.9-123.8
	c2.7-1.7,5.3-3.5,8-5.2c-96.9,25-183.1,67.3-257.8,126.6C1247.9,538.3,1182,622.3,1134.2,722.8z"/>
<path class="st1" d="M2133.5,361.7L2133.5,361.7c-60.7-14.4-186.9-44.5-336.2-42.2c-71,1.1-137.9,9.3-200.4,24.7
	c-2.6,1.7-5.3,3.4-7.9,5.1c64.8-16.7,134.3-25.7,208.4-26.8c5.3-0.1,10.6-0.1,15.9-0.1c142,0,261.2,28.4,319.6,42.3l0.3-1.5
	l-0.3,1.5c150.2,35.8,298.5,103,427.2,192.8v-3.7C2431.4,464.3,2283.4,397.4,2133.5,361.7z"/>
<path class="st1" d="M1036.4,1268.3h3c1.8-24.7,4.4-49.3,7.7-73.9c-0.2-5.7-0.4-11.5-0.6-17.2
	C1042,1207.5,1038.6,1237.9,1036.4,1268.3z"/>
<path class="st1" d="M1214.9,718.1c-65.7,103.1-114.6,218.6-145.5,343.4c-8.1,32.8-14.8,65.7-20.2,98.8c0.1,5.7,0.2,11.4,0.4,17.1
	c5.8-38.6,13.4-77,22.8-115.2c30.8-124.5,79.6-239.7,145.1-342.5c91.7-144,223.1-274.2,371.6-370.5c-3.1,0.8-6.1,1.6-9.2,2.4
	C1434.1,447.7,1305.3,576.2,1214.9,718.1z"/>
<path class="st1" d="M2357.5,217.1c-102.2-37-212.1-49.4-326.7-36.9c-105.7,11.5-213.2,43.9-319.7,96.1
	c-42.1,20.6-83.3,44.1-123.4,70.1c3-0.8,6.1-1.5,9.1-2.3c37.6-24,76.2-45.8,115.6-65.1c106.1-52.1,213.4-84.3,318.7-95.8
	c28.7-3.1,57.1-4.7,85.2-4.7c83.5,0,164,13.9,240.1,41.4c73.4,26.6,141.3,65.3,203.5,116V332
	C2498.1,281.9,2430.5,243.5,2357.5,217.1z"/>
<path class="st1" d="M1589,349.2c2.6-1.7,5.3-3.4,7.9-5.1c-3,0.7-6.1,1.5-9.1,2.3c-2.7,1.7-5.3,3.5-8,5.2
	C1582.9,350.8,1585.9,350,1589,349.2z"/>
<path class="st1" d="M1049.5,1177.4c-0.2-5.7-0.3-11.4-0.4-17.1c-0.9,5.6-1.8,11.3-2.7,16.9c0.2,5.7,0.4,11.5,0.6,17.2
	C1047.9,1188.7,1048.7,1183.1,1049.5,1177.4z"/>
<path class="st2" d="M1844.9,396.9c-171.5,0-316.6,47.3-431.2,140.5c-205.7,167.4-275.9,455.4-247.6,730.9h3
	c-28.4-274.7,41.5-561.8,246.5-728.6c114.1-92.8,258.5-139.8,429.3-139.8c127,0,234.2,26.2,285.8,38.7
	c137.1,33.4,292.9,103,429.3,211.6v-3.8c-136.3-108-291.7-177.3-428.6-210.7C2079.8,423.1,1972.3,396.9,1844.9,396.9z"/>
<path class="st1" d="M160.7,812.3C102.8,781.6,49.2,743.2,1,697.9v4.1c47.8,44.6,100.9,82.5,158.3,112.9
	c96.6,51.4,198.6,77.6,297,77.6c26.2,0,52.1-1.9,77.7-5.6c5.7-1.9,11.4-3.8,17-5.8c-31,5.6-62.7,8.4-94.7,8.4
	C358.3,889.6,256.8,863.5,160.7,812.3z"/>
<path class="st1" d="M994.4,169.5c-9.5-39.6-23-78.1-40.5-115.1c1.1,4.7,2.2,9.4,3.2,14.2c14.6,32.8,26.1,66.8,34.4,101.6
	c9.3,38.8,19.6,100.2,16.5,172.8c-4,90.8-27.8,176.1-70.7,253.6C929,611.4,898,664,843.1,720.4c-32.5,33.4-68,62.5-105.3,86.5
	C692,836.3,643,858.2,592.2,872c-7.6,2.1-15.2,3.9-22.9,5.6c-5.8,2.3-11.6,4.5-17.4,6.6c13.9-2.5,27.6-5.6,41.1-9.3
	c51.1-13.8,100.4-35.8,146.5-65.4c37.5-24.1,73.1-53.3,105.8-86.9c55.2-56.7,86.4-109.5,94.6-124.3c43.2-77.9,67.1-163.7,71.1-255
	C1014.1,270.2,1003.7,208.5,994.4,169.5z"/>
<path class="st1" d="M947.6,41.7c-7.1-14.2-14.8-28.1-23.1-41.7H921c11,18,21,36.5,29.9,55.4C949.9,50.8,948.8,46.3,947.6,41.7z"/>
<path class="st1" d="M380,915.1c-17.5,0.8-80.7,2-160.2-15.8c-47.2-10.5-92.1-26-133.5-45.8C56,839,27.5,822,1,802.8v3.7
	c26.1,18.8,54.2,35.4,83.9,49.7c41.6,20,86.7,35.5,134.1,46c61.9,13.8,113.9,16.2,142.4,16.2c8.3,0,14.7-0.2,18.6-0.4
	c58.9-2.7,116.4-14.1,171.7-34c-5.9,1.1-11.9,2.1-17.8,2.9C484.1,903.3,432.6,912.7,380,915.1z"/>
<path class="st1" d="M953.8,54.4C949.5,36,944.6,17.8,939,0h-3.1c4.3,13.7,8.2,27.7,11.8,41.7C949.7,45.9,951.8,50.2,953.8,54.4z"/>
<path class="st1" d="M957,68.6c-2-4.4-4-8.8-6.1-13.2c23.6,100.8,28.3,208.6,13,309.9c-10.4,68.9-29.9,134-57.9,193.4
	c-30.4,64.7-71,122.7-120.5,172.4c-29.2,29.2-77.7,71.8-143.5,108.5c-29.6,16.5-60,30.4-91.1,41.6c6.1-1.1,12.2-2.3,18.3-3.7
	c25.2-10,50-21.7,74.3-35.3c66-36.8,114.8-79.6,144.1-109C837.4,683.3,878.1,625,908.7,560c28.1-59.7,47.7-125.1,58.1-194.3
	C981.6,268.7,978,165.7,957,68.6z"/>
<path class="st1" d="M951,55.4c2.1,4.4,4.1,8.8,6.1,13.2c-1-4.7-2.1-9.5-3.2-14.2c-2-4.2-4.1-8.5-6.2-12.7
	C948.8,46.3,949.9,50.8,951,55.4z"/>
<path class="st1" d="M551,881.2c-5.7,2-11.3,4-17,5.8c6-0.9,11.9-1.9,17.8-2.9c5.8-2.1,11.7-4.3,17.4-6.6
	C563.2,878.8,557.1,880.1,551,881.2z"/>
<path class="st2" d="M455.3,835.7c41.8,0,82.9-5.5,122.1-16.4c193.4-53.5,292-220.3,309.8-253.2c85.2-157.4,67.1-313.3,48.7-392.2
	c-15.2-65.1-40.8-123-73.5-174h-3.6c33,51.1,58.9,109.2,74.1,174.6c18.3,78.5,36.3,233.5-48.4,390.1
	c-17.7,32.7-115.7,198.5-307.9,251.7c-39,10.8-79.8,16.3-121.3,16.3c-167.6,0-338.2-88.1-454.3-225.9v4.6
	C117.7,748.3,287.9,835.7,455.3,835.7z"/>
</svg>
