<?xml version="1.0" encoding="utf-8"?>
<!-- Generator: Adobe Illustrator 24.1.0, SVG Export Plug-In . SVG Version: 6.00 Build 0)  -->
<svg version="1.1" id="Layer_1" xmlns="http://www.w3.org/2000/svg" xmlns:xlink="http://www.w3.org/1999/xlink" x="0px" y="0px"
	 viewBox="0 0 2560 1253" style="enable-background:new 0 0 2560 1253;" xml:space="preserve">
<style type="text/css">
	.st0{opacity:0.6;fill:#F7F7FB;}
	.st1{fill:none;}
	.st2{fill:#08A08A;}
	.st3{opacity:0.3;fill:#08A08A;enable-background:new    ;}
	.st4{opacity:0.3;fill:#08A08A;}
</style>
<path class="st0" d="M-2,1190.6c20.5,21.7,41.9,42.5,64,62.4h1215.2c74.1-79.7,116.7-153,130.4-178.2
	c139.2-257.1,109.6-511.7,79.6-640.6C1446,258,1358,113.8,1248-0.1H-2V1190.6z"/>
<path class="st1" d="M62,2347.7c-22.1-19.9-43.5-40.7-64-62.4v62.4H62z"/>
<g>
	<path class="st1" d="M1341,754.5c81.9-128.6,198.6-245,330.7-332.1c-84.2,22.8-159.4,60.3-224.6,112.2
		c-74.1,58.8-133.6,134.7-176.6,225.5c-39.8,83.7-65,178.3-74.9,281.3c-3.6,37.5-5.2,75.7-4.6,114c4.9-30,11-59.8,18.3-89.5
		C1237.1,952.6,1281.5,847.9,1341,754.5z"/>
	<path class="st2" d="M1680,420.2c2.4-1.5,4.8-3.1,7.2-4.6c-2.7,0.6-5.5,1.4-8.2,2.1c-2.4,1.5-4.8,3.2-7.2,4.7
		C1674.5,421.6,1677.2,420.9,1680,420.2z"/>
	<path class="st1" d="M2559.9,692.9c-123.6-98.4-264.8-161.4-389-191.7c-46.7-11.4-143.9-35.1-259-35.1
		c-154.8,0-285.6,42.6-389,126.7c-185.8,151.2-249,411.3-223.4,660.2h1260.4V692.9z"/>
	<path class="st1" d="M2173.4,431.5L2173.4,431.5c135.8,32.4,270,93.1,386.5,174.1V408.1c-56.3-45.9-117.9-81-184.4-105.1
		c-69-25-141.9-37.5-217.6-37.5c-25.5,0-51.2,1.4-77.2,4.3c-95.4,10.4-192.6,39.6-288.8,86.8c-35.7,17.5-70.7,37.2-104.8,59
		c56.6-14,117.3-21.4,181.6-22.4C2004.1,391.2,2118.5,418.4,2173.4,431.5z"/>
	<path class="st2" d="M2173.4,431.5L2173.4,431.5c-55-13-169.4-40.3-304.7-38.2c-64.3,1-125,8.4-181.6,22.4
		c-2.4,1.5-4.8,3.1-7.2,4.6c58.7-15.1,121.7-23.3,188.8-24.3c4.8-0.1,9.6-0.1,14.4-0.1c128.7,0,236.7,25.7,289.6,38.3l0.3-1.4
		l-0.3,1.4c136.1,32.4,270.5,93.3,387.1,174.7v-3.4C2443.4,524.5,2309.3,463.8,2173.4,431.5z"/>
	<path class="st2" d="M2376.4,300.5c-92.6-33.5-192.2-44.8-296.1-33.4c-95.8,10.4-193.2,39.8-289.7,87.1
		c-38.2,18.7-75.5,40-111.8,63.5c2.7-0.7,5.5-1.4,8.2-2.1c34.1-21.7,69.1-41.5,104.8-59c96.1-47.2,193.4-76.4,288.8-86.8
		c26-2.8,51.7-4.3,77.2-4.3c75.7,0,148.6,12.6,217.6,37.5c66.5,24.1,128,59.2,184.4,105.1v-3.5
		C2503.8,359.2,2442.6,324.4,2376.4,300.5z"/>
	<path class="st3" d="M1911.9,463.4c-155.4,0-286.9,42.9-390.7,127.3c-186.4,151.7-250,412.7-224.4,662.3h2.7
		c-25.7-248.9,37.6-509.1,223.4-660.2c103.4-84.1,234.3-126.7,389-126.7c115.1,0,212.2,23.7,259,35.1
		c124.2,30.3,265.4,93.3,389,191.7v-3.4c-123.5-97.9-264.3-160.7-388.4-190.9C2124.8,487.1,2027.3,463.4,1911.9,463.4z"/>
	<path class="st1" d="M1188.9,1186.1c-3,22.3-5.3,44.6-7,67h11.8C1191.5,1230.8,1189.9,1208.4,1188.9,1186.1z"/>
	<path class="st2" d="M1188.9,1186.1c0.9,22.3,2.5,44.7,4.8,67h2.7c-2.8-27.5-4.6-54.9-5.3-82.4
		C1190.4,1175.8,1189.7,1180.9,1188.9,1186.1z"/>
	<path class="st2" d="M1179.2,1253.1h2.7c1.6-22.4,4-44.7,7-67c-0.2-5.2-0.4-10.4-0.5-15.6C1184.3,1198,1181.2,1225.5,1179.2,1253.1
		z"/>
	<path class="st2" d="M1191.1,1170.7c-0.2-5.2-0.3-10.3-0.4-15.5c-0.8,5.1-1.6,10.2-2.4,15.3c0.2,5.2,0.4,10.4,0.5,15.6
		C1189.7,1180.9,1190.4,1175.8,1191.1,1170.7z"/>
	<path class="st2" d="M1341,754.5c-59.5,93.4-103.8,198.1-131.9,311.2c-7.3,29.7-13.4,59.5-18.3,89.5c0.1,5.2,0.2,10.3,0.4,15.5
		c5.3-35,12.1-69.8,20.7-104.4c27.9-112.8,72.1-217.2,131.5-310.4c83.1-130.5,202.2-248.5,336.7-335.7c-2.8,0.7-5.5,1.4-8.3,2.2
		C1539.6,509.4,1422.9,625.9,1341,754.5z"/>
	<path class="st1" d="M1296.8,1253.1c-25.6-249.7,38-510.6,224.4-662.3c103.8-84.5,235.3-127.3,390.7-127.3
		c115.4,0,212.8,23.7,259.6,35.2c124,30.3,264.9,93,388.4,190.9v-80.7c-116.6-81.4-251-142.4-387.1-174.7l0.3-1.4l-0.3,1.4
		c-52.9-12.6-160.9-38.3-289.6-38.3c-4.8,0-9.6,0-14.4,0.1c-67.1,1-130.1,9.2-188.8,24.3c-134.6,87.3-253.6,205.3-336.7,335.7
		c-59.4,93.2-103.6,197.5-131.5,310.4c-8.5,34.6-15.4,69.4-20.7,104.4c0.7,27.5,2.5,54.9,5.3,82.4H1296.8L1296.8,1253.1z"/>
	<path class="st2" d="M1267.9,758.7c-39.9,84-65.2,179-75.2,282.2c-4.1,42.6-5.5,86-4.3,129.6c0.7-5.1,1.5-10.2,2.4-15.3
		c-0.5-38.3,1-76.5,4.6-114c10-102.9,35.2-197.5,74.9-281.3c43.1-90.7,102.6-166.6,176.6-225.5c65.3-51.8,140.5-89.4,224.6-112.2
		c2.4-1.5,4.8-3.2,7.2-4.7c-87.8,22.7-165.9,61-233.6,114.7C1370.9,591.5,1311.2,667.7,1267.9,758.7z"/>
</g>
<g>
	<path class="st1" d="M638.8,151.1c-0.1,0.4-0.3,0.7-0.4,1.1C638.5,151.8,638.6,151.5,638.8,151.1z"/>
	<path class="st1" d="M238.9,406.4c5.2,0,9.2-0.1,11.7-0.2c11.8-0.5,23.5-1.6,35.1-3.2c-11.6,1.6-23.4,2.7-35.2,3.2
		C248,406.3,244,406.4,238.9,406.4z"/>
	<path class="st1" d="M390.3,377.8c-5,1.3-10,2.6-15.1,3.7C380.3,380.3,385.3,379.2,390.3,377.8z"/>
	<path class="st1" d="M584.5,176.3c-5.3,9.9-21.7,38-50,69.1C562.9,214.4,579.2,186.2,584.5,176.3C618.6,113.5,627.6,51,626.8,0
		h-0.1C627.6,51,618.6,113.5,584.5,176.3z"/>
	<path class="st1" d="M486.8,334.5c24.3-15.7,47.4-34.7,68.6-56.5C534.2,299.8,511.1,318.8,486.8,334.5z"/>
	<path class="st1" d="M577,254.2c22.9-27.3,36.3-50.1,40.6-57.7c7.8-14,14.6-28.5,20.4-43.2c-5.9,14.8-12.7,29.2-20.5,43.3
		C613.3,204.1,599.9,226.8,577,254.2z"/>
	<path class="st1" d="M351,349.6c10-1.7,19.8-3.9,29.5-6.6c0,0,0,0,0,0c0,0,0,0,0,0C370.9,345.8,361,348,351,349.6z"/>
	<path class="st1" d="M366.8,383.1c-1.1,0.2-2.1,0.4-3.2,0.6c0,0,0,0-0.1,0C364.6,383.6,365.7,383.4,366.8,383.1z"/>
	<path class="st1" d="M351,349.6c-3.3,0.6-6.7,1.1-10,1.5C344.3,350.7,347.7,350.2,351,349.6z"/>
	<path class="st1" d="M300.1,353.9c12,0,24-0.7,35.8-2.1C324.1,353.2,312.2,353.9,300.1,353.9L300.1,353.9z"/>
	<path class="st1" d="M352,387.6c0.1,0,0.2,0,0.4-0.1c3.5-1.1,6.9-2.3,10.4-3.6c-0.1,0-0.3,0-0.4,0.1
		C359,385.2,355.5,386.4,352,387.6z"/>
	<path class="st1" d="M664,29.5c-1.2,27.4-5.1,54-11.7,79.7C658.9,83.4,662.9,56.8,664,29.5c0.5-10.2,0.5-20.1,0.3-29.5h0
		C664.5,9.5,664.5,19.3,664,29.5z"/>
	<path class="st1" d="M300.8,389.3c21.1,0,41.9-1.8,62.4-5.5c-0.2,0.1-0.5,0.2-0.7,0.3c0.1,0,0.3,0,0.4-0.1c0.1,0,0.2-0.1,0.4-0.1
		c0.1,0,0.2,0,0.4-0.1c0,0,0,0,0.1,0c-0.2,0-0.3,0.1-0.5,0.1c20.5-7.4,40.5-16.5,60-27.4c43.3-24.2,75.3-52.2,94.5-71.4
		c32.6-32.7,59.3-70.9,79.3-113.5c18.4-39.1,31.3-82,38.1-127.3c2.2-14.5,3.8-29.3,4.7-44.1h-13c0.9,51-8.1,113.5-42.1,176.4
		c-5.4,9.8-21.8,38-50,69c-33.8,37.1-84.6,78.5-154,97.7c0,0,0,0,0,0c-9.7,2.7-19.5,4.9-29.5,6.6c-3.3,0.6-6.7,1.1-10,1.5
		c-1.7,0.2-3.4,0.4-5,0.6c-11.8,1.4-23.8,2.1-35.8,2.1h0l0,0c-1.7,0-3.4,0-5.2,0C186.4,352.1,76.6,294.9,1,206.2v57
		c31.7,29.8,67,55.1,105.2,75.3C169.4,372.2,236.3,389.4,300.8,389.3z"/>
	<path class="st1" d="M145.1,395.7c40.9,9.2,75.2,10.7,93.8,10.7c5.2,0,9.1-0.1,11.6-0.2c11.8-0.5,23.6-1.6,35.2-3.2
		c22.4-3.1,44.3-8.2,65.9-15.2c-16.7,2.4-33.7,3.6-50.8,3.6c-64.8,0-131.9-17.3-195.5-51.1c-37.8-20.1-72.8-45-104.2-74.3v66.3
		c17.4,12.6,36.2,23.8,56.2,33.4C84.4,378.6,114,388.8,145.1,395.7z"/>
	<path class="st1" d="M390.3,377.8C390.3,377.8,390.3,377.8,390.3,377.8c33.5-9.1,65.7-23.5,95.9-42.9c0.2-0.1,0.4-0.3,0.7-0.4
		c24.3-15.7,47.4-34.7,68.6-56.5c0,0,0,0,0.1-0.1c7.9-8.1,15.1-16.1,21.5-23.8c22.9-27.3,36.3-50.1,40.5-57.7
		c7.8-14.1,14.6-28.5,20.5-43.3c0.1-0.3,0.3-0.7,0.4-1c0.1-0.4,0.3-0.7,0.4-1.1c5.3-13.7,9.8-27.7,13.5-41.9
		c6.6-25.7,10.5-52.3,11.7-79.7c0.4-10.2,0.5-20.1,0.2-29.5h-22.5c-1,15-2.5,29.8-4.8,44.5c-6.9,45.6-19.8,88.6-38.3,127.9
		c-20.1,42.8-47,81.2-79.7,114c-19.3,19.4-51.4,47.5-94.9,71.8c-16,8.9-32.3,16.7-48.9,23.2c0,0,0,0,0,0
		C380.3,380.3,385.3,379.1,390.3,377.8z"/>
	<path class="st1" d="M300.1,351.8c27.3,0,54.2-3.6,79.9-10.7c126.6-35,191.1-144.2,202.7-165.7C616.6,112.9,625.5,50.7,624.7,0H1
		v203.1C77.4,293.8,189.8,351.8,300.1,351.8z"/>
	<path class="st4" d="M352,387.6c3.5-1.2,7-2.3,10.4-3.5c-20.2,3.6-40.7,5.4-61.6,5.4c-64.5,0-131.3-17.3-194.6-50.9
		C68,318.2,32.7,293,1,263.2v2.6c31.5,29.4,66.4,54.3,104.2,74.3c63.6,33.8,130.8,51.1,195.6,51.1c17.2,0,34.2-1.2,51-3.7
		c0,0,0,0,0,0C351.9,387.6,352,387.6,352,387.6z"/>
	<path class="st4" d="M300.8,389.4c20.9,0,41.4-1.8,61.6-5.4c0.2-0.1,0.5-0.2,0.7-0.3c-20.4,3.7-41.3,5.5-62.4,5.5
		c-64.5,0.1-131.4-17.1-194.6-50.8C68,318.2,32.7,293,1,263.1v0.1c31.7,29.8,67,55,105.2,75.3C169.5,372.2,236.3,389.4,300.8,389.4z
		"/>
	<path class="st4" d="M664.1,29.4c-1.2,27.4-5.2,54-11.8,79.7c-3.7,14.3-8.2,28.2-13.5,41.9c-0.1,0.4-0.3,0.7-0.4,1.1
		c-0.1,0.3-0.3,0.7-0.4,1c-5.9,14.8-12.7,29.2-20.4,43.2c-4.3,7.6-17.7,30.4-40.6,57.7c-6.4,7.6-13.6,15.7-21.5,23.8
		c0,0,0,0-0.1,0.1c-21.2,21.8-44.3,40.8-68.6,56.5c-0.2,0.1-0.4,0.3-0.7,0.4c-30.2,19.4-62.4,33.8-95.9,42.9c0,0,0,0,0,0
		c-5,1.4-10,2.6-15.1,3.7c0,0,0,0,0,0l0,0c0,0,0,0,0,0c-3.8,1.5-7.6,3-11.5,4.3c9.2-1.6,18.2-3.7,27.1-6.1
		c33.6-9.1,66.1-23.6,96.5-43.1c24.7-15.9,48.1-35.1,69.7-57.2c36.3-37.3,56.9-72.1,62.3-81.8c28.4-51.3,44.2-107.8,46.8-167.9
		c0.4-10.2,0.5-20.1,0.2-29.6h-2C664.6,9.4,664.5,19.3,664.1,29.4z"/>
	<path class="st4" d="M638.4,152.2c-0.1,0.3-0.3,0.7-0.4,1C638.1,152.9,638.2,152.5,638.4,152.2z"/>
	<path class="st4" d="M390.3,377.8C390.3,377.8,390.3,377.8,390.3,377.8C390.3,377.8,390.3,377.8,390.3,377.8
		c33.5-9,65.7-23.4,95.9-42.9c0.2-0.1,0.4-0.3,0.7-0.4c-0.2,0.1-0.4,0.3-0.7,0.4C456,354.3,423.7,368.7,390.3,377.8z"/>
	<polygon class="st4" points="375.2,381.5 375.2,381.5 375.2,381.5 	"/>
	<path class="st4" d="M555.4,278C555.5,278,555.5,278,555.4,278c8-8.2,15.1-16.2,21.5-23.8C570.6,261.8,563.4,269.8,555.4,278
		C555.5,278,555.5,278,555.4,278z"/>
	<path class="st4" d="M652.3,109.2c-3.7,14.3-8.2,28.2-13.5,41.9C644.1,137.4,648.6,123.4,652.3,109.2z"/>
	<path class="st4" d="M352.4,387.5c-0.1,0-0.2,0-0.4,0.1c0,0,0,0,0,0c0,0-0.1,0-0.1,0c-0.1,0-0.2,0.1-0.3,0.1c0.1,0,0.2,0,0.4,0
		c-21.6,7.1-43.7,12.2-66.2,15.3c-11.6,1.6-23.3,2.7-35.1,3.2c-2.5,0.1-6.5,0.2-11.7,0.2c-18.5,0-52.9-1.5-93.9-10.7
		c-31.1-6.9-60.6-17.1-87.9-30.2C37.2,356,18.4,344.8,1,332.3v2.4C18.2,347,36.7,358,56.2,367.4c27.4,13.2,57.1,23.4,88.3,30.3
		c40.8,9.1,75,10.7,93.8,10.7c5.5,0,9.7-0.1,12.2-0.3c38.6-1.8,76.4-9.2,112.6-22.2c-3.7,0.6-7.4,1.3-11.2,1.8
		C352.1,387.6,352.2,387.6,352.4,387.5z"/>
	<path class="st4" d="M351.9,387.6c-0.1,0-0.2,0-0.4,0c-21.5,7.1-43.5,12.1-65.9,15.2C308.2,399.8,330.3,394.7,351.9,387.6z"/>
	<path class="st4" d="M145,395.7c41,9.2,75.3,10.7,93.9,10.7C220.3,406.4,186,404.9,145,395.7c-31-6.9-60.6-17.1-87.8-30.2
		c-20-9.5-38.7-20.7-56.2-33.4v0.1c17.4,12.6,36.2,23.8,56.1,33.3C84.4,378.7,113.9,388.8,145,395.7z"/>
	<path class="st4" d="M352,387.6c0,0-0.1,0-0.1,0c0,0,0,0,0,0C351.9,387.6,351.9,387.6,352,387.6C352,387.6,352,387.6,352,387.6z"/>
	<path class="st4" d="M352,387.6c0,0-0.1,0-0.1,0c0,0,0,0,0,0C351.9,387.6,351.9,387.6,352,387.6C352,387.6,352,387.6,352,387.6z"/>
	<path class="st4" d="M635.1,44.2c-6.9,45.4-19.7,88.2-38.1,127.3c-20,42.6-46.8,80.8-79.3,113.5c-19.2,19.3-51.2,47.3-94.5,71.4
		c-19.4,10.9-39.2,19.9-59.6,27.2c1.1-0.2,2.1-0.4,3.2-0.6c2.8-0.6,5.6-1.2,8.4-1.7c16.6-6.6,32.9-14.3,48.9-23.2
		c43.5-24.2,75.6-52.4,94.9-71.8c32.8-32.9,59.6-71.2,79.7-114C617.2,133,630.1,90,637,44.4c2.2-14.6,3.8-29.4,4.8-44.4h-1.9
		C638.9,14.9,637.3,29.6,635.1,44.2z"/>
	<path class="st4" d="M635,44.1c-6.8,45.4-19.7,88.2-38.1,127.3c-20,42.6-46.8,80.8-79.3,113.5c-19.2,19.2-51.2,47.3-94.5,71.4
		c-19.5,10.9-39.5,20-60,27.4c0.2,0,0.3-0.1,0.5-0.1c20.3-7.3,40.2-16.4,59.6-27.2c43.3-24.2,75.3-52.2,94.5-71.4
		c32.6-32.7,59.3-70.9,79.3-113.5C615.4,132.4,628.2,89.6,635,44.1c2.3-14.5,3.8-29.3,4.8-44.1h-0.1C638.8,14.8,637.2,29.6,635,44.1
		z"/>
	<path class="st4" d="M363.5,383.8c-0.1,0-0.2,0.1-0.4,0.1c-0.1,0-0.2,0-0.4,0.1c-3.5,1.2-6.9,2.4-10.4,3.6
		c3.7-0.5,7.5-1.1,11.2-1.8c-0.1,0.1-0.3,0.1-0.4,0.1c0.2,0,0.3-0.1,0.5-0.1c3.8-1.4,7.7-2.8,11.5-4.3c-2.8,0.6-5.6,1.2-8.4,1.7
		C365.7,383.4,364.6,383.6,363.5,383.8z"/>
	<path class="st4" d="M362.8,384c0.1,0,0.2,0,0.4-0.1c0.1,0,0.2-0.1,0.4-0.1c-0.1,0-0.2,0-0.4,0.1C363,383.9,362.9,383.9,362.8,384z
		"/>
	<path class="st4" d="M352.4,387.5c-0.1,0-0.3,0.1-0.4,0.1c3.8-0.6,7.5-1.2,11.2-1.8c0.1-0.1,0.3-0.1,0.4-0.1
		C359.9,386.4,356.1,387,352.4,387.5z"/>
	<path class="st4" d="M352.4,387.5c-0.1,0-0.3,0.1-0.4,0.1c3.8-0.6,7.5-1.2,11.2-1.8c0.1-0.1,0.3-0.1,0.4-0.1
		C359.9,386.4,356.1,387,352.4,387.5z"/>
	<path class="st4" d="M375.1,381.4c-2.8,0.6-5.6,1.2-8.4,1.7C369.6,382.6,372.4,382,375.1,381.4z"/>
	<path class="st4" d="M375.1,381.4c-2.8,0.6-5.6,1.2-8.4,1.7C369.6,382.6,372.4,382,375.1,381.4z"/>
	<path class="st3" d="M335.9,351.8c1.7-0.2,3.4-0.4,5-0.6c3.4-0.5,6.7-1,10-1.5c10-1.7,19.8-3.9,29.5-6.6c0,0,0,0,0,0
		c69.3-19.2,120.2-60.5,154-97.7c28.3-31.1,44.6-59.2,50-69.1c34-62.8,43-125.3,42.1-176.3h-2c0.9,50.8-8,112.9-41.9,175.4
		C571.1,197,506.6,306.1,380,341.2c-25.7,7.1-52.5,10.7-79.9,10.7c-110.4,0-222.7-58-299.1-148.8v3c75.6,88.8,185.4,146,294,147.7
		c1.7,0,3.4,0,5.2,0C312.2,353.9,324.1,353.2,335.9,351.8z"/>
	<path class="st3" d="M380.6,343.1c69.4-19.2,120.2-60.5,154-97.7C500.8,282.5,449.9,323.8,380.6,343.1z"/>
	<path class="st3" d="M300.1,353.9c-1.7,0-3.4,0-5.2,0C296.7,353.9,298.4,353.9,300.1,353.9L300.1,353.9z"/>
	<path class="st3" d="M300.1,351.9c27.3,0,54.2-3.6,79.9-10.7c126.6-35,191.1-144.2,202.7-165.7C616.6,112.9,625.6,50.8,624.7,0h0
		c0.9,50.7-8.1,112.9-41.9,175.4c-11.7,21.5-76.2,130.7-202.7,165.7C354.3,348.2,327.5,351.8,300.1,351.9
		C189.8,351.8,77.4,293.8,1,203.1v0.1C77.4,293.9,189.8,351.9,300.1,351.9z"/>
</g>
</svg>
