<?xml version="1.0" encoding="utf-8"?>
<!-- Generator: Adobe Illustrator 24.1.0, SVG Export Plug-In . SVG Version: 6.00 Build 0)  -->
<svg version="1.1" id="Layer_1" xmlns="http://www.w3.org/2000/svg" xmlns:xlink="http://www.w3.org/1999/xlink" x="0px" y="0px"
	 viewBox="0 0 394 400" style="enable-background:new 0 0 394 400;" xml:space="preserve">
<style type="text/css">
	.st0{fill:none;}
	.st1{fill:#00CE89;}
	.st2{font-family:'GothamMedium';}
	.st3{font-size:12px;}
	.st4{fill:#00B0FF;}
	.st5{fill:url(#SVGID_1_);}
	.st6{fill:url(#SVGID_2_);}
	.st7{fill:url(#SVGID_3_);}
	.st8{fill:url(#SVGID_4_);}
	.st9{fill:url(#SVGID_5_);}
	.st10{fill:url(#SVGID_6_);}
	.st11{fill:url(#SVGID_7_);}
	.st12{fill:url(#SVGID_8_);}
	.st13{fill:url(#SVGID_9_);}
	.st14{fill:url(#SVGID_10_);}
	.st15{fill:#00AE8D;}
	.st16{fill:none;stroke:url(#SVGID_11_);stroke-width:0.8;stroke-miterlimit:10;}
	.st17{fill:#FFFFFF;stroke:#00B0FF;stroke-miterlimit:10;}
	.st18{font-family:'GothamPro-Bold';}
	.st19{font-size:6.6068px;}
	.st20{fill:#FFFFFF;stroke:#00CE89;stroke-width:0.8;stroke-miterlimit:10;}
</style>
<rect x="203.5" y="303.6" transform="matrix(0.7071 -0.7071 0.7071 0.7071 -154.8919 274.4156)" class="st0" width="100.5" height="41.2"/>
<text transform="matrix(0.7071 -0.7071 0.7071 0.7071 209.8679 351.3291)"><tspan x="0" y="0" class="st1 st2 st3">Residuos </tspan><tspan x="0" y="13.3" class="st1 st2 st3">orgánicos</tspan></text>
<rect x="145.8" y="59.7" transform="matrix(0.7071 -0.7071 0.7071 0.7071 0.6432 162.1529)" class="st0" width="100.5" height="41.2"/>
<text transform="matrix(0.7071 -0.7071 0.7071 0.7071 152.1223 107.4502)"><tspan x="0" y="0" class="st4 st2 st3">Residuos </tspan><tspan x="0" y="13.3" class="st4 st2 st3">inorgánicos</tspan></text>
<g>
	
		<linearGradient id="SVGID_1_" gradientUnits="userSpaceOnUse" x1="12.0176" y1="211.479" x2="15.1904" y2="211.479" gradientTransform="matrix(0.9994 3.389883e-02 -3.389883e-02 0.9994 4.5333 -15.0358)">
		<stop  offset="0" style="stop-color:#00CE89"/>
		<stop  offset="1" style="stop-color:#00B0FF"/>
	</linearGradient>
	<path class="st5" d="M11.2,197.6c-1.1-0.1-1.7-0.6-1.8-1.6l0.5-0.1c0.2,0.7,0.5,1,1.1,1l0.1,0l0-0.5l1.5,0.1l-0.1,1.3L11.2,197.6z"
		/>
	
		<linearGradient id="SVGID_2_" gradientUnits="userSpaceOnUse" x1="12.4901" y1="198.3122" x2="22.5984" y2="198.3122" gradientTransform="matrix(0.9994 3.389883e-02 -3.389883e-02 0.9994 4.5333 -15.0358)">
		<stop  offset="0" style="stop-color:#00CE89"/>
		<stop  offset="1" style="stop-color:#00B0FF"/>
	</linearGradient>
	<path class="st6" d="M18.4,187.7l-0.7-0.8c1-0.9,1.6-1.8,1.7-3.2c0.1-1.3-0.5-2.2-1.4-2.4c-0.9-0.1-1.5,0.3-2.1,2.3
		c-0.7,2.2-1.6,3.1-3.2,3c-1.5-0.2-2.5-1.6-2.3-3.5c0.2-1.4,0.7-2.4,1.6-3.3l0.8,0.7c-0.8,0.8-1.3,1.7-1.4,2.7
		c-0.1,1.3,0.5,2.1,1.4,2.2c0.9,0.1,1.5-0.3,2.2-2.4c0.7-2.1,1.6-3,3.1-2.9c1.7,0.2,2.6,1.7,2.4,3.6
		C20.2,185.4,19.6,186.6,18.4,187.7z"/>
	
		<linearGradient id="SVGID_3_" gradientUnits="userSpaceOnUse" x1="14.0947" y1="181.6771" x2="23.9463" y2="181.6771" gradientTransform="matrix(0.9994 3.389883e-02 -3.389883e-02 0.9994 4.5333 -15.0358)">
		<stop  offset="0" style="stop-color:#00CE89"/>
		<stop  offset="1" style="stop-color:#00B0FF"/>
	</linearGradient>
	<path class="st7" d="M12.4,169.6l0.7-3.6c0.4-2.2,1.9-3.4,3.8-3c2.1,0.4,2.8,2.3,2.4,4.4l-0.5,2.3l3.4,0.7l-0.2,1.1L12.4,169.6z
		 M18.3,167.2c0.3-1.6-0.3-2.8-1.6-3.1c-1.4-0.3-2.3,0.6-2.6,2.2l-0.5,2.4l4.2,0.8L18.3,167.2z"/>
	
		<linearGradient id="SVGID_4_" gradientUnits="userSpaceOnUse" x1="17.9748" y1="164.2651" x2="28.1282" y2="164.2651" gradientTransform="matrix(0.9994 3.389883e-02 -3.389883e-02 0.9994 4.5333 -15.0358)">
		<stop  offset="0" style="stop-color:#00CE89"/>
		<stop  offset="1" style="stop-color:#00B0FF"/>
	</linearGradient>
	<path class="st8" d="M20.6,154.7c-2.6-0.8-4.3-3.4-3.5-6.2c0.8-2.9,3.6-4.1,6.3-3.4c2.6,0.8,4.3,3.4,3.5,6.2
		C26,154.2,23.2,155.5,20.6,154.7z M23.1,146.2c-2.1-0.6-4.3,0.4-5,2.6c-0.6,2.2,0.7,4.2,2.8,4.8c2.1,0.6,4.3-0.4,5-2.6
		C26.5,148.9,25.2,146.8,23.1,146.2z"/>
	
		<linearGradient id="SVGID_5_" gradientUnits="userSpaceOnUse" x1="22.0498" y1="146.4877" x2="32.752" y2="146.4877" gradientTransform="matrix(0.9994 3.389883e-02 -3.389883e-02 0.9994 4.5333 -15.0358)">
		<stop  offset="0" style="stop-color:#00CE89"/>
		<stop  offset="1" style="stop-color:#00B0FF"/>
	</linearGradient>
	<path class="st9" d="M23.6,132.9l-1.2,3.1l-1-0.4l2.8-7.2l1,0.4l-1.2,3.1l8.2,3.1l-0.4,1L23.6,132.9z"/>
	
		<linearGradient id="SVGID_6_" gradientUnits="userSpaceOnUse" x1="32.9551" y1="122.2197" x2="42.1846" y2="122.2197" gradientTransform="matrix(0.9994 3.389883e-02 -3.389883e-02 0.9994 4.5333 -15.0358)">
		<stop  offset="0" style="stop-color:#00CE89"/>
		<stop  offset="1" style="stop-color:#00B0FF"/>
	</linearGradient>
	<path class="st10" d="M33.3,109.1l3.4-6.2l0.9,0.5l-2.9,5.2l3.1,1.7l2.6-4.6l0.9,0.5l-2.6,4.6l3.7,2.1l-0.5,1L33.3,109.1z"/>
	
		<linearGradient id="SVGID_7_" gradientUnits="userSpaceOnUse" x1="40.9131" y1="108.3018" x2="53.5098" y2="108.3018" gradientTransform="matrix(0.9994 3.389883e-02 -3.389883e-02 0.9994 4.5333 -15.0358)">
		<stop  offset="0" style="stop-color:#00CE89"/>
		<stop  offset="1" style="stop-color:#00B0FF"/>
	</linearGradient>
	<path class="st11" d="M41.7,94.8l2.3-3.5c0.7-1,1.5-1.6,2.4-1.8c0.7-0.1,1.4,0,2,0.5c1.3,0.9,1.5,2.4,0.9,3.8l5-0.3l-0.8,1.1
		l-4.7,0.2l-1.6,2.3l3.2,2.1l-0.6,0.9L41.7,94.8z M48.2,94.1c0.8-1.2,0.8-2.5-0.3-3.2c-1-0.7-2.1-0.3-3,1l-1.7,2.5l3.3,2.2
		L48.2,94.1z"/>
	
		<linearGradient id="SVGID_8_" gradientUnits="userSpaceOnUse" x1="50.7022" y1="93.6775" x2="62.834" y2="93.6775" gradientTransform="matrix(0.9994 3.389883e-02 -3.389883e-02 0.9994 4.5333 -15.0358)">
		<stop  offset="0" style="stop-color:#00CE89"/>
		<stop  offset="1" style="stop-color:#00B0FF"/>
	</linearGradient>
	<path class="st12" d="M52,80.2l4.4-5.5l0.8,0.6L53.5,80l2.6,2.1l3.3-4.2l0.8,0.6l-3.3,4.2l2.7,2.1l3.8-4.7l0.8,0.6l-4.5,5.6
		L52,80.2z"/>
	
		<linearGradient id="SVGID_9_" gradientUnits="userSpaceOnUse" x1="61.1299" y1="80.8923" x2="73.211" y2="80.8923" gradientTransform="matrix(0.9994 3.389883e-02 -3.389883e-02 0.9994 4.5333 -15.0358)">
		<stop  offset="0" style="stop-color:#00CE89"/>
		<stop  offset="1" style="stop-color:#00B0FF"/>
	</linearGradient>
	<path class="st13" d="M62.9,67.3l4.9-5.2l0.7,0.7l-4.1,4.3l2.4,2.3l3.7-3.9l0.7,0.7l-3.7,3.9l2.5,2.4l4.2-4.4l0.7,0.7L70,74
		L62.9,67.3z"/>
	
		<linearGradient id="SVGID_10_" gradientUnits="userSpaceOnUse" x1="72.3838" y1="68.9594" x2="74.8344" y2="68.9594" gradientTransform="matrix(0.9994 3.389883e-02 -3.389883e-02 0.9994 4.5333 -15.0358)">
		<stop  offset="0" style="stop-color:#00CE89"/>
		<stop  offset="1" style="stop-color:#00B0FF"/>
	</linearGradient>
	<path class="st14" d="M76.1,57.8c0.3-0.6,0.3-1,0-1.4l-0.1-0.1l-0.4,0.3l-1-1.1l0.9-0.9l0.9,0.9c0.8,0.8,0.8,1.6,0.2,2.5L76.1,57.8
		z"/>
</g>
<g>
	<path class="st1" d="M192,224.1l-14.6-58.9l-42.7-12.3c-9-2.6-18.8-0.2-25.6,6.4l-50.8,49c-6.8,6.5-9.6,16.2-7.3,25.3L68,302
		c2.3,9.1,9.2,16.4,18.3,19l67.8,19.5c9,2.6,18.8,0.2,25.6-6.4l50.8-49c6.8-6.5,9.6-16.2,7.3-25.3l-2.4-9.6l-25.1-7.2
		C201.2,240.4,194.2,233.2,192,224.1z"/>
	<path class="st4" d="M361.7,181.9l-17-68.5c-2.3-9.1-9.2-16.4-18.3-19L258.6,75c-9-2.6-18.8-0.2-25.6,6.4l-50.8,49
		c-6.8,6.5-9.6,16.2-7.3,25.3l2.4,9.6l25.1,7.2c9,2.6,16,9.8,18.3,19l14.6,58.9l42.7,12.3c9,2.6,18.8,0.2,25.6-6.4l50.8-49
		C361.2,200.7,364,191,361.7,181.9z"/>
	<path class="st15" d="M202.4,172.4l-25.1-7.2l14.6,58.9c2.3,9.1,9.2,16.4,18.3,19l25.1,7.2l-14.6-58.9
		C218.5,182.2,211.5,175,202.4,172.4z"/>
</g>
<g>
	<linearGradient id="SVGID_11_" gradientUnits="userSpaceOnUse" x1="0.9" y1="196.9" x2="393.1" y2="196.9">
		<stop  offset="0" style="stop-color:#00CE89"/>
		<stop  offset="1" style="stop-color:#00B0FF"/>
	</linearGradient>
	<path class="st16" d="M197,392.6c-26.4,0-52.1-5.2-76.2-15.4c-23.3-9.9-44.2-24-62.2-41.9c-18-18-32.1-38.9-41.9-62.2
		C6.4,249,1.3,223.3,1.3,196.9s5.2-52.1,15.4-76.2c9.9-23.3,24-44.2,41.9-62.2c18-18,38.9-32.1,62.2-41.9
		C144.9,6.4,170.6,1.2,197,1.2s52.1,5.2,76.2,15.4c23.3,9.9,44.2,24,62.2,41.9c18,18,32.1,38.9,41.9,62.2
		c10.2,24.1,15.4,49.8,15.4,76.2s-5.2,52.1-15.4,76.2c-9.9,23.3-24,44.2-41.9,62.2c-18,18-38.9,32.1-62.2,41.9
		C249,387.5,223.4,392.6,197,392.6z M197,1.6c-26.4,0-51.9,5.2-76,15.3c-23.3,9.9-44.2,24-62.1,41.9s-32,38.8-41.9,62.1
		C6.8,145,1.7,170.5,1.7,196.9s5.2,51.9,15.3,76c9.8,23.3,23.9,44.1,41.9,62.1c17.9,17.9,38.8,32,62.1,41.9
		c24.1,10.2,49.7,15.3,76,15.3s51.9-5.2,76-15.3c23.3-9.8,44.1-23.9,62.1-41.9c17.9-17.9,32-38.8,41.9-62.1
		c10.2-24.1,15.3-49.7,15.3-76s-5.2-51.9-15.3-76c-9.8-23.3-23.9-44.1-41.9-62.1c-17.9-17.9-38.8-32-62.1-41.9
		C248.9,6.8,223.3,1.6,197,1.6z"/>
</g>
<circle class="st17" cx="238.6" cy="38.9" r="20.9"/>
<circle class="st17" cx="282.6" cy="50.5" r="20.9"/>
<circle class="st17" cx="326" cy="62.1" r="20.9"/>
<circle class="st17" cx="369.2" cy="73.7" r="20.9"/>
<rect x="229.2" y="36.2" transform="matrix(0.9659 -0.2588 0.2588 0.9659 -1.9509 63.0693)" class="st0" width="18.7" height="5.4"/>
<text transform="matrix(0.9659 -0.2588 0.2588 0.9659 230.5224 43.2886)" class="st4 st18 st19">Sales</text>
<rect x="264" y="47.4" transform="matrix(0.9659 -0.2588 0.2588 0.9659 -3.3635 74.8781)" class="st0" width="37.4" height="5.6"/>
<text transform="matrix(0.9659 -0.2588 0.2588 0.9659 266.196 56.7363)" class="st4 st18 st19">Taladrinas</text>
<rect x="313" y="59.2" transform="matrix(0.9659 -0.2588 0.2588 0.9659 -5.1753 86.7081)" class="st0" width="27.4" height="7.7"/>
<text transform="matrix(0.9659 -0.2588 0.2588 0.9659 314.995 67.1683)" class="st4 st18 st19">Huellas</text>
<rect x="348.8" y="71.9" transform="matrix(0.9659 -0.2588 0.2588 0.9659 -6.8147 98.0812)" class="st0" width="40.7" height="6.1"/>
<text transform="matrix(0.9659 -0.2588 0.2588 0.9659 351.4844 81.4564)" class="st4 st18 st19">Emulsiones</text>
<circle class="st20" cx="42.9" cy="341.2" r="20.9"/>
<circle class="st20" cx="87" cy="352.7" r="20.9"/>
<circle class="st20" cx="130.4" cy="364.4" r="20.9"/>
<circle class="st20" cx="173.5" cy="375.9" r="20.9"/>
<rect x="29.2" y="337.7" transform="matrix(0.9659 -0.2588 0.2588 0.9659 -86.6367 22.8017)" class="st0" width="28.3" height="5.4"/>
<text transform="matrix(0.9659 -0.2588 0.2588 0.9659 30.182 346.1393)" class="st1 st18 st19">Aceites</text>
<rect x="68.4" y="349.7" transform="matrix(0.9659 -0.2588 0.2588 0.9659 -88.2586 34.5402)" class="st0" width="37.4" height="5.6"/>
<text transform="matrix(0.9659 -0.2588 0.2588 0.9659 76.599 357.3676)" class="st1 st18 st19">Grasas</text>
<rect x="116.4" y="361.4" transform="matrix(0.9659 -0.2588 0.2588 0.9659 -90.1045 46.1113)" class="st0" width="27.4" height="7.7"/>
<text transform="matrix(0.9659 -0.2588 0.2588 0.9659 121.0643 368.6928)" class="st1 st18 st19">Ceras</text>
<rect x="154.1" y="373.1" transform="matrix(0.9659 -0.2588 0.2588 0.9659 -91.4169 57.968)" class="st0" width="40.7" height="6.1"/>
<text transform="matrix(0.9659 -0.2588 0.2588 0.9659 159.6517 381.9546)" class="st1 st18 st19">Petróleos</text>
</svg>
