<?xml version="1.0" encoding="utf-8"?>
<!-- Generator: Adobe Illustrator 24.1.0, SVG Export Plug-In . SVG Version: 6.00 Build 0)  -->
<svg version="1.1" id="Layer_1" xmlns="http://www.w3.org/2000/svg" xmlns:xlink="http://www.w3.org/1999/xlink" x="0px" y="0px"
	 viewBox="0 0 397 413" style="enable-background:new 0 0 397 413;" xml:space="preserve">
<style type="text/css">
	.st0{fill:none;stroke:url(#SVGID_1_);stroke-width:0.8;stroke-miterlimit:10;}
	.st1{fill:#FFFFFF;stroke:#00CE89;stroke-width:0.8;stroke-miterlimit:10;}
	.st2{fill:#FFFFFF;stroke:#00B0FF;stroke-width:0.8;stroke-miterlimit:10;}
	.st3{fill:#FFFFFF;stroke:#FFAB01;stroke-width:0.8;stroke-miterlimit:10;}
	.st4{fill:none;stroke:#00CE89;stroke-width:0.8;stroke-miterlimit:10;}
	.st5{fill:none;stroke:#00B0FF;stroke-width:0.8;stroke-miterlimit:10;}
	.st6{fill:url(#SVGID_2_);}
	.st7{fill:url(#SVGID_3_);}
	.st8{fill:url(#SVGID_4_);}
	.st9{fill:url(#SVGID_5_);}
	.st10{fill:url(#SVGID_6_);}
	.st11{fill:url(#SVGID_7_);}
	.st12{fill:url(#SVGID_8_);}
	.st13{fill:url(#SVGID_9_);}
	.st14{fill:url(#SVGID_10_);}
	.st15{fill:url(#SVGID_11_);}
	.st16{fill:url(#SVGID_12_);}
	.st17{fill:url(#SVGID_13_);}
	.st18{fill:url(#SVGID_14_);}
	.st19{fill:url(#SVGID_15_);}
	.st20{fill:url(#SVGID_16_);}
	.st21{fill:#FFAB01;}
	.st22{fill:#00CE89;}
	.st23{fill:#00B0FF;}
</style>
<g>
	<linearGradient id="SVGID_1_" gradientUnits="userSpaceOnUse" x1="2.4" y1="216.85" x2="378.1" y2="216.85">
		<stop  offset="0" style="stop-color:#00CE89"/>
		<stop  offset="1" style="stop-color:#00B0FF"/>
	</linearGradient>
	<path class="st0" d="M190.2,404.3c-25.3,0-49.9-5-73-14.8c-22.3-9.5-42.3-23-59.6-40.1c-17.2-17.2-30.7-37.3-40.1-59.6
		c-9.9-23.1-14.8-47.7-14.8-73s5-49.9,14.8-73c9.5-22.3,23-42.3,40.1-59.6C74.9,67,94.9,53.5,117.3,44.2c23.1-9.8,47.7-14.8,73-14.8
		s49.9,5,73,14.8c22.3,9.5,42.3,23,59.6,40.1c17.2,17.2,30.7,37.3,40.1,59.6c9.8,23.1,14.8,47.7,14.8,73s-5,49.9-14.8,73
		c-9.5,22.3-23,42.3-40.1,59.6c-17.2,17.2-37.3,30.7-59.6,40.1C240.1,399.4,215.5,404.3,190.2,404.3z M190.2,29.8
		c-25.3,0-49.7,5-72.8,14.7c-22.3,9.5-42.3,23-59.5,40.1s-30.7,37.2-40.1,59.5c-9.8,23.1-14.7,47.5-14.7,72.8s5,49.7,14.7,72.8
		c9.4,22.3,22.9,42.2,40.1,59.5c17.1,17.1,37.2,30.7,59.5,40.1c23.1,9.8,47.6,14.7,72.8,14.7s49.7-5,72.8-14.7
		c22.3-9.4,42.2-22.9,59.5-40.1c17.1-17.1,30.7-37.2,40.1-59.5c9.8-23.1,14.7-47.6,14.7-72.8s-5-49.7-14.7-72.8
		c-9.4-22.3-22.9-42.2-40.1-59.5c-17.1-17.1-37.2-30.7-59.5-40.1C240,34.8,215.4,29.8,190.2,29.8z"/>
</g>
<path class="st1" d="M249.4,314.5l-2.8-11.2l-17.1-69c-2.7-10.7-10.8-19.2-21.4-22.2l-29.4-8.5l-50-14.4c-10.6-3.1-22-0.2-30,7.4
	L39,254c-7.9,7.7-11.2,19-8.5,29.7l19.9,80.3c2.7,10.7,10.8,19.2,21.4,22.2l79.5,22.9c10.6,3.1,22,0.2,30-7.4l59.5-57.4
	C248.8,336.5,252.1,325.2,249.4,314.5z"/>
<path class="st2" d="M392.4,223.1l-2.8-11.2l-17.1-69c-2.7-10.7-10.8-19.2-21.4-22.2l-29.4-8.5l-50-14.4c-10.6-3.1-22-0.2-30,7.4
	L182,162.6c-7.9,7.7-11.2,19-8.5,29.7l19.9,80.3c2.7,10.7,10.8,19.2,21.4,22.2l79.5,22.9c10.6,3.1,22,0.2,30-7.4l59.5-57.4
	C391.8,245.1,395,233.8,392.4,223.1z"/>
<path class="st3" d="M301.8,128.5l-2.8-11.2l-17.1-69C279.2,37.6,271,29.1,260.4,26L231,17.6l-50-14.4c-10.6-3.1-22-0.2-30,7.4
	L91.4,68c-7.9,7.7-11.2,19-8.5,29.7l19.9,80.3c2.7,10.7,10.8,19.2,21.4,22.2l79.5,22.9c10.6,3.1,22,0.2,30-7.4l59.5-57.4
	C301.2,150.5,304.4,139.2,301.8,128.5z"/>
<path class="st4" d="M249.4,314.5l-2.8-11.2l-17.1-69c-2.7-10.7-10.8-19.2-21.4-22.2l-29.4-8.5l-50-14.4c-10.6-3.1-22-0.2-30,7.4
	L39,254c-7.9,7.7-11.2,19-8.5,29.7l19.9,80.3c2.7,10.7,10.8,19.2,21.4,22.2l79.5,22.9c10.6,3.1,22,0.2,30-7.4l59.5-57.4
	C248.8,336.5,252.1,325.2,249.4,314.5z"/>
<path class="st5" d="M392.4,223.1l-2.8-11.2l-17.1-69c-2.7-10.7-10.8-19.2-21.4-22.2l-29.4-8.5l-50-14.4c-10.6-3.1-22-0.2-30,7.4
	L182,162.6c-7.9,7.7-11.2,19-8.5,29.7l19.9,80.3c2.7,10.7,10.8,19.2,21.4,22.2l79.5,22.9c10.6,3.1,22,0.2,30-7.4l59.5-57.4
	C391.8,245.1,395,233.8,392.4,223.1z"/>
<g>
	<linearGradient id="SVGID_2_" gradientUnits="userSpaceOnUse" x1="17.6216" y1="263.3412" x2="20.2197" y2="263.3412">
		<stop  offset="0" style="stop-color:#00CE89"/>
		<stop  offset="1" style="stop-color:#00B0FF"/>
	</linearGradient>
	<path class="st6" d="M19.3,263.9c-0.8,0.2-1.3,0-1.7-0.7l0.3-0.2c0.3,0.5,0.6,0.6,1.1,0.4l-0.1-0.4l1.1-0.3l0.3,0.9L19.3,263.9z"/>
	<linearGradient id="SVGID_3_" gradientUnits="userSpaceOnUse" x1="15.4829" y1="251.9199" x2="22.8213" y2="251.9199">
		<stop  offset="0" style="stop-color:#00CE89"/>
		<stop  offset="1" style="stop-color:#00B0FF"/>
	</linearGradient>
	<path class="st7" d="M15.7,255.1l-0.2-0.8l6.4-1.4l-0.9-4l0.7-0.2l1,4.8L15.7,255.1z"/>
	<linearGradient id="SVGID_4_" gradientUnits="userSpaceOnUse" x1="13.1348" y1="241.1938" x2="20.5063" y2="241.1938">
		<stop  offset="0" style="stop-color:#00CE89"/>
		<stop  offset="1" style="stop-color:#00B0FF"/>
	</linearGradient>
	<path class="st8" d="M13.3,242.1l-0.1-0.8l7.3-1.1l0.1,0.8L13.3,242.1z"/>
	<linearGradient id="SVGID_5_" gradientUnits="userSpaceOnUse" x1="11.5635" y1="228.7822" x2="19.3804" y2="228.7822">
		<stop  offset="0" style="stop-color:#00CE89"/>
		<stop  offset="1" style="stop-color:#00B0FF"/>
	</linearGradient>
	<path class="st9" d="M12.1,232.5l-0.1-0.8l3.8-3l-4.2-2.4l-0.1-0.8l7.3-0.5l0.1,0.8l-5.9,0.4l4.1,2.4l0,0l-3.7,2.9l5.9-0.4l0.1,0.8
		L12.1,232.5z"/>
	<linearGradient id="SVGID_6_" gradientUnits="userSpaceOnUse" x1="11.3101" y1="214.0423" x2="18.6504" y2="214.0423">
		<stop  offset="0" style="stop-color:#00CE89"/>
		<stop  offset="1" style="stop-color:#00B0FF"/>
	</linearGradient>
	<path class="st10" d="M11.3,216.7l0-2.7c0-1.7,0.9-2.7,2.4-2.7h0c1.6,0,2.4,1.4,2.4,2.9l0,1.8l2.6,0l0,0.8L11.3,216.7z M15.3,214.1
		c0-1.2-0.6-2-1.6-2h0c-1,0-1.6,0.8-1.6,1.9l0,1.9l3.2,0.1L15.3,214.1z"/>
	<linearGradient id="SVGID_7_" gradientUnits="userSpaceOnUse" x1="11.8057" y1="202.8955" x2="19.1733" y2="202.8955">
		<stop  offset="0" style="stop-color:#00CE89"/>
		<stop  offset="1" style="stop-color:#00B0FF"/>
	</linearGradient>
	<path class="st11" d="M11.8,203l0.1-0.8l7.3,0.5l-0.1,0.8L11.8,203z"/>
	<linearGradient id="SVGID_8_" gradientUnits="userSpaceOnUse" x1="12.7334" y1="191.3838" x2="20.7266" y2="191.3838">
		<stop  offset="0" style="stop-color:#00CE89"/>
		<stop  offset="1" style="stop-color:#00B0FF"/>
	</linearGradient>
	<path class="st12" d="M12.7,193.5l0.7-5.2l0.7,0.1l-0.6,4.4l2.5,0.3l0.6-4l0.7,0.1l-0.6,4l2.5,0.4l0.6-4.5l0.7,0.1l-0.7,5.3
		L12.7,193.5z"/>
	<linearGradient id="SVGID_9_" gradientUnits="userSpaceOnUse" x1="14.9331" y1="178.1819" x2="23.3223" y2="178.1819">
		<stop  offset="0" style="stop-color:#00CE89"/>
		<stop  offset="1" style="stop-color:#00B0FF"/>
	</linearGradient>
	<path class="st13" d="M21.5,181.7l-4.9-5.9l-1,4.5l-0.7-0.2l1.2-5.6l0.5,0.1l4.9,5.9l1-4.6l0.7,0.2l-1.3,5.7L21.5,181.7z"/>
	<linearGradient id="SVGID_10_" gradientUnits="userSpaceOnUse" x1="19.0664" y1="165.5439" x2="27.335" y2="165.5439">
		<stop  offset="0" style="stop-color:#00CE89"/>
		<stop  offset="1" style="stop-color:#00B0FF"/>
	</linearGradient>
	<path class="st14" d="M19.1,163.7l0.2-0.7l8-1l-0.3,0.9l-2.1,0.3l-1.2,3.8l1.6,1.4l-0.2,0.8L19.1,163.7z M24.2,163.2l-4.1,0.5
		l3.1,2.7L24.2,163.2z"/>
	<linearGradient id="SVGID_11_" gradientUnits="userSpaceOnUse" x1="26.6333" y1="141.4568" x2="34.666" y2="141.4568">
		<stop  offset="0" style="stop-color:#00CE89"/>
		<stop  offset="1" style="stop-color:#00B0FF"/>
	</linearGradient>
	<path class="st15" d="M28.4,141.7l-1,2.2l-0.7-0.3l2.4-5.2l0.7,0.3l-1,2.2l6,2.8l-0.4,0.8L28.4,141.7z"/>
	<linearGradient id="SVGID_12_" gradientUnits="userSpaceOnUse" x1="33.6614" y1="130.3443" x2="41.2549" y2="130.3443">
		<stop  offset="0" style="stop-color:#00CE89"/>
		<stop  offset="1" style="stop-color:#00B0FF"/>
	</linearGradient>
	<path class="st16" d="M35.6,133.6L35.6,133.6c-1.8-1-2.6-3.2-1.5-5.1c1.1-1.9,3.4-2.4,5.1-1.4c0,0,0,0,0,0c1.8,1,2.5,3.2,1.5,5.1
		C39.7,134.2,37.4,134.6,35.6,133.6z M38.9,127.8L38.9,127.8c-1.5-0.8-3.2-0.4-4.1,1s-0.2,3.2,1.2,4l0,0c1.4,0.8,3.2,0.4,4.1-1
		S40.3,128.7,38.9,127.8z"/>
	<linearGradient id="SVGID_13_" gradientUnits="userSpaceOnUse" x1="40.0557" y1="117.6008" x2="47.979" y2="117.6008">
		<stop  offset="0" style="stop-color:#00CE89"/>
		<stop  offset="1" style="stop-color:#00B0FF"/>
	</linearGradient>
	<path class="st17" d="M42.1,117.3l-1.4,2l-0.6-0.4l3.2-4.8l0.6,0.4l-1.4,2l5.4,3.7l-0.5,0.7L42.1,117.3z"/>
	<linearGradient id="SVGID_14_" gradientUnits="userSpaceOnUse" x1="49.2061" y1="109.4265" x2="57.5527" y2="109.4265">
		<stop  offset="0" style="stop-color:#00CE89"/>
		<stop  offset="1" style="stop-color:#00B0FF"/>
	</linearGradient>
	<path class="st18" d="M49.2,106.1l0.5-0.6l7.9,1.9l-0.6,0.7l-2.1-0.5l-2.5,3.1l1,1.9l-0.5,0.7L49.2,106.1z M54.2,107.4l-4-1
		l1.9,3.6L54.2,107.4z"/>
	<linearGradient id="SVGID_15_" gradientUnits="userSpaceOnUse" x1="57.1333" y1="98.9688" x2="65.8799" y2="98.9688">
		<stop  offset="0" style="stop-color:#00CE89"/>
		<stop  offset="1" style="stop-color:#00B0FF"/>
	</linearGradient>
	<path class="st19" d="M57.1,96.8l0.6-0.6l4.8,4.5l2.8-3l0.6,0.5l-3.4,3.6L57.1,96.8z"/>
	<linearGradient id="SVGID_16_" gradientUnits="userSpaceOnUse" x1="65.8472" y1="88.4016" x2="67.6635" y2="88.4016">
		<stop  offset="0" style="stop-color:#00CE89"/>
		<stop  offset="1" style="stop-color:#00B0FF"/>
	</linearGradient>
	<path class="st20" d="M67,89.5c0.2-0.5,0.2-0.8-0.1-1.1l-0.3,0.3l-0.8-0.8l0.7-0.7l0.7,0.7c0.6,0.6,0.6,1.2,0.2,1.8L67,89.5z"/>
</g>
<g>
	<path class="st21" d="M107.3,79l-5.4-5.4l2.1-2.1c0.5-0.5,1-0.8,1.5-1.1c0.5-0.3,1-0.4,1.5-0.4c0.5,0,1,0.1,1.4,0.3
		c0.5,0.2,0.9,0.5,1.3,0.9l0,0c0.4,0.4,0.7,0.8,0.9,1.3c0.2,0.5,0.3,1,0.3,1.5c0,0.5-0.2,1-0.4,1.6c-0.3,0.5-0.6,1-1.1,1.5L107.3,79
		z M107.5,76.2l0.6-0.6c0.5-0.5,0.7-0.9,0.7-1.5c0-0.5-0.2-1-0.6-1.4l0,0c-0.4-0.4-0.9-0.6-1.4-0.6s-1,0.3-1.5,0.7l-0.6,0.6
		L107.5,76.2z"/>
	<path class="st21" d="M113.3,73.1l-5.4-5.4l4.4-4.4l1.3,1.3l-2.9,2.9l0.8,0.8l2.6-2.6l1.2,1.2l-2.6,2.6l0.9,0.9l2.9-2.9l1.3,1.3
		L113.3,73.1z"/>
	<path class="st21" d="M115.5,65.4L115.5,65.4c-0.4-0.4-0.7-0.9-0.9-1.3s-0.3-1-0.3-1.5c0-0.5,0.1-1,0.3-1.5c0.2-0.5,0.5-1,0.9-1.4
		c1-1,2.1-1.4,3.4-1.2l-0.3,2c-0.4,0-0.7,0-1,0.1c-0.3,0.1-0.6,0.2-0.8,0.5c-0.4,0.4-0.5,0.8-0.5,1.4c0,0.5,0.3,1,0.7,1.4l0,0
		c0.4,0.4,0.9,0.6,1.4,0.7c0.5,0,1-0.1,1.4-0.5c0.3-0.3,0.4-0.5,0.5-0.8c0.1-0.3,0.1-0.6,0.1-1.1l2-0.3c0.1,0.4,0.1,0.8,0,1.2
		s-0.2,0.8-0.4,1.2c-0.2,0.4-0.5,0.8-0.9,1.2c-0.5,0.5-1.1,0.9-1.8,1c-0.7,0.2-1.3,0.2-2,0C116.7,66.3,116.1,65.9,115.5,65.4z"/>
	<path class="st21" d="M123.6,62.7l-3.2-7.8l1.5-1.5l7.8,3.2l-1.6,1.6l-1.4-0.6l-2.1,2.1l0.6,1.4L123.6,62.7z M123.9,58.2l1.2-1.2
		L123,56L123.9,58.2z"/>
	<path class="st21" d="M130.2,56.1l-5.4-5.4l2.3-2.3c0.7-0.7,1.4-1.1,2.2-1.1s1.4,0.2,2,0.8l0,0c0.4,0.4,0.7,0.9,0.8,1.4
		c0.1,0.5,0,1-0.2,1.5c-0.2,0.5-0.5,1-1,1.4l-0.7,0.7l1.6,1.6L130.2,56.1z M129,51.9l0.7-0.7c0.3-0.3,0.4-0.5,0.4-0.8
		c0-0.3-0.1-0.5-0.3-0.8l0,0c-0.2-0.2-0.5-0.3-0.8-0.3c-0.3,0-0.6,0.2-0.8,0.5l-0.7,0.7L129,51.9z"/>
	<path class="st21" d="M134.5,51.9l-3.2-7.8l1.5-1.5l7.8,3.2l-1.6,1.6l-1.4-0.6l-2.1,2.1l0.6,1.4L134.5,51.9z M134.8,47.3l1.2-1.2
		l-2.2-0.9L134.8,47.3z"/>
	<path class="st21" d="M141.1,45.2l-5.4-5.4l1.4-1.4l5.1,0.6l-2.9-2.9l1.5-1.5l5.4,5.4l-1.3,1.3l-5.3-0.7l3,3L141.1,45.2z"/>
	<path class="st21" d="M142.8,35.3l-1.3-1.3l4.8-4.8l1.3,1.3l-1.6,1.6l4.1,4.1l-1.5,1.5l-4.1-4.1L142.8,35.3z"/>
	<path class="st21" d="M152.4,34l-5.4-5.4l4.4-4.4l1.3,1.3l-2.9,2.9l0.8,0.8l2.6-2.6l1.2,1.2l-2.6,2.6l0.9,0.9l2.9-2.9l1.3,1.3
		L152.4,34z"/>
	<path class="st21" d="M156.3,28.4l-0.2-1.8c1-0.1,1.8-0.5,2.4-1.1c0.2-0.2,0.3-0.4,0.4-0.6s0-0.3-0.1-0.4l0,0
		c-0.1-0.1-0.3-0.1-0.5-0.1c-0.2,0.1-0.5,0.2-1,0.5c-0.2,0.1-0.4,0.3-0.6,0.4c-0.2,0.1-0.4,0.2-0.6,0.3c-0.2,0.1-0.4,0.2-0.6,0.2
		c-0.2,0-0.3,0.1-0.5,0.1c-0.2,0-0.4,0-0.5,0c-0.2,0-0.3-0.1-0.5-0.2c-0.2-0.1-0.3-0.2-0.5-0.4l0,0c-0.5-0.5-0.7-1.1-0.7-1.8
		c0.1-0.7,0.4-1.4,1-2c0.9-0.9,1.9-1.4,3-1.5l0.3,1.8c-0.9,0.2-1.6,0.5-2.1,1c-0.2,0.2-0.3,0.3-0.3,0.5c0,0.2,0,0.3,0.1,0.4l0,0
		c0.1,0.1,0.3,0.2,0.5,0.1c0.2-0.1,0.5-0.2,1-0.5c0.4-0.3,0.8-0.5,1.1-0.6c0.3-0.1,0.6-0.2,1-0.3c0.3-0.1,0.6,0,0.9,0.1
		c0.3,0.1,0.5,0.3,0.8,0.5l0,0c0.5,0.5,0.8,1.2,0.7,1.9c-0.1,0.7-0.5,1.4-1.1,2.1c-0.5,0.5-1,0.9-1.6,1.2
		C157.6,28.2,156.9,28.4,156.3,28.4z"/>
</g>
<g>
	<path class="st22" d="M63.3,370.1l2.2-7.4l3.8,1.1c0.9,0.3,1.5,0.7,1.8,1.3c0.2,0.4,0.3,0.9,0.1,1.3l0,0c-0.2,0.8-0.8,1.2-1.6,1.3
		c0.4,0.3,0.7,0.6,0.9,1c0.2,0.4,0.2,0.8,0,1.3l0,0c-0.2,0.6-0.6,1.1-1.2,1.3c-0.6,0.2-1.3,0.2-2.2-0.1L63.3,370.1z M65.8,369.1
		l1.6,0.5c0.3,0.1,0.6,0.1,0.8,0c0.2-0.1,0.3-0.2,0.4-0.4l0,0c0.1-0.2,0-0.4-0.1-0.6s-0.4-0.3-0.7-0.4l-1.6-0.5L65.8,369.1z
		 M66.6,366.2l1.3,0.4c0.6,0.2,1,0.1,1.2-0.4l0,0c0.1-0.2,0-0.4-0.1-0.5c-0.1-0.2-0.3-0.3-0.6-0.4l-1.3-0.4L66.6,366.2z"/>
	<path class="st22" d="M70.3,372.1l5.3-6.5l2,0.6l1,8.4l-2.2-0.6l-0.2-1.5l-2.9-0.8l-0.9,1.2L70.3,372.1z M74.4,370.2l1.7,0.5
		l-0.2-2.3L74.4,370.2z"/>
	<path class="st22" d="M78.9,373.5l1.5-1c0.6,0.8,1.3,1.3,2.1,1.6c0.3,0.1,0.5,0.1,0.7,0c0.2,0,0.3-0.2,0.3-0.3l0,0
		c0-0.2,0-0.3-0.1-0.5c-0.1-0.2-0.4-0.4-0.9-0.6c-0.2-0.1-0.4-0.2-0.6-0.4c-0.2-0.1-0.3-0.2-0.5-0.4c-0.2-0.1-0.3-0.3-0.5-0.4
		c-0.1-0.1-0.2-0.3-0.3-0.4c-0.1-0.2-0.2-0.3-0.2-0.5c0-0.2-0.1-0.3-0.1-0.5c0-0.2,0-0.4,0.1-0.6l0,0c0.2-0.7,0.6-1.2,1.3-1.5
		c0.6-0.3,1.4-0.3,2.3,0c1.2,0.4,2.1,1,2.8,1.9l-1.4,1.1c-0.5-0.7-1.2-1.1-1.9-1.3c-0.2-0.1-0.4-0.1-0.6,0c-0.2,0.1-0.3,0.1-0.3,0.3
		l0,0c0,0.2,0,0.3,0.1,0.5c0.1,0.1,0.5,0.3,0.9,0.6c0.4,0.2,0.8,0.5,1.1,0.7c0.3,0.2,0.5,0.4,0.7,0.7c0.2,0.2,0.3,0.5,0.4,0.8
		c0,0.3,0,0.6-0.1,0.9l0,0c-0.2,0.7-0.7,1.3-1.3,1.5c-0.7,0.3-1.5,0.3-2.4,0c-0.7-0.2-1.3-0.5-1.8-0.9S79.2,374,78.9,373.5z"/>
	<path class="st22" d="M86,376.7l2.2-7.4l5.9,1.7l-0.5,1.7l-3.9-1.1l-0.3,1.1l3.5,1l-0.5,1.6l-3.5-1l-0.3,1.2l4,1.2l-0.5,1.7
		L86,376.7z"/>
	<path class="st22" d="M96,379.7l2.2-7.4l2.8,0.8c0.6,0.2,1.2,0.5,1.7,0.8c0.5,0.3,0.8,0.7,1.1,1.1c0.3,0.4,0.4,0.9,0.5,1.4
		c0.1,0.5,0,1-0.1,1.6l0,0c-0.2,0.5-0.4,1-0.7,1.4s-0.7,0.7-1.2,0.9c-0.5,0.2-1,0.4-1.6,0.4c-0.6,0-1.2,0-1.9-0.2L96,379.7z
		 M98.6,378.4l0.8,0.2c0.6,0.2,1.2,0.2,1.6-0.1c0.5-0.2,0.8-0.6,1-1.2l0,0c0.2-0.6,0.1-1.1-0.2-1.5c-0.3-0.4-0.7-0.7-1.3-0.9
		l-0.8-0.2L98.6,378.4z"/>
	<path class="st22" d="M104.1,382l2.2-7.4l2,0.6l-2.2,7.4L104.1,382z"/>
	<path class="st22" d="M107.3,381.8l1.5-1c0.6,0.8,1.3,1.3,2.1,1.6c0.3,0.1,0.5,0.1,0.7,0c0.2,0,0.3-0.2,0.3-0.3l0,0
		c0-0.2,0-0.3-0.1-0.5c-0.1-0.1-0.4-0.4-0.9-0.6c-0.2-0.1-0.4-0.2-0.6-0.4s-0.3-0.2-0.5-0.4c-0.2-0.1-0.3-0.3-0.5-0.4
		s-0.2-0.3-0.3-0.4c-0.1-0.2-0.2-0.3-0.2-0.5c0-0.2-0.1-0.3-0.1-0.5c0-0.2,0-0.4,0.1-0.6l0,0c0.2-0.7,0.6-1.2,1.3-1.5
		c0.6-0.3,1.4-0.3,2.3,0c1.2,0.4,2.1,1,2.8,1.9l-1.4,1.1c-0.5-0.7-1.2-1.1-1.9-1.3c-0.2-0.1-0.4-0.1-0.6,0c-0.2,0.1-0.3,0.1-0.3,0.3
		l0,0c-0.1,0.2,0,0.3,0.1,0.5c0.1,0.1,0.5,0.4,0.9,0.6c0.4,0.2,0.8,0.5,1.1,0.7s0.5,0.4,0.7,0.7c0.2,0.2,0.3,0.5,0.4,0.8
		c0,0.3,0,0.6-0.1,0.9l0,0c-0.2,0.7-0.7,1.3-1.3,1.5c-0.7,0.3-1.5,0.3-2.4,0c-0.7-0.2-1.3-0.5-1.8-0.9
		C108,382.8,107.6,382.3,107.3,381.8z"/>
	<path class="st22" d="M115.2,381.3L115.2,381.3c0.2-0.5,0.4-1,0.8-1.4c0.3-0.4,0.7-0.7,1.2-1c0.5-0.2,1-0.4,1.5-0.4
		c0.6-0.1,1.1,0,1.7,0.2s1.1,0.4,1.5,0.8c0.4,0.3,0.8,0.7,1,1.2s0.4,0.9,0.5,1.5c0.1,0.5,0,1.1-0.1,1.6l0,0c-0.2,0.5-0.4,1-0.7,1.4
		c-0.3,0.4-0.7,0.7-1.2,1c-0.4,0.2-1,0.4-1.5,0.4c-0.6,0.1-1.1,0-1.7-0.2s-1.1-0.4-1.5-0.8c-0.4-0.3-0.8-0.7-1-1.2s-0.4-0.9-0.5-1.5
		C115,382.4,115.1,381.8,115.2,381.3z M117.3,381.9c-0.2,0.5-0.1,1.1,0.1,1.6c0.2,0.5,0.6,0.8,1.2,1c0.6,0.2,1.1,0.1,1.5-0.2
		c0.5-0.3,0.8-0.7,0.9-1.2l0,0c0.2-0.5,0.1-1.1-0.1-1.6c-0.2-0.5-0.6-0.8-1.2-1c-0.5-0.2-1.1-0.1-1.5,0.2
		C117.8,380.9,117.5,381.3,117.3,381.9L117.3,381.9z"/>
	<path class="st22" d="M123.2,387.6l2.2-7.4l2,0.6l-1.6,5.6l3.6,1l-0.5,1.8L123.2,387.6z"/>
	<path class="st22" d="M130,381.6l2.3,0.7l0.3,5.2l3.1-4.2l2.2,0.7l-5.2,6.6l-1.9-0.6L130,381.6z"/>
	<path class="st22" d="M136.5,391.5l2.2-7.4l5.9,1.7l-0.5,1.7l-3.9-1.1l-0.3,1.1l3.5,1l-0.5,1.6l-3.5-1l-0.3,1.2l4,1.2l-0.5,1.7
		L136.5,391.5z"/>
	<path class="st22" d="M143.5,393.6l2.2-7.4l1.9,0.6l1.9,4.8l1.1-3.9l2,0.6l-2.2,7.4l-1.8-0.5l-2-5l-1.2,4.1L143.5,393.6z"/>
	<path class="st22" d="M153,390.3l0.5-1.8l6.5,1.9l-0.5,1.8l-2.2-0.7l-1.6,5.6l-2-0.6l1.6-5.6L153,390.3z"/>
	<path class="st22" d="M158.8,398l2.2-7.4l5.9,1.7l-0.5,1.7l-3.9-1.1l-0.3,1.1l3.5,1l-0.5,1.6l-3.5-1l-0.3,1.2l4,1.2l-0.5,1.7
		L158.8,398z"/>
</g>
<g>
	<path class="st23" d="M379.7,226.5l-7.4,2l-1-3.8c-0.2-0.9-0.2-1.6,0.1-2.2c0.2-0.4,0.6-0.7,1.1-0.8l0,0c0.8-0.2,1.4,0,2,0.7
		c0-0.5,0.2-0.9,0.4-1.3c0.2-0.3,0.6-0.6,1.1-0.7l0,0c0.6-0.2,1.2-0.1,1.7,0.3c0.5,0.4,0.9,1,1.1,1.9L379.7,226.5z M374.6,225.6
		l-0.3-1.3c-0.2-0.7-0.5-0.9-0.9-0.8l0,0c-0.2,0.1-0.3,0.2-0.4,0.4c-0.1,0.2-0.1,0.4,0,0.7l0.4,1.3L374.6,225.6z M377.5,224.9
		l-0.4-1.6c-0.1-0.3-0.2-0.5-0.4-0.7s-0.4-0.2-0.6-0.1l0,0c-0.2,0.1-0.4,0.2-0.4,0.4c-0.1,0.2-0.1,0.5,0,0.8l0.4,1.6L377.5,224.9z"
		/>
	<path class="st23" d="M377.8,219.5l-8.3-1.2l-0.5-2l6.6-5.2l0.6,2.2l-1.2,0.9l0.8,2.9l1.5,0.2L377.8,219.5z M374,216.9l-0.4-1.7
		l-1.9,1.4L374,216.9z"/>
	<path class="st23" d="M374.4,211.4l-1.7-0.8c0.4-0.9,0.5-1.8,0.2-2.7c-0.1-0.3-0.2-0.5-0.3-0.6c-0.1-0.1-0.3-0.2-0.4-0.1l0,0
		c-0.2,0-0.3,0.2-0.3,0.4c-0.1,0.2-0.1,0.6-0.1,1.1c0,0.3,0,0.5,0,0.7c0,0.2,0,0.4,0,0.6c0,0.2-0.1,0.4-0.1,0.6
		c0,0.2-0.1,0.3-0.2,0.5c-0.1,0.2-0.2,0.3-0.3,0.4c-0.1,0.1-0.3,0.2-0.4,0.3c-0.2,0.1-0.4,0.2-0.6,0.2l0,0c-0.7,0.2-1.3,0.1-1.9-0.3
		c-0.6-0.4-1-1-1.2-1.9c-0.3-1.2-0.3-2.3,0.2-3.3l1.7,0.6c-0.3,0.8-0.4,1.6-0.2,2.3c0.1,0.2,0.2,0.4,0.3,0.5s0.3,0.1,0.4,0.1l0,0
		c0.2,0,0.3-0.2,0.3-0.4c0-0.2,0.1-0.6,0-1.1c0-0.5,0-0.9,0-1.3c0-0.4,0.1-0.7,0.2-1c0.1-0.3,0.3-0.5,0.5-0.7
		c0.2-0.2,0.5-0.3,0.8-0.4l0,0c0.8-0.2,1.4-0.1,2,0.3c0.6,0.4,1,1.1,1.2,2c0.2,0.7,0.2,1.3,0.2,2
		C374.9,210.2,374.7,210.8,374.4,211.4z"/>
	<path class="st23" d="M373.5,203.6l-7.4,2l-1.6-6l1.8-0.5l1.1,3.9l1.1-0.3l-1-3.6l1.6-0.4l1,3.6l1.2-0.3l-1.1-4l1.8-0.5
		L373.5,203.6z"/>
	<path class="st23" d="M371,194.2l-8.3-1.2l-0.5-2l6.6-5.2l0.6,2.2l-1.2,0.9l0.8,2.9l1.5,0.2L371,194.2z M367.2,191.6l-0.4-1.7
		l-1.9,1.4L367.2,191.6z"/>
	<path class="st23" d="M365.1,186.8L365.1,186.8c-0.6,0.1-1.1,0.2-1.6,0.1c-0.5-0.1-1-0.2-1.4-0.5c-0.4-0.2-0.8-0.6-1.2-1
		s-0.6-0.9-0.7-1.5c-0.4-1.4-0.1-2.5,0.7-3.6l1.6,1.2c-0.2,0.3-0.4,0.6-0.5,0.9s-0.1,0.6,0,1c0.1,0.5,0.4,0.9,0.9,1.1s1,0.3,1.5,0.1
		l0,0c0.6-0.2,1-0.4,1.3-0.9c0.3-0.4,0.4-0.9,0.2-1.4c-0.1-0.4-0.3-0.7-0.5-0.9c-0.2-0.2-0.5-0.4-0.9-0.6l0.7-1.8
		c0.4,0.2,0.8,0.4,1.1,0.6c0.3,0.2,0.6,0.5,0.9,0.9c0.3,0.4,0.5,0.8,0.6,1.4c0.2,0.7,0.2,1.4,0,2.1c-0.2,0.7-0.5,1.3-1,1.8
		C366.4,186.3,365.8,186.6,365.1,186.8z"/>
	<path class="st23" d="M363.4,178.8l-4.2,1.1l-0.6-2.1l4.1-1.1c0.5-0.1,0.9-0.4,1.1-0.7s0.2-0.7,0.1-1.1c-0.1-0.4-0.3-0.7-0.7-0.9
		c-0.3-0.2-0.7-0.2-1.2-0.1l-4.2,1.1l-0.6-2.1l4.1-1.1c0.6-0.2,1.1-0.2,1.6-0.2c0.5,0,0.9,0.2,1.3,0.4c0.4,0.2,0.7,0.5,0.9,0.9
		c0.3,0.4,0.4,0.8,0.6,1.4c0.3,1.1,0.2,2-0.2,2.8C365.3,178,364.5,178.5,363.4,178.8z"/>
	<path class="st23" d="M360.8,171L360.8,171c-0.5,0.1-1.1,0.2-1.6,0.1c-0.5-0.1-1-0.2-1.5-0.5c-0.4-0.3-0.8-0.6-1.2-1.1
		s-0.6-0.9-0.7-1.5c-0.2-0.6-0.2-1.1-0.1-1.7c0.1-0.5,0.2-1,0.5-1.5s0.6-0.8,1-1.2c0.4-0.3,0.9-0.6,1.4-0.7l0,0
		c0.5-0.1,1.1-0.2,1.6-0.1c0.5,0.1,1,0.2,1.5,0.5s0.8,0.6,1.2,1.1c0.3,0.4,0.6,0.9,0.7,1.5c0.2,0.6,0.2,1.1,0.1,1.7
		c-0.1,0.6-0.2,1-0.5,1.5s-0.6,0.8-1,1.2C361.8,170.7,361.4,170.9,360.8,171z M360.3,168.9c0.6-0.1,1-0.5,1.3-0.9
		c0.3-0.5,0.4-1,0.2-1.5c-0.1-0.6-0.5-1-0.9-1.2c-0.5-0.2-1-0.3-1.5-0.2l0,0c-0.6,0.1-1,0.5-1.3,0.9c-0.3,0.5-0.4,1-0.2,1.5
		c0.1,0.5,0.5,0.9,0.9,1.2C359.2,169,359.7,169.1,360.3,168.9L360.3,168.9z"/>
	<path class="st23" d="M361.2,161.9l-1.7-0.8c0.4-0.9,0.5-1.8,0.2-2.7c-0.1-0.3-0.2-0.5-0.3-0.6s-0.3-0.2-0.4-0.1l0,0
		c-0.2,0-0.3,0.2-0.3,0.4s-0.1,0.6-0.1,1.1c0,0.3,0,0.5,0,0.7c0,0.2,0,0.4,0,0.6c0,0.2-0.1,0.4-0.1,0.6c0,0.2-0.1,0.3-0.2,0.5
		s-0.2,0.3-0.3,0.4c-0.1,0.1-0.3,0.2-0.4,0.3c-0.2,0.1-0.4,0.2-0.6,0.2l0,0c-0.7,0.2-1.3,0.1-1.9-0.3c-0.6-0.4-1-1-1.2-1.9
		c-0.3-1.2-0.3-2.3,0.2-3.3l1.7,0.6c-0.3,0.8-0.4,1.6-0.2,2.3c0.1,0.2,0.2,0.4,0.3,0.5s0.3,0.1,0.4,0.1l0,0c0.2,0,0.3-0.2,0.3-0.4
		c0-0.2,0.1-0.6,0-1.1c0-0.5,0-0.9,0-1.3c0-0.4,0.1-0.7,0.2-1c0.1-0.3,0.3-0.5,0.5-0.7c0.2-0.2,0.5-0.3,0.8-0.4l0,0
		c0.8-0.2,1.4-0.1,2,0.3c0.6,0.4,1,1.1,1.2,2c0.2,0.7,0.2,1.3,0.2,2C361.6,160.7,361.5,161.3,361.2,161.9z"/>
	<path class="st23" d="M360.5,154.8l-8.3-1.2l-0.5-2l6.6-5.2l0.6,2.2l-1.2,0.9l0.8,2.9l1.5,0.2L360.5,154.8z M356.7,152.3l-0.4-1.7
		l-1.9,1.4L356.7,152.3z"/>
</g>
</svg>
