<?xml version="1.0" encoding="utf-8"?>
<!-- Generator: Adobe Illustrator 24.1.0, SVG Export Plug-In . SVG Version: 6.00 Build 0)  -->
<svg version="1.1" id="Layer_1" xmlns="http://www.w3.org/2000/svg" xmlns:xlink="http://www.w3.org/1999/xlink" x="0px" y="0px"
	 viewBox="0 0 394 400" style="enable-background:new 0 0 394 400;" xml:space="preserve">
<style type="text/css">
	.st0{fill:#00CE89;}
	.st1{fill:#00B0FF;}
	.st2{fill:url(#SVGID_1_);}
	.st3{fill:url(#SVGID_2_);}
	.st4{fill:url(#SVGID_3_);}
	.st5{fill:url(#SVGID_4_);}
	.st6{fill:url(#SVGID_5_);}
	.st7{fill:url(#SVGID_6_);}
	.st8{fill:url(#SVGID_7_);}
	.st9{fill:url(#SVGID_8_);}
	.st10{fill:url(#SVGID_9_);}
	.st11{fill:url(#SVGID_10_);}
	.st12{fill:#00AE8D;}
	.st13{fill:none;stroke:url(#SVGID_11_);stroke-width:0.8;stroke-miterlimit:10;}
	.st14{fill:#FFFFFF;stroke:#00B0FF;stroke-miterlimit:10;}
	.st15{fill:#FFFFFF;stroke:#00CE89;stroke-width:0.8;stroke-miterlimit:10;}
</style>
<g>
	<path class="st0" d="M210.6,350.6l-5.9-5.9l2.7-2.7c0.4-0.4,0.8-0.7,1.2-0.8s0.8-0.3,1.2-0.3c0.3,0,0.6,0.1,0.9,0.2
		c0.3,0.1,0.6,0.3,0.8,0.6l0,0c0.2,0.2,0.4,0.5,0.6,0.8c0.1,0.3,0.2,0.5,0.2,0.8c0,0.3,0,0.6-0.1,0.8c-0.1,0.3-0.2,0.5-0.3,0.8
		l3.9,0.6l-1.2,1.2l-3.5-0.6l0,0l-1.3,1.3l2.1,2.1L210.6,350.6z M208.7,346.5l1.5-1.5c0.4-0.4,0.6-0.8,0.6-1.2
		c0-0.4-0.1-0.8-0.4-1.1l0,0c-0.3-0.3-0.7-0.5-1.1-0.4c-0.4,0-0.8,0.3-1.2,0.7l-1.5,1.5L208.7,346.5z"/>
	<path class="st0" d="M214.2,342.6L214.2,342.6c-0.3-0.3-0.6-0.7-0.8-1.1s-0.3-0.8-0.3-1.2c0-0.4,0-0.8,0.2-1.2s0.4-0.7,0.7-1.1
		c0.4-0.4,0.7-0.6,1.1-0.7c0.4-0.1,0.8-0.2,1.2-0.1c0.4,0,0.8,0.2,1.2,0.4c0.4,0.2,0.7,0.5,1.1,0.8c0,0,0.1,0.1,0.1,0.1
		c0,0.1,0.1,0.1,0.1,0.2l-3.3,3.3c0.4,0.3,0.8,0.4,1.3,0.4c0.4,0,0.8-0.2,1.1-0.6c0.3-0.3,0.4-0.5,0.5-0.8s0.1-0.6,0.2-0.9l1.1-0.1
		c0,0.5,0,0.9-0.2,1.4c-0.1,0.5-0.4,0.9-0.8,1.3c-0.3,0.3-0.7,0.6-1.1,0.7c-0.4,0.2-0.8,0.2-1.2,0.3c-0.4,0-0.8-0.1-1.2-0.2
		C214.9,343.2,214.5,342.9,214.2,342.6z M214.9,341.2l2.3-2.3c-0.2-0.1-0.4-0.3-0.6-0.4s-0.4-0.1-0.6-0.1c-0.2,0-0.4,0-0.6,0.1
		c-0.2,0.1-0.4,0.2-0.5,0.4c-0.3,0.3-0.5,0.7-0.5,1.1C214.4,340.4,214.6,340.8,214.9,341.2z"/>
	<path class="st0" d="M220.8,339.2l-0.2-1.2c0.4-0.1,0.8-0.2,1.2-0.3c0.3-0.2,0.6-0.4,0.9-0.6c0.2-0.2,0.3-0.4,0.4-0.6
		c0-0.2,0-0.4-0.2-0.5l0,0c-0.1-0.1-0.2-0.1-0.3-0.1c-0.1,0-0.2,0-0.4,0.1c-0.1,0-0.3,0.1-0.4,0.2c-0.2,0.1-0.3,0.2-0.5,0.3
		c-0.2,0.1-0.4,0.2-0.7,0.3c-0.2,0.1-0.5,0.2-0.7,0.2c-0.2,0-0.5,0-0.7,0s-0.5-0.2-0.7-0.4l0,0c-0.2-0.2-0.4-0.4-0.4-0.7
		c-0.1-0.3-0.1-0.5-0.1-0.8c0-0.3,0.1-0.5,0.2-0.8s0.3-0.5,0.5-0.7c0.3-0.3,0.6-0.5,1-0.7s0.8-0.3,1.2-0.4l0.3,1.1
		c-0.3,0.1-0.7,0.2-1,0.3c-0.3,0.1-0.5,0.3-0.7,0.5c-0.2,0.2-0.3,0.4-0.3,0.6s0,0.4,0.2,0.5l0,0c0.1,0.1,0.2,0.1,0.3,0.1
		c0.1,0,0.2,0,0.4-0.1s0.3-0.1,0.5-0.2s0.3-0.2,0.5-0.3c0.2-0.1,0.4-0.2,0.7-0.3c0.2-0.1,0.5-0.2,0.7-0.2c0.2,0,0.5,0,0.7,0
		s0.4,0.2,0.6,0.4l0,0c0.2,0.2,0.4,0.5,0.5,0.7s0.1,0.5,0.1,0.8c0,0.3-0.1,0.5-0.3,0.8c-0.1,0.3-0.3,0.5-0.6,0.7
		c-0.3,0.3-0.7,0.6-1.1,0.8C221.8,339,221.3,339.1,220.8,339.2z"/>
	<path class="st0" d="M220.9,330l-1-1l1.1-1.1l1,1L220.9,330z M226.1,335.1l-4.5-4.5l1-1l4.5,4.5L226.1,335.1z"/>
	<path class="st0" d="M226,330.8L226,330.8c-0.4-0.4-0.7-0.8-0.8-1.2s-0.3-0.8-0.3-1.2c0-0.4,0.1-0.8,0.2-1.1s0.4-0.7,0.6-0.9
		c0.4-0.4,0.8-0.6,1.2-0.7c0.4-0.1,0.8-0.1,1.2-0.1l-2.4-2.4l1-1l6.2,6.2l-1,1l-0.7-0.7c0.1,0.4,0.1,0.8,0,1.2
		c-0.1,0.4-0.3,0.8-0.7,1.2c-0.3,0.3-0.6,0.5-0.9,0.6c-0.4,0.1-0.7,0.2-1.1,0.2c-0.4,0-0.8-0.1-1.2-0.3
		C226.7,331.4,226.3,331.1,226,330.8z M227,329.7c0.2,0.2,0.4,0.4,0.7,0.5s0.5,0.2,0.7,0.2c0.2,0,0.5,0,0.7-0.1
		c0.2-0.1,0.4-0.2,0.6-0.4c0.2-0.2,0.3-0.4,0.4-0.6s0.1-0.5,0.1-0.7c0-0.2-0.1-0.5-0.2-0.7c-0.1-0.2-0.3-0.5-0.5-0.7l0,0
		c-0.2-0.2-0.4-0.4-0.7-0.5c-0.2-0.1-0.5-0.2-0.7-0.2c-0.2,0-0.5,0-0.7,0.1s-0.4,0.2-0.6,0.4c-0.2,0.2-0.3,0.4-0.4,0.6
		c-0.1,0.2-0.1,0.5-0.1,0.7c0,0.2,0.1,0.5,0.2,0.7S226.8,329.5,227,329.7L227,329.7z"/>
	<path class="st0" d="M232.4,325.5l-2.9-2.9l1-1l2.6,2.6c0.4,0.4,0.7,0.5,1.1,0.6s0.7-0.1,1-0.4c0.3-0.3,0.4-0.6,0.4-1
		s-0.2-0.7-0.5-1.1l-2.5-2.5l1-1l4.5,4.5l-1,1l-0.7-0.7c0.1,0.4,0.1,0.7,0,1.1c-0.1,0.4-0.3,0.7-0.6,1.1c-0.5,0.5-1.1,0.7-1.6,0.7
		C233.5,326.3,233,326,232.4,325.5z"/>
	<path class="st0" d="M236.9,319.9L236.9,319.9c-0.3-0.3-0.6-0.7-0.7-1.1s-0.2-0.8-0.2-1.2c0-0.4,0.1-0.8,0.3-1.3
		c0.2-0.4,0.4-0.8,0.8-1.1c0.3-0.3,0.7-0.6,1.1-0.8s0.8-0.3,1.3-0.3c0.4,0,0.8,0.1,1.2,0.2c0.4,0.2,0.8,0.4,1.1,0.7l0,0
		c0.3,0.3,0.6,0.7,0.7,1.1s0.2,0.8,0.2,1.2c0,0.4-0.1,0.8-0.3,1.3c-0.2,0.4-0.4,0.8-0.8,1.1c-0.3,0.3-0.7,0.6-1.1,0.8
		s-0.8,0.3-1.3,0.3c-0.4,0-0.8-0.1-1.2-0.2C237.6,320.4,237.2,320.2,236.9,319.9z M237.9,318.8c0.2,0.2,0.4,0.4,0.7,0.5
		c0.2,0.1,0.5,0.2,0.7,0.2c0.3,0,0.5,0,0.7-0.1s0.5-0.2,0.7-0.4c0.2-0.2,0.4-0.4,0.4-0.7s0.1-0.5,0.1-0.7c0-0.2-0.1-0.5-0.2-0.7
		c-0.1-0.2-0.3-0.5-0.5-0.6l0,0c-0.2-0.2-0.4-0.4-0.7-0.5c-0.2-0.1-0.5-0.2-0.7-0.2c-0.3,0-0.5,0-0.7,0.1s-0.5,0.2-0.7,0.4
		c-0.2,0.2-0.4,0.4-0.4,0.7s-0.1,0.5-0.1,0.7c0,0.2,0.1,0.5,0.2,0.7S237.7,318.6,237.9,318.8L237.9,318.8z"/>
	<path class="st0" d="M244,316l-0.2-1.2c0.4-0.1,0.8-0.2,1.2-0.3c0.3-0.2,0.6-0.4,0.9-0.6c0.2-0.2,0.3-0.4,0.4-0.6
		c0-0.2,0-0.4-0.2-0.5l0,0c-0.1-0.1-0.2-0.1-0.3-0.1c-0.1,0-0.2,0-0.4,0.1s-0.3,0.1-0.4,0.2c-0.2,0.1-0.3,0.2-0.5,0.3
		c-0.2,0.1-0.4,0.2-0.7,0.3s-0.5,0.2-0.7,0.2c-0.2,0-0.5,0-0.7,0c-0.2-0.1-0.5-0.2-0.7-0.4l0,0c-0.2-0.2-0.4-0.4-0.4-0.7
		c-0.1-0.3-0.1-0.5-0.1-0.8c0-0.3,0.1-0.5,0.2-0.8c0.1-0.3,0.3-0.5,0.5-0.7c0.3-0.3,0.6-0.5,1-0.7c0.4-0.2,0.8-0.3,1.2-0.4l0.3,1.1
		c-0.3,0.1-0.7,0.2-1,0.3s-0.5,0.3-0.7,0.5c-0.2,0.2-0.3,0.4-0.3,0.6c0,0.2,0,0.4,0.2,0.5l0,0c0.1,0.1,0.2,0.1,0.3,0.1
		s0.2,0,0.4-0.1c0.1,0,0.3-0.1,0.5-0.2c0.2-0.1,0.3-0.2,0.5-0.3c0.2-0.1,0.4-0.2,0.7-0.3s0.5-0.2,0.7-0.2s0.5,0,0.7,0
		c0.2,0.1,0.4,0.2,0.6,0.4l0,0c0.2,0.2,0.4,0.5,0.5,0.7c0.1,0.3,0.1,0.5,0.1,0.8c0,0.3-0.1,0.5-0.3,0.8c-0.1,0.3-0.3,0.5-0.6,0.7
		c-0.3,0.3-0.7,0.6-1.1,0.8C245,315.8,244.5,316,244,316z"/>
	<path class="st0" d="M217.5,358.1L217.5,358.1c-0.3-0.3-0.6-0.7-0.7-1.1c-0.2-0.4-0.2-0.8-0.2-1.2s0.1-0.8,0.3-1.3
		c0.2-0.4,0.4-0.8,0.8-1.1s0.7-0.6,1.1-0.8c0.4-0.2,0.8-0.3,1.3-0.3s0.8,0.1,1.2,0.2s0.8,0.4,1.1,0.7l0,0c0.3,0.3,0.6,0.7,0.7,1.1
		c0.2,0.4,0.2,0.8,0.2,1.2c0,0.4-0.1,0.8-0.3,1.3s-0.4,0.8-0.8,1.1c-0.3,0.3-0.7,0.6-1.1,0.8c-0.4,0.2-0.8,0.3-1.3,0.3
		c-0.4,0-0.8-0.1-1.2-0.2C218.1,358.7,217.8,358.4,217.5,358.1z M218.5,357.1c0.2,0.2,0.4,0.4,0.7,0.5c0.2,0.1,0.5,0.2,0.7,0.2
		s0.5,0,0.7-0.1c0.2-0.1,0.5-0.2,0.7-0.4c0.2-0.2,0.4-0.4,0.4-0.7s0.1-0.5,0.1-0.7c0-0.2-0.1-0.5-0.2-0.7c-0.1-0.2-0.3-0.5-0.5-0.6
		l0,0c-0.2-0.2-0.4-0.4-0.7-0.5c-0.2-0.1-0.5-0.2-0.7-0.2c-0.3,0-0.5,0-0.7,0.1c-0.2,0.1-0.5,0.2-0.7,0.4c-0.2,0.2-0.4,0.4-0.4,0.7
		s-0.1,0.5-0.1,0.7c0,0.2,0.1,0.5,0.2,0.7S218.3,356.9,218.5,357.1L218.5,357.1z"/>
	<path class="st0" d="M225.5,354.5L221,350l1-1l1,1c-0.2-0.5-0.3-0.9-0.2-1.4c0.1-0.4,0.3-0.8,0.6-1.2c0,0,0.1-0.1,0.1-0.1l1.1,1.1
		l-0.1,0.1c-0.2,0.2-0.4,0.5-0.5,0.7s-0.2,0.5-0.2,0.8s0.1,0.6,0.2,0.9c0.1,0.3,0.4,0.6,0.7,0.9l1.7,1.7L225.5,354.5z"/>
	<path class="st0" d="M226.3,348.8L226.3,348.8c-0.3-0.3-0.6-0.7-0.7-1.1s-0.2-0.7-0.2-1.1c0-0.4,0.1-0.7,0.2-1.1
		c0.1-0.3,0.4-0.6,0.6-0.9c0.4-0.4,0.8-0.6,1.2-0.7c0.4-0.1,0.8-0.1,1.2-0.1l-0.7-0.7l1-1l3.6,3.6c0.7,0.7,1.1,1.5,1.1,2.3
		c0,0.4-0.1,0.8-0.3,1.2c-0.2,0.4-0.5,0.8-0.9,1.2c-0.7,0.7-1.6,1.2-2.5,1.5l-0.4-1.2c0.4-0.1,0.7-0.2,1.1-0.4s0.7-0.4,1-0.7
		c0.5-0.5,0.7-0.9,0.7-1.4c0-0.5-0.2-0.9-0.7-1.4l-0.3-0.3c0.1,0.4,0,0.8-0.1,1.3s-0.3,0.8-0.7,1.2c-0.3,0.3-0.6,0.5-0.9,0.6
		c-0.3,0.1-0.7,0.2-1.1,0.2c-0.4,0-0.7-0.1-1.1-0.2C227,349.4,226.6,349.1,226.3,348.8z M227.3,347.8c0.2,0.2,0.4,0.3,0.6,0.4
		s0.4,0.1,0.7,0.1s0.4-0.1,0.7-0.1c0.2-0.1,0.4-0.2,0.6-0.4s0.3-0.4,0.4-0.6s0.2-0.4,0.2-0.7s0-0.5-0.1-0.7
		c-0.1-0.2-0.2-0.4-0.4-0.6l0,0c-0.2-0.2-0.4-0.3-0.6-0.4c-0.2-0.1-0.4-0.1-0.7-0.1c-0.2,0-0.5,0.1-0.7,0.2
		c-0.2,0.1-0.4,0.2-0.6,0.4c-0.2,0.2-0.3,0.4-0.4,0.6s-0.1,0.4-0.2,0.7c0,0.2,0,0.4,0.1,0.7C227,347.4,227.1,347.6,227.3,347.8
		L227.3,347.8z"/>
	<path class="st0" d="M231,338.9l-0.5-2.3l1.4-0.5l-0.1,2L231,338.9z M233.1,344.3L233.1,344.3c-0.3-0.3-0.4-0.5-0.5-0.8
		c-0.1-0.3-0.1-0.6-0.1-0.8c0-0.3,0.1-0.6,0.3-0.9c0.2-0.3,0.4-0.6,0.6-0.8c0.3-0.3,0.5-0.5,0.7-0.6c0.2-0.2,0.5-0.3,0.7-0.4
		l-0.1-0.1c-0.3-0.3-0.6-0.5-1-0.4c-0.4,0-0.7,0.2-1.1,0.6c-0.3,0.3-0.5,0.5-0.6,0.8c-0.1,0.3-0.3,0.5-0.4,0.8l-1.1-0.5
		c0.1-0.4,0.3-0.7,0.5-1c0.2-0.3,0.5-0.7,0.8-1c0.7-0.7,1.3-1,2-1c0.7,0,1.3,0.3,1.9,0.9l2.7,2.7l-1,1l-0.6-0.6c0,0.3,0,0.7-0.1,1
		s-0.3,0.7-0.7,1.1c-0.2,0.2-0.5,0.4-0.7,0.5c-0.3,0.1-0.5,0.2-0.8,0.2s-0.5,0-0.8-0.1C233.6,344.7,233.3,344.6,233.1,344.3z
		 M234.1,343.3c0.2,0.2,0.5,0.3,0.7,0.2s0.5-0.2,0.8-0.4c0.2-0.2,0.3-0.3,0.4-0.5c0.1-0.2,0.2-0.4,0.2-0.6c0-0.2,0-0.4,0-0.5
		c-0.1-0.2-0.2-0.3-0.3-0.5l-0.3-0.3c-0.2,0.1-0.4,0.2-0.6,0.3c-0.2,0.1-0.4,0.3-0.6,0.5c-0.3,0.3-0.5,0.6-0.6,0.9
		C233.7,342.8,233.8,343,234.1,343.3L234.1,343.3z"/>
	<path class="st0" d="M239.7,340.3l-4.5-4.5l1-1l0.7,0.7c0-0.2-0.1-0.4-0.1-0.5s0-0.4,0.1-0.6c0-0.2,0.1-0.4,0.2-0.6
		c0.1-0.2,0.2-0.4,0.4-0.5c0.5-0.5,1.1-0.7,1.6-0.7c0.6,0,1.1,0.3,1.7,0.8l2.9,2.9l-1,1l-2.5-2.5c-0.4-0.4-0.7-0.5-1.1-0.6
		c-0.4,0-0.7,0.1-1,0.4c-0.3,0.3-0.4,0.6-0.4,1c0,0.4,0.2,0.8,0.5,1.1l2.5,2.5L239.7,340.3z"/>
	<path class="st0" d="M239.8,329.9l-1-1l1.1-1.1l1,1L239.8,329.9z M245,335l-4.5-4.5l1-1l4.5,4.5L245,335z"/>
	<path class="st0" d="M244.9,330.7L244.9,330.7c-0.3-0.3-0.6-0.7-0.7-1.1s-0.3-0.8-0.3-1.2c0-0.4,0.1-0.8,0.2-1.2
		c0.2-0.4,0.4-0.8,0.7-1.1c0.4-0.4,0.8-0.7,1.3-0.8c0.4-0.1,0.9-0.2,1.3-0.2l0.1,1.3c-0.3,0-0.6,0-0.9,0.1c-0.3,0.1-0.6,0.2-0.8,0.5
		c-0.2,0.2-0.3,0.4-0.4,0.6c-0.1,0.2-0.1,0.5-0.1,0.7c0,0.2,0.1,0.5,0.2,0.7c0.1,0.2,0.3,0.5,0.5,0.6l0,0c0.2,0.2,0.4,0.4,0.7,0.5
		s0.5,0.2,0.7,0.2c0.2,0,0.5,0,0.7-0.1c0.2-0.1,0.5-0.2,0.7-0.4c0.2-0.2,0.4-0.5,0.5-0.8s0.1-0.6,0.1-0.9l1.2,0c0,0.5,0,0.9-0.2,1.4
		c-0.1,0.4-0.4,0.9-0.8,1.3c-0.3,0.3-0.7,0.6-1.1,0.7c-0.4,0.2-0.8,0.2-1.2,0.2c-0.4,0-0.8-0.1-1.2-0.3S245.2,331,244.9,330.7z"/>
	<path class="st0" d="M249.7,325.9L249.7,325.9c-0.3-0.3-0.6-0.7-0.7-1.1s-0.2-0.8-0.2-1.2c0-0.4,0.1-0.8,0.3-1.3s0.4-0.8,0.8-1.1
		s0.7-0.6,1.1-0.8s0.8-0.3,1.3-0.3s0.8,0.1,1.2,0.2c0.4,0.2,0.8,0.4,1.1,0.7l0,0c0.3,0.3,0.6,0.7,0.7,1.1c0.2,0.4,0.2,0.8,0.2,1.2
		s-0.1,0.8-0.3,1.3c-0.2,0.4-0.4,0.8-0.8,1.1c-0.3,0.3-0.7,0.6-1.1,0.8c-0.4,0.2-0.8,0.3-1.3,0.3s-0.8-0.1-1.2-0.2
		C250.4,326.4,250,326.2,249.7,325.9z M250.7,324.8c0.2,0.2,0.4,0.4,0.7,0.5c0.2,0.1,0.5,0.2,0.7,0.2c0.3,0,0.5,0,0.7-0.1
		s0.5-0.2,0.7-0.4c0.2-0.2,0.4-0.4,0.4-0.7c0.1-0.2,0.1-0.5,0.1-0.7c0-0.2-0.1-0.5-0.2-0.7s-0.3-0.4-0.5-0.6l0,0
		c-0.2-0.2-0.4-0.4-0.7-0.5c-0.2-0.1-0.5-0.2-0.7-0.2s-0.5,0-0.7,0.1c-0.2,0.1-0.5,0.2-0.7,0.4c-0.2,0.2-0.4,0.4-0.4,0.7
		c-0.1,0.2-0.1,0.5-0.1,0.7c0,0.2,0.1,0.5,0.2,0.7S250.5,324.6,250.7,324.8L250.7,324.8z"/>
	<path class="st0" d="M256.8,322l-0.2-1.2c0.4-0.1,0.8-0.2,1.2-0.3c0.3-0.2,0.6-0.4,0.9-0.6c0.2-0.2,0.3-0.4,0.4-0.6
		c0-0.2,0-0.4-0.2-0.5l0,0c-0.1-0.1-0.2-0.1-0.3-0.1c-0.1,0-0.2,0-0.4,0.1c-0.1,0-0.3,0.1-0.4,0.2c-0.2,0.1-0.3,0.2-0.5,0.3
		c-0.2,0.1-0.4,0.2-0.7,0.3c-0.2,0.1-0.5,0.2-0.7,0.2c-0.2,0-0.5,0-0.7,0c-0.2-0.1-0.5-0.2-0.7-0.4l0,0c-0.2-0.2-0.4-0.4-0.4-0.7
		c-0.1-0.3-0.1-0.5-0.1-0.8c0-0.3,0.1-0.5,0.2-0.8s0.3-0.5,0.5-0.7c0.3-0.3,0.6-0.5,1-0.7s0.8-0.3,1.2-0.4l0.3,1.1
		c-0.3,0.1-0.7,0.2-1,0.3c-0.3,0.1-0.5,0.3-0.7,0.5c-0.2,0.2-0.3,0.4-0.3,0.6c0,0.2,0,0.4,0.2,0.5l0,0c0.1,0.1,0.2,0.1,0.3,0.1
		s0.2,0,0.4-0.1c0.1,0,0.3-0.1,0.5-0.2c0.2-0.1,0.3-0.2,0.5-0.2c0.2-0.1,0.4-0.2,0.7-0.3c0.2-0.1,0.5-0.2,0.7-0.2s0.5,0,0.7,0
		s0.4,0.2,0.6,0.4l0,0c0.2,0.2,0.4,0.5,0.5,0.7c0.1,0.3,0.1,0.5,0.1,0.8c0,0.3-0.1,0.5-0.3,0.8c-0.1,0.3-0.3,0.5-0.6,0.7
		c-0.3,0.3-0.7,0.6-1.1,0.8C257.8,321.8,257.3,322,256.8,322z"/>
</g>
<g>
	<path class="st1" d="M152.9,106.7l-5.9-5.9l2.7-2.7c0.4-0.4,0.8-0.7,1.2-0.8s0.8-0.3,1.2-0.3c0.3,0,0.6,0.1,0.9,0.2
		c0.3,0.1,0.6,0.3,0.8,0.6l0,0c0.2,0.2,0.4,0.5,0.6,0.8c0.1,0.3,0.2,0.5,0.2,0.8c0,0.3,0,0.6-0.1,0.8c-0.1,0.3-0.2,0.5-0.3,0.8
		l3.9,0.6l-1.2,1.2l-3.5-0.6l0,0l-1.3,1.3l2.1,2.1L152.9,106.7z M150.9,102.6l1.5-1.5c0.4-0.4,0.6-0.8,0.6-1.2
		c0-0.4-0.1-0.8-0.4-1.1l0,0c-0.3-0.3-0.7-0.5-1.1-0.4c-0.4,0-0.8,0.3-1.2,0.7l-1.5,1.5L150.9,102.6z"/>
	<path class="st1" d="M156.4,98.7L156.4,98.7c-0.3-0.3-0.6-0.7-0.8-1.1c-0.2-0.4-0.3-0.8-0.3-1.2c0-0.4,0-0.8,0.2-1.2
		s0.4-0.7,0.7-1.1c0.4-0.4,0.7-0.6,1.1-0.7c0.4-0.1,0.8-0.2,1.2-0.1c0.4,0,0.8,0.2,1.2,0.4c0.4,0.2,0.7,0.5,1.1,0.8
		c0,0,0.1,0.1,0.1,0.1c0,0.1,0.1,0.1,0.1,0.2l-3.3,3.3c0.4,0.3,0.8,0.4,1.3,0.4s0.8-0.2,1.1-0.6c0.3-0.3,0.4-0.5,0.5-0.8
		s0.1-0.6,0.2-0.9L162,96c0,0.5,0,0.9-0.2,1.4c-0.1,0.5-0.4,0.9-0.8,1.3c-0.3,0.3-0.7,0.6-1.1,0.7c-0.4,0.2-0.8,0.2-1.2,0.3
		c-0.4,0-0.8-0.1-1.2-0.2C157.1,99.3,156.8,99,156.4,98.7z M157.1,97.3l2.3-2.3c-0.2-0.1-0.4-0.3-0.6-0.4s-0.4-0.1-0.6-0.1
		c-0.2,0-0.4,0-0.6,0.1c-0.2,0.1-0.4,0.2-0.5,0.4c-0.3,0.3-0.5,0.7-0.5,1.1C156.7,96.5,156.8,97,157.1,97.3z"/>
	<path class="st1" d="M163.1,95.3l-0.2-1.2c0.4-0.1,0.8-0.2,1.2-0.3c0.3-0.2,0.6-0.4,0.9-0.6c0.2-0.2,0.3-0.4,0.4-0.6
		c0-0.2,0-0.4-0.2-0.5l0,0c-0.1-0.1-0.2-0.1-0.3-0.1c-0.1,0-0.2,0-0.4,0.1c-0.1,0-0.3,0.1-0.4,0.2c-0.2,0.1-0.3,0.2-0.5,0.3
		c-0.2,0.1-0.4,0.2-0.7,0.3c-0.2,0.1-0.5,0.2-0.7,0.2c-0.2,0-0.5,0-0.7,0s-0.5-0.2-0.7-0.4l0,0c-0.2-0.2-0.4-0.4-0.4-0.7
		c-0.1-0.3-0.1-0.5-0.1-0.8c0-0.3,0.1-0.5,0.2-0.8s0.3-0.5,0.5-0.7c0.3-0.3,0.6-0.5,1-0.7c0.4-0.2,0.8-0.3,1.2-0.4l0.3,1.1
		c-0.3,0.1-0.7,0.2-1,0.3c-0.3,0.1-0.5,0.3-0.7,0.5c-0.2,0.2-0.3,0.4-0.3,0.6s0,0.4,0.2,0.5l0,0c0.1,0.1,0.2,0.1,0.3,0.1
		c0.1,0,0.2,0,0.4-0.1s0.3-0.1,0.5-0.2c0.2-0.1,0.3-0.2,0.5-0.3c0.2-0.1,0.4-0.2,0.7-0.3c0.2-0.1,0.5-0.2,0.7-0.2c0.2,0,0.5,0,0.7,0
		c0.2,0.1,0.4,0.2,0.6,0.4l0,0c0.2,0.2,0.4,0.5,0.5,0.7s0.1,0.5,0.1,0.8c0,0.3-0.1,0.5-0.3,0.8c-0.1,0.3-0.3,0.5-0.6,0.7
		c-0.3,0.3-0.7,0.6-1.1,0.8S163.6,95.3,163.1,95.3z"/>
	<path class="st1" d="M163.1,86.1l-1-1l1.1-1.1l1,1L163.1,86.1z M168.3,91.2l-4.5-4.5l1-1l4.5,4.5L168.3,91.2z"/>
	<path class="st1" d="M168.2,86.9L168.2,86.9c-0.4-0.4-0.7-0.8-0.8-1.2s-0.3-0.8-0.3-1.2c0-0.4,0.1-0.8,0.2-1.1
		c0.1-0.4,0.4-0.7,0.6-0.9c0.4-0.4,0.8-0.6,1.2-0.7c0.4-0.1,0.8-0.1,1.2-0.1l-2.4-2.4l1-1l6.2,6.2l-1,1l-0.7-0.7
		c0.1,0.4,0.1,0.8,0,1.2s-0.3,0.8-0.7,1.2c-0.3,0.3-0.6,0.5-0.9,0.6c-0.4,0.1-0.7,0.2-1.1,0.2c-0.4,0-0.8-0.1-1.2-0.3
		C169,87.5,168.6,87.3,168.2,86.9z M169.3,85.9c0.2,0.2,0.4,0.4,0.7,0.5s0.5,0.2,0.7,0.2c0.2,0,0.5,0,0.7-0.1
		c0.2-0.1,0.4-0.2,0.6-0.4c0.2-0.2,0.3-0.4,0.4-0.6s0.1-0.5,0.1-0.7c0-0.2-0.1-0.5-0.2-0.7c-0.1-0.2-0.3-0.5-0.5-0.7l0,0
		c-0.2-0.2-0.4-0.4-0.7-0.5c-0.2-0.1-0.5-0.2-0.7-0.2c-0.2,0-0.5,0-0.7,0.1c-0.2,0.1-0.4,0.2-0.6,0.4c-0.2,0.2-0.3,0.4-0.4,0.6
		c-0.1,0.2-0.1,0.5-0.1,0.7c0,0.2,0.1,0.5,0.2,0.7C168.8,85.4,169,85.6,169.3,85.9L169.3,85.9z"/>
	<path class="st1" d="M174.7,81.6l-2.9-2.9l1-1l2.6,2.6c0.4,0.4,0.7,0.5,1.1,0.6s0.7-0.1,1-0.4c0.3-0.3,0.4-0.6,0.4-1
		s-0.2-0.7-0.5-1.1l-2.5-2.5l1-1l4.5,4.5l-1,1l-0.7-0.7c0.1,0.4,0.1,0.7,0,1.1c-0.1,0.4-0.3,0.7-0.6,1.1c-0.5,0.5-1.1,0.7-1.6,0.7
		C175.8,82.4,175.2,82.2,174.7,81.6z"/>
	<path class="st1" d="M179.2,76L179.2,76c-0.3-0.3-0.6-0.7-0.7-1.1s-0.2-0.8-0.2-1.2c0-0.4,0.1-0.8,0.3-1.3c0.2-0.4,0.4-0.8,0.8-1.1
		c0.3-0.3,0.7-0.6,1.1-0.8s0.8-0.3,1.3-0.3c0.4,0,0.8,0.1,1.2,0.2c0.4,0.2,0.8,0.4,1.1,0.7l0,0c0.3,0.3,0.6,0.7,0.7,1.1
		c0.2,0.4,0.2,0.8,0.2,1.2c0,0.4-0.1,0.8-0.3,1.3c-0.2,0.4-0.4,0.8-0.8,1.1c-0.3,0.3-0.7,0.6-1.1,0.8s-0.8,0.3-1.3,0.3
		c-0.4,0-0.8-0.1-1.2-0.2C179.8,76.5,179.5,76.3,179.2,76z M180.2,74.9c0.2,0.2,0.4,0.4,0.7,0.5c0.2,0.1,0.5,0.2,0.7,0.2
		c0.3,0,0.5,0,0.7-0.1c0.2-0.1,0.5-0.2,0.7-0.4c0.2-0.2,0.4-0.4,0.4-0.7s0.1-0.5,0.1-0.7c0-0.2-0.1-0.5-0.2-0.7
		c-0.1-0.2-0.3-0.4-0.5-0.6l0,0c-0.2-0.2-0.4-0.4-0.7-0.5s-0.5-0.2-0.7-0.2c-0.3,0-0.5,0-0.7,0.1s-0.5,0.2-0.7,0.4
		c-0.2,0.2-0.4,0.4-0.4,0.7s-0.1,0.5-0.1,0.7c0,0.2,0.1,0.5,0.2,0.7C179.8,74.5,180,74.7,180.2,74.9L180.2,74.9z"/>
	<path class="st1" d="M186.3,72.1L186,71c0.4-0.1,0.8-0.2,1.2-0.3c0.3-0.2,0.6-0.4,0.9-0.6c0.2-0.2,0.3-0.4,0.4-0.6s0-0.4-0.2-0.5
		l0,0c-0.1-0.1-0.2-0.1-0.3-0.1c-0.1,0-0.2,0-0.4,0.1c-0.1,0-0.3,0.1-0.4,0.2c-0.2,0.1-0.3,0.2-0.5,0.3c-0.2,0.1-0.4,0.2-0.7,0.3
		c-0.2,0.1-0.5,0.2-0.7,0.2c-0.2,0-0.5,0-0.7,0c-0.2-0.1-0.5-0.2-0.7-0.4l0,0c-0.2-0.2-0.4-0.4-0.4-0.7c-0.1-0.3-0.1-0.5-0.1-0.8
		c0-0.3,0.1-0.5,0.2-0.8c0.1-0.3,0.3-0.5,0.5-0.7c0.3-0.3,0.6-0.5,1-0.7c0.4-0.2,0.8-0.3,1.2-0.4l0.3,1.1c-0.3,0.1-0.7,0.2-1,0.3
		c-0.3,0.1-0.5,0.3-0.7,0.5c-0.2,0.2-0.3,0.4-0.3,0.6c0,0.2,0,0.4,0.2,0.5l0,0c0.1,0.1,0.2,0.1,0.3,0.1s0.2,0,0.4-0.1
		c0.1,0,0.3-0.1,0.5-0.2c0.2-0.1,0.3-0.2,0.5-0.3c0.2-0.1,0.4-0.2,0.7-0.3s0.5-0.2,0.7-0.2c0.2,0,0.5,0,0.7,0
		c0.2,0.1,0.4,0.2,0.6,0.4l0,0c0.2,0.2,0.4,0.5,0.5,0.7c0.1,0.3,0.1,0.5,0.1,0.8c0,0.3-0.1,0.5-0.3,0.8c-0.1,0.3-0.3,0.5-0.6,0.7
		c-0.3,0.3-0.7,0.6-1.1,0.8C187.2,71.9,186.8,72.1,186.3,72.1z"/>
	<path class="st1" d="M157,111l-1-1l1.1-1.1l1,1L157,111z M162.2,116.2l-4.5-4.5l1-1l4.5,4.5L162.2,116.2z"/>
	<path class="st1" d="M164.6,113.8l-4.5-4.5l1-1l0.7,0.7c0-0.2-0.1-0.4-0.1-0.5c0-0.2,0-0.4,0.1-0.6c0-0.2,0.1-0.4,0.2-0.6
		c0.1-0.2,0.2-0.4,0.4-0.5c0.5-0.5,1.1-0.7,1.6-0.7c0.6,0,1.1,0.3,1.7,0.8l2.9,2.9l-1,1l-2.5-2.5c-0.4-0.4-0.7-0.5-1.1-0.6
		c-0.4,0-0.7,0.1-1,0.4c-0.3,0.3-0.4,0.6-0.4,1c0,0.4,0.2,0.8,0.5,1.1l2.5,2.5L164.6,113.8z"/>
	<path class="st1" d="M167.4,106.6L167.4,106.6c-0.3-0.3-0.6-0.7-0.7-1.1s-0.2-0.8-0.2-1.2s0.1-0.8,0.3-1.3c0.2-0.4,0.4-0.8,0.8-1.1
		s0.7-0.6,1.1-0.8c0.4-0.2,0.8-0.3,1.3-0.3c0.4,0,0.8,0.1,1.2,0.2c0.4,0.2,0.8,0.4,1.1,0.7l0,0c0.3,0.3,0.6,0.7,0.7,1.1
		c0.2,0.4,0.2,0.8,0.2,1.2c0,0.4-0.1,0.8-0.3,1.3s-0.4,0.8-0.8,1.1c-0.3,0.3-0.7,0.6-1.1,0.8c-0.4,0.2-0.8,0.3-1.3,0.3
		c-0.4,0-0.8-0.1-1.2-0.2C168.1,107.1,167.7,106.9,167.4,106.6z M168.4,105.5c0.2,0.2,0.4,0.4,0.7,0.5s0.5,0.2,0.7,0.2
		c0.3,0,0.5,0,0.7-0.1c0.2-0.1,0.5-0.2,0.7-0.4c0.2-0.2,0.4-0.4,0.4-0.7c0.1-0.2,0.1-0.5,0.1-0.7s-0.1-0.5-0.2-0.7s-0.3-0.4-0.5-0.6
		l0,0c-0.2-0.2-0.4-0.4-0.7-0.5c-0.2-0.1-0.5-0.2-0.7-0.2s-0.5,0-0.7,0.1c-0.2,0.1-0.5,0.2-0.7,0.4c-0.2,0.2-0.4,0.4-0.4,0.7
		c-0.1,0.2-0.1,0.5-0.1,0.7c0,0.2,0.1,0.5,0.2,0.7C168,105.1,168.2,105.3,168.4,105.5L168.4,105.5z"/>
	<path class="st1" d="M175.4,103l-4.5-4.5l1-1l1,1c-0.2-0.5-0.3-0.9-0.2-1.4c0.1-0.4,0.3-0.8,0.6-1.2c0,0,0.1-0.1,0.1-0.1l1.1,1.1
		l-0.1,0.1c-0.2,0.2-0.4,0.5-0.5,0.7c-0.1,0.3-0.2,0.5-0.2,0.8s0.1,0.6,0.2,0.9s0.4,0.6,0.7,0.9l1.7,1.7L175.4,103z"/>
	<path class="st1" d="M176.2,97.2L176.2,97.2c-0.3-0.3-0.6-0.7-0.7-1.1c-0.1-0.4-0.2-0.7-0.2-1.1s0.1-0.7,0.2-1.1
		c0.1-0.3,0.4-0.6,0.6-0.9c0.4-0.4,0.8-0.6,1.2-0.7c0.4-0.1,0.8-0.1,1.2-0.1l-0.7-0.7l1-1l3.6,3.6c0.7,0.7,1.1,1.5,1.1,2.3
		c0,0.4-0.1,0.8-0.3,1.2c-0.2,0.4-0.5,0.8-0.9,1.2c-0.7,0.7-1.6,1.2-2.5,1.5l-0.4-1.2c0.4-0.1,0.7-0.2,1.1-0.4
		c0.3-0.2,0.7-0.4,1-0.7c0.5-0.5,0.7-0.9,0.7-1.4c0-0.5-0.2-0.9-0.7-1.4l-0.3-0.3c0.1,0.4,0,0.8-0.1,1.3s-0.3,0.8-0.7,1.2
		c-0.3,0.3-0.6,0.5-0.9,0.6s-0.7,0.2-1.1,0.2c-0.4,0-0.7-0.1-1.1-0.2C176.9,97.8,176.6,97.6,176.2,97.2z M177.3,96.2
		c0.2,0.2,0.4,0.3,0.6,0.4c0.2,0.1,0.4,0.1,0.7,0.1c0.2,0,0.4-0.1,0.7-0.1c0.2-0.1,0.4-0.2,0.6-0.4s0.3-0.4,0.4-0.6
		c0.1-0.2,0.2-0.4,0.2-0.7c0-0.2,0-0.5-0.1-0.7c-0.1-0.2-0.2-0.4-0.4-0.6l0,0c-0.2-0.2-0.4-0.3-0.6-0.4s-0.4-0.1-0.7-0.1
		c-0.2,0-0.5,0.1-0.7,0.2c-0.2,0.1-0.4,0.2-0.6,0.4c-0.2,0.2-0.3,0.4-0.4,0.6s-0.1,0.4-0.2,0.7s0,0.4,0.1,0.7
		C176.9,95.8,177.1,96,177.3,96.2L177.3,96.2z"/>
	<path class="st1" d="M180.9,87.4l-0.5-2.3l1.4-0.5l-0.1,2L180.9,87.4z M183,92.8L183,92.8c-0.3-0.3-0.4-0.5-0.5-0.8
		c-0.1-0.3-0.1-0.6-0.1-0.8s0.1-0.6,0.3-0.9c0.2-0.3,0.4-0.6,0.6-0.8c0.3-0.3,0.5-0.5,0.7-0.6c0.2-0.2,0.5-0.3,0.7-0.4l-0.1-0.1
		c-0.3-0.3-0.6-0.5-1-0.4c-0.4,0-0.7,0.2-1.1,0.6c-0.3,0.3-0.5,0.5-0.6,0.8c-0.1,0.3-0.3,0.5-0.4,0.8l-1.1-0.5
		c0.1-0.4,0.3-0.7,0.5-1c0.2-0.3,0.5-0.7,0.8-1c0.7-0.7,1.3-1,2-1c0.7,0,1.3,0.3,1.9,0.9l2.7,2.7l-1,1l-0.6-0.6c0,0.3,0,0.7-0.1,1
		c-0.1,0.4-0.3,0.7-0.7,1.1c-0.2,0.2-0.5,0.4-0.7,0.5c-0.3,0.1-0.5,0.2-0.8,0.2s-0.5,0-0.8-0.1C183.5,93.2,183.2,93,183,92.8z
		 M184,91.7c0.2,0.2,0.5,0.3,0.7,0.2c0.3-0.1,0.5-0.2,0.8-0.4c0.2-0.2,0.3-0.3,0.4-0.5c0.1-0.2,0.2-0.4,0.2-0.6c0-0.2,0-0.4,0-0.5
		c-0.1-0.2-0.2-0.3-0.3-0.5l-0.3-0.3c-0.2,0.1-0.4,0.2-0.6,0.3c-0.2,0.1-0.4,0.3-0.6,0.5c-0.3,0.3-0.5,0.6-0.6,0.9
		C183.7,91.2,183.8,91.5,184,91.7L184,91.7z"/>
	<path class="st1" d="M189.6,88.8l-4.5-4.5l1-1l0.7,0.7c0-0.2-0.1-0.4-0.1-0.5c0-0.2,0-0.4,0.1-0.6c0-0.2,0.1-0.4,0.2-0.6
		c0.1-0.2,0.2-0.4,0.4-0.5c0.5-0.5,1.1-0.7,1.6-0.7c0.6,0,1.1,0.3,1.7,0.8l2.9,2.9l-1,1l-2.5-2.5c-0.4-0.4-0.7-0.5-1.1-0.6
		c-0.4,0-0.7,0.1-1,0.4c-0.3,0.3-0.4,0.6-0.4,1c0,0.4,0.2,0.7,0.5,1.1l2.5,2.5L189.6,88.8z"/>
	<path class="st1" d="M189.7,78.3l-1-1l1.1-1.1l1,1L189.7,78.3z M194.9,83.5l-4.5-4.5l1-1l4.5,4.5L194.9,83.5z"/>
	<path class="st1" d="M194.8,79.1L194.8,79.1c-0.3-0.3-0.6-0.7-0.7-1.1c-0.2-0.4-0.3-0.8-0.3-1.2c0-0.4,0.1-0.8,0.2-1.2
		c0.2-0.4,0.4-0.8,0.7-1.1c0.4-0.4,0.8-0.7,1.3-0.8c0.4-0.1,0.9-0.2,1.3-0.2l0.1,1.3c-0.3,0-0.6,0-0.9,0.1c-0.3,0.1-0.6,0.2-0.8,0.5
		c-0.2,0.2-0.3,0.4-0.4,0.6s-0.1,0.5-0.1,0.7c0,0.2,0.1,0.5,0.2,0.7c0.1,0.2,0.3,0.5,0.5,0.6l0,0c0.2,0.2,0.4,0.4,0.7,0.5
		c0.2,0.1,0.5,0.2,0.7,0.2c0.2,0,0.5,0,0.7-0.1c0.2-0.1,0.5-0.2,0.7-0.4c0.2-0.2,0.4-0.5,0.5-0.8c0.1-0.3,0.1-0.6,0.1-0.9l1.2,0
		c0,0.5,0,0.9-0.2,1.4c-0.1,0.4-0.4,0.9-0.8,1.3c-0.3,0.3-0.7,0.6-1.1,0.7c-0.4,0.2-0.8,0.2-1.2,0.2c-0.4,0-0.8-0.1-1.2-0.3
		C195.5,79.7,195.1,79.5,194.8,79.1z"/>
	<path class="st1" d="M199.7,74.3L199.7,74.3c-0.3-0.3-0.6-0.7-0.7-1.1s-0.2-0.8-0.2-1.2s0.1-0.8,0.2-1.3c0.2-0.4,0.4-0.8,0.8-1.1
		c0.3-0.3,0.7-0.6,1.1-0.8s0.8-0.3,1.3-0.3c0.4,0,0.8,0.1,1.2,0.2c0.4,0.2,0.8,0.4,1.1,0.7l0,0c0.3,0.3,0.6,0.7,0.7,1.1
		c0.2,0.4,0.2,0.8,0.2,1.2s-0.1,0.8-0.3,1.3c-0.2,0.4-0.4,0.8-0.8,1.1c-0.3,0.3-0.7,0.6-1.1,0.8c-0.4,0.2-0.8,0.3-1.3,0.3
		c-0.4,0-0.8-0.1-1.2-0.2C200.3,74.9,200,74.6,199.7,74.3z M200.7,73.2c0.2,0.2,0.4,0.4,0.7,0.5c0.2,0.1,0.5,0.2,0.7,0.2
		c0.3,0,0.5,0,0.7-0.1s0.5-0.2,0.7-0.4c0.2-0.2,0.4-0.4,0.4-0.7c0.1-0.2,0.1-0.5,0.1-0.7s-0.1-0.5-0.2-0.7s-0.3-0.4-0.5-0.6l0,0
		c-0.2-0.2-0.4-0.4-0.7-0.5c-0.2-0.1-0.5-0.2-0.7-0.2s-0.5,0-0.7,0.1c-0.2,0.1-0.5,0.2-0.7,0.4c-0.2,0.2-0.4,0.4-0.4,0.7
		c-0.1,0.2-0.1,0.5-0.1,0.7c0,0.2,0.1,0.5,0.2,0.7S200.5,73,200.7,73.2L200.7,73.2z"/>
	<path class="st1" d="M206.7,70.5l-0.2-1.2c0.4-0.1,0.8-0.2,1.2-0.3c0.3-0.2,0.6-0.4,0.9-0.6c0.2-0.2,0.3-0.4,0.4-0.6
		c0-0.2,0-0.4-0.2-0.5l0,0c-0.1-0.1-0.2-0.1-0.3-0.1c-0.1,0-0.2,0-0.4,0.1c-0.1,0-0.3,0.1-0.4,0.2c-0.2,0.1-0.3,0.2-0.5,0.3
		c-0.2,0.1-0.4,0.2-0.7,0.3c-0.2,0.1-0.5,0.2-0.7,0.2c-0.2,0-0.5,0-0.7,0c-0.2-0.1-0.5-0.2-0.7-0.4l0,0c-0.2-0.2-0.4-0.4-0.4-0.7
		c-0.1-0.3-0.1-0.5-0.1-0.8c0-0.3,0.1-0.5,0.2-0.8c0.1-0.3,0.3-0.5,0.5-0.7c0.3-0.3,0.6-0.5,1-0.7c0.4-0.2,0.8-0.3,1.2-0.4l0.3,1.1
		c-0.3,0.1-0.7,0.2-1,0.3c-0.3,0.1-0.5,0.3-0.7,0.5c-0.2,0.2-0.3,0.4-0.3,0.6c0,0.2,0,0.4,0.2,0.5l0,0c0.1,0.1,0.2,0.1,0.3,0.1
		c0.1,0,0.2,0,0.4-0.1c0.1,0,0.3-0.1,0.5-0.2c0.2-0.1,0.3-0.2,0.5-0.3c0.2-0.1,0.4-0.2,0.7-0.3c0.2-0.1,0.5-0.2,0.7-0.2
		c0.2,0,0.5,0,0.7,0c0.2,0.1,0.4,0.2,0.6,0.4l0,0c0.2,0.2,0.4,0.5,0.5,0.7c0.1,0.3,0.1,0.5,0.1,0.8c0,0.3-0.1,0.5-0.3,0.8
		c-0.1,0.3-0.3,0.5-0.6,0.7c-0.3,0.3-0.7,0.6-1.1,0.8S207.2,70.4,206.7,70.5z"/>
</g>
<g>
	
		<linearGradient id="SVGID_1_" gradientUnits="userSpaceOnUse" x1="12.0176" y1="211.479" x2="15.1904" y2="211.479" gradientTransform="matrix(0.9994 3.389883e-02 -3.389883e-02 0.9994 4.5333 -15.0358)">
		<stop  offset="0" style="stop-color:#00CE89"/>
		<stop  offset="1" style="stop-color:#00B0FF"/>
	</linearGradient>
	<path class="st2" d="M11.2,197.6c-1.1-0.1-1.7-0.6-1.8-1.6l0.5-0.1c0.2,0.7,0.5,1,1.1,1l0.1,0l0-0.5l1.5,0.1l-0.1,1.3L11.2,197.6z"
		/>
	
		<linearGradient id="SVGID_2_" gradientUnits="userSpaceOnUse" x1="12.4901" y1="198.3122" x2="22.5984" y2="198.3122" gradientTransform="matrix(0.9994 3.389883e-02 -3.389883e-02 0.9994 4.5333 -15.0358)">
		<stop  offset="0" style="stop-color:#00CE89"/>
		<stop  offset="1" style="stop-color:#00B0FF"/>
	</linearGradient>
	<path class="st3" d="M18.4,187.7l-0.7-0.8c1-0.9,1.6-1.8,1.7-3.2c0.1-1.3-0.5-2.2-1.4-2.4c-0.9-0.1-1.5,0.3-2.1,2.3
		c-0.7,2.2-1.6,3.1-3.2,3c-1.5-0.2-2.5-1.6-2.3-3.5c0.2-1.4,0.7-2.4,1.6-3.3l0.8,0.7c-0.8,0.8-1.3,1.7-1.4,2.7
		c-0.1,1.3,0.5,2.1,1.4,2.2c0.9,0.1,1.5-0.3,2.2-2.4c0.7-2.1,1.6-3,3.1-2.9c1.7,0.2,2.6,1.7,2.4,3.6
		C20.2,185.4,19.6,186.6,18.4,187.7z"/>
	
		<linearGradient id="SVGID_3_" gradientUnits="userSpaceOnUse" x1="14.0947" y1="181.6771" x2="23.9463" y2="181.6771" gradientTransform="matrix(0.9994 3.389883e-02 -3.389883e-02 0.9994 4.5333 -15.0358)">
		<stop  offset="0" style="stop-color:#00CE89"/>
		<stop  offset="1" style="stop-color:#00B0FF"/>
	</linearGradient>
	<path class="st4" d="M12.4,169.6l0.7-3.6c0.4-2.2,1.9-3.4,3.8-3c2.1,0.4,2.8,2.3,2.4,4.4l-0.5,2.3l3.4,0.7l-0.2,1.1L12.4,169.6z
		 M18.3,167.2c0.3-1.6-0.3-2.8-1.6-3.1c-1.4-0.3-2.3,0.6-2.6,2.2l-0.5,2.4l4.2,0.8L18.3,167.2z"/>
	
		<linearGradient id="SVGID_4_" gradientUnits="userSpaceOnUse" x1="17.9748" y1="164.2651" x2="28.1282" y2="164.2651" gradientTransform="matrix(0.9994 3.389883e-02 -3.389883e-02 0.9994 4.5333 -15.0358)">
		<stop  offset="0" style="stop-color:#00CE89"/>
		<stop  offset="1" style="stop-color:#00B0FF"/>
	</linearGradient>
	<path class="st5" d="M20.6,154.7c-2.6-0.8-4.3-3.4-3.5-6.2c0.8-2.9,3.6-4.1,6.3-3.4c2.6,0.8,4.3,3.4,3.5,6.2
		C26,154.2,23.2,155.5,20.6,154.7z M23.1,146.2c-2.1-0.6-4.3,0.4-5,2.6c-0.6,2.2,0.7,4.2,2.8,4.8c2.1,0.6,4.3-0.4,5-2.6
		C26.5,148.9,25.2,146.8,23.1,146.2z"/>
	
		<linearGradient id="SVGID_5_" gradientUnits="userSpaceOnUse" x1="22.0498" y1="146.4877" x2="32.752" y2="146.4877" gradientTransform="matrix(0.9994 3.389883e-02 -3.389883e-02 0.9994 4.5333 -15.0358)">
		<stop  offset="0" style="stop-color:#00CE89"/>
		<stop  offset="1" style="stop-color:#00B0FF"/>
	</linearGradient>
	<path class="st6" d="M23.6,132.9l-1.2,3.1l-1-0.4l2.8-7.2l1,0.4l-1.2,3.1l8.2,3.1l-0.4,1L23.6,132.9z"/>
	
		<linearGradient id="SVGID_6_" gradientUnits="userSpaceOnUse" x1="32.9551" y1="122.2197" x2="42.1846" y2="122.2197" gradientTransform="matrix(0.9994 3.389883e-02 -3.389883e-02 0.9994 4.5333 -15.0358)">
		<stop  offset="0" style="stop-color:#00CE89"/>
		<stop  offset="1" style="stop-color:#00B0FF"/>
	</linearGradient>
	<path class="st7" d="M33.3,109.1l3.4-6.2l0.9,0.5l-2.9,5.2l3.1,1.7l2.6-4.6l0.9,0.5l-2.6,4.6l3.7,2.1l-0.5,1L33.3,109.1z"/>
	
		<linearGradient id="SVGID_7_" gradientUnits="userSpaceOnUse" x1="40.9131" y1="108.3018" x2="53.5098" y2="108.3018" gradientTransform="matrix(0.9994 3.389883e-02 -3.389883e-02 0.9994 4.5333 -15.0358)">
		<stop  offset="0" style="stop-color:#00CE89"/>
		<stop  offset="1" style="stop-color:#00B0FF"/>
	</linearGradient>
	<path class="st8" d="M41.7,94.8l2.3-3.5c0.7-1,1.5-1.6,2.4-1.8c0.7-0.1,1.4,0,2,0.5c1.3,0.9,1.5,2.4,0.9,3.8l5-0.3l-0.8,1.1
		l-4.7,0.2l-1.6,2.3l3.2,2.1l-0.6,0.9L41.7,94.8z M48.2,94.1c0.8-1.2,0.8-2.5-0.3-3.2c-1-0.7-2.1-0.3-3,1l-1.7,2.5l3.3,2.2
		L48.2,94.1z"/>
	
		<linearGradient id="SVGID_8_" gradientUnits="userSpaceOnUse" x1="50.7022" y1="93.6775" x2="62.834" y2="93.6775" gradientTransform="matrix(0.9994 3.389883e-02 -3.389883e-02 0.9994 4.5333 -15.0358)">
		<stop  offset="0" style="stop-color:#00CE89"/>
		<stop  offset="1" style="stop-color:#00B0FF"/>
	</linearGradient>
	<path class="st9" d="M52,80.2l4.4-5.5l0.8,0.6L53.5,80l2.6,2.1l3.3-4.2l0.8,0.6l-3.3,4.2l2.7,2.1l3.8-4.7l0.8,0.6l-4.5,5.6L52,80.2
		z"/>
	
		<linearGradient id="SVGID_9_" gradientUnits="userSpaceOnUse" x1="61.1299" y1="80.8923" x2="73.211" y2="80.8923" gradientTransform="matrix(0.9994 3.389883e-02 -3.389883e-02 0.9994 4.5333 -15.0358)">
		<stop  offset="0" style="stop-color:#00CE89"/>
		<stop  offset="1" style="stop-color:#00B0FF"/>
	</linearGradient>
	<path class="st10" d="M62.9,67.3l4.9-5.2l0.7,0.7l-4.1,4.3l2.4,2.3l3.7-3.9l0.7,0.7l-3.7,3.9l2.5,2.4l4.2-4.4l0.7,0.7L70,74
		L62.9,67.3z"/>
	
		<linearGradient id="SVGID_10_" gradientUnits="userSpaceOnUse" x1="72.3838" y1="68.9594" x2="74.8344" y2="68.9594" gradientTransform="matrix(0.9994 3.389883e-02 -3.389883e-02 0.9994 4.5333 -15.0358)">
		<stop  offset="0" style="stop-color:#00CE89"/>
		<stop  offset="1" style="stop-color:#00B0FF"/>
	</linearGradient>
	<path class="st11" d="M76.1,57.8c0.3-0.6,0.3-1,0-1.4l-0.1-0.1l-0.4,0.3l-1-1.1l0.9-0.9l0.9,0.9c0.8,0.8,0.8,1.6,0.2,2.5L76.1,57.8
		z"/>
</g>
<g>
	<path class="st0" d="M192,224.1l-14.6-58.9l-42.7-12.3c-9-2.6-18.8-0.2-25.6,6.4l-50.8,49c-6.8,6.5-9.6,16.2-7.3,25.3L68,302
		c2.3,9.1,9.2,16.4,18.3,19l67.8,19.5c9,2.6,18.8,0.2,25.6-6.4l50.8-49c6.8-6.5,9.6-16.2,7.3-25.3l-2.4-9.6l-25.1-7.2
		C201.2,240.4,194.2,233.2,192,224.1z"/>
	<path class="st1" d="M361.7,181.9l-17-68.5c-2.3-9.1-9.2-16.4-18.3-19L258.6,75c-9-2.6-18.8-0.2-25.6,6.4l-50.8,49
		c-6.8,6.5-9.6,16.2-7.3,25.3l2.4,9.6l25.1,7.2c9,2.6,16,9.8,18.3,19l14.6,58.9l42.7,12.3c9,2.6,18.8,0.2,25.6-6.4l50.8-49
		C361.2,200.7,364,191,361.7,181.9z"/>
	<path class="st12" d="M202.4,172.4l-25.1-7.2l14.6,58.9c2.3,9.1,9.2,16.4,18.3,19l25.1,7.2l-14.6-58.9
		C218.5,182.2,211.5,175,202.4,172.4z"/>
</g>
<g>
	<linearGradient id="SVGID_11_" gradientUnits="userSpaceOnUse" x1="0.9" y1="196.9" x2="393.1" y2="196.9">
		<stop  offset="0" style="stop-color:#00CE89"/>
		<stop  offset="1" style="stop-color:#00B0FF"/>
	</linearGradient>
	<path class="st13" d="M197,392.6c-26.4,0-52.1-5.2-76.2-15.4c-23.3-9.9-44.2-24-62.2-41.9c-18-18-32.1-38.9-41.9-62.2
		C6.4,249,1.3,223.3,1.3,196.9s5.2-52.1,15.4-76.2c9.9-23.3,24-44.2,41.9-62.2c18-18,38.9-32.1,62.2-41.9
		C144.9,6.4,170.6,1.2,197,1.2s52.1,5.2,76.2,15.4c23.3,9.9,44.2,24,62.2,41.9c18,18,32.1,38.9,41.9,62.2
		c10.2,24.1,15.4,49.8,15.4,76.2s-5.2,52.1-15.4,76.2c-9.9,23.3-24,44.2-41.9,62.2c-18,18-38.9,32.1-62.2,41.9
		C249,387.5,223.4,392.6,197,392.6z M197,1.6c-26.4,0-51.9,5.2-76,15.3c-23.3,9.9-44.2,24-62.1,41.9s-32,38.8-41.9,62.1
		C6.8,145,1.7,170.5,1.7,196.9s5.2,51.9,15.3,76c9.8,23.3,23.9,44.1,41.9,62.1c17.9,17.9,38.8,32,62.1,41.9
		c24.1,10.2,49.7,15.3,76,15.3s51.9-5.2,76-15.3c23.3-9.8,44.1-23.9,62.1-41.9c17.9-17.9,32-38.8,41.9-62.1
		c10.2-24.1,15.3-49.7,15.3-76s-5.2-51.9-15.3-76c-9.8-23.3-23.9-44.1-41.9-62.1c-17.9-17.9-38.8-32-62.1-41.9
		C248.9,6.8,223.3,1.6,197,1.6z"/>
</g>
<circle class="st14" cx="238.6" cy="38.9" r="20.9"/>
<circle class="st14" cx="282.6" cy="50.5" r="20.9"/>
<circle class="st14" cx="326" cy="62.1" r="20.9"/>
<circle class="st14" cx="369.2" cy="73.7" r="20.9"/>
<g>
	<path class="st1" d="M230.2,42.7l0.4-0.9c0.5,0.2,1,0.3,1.5,0.2c0.4-0.1,0.6-0.3,0.5-0.6c-0.1-0.2-0.3-0.3-1.1-0.3
		c-1,0-1.6-0.1-1.9-1c-0.2-0.8,0.3-1.5,1.2-1.8c0.7-0.2,1.3-0.1,1.8,0.1l-0.3,0.9c-0.5-0.2-0.9-0.2-1.3-0.1
		c-0.4,0.1-0.5,0.3-0.5,0.6c0.1,0.3,0.3,0.3,1.1,0.3c1,0,1.6,0.2,1.8,1c0.2,0.9-0.3,1.6-1.3,1.8C231.7,43.1,230.9,43,230.2,42.7z"/>
	<path class="st1" d="M234.5,41.2c-0.2-0.7,0.3-1.2,1.1-1.5c0.3-0.1,0.6-0.1,0.9-0.1l0-0.1c-0.1-0.4-0.4-0.6-0.9-0.4
		c-0.4,0.1-0.6,0.2-0.9,0.4l-0.4-0.7c0.3-0.3,0.7-0.5,1.3-0.6c0.5-0.1,1-0.1,1.3,0.1c0.3,0.2,0.5,0.5,0.7,1l0.5,2l-0.9,0.3l-0.1-0.4
		c-0.2,0.3-0.4,0.6-0.9,0.7C235.3,42.1,234.7,41.8,234.5,41.2z M236.7,40.4l0-0.2c-0.2,0-0.4,0-0.7,0c-0.4,0.1-0.6,0.3-0.5,0.7
		c0.1,0.3,0.3,0.4,0.6,0.3C236.5,41,236.7,40.7,236.7,40.4z"/>
	<path class="st1" d="M237.8,36.4l1-0.3l1.2,4.7l-1,0.3L237.8,36.4z"/>
	<path class="st1" d="M240.5,38.8c-0.3-1,0.2-2,1.2-2.2c1.1-0.3,1.9,0.4,2.2,1.4c0,0.1,0,0.2,0.1,0.3l-2.4,0.6
		c0.2,0.4,0.6,0.6,1,0.4c0.3-0.1,0.5-0.3,0.7-0.6l0.7,0.3c-0.2,0.5-0.6,0.8-1.2,1C241.7,40.4,240.8,39.8,240.5,38.8z M242.8,37.9
		c-0.2-0.4-0.5-0.6-0.9-0.5c-0.4,0.1-0.6,0.5-0.5,0.9L242.8,37.9z"/>
	<path class="st1" d="M244.8,39l0.2-0.7c0.4,0.2,0.9,0.2,1.2,0.1c0.3-0.1,0.4-0.2,0.3-0.4c-0.1-0.2-0.4-0.2-0.8-0.2
		c-0.5,0-1.1-0.1-1.3-0.8c-0.2-0.7,0.3-1.2,1-1.4c0.4-0.1,0.9-0.1,1.4,0.1l-0.2,0.8c-0.4-0.1-0.8-0.1-1-0.1
		c-0.2,0.1-0.3,0.2-0.3,0.3c0.1,0.2,0.4,0.2,0.8,0.2c0.5,0,1.1,0.1,1.3,0.7c0.2,0.8-0.3,1.3-1,1.5C246,39.2,245.4,39.2,244.8,39z"/>
</g>
<g>
	<path class="st1" d="M266.3,52.9l-1.4,0.4l-0.2-0.9l3.7-1l0.2,0.9l-1.4,0.4l1,3.6l-1,0.3L266.3,52.9z"/>
	<path class="st1" d="M269.5,54.8c-0.2-0.7,0.3-1.2,1.1-1.5c0.3-0.1,0.6-0.1,0.9-0.1l0-0.1c-0.1-0.4-0.4-0.6-0.9-0.4
		c-0.4,0.1-0.6,0.2-0.9,0.4l-0.4-0.7c0.3-0.3,0.7-0.5,1.3-0.6c0.5-0.1,1-0.1,1.3,0.1c0.3,0.2,0.5,0.5,0.7,1l0.5,2l-0.9,0.3l-0.1-0.4
		c-0.2,0.3-0.4,0.6-0.9,0.7C270.4,55.7,269.7,55.5,269.5,54.8z M271.7,54l0-0.2c-0.2,0-0.4,0-0.7,0c-0.4,0.1-0.6,0.3-0.5,0.7
		c0.1,0.3,0.3,0.4,0.6,0.3C271.6,54.6,271.8,54.3,271.7,54z"/>
	<path class="st1" d="M272.8,50l1-0.3l1.2,4.7l-1,0.3L272.8,50z"/>
	<path class="st1" d="M275.7,53.1c-0.2-0.7,0.3-1.2,1.1-1.5c0.3-0.1,0.6-0.1,0.9-0.1l0-0.1c-0.1-0.4-0.4-0.6-0.9-0.4
		c-0.4,0.1-0.6,0.2-0.9,0.4l-0.4-0.7c0.3-0.3,0.7-0.5,1.3-0.6c0.5-0.1,1-0.1,1.3,0.1c0.3,0.2,0.5,0.5,0.7,1l0.5,2l-0.9,0.3l-0.1-0.4
		c-0.2,0.3-0.4,0.6-0.9,0.7C276.5,54,275.9,53.8,275.7,53.1z M277.9,52.3l0-0.2c-0.2,0-0.4,0-0.7,0c-0.4,0.1-0.6,0.3-0.5,0.7
		c0.1,0.3,0.3,0.4,0.6,0.3C277.7,53,278,52.7,277.9,52.3z"/>
	<path class="st1" d="M279.6,51.3c-0.3-1.1,0.3-2,1.1-2.2c0.5-0.1,0.9,0,1.2,0.2l-0.5-1.7l1-0.3l1.2,4.7l-1,0.3l-0.1-0.5
		c-0.2,0.4-0.4,0.7-0.9,0.8C280.8,52.9,279.9,52.5,279.6,51.3z M282.2,50.6c-0.2-0.6-0.6-0.8-1.1-0.7c-0.5,0.1-0.7,0.6-0.6,1.2
		c0.2,0.6,0.6,0.8,1.1,0.7C282.1,51.7,282.4,51.2,282.2,50.6z"/>
	<path class="st1" d="M283.9,48.3l1-0.3l0.2,0.7c0.1-0.5,0.3-0.9,0.9-1l0.3,1l-0.1,0c-0.6,0.2-0.9,0.7-0.7,1.5l0.3,1.3l-1,0.3
		L283.9,48.3z"/>
	<path class="st1" d="M286.4,46.3l1-0.3l0.2,0.9l-1,0.3L286.4,46.3z M286.7,47.6l1-0.3l0.9,3.4l-1,0.3L286.7,47.6z"/>
	<path class="st1" d="M288.8,47l1-0.3l0.1,0.5c0.1-0.3,0.4-0.7,0.9-0.8c0.7-0.2,1.3,0.2,1.5,1l0.6,2.2l-1,0.3l-0.5-1.9
		c-0.1-0.5-0.4-0.6-0.8-0.5c-0.4,0.1-0.5,0.4-0.4,0.9l0.5,1.9l-1,0.3L288.8,47z"/>
	<path class="st1" d="M293.5,48.4c-0.2-0.7,0.3-1.2,1.1-1.5c0.3-0.1,0.6-0.1,0.9-0.1l0-0.1c-0.1-0.4-0.4-0.6-0.9-0.4
		c-0.4,0.1-0.6,0.2-0.9,0.4l-0.4-0.7c0.3-0.3,0.7-0.5,1.3-0.6c0.5-0.1,1-0.1,1.3,0.1c0.3,0.2,0.5,0.5,0.7,1l0.5,2l-0.9,0.3l-0.1-0.4
		c-0.2,0.3-0.4,0.6-0.9,0.7C294.3,49.3,293.7,49,293.5,48.4z M295.7,47.5l0-0.2c-0.2,0-0.4,0-0.7,0c-0.4,0.1-0.6,0.3-0.5,0.7
		c0.1,0.3,0.3,0.4,0.6,0.3C295.5,48.2,295.8,47.9,295.7,47.5z"/>
	<path class="st1" d="M297.6,47.8l0.2-0.8c0.4,0.2,0.9,0.2,1.2,0.1c0.3-0.1,0.4-0.2,0.3-0.4c-0.1-0.2-0.4-0.2-0.8-0.2
		c-0.5,0-1.1-0.1-1.3-0.8c-0.2-0.7,0.3-1.2,1-1.4c0.4-0.1,0.9-0.1,1.4,0.1l-0.2,0.8c-0.4-0.1-0.8-0.1-1-0.1
		c-0.2,0.1-0.3,0.2-0.3,0.3c0.1,0.2,0.4,0.2,0.8,0.2c0.5,0,1.1,0.1,1.3,0.8c0.2,0.8-0.3,1.3-1,1.5C298.7,48.1,298.1,48.1,297.6,47.8
		z"/>
</g>
<g>
	<path class="st1" d="M313.8,62.7l1-0.3l0.5,1.8l1.8-0.5l-0.5-1.8l1-0.3l1.2,4.5l-1,0.3l-0.5-1.8l-1.8,0.5l0.5,1.8l-1,0.3
		L313.8,62.7z"/>
	<path class="st1" d="M319.7,64.6l-0.6-2.2l1-0.3l0.5,1.9c0.1,0.5,0.4,0.6,0.8,0.5c0.4-0.1,0.5-0.4,0.4-0.9l-0.5-1.9l1-0.3l0.9,3.4
		l-1,0.3l-0.1-0.5c-0.1,0.3-0.4,0.7-0.9,0.8C320.5,65.8,319.9,65.4,319.7,64.6z"/>
	<path class="st1" d="M323.6,63c-0.3-1,0.2-2,1.2-2.2c1.1-0.3,1.9,0.4,2.2,1.4c0,0.1,0,0.2,0.1,0.3l-2.4,0.6c0.2,0.4,0.6,0.6,1,0.4
		c0.3-0.1,0.5-0.3,0.7-0.6l0.7,0.3c-0.2,0.5-0.6,0.8-1.2,1C324.9,64.6,323.9,64.1,323.6,63z M326,62.1c-0.2-0.4-0.5-0.6-0.9-0.5
		c-0.4,0.1-0.6,0.5-0.5,0.9L326,62.1z"/>
	<path class="st1" d="M327.2,58.9l1-0.3l1.2,4.7l-1,0.3L327.2,58.9z"/>
	<path class="st1" d="M329.3,58.3l1-0.3l1.2,4.7l-1,0.3L329.3,58.3z"/>
	<path class="st1" d="M332.2,61.5c-0.2-0.7,0.3-1.2,1.1-1.5c0.3-0.1,0.6-0.1,0.9-0.1l0-0.1c-0.1-0.4-0.4-0.6-0.9-0.4
		c-0.4,0.1-0.6,0.2-0.9,0.4l-0.4-0.7c0.3-0.3,0.7-0.5,1.3-0.6c0.5-0.1,1-0.1,1.3,0.1c0.3,0.2,0.5,0.5,0.7,1l0.5,2l-0.9,0.3l-0.1-0.4
		c-0.2,0.3-0.4,0.6-0.9,0.7C333,62.4,332.4,62.2,332.2,61.5z M334.4,60.7l0-0.2c-0.2,0-0.4,0-0.7,0c-0.4,0.1-0.6,0.3-0.5,0.7
		c0.1,0.3,0.3,0.4,0.6,0.3C334.2,61.4,334.5,61,334.4,60.7z"/>
	<path class="st1" d="M336.3,61l0.2-0.7c0.4,0.2,0.9,0.2,1.2,0.1c0.3-0.1,0.4-0.2,0.3-0.4c-0.1-0.2-0.4-0.2-0.8-0.2
		c-0.5,0-1.1-0.1-1.3-0.8c-0.2-0.7,0.3-1.2,1-1.4c0.4-0.1,0.9-0.1,1.4,0.1l-0.2,0.8c-0.4-0.1-0.8-0.1-1-0.1
		c-0.2,0.1-0.3,0.2-0.3,0.3c0.1,0.2,0.4,0.2,0.8,0.2c0.5,0,1.1,0.1,1.3,0.8c0.2,0.8-0.3,1.3-1,1.5C337.4,61.2,336.9,61.2,336.3,61z"
		/>
</g>
<g>
	<path class="st1" d="M350,77.1l3.4-0.9l0.2,0.9l-2.4,0.6l0.2,0.9l2.1-0.6l0.2,0.9l-2.1,0.6l0.3,0.9l2.4-0.6l0.2,0.9l-3.4,0.9
		L350,77.1z"/>
	<path class="st1" d="M354.7,76.9l1-0.3l0.1,0.5c0.1-0.3,0.4-0.7,0.9-0.8c0.4-0.1,0.8,0,1.1,0.3c0.2-0.4,0.5-0.7,1-0.8
		c0.7-0.2,1.3,0.1,1.5,0.9l0.6,2.2l-1,0.3l-0.5-1.9c-0.1-0.5-0.4-0.6-0.8-0.5c-0.4,0.1-0.5,0.4-0.4,0.9l0.5,1.9l-1,0.3l-0.5-1.9
		c-0.1-0.5-0.4-0.6-0.8-0.5c-0.4,0.1-0.5,0.4-0.4,0.9l0.5,1.9l-1,0.3L354.7,76.9z"/>
	<path class="st1" d="M361.4,77.5l-0.6-2.2l1-0.3l0.5,1.9c0.1,0.5,0.4,0.6,0.8,0.5c0.4-0.1,0.5-0.4,0.4-0.9l-0.5-1.9l1-0.3l0.9,3.4
		l-1,0.3l-0.1-0.5c-0.1,0.3-0.4,0.7-0.9,0.8C362.2,78.7,361.6,78.3,361.4,77.5z"/>
	<path class="st1" d="M364.6,72.9l1-0.3l1.2,4.7l-1,0.3L364.6,72.9z"/>
	<path class="st1" d="M367.5,76.7l0.2-0.7c0.4,0.2,0.9,0.2,1.2,0.1c0.3-0.1,0.4-0.2,0.3-0.4c-0.1-0.2-0.4-0.2-0.8-0.2
		c-0.5,0-1.1-0.1-1.3-0.8c-0.2-0.7,0.3-1.2,1-1.4c0.4-0.1,0.9-0.1,1.4,0.1l-0.2,0.8c-0.4-0.1-0.8-0.1-1-0.1
		c-0.2,0.1-0.3,0.2-0.3,0.3c0.1,0.2,0.4,0.2,0.8,0.2c0.5,0,1.1,0.1,1.3,0.8c0.2,0.8-0.3,1.3-1,1.5C368.6,76.9,368,76.9,367.5,76.7z"
		/>
	<path class="st1" d="M370,71.5l1-0.3l0.2,0.9l-1,0.3L370,71.5z M370.3,72.7l1-0.3l0.9,3.4l-1,0.3L370.3,72.7z"/>
	<path class="st1" d="M372.6,74c-0.3-1,0.3-2,1.4-2.3c1.1-0.3,2.1,0.3,2.3,1.3c0.3,1-0.3,2-1.4,2.3C373.8,75.6,372.8,75,372.6,74z
		 M375.3,73.2c-0.1-0.5-0.6-0.8-1.2-0.7c-0.6,0.1-0.8,0.7-0.6,1.2c0.1,0.5,0.6,0.8,1.2,0.7C375.2,74.3,375.4,73.8,375.3,73.2z"/>
	<path class="st1" d="M376.6,71.1l1-0.3l0.1,0.5c0.1-0.3,0.4-0.7,0.9-0.8c0.7-0.2,1.3,0.2,1.5,1l0.6,2.2l-1,0.3l-0.5-1.9
		c-0.1-0.5-0.4-0.6-0.8-0.5c-0.4,0.1-0.5,0.4-0.4,0.9l0.5,1.9l-1,0.3L376.6,71.1z"/>
	<path class="st1" d="M381,71.7c-0.3-1,0.2-2,1.2-2.2c1.1-0.3,1.9,0.4,2.2,1.4c0,0.1,0,0.2,0.1,0.3l-2.4,0.6c0.2,0.4,0.6,0.6,1,0.4
		c0.3-0.1,0.5-0.3,0.7-0.6l0.7,0.3c-0.2,0.5-0.6,0.8-1.2,1C382.2,73.3,381.3,72.8,381,71.7z M383.3,70.8c-0.2-0.4-0.5-0.6-0.9-0.5
		c-0.4,0.1-0.6,0.5-0.5,0.9L383.3,70.8z"/>
	<path class="st1" d="M385.2,71.9l0.2-0.7c0.4,0.2,0.9,0.2,1.2,0.1c0.3-0.1,0.4-0.2,0.3-0.4c-0.1-0.2-0.4-0.2-0.8-0.2
		c-0.5,0-1.1-0.1-1.3-0.8c-0.2-0.7,0.3-1.2,1-1.4c0.4-0.1,0.9-0.1,1.4,0.1l-0.2,0.8c-0.4-0.1-0.8-0.1-1-0.1
		c-0.2,0.1-0.3,0.2-0.3,0.3c0.1,0.2,0.4,0.2,0.8,0.2c0.5,0,1.1,0.1,1.3,0.8c0.2,0.8-0.3,1.3-1,1.5C386.4,72.2,385.8,72.2,385.2,71.9
		z"/>
</g>
<circle class="st15" cx="42.9" cy="341.2" r="20.9"/>
<circle class="st15" cx="87" cy="352.7" r="20.9"/>
<circle class="st15" cx="130.4" cy="364.4" r="20.9"/>
<circle class="st15" cx="173.5" cy="375.9" r="20.9"/>
<g>
	<path class="st0" d="M31,341.1l0.9-0.2l3.1,4l-1,0.3l-0.7-0.9l-1.9,0.5l-0.1,1.1l-1,0.3L31,341.1z M32.8,343.4l-1-1.3l-0.2,1.6
		L32.8,343.4z"/>
	<path class="st0" d="M35.1,343c-0.3-1,0.3-2,1.3-2.3c0.6-0.2,1.1,0,1.5,0.2l-0.4,0.7c-0.3-0.1-0.5-0.2-0.9-0.1
		c-0.5,0.1-0.7,0.6-0.6,1.2c0.1,0.5,0.6,0.9,1.1,0.7c0.3-0.1,0.5-0.3,0.7-0.6l0.7,0.4c-0.2,0.5-0.5,0.8-1.2,1
		C36.4,344.6,35.4,344,35.1,343z"/>
	<path class="st0" d="M38.9,342c-0.3-1,0.2-2,1.2-2.2c1.1-0.3,1.9,0.4,2.2,1.4c0,0.1,0,0.2,0.1,0.3L40,342c0.2,0.4,0.6,0.6,1,0.4
		c0.3-0.1,0.5-0.3,0.7-0.6l0.7,0.3c-0.2,0.5-0.6,0.8-1.2,1C40.2,343.5,39.2,343,38.9,342z M41.3,341c-0.2-0.4-0.5-0.6-0.9-0.5
		c-0.4,0.1-0.6,0.5-0.5,0.9L41.3,341z"/>
	<path class="st0" d="M42.4,337.9l1-0.3l0.2,0.9l-1,0.3L42.4,337.9z M42.8,339.1l1-0.3l0.9,3.4l-1,0.3L42.8,339.1z"/>
	<path class="st0" d="M45.7,340.9l-0.4-1.6l-0.4,0.1l-0.2-0.8l0.4-0.1l-0.2-0.9l1-0.3l0.2,0.9l0.8-0.2l0.2,0.8l-0.8,0.2l0.4,1.5
		c0.1,0.2,0.2,0.3,0.4,0.2c0.2,0,0.3-0.1,0.4-0.2l0.2,0.8c-0.2,0.2-0.4,0.3-0.7,0.4C46.4,341.9,45.9,341.7,45.7,340.9z"/>
	<path class="st0" d="M48.1,339.5c-0.3-1,0.2-2,1.2-2.2c1.1-0.3,1.9,0.4,2.2,1.4c0,0.1,0,0.2,0.1,0.3l-2.4,0.6
		c0.2,0.4,0.6,0.6,1,0.4c0.3-0.1,0.5-0.3,0.7-0.6l0.7,0.3c-0.2,0.5-0.6,0.8-1.2,1C49.3,341.1,48.3,340.6,48.1,339.5z M50.4,338.6
		c-0.2-0.4-0.5-0.6-0.9-0.5c-0.4,0.1-0.6,0.5-0.5,0.9L50.4,338.6z"/>
	<path class="st0" d="M52.4,339.7l0.2-0.8c0.4,0.2,0.9,0.2,1.2,0.1c0.3-0.1,0.4-0.2,0.3-0.4c-0.1-0.2-0.4-0.2-0.8-0.2
		c-0.5,0-1.1-0.1-1.3-0.8c-0.2-0.7,0.3-1.2,1-1.4c0.4-0.1,0.9-0.1,1.4,0.1l-0.2,0.8c-0.4-0.1-0.8-0.1-1-0.1
		c-0.2,0.1-0.3,0.2-0.3,0.3c0.1,0.2,0.4,0.2,0.8,0.2c0.5,0,1.1,0.1,1.3,0.8c0.2,0.8-0.3,1.3-1,1.5C53.5,340,52.9,339.9,52.4,339.7z"
		/>
</g>
<g>
	<path class="st0" d="M75.9,355.2c-0.3-1.3,0.4-2.6,1.7-2.9c0.8-0.2,1.3-0.1,1.9,0.1l-0.4,0.9c-0.4-0.2-0.8-0.3-1.3-0.1
		c-0.7,0.2-1.1,1-0.9,1.7c0.2,0.8,0.9,1.3,1.7,1.1c0.4-0.1,0.7-0.3,0.9-0.5l-0.2-0.6l-1,0.3l-0.2-0.8l1.9-0.5l0.5,1.9
		c-0.4,0.5-0.9,1-1.7,1.2C77.5,357.2,76.3,356.5,75.9,355.2z"/>
	<path class="st0" d="M81,352.5l1-0.3l0.2,0.7c0.1-0.5,0.3-0.9,0.9-1l0.3,1l-0.1,0c-0.6,0.2-0.9,0.7-0.7,1.5l0.3,1.3l-1,0.3
		L81,352.5z"/>
	<path class="st0" d="M84.3,354.2c-0.2-0.7,0.3-1.2,1.1-1.5c0.3-0.1,0.6-0.1,0.9-0.1l0-0.1c-0.1-0.4-0.4-0.6-0.9-0.4
		c-0.4,0.1-0.6,0.2-0.9,0.4L84,352c0.3-0.3,0.7-0.5,1.3-0.6c0.5-0.1,1-0.1,1.3,0.1c0.3,0.2,0.5,0.5,0.7,1l0.5,2l-0.9,0.3l-0.1-0.4
		c-0.2,0.3-0.4,0.6-0.9,0.7C85.1,355.2,84.4,354.9,84.3,354.2z M86.4,353.4l0-0.2c-0.2,0-0.4,0-0.7,0c-0.4,0.1-0.6,0.3-0.5,0.7
		c0.1,0.3,0.3,0.4,0.6,0.3C86.3,354.1,86.5,353.8,86.4,353.4z"/>
	<path class="st0" d="M88.4,353.7l0.2-0.7c0.4,0.2,0.9,0.2,1.2,0.1c0.3-0.1,0.4-0.2,0.3-0.4c-0.1-0.2-0.4-0.2-0.8-0.2
		c-0.5,0-1.1-0.1-1.3-0.8c-0.2-0.7,0.3-1.2,1-1.4c0.4-0.1,0.9-0.1,1.4,0.1l-0.2,0.8c-0.4-0.1-0.8-0.1-1-0.1
		c-0.2,0.1-0.3,0.2-0.3,0.3c0.1,0.2,0.4,0.2,0.8,0.2c0.5,0,1.1,0.1,1.3,0.8c0.2,0.8-0.3,1.3-1,1.5C89.5,354,88.9,354,88.4,353.7z"/>
	<path class="st0" d="M91.7,352.2c-0.2-0.7,0.3-1.2,1.1-1.5c0.3-0.1,0.6-0.1,0.9-0.1l0-0.1c-0.1-0.4-0.4-0.6-0.9-0.4
		c-0.4,0.1-0.6,0.2-0.9,0.4l-0.4-0.7c0.3-0.3,0.7-0.5,1.3-0.6c0.5-0.1,1-0.1,1.3,0.1c0.3,0.2,0.5,0.5,0.7,1l0.5,2l-0.9,0.3l-0.1-0.4
		c-0.2,0.3-0.4,0.6-0.9,0.7C92.5,353.2,91.9,352.9,91.7,352.2z M93.9,351.4l0-0.2c-0.2,0-0.4,0-0.7,0c-0.4,0.1-0.6,0.3-0.5,0.7
		c0.1,0.3,0.3,0.4,0.6,0.3C93.7,352.1,94,351.8,93.9,351.4z"/>
	<path class="st0" d="M95.8,351.7l0.2-0.7c0.4,0.2,0.9,0.2,1.2,0.1c0.3-0.1,0.4-0.2,0.3-0.4c-0.1-0.2-0.4-0.2-0.8-0.2
		c-0.5,0-1.1-0.1-1.3-0.8c-0.2-0.7,0.3-1.2,1-1.4c0.4-0.1,0.9-0.1,1.4,0.1l-0.2,0.8c-0.4-0.1-0.8-0.1-1-0.1
		c-0.2,0.1-0.3,0.2-0.3,0.3c0.1,0.2,0.4,0.2,0.8,0.2c0.5,0,1.1,0.1,1.3,0.8c0.2,0.8-0.3,1.3-1,1.5C96.9,352,96.4,352,95.8,351.7z"/>
</g>
<g>
	<path class="st0" d="M120.5,366.4c-0.3-1.3,0.3-2.6,1.7-2.9c0.8-0.2,1.4,0,1.9,0.3l-0.4,0.8c-0.4-0.2-0.8-0.3-1.3-0.2
		c-0.8,0.2-1.1,1-0.9,1.8c0.2,0.8,0.9,1.3,1.7,1.1c0.5-0.1,0.8-0.4,1-0.8l0.8,0.5c-0.3,0.6-0.8,1-1.6,1.2
		C122.1,368.5,120.9,367.7,120.5,366.4z"/>
	<path class="st0" d="M125.5,365.7c-0.3-1,0.2-2,1.2-2.2c1.1-0.3,1.9,0.4,2.2,1.4c0,0.1,0,0.2,0.1,0.3l-2.4,0.6
		c0.2,0.4,0.6,0.6,1,0.4c0.3-0.1,0.5-0.3,0.7-0.6l0.7,0.3c-0.2,0.5-0.6,0.8-1.2,1C126.7,367.3,125.8,366.7,125.5,365.7z
		 M127.8,364.8c-0.2-0.4-0.5-0.6-0.9-0.5c-0.4,0.1-0.6,0.5-0.5,0.9L127.8,364.8z"/>
	<path class="st0" d="M129.3,362.8l1-0.3l0.2,0.7c0.1-0.5,0.3-0.9,0.9-1l0.3,1l-0.1,0c-0.6,0.2-0.9,0.7-0.7,1.5l0.3,1.3l-1,0.3
		L129.3,362.8z"/>
	<path class="st0" d="M132.6,364.5c-0.2-0.7,0.3-1.2,1.1-1.5c0.3-0.1,0.6-0.1,0.9-0.1l0-0.1c-0.1-0.4-0.4-0.6-0.9-0.4
		c-0.4,0.1-0.6,0.2-0.9,0.4l-0.4-0.7c0.3-0.3,0.7-0.5,1.3-0.6c0.5-0.1,1-0.1,1.3,0.1c0.3,0.2,0.5,0.5,0.7,1l0.5,2l-0.9,0.2l-0.1-0.4
		c-0.2,0.3-0.4,0.6-0.9,0.7C133.4,365.5,132.8,365.2,132.6,364.5z M134.8,363.7l0-0.2c-0.2,0-0.4,0-0.7,0c-0.4,0.1-0.6,0.3-0.5,0.7
		c0.1,0.3,0.3,0.4,0.6,0.3C134.6,364.4,134.9,364.1,134.8,363.7z"/>
	<path class="st0" d="M136.7,364l0.2-0.8c0.4,0.2,0.9,0.2,1.2,0.1c0.3-0.1,0.4-0.2,0.3-0.4c-0.1-0.2-0.4-0.2-0.8-0.2
		c-0.5,0-1.1-0.1-1.3-0.8c-0.2-0.7,0.3-1.2,1-1.4c0.4-0.1,0.9-0.1,1.4,0.1l-0.2,0.8c-0.4-0.1-0.8-0.1-1-0.1
		c-0.2,0.1-0.3,0.2-0.3,0.3c0.1,0.2,0.4,0.2,0.8,0.2c0.5,0,1.1,0.1,1.3,0.7c0.2,0.8-0.3,1.3-1,1.5
		C137.8,364.3,137.2,364.3,136.7,364z"/>
</g>
<g>
	<path class="st0" d="M158.4,377.5l1.8-0.5c1.1-0.3,1.9,0.2,2.1,1.1c0.3,1-0.4,1.8-1.4,2.1l-0.7,0.2l0.4,1.3l-1,0.3L158.4,377.5z
		 M160.7,379.3c0.5-0.1,0.7-0.5,0.6-0.9c-0.1-0.4-0.5-0.6-1-0.5l-0.8,0.2l0.4,1.4L160.7,379.3z"/>
	<path class="st0" d="M163.2,379.2c-0.3-1,0.2-2,1.2-2.2c1.1-0.3,1.9,0.4,2.2,1.4c0,0.1,0,0.2,0.1,0.3l-2.4,0.6
		c0.2,0.4,0.6,0.6,1,0.4c0.3-0.1,0.5-0.3,0.7-0.6l0.7,0.3c-0.2,0.5-0.6,0.8-1.2,1C164.4,380.8,163.5,380.2,163.2,379.2z
		 M165.5,378.3c-0.2-0.4-0.5-0.6-0.9-0.5c-0.4,0.1-0.6,0.5-0.5,0.9L165.5,378.3z"/>
	<path class="st0" d="M167.7,378.8l-0.4-1.6l-0.4,0.1l-0.2-0.8l0.4-0.1l-0.2-0.9l1-0.3l0.2,0.9l0.8-0.2l0.2,0.8l-0.8,0.2l0.4,1.5
		c0.1,0.2,0.2,0.3,0.4,0.2c0.2,0,0.3-0.1,0.4-0.2l0.2,0.8c-0.2,0.2-0.4,0.3-0.7,0.4C168.4,379.7,167.9,379.5,167.7,378.8z"/>
	<path class="st0" d="M169.7,375.6l1-0.3l0.2,0.7c0.1-0.5,0.3-0.9,0.9-1l0.3,1l-0.1,0c-0.6,0.2-0.9,0.7-0.7,1.5l0.3,1.3l-1,0.3
		L169.7,375.6z"/>
	<path class="st0" d="M172.7,376.6c-0.3-1,0.3-2,1.4-2.3c1.1-0.3,2.1,0.3,2.3,1.3c0.3,1-0.3,2-1.4,2.3
		C174,378.2,173,377.6,172.7,376.6z M175.5,375.9c-0.1-0.5-0.6-0.8-1.2-0.7c-0.6,0.1-0.8,0.7-0.6,1.2c0.1,0.5,0.6,0.8,1.2,0.7
		C175.4,376.9,175.6,376.4,175.5,375.9z M174.1,372.8l0.9,0.1l-0.6,1l-0.7,0.2L174.1,372.8z"/>
	<path class="st0" d="M176.5,372.5l1-0.3l1.2,4.7l-1,0.3L176.5,372.5z"/>
	<path class="st0" d="M179.1,374.9c-0.3-1,0.2-2,1.2-2.2c1.1-0.3,1.9,0.4,2.2,1.4c0,0.1,0,0.2,0.1,0.3l-2.4,0.6
		c0.2,0.4,0.6,0.6,1,0.4c0.3-0.1,0.5-0.3,0.7-0.6l0.7,0.3c-0.2,0.5-0.6,0.8-1.2,1C180.3,376.5,179.4,376,179.1,374.9z M181.4,374
		c-0.2-0.4-0.5-0.6-0.9-0.5c-0.4,0.1-0.6,0.5-0.5,0.9L181.4,374z"/>
	<path class="st0" d="M183.1,373.9c-0.3-1,0.3-2,1.4-2.3c1.1-0.3,2.1,0.3,2.3,1.3c0.3,1-0.3,2-1.4,2.3
		C184.3,375.4,183.3,374.9,183.1,373.9z M185.8,373.1c-0.1-0.5-0.6-0.8-1.2-0.7c-0.6,0.1-0.8,0.7-0.6,1.2c0.1,0.5,0.6,0.8,1.2,0.7
		C185.7,374.2,185.9,373.6,185.8,373.1z"/>
	<path class="st0" d="M187.6,374l0.2-0.7c0.4,0.2,0.9,0.2,1.2,0.1c0.3-0.1,0.4-0.2,0.3-0.4c-0.1-0.2-0.4-0.2-0.8-0.2
		c-0.5,0-1.1-0.1-1.3-0.8c-0.2-0.7,0.3-1.2,1-1.4c0.4-0.1,0.9-0.1,1.4,0.1l-0.2,0.8c-0.4-0.1-0.8-0.1-1-0.1
		c-0.2,0.1-0.3,0.2-0.3,0.3c0.1,0.2,0.4,0.2,0.8,0.2c0.5,0,1.1,0.1,1.3,0.8c0.2,0.8-0.3,1.3-1,1.5
		C188.7,374.2,188.1,374.2,187.6,374z"/>
</g>
</svg>
