<?xml version="1.0" standalone="no"?>
<!DOCTYPE svg PUBLIC "-//W3C//DTD SVG 1.1//EN" "http://www.w3.org/Graphics/SVG/1.1/DTD/svg11.dtd" >
<svg xmlns="http://www.w3.org/2000/svg" xmlns:xlink="http://www.w3.org/1999/xlink" version="1.1">
<metadata></metadata>
<defs>
<font id="itc_grouchregular" horiz-adv-x="1024" >
<font-face units-per-em="2048" ascent="1638" descent="-410" />
<missing-glyph horiz-adv-x="735" />
<glyph horiz-adv-x="0" />
<glyph horiz-adv-x="682" />
<glyph unicode=" "  horiz-adv-x="735" />
<glyph unicode="&#x09;" horiz-adv-x="735" />
<glyph unicode="&#xa0;" horiz-adv-x="735" />
<glyph unicode="!" horiz-adv-x="843" d="M197 1143q0 146 62 229.5t163 83.5t163 -83.5t62 -229.5q0 -71 -16.5 -142t-34.5 -113.5t-51 -110t-45 -95.5q-47 -105 -47 -225h-62q0 120 -47 225q-12 28 -45 95.5t-51 110t-34.5 113.5t-16.5 142zM221 158q0 84 58.5 142t142.5 58q83 0 142 -58.5t59 -141.5 q0 -85 -58 -143t-143 -58t-143 58t-58 143z" />
<glyph unicode="&#x22;" horiz-adv-x="716" d="M74 1346q0 55 29.5 86.5t80.5 31.5t82 -31t31 -85q0 -15 -4 -39l-86 -463h-43l-86 463q-4 24 -4 37zM420 1346q0 55 29.5 86.5t80.5 31.5t81 -31t30 -85q0 -27 -2 -39l-86 -463h-45l-84 463q-4 24 -4 37z" />
<glyph unicode="#" horiz-adv-x="1574" d="M23 381l86 229h272l82 234h-285l86 229h281l139 393h248l-139 -393h241l140 393h247l-139 -393h270l-86 -229h-266l-82 -234h277l-84 -229h-275l-141 -393h-248l141 393h-241l-141 -393h-248l141 393h-276zM621 610h253l84 234h-253z" />
<glyph unicode="$" horiz-adv-x="1218" d="M92 993q0 185 124.5 307t352.5 152v152h84v-150q178 -16 371 -72v-432h-61q-33 198 -113 307t-197 121v-436q265 -96 379.5 -205t114.5 -288q0 -198 -131.5 -329t-362.5 -157v-209h-84v207q-250 6 -463 94v527h58q37 -477 405 -533v436q-250 101 -363.5 218t-113.5 290z M416 1188q0 -144 153 -205v389q-74 -14 -113.5 -61.5t-39.5 -122.5zM655 47q69 12 106.5 57.5t37.5 116.5q0 139 -144 213v-387z" />
<glyph unicode="%" horiz-adv-x="1705" d="M53 1044q0 165 109 267t287 102t285.5 -102t107.5 -267q0 -164 -108 -265t-285 -101q-178 0 -287 101t-109 265zM340 -43l928 1499h96l-926 -1499h-98zM340 1044q0 -90 3.5 -141.5t14.5 -95t33 -61t58 -17.5q24 0 41.5 8t29.5 27t19 42t10.5 62.5t4.5 77.5t1 98t-1 98 t-4.5 78t-10.5 62.5t-19 42t-29.5 27.5t-41.5 8q-30 0 -50 -13t-31.5 -35t-18 -65t-8 -86.5t-1.5 -116.5zM864 365q0 165 107.5 266.5t285.5 101.5t286 -101.5t108 -266.5q0 -164 -108.5 -265.5t-285.5 -101.5q-178 0 -285.5 101t-107.5 266zM1149 367q0 -72 2 -116.5t8 -87 t17.5 -64.5t31.5 -35t49 -13q36 0 58 18t33 61.5t14.5 95.5t3.5 141t-3.5 140.5t-14.5 95t-33 61.5t-58 18q-30 0 -50 -13t-31.5 -34.5t-17.5 -64.5t-7.5 -86.5t-1.5 -116.5z" />
<glyph unicode="&#x26;" horiz-adv-x="1691" d="M84 403q0 322 410 431q-168 137 -168 307q0 142 104.5 229.5t280.5 87.5q136 0 219.5 -72.5t83.5 -181.5q0 -139 -119 -217q27 -24 55 -61.5t41.5 -59.5t44.5 -78l154 -270q41 109 41 199q0 95 -47 143.5t-152 63.5v57h518v-57q-57 -1 -96 -27.5t-70 -83.5 q-23 -42 -65 -173t-84 -212q67 -114 117.5 -164.5t107.5 -50.5q61 0 95 45.5t34 132.5v21l64 -25v-4q0 -194 -109 -308t-293 -114q-192 0 -315 129q-164 -135 -361 -135q-218 0 -354.5 128.5t-136.5 319.5zM403 588q0 -127 101 -273q125 -186 264 -186q48 0 106 27 q-187 290 -335 606q-72 -20 -104 -61t-32 -113zM606 1237q0 -68 55 -123t160 -92q74 83 74 184q0 77 -41 120.5t-113 43.5q-58 0 -96.5 -38t-38.5 -95z" />
<glyph unicode="'" horiz-adv-x="370" d="M74 1346q0 54 30.5 86t81.5 32t81 -31t30 -85q0 -15 -4 -39l-86 -463h-43l-86 463q-4 24 -4 37z" />
<glyph unicode="(" horiz-adv-x="901" d="M176 647q0 411 187.5 637t521.5 229v-81q-38 -1 -69 -9t-55.5 -25t-44 -37.5t-34.5 -55t-25 -68t-17.5 -86t-11.5 -100t-6.5 -119t-3 -133.5t-0.5 -152t0.5 -152t3 -133.5t6.5 -119t11.5 -100t17.5 -86t25 -68t34.5 -54.5t44 -37t55.5 -25t69 -9v-82q-334 3 -521.5 229 t-187.5 637z" />
<glyph unicode=")" horiz-adv-x="901" d="M16 -137q38 1 69 9t55.5 25t44 37t34.5 54.5t25 68t17.5 86t11.5 100t6.5 119t3 133.5t0.5 152t-0.5 152t-3 133.5t-6.5 119t-11.5 100t-17.5 86t-25 68t-34.5 55t-44 37.5t-55.5 25t-69 9v81q333 -3 522 -229.5t189 -636.5t-189 -636.5t-522 -229.5v82z" />
<glyph unicode="*" d="M115 864q0 46 31 73.5t90 31.5q60 4 86 6.5t70 13.5t79 29q-83 51 -252 51q-41 0 -72.5 30.5t-31.5 74.5q0 51 33.5 86.5t82.5 35.5q28 0 50 -12.5t33.5 -27t36.5 -51.5q6 -8 9 -13q19 -29 31 -45.5t40 -43.5t61 -48q-3 63 -27 122.5t-46 103.5t-22 71q0 46 31 75t84 29 q50 0 82.5 -31t32.5 -75q0 -24 -21.5 -65.5t-46 -102.5t-29.5 -127q71 38 136 137q25 39 38.5 56.5t38 33.5t54.5 16q44 0 78 -36t34 -82q0 -59 -36.5 -83.5t-116.5 -29.5q-135 -10 -203 -47q37 -21 84 -32.5t74.5 -13.5t89.5 -5q50 -3 79 -31t29 -74q0 -53 -33 -90t-77 -37 q-15 0 -27 2t-23 9t-18 11.5t-17.5 17.5t-15 19.5t-17 25t-17.5 26.5q-77 109 -129 135q3 -62 26.5 -121t45.5 -103t22 -71q0 -45 -31.5 -74.5t-83.5 -29.5q-54 0 -84.5 27.5t-30.5 76.5q0 24 20.5 66.5t45 103t31.5 123.5q-73 -37 -136 -137q-41 -64 -59 -80 q-30 -25 -70 -25q-49 0 -82.5 36.5t-33.5 88.5z" />
<glyph unicode="+" horiz-adv-x="1705" d="M254 496v231h481v494h238v-494h479v-231h-479v-496h-238v496h-481z" />
<glyph unicode="," horiz-adv-x="735" d="M172 143q0 78 53.5 132.5t132.5 54.5q89 0 140 -60.5t51 -167.5q0 -130 -76.5 -225t-198.5 -115l-28 56q146 21 170 157q-29 -10 -64 -10q-79 0 -129.5 50t-50.5 128z" />
<glyph unicode="-" horiz-adv-x="729" d="M117 420v166h497v-166h-497z" />
<glyph unicode="." horiz-adv-x="735" d="M180 143q0 78 55 133.5t132 55.5q78 0 133 -55.5t55 -133.5t-55 -132t-133 -54t-132.5 54t-54.5 132z" />
<glyph unicode="/" horiz-adv-x="653" d="M-70 -190l652 1646h90l-649 -1646h-93z" />
<glyph unicode="0" horiz-adv-x="1470" d="M61 707q0 341 211 561q182 188 463 188q279 0 461 -188q211 -220 211 -561q0 -340 -211 -560q-184 -190 -461 -190q-279 0 -463 190q-211 220 -211 560zM530 707q0 -106 1.5 -181t6.5 -150.5t14.5 -125.5t24.5 -94.5t37 -69.5t52 -39t69 -14q40 0 70 14.5t51.5 39 t36.5 69.5t24 93.5t13.5 125.5t6 150.5t1.5 181.5q0 128 -2 210t-9 166t-20.5 133t-36 89.5t-56 57.5t-79.5 17t-79 -17t-56 -57t-36.5 -90t-21 -132.5t-10 -166.5t-2.5 -210z" />
<glyph unicode="1" horiz-adv-x="915" d="M63 1137q292 135 605 319v-1253q0 -77 28 -111.5t95 -34.5h12v-57h-656v57h13q67 0 95 34.5t28 111.5v696q0 35 -11 62t-40 54.5t-57.5 48t-86.5 57.5q-16 10 -25 16z" />
<glyph unicode="2" horiz-adv-x="1236" d="M8 0v39q272 217 414.5 435.5t142.5 397.5q0 141 -72.5 226.5t-187.5 85.5q-70 0 -127 -36.5t-112 -113.5l-52 21q86 196 227 298.5t326 102.5q199 0 328 -123t129 -307q0 -139 -89.5 -259t-279.5 -251l-227 -156h244q175 0 264.5 31.5t128.5 120.5l43 -14l-168 -498h-932 z" />
<glyph unicode="3" horiz-adv-x="1341" d="M20 307q0 70 46.5 117t115.5 47q75 0 121 -49q17 -18 28 -41t15 -38.5t10 -47.5t9 -43q28 -117 74.5 -170t138.5 -53q100 0 164.5 79t64.5 209q0 172 -99.5 273.5t-275.5 105.5v66h12q130 0 199.5 60t69.5 171q0 101 -63.5 165.5t-164.5 64.5q-139 0 -225 -117l-47 37 q90 151 228.5 231t306.5 80q201 0 324.5 -99t123.5 -249q0 -204 -229 -293q288 -113 288 -371q0 -213 -181 -349t-486 -136q-236 0 -387 94q-86 52 -133.5 120.5t-47.5 135.5z" />
<glyph unicode="4" horiz-adv-x="1294" d="M20 449l1002 997q10 10 14 10q19 0 19 -14l-5 -18q-6 -19 -11 -60.5t-5 -95.5v-811h205l-27 -121h-178v-131q0 -79 28 -113.5t95 -34.5h12v-57h-669v57h12q67 0 96 34.5t29 113.5v131h-576zM190 496l13 -39h434v483z" />
<glyph unicode="5" horiz-adv-x="1214" d="M16 287q0 69 48 116.5t120 47.5q74 0 113.5 -43.5t62.5 -139.5q2 -10 9 -43.5t11 -48t15 -38.5t27 -42q53 -59 147 -59q97 0 156 55t59 146q0 315 -624 315h-37l90 860h512q128 0 192.5 15.5t102.5 68.5l43 -12l-119 -418h-686l-10 -117q438 0 660 -126.5t222 -372.5 q0 -216 -169.5 -355t-446.5 -139q-225 0 -361.5 94t-136.5 236z" />
<glyph unicode="6" horiz-adv-x="1228" d="M63 575q0 199 101.5 373.5t299.5 307.5t470 200l22 -47q-158 -74 -275 -221t-177 -348q106 59 223 59q202 0 328.5 -123t126.5 -317q0 -216 -151.5 -359t-385.5 -143q-218 0 -373 137q-101 89 -155 212t-54 269zM442 436q0 -206 45 -304.5t144 -98.5q190 0 190 381 q0 190 -49 279t-160 89q-73 0 -145 -57q-25 -159 -25 -289z" />
<glyph unicode="7" horiz-adv-x="1132" d="M57 920q100 236 187 493h942q-266 -449 -419.5 -810t-193.5 -603h-395q46 162 185.5 368.5t394.5 518.5l145 176h-401q-140 0 -237 -39.5t-159 -124.5z" />
<glyph unicode="8" horiz-adv-x="1275" d="M51 369q0 107 56 191t159 130q-162 113 -162 311t153 326.5t400 128.5q212 0 339.5 -101t127.5 -259q0 -153 -112 -246q198 -131 198 -375q0 -230 -172 -374t-456 -144q-238 0 -384.5 118t-146.5 294zM233 403q0 -161 87.5 -260.5t222.5 -99.5q117 0 187.5 63t70.5 162 q0 47 -8.5 80.5t-31.5 61.5t-43.5 44.5t-64.5 47.5q-5 3 -43 19t-115 50.5t-161 75.5q-101 -96 -101 -244zM516 1190q0 -26 4.5 -48t16.5 -41t24.5 -33.5t37 -30t44.5 -26.5t56 -26.5t63.5 -26.5t76 -30t83.5 -33q59 91 59 207q0 121 -72 195.5t-188 74.5q-92 0 -148.5 -50 t-56.5 -132z" />
<glyph unicode="9" horiz-adv-x="1228" d="M43 954q0 216 152.5 359t386.5 143q217 0 372 -137q100 -88 153.5 -211t53.5 -270q0 -303 -230 -541.5t-638 -339.5l-25 47q159 74 277.5 220.5t177.5 346.5q-102 -57 -225 -57q-202 0 -328.5 123t-126.5 317zM403 999q0 -190 49 -279t160 -89q74 0 146 57q24 153 24 287 q0 207 -45 306t-143 99q-191 0 -191 -381z" />
<glyph unicode=":" horiz-adv-x="806" d="M217 143q0 78 54.5 133.5t131.5 55.5q78 0 132.5 -55.5t54.5 -133.5t-54.5 -132t-132.5 -54t-132 54t-54 132zM217 598q0 78 54.5 132t131.5 54q78 0 132.5 -54t54.5 -132t-54.5 -133t-132.5 -55t-132 55t-54 133z" />
<glyph unicode=";" horiz-adv-x="806" d="M215 143q0 78 53.5 132.5t132.5 54.5q89 0 140 -60.5t51 -167.5q0 -130 -76.5 -225t-198.5 -115l-26 56q146 21 170 157q-29 -10 -64 -10q-80 0 -131 50t-51 128zM217 598q0 78 54.5 132t131.5 54q78 0 132.5 -54t54.5 -132t-54.5 -133t-132.5 -55t-132 55t-54 133z" />
<glyph unicode="&#x3c;" horiz-adv-x="1705" d="M264 494v233l1178 487v-253l-854 -351l854 -348v-254z" />
<glyph unicode="=" horiz-adv-x="1705" d="M254 272v230h1198v-230h-1198zM254 719v231h1198v-231h-1198z" />
<glyph unicode="&#x3e;" horiz-adv-x="1705" d="M264 8v254l854 348l-854 351v253l1178 -487v-233z" />
<glyph unicode="?" horiz-adv-x="1318" d="M76 1061q0 169 154 282t413 113q267 0 418 -110t151 -297q0 -142 -106 -228q-34 -28 -81.5 -48.5t-84 -29.5t-101 -22.5t-98.5 -22.5q-97 -26 -138.5 -65t-41.5 -113q0 -9 8 -63h-77q-11 70 -11 131q0 146 82 237q31 34 101 99t88 96q45 71 45 149q0 93 -57 149t-152 56 q-106 0 -169 -57.5t-63 -155.5q0 -18 3 -45t3 -37q0 -86 -40.5 -135t-106.5 -49q-62 0 -100.5 45.5t-38.5 120.5zM362 158q0 84 58 142t143 58q83 0 142 -58.5t59 -141.5q0 -85 -58 -143t-143 -58t-143 58t-58 143z" />
<glyph unicode="@" horiz-adv-x="2019" d="M129 539q0 202 87.5 380.5t252.5 313.5q275 227 653 227q350 0 560 -190t210 -504q0 -336 -231 -541q-120 -108 -268 -108q-97 0 -156.5 52t-65.5 144q-122 -192 -278 -192t-241 90.5t-85 255.5q0 238 197 420q141 129 317 129q190 0 217 -176l48 157h208l-174 -624 q-14 -58 -14 -88q0 -45 19.5 -72t50.5 -27q28 0 82 26.5t104 70.5q97 88 148 212t51 273q0 244 -135 391q-98 109 -235 166t-300 57q-282 0 -498 -157q-166 -120 -255 -303t-89 -404q0 -336 205 -531.5t557 -195.5q167 0 319 51t312 156l41 -57q-306 -228 -672 -228 q-288 0 -502 103t-327 289.5t-113 433.5zM801 352q0 -72 33 -113.5t86 -41.5q119 0 223 241q46 106 69 204.5t23 160.5q0 67 -28 103t-79 36q-62 0 -111.5 -45t-96.5 -139q-119 -235 -119 -406z" />
<glyph unicode="A" horiz-adv-x="1388" d="M-92 0v57q92 6 143 57t94 169l316 868q-30 77 -99 125q207 41 457 242l428 -1239q42 -121 60 -151q36 -61 102 -69q12 -2 25 -2v-57h-787v57h17q131 0 131 99q0 29 -17 82l-80 235h-397l-65 -192q-19 -59 -19 -101q0 -117 137 -123v-57h-446zM330 551h344l-170 493z" />
<glyph unicode="B" horiz-adv-x="1507" d="M61 0v57q95 6 127.5 42.5t32.5 133.5v947q0 97 -32.5 133.5t-127.5 42.5v57h760q241 0 363.5 -79.5t122.5 -235.5q0 -100 -57 -166.5t-175 -104.5q180 -44 276.5 -154t96.5 -265q0 -92 -43.5 -176.5t-118.5 -141.5q-123 -90 -375 -90h-850zM672 332q0 -139 26.5 -193.5 t114.5 -54.5q96 0 148.5 86.5t52.5 249.5q0 175 -75 266.5t-218 91.5q-33 0 -49 -2v-444zM672 850h14q133 0 195.5 55.5t62.5 175.5q0 244 -225 244q-31 0 -47 -2v-473z" />
<glyph unicode="C" horiz-adv-x="1464" d="M68 690q0 170 65.5 315.5t188.5 251.5q233 201 552 201q262 0 469 -121v-415h-53q-41 215 -157.5 335.5t-274.5 120.5q-174 0 -248.5 -156t-74.5 -493q0 -366 71.5 -528t257.5 -162q110 0 205.5 59t164 174t93.5 269h45v-459q-271 -125 -516 -125q-196 0 -362 78 q-426 203 -426 655z" />
<glyph unicode="D" horiz-adv-x="1593" d="M41 0v57q95 6 127.5 42.5t32.5 133.5v947q0 97 -32.5 133.5t-127.5 42.5v57h649q186 0 314 -27t239 -108q138 -100 211.5 -248.5t73.5 -331.5q0 -325 -193 -511.5t-542 -186.5h-752zM653 342q0 -142 30 -201t124 -59q126 0 192 151.5t66 446.5q0 330 -87 489.5 t-269 159.5q-20 0 -56 -4v-983z" />
<glyph unicode="E" horiz-adv-x="1402" d="M61 0v57q95 6 127.5 42.5t32.5 133.5v947q0 97 -32.5 133.5t-127.5 42.5v57h897q152 0 205 53q51 -238 119 -374l-59 -23q-90 137 -199.5 196.5t-267.5 59.5h-84v-502q154 2 227.5 42.5t79.5 133.5h61v-450h-61q-9 107 -79 157t-210 50h-18v-426q0 -139 35 -193.5 t147 -54.5q138 0 264.5 92.5t200.5 255.5l57 -24l-143 -406h-1172z" />
<glyph unicode="F" horiz-adv-x="1200" d="M61 0v57q95 6 127.5 42.5t32.5 133.5v947q0 97 -32.5 133.5t-127.5 42.5v57h850q152 0 205 53q51 -238 119 -374l-59 -23q-90 137 -199.5 196.5t-267.5 59.5h-37v-502q121 0 180.5 41t69.5 135h61v-450h-61q-7 99 -68 149t-182 58v-523q0 -97 32 -133.5t127 -42.5v-57 h-770z" />
<glyph unicode="G" horiz-adv-x="1521" d="M70 696q0 165 66 312t190 252q233 198 561 198q251 0 489 -125v-399h-47q-71 218 -185.5 331t-258.5 113q-346 0 -346 -702q0 -321 76 -479t235 -158q117 0 117 115v153q0 104 -32.5 142t-123.5 38v58h657v-58q-53 -4 -66 -29.5t-13 -97.5v-38v-220q-316 -145 -558 -145 q-202 0 -364 84q-193 101 -295 269.5t-102 385.5z" />
<glyph unicode="H" horiz-adv-x="1683" d="M61 0v57q95 6 127.5 42.5t32.5 133.5v947q0 97 -32.5 133.5t-127.5 42.5v57h736v-57q-75 -13 -100 -51t-25 -125v-342h340v342q0 87 -25 125t-100 51v57h735v-57q-95 -6 -127.5 -42.5t-32.5 -133.5v-947q0 -97 32.5 -133.5t127.5 -42.5v-57h-733v57q76 13 101.5 51.5 t25.5 124.5v525h-344v-525q0 -86 24.5 -123.5t98.5 -52.5v-57h-734z" />
<glyph unicode="I" horiz-adv-x="901" d="M66 0v57q95 6 127 42.5t32 133.5v947q0 97 -32 133.5t-127 42.5v57h770v-57q-95 -6 -127.5 -42.5t-32.5 -133.5v-947q0 -97 32.5 -133.5t127.5 -42.5v-57h-770z" />
<glyph unicode="J" horiz-adv-x="1128" d="M-29 254q0 73 40.5 118.5t103.5 45.5q71 0 109 -50.5t38 -148.5q0 -11 -1 -26.5t-1 -20.5q0 -67 26 -102t74 -35q66 0 88.5 39t22.5 135v971q0 99 -35.5 136t-138.5 40v57h784v-57q-95 -6 -127 -42.5t-32 -133.5v-695q0 -117 -18 -196.5t-70 -143.5 q-72 -91 -187.5 -139.5t-261.5 -48.5q-185 0 -299.5 86.5t-114.5 210.5z" />
<glyph unicode="K" horiz-adv-x="1554" d="M61 0v57q95 6 127.5 42.5t32.5 133.5v947q0 97 -32.5 133.5t-127.5 42.5v57h736v-57q-75 -13 -100 -51t-25 -125v-340q334 304 334 426q0 40 -24 60.5t-79 29.5v57h533v-57q-100 -6 -180.5 -52.5t-165.5 -140.5l-113 -125q174 -152 278.5 -332.5t184.5 -424.5 q13 -41 19 -59t18 -48t19.5 -43t21 -31t26.5 -25t31.5 -12.5t40.5 -5.5h12v-57h-758v57q61 5 84 27t23 78q0 130 -78.5 286t-226.5 295v-510q0 -86 24.5 -123.5t98.5 -52.5v-57h-734z" />
<glyph unicode="L" horiz-adv-x="1308" d="M61 0v57q95 6 127.5 42.5t32.5 133.5v947q0 97 -32.5 133.5t-127.5 42.5v57h770v-57q-95 -6 -127 -42.5t-32 -133.5v-850q0 -130 29 -182t120 -52q121 0 247 98.5t208 274.5l57 -23l-153 -446h-1119z" />
<glyph unicode="M" horiz-adv-x="1808" d="M12 0v57q104 6 146 78t53 242l51 747q2 18 2 52q0 94 -31.5 136.5t-105.5 43.5v57h598l178 -641l189 641h600v-57q-88 -7 -119 -38t-31 -110q0 -71 4 -125l49 -766q3 -46 5.5 -72.5t8 -57t13.5 -47t21 -33.5t32.5 -25.5t45.5 -15t61 -9.5v-57h-785v57q87 11 119.5 38 t32.5 95q0 43 -4 113l-41 827l-356 -1165l-410 1143l-51 -735q0 -4 -3 -43.5t-3 -57.5q0 -112 37 -163t124 -52v-57h-430z" />
<glyph unicode="N" horiz-adv-x="1384" d="M-6 1356v57h635l510 -919v598q0 137 -35.5 195.5t-138.5 68.5v57h424v-57q-103 -10 -139 -69t-36 -195v-1092h-303l-630 1135v-816q0 -136 35.5 -194t138.5 -68v-57h-424v57q103 10 138.5 68t35.5 194v930q-85 98 -211 107z" />
<glyph unicode="O" horiz-adv-x="1650" d="M70 707q0 168 60 311t175 248q205 190 520 190q320 0 525 -190q115 -107 175 -250t60 -309t-59.5 -307.5t-173.5 -247.5q-208 -193 -527 -193q-314 0 -522 193q-114 104 -173.5 246.5t-59.5 308.5zM535 709q0 -225 12.5 -354.5t48.5 -194.5q72 -125 223 -125 q153 0 223 125q36 66 49 196t13 353q0 109 -2.5 184.5t-9.5 151t-20 124.5t-33.5 92.5t-51 67.5t-72 37.5t-96.5 13.5t-97 -13.5t-72 -37.5t-51 -68t-33.5 -92.5t-19.5 -125t-9 -151t-2 -183.5z" />
<glyph unicode="P" horiz-adv-x="1402" d="M66 0v57q95 6 127 42.5t32 133.5v947q0 97 -32 133.5t-127 42.5v57h716q139 0 234.5 -15.5t167.5 -58.5q95 -57 145.5 -148.5t50.5 -205.5q0 -186 -139.5 -299t-378.5 -113q-72 0 -186 19v-359q0 -97 32.5 -133.5t127.5 -42.5v-57h-770zM676 678q44 -12 69 -12 q94 0 151.5 85.5t57.5 237.5q0 167 -64 255.5t-185 88.5q-5 0 -14.5 -1t-14.5 -1v-653z" />
<glyph unicode="Q" horiz-adv-x="1650" d="M70 707q0 167 60 310.5t175 248.5q205 190 520 190q320 0 525 -190q115 -105 175 -248.5t60 -310.5q0 -279 -160.5 -478.5t-431.5 -253.5q38 -118 150 -118q77 0 119 44.5t43 129.5h79v-19q0 -151 -93.5 -239t-254.5 -88q-139 0 -234.5 77.5t-117.5 208.5 q-277 41 -445.5 244.5t-168.5 491.5zM532 795q0 -18 1.5 -57t1.5 -60q72 72 176 72q144 0 208 -102t64 -316q0 -108 -8 -269q81 20 105 177t24 528q0 113 -4.5 194t-16 153.5t-31.5 119t-51.5 81t-76.5 49.5t-105 15q-69 0 -118 -22.5t-82 -65.5t-52 -115.5t-27 -163.5 t-8 -218zM541 403q0 -119 35.5 -205t99.5 -126q9 80 56.5 222.5t47.5 207.5q0 62 -32.5 101.5t-79.5 39.5q-66 0 -96.5 -59t-30.5 -181z" />
<glyph unicode="R" horiz-adv-x="1587" d="M61 0v57q95 6 127.5 42.5t32.5 133.5v947q0 97 -32.5 133.5t-127.5 42.5v57h811q245 0 373.5 -86t128.5 -244q0 -99 -61 -167.5t-174 -96.5q28 -19 54 -42t46.5 -43.5t41.5 -50.5t35 -51t32 -57t27.5 -56t26 -62t23.5 -61t24 -66.5t24 -65.5q19 -51 30 -76.5t28 -55 t34 -42.5t42.5 -22.5t59.5 -10.5v-57h-739v57q55 7 76.5 34t21.5 83q0 60 -35 170t-104 248q-45 88 -92.5 129t-106.5 41h-16v-529q0 -86 24.5 -123.5t98.5 -52.5v-57h-734zM672 862h26q124 0 183 58.5t59 181.5q0 107 -61 166t-174 59q-5 0 -16.5 -1t-16.5 -1v-463z" />
<glyph unicode="S" horiz-adv-x="1247" d="M117 989q0 203 149.5 335t390.5 132q154 0 390 -74v-421h-56q-56 211 -142.5 314t-207.5 103q-93 0 -151 -54.5t-58 -139.5q0 -151 197 -230q48 -19 136.5 -51.5t133.5 -52.5t76 -41q112 -76 162.5 -162t50.5 -207q0 -221 -154 -352t-426 -131q-244 0 -485 90v520h65 q59 -259 174.5 -395.5t268.5 -136.5q98 0 155.5 56t57.5 153q0 55 -15 93t-64 72.5t-82 51.5t-125 57q-25 11 -38 17q-7 3 -46.5 20t-50 22t-43 20t-47.5 25t-39.5 26.5t-42.5 33.5t-36 37q-98 110 -98 270z" />
<glyph unicode="T" horiz-adv-x="1232" d="M10 1032l80 418q55 -37 180 -37h691q123 0 178 37l82 -418l-45 -16q-58 138 -140 212t-196 93v-1088q0 -97 32 -133.5t127 -42.5v-57h-770v57q96 6 129 43t33 133v1088q-116 -20 -198.5 -95t-137.5 -210z" />
<glyph unicode="U" horiz-adv-x="1497" d="M102 1356v57h740v-57q-92 -14 -120 -49t-34 -127l-45 -588q-10 -127 -10 -162q0 -146 77 -221.5t226 -75.5q324 0 324 332q0 29 -3 59l-47 582q-11 132 -49.5 187.5t-138.5 62.5v57h373v-57q-65 -21 -88 -53.5t-23 -98.5q0 -8 4 -86l43 -575q8 -110 8 -131 q0 -215 -147 -335t-416 -120q-291 0 -446.5 127.5t-155.5 364.5q0 63 4 98l55 606q3 24 3 47q0 76 -32 114t-102 42z" />
<glyph unicode="V" horiz-adv-x="1312" d="M-61 1356v57h780v-57q-109 -3 -109 -76q0 -21 21 -82l229 -598l230 571q18 49 18 91q0 91 -115 94v57h387v-57q-130 -6 -206 -193l-496 -1206l-578 1270q-54 120 -161 129z" />
<glyph unicode="W" horiz-adv-x="1857" d="M-96 1356v57h807v-57q-113 -3 -113 -88q0 -34 23 -92l215 -537l286 823l314 -823l194 518q17 49 17 103q0 87 -121 96v57h413v-57q-86 -9 -131 -54t-84 -147l-464 -1198l-302 786l-276 -786l-559 1196q-52 108 -99.5 155.5t-115.5 47.5h-4z" />
<glyph unicode="X" horiz-adv-x="1435" d="M-53 0v57q110 16 183.5 69t148.5 157l258 362l-306 531q-37 64 -64 97.5t-68.5 56t-100.5 26.5v57h772v-57q-42 -8 -59 -18t-17 -31q0 -22 25 -70l110 -193q123 163 123 236q0 37 -24 53.5t-84 22.5v57h432v-57q-89 -5 -137 -42t-107 -122l-155 -221l405 -699 q30 -54 46.5 -78.5t46 -57.5t66.5 -50.5t89 -28.5v-57h-850v57q59 7 90 31t31 59q0 46 -43 119l-174 295l-150 -215q-78 -112 -78 -184q0 -46 34.5 -73.5t98.5 -31.5v-57h-542z" />
<glyph unicode="Y" horiz-adv-x="1255" d="M-96 1356v57h835v-57q-125 0 -125 -82q0 -44 52 -135l149 -269l139 236q70 118 70 170q0 37 -23.5 55.5t-76.5 24.5v57h407v-57q-84 -7 -140 -55.5t-116 -151.5l-201 -340v-576q0 -97 32.5 -133.5t127.5 -42.5v-57h-770v57q95 6 127.5 42.5t32.5 133.5v474l-281 469 q-58 96 -108.5 138t-124.5 42h-6z" />
<glyph unicode="Z" horiz-adv-x="1294" d="M49 0l584 1323q-43 6 -84 6q-161 0 -265.5 -84.5t-166.5 -263.5h-58l52 485q36 -34 88 -43.5t145 -9.5h815l-581 -1323q16 -2 49 -2q196 0 332.5 125t205.5 369h58l-35 -582h-1139z" />
<glyph unicode="[" horiz-adv-x="901" d="M254 -188v1669h608v-84h-61q-102 0 -138 -37.5t-36 -136.5v-1151q0 -99 36 -137.5t138 -38.5h61v-84h-608z" />
<glyph unicode="\" horiz-adv-x="653" d="M-70 1456h93l649 -1646h-90z" />
<glyph unicode="]" horiz-adv-x="901" d="M39 -104h61q102 0 138 37.5t36 136.5v1151q0 99 -36 137.5t-138 38.5h-61v84h608v-1669h-608v84z" />
<glyph unicode="^" horiz-adv-x="2048" d="M412 897l481 565h260l479 -565h-121l-489 348l-490 -348h-120z" />
<glyph unicode="_" d="M0 -244h1024v-239h-1024v239z" />
<glyph unicode="`" d="M180 1417q0 46 32.5 77.5t78.5 31.5q38 0 74 -23t81 -71l279 -297h-115l-325 163q-55 27 -80 54.5t-25 64.5z" />
<glyph unicode="a" horiz-adv-x="1204" d="M66 205q0 50 15.5 93t50.5 82t80 72.5t117 69.5t147 68t183 74v71q0 109 -28 159t-94 50q-53 0 -88 -32t-35 -78q0 -24 2 -58t2 -43q0 -74 -41.5 -118t-106.5 -44q-61 0 -98 38.5t-37 101.5q0 133 126.5 224t334.5 91q235 0 358 -113q55 -52 71.5 -116t16.5 -170v-285 q0 -114 17.5 -166.5t60.5 -52.5q18 0 37 16v-65q-40 -51 -103.5 -79t-140.5 -28q-178 0 -235 162q-150 -172 -336 -172q-123 0 -199.5 70t-76.5 178zM475 287q0 -65 25.5 -102.5t66.5 -37.5q22 0 38 6t26 22.5t15.5 33t8.5 50.5t3.5 61t0.5 79v191q-184 -73 -184 -303z" />
<glyph unicode="b" horiz-adv-x="1282" d="M-35 1229q129 39 545 203v-533q96 125 274 125q185 0 307.5 -150t122.5 -387q0 -244 -142 -388t-374 -144q-260 0 -376 223l-91 -137q-11 -16 -17 -23t-16.5 -12.5t-25.5 -5.5h-68q27 52 27 129v895q0 46 -10 67t-47 50zM512 453q0 -81 1.5 -133t6.5 -105t14.5 -84 t25 -57t38.5 -36.5t55 -10.5t54.5 10.5t38 36.5t25 57t14.5 84t6.5 105.5t1.5 132.5t-1.5 132.5t-6.5 105.5t-14.5 84t-25 57t-38 36.5t-54.5 10.5t-55 -10.5t-38.5 -36.5t-25 -57t-14.5 -84t-6.5 -105t-1.5 -133z" />
<glyph unicode="c" horiz-adv-x="1058" d="M57 479q0 120 47.5 228t135.5 186q152 133 352 133q172 0 282.5 -86t110.5 -213q0 -71 -47.5 -119.5t-118.5 -48.5q-64 0 -105.5 45.5t-41.5 110.5q0 52 -2 84.5t-8.5 64.5t-19.5 48.5t-35 27t-54 10.5q-75 0 -114.5 -65.5t-39.5 -192.5q0 -233 118.5 -375.5 t295.5 -142.5q112 0 195 86v-94q-178 -209 -439 -209q-226 0 -369 144t-143 378z" />
<glyph unicode="d" horiz-adv-x="1294" d="M68 451q0 265 119 419t311 154q178 0 274 -125v125q0 46 -10 67t-47 50l-109 88q152 45 545 203v-1229q0 -77 28 -111.5t95 -34.5h6v-57h-514l-4 113q-105 -156 -297 -156q-180 0 -288.5 132t-108.5 362zM489 500q0 -71 1.5 -118.5t7 -94t15 -74.5t25 -50.5t38 -32 t53.5 -9.5q32 0 54.5 9.5t38.5 32t25.5 50t14.5 74.5t6.5 94t1.5 119q0 62 -1 103.5t-4.5 85t-9.5 70.5t-16.5 52t-25.5 38.5t-35.5 21.5t-48.5 8q-32 0 -54.5 -9.5t-38 -32t-25 -50t-14.5 -74.5t-6.5 -94t-1.5 -119z" />
<glyph unicode="e" horiz-adv-x="1062" d="M55 475q0 201 117 356q63 87 171.5 141t221.5 54q193 0 310.5 -118.5t117.5 -319.5h-579q6 -181 117 -297.5t264 -116.5q117 0 194 86v-94q-175 -209 -430 -209q-114 0 -213.5 46t-171.5 132q-119 140 -119 340zM412 659h92q37 0 56.5 0.5t45 2.5t37 6.5t26 12.5t20 20 t9.5 29.5t4 41.5q0 178 -129 178q-85 0 -123 -70.5t-38 -220.5z" />
<glyph unicode="f" horiz-adv-x="743" d="M37 0v57h6q67 0 95 34.5t28 111.5v702h-98v56q31 25 58.5 62t62 94t57.5 89q75 107 179 166.5t216 59.5q122 0 198 -58.5t76 -148.5q0 -60 -38 -96.5t-101 -36.5q-56 0 -87 26t-64 86q-32 57 -57.5 81t-67.5 24q-41 0 -65.5 -24.5t-24.5 -65.5q0 -28 16.5 -57t37.5 -51.5 t45 -57.5t36 -72h188v-76h-182v-702q0 -79 28.5 -112.5t98.5 -33.5h14v-57h-655z" />
<glyph unicode="g" horiz-adv-x="1150" d="M49 135q0 197 205 271q-70 45 -106.5 112t-36.5 146q0 158 135 261t360 103q54 0 115 -12q33 87 100.5 135.5t151.5 48.5q62 0 102.5 -36.5t40.5 -90.5q0 -47 -31 -78.5t-77 -31.5q-40 0 -98 33.5t-81 33.5q-31 0 -45 -26q135 -46 206 -131t71 -201q0 -155 -135 -254 t-359 -99q-120 0 -239 43q-49 -9 -76 -34t-27 -58q0 -40 30 -65t81 -25q48 0 178 51q170 66 277 66q151 0 244 -90t93 -232q0 -183 -154.5 -295t-420.5 -112q-219 0 -339 60t-120 161q0 76 66 127q-111 76 -111 219zM240 -168q0 -71 88 -126.5t231 -55.5q136 0 214.5 47.5 t78.5 120.5q0 46 -33 74t-90 28q-35 0 -159.5 -35t-213.5 -35q-49 0 -108 19q-8 -19 -8 -37zM440 674q0 -145 34 -211t112 -66t111.5 65.5t33.5 209.5q0 149 -33.5 216.5t-111.5 67.5q-81 0 -113.5 -66.5t-32.5 -215.5z" />
<glyph unicode="h" horiz-adv-x="1290" d="M-8 1229q163 48 534 203v-584q141 176 332 176q142 0 218.5 -86.5t76.5 -251.5v-483q0 -77 28 -111.5t95 -34.5h6v-57h-600v57q48 13 67 47t19 99v450q0 103 -24.5 148t-90.5 45q-61 0 -85.5 -46.5t-24.5 -146.5v-450q0 -64 20 -99t66 -47v-57h-600v57h6q67 0 95 34.5 t28 111.5v821q0 46 -10.5 67t-47.5 50z" />
<glyph unicode="i" horiz-adv-x="696" d="M6 831q231 73 551 203v-831q0 -76 27.5 -110.5t91.5 -35.5v-57h-633v57h6q67 0 95 34.5t28 111.5v424q0 46 -10 66.5t-47 49.5zM145 1231q0 85 58 143t143 58t143 -58t58 -143q0 -84 -58.5 -142.5t-142.5 -58.5q-85 0 -143 58t-58 143z" />
<glyph unicode="j" horiz-adv-x="696" d="M-254 -211q0 66 38 107t101 41q46 0 85.5 -27t60.5 -76q10 -22 21.5 -56t19 -51.5t19.5 -37t30 -27.5t43 -8q40 0 66 28.5t26 75.5q0 51 -43 150q-42 107 -49 139q-8 41 -8 90q0 37 4 107l12 383v10q0 38 -11.5 58t-45.5 48l-109 88q231 73 551 203v-870 q0 -133 -26.5 -228t-100.5 -182q-75 -90 -176 -138t-215 -48q-131 0 -212 63.5t-81 157.5zM145 1231q0 85 58 143t143 58t143 -58t58 -143q0 -84 -58.5 -142.5t-142.5 -58.5q-85 0 -143 58t-58 143z" />
<glyph unicode="k" horiz-adv-x="1265" d="M-8 1229q125 38 551 203v-902q264 203 264 324q0 32 -24.5 51t-67.5 19h-6v57h520v-57h-17q-105 0 -196 -55t-185 -171l287 -491q44 -77 87.5 -111.5t113.5 -38.5v-57h-537l-239 475v-272q0 -77 28 -111.5t95 -34.5h6v-57h-643v57h6q67 0 95 34.5t28 111.5v821 q0 46 -10.5 67t-47.5 50z" />
<glyph unicode="l" horiz-adv-x="696" d="M-8 1229q231 73 551 203v-1229q0 -77 28 -111.5t95 -34.5h6v-57h-643v57h6q67 0 95 34.5t28 111.5v821q0 46 -10.5 67t-47.5 50z" />
<glyph unicode="m" horiz-adv-x="1914" d="M-10 784q241 85 532 250v-170q118 160 330 160q104 0 178 -40.5t109 -117.5q112 158 315 158q326 0 326 -338v-483q0 -77 28 -111.5t95 -34.5h6v-57h-514v676q0 102 -25 147t-92 45q-61 0 -86 -46t-25 -146v-473q0 -77 28 -111.5t95 -34.5h6v-57h-643v57h6q67 0 95 34.5 t28 111.5v473q0 103 -24.5 147.5t-91.5 44.5q-61 0 -85 -45.5t-24 -146.5v-676h-514v57h6q67 0 95 34.5t28 111.5v377q0 44 -10.5 67.5t-46.5 48.5z" />
<glyph unicode="n" horiz-adv-x="1304" d="M-10 784q241 85 532 250v-170q121 160 320 160q164 0 244.5 -84t80.5 -254v-483q0 -77 28 -111.5t95 -34.5h6v-57h-514v676q0 103 -24.5 147.5t-91.5 44.5q-61 0 -85 -45.5t-24 -146.5v-473q0 -76 27.5 -110.5t91.5 -35.5v-57h-633v57h6q67 0 95 34.5t28 111.5v377 q0 44 -10.5 67.5t-46.5 48.5z" />
<glyph unicode="o" horiz-adv-x="1280" d="M57 492q0 240 159.5 386t422.5 146t423.5 -147t160.5 -385q0 -239 -160.5 -387t-423.5 -148t-422.5 147.5t-159.5 387.5zM479 492q0 -74 1 -124t5 -102.5t11 -85.5t18.5 -64t28.5 -47.5t41 -26t55 -9.5q36 0 62.5 11.5t44 39t28.5 61.5t17 90.5t8 114t2 142.5t-2 142.5 t-8 113.5t-17 89.5t-28.5 60.5t-44 38.5t-62.5 11.5q-31 0 -55 -9.5t-41 -26t-28.5 -47t-18.5 -63t-11 -85t-5 -102t-1 -123.5z" />
<glyph unicode="p" horiz-adv-x="1294" d="M-31 784q249 88 535 250v-170q115 160 289 160q196 0 320 -148.5t124 -388.5q0 -250 -145.5 -391t-399.5 -141q-60 0 -155 12v-196q0 -78 29.5 -112t99.5 -34h30v-57h-704v57h31q70 0 100.5 34t30.5 112v809q0 44 -11 67.5t-47 48.5zM535 453q0 -81 1.5 -133t6.5 -105 t14.5 -84t25 -57t38.5 -36.5t55 -10.5t54.5 10.5t38 36.5t24.5 57t14 84t6.5 105t1.5 133t-1.5 133t-6.5 105t-14 84t-24.5 57t-38 36.5t-54.5 10.5t-55 -10.5t-38.5 -36.5t-25 -57t-14.5 -84t-6.5 -105t-1.5 -133z" />
<glyph unicode="q" horiz-adv-x="1282" d="M66 436q0 269 137 428.5t362 159.5q192 0 391 -147l187 147v-1253q0 -78 30.5 -112t100.5 -34h31v-57h-705v57h31q70 0 99.5 34t29.5 112v288q-119 -102 -281 -102q-189 0 -301 129t-112 350zM475 510q0 -81 1.5 -133.5t6.5 -106t14 -84.5t24.5 -57t38 -36.5t54.5 -10.5 t55 10.5t39 36t25.5 56.5t14.5 84.5t6.5 106.5t1.5 134t-1.5 134t-6.5 105.5t-14.5 83t-25.5 55.5t-39 35.5t-55 10.5t-54.5 -10t-38 -35.5t-24.5 -56t-14 -83.5t-6.5 -105t-1.5 -134z" />
<glyph unicode="r" horiz-adv-x="888" d="M-10 784q189 66 540 250v-176q100 168 234 168q74 0 119 -44t45 -116q0 -63 -37 -101t-100 -38q-42 0 -76 22.5t-57.5 45t-39.5 22.5q-35 0 -48 -47t-13 -154v-413q0 -77 31 -111.5t104 -34.5h6v-57h-655v57h6q67 0 95 34.5t28 111.5v377q0 44 -10.5 67.5t-46.5 48.5z " />
<glyph unicode="s" horiz-adv-x="1042" d="M98 41v328h52q45 -164 138.5 -252t217.5 -88q67 0 104 31t37 87q0 40 -12 68t-47.5 52.5t-63 37.5t-94.5 40q-8 3 -12 5q-86 35 -138 62.5t-95.5 65t-62 84.5t-18.5 110q0 160 120 256t329 96q158 0 328 -53v-273h-50q-67 133 -134 193.5t-158 60.5q-67 0 -107.5 -32.5 t-40.5 -83.5q0 -41 32.5 -73.5t67 -49t129.5 -54.5q4 -2 6.5 -3t6 -2.5t6.5 -2.5q72 -29 115.5 -50t87 -49.5t66 -59t36.5 -72.5t14 -96q0 -162 -125 -264.5t-327 -102.5q-196 0 -408 84z" />
<glyph unicode="t" horiz-adv-x="772" d="M8 905l516 498v-422h54q126 0 194 29l-31 -105h-217v-528q0 -130 34 -193t106 -63q29 0 77 20v-61q-138 -123 -315 -123q-140 0 -214.5 81t-74.5 238v13l10 616h-139z" />
<glyph unicode="u" horiz-adv-x="1304" d="M-29 784q178 65 568 250v-727q0 -103 24.5 -147.5t91.5 -44.5q61 0 86 46t25 146v273q0 46 -9.5 74.5t-35.5 50.5l-109 90q122 45 537 239v-831q0 -77 29 -111.5t96 -34.5h6v-57h-481v119q-119 -162 -330 -162q-315 0 -315 338v285q0 44 -11 67.5t-47 48.5z" />
<glyph unicode="v" horiz-adv-x="1071" d="M-57 924v57h682v-57q-99 0 -99 -58q0 -21 17 -55l172 -367l159 328q17 34 17 72q0 80 -113 80h-8v57h367v-57q-60 -3 -96.5 -35t-73.5 -105l-416 -827l-459 858q-17 32 -25.5 45.5t-26 31t-40.5 24.5t-57 8z" />
<glyph unicode="w" horiz-adv-x="1583" d="M-61 924v57h675v-57q-48 -2 -70 -16.5t-22 -47.5q0 -27 25 -82l139 -299l277 539l292 -539l117 266q29 71 29 97q0 79 -115 82v57h359v-57q-36 -4 -61 -14.5t-45 -36t-30 -43.5t-30 -62l-375 -811l-309 575l-285 -575l-397 809q-41 85 -77 121.5t-89 36.5h-8z" />
<glyph unicode="x" horiz-adv-x="1222" d="M-43 0v57q45 1 81 12.5t69.5 36t57 47.5t60.5 64l193 219l-244 367q-40 61 -87 89.5t-114 31.5v57h725v-57q-69 -9 -69 -52q0 -24 30 -67l97 -137q108 111 108 186q0 55 -84 70v57h387v-57q-67 -4 -117.5 -38.5t-111.5 -107.5l-141 -170l293 -420q48 -68 89 -99.5 t95 -31.5h4v-57h-768v57q57 0 80.5 13t23.5 49q0 22 -20 51l-133 205l-86 -115q-49 -67 -49 -117q0 -86 110 -86v-57h-479z" />
<glyph unicode="y" horiz-adv-x="1095" d="M-139 -164q0 63 45 106.5t112 43.5q42 0 75.5 -17.5t80.5 -52.5q2 -2 3.5 -3t3 -2.5t3.5 -2.5q29 -21 44.5 -31t39.5 -19.5t47 -9.5q61 0 101.5 57t40.5 148q0 110 -95 295l-194 371q-58 111 -103 159t-108 48q-4 0 -11.5 -1t-11.5 -1v57h689v-57q-39 -1 -60.5 -16 t-21.5 -40q0 -30 28 -84l152 -301l108 234q37 75 37 129q0 42 -26 60t-82 18v57h381v-57h-4q-77 0 -123 -47t-103 -164l-260 -545q-128 -269 -257 -396.5t-288 -127.5q-110 0 -176.5 55t-66.5 137z" />
<glyph unicode="z" horiz-adv-x="1157" d="M29 0l542 915q-164 -3 -279 -84.5t-161 -226.5h-49l65 377h924l-545 -915q198 13 325 117t167 284h45v-467h-1034z" />
<glyph unicode="{" d="M178 596v80q157 15 209.5 79.5t52.5 227.5v186q0 134 36.5 207.5t122 106.5t241.5 33h12v-66q-62 -2 -99.5 -15.5t-58.5 -47t-28 -79t-7 -120.5v-131q0 -83 -4 -136.5t-17.5 -105t-39.5 -83.5t-68.5 -57t-105.5 -40q63 -15 105.5 -40t68.5 -56.5t39.5 -82.5t17.5 -104.5 t4 -136.5v-131q0 -75 7 -120.5t28 -79.5t58.5 -48t99.5 -16v-64h-12q-156 0 -241.5 32.5t-122 106t-36.5 207.5v187q0 163 -52.5 227.5t-209.5 79.5z" />
<glyph unicode="|" d="M393 -483v2048h240v-2048h-240z" />
<glyph unicode="}" d="M172 -180q62 2 99.5 16t58.5 48t28 79.5t7 120.5v131q0 83 4 136.5t17.5 104.5t39.5 82.5t68.5 56.5t105.5 40q-63 16 -105.5 41.5t-68.5 57t-39.5 83t-17.5 104.5t-4 136v131q0 75 -7 120.5t-28 79t-58.5 47t-99.5 15.5v66h12q156 0 241.5 -33t122 -106.5t36.5 -207.5 v-186q0 -163 52.5 -227.5t209.5 -79.5v-80q-157 -15 -209.5 -79.5t-52.5 -227.5v-187q0 -134 -36.5 -207.5t-122 -106t-241.5 -32.5h-12v64z" />
<glyph unicode="~" horiz-adv-x="1705" d="M178 401v254q222 144 387 144q119 0 295 -58q12 -4 56.5 -19.5t63 -21t54 -15.5t65.5 -13.5t60 -3.5q163 0 371 151v-254q-199 -137 -377 -137q-90 0 -172 29q-5 2 -47 16.5t-50.5 17.5t-45 15t-49 15t-43.5 12t-48 11.5t-43.5 7t-48.5 6t-45 1.5q-88 0 -179.5 -39 t-203.5 -119z" />
<glyph unicode="&#xa1;" horiz-adv-x="843" d="M197 270q0 71 16.5 141.5t35 113t51 109t44.5 95.5q47 105 47 227h62q0 -122 47 -227q12 -29 44.5 -95.5t51 -109t35 -113t16.5 -141.5q0 -146 -62 -229.5t-163 -83.5t-163 83.5t-62 229.5zM221 1253q0 85 58 144t143 59t143 -59t58 -144q0 -83 -58 -140.5t-143 -57.5 q-84 0 -142.5 57.5t-58.5 140.5z" />
<glyph unicode="&#xa2;" horiz-adv-x="1048" d="M70 498q0 206 116.5 349t317.5 183v199h76v-191q179 -6 283 -85.5t104 -198.5q0 -71 -39.5 -113.5t-104.5 -42.5q-66 0 -103 41t-40 119q0 10 -1 35.5t-1 33.5t-1.5 28t-3.5 27t-5.5 22t-8.5 21t-12.5 16.5t-17 16t-22 11.5t-27.5 10v-731q94 -60 206 -60q123 0 205 88 v-73q-159 -191 -411 -203v-236h-76v240q-203 29 -318.5 161.5t-115.5 332.5zM375 680q0 -262 129 -385v672q-61 -17 -95 -91.5t-34 -195.5z" />
<glyph unicode="&#xa3;" horiz-adv-x="1345" d="M70 1032q0 181 165 302.5t431 121.5q249 0 401 -108t152 -269q0 -82 -42 -131t-110 -49q-63 0 -104 44t-41 114q0 23 3 54t3 40q0 99 -54 154t-151 55q-100 0 -163.5 -58t-63.5 -149q0 -68 39.5 -146t121.5 -186h207v-94h-168q49 -119 49 -242q0 -7 -1 -21.5t-1 -21.5 q206 -133 293 -133q70 0 113 51t43 136q0 17 -4 53l84 -29q8 -60 8 -121q0 -203 -98 -320.5t-264 -117.5q-134 0 -291 123q-106 -127 -273 -127q-121 0 -200.5 75t-79.5 183q0 136 101 223.5t267 87.5q79 0 152 -28q-7 29 -22 52t-33.5 38t-46 30t-52 25t-60.5 25.5 t-63 29.5q-129 65 -188 142t-59 192zM225 168q0 -48 40.5 -79.5t109.5 -31.5q101 0 182 93q-105 114 -221 114q-50 0 -80.5 -27t-30.5 -69z" />
<glyph unicode="&#xa4;" horiz-adv-x="1241" d="M61 444l201 203q-72 107 -72 238q0 133 72 237l-201 205l117 117l203 -201q109 74 240 74q137 0 243 -74l201 201l119 -117l-201 -205q70 -107 70 -237q0 -131 -70 -238l201 -203l-119 -118l-201 202q-103 -73 -241 -73q-136 0 -242 73l-203 -202zM362 885 q0 -107 76 -182.5t185 -75.5q107 0 182.5 75.5t75.5 182.5q0 106 -75.5 183t-182.5 77t-184 -77t-77 -183z" />
<glyph unicode="&#xa5;" horiz-adv-x="1470" d="M20 1356v57h811v-57q-122 0 -122 -82q0 -46 51 -135l147 -269l142 236q67 113 67 170q0 37 -23.5 55.5t-76.5 24.5v57h407v-57q-83 -7 -139.5 -56t-116.5 -151l-94 -160h295v-82h-342l-59 -94v-100h401v-82h-401v-398q0 -97 32 -133.5t127 -42.5v-57h-743v57 q95 6 127.5 42.5t32.5 133.5v398h-449v82h445l-117 194h-328v82h281l-113 187q-58 96 -109 138t-126 42h-7z" />
<glyph unicode="&#xa6;" d="M393 -350v758h240v-758h-240zM393 674v758h240v-758h-240z" />
<glyph unicode="&#xa7;" d="M55 623q0 109 72 181t197 85q-164 132 -164 278q0 127 99 208t265 81q147 0 235.5 -63.5t88.5 -163.5q0 -64 -44.5 -108t-113.5 -44q-52 0 -87.5 32.5t-35.5 78.5q0 26 28 72.5t28 68.5q0 26 -28.5 46t-72.5 20q-61 0 -100 -38t-39 -95t52 -118.5t165 -148.5l188 -145 q181 -140 181 -299q0 -109 -72 -181t-197 -85q162 -131 162 -277q0 -132 -105 -212.5t-290 -80.5q-153 0 -245.5 65.5t-92.5 166.5q0 64 44 106.5t114 42.5q52 0 88.5 -32t36.5 -78q0 -26 -29 -73t-29 -71q0 -29 35 -50t92 -21q69 0 112.5 39.5t43.5 101.5q0 61 -50.5 120 t-162.5 146l-191 148q-178 138 -178 297zM231 735q0 -69 109 -153l252 -199q46 -37 90 -37t75 31t31 74q0 68 -110 153l-250 199q-46 37 -90 37t-75.5 -31t-31.5 -74z" />
<glyph unicode="&#xa8;" d="M172 1321q0 57 43 99t102 42q60 0 101 -41t41 -100q0 -63 -40 -104t-102 -41q-60 0 -102.5 42t-42.5 103zM563 1321q0 57 43 99t101 42q60 0 101.5 -41t41.5 -100q0 -63 -40.5 -104t-102.5 -41q-60 0 -102 42t-42 103z" />
<glyph unicode="&#xa9;" horiz-adv-x="1683" d="M98 678q0 304 217 524q104 106 242 163.5t287 57.5q144 0 280.5 -57t241.5 -160q103 -103 161 -241.5t58 -286.5q0 -146 -56.5 -281.5t-162.5 -242.5q-105 -105 -239.5 -161t-284.5 -56q-305 0 -525 217q-106 105 -162.5 239.5t-56.5 284.5zM213 678q0 -266 184 -447 q187 -184 445 -184q261 0 442 184q89 91 137.5 207.5t48.5 239.5q0 126 -48 244t-136 204q-89 88 -205 136.5t-237 48.5q-126 0 -242.5 -49t-204.5 -138q-89 -91 -136.5 -205.5t-47.5 -240.5zM403 664q0 195 123 319.5t312 124.5q61 0 112 -16.5t82 -33t43 -16.5 q22 0 33.5 14t19.5 48h50v-330h-52q-30 132 -99 202.5t-163 70.5q-223 0 -223 -363q0 -183 61.5 -279t176.5 -96q154 0 268 176l51 -32q-129 -217 -350 -217q-193 0 -319 123t-126 305z" />
<glyph unicode="&#xaa;" horiz-adv-x="903" d="M49 870q0 42 18.5 77.5t51 65t91 60t123 57t163.5 62.5v49q0 77 -21.5 112.5t-71.5 35.5q-41 0 -66.5 -22.5t-25.5 -55.5q0 -18 1 -41.5t1 -28.5q0 -53 -30 -84t-80 -31q-46 0 -73.5 27.5t-27.5 71.5q0 94 94 157.5t250 63.5q178 0 271 -80q41 -37 53 -82t12 -119v-198 q0 -80 13 -117t45 -37q13 0 28 12v-47q-64 -73 -182 -73q-134 0 -178 112q-112 -121 -252 -121q-92 0 -149.5 49t-57.5 125zM356 928q0 -45 19.5 -72t50.5 -27q47 0 58.5 37.5t11.5 139.5v135q-140 -54 -140 -213z" />
<glyph unicode="&#xab;" horiz-adv-x="1071" d="M72 489l334 439h163l-186 -439l186 -436h-163zM514 489l332 439h166l-189 -439l189 -436h-166z" />
<glyph unicode="&#xac;" horiz-adv-x="1705" d="M254 639v227h1198v-501h-229v274h-969z" />
<glyph unicode="&#xad;" horiz-adv-x="729" d="M117 420v166h497v-166h-497z" />
<glyph unicode="&#xae;" horiz-adv-x="1683" d="M98 678q0 148 56 283.5t161 240.5q104 106 242 163.5t287 57.5q151 0 291.5 -60t244.5 -169q98 -101 151.5 -239t53.5 -293q0 -140 -62.5 -280t-176.5 -247q-101 -97 -231.5 -149t-272.5 -52q-221 0 -410 123q-159 106 -246.5 268.5t-87.5 352.5zM213 678 q0 -266 184 -447q187 -184 445 -184q261 0 442 184q89 91 137.5 207.5t48.5 239.5q0 126 -49 244t-137 204q-90 88 -204.5 136.5t-235.5 48.5q-126 0 -243.5 -49t-205.5 -138q-182 -185 -182 -446zM463 281v57q56 5 77 24t21 66v524q0 49 -20 66.5t-78 25.5v56h405 q151 0 238.5 -57.5t87.5 -143.5q0 -88 -65.5 -137t-210.5 -74q229 -46 229 -260q0 -46 9.5 -67t33.5 -21q53 0 53 119v12h55q0 -5 1 -15t1 -14q0 -180 -188 -180q-92 0 -135 49q-20 23 -27.5 52t-9 78t-4.5 69q-12 85 -46.5 123.5t-101.5 38.5h-16v-244q0 -45 18.5 -63.5 t69.5 -26.5v-57h-397zM772 727q14 -2 39 -2q170 0 170 174q0 60 -38 102.5t-99 42.5q-72 0 -72 -63v-254z" />
<glyph unicode="&#xaf;" d="M205 1235v168h614v-168h-614z" />
<glyph unicode="&#xb0;" horiz-adv-x="673" d="M27 1155q0 131 90.5 221t220.5 90q128 0 219.5 -90.5t91.5 -220.5q0 -128 -91.5 -219.5t-221.5 -91.5q-129 0 -219 90.5t-90 220.5zM172 1157q0 -69 48 -117.5t118 -48.5q68 0 116 49t48 117t-47.5 116t-116.5 48q-68 0 -117 -48t-49 -116z" />
<glyph unicode="&#xb1;" horiz-adv-x="1705" d="M254 -18v231h1198v-231h-1198zM254 690v232h481v319h238v-319h479v-232h-479v-319h-238v319h-481z" />
<glyph unicode="&#xb2;" horiz-adv-x="817" d="M6 565v23q179 130 273 262t94 240q0 84 -48 135t-124 51q-86 0 -158 -90l-33 12q57 118 150 180t215 62q131 0 216 -74t85 -184q0 -84 -59.5 -156.5t-184.5 -151.5l-149 -92h159q117 0 175.5 18t84.5 72l29 -8l-110 -299h-615z" />
<glyph unicode="&#xb3;" horiz-adv-x="884" d="M14 750q0 43 30.5 70.5t76.5 27.5q48 0 80 -29q11 -11 18.5 -25t9.5 -22t6 -29t5 -26q20 -71 50.5 -103t90.5 -32q66 0 108.5 48t42.5 126q0 103 -65 163.5t-182 63.5v39h8q86 0 132 36.5t46 102.5q0 61 -42 99t-110 38q-90 0 -147 -69l-31 22q60 91 151 139t202 48 q133 0 213.5 -59t80.5 -150q0 -120 -149 -176q190 -67 190 -222q0 -128 -120 -210t-322 -82q-152 0 -254 57q-57 30 -88 71.5t-31 82.5z" />
<glyph unicode="&#xb4;" d="M299 1135l279 297q45 48 81 71t74 23q46 0 78.5 -31.5t32.5 -77.5q0 -37 -25 -64.5t-80 -54.5l-325 -163h-115z" />
<glyph unicode="&#xb5;" horiz-adv-x="1232" d="M-98 -303q0 48 26.5 138.5t71.5 243t76 296.5l108 510h293l-106 -498q-21 -92 -21 -125q0 -55 28.5 -87t74.5 -32q64 0 105.5 56t66.5 170l110 516h291l-111 -525q-12 -53 -12 -92q0 -44 20 -68t54 -24q54 0 90 51q9 13 27.5 46.5t31 46t31.5 12.5q10 0 19.5 -11.5 t9.5 -27.5q0 -27 -19.5 -83.5t-54.5 -107.5q-80 -122 -221 -122q-90 0 -137 47.5t-54 146.5q-73 -194 -249 -194q-101 0 -161.5 54t-70.5 156q-8 -61 -15.5 -130t-12.5 -116t-10.5 -98t-11 -84.5t-14 -67t-19 -53.5t-26 -36.5t-35.5 -23.5t-46 -7q-57 0 -92 34.5t-35 88.5z " />
<glyph unicode="&#xb6;" d="M29 1130q0 156 105 252.5t284 96.5h579v-123h-106v-1356h-174v1356h-152v-1356h-174v784q-166 6 -264 101.5t-98 244.5z" />
<glyph unicode="&#xb7;" horiz-adv-x="735" d="M180 707q0 78 55 132t132 54q78 0 133 -54t55 -132t-55 -133.5t-133 -55.5t-132.5 55.5t-54.5 133.5z" />
<glyph unicode="&#xb8;" d="M250 -395l47 100q131 -76 244 -76q35 0 57.5 20.5t22.5 55.5q0 82 -91 82q-30 0 -63 -8v221h88v-133q38 6 68 6q87 0 136.5 -45.5t49.5 -124.5q0 -85 -60 -136.5t-157 -51.5q-77 0 -155 22t-187 68z" />
<glyph unicode="&#xb9;" horiz-adv-x="604" d="M41 1247q174 72 399 193v-754q0 -46 19 -66t63 -20h8v-35h-432v35h6q45 0 63.5 20t18.5 66v418q0 28 -16.5 50.5t-38.5 37.5t-73 45q-11 7 -17 10z" />
<glyph unicode="&#xba;" horiz-adv-x="960" d="M43 1071q0 168 119.5 270.5t316.5 102.5t318 -103.5t121 -269.5q0 -168 -121 -271.5t-318 -103.5t-316.5 103.5t-119.5 271.5zM360 1071q0 -62 1 -100t5 -79t12 -63.5t21 -42.5t32.5 -28t47.5 -8q27 0 46.5 8t33 27.5t22 43t12.5 63t5.5 79.5t1.5 100t-1.5 99.5t-5.5 79 t-12.5 63.5t-22 43t-33 27t-46.5 8q-28 0 -47.5 -8t-32.5 -27.5t-21 -42.5t-12 -63.5t-5 -78.5t-1 -100z" />
<glyph unicode="&#xbb;" horiz-adv-x="1071" d="M59 53l189 436l-189 439h164l334 -439l-334 -436h-164zM502 53l186 436l-186 439h164l331 -439l-331 -436h-164z" />
<glyph unicode="&#xbc;" horiz-adv-x="1734" d="M41 1257q155 63 379 179v-703q0 -43 18 -61.5t60 -18.5h8v-32h-414v32h8q42 0 60 18.5t18 61.5v391q0 36 -25 59t-93 63q-12 7 -19 11zM236 -43l927 1499h97l-926 -1499h-98zM932 252l631 557q6 6 10 6q10 0 10 -8q0 -1 -1 -5t-3 -11.5t-4 -17.5t-3 -26.5t-1 -35.5v-455 h129l-17 -68h-112v-73q0 -44 17.5 -63t60.5 -19h8v-33h-422v33h6q43 0 61.5 19t18.5 63v73h-363zM1040 279l7 -23h274v270z" />
<glyph unicode="&#xbd;" horiz-adv-x="1697" d="M41 1257q155 63 379 179v-703q0 -43 18 -61.5t60 -18.5h8v-32h-414v32h8q42 0 60 18.5t18 61.5v391q0 36 -25 59t-93 63q-12 7 -19 11zM236 -43l927 1499h97l-926 -1499h-98zM926 0v23q171 122 260.5 243.5t89.5 222.5q0 79 -46.5 127t-117.5 48q-82 0 -151 -84l-33 10 q113 225 350 225q125 0 206 -69t81 -171q0 -79 -55.5 -145t-176.5 -141l-143 -86h153q110 0 166.5 17t81.5 67l27 -8l-107 -279h-585z" />
<glyph unicode="&#xbe;" horiz-adv-x="2002" d="M12 793q0 39 30 65.5t73 26.5q46 0 75 -29q11 -10 18.5 -23.5t9.5 -20t6 -26.5t5 -24q18 -66 47.5 -95.5t88.5 -29.5q62 0 102.5 44.5t40.5 117.5q0 97 -63 153.5t-173 57.5v37h9q82 0 125 34t43 97q0 57 -39.5 92t-104.5 35q-87 0 -141 -66l-29 21q57 86 143.5 131 t192.5 45q127 0 205 -56t78 -141q0 -111 -146 -164q183 -61 183 -207q0 -119 -114 -195.5t-306 -76.5q-149 0 -244 53q-54 29 -84.5 67.5t-30.5 76.5zM504 -43l928 1499h96l-926 -1499h-98zM1200 252l631 557q6 6 10 6q10 0 10 -8q0 -1 -1 -5t-3 -11.5t-4 -17.5t-3 -26.5 t-1 -35.5v-455h129l-16 -68h-113v-73q0 -44 17.5 -63t60.5 -19h8v-33h-422v33h6q43 0 61.5 19t18.5 63v73h-362zM1309 279l6 -23h274v270z" />
<glyph unicode="&#xbf;" horiz-adv-x="1318" d="M96 365q0 140 107 227q34 28 81 48.5t82.5 29.5t100.5 23t98 22q97 26 138.5 64t41.5 112q0 25 -6 65h78q10 -64 10 -131q0 -146 -82 -237q-30 -33 -100 -98.5t-88 -96.5q-45 -71 -45 -149q0 -93 57 -149t152 -56q106 0 168.5 56.5t62.5 154.5q0 18 -3 46t-3 38 q0 86 41 135t107 49q62 0 100.5 -45.5t38.5 -120.5q0 -169 -154 -282t-413 -113q-267 0 -418.5 110.5t-151.5 297.5zM549 1253q0 85 57.5 144t141.5 59t142 -59t58 -144q0 -83 -57.5 -140.5t-142.5 -57.5q-83 0 -141 57.5t-58 140.5z" />
<glyph unicode="&#xc0;" horiz-adv-x="1388" d="M-92 0v57q92 6 143 57t94 169l316 868q-30 77 -99 125q207 41 457 242l428 -1239q42 -121 60 -151q36 -61 102 -69q12 -2 25 -2v-57h-787v57h17q131 0 131 99q0 29 -17 82l-80 235h-397l-65 -192q-19 -59 -19 -101q0 -117 137 -123v-57h-446zM330 551h344l-170 493z M346 1849q0 46 32.5 77.5t78.5 31.5q38 0 74 -23t81 -71l279 -297h-115l-325 164q-55 27 -80 54t-25 64z" />
<glyph unicode="&#xc1;" horiz-adv-x="1388" d="M-92 0v57q92 6 143 57t94 169l316 868q-30 77 -99 125q207 41 457 242l428 -1239q42 -121 60 -151q36 -61 102 -69q12 -2 25 -2v-57h-787v57h17q131 0 131 99q0 29 -17 82l-80 235h-397l-65 -192q-19 -59 -19 -101q0 -117 137 -123v-57h-446zM330 551h344l-170 493z M465 1567l278 297q45 48 81.5 71t74.5 23q46 0 78.5 -31.5t32.5 -77.5q0 -37 -25 -64t-80 -54l-325 -164h-115z" />
<glyph unicode="&#xc2;" horiz-adv-x="1388" d="M-92 0v57q92 6 143 57t94 169l316 868q-30 77 -99 125q207 41 457 242l428 -1239q42 -121 60 -151q36 -61 102 -69q12 -2 25 -2v-57h-787v57h17q131 0 131 99q0 29 -17 82l-80 235h-397l-65 -192q-19 -59 -19 -101q0 -117 137 -123v-57h-446zM330 551h344l-170 493z M356 1567l230 370h184l229 -370h-100l-221 170l-221 -170h-101z" />
<glyph unicode="&#xc3;" horiz-adv-x="1388" d="M-92 0v57q92 6 143 57t94 169l316 868q-30 77 -99 125q207 41 457 242l428 -1239q42 -121 60 -151q36 -61 102 -69q12 -2 25 -2v-57h-787v57h17q131 0 131 99q0 29 -17 82l-80 235h-397l-65 -192q-19 -59 -19 -101q0 -117 137 -123v-57h-446zM330 551h344l-170 493z M350 1597q52 267 232 267q30 0 77 -13l121 -30q40 -9 45 -9q38 0 60.5 22.5t36.5 70.5h82q-26 -131 -84.5 -199t-143.5 -68q-23 0 -69 11l-117 32q-46 11 -58 11q-79 0 -98 -95h-84z" />
<glyph unicode="&#xc4;" horiz-adv-x="1388" d="M-92 0v57q92 6 143 57t94 169l316 868q-30 77 -99 125q207 41 457 242l428 -1239q42 -121 60 -151q36 -61 102 -69q12 -2 25 -2v-57h-787v57h17q131 0 131 99q0 29 -17 82l-80 235h-397l-65 -192q-19 -59 -19 -101q0 -117 137 -123v-57h-446zM330 551h344l-170 493z M338 1753q0 57 43 99t102 42q60 0 101 -41t41 -100q0 -63 -40 -104t-102 -41q-60 0 -102.5 42t-42.5 103zM729 1753q0 57 42.5 99t100.5 42q60 0 102 -41t42 -100q0 -63 -41 -104t-103 -41q-60 0 -101.5 42t-41.5 103z" />
<glyph unicode="&#xc5;" horiz-adv-x="1388" d="M-92 0v57q92 6 143 57t94 169l316 868q-30 77 -99 125q196 41 476 178l409 -1175q42 -121 60 -151q36 -61 102 -69q12 -2 25 -2v-57h-787v57h17q131 0 131 99q0 29 -17 82l-80 235h-397l-65 -192q-19 -59 -19 -101q0 -117 137 -123v-57h-446zM330 551h344l-170 493z M383 1712q0 109 75.5 184.5t184.5 75.5t184.5 -75.5t75.5 -184.5q0 -110 -75.5 -185t-184.5 -75t-184.5 75t-75.5 185zM524 1712q0 -51 34 -85t85 -34t85 34t34 85t-34.5 85t-84.5 34t-84.5 -34t-34.5 -85z" />
<glyph unicode="&#xc6;" horiz-adv-x="1972" d="M-197 0v57q103 11 187.5 85.5t187.5 226.5l709 1044h653q146 0 199 53q45 -230 116 -374l-57 -23q-88 137 -193 196.5t-259 59.5h-82v-502q148 2 219 42.5t78 133.5h59v-450h-59q-9 108 -76 157.5t-203 49.5h-18v-426q0 -139 33.5 -193.5t142.5 -54.5q134 0 256 92.5 t194 255.5l56 -24l-140 -406h-1136v57q92 6 123.5 43t31.5 133v527h-290l-252 -375q-105 -153 -105 -227q0 -48 33 -74.5t94 -26.5h14v-57h-516zM578 825h247v363z" />
<glyph unicode="&#xc7;" horiz-adv-x="1464" d="M68 690q0 170 65.5 315.5t188.5 251.5q233 201 552 201q262 0 469 -121v-415h-53q-41 215 -157.5 335.5t-274.5 120.5q-174 0 -248.5 -156t-74.5 -493q0 -366 71.5 -528t257.5 -162q110 0 205.5 59t164 174t93.5 269h45v-459q-271 -125 -516 -125q-196 0 -362 78 q-426 203 -426 655zM559 -395l47 100q131 -76 244 -76q35 0 57.5 20.5t22.5 55.5q0 82 -90 82q-31 0 -64 -8v221h88v-133q38 6 68 6q87 0 136.5 -45.5t49.5 -124.5q0 -85 -60 -136.5t-157 -51.5q-77 0 -155 22t-187 68z" />
<glyph unicode="&#xc8;" horiz-adv-x="1402" d="M61 0v57q95 6 127.5 42.5t32.5 133.5v947q0 97 -32.5 133.5t-127.5 42.5v57h897q152 0 205 53q51 -238 119 -374l-59 -23q-90 137 -199.5 196.5t-267.5 59.5h-84v-502q154 2 227.5 42.5t79.5 133.5h61v-450h-61q-9 107 -79 157t-210 50h-18v-426q0 -139 35 -193.5 t147 -54.5q138 0 264.5 92.5t200.5 255.5l57 -24l-143 -406h-1172zM328 1849q0 46 32 77.5t78 31.5q38 0 74.5 -23t81.5 -71l278 -297h-114l-326 164q-55 27 -79.5 54t-24.5 64z" />
<glyph unicode="&#xc9;" horiz-adv-x="1402" d="M61 0v57q95 6 127.5 42.5t32.5 133.5v947q0 97 -32.5 133.5t-127.5 42.5v57h897q152 0 205 53q51 -238 119 -374l-59 -23q-90 137 -199.5 196.5t-267.5 59.5h-84v-502q154 2 227.5 42.5t79.5 133.5h61v-450h-61q-9 107 -79 157t-210 50h-18v-426q0 -139 35 -193.5 t147 -54.5q138 0 264.5 92.5t200.5 255.5l57 -24l-143 -406h-1172zM446 1567l279 297q45 48 81.5 71t74.5 23q46 0 78 -31.5t32 -77.5q0 -37 -24.5 -64t-79.5 -54l-326 -164h-115z" />
<glyph unicode="&#xca;" horiz-adv-x="1402" d="M61 0v57q95 6 127.5 42.5t32.5 133.5v947q0 97 -32.5 133.5t-127.5 42.5v57h897q152 0 205 53q51 -238 119 -374l-59 -23q-90 137 -199.5 196.5t-267.5 59.5h-84v-502q154 2 227.5 42.5t79.5 133.5h61v-450h-61q-9 107 -79 157t-210 50h-18v-426q0 -139 35 -193.5 t147 -54.5q138 0 264.5 92.5t200.5 255.5l57 -24l-143 -406h-1172zM338 1567l229 370h185l229 -370h-100l-222 170l-221 -170h-100z" />
<glyph unicode="&#xcb;" horiz-adv-x="1402" d="M61 0v57q95 6 127.5 42.5t32.5 133.5v947q0 97 -32.5 133.5t-127.5 42.5v57h897q152 0 205 53q51 -238 119 -374l-59 -23q-90 137 -199.5 196.5t-267.5 59.5h-84v-502q154 2 227.5 42.5t79.5 133.5h61v-450h-61q-9 107 -79 157t-210 50h-18v-426q0 -139 35 -193.5 t147 -54.5q138 0 264.5 92.5t200.5 255.5l57 -24l-143 -406h-1172zM319 1753q0 57 43.5 99t102.5 42q60 0 100.5 -41t40.5 -100q0 -63 -40 -104t-101 -41q-60 0 -103 42t-43 103zM711 1753q0 57 42.5 99t100.5 42q60 0 101.5 -41t41.5 -100q0 -63 -40.5 -104t-102.5 -41 q-60 0 -101.5 42t-41.5 103z" />
<glyph unicode="&#xcc;" horiz-adv-x="901" d="M66 0v57q95 6 127 42.5t32 133.5v947q0 97 -32 133.5t-127 42.5v57h770v-57q-95 -6 -127.5 -42.5t-32.5 -133.5v-947q0 -97 32.5 -133.5t127.5 -42.5v-57h-770zM119 1849q0 46 32 77.5t78 31.5q38 0 74.5 -23t81.5 -71l279 -297h-115l-326 164q-55 27 -79.5 54t-24.5 64z " />
<glyph unicode="&#xcd;" horiz-adv-x="901" d="M66 0v57q95 6 127 42.5t32 133.5v947q0 97 -32 133.5t-127 42.5v57h770v-57q-95 -6 -127.5 -42.5t-32.5 -133.5v-947q0 -97 32.5 -133.5t127.5 -42.5v-57h-770zM238 1567l278 297q45 48 81.5 71t74.5 23q46 0 78 -31.5t32 -77.5q0 -37 -24.5 -64t-79.5 -54l-326 -164 h-114z" />
<glyph unicode="&#xce;" horiz-adv-x="901" d="M66 0v57q95 6 127 42.5t32 133.5v947q0 97 -32 133.5t-127 42.5v57h770v-57q-95 -6 -127.5 -42.5t-32.5 -133.5v-947q0 -97 32.5 -133.5t127.5 -42.5v-57h-770zM129 1567l229 370h185l229 -370h-100l-221 170l-222 -170h-100z" />
<glyph unicode="&#xcf;" horiz-adv-x="901" d="M66 0v57q95 6 127 42.5t32 133.5v947q0 97 -32 133.5t-127 42.5v57h770v-57q-95 -6 -127.5 -42.5t-32.5 -133.5v-947q0 -97 32.5 -133.5t127.5 -42.5v-57h-770zM111 1753q0 57 43 99t102 42q60 0 100.5 -41t40.5 -100q0 -63 -40 -104t-101 -41q-60 0 -102.5 42t-42.5 103 zM502 1753q0 57 42.5 99t100.5 42q60 0 101.5 -41t41.5 -100q0 -63 -40.5 -104t-102.5 -41q-60 0 -101.5 42t-41.5 103z" />
<glyph unicode="&#xd0;" horiz-adv-x="1601" d="M0 758v82h211v340q0 97 -32.5 133.5t-127.5 42.5v57h649q186 0 314 -27t239 -108q138 -100 211.5 -248.5t73.5 -331.5q0 -325 -194 -511.5t-543 -186.5h-750v57q95 6 127.5 42.5t32.5 133.5v525h-211zM662 342q0 -142 29.5 -201t123.5 -59q126 0 192 151.5t66 446.5 q0 330 -87 489.5t-269 159.5q-19 0 -55 -4v-485h212v-82h-212v-416z" />
<glyph unicode="&#xd1;" horiz-adv-x="1384" d="M-6 1356v57h635l510 -919v598q0 137 -35.5 195.5t-138.5 68.5v57h424v-57q-103 -10 -139 -69t-36 -195v-1092h-303l-630 1135v-816q0 -136 35.5 -194t138.5 -68v-57h-424v57q103 10 138.5 68t35.5 194v930q-85 98 -211 107zM365 1597q26 135 82.5 201t148.5 66 q31 0 78 -13l121 -30q41 -9 45 -9q38 0 60 22.5t36 70.5h82q-26 -132 -84 -199.5t-143 -67.5q-24 0 -70 11l-117 32q-46 11 -57 11q-79 0 -98 -95h-84z" />
<glyph unicode="&#xd2;" horiz-adv-x="1650" d="M70 707q0 168 60 311t175 248q205 190 520 190q320 0 525 -190q115 -107 175 -250t60 -309t-59.5 -307.5t-173.5 -247.5q-208 -193 -527 -193q-314 0 -522 193q-114 104 -173.5 246.5t-59.5 308.5zM494 1849q0 46 32 77.5t78 31.5q38 0 74.5 -23t81.5 -71l278 -297h-114 l-326 164q-55 27 -79.5 54t-24.5 64zM535 709q0 -225 12.5 -354.5t48.5 -194.5q72 -125 223 -125q153 0 223 125q36 66 49 196t13 353q0 109 -2.5 184.5t-9.5 151t-20 124.5t-33.5 92.5t-51 67.5t-72 37.5t-96.5 13.5t-97 -13.5t-72 -37.5t-51 -68t-33.5 -92.5t-19.5 -125 t-9 -151t-2 -183.5z" />
<glyph unicode="&#xd3;" horiz-adv-x="1650" d="M70 707q0 168 60 311t175 248q205 190 520 190q320 0 525 -190q115 -107 175 -250t60 -309t-59.5 -307.5t-173.5 -247.5q-208 -193 -527 -193q-314 0 -522 193q-114 104 -173.5 246.5t-59.5 308.5zM535 709q0 -225 12.5 -354.5t48.5 -194.5q72 -125 223 -125 q153 0 223 125q36 66 49 196t13 353q0 109 -2.5 184.5t-9.5 151t-20 124.5t-33.5 92.5t-51 67.5t-72 37.5t-96.5 13.5t-97 -13.5t-72 -37.5t-51 -68t-33.5 -92.5t-19.5 -125t-9 -151t-2 -183.5zM612 1567l279 297q45 48 81.5 71t74.5 23q46 0 78 -31.5t32 -77.5 q0 -37 -24.5 -64t-79.5 -54l-326 -164h-115z" />
<glyph unicode="&#xd4;" horiz-adv-x="1650" d="M70 707q0 168 60 311t175 248q205 190 520 190q320 0 525 -190q115 -107 175 -250t60 -309t-59.5 -307.5t-173.5 -247.5q-208 -193 -527 -193q-314 0 -522 193q-114 104 -173.5 246.5t-59.5 308.5zM504 1567l229 370h185l229 -370h-100l-222 170l-221 -170h-100zM535 709 q0 -225 12.5 -354.5t48.5 -194.5q72 -125 223 -125q153 0 223 125q36 66 49 196t13 353q0 109 -2.5 184.5t-9.5 151t-20 124.5t-33.5 92.5t-51 67.5t-72 37.5t-96.5 13.5t-97 -13.5t-72 -37.5t-51 -68t-33.5 -92.5t-19.5 -125t-9 -151t-2 -183.5z" />
<glyph unicode="&#xd5;" horiz-adv-x="1650" d="M70 707q0 168 60 311t175 248q205 190 520 190q320 0 525 -190q115 -107 175 -250t60 -309t-59.5 -307.5t-173.5 -247.5q-208 -193 -527 -193q-314 0 -522 193q-114 104 -173.5 246.5t-59.5 308.5zM498 1597q26 135 83 201t148 66q31 0 78 -13l121 -30q40 -9 45 -9 q37 0 59.5 22.5t36.5 70.5h82q-26 -132 -84 -199.5t-143 -67.5q-24 0 -70 11l-117 32q-46 11 -57 11q-79 0 -98 -95h-84zM535 709q0 -225 12.5 -354.5t48.5 -194.5q72 -125 223 -125q153 0 223 125q36 66 49 196t13 353q0 109 -2.5 184.5t-9.5 151t-20 124.5t-33.5 92.5 t-51 67.5t-72 37.5t-96.5 13.5t-97 -13.5t-72 -37.5t-51 -68t-33.5 -92.5t-19.5 -125t-9 -151t-2 -183.5z" />
<glyph unicode="&#xd6;" horiz-adv-x="1650" d="M70 707q0 168 60 311t175 248q205 190 520 190q320 0 525 -190q115 -107 175 -250t60 -309t-59.5 -307.5t-173.5 -247.5q-208 -193 -527 -193q-314 0 -522 193q-114 104 -173.5 246.5t-59.5 308.5zM485 1753q0 57 43.5 99t102.5 42q60 0 100.5 -41t40.5 -100 q0 -63 -40 -104t-101 -41q-60 0 -103 42t-43 103zM535 709q0 -225 12.5 -354.5t48.5 -194.5q72 -125 223 -125q153 0 223 125q36 66 49 196t13 353q0 109 -2.5 184.5t-9.5 151t-20 124.5t-33.5 92.5t-51 67.5t-72 37.5t-96.5 13.5t-97 -13.5t-72 -37.5t-51 -68t-33.5 -92.5 t-19.5 -125t-9 -151t-2 -183.5zM877 1753q0 57 42.5 99t100.5 42q60 0 101.5 -41t41.5 -100q0 -63 -40.5 -104t-102.5 -41q-60 0 -101.5 42t-41.5 103z" />
<glyph unicode="&#xd7;" horiz-adv-x="1705" d="M268 170l441 440l-441 443l162 161l440 -440l441 440l162 -161l-441 -443l441 -440l-162 -162l-441 441l-440 -441z" />
<glyph unicode="&#xd8;" horiz-adv-x="1650" d="M70 707q0 167 60 310.5t175 248.5q205 190 531 190q138 0 268 -43l100 238h72l-113 -262q199 -91 310.5 -271t111.5 -411q0 -166 -60 -309t-175 -248q-206 -191 -527 -191q-128 0 -252 37l-125 -295h-73l135 317q-210 93 -324 273.5t-114 415.5zM535 709 q0 -199 9.5 -321.5t37.5 -205.5l458 1082q-66 116 -221 116q-43 0 -77.5 -8t-61.5 -23t-48 -40.5t-36.5 -55.5t-26.5 -74.5t-17.5 -89.5t-10 -109t-5 -125.5t-1.5 -145.5zM623 117q70 -82 196 -82q153 0 223 125q37 69 49.5 205.5t12.5 384.5q0 281 -31 426z" />
<glyph unicode="&#xd9;" horiz-adv-x="1497" d="M102 1356v57h740v-57q-92 -14 -120 -49t-34 -127l-45 -588q-10 -127 -10 -162q0 -146 77 -221.5t226 -75.5q324 0 324 332q0 29 -3 59l-47 582q-11 132 -49.5 187.5t-138.5 62.5v57h373v-57q-65 -21 -88 -53.5t-23 -98.5q0 -8 4 -86l43 -575q8 -110 8 -131 q0 -215 -147 -335t-416 -120q-291 0 -446.5 127.5t-155.5 364.5q0 63 4 98l55 606q3 24 3 47q0 76 -32 114t-102 42zM477 1849q0 46 32.5 77.5t78.5 31.5q38 0 74 -23t81 -71l279 -297h-115l-325 164q-55 27 -80 54t-25 64z" />
<glyph unicode="&#xda;" horiz-adv-x="1497" d="M102 1356v57h740v-57q-92 -14 -120 -49t-34 -127l-45 -588q-10 -127 -10 -162q0 -146 77 -221.5t226 -75.5q324 0 324 332q0 29 -3 59l-47 582q-11 132 -49.5 187.5t-138.5 62.5v57h373v-57q-65 -21 -88 -53.5t-23 -98.5q0 -8 4 -86l43 -575q8 -110 8 -131 q0 -215 -147 -335t-416 -120q-291 0 -446.5 127.5t-155.5 364.5q0 63 4 98l55 606q3 24 3 47q0 76 -32 114t-102 42zM596 1567l278 297q45 48 81.5 71t74.5 23q46 0 78.5 -31.5t32.5 -77.5q0 -37 -25 -64t-80 -54l-325 -164h-115z" />
<glyph unicode="&#xdb;" horiz-adv-x="1497" d="M102 1356v57h740v-57q-92 -14 -120 -49t-34 -127l-45 -588q-10 -127 -10 -162q0 -146 77 -221.5t226 -75.5q324 0 324 332q0 29 -3 59l-47 582q-11 132 -49.5 187.5t-138.5 62.5v57h373v-57q-65 -21 -88 -53.5t-23 -98.5q0 -8 4 -86l43 -575q8 -110 8 -131 q0 -215 -147 -335t-416 -120q-291 0 -446.5 127.5t-155.5 364.5q0 63 4 98l55 606q3 24 3 47q0 76 -32 114t-102 42zM487 1567l230 370h184l229 -370h-100l-221 170l-221 -170h-101z" />
<glyph unicode="&#xdc;" horiz-adv-x="1497" d="M102 1356v57h740v-57q-92 -14 -120 -49t-34 -127l-45 -588q-10 -127 -10 -162q0 -146 77 -221.5t226 -75.5q324 0 324 332q0 29 -3 59l-47 582q-11 132 -49.5 187.5t-138.5 62.5v57h373v-57q-65 -21 -88 -53.5t-23 -98.5q0 -8 4 -86l43 -575q8 -110 8 -131 q0 -215 -147 -335t-416 -120q-291 0 -446.5 127.5t-155.5 364.5q0 63 4 98l55 606q3 24 3 47q0 76 -32 114t-102 42zM469 1753q0 57 43 99t102 42q60 0 101 -41t41 -100q0 -63 -40 -104t-102 -41q-60 0 -102.5 42t-42.5 103zM860 1753q0 57 43 99t101 42q60 0 101.5 -41 t41.5 -100q0 -63 -40.5 -104t-102.5 -41q-60 0 -102 42t-42 103z" />
<glyph unicode="&#xdd;" horiz-adv-x="1255" d="M-96 1356v57h835v-57q-125 0 -125 -82q0 -44 52 -135l149 -269l139 236q70 118 70 170q0 37 -23.5 55.5t-76.5 24.5v57h407v-57q-84 -7 -140 -55.5t-116 -151.5l-201 -340v-576q0 -97 32.5 -133.5t127.5 -42.5v-57h-770v57q95 6 127.5 42.5t32.5 133.5v474l-281 469 q-58 96 -108.5 138t-124.5 42h-6zM416 1567l278 297q45 48 81.5 71t74.5 23q46 0 78.5 -31.5t32.5 -77.5q0 -37 -25 -64t-80 -54l-326 -164h-114z" />
<glyph unicode="&#xde;" horiz-adv-x="1413" d="M66 0v57q95 6 127 42.5t32 133.5v947q0 97 -32 133.5t-127 42.5v57h770v-57q-95 -6 -127.5 -42.5t-32.5 -133.5v-56h106q141 0 236 -15t166 -58q95 -57 145.5 -148t50.5 -205q0 -186 -139.5 -299.5t-378.5 -113.5q-66 0 -186 20v-72q0 -97 32.5 -133.5t127.5 -42.5v-57 h-770zM676 389q41 -12 69 -12q94 0 151.5 86t57.5 237q0 167 -64 255.5t-185 88.5q-5 0 -14.5 -1t-14.5 -1v-653z" />
<glyph unicode="&#xdf;" horiz-adv-x="1355" d="M20 0v57h7q67 0 95 34.5t28 111.5v368v84q0 183 14 291t67 197q82 137 220.5 213t312.5 76q190 0 308 -96.5t118 -241.5q0 -94 -54 -165.5t-165 -127.5q150 -49 227.5 -145.5t77.5 -231.5q0 -196 -152 -324.5t-399 -128.5q-80 0 -152 17v69q62 -10 101 -10 q108 0 172.5 77t64.5 210q0 152 -82 257t-217 128v65q102 19 155.5 75.5t53.5 146.5q0 106 -75.5 178.5t-188.5 72.5q-75 0 -117.5 -30t-42.5 -84q0 -22 9 -43.5t15 -30t30 -34t26 -27.5q28 -33 35.5 -55.5t7.5 -59.5v-12v-881h-500z" />
<glyph unicode="&#xe0;" horiz-adv-x="1204" d="M66 205q0 50 15.5 93t50.5 82t80 72.5t117 69.5t147 68t183 74v71q0 109 -28 159t-94 50q-53 0 -88 -32t-35 -78q0 -24 2 -58t2 -43q0 -74 -41.5 -118t-106.5 -44q-61 0 -98 38.5t-37 101.5q0 133 126.5 224t334.5 91q235 0 358 -113q55 -52 71.5 -116t16.5 -170v-285 q0 -114 17.5 -166.5t60.5 -52.5q18 0 37 16v-65q-40 -51 -103.5 -79t-140.5 -28q-178 0 -235 162q-150 -172 -336 -172q-123 0 -199.5 70t-76.5 178zM293 1417q0 46 32 77.5t78 31.5q38 0 74.5 -23t81.5 -71l279 -297h-115l-326 163q-54 27 -79 54.5t-25 64.5zM475 287 q0 -65 25.5 -102.5t66.5 -37.5q22 0 38 6t26 22.5t15.5 33t8.5 50.5t3.5 61t0.5 79v191q-184 -73 -184 -303z" />
<glyph unicode="&#xe1;" horiz-adv-x="1204" d="M66 205q0 50 15.5 93t50.5 82t80 72.5t117 69.5t147 68t183 74v71q0 109 -28 159t-94 50q-53 0 -88 -32t-35 -78q0 -24 2 -58t2 -43q0 -74 -41.5 -118t-106.5 -44q-61 0 -98 38.5t-37 101.5q0 133 126.5 224t334.5 91q235 0 358 -113q55 -52 71.5 -116t16.5 -170v-285 q0 -114 17.5 -166.5t60.5 -52.5q18 0 37 16v-65q-40 -51 -103.5 -79t-140.5 -28q-178 0 -235 162q-150 -172 -336 -172q-123 0 -199.5 70t-76.5 178zM412 1135l278 297q45 48 81.5 71t74.5 23q46 0 78 -31.5t32 -77.5q0 -37 -25 -64.5t-79 -54.5l-326 -163h-114zM475 287 q0 -65 25.5 -102.5t66.5 -37.5q22 0 38 6t26 22.5t15.5 33t8.5 50.5t3.5 61t0.5 79v191q-184 -73 -184 -303z" />
<glyph unicode="&#xe2;" horiz-adv-x="1204" d="M66 205q0 50 15.5 93t50.5 82t80 72.5t117 69.5t147 68t183 74v71q0 109 -28 159t-94 50q-53 0 -88 -32t-35 -78q0 -24 2 -58t2 -43q0 -74 -41.5 -118t-106.5 -44q-61 0 -98 38.5t-37 101.5q0 133 126.5 224t334.5 91q235 0 358 -113q55 -52 71.5 -116t16.5 -170v-285 q0 -114 17.5 -166.5t60.5 -52.5q18 0 37 16v-65q-40 -51 -103.5 -79t-140.5 -28q-178 0 -235 162q-150 -172 -336 -172q-123 0 -199.5 70t-76.5 178zM303 1135l229 370h185l229 -370h-100l-221 170l-222 -170h-100zM475 287q0 -65 25.5 -102.5t66.5 -37.5q22 0 38 6t26 22.5 t15.5 33t8.5 50.5t3.5 61t0.5 79v191q-184 -73 -184 -303z" />
<glyph unicode="&#xe3;" horiz-adv-x="1204" d="M66 205q0 50 15.5 93t50.5 82t80 72.5t117 69.5t147 68t183 74v71q0 109 -28 159t-94 50q-53 0 -88 -32t-35 -78q0 -24 2 -58t2 -43q0 -74 -41.5 -118t-106.5 -44q-61 0 -98 38.5t-37 101.5q0 133 126.5 224t334.5 91q235 0 358 -113q55 -52 71.5 -116t16.5 -170v-285 q0 -114 17.5 -166.5t60.5 -52.5q18 0 37 16v-65q-40 -51 -103.5 -79t-140.5 -28q-178 0 -235 162q-150 -172 -336 -172q-123 0 -199.5 70t-76.5 178zM297 1165q26 135 82.5 201t148.5 66q31 0 78 -13l121 -30q41 -9 45 -9q38 0 60 22.5t36 70.5h82q-26 -132 -84 -199.5 t-143 -67.5q-24 0 -70 11l-116 32q-46 11 -58 11q-79 0 -98 -95h-84zM475 287q0 -65 25.5 -102.5t66.5 -37.5q22 0 38 6t26 22.5t15.5 33t8.5 50.5t3.5 61t0.5 79v191q-184 -73 -184 -303z" />
<glyph unicode="&#xe4;" horiz-adv-x="1204" d="M66 205q0 50 15.5 93t50.5 82t80 72.5t117 69.5t147 68t183 74v71q0 109 -28 159t-94 50q-53 0 -88 -32t-35 -78q0 -24 2 -58t2 -43q0 -74 -41.5 -118t-106.5 -44q-61 0 -98 38.5t-37 101.5q0 133 126.5 224t334.5 91q235 0 358 -113q55 -52 71.5 -116t16.5 -170v-285 q0 -114 17.5 -166.5t60.5 -52.5q18 0 37 16v-65q-40 -51 -103.5 -79t-140.5 -28q-178 0 -235 162q-150 -172 -336 -172q-123 0 -199.5 70t-76.5 178zM285 1321q0 57 43 99t102 42q60 0 100.5 -41t40.5 -100q0 -63 -40 -104t-101 -41q-60 0 -102.5 42t-42.5 103zM475 287 q0 -65 25.5 -102.5t66.5 -37.5q22 0 38 6t26 22.5t15.5 33t8.5 50.5t3.5 61t0.5 79v191q-184 -73 -184 -303zM676 1321q0 57 42.5 99t100.5 42q60 0 102 -41t42 -100q0 -63 -41 -104t-103 -41q-60 0 -101.5 42t-41.5 103z" />
<glyph unicode="&#xe5;" horiz-adv-x="1204" d="M66 205q0 50 15.5 93t50.5 82t80 72.5t117 69.5t147 68t183 74v71q0 109 -28 159t-94 50q-53 0 -88 -32t-35 -78q0 -24 2 -58t2 -43q0 -74 -41.5 -118t-106.5 -44q-61 0 -98 38.5t-37 101.5q0 133 126.5 224t334.5 91q235 0 358 -113q55 -52 71.5 -116t16.5 -170v-285 q0 -114 17.5 -166.5t60.5 -52.5q18 0 37 16v-65q-40 -51 -103.5 -79t-140.5 -28q-178 0 -235 162q-150 -172 -336 -172q-123 0 -199.5 70t-76.5 178zM365 1356q0 111 77 188.5t189 77.5t189 -77.5t77 -188.5q0 -112 -76.5 -189t-189.5 -77t-189.5 77t-76.5 189zM475 287 q0 -65 25.5 -102.5t66.5 -37.5q22 0 38 6t26 22.5t15.5 33t8.5 50.5t3.5 61t0.5 79v191q-184 -73 -184 -303zM508 1356q0 -52 35 -86.5t88 -34.5q51 0 86 35t35 86t-35 87t-86 36q-53 0 -88 -35.5t-35 -87.5z" />
<glyph unicode="&#xe6;" horiz-adv-x="1611" d="M66 205q0 60 24 111.5t65.5 93t117 85.5t158.5 81t210 88v71q0 109 -27.5 159t-91.5 50q-52 0 -85.5 -32t-33.5 -78q0 -27 2.5 -60.5t2.5 -38.5q0 -74 -40.5 -119t-103.5 -45q-60 0 -95.5 38.5t-35.5 101.5q0 134 123.5 224.5t325.5 90.5q182 0 301 -76q119 76 247 76 q188 0 301 -118t113 -320h-561q6 -181 114.5 -297.5t256.5 -116.5q109 0 186 86v-94q-169 -209 -416 -209q-128 0 -235.5 61.5t-179.5 176.5q-73 -116 -170.5 -177t-204.5 -61q-119 0 -193.5 69.5t-74.5 178.5zM455 287q0 -65 25 -102.5t67 -37.5q94 0 94 154v289 q-91 -35 -138.5 -112.5t-47.5 -190.5zM981 659h90q36 0 55 0.5t43.5 2.5t36 6.5t25.5 12.5t19.5 20t9.5 29.5t4 41.5q0 178 -125 178q-82 0 -120 -71.5t-38 -219.5z" />
<glyph unicode="&#xe7;" horiz-adv-x="1058" d="M57 479q0 120 47.5 228t135.5 186q152 133 352 133q172 0 282.5 -86t110.5 -213q0 -71 -47.5 -119.5t-118.5 -48.5q-64 0 -105.5 45.5t-41.5 110.5q0 52 -2 84.5t-8.5 64.5t-19.5 48.5t-35 27t-54 10.5q-75 0 -114.5 -65.5t-39.5 -192.5q0 -233 118.5 -375.5 t295.5 -142.5q112 0 195 86v-94q-178 -209 -439 -209q-226 0 -369 144t-143 378zM272 -395l47 100q131 -76 244 -76q35 0 57.5 20.5t22.5 55.5q0 82 -90 82q-31 0 -64 -8v221h89v-133q38 6 67 6q87 0 136.5 -45.5t49.5 -124.5q0 -85 -60 -136.5t-157 -51.5q-77 0 -155 22 t-187 68z" />
<glyph unicode="&#xe8;" horiz-adv-x="1062" d="M55 475q0 201 117 356q63 87 171.5 141t221.5 54q193 0 310.5 -118.5t117.5 -319.5h-579q6 -181 117 -297.5t264 -116.5q117 0 194 86v-94q-175 -209 -430 -209q-114 0 -213.5 46t-171.5 132q-119 140 -119 340zM233 1417q0 46 32.5 77.5t78.5 31.5q38 0 74.5 -23 t81.5 -71l278 -297h-114l-326 163q-55 27 -80 54.5t-25 64.5zM412 659h92q37 0 56.5 0.5t45 2.5t37 6.5t26 12.5t20 20t9.5 29.5t4 41.5q0 178 -129 178q-85 0 -123 -70.5t-38 -220.5z" />
<glyph unicode="&#xe9;" horiz-adv-x="1062" d="M55 475q0 201 117 356q63 87 171.5 141t221.5 54q193 0 310.5 -118.5t117.5 -319.5h-579q6 -181 117 -297.5t264 -116.5q117 0 194 86v-94q-175 -209 -430 -209q-114 0 -213.5 46t-171.5 132q-119 140 -119 340zM352 1135l279 297q45 48 81 71t74 23q46 0 78.5 -31.5 t32.5 -77.5q0 -37 -25 -64.5t-79 -54.5l-326 -163h-115zM412 659h92q37 0 56.5 0.5t45 2.5t37 6.5t26 12.5t20 20t9.5 29.5t4 41.5q0 178 -129 178q-85 0 -123 -70.5t-38 -220.5z" />
<glyph unicode="&#xea;" horiz-adv-x="1062" d="M55 475q0 201 117 356q63 87 171.5 141t221.5 54q193 0 310.5 -118.5t117.5 -319.5h-579q6 -181 117 -297.5t264 -116.5q117 0 194 86v-94q-175 -209 -430 -209q-114 0 -213.5 46t-171.5 132q-119 140 -119 340zM244 1135l229 370h184l230 -370h-101l-221 170l-221 -170 h-100zM412 659h92q37 0 56.5 0.5t45 2.5t37 6.5t26 12.5t20 20t9.5 29.5t4 41.5q0 178 -129 178q-85 0 -123 -70.5t-38 -220.5z" />
<glyph unicode="&#xeb;" horiz-adv-x="1062" d="M55 475q0 201 117 356q63 87 171.5 141t221.5 54q193 0 310.5 -118.5t117.5 -319.5h-579q6 -181 117 -297.5t264 -116.5q117 0 194 86v-94q-175 -209 -430 -209q-114 0 -213.5 46t-171.5 132q-119 140 -119 340zM225 1321q0 57 43.5 99t102.5 42q60 0 100.5 -41 t40.5 -100q0 -63 -40 -104t-101 -41q-60 0 -103 42t-43 103zM412 659h92q37 0 56.5 0.5t45 2.5t37 6.5t26 12.5t20 20t9.5 29.5t4 41.5q0 178 -129 178q-85 0 -123 -70.5t-38 -220.5zM616 1321q0 57 43 99t101 42q60 0 101.5 -41t41.5 -100q0 -63 -40.5 -104t-102.5 -41 q-60 0 -102 42t-42 103z" />
<glyph unicode="&#xec;" horiz-adv-x="696" d="M6 831q231 73 551 203v-831q0 -76 27.5 -110.5t91.5 -35.5v-57h-633v57h6q67 0 95 34.5t28 111.5v424q0 46 -10 66.5t-47 49.5zM16 1417q0 46 32.5 77.5t78.5 31.5q38 0 74.5 -23t81.5 -71l278 -297h-115l-325 163q-55 27 -80 54.5t-25 64.5z" />
<glyph unicode="&#xed;" horiz-adv-x="696" d="M6 831q231 73 551 203v-831q0 -76 27.5 -110.5t91.5 -35.5v-57h-633v57h6q67 0 95 34.5t28 111.5v424q0 46 -10 66.5t-47 49.5zM135 1135l279 297q45 48 81 71t74 23q46 0 78.5 -31.5t32.5 -77.5q0 -37 -25 -64.5t-80 -54.5l-325 -163h-115z" />
<glyph unicode="&#xee;" horiz-adv-x="696" d="M6 831q231 73 551 203v-831q0 -76 27.5 -110.5t91.5 -35.5v-57h-633v57h6q67 0 95 34.5t28 111.5v424q0 46 -10 66.5t-47 49.5zM27 1135l229 370h184l230 -370h-101l-221 170l-221 -170h-100z" />
<glyph unicode="&#xef;" horiz-adv-x="696" d="M6 831q231 73 551 203v-831q0 -76 27.5 -110.5t91.5 -35.5v-57h-633v57h6q67 0 95 34.5t28 111.5v424q0 46 -10 66.5t-47 49.5zM8 1321q0 57 43.5 99t102.5 42q60 0 100.5 -41t40.5 -100q0 -63 -40 -104t-101 -41q-60 0 -103 42t-43 103zM399 1321q0 57 43 99t101 42 q60 0 101.5 -41t41.5 -100q0 -63 -40.5 -104t-102.5 -41q-60 0 -102 42t-42 103z" />
<glyph unicode="&#xf0;" horiz-adv-x="1280" d="M57 465q0 217 156 358q78 71 182.5 109.5t218.5 38.5q89 0 144 -17q-52 107 -109 189l-280 -92l-25 61l268 90q-73 105 -141 187l102 45q106 -64 234 -166l280 96l25 -61l-246 -86q187 -165 277 -331t90 -358q0 -264 -158 -417.5t-432 -153.5q-260 0 -423 143t-163 365z M479 465q0 -83 1.5 -136t7 -108t16.5 -86.5t28.5 -57.5t43.5 -37t63 -11q36 0 62.5 11t44 37t28.5 58t17 85.5t8 108.5t2 136t-2 136t-8 108t-17 85t-28.5 57.5t-44 36.5t-62.5 11q-31 0 -55 -9t-41 -24.5t-28.5 -44.5t-18.5 -60t-11 -80.5t-5 -97t-1 -118.5z" />
<glyph unicode="&#xf1;" horiz-adv-x="1304" d="M-10 784q241 85 532 250v-170q121 160 320 160q164 0 244.5 -84t80.5 -254v-483q0 -77 28 -111.5t95 -34.5h6v-57h-514v676q0 103 -24.5 147.5t-91.5 44.5q-61 0 -85 -45.5t-24 -146.5v-473q0 -76 27.5 -110.5t91.5 -35.5v-57h-633v57h6q67 0 95 34.5t28 111.5v377 q0 44 -10.5 67.5t-46.5 48.5zM326 1165q26 135 83 201t148 66q31 0 78 -13l121 -30q40 -9 45 -9q37 0 59.5 22.5t36.5 70.5h82q-26 -132 -84 -199.5t-143 -67.5q-24 0 -70 11l-117 32q-46 11 -57 11q-79 0 -98 -95h-84z" />
<glyph unicode="&#xf2;" horiz-adv-x="1280" d="M57 492q0 240 159.5 386t422.5 146t423.5 -147t160.5 -385q0 -239 -160.5 -387t-423.5 -148t-422.5 147.5t-159.5 387.5zM309 1417q0 46 32.5 77.5t78.5 31.5q38 0 74 -23t81 -71l279 -297h-115l-325 163q-55 27 -80 54.5t-25 64.5zM479 492q0 -74 1 -124t5 -102.5 t11 -85.5t18.5 -64t28.5 -47.5t41 -26t55 -9.5q36 0 62.5 11.5t44 39t28.5 61.5t17 90.5t8 114t2 142.5t-2 142.5t-8 113.5t-17 89.5t-28.5 60.5t-44 38.5t-62.5 11.5q-31 0 -55 -9.5t-41 -26t-28.5 -47t-18.5 -63t-11 -85t-5 -102t-1 -123.5z" />
<glyph unicode="&#xf3;" horiz-adv-x="1280" d="M57 492q0 240 159.5 386t422.5 146t423.5 -147t160.5 -385q0 -239 -160.5 -387t-423.5 -148t-422.5 147.5t-159.5 387.5zM428 1135l279 297q45 48 81 71t74 23q46 0 78.5 -31.5t32.5 -77.5q0 -37 -25 -64.5t-80 -54.5l-325 -163h-115zM479 492q0 -74 1 -124t5 -102.5 t11 -85.5t18.5 -64t28.5 -47.5t41 -26t55 -9.5q36 0 62.5 11.5t44 39t28.5 61.5t17 90.5t8 114t2 142.5t-2 142.5t-8 113.5t-17 89.5t-28.5 60.5t-44 38.5t-62.5 11.5q-31 0 -55 -9.5t-41 -26t-28.5 -47t-18.5 -63t-11 -85t-5 -102t-1 -123.5z" />
<glyph unicode="&#xf4;" horiz-adv-x="1280" d="M57 492q0 240 159.5 386t422.5 146t423.5 -147t160.5 -385q0 -239 -160.5 -387t-423.5 -148t-422.5 147.5t-159.5 387.5zM319 1135l230 370h184l230 -370h-101l-221 170l-221 -170h-101zM479 492q0 -74 1 -124t5 -102.5t11 -85.5t18.5 -64t28.5 -47.5t41 -26t55 -9.5 q36 0 62.5 11.5t44 39t28.5 61.5t17 90.5t8 114t2 142.5t-2 142.5t-8 113.5t-17 89.5t-28.5 60.5t-44 38.5t-62.5 11.5q-31 0 -55 -9.5t-41 -26t-28.5 -47t-18.5 -63t-11 -85t-5 -102t-1 -123.5z" />
<glyph unicode="&#xf5;" horiz-adv-x="1280" d="M57 492q0 240 159.5 386t422.5 146t423.5 -147t160.5 -385q0 -239 -160.5 -387t-423.5 -148t-422.5 147.5t-159.5 387.5zM313 1165q26 134 83 200.5t149 66.5q31 0 78 -13l120 -30q40 -9 45 -9q38 0 60.5 22.5t36.5 70.5h82q-26 -131 -84.5 -199t-143.5 -68q-23 0 -69 11 l-117 32q-46 11 -57 11q-80 0 -99 -95h-84zM479 492q0 -74 1 -124t5 -102.5t11 -85.5t18.5 -64t28.5 -47.5t41 -26t55 -9.5q36 0 62.5 11.5t44 39t28.5 61.5t17 90.5t8 114t2 142.5t-2 142.5t-8 113.5t-17 89.5t-28.5 60.5t-44 38.5t-62.5 11.5q-31 0 -55 -9.5t-41 -26 t-28.5 -47t-18.5 -63t-11 -85t-5 -102t-1 -123.5z" />
<glyph unicode="&#xf6;" horiz-adv-x="1280" d="M57 492q0 240 159.5 386t422.5 146t423.5 -147t160.5 -385q0 -239 -160.5 -387t-423.5 -148t-422.5 147.5t-159.5 387.5zM301 1321q0 57 43 99t102 42q60 0 101 -41t41 -100q0 -63 -40 -104t-102 -41q-60 0 -102.5 42t-42.5 103zM479 492q0 -74 1 -124t5 -102.5t11 -85.5 t18.5 -64t28.5 -47.5t41 -26t55 -9.5q36 0 62.5 11.5t44 39t28.5 61.5t17 90.5t8 114t2 142.5t-2 142.5t-8 113.5t-17 89.5t-28.5 60.5t-44 38.5t-62.5 11.5q-31 0 -55 -9.5t-41 -26t-28.5 -47t-18.5 -63t-11 -85t-5 -102t-1 -123.5zM692 1321q0 57 43 99t101 42 q60 0 101.5 -41t41.5 -100q0 -63 -40.5 -104t-102.5 -41q-60 0 -102 42t-42 103z" />
<glyph unicode="&#xf7;" horiz-adv-x="1705" d="M254 496v231h1198v-231h-1198zM688 205q0 69 49 117.5t117 48.5t116 -48.5t48 -117.5q0 -67 -47.5 -115.5t-116.5 -48.5q-68 0 -117 48t-49 116zM688 1016q0 69 49 117.5t117 48.5q66 0 115 -49t49 -117q0 -67 -48 -115.5t-118 -48.5q-69 0 -116.5 48t-47.5 116z" />
<glyph unicode="&#xf8;" horiz-adv-x="1280" d="M57 492q0 246 161.5 389t445.5 143q48 0 163 -23l86 199h72l-92 -221q162 -64 246 -188.5t84 -298.5q0 -248 -163.5 -391.5t-455.5 -143.5q-51 0 -139 20l-94 -223h-72l104 240q-169 65 -257.5 192.5t-88.5 305.5zM479 492q0 -213 10 -287l281 653q-38 90 -131 90 q-31 0 -55 -9.5t-41 -26t-28.5 -47t-18.5 -63t-11 -85t-5 -102t-1 -123.5zM518 102q43 -69 121 -69q36 0 62.5 11.5t44 39t28.5 61.5t17 90.5t8 114t2 142.5q0 182 -8 258z" />
<glyph unicode="&#xf9;" horiz-adv-x="1304" d="M-29 784q178 65 568 250v-727q0 -103 24.5 -147.5t91.5 -44.5q61 0 86 46t25 146v273q0 46 -9.5 74.5t-35.5 50.5l-109 90q122 45 537 239v-831q0 -77 29 -111.5t96 -34.5h6v-57h-481v119q-119 -162 -330 -162q-315 0 -315 338v285q0 44 -11 67.5t-47 48.5zM322 1417 q0 46 32 77.5t78 31.5q38 0 74.5 -23t81.5 -71l278 -297h-114l-326 163q-54 27 -79 54.5t-25 64.5z" />
<glyph unicode="&#xfa;" horiz-adv-x="1304" d="M-29 784q178 65 568 250v-727q0 -103 24.5 -147.5t91.5 -44.5q61 0 86 46t25 146v273q0 46 -9.5 74.5t-35.5 50.5l-109 90q122 45 537 239v-831q0 -77 29 -111.5t96 -34.5h6v-57h-481v119q-119 -162 -330 -162q-315 0 -315 338v285q0 44 -11 67.5t-47 48.5zM440 1135 l279 297q45 48 81 71t74 23q46 0 78.5 -31.5t32.5 -77.5q0 -37 -25 -64.5t-79 -54.5l-326 -163h-115z" />
<glyph unicode="&#xfb;" horiz-adv-x="1304" d="M-29 784q178 65 568 250v-727q0 -103 24.5 -147.5t91.5 -44.5q61 0 86 46t25 146v273q0 46 -9.5 74.5t-35.5 50.5l-109 90q122 45 537 239v-831q0 -77 29 -111.5t96 -34.5h6v-57h-481v119q-119 -162 -330 -162q-315 0 -315 338v285q0 44 -11 67.5t-47 48.5zM332 1135 l229 370h184l230 -370h-101l-221 170l-221 -170h-100z" />
<glyph unicode="&#xfc;" horiz-adv-x="1304" d="M-29 784q178 65 568 250v-727q0 -103 24.5 -147.5t91.5 -44.5q61 0 86 46t25 146v273q0 46 -9.5 74.5t-35.5 50.5l-109 90q122 45 537 239v-831q0 -77 29 -111.5t96 -34.5h6v-57h-481v119q-119 -162 -330 -162q-315 0 -315 338v285q0 44 -11 67.5t-47 48.5zM313 1321 q0 57 43.5 99t102.5 42q60 0 100.5 -41t40.5 -100q0 -63 -40 -104t-101 -41q-60 0 -103 42t-43 103zM705 1321q0 57 42.5 99t100.5 42q60 0 101.5 -41t41.5 -100q0 -63 -40.5 -104t-102.5 -41q-60 0 -101.5 42t-41.5 103z" />
<glyph unicode="&#xfd;" horiz-adv-x="1095" d="M-139 -164q0 63 45 106.5t112 43.5q42 0 75.5 -17.5t80.5 -52.5q2 -2 3.5 -3t3 -2.5t3.5 -2.5q29 -21 44.5 -31t39.5 -19.5t47 -9.5q61 0 101.5 57t40.5 148q0 110 -95 295l-194 371q-58 111 -103 159t-108 48q-4 0 -11.5 -1t-11.5 -1v57h689v-57q-39 -1 -60.5 -16 t-21.5 -40q0 -30 28 -84l152 -301l108 234q37 75 37 129q0 42 -26 60t-82 18v57h381v-57h-4q-77 0 -123 -47t-103 -164l-260 -545q-128 -269 -257 -396.5t-288 -127.5q-110 0 -176.5 55t-66.5 137zM336 1135l278 297q45 48 81.5 71t74.5 23q46 0 78.5 -31.5t32.5 -77.5 q0 -37 -25 -64.5t-80 -54.5l-325 -163h-115z" />
<glyph unicode="&#xfe;" horiz-adv-x="1294" d="M-12 1229q236 75 549 203v-529q106 121 256 121q196 0 320 -148.5t124 -388.5q0 -250 -145.5 -391t-399.5 -141q-66 0 -155 12v-196q0 -78 29.5 -112t99.5 -34h30v-57h-704v57h31q70 0 100.5 34t30.5 112v1253q0 44 -10.5 66t-47.5 51zM535 453q0 -96 2.5 -156.5 t10.5 -117t23.5 -87t41 -48t63.5 -17.5q32 0 54.5 10.5t38 36.5t24.5 57t14 84t6.5 105t1.5 133t-1.5 133t-6.5 105t-14 84t-24.5 57t-38 36.5t-54.5 10.5t-55 -10.5t-38.5 -36.5t-25 -57t-14.5 -84t-6.5 -105t-1.5 -133z" />
<glyph unicode="&#xff;" horiz-adv-x="1095" d="M-139 -164q0 63 45 106.5t112 43.5q42 0 75.5 -17.5t80.5 -52.5q2 -2 3.5 -3t3 -2.5t3.5 -2.5q29 -21 44.5 -31t39.5 -19.5t47 -9.5q61 0 101.5 57t40.5 148q0 110 -95 295l-194 371q-58 111 -103 159t-108 48q-4 0 -11.5 -1t-11.5 -1v57h689v-57q-39 -1 -60.5 -16 t-21.5 -40q0 -30 28 -84l152 -301l108 234q37 75 37 129q0 42 -26 60t-82 18v57h381v-57h-4q-77 0 -123 -47t-103 -164l-260 -545q-128 -269 -257 -396.5t-288 -127.5q-110 0 -176.5 55t-66.5 137zM209 1321q0 57 43 99t102 42q60 0 101 -41t41 -100q0 -63 -40 -104 t-102 -41q-60 0 -102.5 42t-42.5 103zM600 1321q0 57 42.5 99t100.5 42q60 0 102 -41t42 -100q0 -63 -41 -104t-103 -41q-60 0 -101.5 42t-41.5 103z" />
<glyph unicode="&#x152;" horiz-adv-x="2199" d="M70 709q0 331 225 544q201 189 485 189q94 0 236 -29h756q148 0 198 53q41 -217 115 -374l-57 -23q-87 138 -191.5 197t-257.5 59h-82v-502q146 2 217.5 43.5t77.5 132.5h59v-450h-59q-7 107 -75 157t-204 50h-16v-426q0 -138 34.5 -193t139.5 -55q133 0 255 92.5 t194 255.5l53 -24l-137 -406h-1035q-122 -25 -213 -25q-195 0 -346 82q-179 98 -275.5 267.5t-96.5 384.5zM516 709q0 -221 12 -348.5t47 -190.5q66 -121 216 -121q147 0 213 121q35 63 47 190.5t12 348.5q0 93 -1.5 159t-6.5 134.5t-13.5 114.5t-22.5 90.5t-34 72t-47.5 49 t-64 30.5t-82.5 9q-53 0 -93 -13.5t-69 -37t-49.5 -66.5t-33 -91.5t-19 -122.5t-9 -148t-2.5 -180z" />
<glyph unicode="&#x153;" horiz-adv-x="1763" d="M57 492q0 241 154.5 386.5t411.5 145.5q221 0 362 -109q138 111 299 111q187 0 299.5 -118.5t112.5 -319.5h-561q6 -181 113 -297.5t255 -116.5q112 0 189 86v-94q-84 -102 -189.5 -155.5t-220.5 -53.5q-173 0 -305 104q-162 -104 -354 -104q-256 0 -411 147.5 t-155 387.5zM467 492q0 -74 1.5 -124.5t5 -102.5t11 -85.5t19 -64t29 -47t41.5 -26t55 -9.5q37 0 63.5 11.5t44.5 38.5t29 61t17 90.5t8 114t2 143.5t-2 143.5t-8 113.5t-17 89.5t-29 60t-44.5 38t-63.5 11.5t-63 -11t-44 -38.5t-29 -60.5t-16.5 -89.5t-7.5 -113t-2 -143.5z M1133 659h90q36 0 55 0.5t43.5 2.5t36 6.5t25 12.5t19 20t9.5 29.5t4 41.5q0 178 -125 178q-82 0 -118.5 -70.5t-38.5 -220.5z" />
<glyph unicode="&#x178;" horiz-adv-x="1255" d="M-96 1356v57h835v-57q-125 0 -125 -82q0 -44 52 -135l149 -269l139 236q70 118 70 170q0 37 -23.5 55.5t-76.5 24.5v57h407v-57q-84 -7 -140 -55.5t-116 -151.5l-201 -340v-576q0 -97 32.5 -133.5t127.5 -42.5v-57h-770v57q95 6 127.5 42.5t32.5 133.5v474l-281 469 q-58 96 -108.5 138t-124.5 42h-6zM289 1753q0 57 43 99t102 42q60 0 100.5 -41t40.5 -100q0 -63 -40 -104t-101 -41q-60 0 -102.5 42t-42.5 103zM680 1753q0 57 42.5 99t100.5 42q60 0 102 -41t42 -100q0 -63 -41 -104t-103 -41q-60 0 -101.5 42t-41.5 103z" />
<glyph unicode="&#x2c6;" d="M190 1135l230 370h184l230 -370h-101l-221 170l-221 -170h-101z" />
<glyph unicode="&#x2dc;" d="M184 1165q52 267 232 267q31 0 78 -13l120 -30q40 -9 45 -9q38 0 60.5 22.5t36.5 70.5h82q-26 -131 -84.5 -199t-143.5 -68q-23 0 -69 11l-117 32q-46 11 -57 11q-80 0 -99 -95h-84z" />
<glyph unicode="&#x2000;" horiz-adv-x="986" />
<glyph unicode="&#x2001;" horiz-adv-x="1972" />
<glyph unicode="&#x2002;" horiz-adv-x="986" />
<glyph unicode="&#x2003;" horiz-adv-x="1972" />
<glyph unicode="&#x2004;" horiz-adv-x="657" />
<glyph unicode="&#x2005;" horiz-adv-x="493" />
<glyph unicode="&#x2006;" horiz-adv-x="328" />
<glyph unicode="&#x2007;" horiz-adv-x="328" />
<glyph unicode="&#x2008;" horiz-adv-x="246" />
<glyph unicode="&#x2009;" horiz-adv-x="394" />
<glyph unicode="&#x200a;" horiz-adv-x="109" />
<glyph unicode="&#x2010;" horiz-adv-x="729" d="M117 420v166h497v-166h-497z" />
<glyph unicode="&#x2011;" horiz-adv-x="729" d="M117 420v166h497v-166h-497z" />
<glyph unicode="&#x2012;" horiz-adv-x="729" d="M117 420v166h497v-166h-497z" />
<glyph unicode="&#x2013;" d="M0 440v123h1024v-123h-1024z" />
<glyph unicode="&#x2014;" horiz-adv-x="2048" d="M0 440v123h2048v-123h-2048z" />
<glyph unicode="&#x2018;" horiz-adv-x="735" d="M190 1114q0 131 77 226.5t198 115.5l27 -55q-146 -21 -170 -160q34 12 63 12q79 0 130.5 -51t51.5 -129t-53.5 -131t-132.5 -53q-90 0 -140.5 59t-50.5 166z" />
<glyph unicode="&#x2019;" horiz-adv-x="735" d="M190 1270q0 78 54 131t133 53q90 0 140 -59t50 -166q0 -131 -76.5 -226.5t-197.5 -115.5l-27 55q146 21 170 158q-29 -10 -65 -10q-79 0 -130 51t-51 129z" />
<glyph unicode="&#x201a;" horiz-adv-x="735" d="M172 143q0 78 53.5 132.5t132.5 54.5q89 0 140 -60.5t51 -167.5q0 -130 -76.5 -225t-198.5 -115l-28 56q146 21 170 157q-29 -10 -64 -10q-79 0 -129.5 50t-50.5 128z" />
<glyph unicode="&#x201c;" horiz-adv-x="1175" d="M190 1114q0 130 76.5 225t198.5 115l27 -55q-146 -21 -170 -158q34 12 63 12q79 0 130.5 -51t51.5 -129t-53.5 -132t-132.5 -54q-89 0 -140 60t-51 167zM633 1114q0 131 76.5 226.5t197.5 115.5l27 -55q-146 -21 -170 -160q35 12 63 12q79 0 131 -51t52 -129t-54 -131 t-133 -53q-90 0 -140 59t-50 166z" />
<glyph unicode="&#x201d;" horiz-adv-x="1175" d="M190 1268q0 78 54 132t133 54q89 0 139.5 -60t50.5 -167q0 -131 -76.5 -225.5t-197.5 -114.5l-29 55q146 21 170 158q-37 -13 -63 -13q-79 0 -130 51.5t-51 129.5zM633 1270q0 78 53.5 131t132.5 53q90 0 140.5 -59t50.5 -166q0 -131 -77 -226.5t-198 -115.5l-28 55 q146 21 170 158q-29 -10 -64 -10q-79 0 -129.5 51t-50.5 129z" />
<glyph unicode="&#x201e;" horiz-adv-x="1175" d="M172 143q0 78 53.5 132.5t132.5 54.5q89 0 140 -60.5t51 -167.5q0 -130 -76.5 -225t-198.5 -115l-28 56q146 21 170 157q-29 -10 -64 -10q-79 0 -129.5 50t-50.5 128zM612 143q0 78 54 132.5t133 54.5q89 0 139.5 -60.5t50.5 -167.5q0 -131 -76.5 -225.5t-197.5 -114.5 l-27 56q146 21 170 157q-29 -10 -65 -10q-79 0 -130 50t-51 128z" />
<glyph unicode="&#x2022;" horiz-adv-x="1208" d="M307 762q0 123 87 209t210 86q122 0 208.5 -86t86.5 -209q0 -122 -87 -209.5t-210 -87.5t-209 87t-86 210z" />
<glyph unicode="&#x2026;" horiz-adv-x="2048" d="M154 143q0 78 54.5 133.5t131.5 55.5q78 0 133 -55.5t55 -133.5t-55 -132t-133 -54t-132 54t-54 132zM836 143q0 78 54.5 133.5t131.5 55.5q78 0 133 -55.5t55 -133.5t-55 -132t-133 -54t-132 54t-54 132zM1520 143q0 78 54.5 133.5t131.5 55.5q78 0 133 -55.5t55 -133.5 t-55 -132t-133 -54t-132 54t-54 132z" />
<glyph unicode="&#x202f;" horiz-adv-x="394" />
<glyph unicode="&#x2039;" horiz-adv-x="630" d="M72 489l334 439h163l-186 -439l186 -436h-163z" />
<glyph unicode="&#x203a;" horiz-adv-x="630" d="M59 53l189 436l-189 439h164l334 -439l-334 -436h-164z" />
<glyph unicode="&#x205f;" horiz-adv-x="493" />
<glyph unicode="&#x2122;" horiz-adv-x="1683" d="M217 1262l12 198h457l12 -198h-36q-6 78 -37.5 115.5t-92.5 37.5v-420q0 -43 31 -49l31 -6v-33h-272v33l30 6q31 6 31 49v420h-4q-115 0 -127 -153h-35zM745 907v33l35 6q35 6 35 49v375q0 43 -35 49l-35 6v35h222l127 -356l123 356h206v-26l-22 -7q-20 -4 -27.5 -15.5 t-7.5 -33.5v-383q0 -22 7.5 -33.5t27.5 -15.5l22 -6v-33h-260v33l31 6q35 6 35 49v355l-148 -445h-43l-166 457v-367q0 -43 35 -49l35 -6v-33h-197z" />
<glyph unicode="&#x25fc;" horiz-adv-x="983" d="M0 0v983h983v-983h-983z" />
<glyph unicode="&#xfb01;" horiz-adv-x="1417" d="M37 0v57h6q67 0 95 34.5t28 111.5v702h-98v56q57 52 124 132t80 93q126 127 254.5 186.5t298.5 59.5q169 0 262 -56.5t93 -150.5q0 -67 -47.5 -109.5t-124.5 -42.5q-52 0 -91.5 22.5t-80.5 71.5q-8 9 -28 34t-27.5 33.5t-24 26t-27.5 24.5t-27 16.5t-33 12.5t-36 3 q-67 0 -109.5 -37t-42.5 -96q0 -18 6 -42t13 -43t22 -57t23 -61h370q244 0 361 53v-831q0 -75 28.5 -110t92.5 -36v-57h-633v57h6q67 0 95 34.5t28 111.5v557q0 86 -24 115.5t-101 29.5h-217v-702q0 -79 28.5 -112.5t98.5 -33.5h14v-57h-655z" />
<glyph unicode="&#xfb02;" horiz-adv-x="1417" d="M37 0v57h6q67 0 95 34.5t28 111.5v702h-98v56q49 43 110.5 131t77.5 106q108 124 223 179t277 55q188 0 284 -93q117 42 236 93v-1229q0 -77 28 -111.5t95 -34.5h6v-57h-643v57h6q67 0 95 34.5t28 111.5v874q-26 4 -47.5 14t-39.5 27.5t-29 31.5t-28.5 39.5t-27.5 37.5 q-74 92 -154 92q-58 0 -97.5 -35t-39.5 -86q0 -34 22.5 -66.5t52.5 -71.5t42 -79h188v-76h-182v-702q0 -79 28.5 -112.5t98.5 -33.5h14v-57h-655z" />
</font>
</defs>
</svg>
