<svg enable-background="new 0 0 100 50" height="50" viewBox="0 0 100 50" width="100" xmlns="http://www.w3.org/2000/svg"><g fill="#fff"><path d="m4.105 29.75-1.076-2.343h-.353v3.303h.353v-2.511l.919 1.991h.301l.905-1.991v2.511h.353v-3.303h-.353z"/><path d="m6.697 30.71h2.051v-.315h-1.698v-1.193h1.447v-.315h-1.447v-1.165h1.698v-.315h-2.051z"/><path d="m11.144 29.75-1.076-2.343h-.353v3.303h.353v-2.511l.918 1.991h.302l.905-1.991v2.511h.353v-3.303h-.353z"/><path d="m15.462 29.012c.279-.102.487-.376.487-.724 0-.552-.399-.881-.974-.881h-1.244v3.303h1.285c.585 0 .984-.315.984-.914 0-.395-.223-.668-.538-.784zm-1.378-1.29h.863c.366 0 .65.176.65.571 0 .394-.283.575-.65.575h-.863zm.9 2.673h-.9v-1.211h.9c.408 0 .664.231.664.603 0 .37-.256.608-.664.608z"/><path d="m19.116 30.395h-1.699v-1.193h1.448v-.315h-1.448v-1.165h1.699v-.315h-2.051v3.303h2.051z"/><path d="m22.393 30.71-.784-1.498c.427-.089.719-.404.719-.887 0-.571-.404-.918-.979-.918h-1.267v3.303h.353v-1.466h.793l.752 1.466zm-1.958-1.777v-1.211h.882c.385 0 .659.204.659.607 0 .404-.274.604-.659.604z"/><path d="m25.774 27.379c-.329 0-.622.121-.845.343-.311.311-.311.635-.311 1.336 0 .7 0 1.025.311 1.336.223.223.515.343.845.343.329 0 .622-.121.845-.343.311-.311.311-.636.311-1.336 0-.701 0-1.026-.311-1.336-.223-.223-.516-.343-.845-.343zm.571 2.806c-.144.148-.352.237-.571.237-.218 0-.427-.089-.571-.237-.209-.213-.232-.436-.232-1.127s.023-.914.232-1.128c.144-.148.353-.236.571-.236s.427.088.571.236c.209.214.232.437.232 1.128s-.023.914-.232 1.127z"/><path d="m28.347 29.253h1.448v-.315h-1.448v-1.216h1.698v-.315h-2.051v3.303h.353z"/><path d="m47.928 27.935c.275.026.567.044.567.044l1.018-1.018s-.563-.046-.986-.118c-.911-.15-2.855-.493-4.228-1.919-1.103-1.383.02-2.391.538-2.751 1.519-1.096 5.241-2.407 11.072-2.071l5.514-5.491s-12.208-.565-19.157 3.574c-1.901 1.132-2.749 2.388-2.81 3.591-.17 3.977 5.943 5.94 8.472 6.159z"/><path d="m66.13 12.269c-.275-.026-.567-.044-.567-.044l-1.018 1.017s.563.047.986.117c.911.152 2.855.495 4.227 1.92 1.104 1.383-.02 2.391-.537 2.75-1.519 1.097-5.241 2.407-11.072 2.071l-5.514 5.491s12.208.565 19.157-3.573c1.901-1.132 2.748-2.388 2.81-3.591.172-3.976-5.943-5.938-8.472-6.158z"/><path d="m19.643 34.507c-1.338-.343-1.593-.396-1.593-.808 0-.448.435-.605.808-.605.561 0 1.017.163 1.055.808h1.136c0-1.234-1.025-1.72-2.138-1.72-.965 0-1.997.523-1.997 1.614 0 1.002.8 1.309 1.593 1.518.786.21 1.585.307 1.585.883 0 .545-.629.664-1.039.664-.629 0-1.182-.275-1.182-.986h-1.136c-.016 1.315 1.092 1.899 2.272 1.899 1.451 0 2.221-.733 2.221-1.713 0-1.209-1.196-1.456-1.585-1.554z"/><path d="m25.319 35.629c0 .792-.27 1.158-1.107 1.158-.95 0-1.099-.574-1.099-1.158v-3.319h-1.174v3.319c0 1.452.838 2.146 2.273 2.146 1.428 0 2.281-.703 2.281-2.146v-3.319h-1.174z"/><path d="m31.137 35.135v-.014c.591-.24.844-.712.844-1.339 0-.808-.606-1.472-1.562-1.472h-2.88v5.337h1.175v-2.085h1.174c.59 0 .808.246.889.807.06.426.045.942.188 1.278h1.174c-.21-.299-.202-.926-.225-1.264-.037-.537-.202-1.098-.777-1.248zm-1.138-.41h-1.285v-1.503h1.285c.524 0 .808.224.808.741.001.536-.284.762-.808.762z"/><path d="m34.151 33.296h2.579v-.986h-3.754v5.337h1.175v-2.205h2.235v-.912h-2.235z"/><path d="m38.495 32.31-2.026 5.337h1.189l.418-1.189h1.997l.404 1.189h1.219l-1.996-5.337zm-.113 3.274.696-1.959h.016l.673 1.959z"/><path d="m44.589 36.787c-1.054 0-1.45-.896-1.45-1.786 0-.934.396-1.831 1.45-1.831.584 0 1.092.403 1.166.934h1.137c-.142-1.234-1.13-1.921-2.304-1.921-1.652 0-2.626 1.234-2.626 2.819 0 1.54.974 2.774 2.626 2.774 1.309 0 2.228-.853 2.348-2.183h-1.137c-.088.702-.491 1.194-1.21 1.194z"/><path d="m48.949 35.351h2.588v-.911h-2.588v-1.144h2.819v-.986h-3.993v5.337h4.054v-.987h-2.88z"/><path d="m56.644 32.31-2.026 5.337h1.189l.419-1.189h1.997l.405 1.189h1.218l-1.996-5.337zm-.113 3.274.696-1.959h.014l.674 1.959z"/><path d="m62.305 32.31h-1.173v5.337h3.775v-.987h-2.602z"/><path d="m67.412 32.31h-1.174v5.337h3.776v-.987h-2.602z"/><path d="m71.42 32.31h1.175v5.337h-1.175z"/><path d="m76.056 32.31-2.026 5.337h1.189l.419-1.189h1.996l.405 1.189h1.218l-1.997-5.337zm-.112 3.274.696-1.959h.015l.672 1.959z"/><path d="m84.103 35.891h-.015l-2.228-3.581h-1.166v5.337h1.098v-3.573h.016l2.22 3.573h1.174v-5.337h-1.099z"/><path d="m89.375 36.787c-1.054 0-1.45-.896-1.45-1.786 0-.934.396-1.831 1.45-1.831.584 0 1.091.403 1.166.934h1.137c-.142-1.234-1.13-1.921-2.304-1.921-1.652 0-2.625 1.234-2.625 2.819 0 1.54.973 2.774 2.625 2.774 1.309 0 2.228-.853 2.348-2.183h-1.137c-.088.702-.492 1.194-1.21 1.194z"/><path d="m94.444 35.351h2.589v-.911h-2.589v-1.144h2.82v-.986h-3.994v5.337h4.054v-.987h-2.88z"/></g></svg>