<svg enable-background="new 0 0 100 50" height="50" viewBox="0 0 100 50" width="100" xmlns="http://www.w3.org/2000/svg"><g fill="#fff"><path d="m52.033 18.542h13.27v-2.604h-10.276c-1.541.001-2.853 1.159-2.994 2.604z"/><path d="m55.295 22.405h7.617v-2.577h-10.879v3.655c0 1.566 1.367 2.858 3.001 2.858h10.269v-2.657h-8.447c-.837 0-1.541-.509-1.561-1.279z"/><path d="m75.164 22.593-3.061-6.648h-5.741l-.007 10.396h3.135v-7.785h.589l3.765 7.785h2.553l3.912-7.785h.59v7.785h3.128v-10.396h-5.734z"/><path d="m96.099 15.945h-8.22c-1.634 0-2.934 1.298-2.934 2.925v4.679c0 1.62 1.3 2.791 2.934 2.791h8.22c1.628 0 2.934-1.171 2.934-2.791v-4.679c0-1.626-1.307-2.925-2.934-2.925zm-.262 6.433c0 .776-.717 1.299-1.567 1.299h-4.502c-.911 0-1.628-.522-1.628-1.299v-2.336c0-.783.717-1.433 1.628-1.433h4.502c.851 0 1.567.649 1.567 1.433z"/><path d="m14.613 18.158h-3.568l-.661 2.641h-1.828l.66-2.641h-3.647l-1.646 6.425h3.629l.673-2.693h1.829l-.674 2.693h3.526z"/><path d="m20.613 19.579-.988 3.626c-.045.166-.224.303-.397.303h-1.241c-.173 0-.277-.136-.231-.303l.988-3.626c.045-.166.224-.303.397-.303h1.241c.173 0 .277.137.231.303m2.694-1.421h-6.188c-.863 0-1.766.678-2.005 1.507l-.987 3.412c-.24.829.27 1.507 1.134 1.507h6.041c.863 0 1.78-.674 2.037-1.497l1.071-3.43c.256-.825-.24-1.499-1.103-1.499"/><path d="m29.384 19.225 1.955-.006.288-1.059-5.381-.002s-1.459.248-1.459 1.591c0 0-.075.369.219.853.085.14.273.473.433.767h-.001l.07.126c.001.003.003.006.005.009l.605 1.093s.485.911-.277.922l-1.955.006-.288 1.059 5.381.002s1.459-.248 1.459-1.591c0 0 .075-.369-.219-.853-.098-.162-.259-.455-.43-.773h-.001l-.68-1.222s-.485-.911.276-.922"/><path d="m35.906 19.276h.148 1.093.997l.296-1.118h-4.557c-.863 0-1.766.678-2.005 1.507l-.987 3.412c-.24.829.27 1.507 1.134 1.507h4.713l.277-1.045h-2.085c-.055 0-.105-.012-.149-.031h-.028c-.173 0-.277-.136-.231-.303l.371-1.36h2.187l.302-1.111h-2.186l.315-1.155c.044-.166.222-.303.395-.303"/><path d="m41.403 23.507 1.328-5.349h-3.593l-1.595 6.425h3.19.403 2.614l.335-1.076z"/><path d="m20.046 16.807.276-1.139h-1.898l-.315 1.139z"/><path d="m22.731 16.807.315-1.139h-1.995l-.276 1.139z"/><path d="m44.38 15.668h-20.5l-.315 1.139h20.815c1.676 0 2.491.646 2.491 1.978 0 .453-.104.805-.104.807l-1.06 3.478c-.84 2.756-3.988 2.807-4.119 2.807h-36.853c-.989 0-1.688-.229-2.079-.681-.687-.796-.313-2.092-.309-2.104l1.06-3.478c.84-2.756 3.987-2.807 4.118-2.807h9.749l.315-1.138h-10.063c-.043 0-1.081.005-2.249.449-1.573.599-2.646 1.704-3.101 3.198l-1.061 3.478c-.023.075-.545 1.843.524 3.09.644.751 1.685 1.132 3.096 1.132h36.853c.044 0 1.082-.005 2.249-.449 1.574-.599 2.646-1.704 3.102-3.198l1.061-3.479c.006-.02.148-.493.149-1.109-.001-.936-.368-3.113-3.769-3.113"/><path d="m24.287 31.465c-.076-.332-.216-.568-.422-.709s-.474-.211-.806-.211c-.234 0-.436.047-.606.141s-.309.22-.419.379-.191.342-.243.549-.079.426-.079.657c0 .216.023.429.068.638s.12.396.225.56c.104.164.245.297.422.398s.398.151.665.151c.166 0 .317-.027.454-.081s.257-.129.36-.224.189-.208.26-.338c.07-.13.124-.272.16-.427h.384c-.043.188-.106.365-.189.533s-.192.315-.327.441-.299.226-.492.3-.419.111-.679.111c-.299 0-.555-.055-.768-.165s-.387-.259-.522-.446-.234-.405-.295-.652-.092-.509-.092-.787c0-.371.046-.687.138-.947s.219-.472.381-.636.353-.283.573-.357.46-.111.719-.111c.198 0 .383.026.555.078.171.052.323.131.454.235.132.105.24.234.325.387s.143.331.176.533z"/><path d="m25.592 34.229v-3.895h.368v3.581h2.088v.314z"/><path d="m28.796 34.229v-3.895h2.591v.314h-2.223v1.407h2.007v.314h-2.007v1.547h2.277v.314h-2.645z"/><path d="m32.07 34.229 1.531-3.895h.416l1.493 3.895h-.379l-.449-1.222h-1.774l-.46 1.222zm.963-1.536h1.525l-.763-2.045z"/><path d="m36.619 30.832h-.011v3.397h-.368v-3.895h.417l2.25 3.403h.011v-3.403h.368v3.895h-.427z"/><path d="m40.44 34.229v-3.895h.368v3.895z"/><path d="m42.341 30.832h-.011v3.397h-.368v-3.895h.417l2.25 3.403h.011v-3.403h.368v3.895h-.427z"/><path d="m47.752 32.531v-.314h1.666v2.012h-.314v-.665c-.069.116-.147.221-.235.316-.088.096-.19.177-.306.243-.115.067-.249.118-.4.154-.152.036-.323.054-.514.054-.245 0-.473-.043-.682-.13-.209-.086-.389-.215-.541-.387-.152-.171-.27-.387-.354-.646-.085-.26-.127-.563-.127-.909 0-.285.036-.551.108-.798s.183-.462.333-.644.337-.325.563-.43c.225-.104.491-.157.798-.157.206 0 .398.025.576.076.179.051.339.127.481.23s.262.231.36.384c.097.153.168.334.211.544h-.379c-.033-.144-.088-.274-.165-.389-.078-.115-.17-.212-.279-.289-.108-.078-.229-.137-.362-.178-.133-.042-.272-.062-.416-.062-.256 0-.476.045-.66.135s-.335.217-.454.381-.207.361-.262.59c-.056.229-.084.481-.084.755 0 .216.031.422.095.617.063.195.155.366.276.514s.269.265.444.352c.175.086.374.13.598.13.105 0 .213-.012.325-.035.112-.024.22-.062.325-.116s.202-.125.292-.211.168-.193.233-.319c.061-.123.104-.251.127-.384s.037-.274.041-.422h-1.318z"/><path d="m52.372 33.066c.014.173.053.32.116.441s.144.219.243.295.214.131.343.165c.13.034.269.051.417.051.173 0 .323-.022.449-.065s.229-.102.308-.176.138-.16.176-.257.057-.2.057-.308c0-.152-.034-.274-.103-.368-.068-.094-.158-.17-.268-.23-.11-.059-.236-.107-.379-.143-.142-.036-.288-.071-.438-.105s-.296-.075-.438-.122c-.143-.047-.269-.11-.379-.189s-.199-.181-.268-.306c-.069-.124-.103-.282-.103-.473 0-.134.028-.263.084-.389s.139-.238.249-.335.248-.175.414-.233.357-.086.573-.086c.22 0 .412.031.576.092s.3.145.408.251c.108.107.189.23.243.371.054.14.081.29.081.449h-.352c0-.148-.026-.276-.079-.384-.052-.108-.123-.197-.214-.265-.09-.068-.193-.119-.308-.152-.115-.032-.234-.049-.357-.049-.188 0-.346.026-.474.079-.128.052-.23.12-.306.203s-.128.175-.157.276-.034.202-.016.303c.022.126.072.227.151.303s.177.138.292.187.243.088.381.119c.139.031.28.063.425.097.144.034.284.075.419.122s.255.11.36.189c.104.079.188.181.251.305.063.125.095.28.095.468 0 .361-.124.64-.373.839-.249.198-.599.298-1.049.298-.202 0-.39-.026-.563-.079-.173-.052-.323-.132-.449-.238s-.225-.238-.295-.395-.105-.342-.105-.555h.362z"/><path d="m57.156 32.212 1.174-1.877h.427l-1.412 2.196v1.699h-.368v-1.671l-1.39-2.223h.422z"/><path d="m59.872 33.066c.014.173.053.32.116.441s.144.219.243.295.214.131.343.165c.13.034.269.051.417.051.173 0 .323-.022.449-.065s.229-.102.308-.176.138-.16.176-.257.057-.2.057-.308c0-.152-.034-.274-.103-.368-.068-.094-.158-.17-.268-.23-.11-.059-.236-.107-.379-.143-.142-.036-.288-.071-.438-.105s-.296-.075-.438-.122c-.143-.047-.269-.11-.379-.189s-.199-.181-.268-.306c-.069-.124-.103-.282-.103-.473 0-.134.028-.263.084-.389s.139-.238.249-.335.248-.175.414-.233.357-.086.573-.086c.22 0 .412.031.576.092s.3.145.408.251c.108.107.189.23.243.371.054.14.081.29.081.449h-.352c0-.148-.026-.276-.079-.384-.052-.108-.123-.197-.214-.265-.09-.068-.193-.119-.308-.152-.115-.032-.234-.049-.357-.049-.188 0-.346.026-.474.079-.128.052-.23.12-.306.203s-.128.175-.157.276-.034.202-.016.303c.022.126.072.227.151.303s.177.138.292.187.243.088.381.119c.139.031.28.063.425.097.144.034.284.075.419.122s.255.11.36.189c.104.079.188.181.251.305.063.125.095.28.095.468 0 .361-.124.64-.373.839s-.599.298-1.049.298c-.202 0-.39-.026-.563-.079-.173-.052-.323-.132-.449-.238s-.225-.238-.295-.395-.105-.342-.105-.555h.362z"/><path d="m63.181 30.335h2.835v.314h-1.233v3.581h-.368v-3.581h-1.234z"/><path d="m67.108 34.229v-3.895h2.591v.314h-2.223v1.407h2.007v.314h-2.007v1.547h2.277v.314h-2.645z"/><path d="m70.906 34.229v-3.895h.563l1.277 3.435h.011l1.255-3.435h.557v3.895h-.369v-3.473h-.01l-1.277 3.473h-.346l-1.282-3.473h-.011v3.473z"/><path d="m76.171 33.066c.014.173.053.32.116.441s.144.219.243.295.214.131.343.165c.13.034.269.051.417.051.173 0 .323-.022.449-.065s.229-.102.308-.176.138-.16.176-.257.057-.2.057-.308c0-.152-.034-.274-.103-.368-.068-.094-.158-.17-.268-.23-.11-.059-.236-.107-.379-.143-.142-.036-.288-.071-.438-.105s-.296-.075-.438-.122c-.143-.047-.269-.11-.379-.189s-.199-.181-.268-.306c-.069-.124-.103-.282-.103-.473 0-.134.028-.263.084-.389s.139-.238.249-.335.248-.175.414-.233.357-.086.573-.086c.22 0 .412.031.576.092s.3.145.408.251c.108.107.189.23.243.371.054.14.081.29.081.449h-.352c0-.148-.026-.276-.079-.384-.052-.108-.123-.197-.214-.265-.09-.068-.193-.119-.308-.152-.115-.032-.234-.049-.357-.049-.188 0-.346.026-.474.079-.128.052-.23.12-.306.203s-.128.175-.157.276-.034.202-.016.303c.022.126.072.227.151.303s.177.138.292.187.243.088.381.119c.139.031.28.063.425.097.144.034.284.075.419.122s.255.11.36.189c.104.079.188.181.251.305.063.125.095.28.095.468 0 .361-.124.64-.373.839s-.599.298-1.049.298c-.202 0-.39-.026-.563-.079-.173-.052-.323-.132-.449-.238s-.225-.238-.295-.395-.105-.342-.105-.555h.362z"/></g></svg>