<?xml version="1.0" encoding="utf-8"?>
<!-- Generator: Adobe Illustrator 24.1.0, SVG Export Plug-In . SVG Version: 6.00 Build 0)  -->
<svg version="1.1" id="Layer_1" xmlns="http://www.w3.org/2000/svg" xmlns:xlink="http://www.w3.org/1999/xlink" x="0px" y="0px"
	 viewBox="0 0 286 191" style="enable-background:new 0 0 286 191;" xml:space="preserve">
<style type="text/css">
	.st0{opacity:0.6;}
	.st1{fill:#08A08A;}
	.st2{fill:#162826;}
	.st3{fill:#FFFFFF;}
</style>
<g class="st0">
	<path class="st1" d="M98.3,16.6c30.5,7.3,65.5,30.9,74.7,69.3c2.4,9.9,6.3,34.6-7.6,59.5c-1.8,3.2-17.2,30.1-48.2,38.4
		c-40.3,10.9-85.7-15.4-103.9-53.1C-2.3,98.8-2.1,50.2,27.9,26.4C53.6,6,87.9,14.2,98.3,16.6z"/>
</g>
<g>
	<path class="st1" d="M192.5,125.1v-9.5h6.8v0.7h-6.1v3.7h5.5v0.7h-5.5v3.8h6.1v0.7H192.5z"/>
</g>
<g>
	<path class="st1" d="M202,120.4L202,120.4c0-0.7,0.1-1.3,0.4-1.9c0.2-0.6,0.6-1.1,1-1.6s0.9-0.8,1.5-1.1s1.2-0.4,1.9-0.4
		c0.4,0,0.8,0,1.2,0.1c0.3,0.1,0.7,0.2,1,0.3s0.6,0.3,0.8,0.5c0.3,0.2,0.5,0.4,0.8,0.6l-0.5,0.5c-0.2-0.2-0.4-0.4-0.7-0.6
		c-0.2-0.2-0.5-0.3-0.7-0.4c-0.3-0.1-0.5-0.2-0.8-0.3c-0.3-0.1-0.6-0.1-1-0.1c-0.6,0-1.1,0.1-1.6,0.3s-0.9,0.5-1.3,0.9
		s-0.6,0.8-0.8,1.4c-0.2,0.5-0.3,1.1-0.3,1.7v0c0,0.6,0.1,1.2,0.3,1.7c0.2,0.5,0.5,1,0.9,1.4c0.4,0.4,0.8,0.7,1.3,0.9s1,0.3,1.6,0.3
		c0.7,0,1.3-0.1,1.8-0.4c0.5-0.3,1-0.6,1.5-1.1l0.5,0.5c-0.3,0.2-0.5,0.5-0.8,0.7c-0.3,0.2-0.6,0.4-0.9,0.5s-0.6,0.3-1,0.3
		c-0.4,0.1-0.7,0.1-1.2,0.1c-0.7,0-1.3-0.1-1.9-0.4c-0.6-0.3-1.1-0.6-1.5-1c-0.4-0.4-0.7-1-1-1.6C202.1,121.7,202,121.1,202,120.4z"
		/>
</g>
<g>
	<path class="st1" d="M212.9,120.4L212.9,120.4c0-0.7,0.1-1.3,0.3-1.9s0.6-1.1,1-1.6c0.4-0.5,0.9-0.8,1.5-1.1s1.2-0.4,2-0.4
		c0.7,0,1.4,0.1,2,0.4c0.6,0.3,1.1,0.6,1.5,1.1c0.4,0.4,0.7,1,1,1.6c0.2,0.6,0.3,1.2,0.3,1.9c0,0,0,0,0,0s0,0,0,0
		c0,0.7-0.1,1.3-0.3,1.9s-0.6,1.1-1,1.6c-0.4,0.5-0.9,0.8-1.5,1.1c-0.6,0.3-1.2,0.4-2,0.4c-0.7,0-1.4-0.1-2-0.4
		c-0.6-0.3-1.1-0.6-1.5-1.1c-0.4-0.4-0.7-1-1-1.6C213.1,121.7,212.9,121,212.9,120.4z M213.7,120.4c0,0.6,0.1,1.1,0.3,1.7
		s0.5,1,0.8,1.4c0.4,0.4,0.8,0.7,1.3,0.9s1,0.3,1.6,0.3s1.1-0.1,1.6-0.3c0.5-0.2,0.9-0.5,1.3-0.9c0.4-0.4,0.6-0.8,0.8-1.4
		c0.2-0.5,0.3-1.1,0.3-1.7v0c0-0.6-0.1-1.1-0.3-1.7c-0.2-0.5-0.5-1-0.8-1.4c-0.4-0.4-0.8-0.7-1.3-0.9c-0.5-0.2-1-0.3-1.6-0.3
		c-0.6,0-1.1,0.1-1.6,0.3c-0.5,0.2-0.9,0.5-1.3,0.9s-0.6,0.8-0.8,1.4C213.8,119.2,213.7,119.7,213.7,120.4L213.7,120.4z"/>
</g>
<g>
	<path class="st2" d="M192.1,136.5L192.1,136.5c0-0.7,0.1-1.3,0.4-1.9c0.2-0.6,0.6-1.1,1-1.6c0.4-0.4,0.9-0.8,1.5-1.1
		s1.2-0.4,1.9-0.4c0.4,0,0.8,0,1.2,0.1s0.7,0.2,1,0.3c0.3,0.1,0.6,0.3,0.8,0.5s0.5,0.4,0.8,0.6l-0.5,0.5c-0.2-0.2-0.4-0.4-0.7-0.6
		c-0.2-0.2-0.5-0.3-0.7-0.4c-0.3-0.1-0.5-0.2-0.8-0.3s-0.6-0.1-1-0.1c-0.6,0-1.1,0.1-1.6,0.3c-0.5,0.2-0.9,0.5-1.3,0.9
		c-0.4,0.4-0.6,0.8-0.8,1.4c-0.2,0.5-0.3,1.1-0.3,1.7v0c0,0.6,0.1,1.2,0.3,1.7c0.2,0.5,0.5,1,0.9,1.4s0.8,0.7,1.3,0.9s1,0.3,1.6,0.3
		c0.7,0,1.3-0.1,1.8-0.4c0.5-0.3,1-0.6,1.5-1.1l0.5,0.5c-0.3,0.2-0.5,0.5-0.8,0.7s-0.6,0.4-0.9,0.5c-0.3,0.1-0.6,0.3-1,0.3
		s-0.7,0.1-1.2,0.1c-0.7,0-1.3-0.1-1.9-0.4c-0.6-0.3-1.1-0.6-1.5-1c-0.4-0.4-0.7-1-1-1.6C192.2,137.8,192.1,137.2,192.1,136.5z"/>
</g>
<g>
	<path class="st2" d="M203.7,141.2v-9.5h0.7v8.9h5.6v0.7H203.7z"/>
</g>
<g>
	<path class="st2" d="M213.2,141.2v-9.5h6.8v0.7h-6.1v3.7h5.5v0.7h-5.5v3.8h6.1v0.7H213.2z"/>
</g>
<g>
	<path class="st2" d="M222.8,141.2l4.4-9.6h0.7l4.4,9.6h-0.8l-1.2-2.7h-5.6l-1.2,2.7H222.8z M225.1,137.9h5l-2.5-5.5L225.1,137.9z"
		/>
</g>
<g>
	<path class="st2" d="M235.5,141.2v-9.5h0.7l6.6,8.3v-8.3h0.7v9.5h-0.5l-6.7-8.5v8.5H235.5z"/>
</g>
<g>
	<path class="st2" d="M247.5,141.2v-9.5h0.7v9.5H247.5z"/>
</g>
<g>
	<path class="st2" d="M252.3,141.2v-9.5h0.7l6.6,8.3v-8.3h0.7v9.5h-0.5l-6.7-8.5v8.5H252.3z"/>
</g>
<g>
	<path class="st2" d="M263.9,136.5L263.9,136.5c0-0.7,0.1-1.3,0.3-1.9s0.5-1.1,1-1.6c0.4-0.5,0.9-0.8,1.5-1.1
		c0.6-0.3,1.2-0.4,1.9-0.4c0.4,0,0.7,0,1.1,0.1c0.3,0.1,0.6,0.1,0.9,0.2c0.3,0.1,0.5,0.2,0.8,0.4c0.2,0.2,0.5,0.3,0.7,0.5l-0.5,0.5
		c-0.4-0.3-0.8-0.6-1.3-0.8c-0.5-0.2-1.1-0.3-1.8-0.3c-0.6,0-1.1,0.1-1.6,0.3c-0.5,0.2-0.9,0.5-1.2,0.9c-0.4,0.4-0.6,0.8-0.8,1.4
		c-0.2,0.5-0.3,1.1-0.3,1.6v0c0,0.6,0.1,1.2,0.3,1.7c0.2,0.5,0.5,1,0.8,1.4c0.4,0.4,0.8,0.7,1.3,0.9c0.5,0.2,1.1,0.3,1.7,0.3
		c0.3,0,0.6,0,0.9-0.1c0.3-0.1,0.6-0.1,0.8-0.2c0.3-0.1,0.5-0.2,0.7-0.3c0.2-0.1,0.4-0.3,0.6-0.4V137h-3.2v-0.7h3.9v3.7
		c-0.4,0.4-1,0.7-1.6,1s-1.4,0.4-2.1,0.4c-0.8,0-1.4-0.1-2-0.4c-0.6-0.3-1.1-0.6-1.5-1.1c-0.4-0.4-0.7-1-0.9-1.6
		C264,137.8,263.9,137.2,263.9,136.5z"/>
</g>
<g>
	<path class="st2" d="M192.5,157.4v-9.5h0.7l3.8,5.6l3.8-5.6h0.7v9.5h-0.7v-8.3l-3.8,5.5H197l-3.8-5.5v8.3H192.5z"/>
</g>
<g>
	<path class="st2" d="M204.6,157.4l4.4-9.6h0.7l4.4,9.6h-0.8l-1.2-2.7h-5.6l-1.2,2.7H204.6z M206.8,154h5l-2.5-5.5L206.8,154z"/>
</g>
<g>
	<path class="st2" d="M216.2,152.6L216.2,152.6c0-0.7,0.1-1.3,0.4-1.9c0.2-0.6,0.6-1.1,1-1.6c0.4-0.4,0.9-0.8,1.5-1.1
		s1.2-0.4,1.9-0.4c0.4,0,0.8,0,1.2,0.1s0.7,0.2,1,0.3c0.3,0.1,0.6,0.3,0.8,0.5c0.3,0.2,0.5,0.4,0.8,0.6l-0.5,0.5
		c-0.2-0.2-0.4-0.4-0.7-0.6c-0.2-0.2-0.5-0.3-0.7-0.4s-0.5-0.2-0.8-0.3s-0.6-0.1-1-0.1c-0.6,0-1.1,0.1-1.6,0.3
		c-0.5,0.2-0.9,0.5-1.3,0.9s-0.6,0.8-0.8,1.4c-0.2,0.5-0.3,1.1-0.3,1.7v0c0,0.6,0.1,1.2,0.3,1.7c0.2,0.5,0.5,1,0.9,1.4
		c0.4,0.4,0.8,0.7,1.3,0.9s1,0.3,1.6,0.3c0.7,0,1.3-0.1,1.8-0.4s1-0.6,1.5-1.1l0.5,0.5c-0.3,0.2-0.5,0.5-0.8,0.7
		c-0.3,0.2-0.6,0.4-0.9,0.5c-0.3,0.1-0.6,0.3-1,0.3s-0.7,0.1-1.2,0.1c-0.7,0-1.3-0.1-1.9-0.4c-0.6-0.3-1.1-0.6-1.5-1
		c-0.4-0.4-0.7-1-1-1.6C216.3,153.9,216.2,153.3,216.2,152.6z"/>
</g>
<g>
	<path class="st2" d="M227.9,157.4v-9.5h0.7v4.4h6.1v-4.4h0.7v9.5h-0.7v-4.5h-6.1v4.5H227.9z"/>
</g>
<g>
	<path class="st2" d="M239.5,157.4v-9.5h0.7v9.5H239.5z"/>
</g>
<g>
	<path class="st2" d="M244.3,157.4v-9.5h0.7l6.6,8.3v-8.3h0.7v9.5h-0.5l-6.7-8.5v8.5H244.3z"/>
</g>
<g>
	<path class="st2" d="M256.3,157.4v-9.5h6.8v0.7H257v3.7h5.5v0.7H257v3.8h6.1v0.7H256.3z"/>
</g>
<g>
	<path class="st2" d="M266.4,157.4v-9.5h4c0.6,0,1.1,0.1,1.6,0.3s0.8,0.4,1.1,0.7c0.2,0.2,0.4,0.5,0.5,0.8c0.1,0.3,0.2,0.6,0.2,1v0
		c0,0.4-0.1,0.8-0.2,1.1c-0.1,0.3-0.3,0.6-0.6,0.8s-0.5,0.4-0.9,0.6c-0.3,0.1-0.7,0.2-1.1,0.3l3.1,4.1h-0.9l-3-3.9h0h-3.1v3.9H266.4
		z M267.1,152.8h3.2c0.4,0,0.8,0,1.1-0.1c0.3-0.1,0.6-0.2,0.9-0.4c0.2-0.2,0.4-0.4,0.6-0.7c0.1-0.3,0.2-0.6,0.2-0.9v0
		c0-0.6-0.2-1.2-0.7-1.5c-0.5-0.4-1.2-0.6-2-0.6h-3.3V152.8z"/>
</g>
<g>
	<path class="st2" d="M276,147.8h0.9l3.6,5.1l3.6-5.1h0.8l-4.1,5.8v3.8h-0.7v-3.8L276,147.8z"/>
</g>
<g class="st0">
	<path class="st1" d="M164.7,60.7c10.2,30.9,8.4,74.6-20.5,103.5c-7.5,7.5-27.1,24.3-56.6,25.7c-3.8,0.2-35.9,1.2-60.1-21.6
		C-4,138.7-5.5,84.4,17.8,47.9C37.7,16.7,80.6-9.6,117.9,4C149.8,15.5,161.3,50.2,164.7,60.7z"/>
</g>
<g class="st0">
	<path class="st1" d="M73,19.7c-15,0-27.7,4.1-37.7,12.3c-26.3,21.4-27.3,65.4-13,95.6c14.2,29.9,45.4,50.8,75.9,50.8
		c5.8,0,11.5-0.8,17-2.3c26.8-7.4,40.5-30.6,43-35.2c11.8-21.9,9.3-43.5,6.8-54.5c-8.6-36.9-41.3-57.2-66.8-63.4
		C93.5,22,84.1,19.7,73,19.7z"/>
</g>
<g>
	<g>
		<path class="st3" d="M40.1,88.2h-7.5v5.4v6.1v8.7c0,2.5,0.6,4.3,1.8,5.4c1.2,1.1,3,1.7,5.4,1.7c2,0,3.7-0.4,5.2-1.2v-5.9
			c-1,0.5-1.9,0.7-2.8,0.7c-0.7,0-1.2-0.2-1.6-0.5c-0.3-0.3-0.5-0.9-0.5-1.6v-7.3h5v-6.1h-5V88.2z"/>
	</g>
	<g>
		<path class="st3" d="M65.2,96.6c-0.9-1.1-2-1.9-3.4-2.6c-1.4-0.6-3-0.9-4.8-0.9c-1.6,0-3,0.3-4.4,0.9c-1.3,0.6-2.5,1.4-3.4,2.4
			c-0.9,1-1.7,2.2-2.2,3.6c-0.5,1.4-0.8,2.8-0.8,4.4v0.1c0,3.3,1.1,6,3.2,8.1c2.1,2.1,4.9,3.1,8.3,3.1c3.9,0,7-1.4,9.3-4.3l-4.2-3.5
			c-1.5,1.5-3.1,2.2-4.8,2.2c-1.2,0-2.2-0.3-3-0.9c-0.8-0.6-1.4-1.5-1.7-2.7h14.4c0-0.3,0-0.9,0-1.5c0-1.6-0.2-3.1-0.7-4.5
			C66.8,98.9,66.1,97.7,65.2,96.6z M53.3,102.5c0.2-1.2,0.6-2.1,1.3-2.8c0.7-0.7,1.5-1.1,2.5-1.1c1,0,1.9,0.3,2.5,1
			c0.7,0.7,1.1,1.6,1.2,2.8H53.3z"/>
	</g>
	<g>
		<path class="st3" d="M82.7,108.7c-0.6,0.4-1.4,0.6-2.2,0.6c-1.3,0-2.3-0.5-3.1-1.4c-0.8-0.9-1.2-2.1-1.2-3.5v-0.1
			c0-1.3,0.4-2.5,1.2-3.4c0.8-0.9,1.8-1.4,3-1.4c0.9,0,1.6,0.2,2.3,0.6c0.6,0.4,1.2,0.9,1.8,1.7l5.1-3.8c-2-3.2-5.1-4.8-9.2-4.8
			c-2.2,0-4.2,0.5-6,1.5c-1.8,1-3.1,2.4-4.1,4.1c-1,1.7-1.5,3.6-1.5,5.6v0.1c0,2,0.5,3.9,1.5,5.6c1,1.7,2.3,3.1,4.1,4.1
			c1.7,1,3.7,1.5,5.8,1.5c4.2,0,7.4-1.6,9.6-4.9l-5.1-3.7C84,107.8,83.4,108.3,82.7,108.7z"/>
	</g>
	<g>
		<path class="st3" d="M105.1,93.1c-2.4,0-4.6,1.2-6.4,3.5v-3h-7.5V115h7.5v-11.6c0-1.1,0.3-2,0.9-2.6c0.6-0.6,1.3-0.9,2.3-0.9
			c0.9,0,1.7,0.3,2.2,0.9c0.6,0.6,0.8,1.5,0.8,2.7V115h7.5v-14c0-2.5-0.6-4.4-1.9-5.8C109.1,93.8,107.3,93.1,105.1,93.1z"/>
	</g>
	<g>
		<path class="st3" d="M133.3,96.6c-0.9-1.1-2-1.9-3.4-2.6c-1.4-0.6-3-0.9-4.8-0.9c-1.6,0-3,0.3-4.4,0.9c-1.3,0.6-2.5,1.4-3.4,2.4
			c-0.9,1-1.7,2.2-2.2,3.6c-0.5,1.4-0.8,2.8-0.8,4.4v0.1c0,3.3,1.1,6,3.2,8.1c2.1,2.1,4.9,3.1,8.3,3.1c3.9,0,7-1.4,9.3-4.3l-4.2-3.5
			c-1.5,1.5-3.1,2.2-4.8,2.2c-1.2,0-2.2-0.3-3-0.9c-0.8-0.6-1.4-1.5-1.7-2.7h14.4c0-0.3,0-0.9,0-1.5c0-1.6-0.2-3.1-0.7-4.5
			C134.8,98.9,134.2,97.7,133.3,96.6z M121.4,102.5c0.2-1.2,0.6-2.1,1.3-2.8c0.7-0.7,1.5-1.1,2.5-1.1c1,0,1.9,0.3,2.5,1
			c0.7,0.7,1.1,1.6,1.2,2.8H121.4z"/>
	</g>
	<g>
		<path class="st3" d="M145.8,88.2h-7.5v5.4v6.1v8.7c0,2.5,0.6,4.3,1.8,5.4c1.2,1.1,3,1.7,5.4,1.7c2,0,3.7-0.4,5.2-1.2v-5.9
			c-1,0.5-1.9,0.7-2.8,0.7c-0.7,0-1.2-0.2-1.6-0.5c-0.3-0.3-0.5-0.9-0.5-1.6v-7.3h5v-6.1h-5V88.2z"/>
	</g>
</g>
<g>
	<rect x="182.3" y="115.5" class="st2" width="1.4" height="41.9"/>
</g>
</svg>
