<?xml version="1.0" encoding="utf-8"?>
<!-- Generator: Adobe Illustrator 24.1.0, SVG Export Plug-In . SVG Version: 6.00 Build 0)  -->
<svg version="1.1" id="Layer_1" xmlns="http://www.w3.org/2000/svg" xmlns:xlink="http://www.w3.org/1999/xlink" x="0px" y="0px"
	 viewBox="0 0 567.4 125.1" style="enable-background:new 0 0 567.4 125.1;" xml:space="preserve">
<style type="text/css">
	.st0{fill:#516A7D;}
	.st1{fill:#4BB9B4;}
</style>
<path class="st0" d="M294,74.2c5.8,0,11,2.2,15.4,6.6l0.1,0.1l6-6.3l-0.1-0.1c-5.1-5.8-12.6-9-21.2-9c-17.1,0-29.5,12.5-29.5,29.7
	c0,8.3,2.9,15.8,8.2,21.2c5.4,5.5,12.9,8.5,21.4,8.5c8.5,0,16-3.2,21.2-9l0.1-0.1l-5.7-6.2l-0.1-0.1l-0.1,0.1
	c-4.4,4.3-9.9,6.6-15.6,6.6c-5.5,0-10.5-2.1-14.2-5.9c-3.7-3.9-5.7-9.2-5.7-15.1c0-5.9,2-11.2,5.7-15
	C283.4,76.3,288.5,74.2,294,74.2z"/>
<path class="st0" d="M376,65.5c-16.4,0-28.3,12.5-28.3,29.7c0,17.5,11.9,29.7,28.9,29.7c9.6,0,17.1-2.8,23.4-8.9l0.1-0.1l-5-6.4
	l-0.1,0.1c-5.1,4.6-11.3,7.1-17.9,7.1c-5.2,0-9.8-1.6-13.3-4.6c-3.7-3.2-6-7.9-6.6-13.6h45.5l0-0.1c0.1-1,0.2-2.2,0.2-3.4
	c-0.1-8.4-2.8-15.9-7.7-21.2C390.3,68.5,383.5,65.5,376,65.5z M357.2,91c1.6-10.6,8.6-17.2,18.5-17.2c9.5,0,16.4,6.7,17.6,17.2
	H357.2z"/>
<path class="st0" d="M460.9,74.9c-4.9-6.1-12-9.3-20.6-9.3c-16.3,0-28.5,12.8-28.5,29.7c0,16.9,12.3,29.7,28.5,29.7
	c8.6,0,15.7-3.2,20.6-9.3v8.2h9.2V66.7h-9.2V74.9z M441.4,116.2c-5.7,0-10.9-2.2-14.6-6.1c-3.6-3.9-5.6-9.2-5.6-14.9
	c0-12.2,8.5-21,20.2-21c11.6,0,20.1,8.8,20.1,21C461.5,107.4,453,116.2,441.4,116.2z"/>
<polygon class="st0" points="325.6,123.8 334.9,123.8 334.9,40.4 325.6,43.4 "/>
<path class="st0" d="M512.7,65.6c-7.1,0-13.6,2.2-18.1,6.1c-5.1,4.4-7.8,10.9-7.8,18.9v33.3h9.3V91.5c0-0.2,0-0.3,0-0.5
	c0-0.1,0-0.2,0-0.3c0.1-3.8,1-7,2.6-9.6c0,0,0-0.1,0.1-0.1c0,0,0-0.1,0.1-0.1c3.1-4.7,8.3-7.5,13.9-7.5c5.6,0,10.8,2.8,13.9,7.5
	c0,0,0,0.1,0.1,0.1c0,0,0,0.1,0.1,0.1c1.6,2.6,2.5,5.8,2.6,9.6c0,0.1,0,0.2,0,0.3c0,0.2,0,0.3,0,0.5v32.4h9.3V90.6
	C538.6,72.2,524.6,65.6,512.7,65.6z"/>
<path class="st0" d="M31.6,91.2l-6.7-0.8c-7.8-0.9-11.4-3.4-11.4-7.8c0-5.3,5.2-8.8,13.3-8.8c7.5,0,14.7,2.7,18.5,5.3l0.1,0.1l4-7.2
	l-0.1-0.1c-5.9-3.9-14.1-6.2-22.6-6.2c-6.8,0-12.5,1.6-16.5,4.6C6,73.3,3.9,77.7,3.9,83c0,8.9,6.5,14.4,18.9,15.9l6.8,0.8
	c7.9,0.9,11.7,3.6,11.7,8.1c0,5.7-5.7,9-15.5,9c-5.4,0-12.6-0.7-19.6-6.1l-0.1-0.1l-4.3,7l0.1,0.1c8.4,6.3,18.5,7.3,23.8,7.3
	c7.5,0,13.9-1.6,18.3-4.8c4.5-3.1,6.8-7.6,6.8-13C50.8,98.2,44.4,92.8,31.6,91.2z"/>
<path class="st0" d="M88.8,65.5c-17.1,0-30,12.8-30,29.7c0,16.9,12.9,29.7,30,29.7c17.2,0,30.1-12.8,30.1-29.7
	C118.9,78.3,106,65.5,88.8,65.5z M103.5,110.3c-3.8,3.8-9,5.9-14.7,5.9c-5.7,0-10.9-2.1-14.7-5.9c-3.8-3.9-5.9-9.2-5.9-15.1
	c0-5.9,2.1-11.2,5.9-15c3.8-3.8,9-5.9,14.7-5.9c11.7,0,20.6,9,20.6,21C109.4,101.1,107.3,106.4,103.5,110.3z"/>
<path class="st1" d="M225.6,65.5c-17.1,0-30,12.8-30,29.7c0,16.9,12.9,29.7,30,29.7c17.2,0,30.1-12.8,30.1-29.7
	C255.7,78.3,242.7,65.5,225.6,65.5z M240.3,110.3c-3.8,3.8-9,5.9-14.7,5.9c-5.7,0-10.9-2.1-14.7-5.9c-3.8-3.9-5.9-9.2-5.9-15.1
	c0-5.9,2.1-11.2,5.9-15c3.8-3.8,9-5.9,14.7-5.9c11.7,0,20.6,9,20.6,21C246.2,101.1,244.1,106.4,240.3,110.3z"/>
<path class="st1" d="M231.6,26.8c0-14.7-11.3-25.8-26.2-25.8c-14.9,0-26.1,11.1-26.1,25.8c0,14.8,11.2,25.9,26.1,25.9
	C220.4,52.6,231.6,41.5,231.6,26.8z M188.3,26.8c0-10.1,7.2-17.4,17.1-17.4c9.7,0,17.1,7.5,17.1,17.4c0,9.9-7.3,17.5-17.1,17.5
	C195.5,44.2,188.3,36.9,188.3,26.8z"/>
<path class="st1" d="M277.9,44.5c0-9.7-7.4-17-17.3-17c-9.8,0-17.2,7.3-17.2,17c0,9.7,7.4,17.1,17.2,17.1
	C270.5,61.6,277.9,54.2,277.9,44.5z M260.6,53.4c-5.4,0-9.3-4-9.3-9.5c0-5.5,3.9-9.5,9.3-9.5c5.4,0,9.3,4,9.3,9.5
	C269.9,49.4,266,53.4,260.6,53.4z"/>
<path class="st0" d="M157.3,65.6c-7.1,0-13.6,2.2-18.1,6.1c-5.1,4.4-7.8,10.9-7.8,18.9v33.3h9.3V91.5c0-0.2,0-0.3,0-0.5
	c0-0.1,0-0.2,0-0.3c0.1-3.8,1-7,2.6-9.6c0,0,0-0.1,0.1-0.1c0,0,0-0.1,0.1-0.1c3.1-4.7,8.3-7.5,13.9-7.5c5.6,0,10.8,2.8,13.9,7.5
	c0,0,0,0.1,0.1,0.1c0,0,0,0.1,0.1,0.1c1.6,2.5,2.5,5.8,2.6,9.6c0,0.1,0,0.2,0,0.3c0,0.2,0,0.3,0,0.5v32.4h9.3V90.6
	C183.3,72.2,169.3,65.6,157.3,65.6z"/>
<g>
	<path class="st0" d="M559.5,123.9c-3.7,0-6.8-3-6.8-6.8s3-6.8,6.8-6.8s6.8,3,6.8,6.8S563.2,123.9,559.5,123.9z M559.5,111
		c-3.4,0-6.1,2.7-6.1,6.1c0,3.4,2.7,6.1,6.1,6.1s6.1-2.7,6.1-6.1C565.6,113.8,562.8,111,559.5,111z"/>
</g>
<g>
	<g>
		<path class="st0" d="M561.1,120.8l-2-2.8h-0.6v2.8H557v-7.4h2.4c2.1,0,2.4,1.6,2.4,2.3c0,0.9-0.5,1.5-1.2,1.9l2.4,3.2H561.1z
			 M559.3,114.9h-0.7v1.7h0.7c0.8,0,1-0.4,1-0.9C560.3,115.3,559.9,114.9,559.3,114.9z"/>
	</g>
</g>
</svg>
