<svg enable-background="new 0 0 100 50" height="50" viewBox="0 0 100 50" width="100" xmlns="http://www.w3.org/2000/svg"><g fill="#fff"><path d="m5.249 25.264c.523.157.923.401.923.818 0 .523-.61.854-1.515.854-1.149 0-2.299-.383-3.135-.836v1.655c.523.244 1.794.644 3.065.644 2.177 0 3.239-1.201 3.239-2.577 0-.523-.261-1.132-.714-1.463-.418-.314-.853-.523-2.874-1.132-.888-.279-1.219-.453-1.219-.871s.383-.801 1.463-.801c.819 0 1.759.261 2.612.697v-1.602c-.765-.28-1.635-.524-2.594-.524-2.124 0-3.1 1.149-3.1 2.403 0 .627.227 1.062.557 1.376.436.418 1.028.662 3.292 1.359z"/><path d="m13.352 28.381c2.438 0 4.215-1.829 4.215-4.128s-1.776-4.128-4.215-4.128-4.215 1.829-4.215 4.128 1.776 4.128 4.215 4.128zm0-6.757c1.428 0 2.525 1.062 2.525 2.63s-1.097 2.63-2.525 2.63-2.525-1.062-2.525-2.63c-.001-1.568 1.096-2.63 2.525-2.63z"/><path d="m32.562 28.381c2.438 0 4.215-1.829 4.215-4.128s-1.776-4.128-4.215-4.128-4.215 1.829-4.215 4.128 1.776 4.128 4.215 4.128zm0-6.757c1.428 0 2.525 1.062 2.525 2.63s-1.097 2.63-2.525 2.63-2.525-1.062-2.525-2.63c-.001-1.568 1.096-2.63 2.525-2.63z"/><path d="m52.196 28.301 2.072-6.078 2.073 6.078h.818l3.048-7.889h-1.132l-2.299 6.182-2.09-6.182h-.836l-2.09 6.182-2.299-6.182h-1.132l3.048 7.889z"/><path d="m63.306 24.069c-1.097.609-1.341 1.55-1.341 2.194 0 1.324 1.08 2.229 2.578 2.229 1.062 0 1.898-.505 2.508-1.028v.836h1.01v-5.38c0-1.829-1.045-2.682-2.647-2.682-1.08 0-1.986.279-2.682.575l-.209.993c.679-.348 1.776-.697 2.734-.697.854 0 1.794.331 1.794 1.864v.523c-1.551-.002-2.996.155-3.745.573zm3.744 2.473c-.766.679-1.585 1.08-2.404 1.08-.888 0-1.654-.47-1.654-1.411 0-.61.313-1.115.871-1.411.644-.348 2.09-.453 3.187-.453z"/><path d="m73.367 28.493c.697 0 1.341-.192 1.881-.47v-.975c-.435.331-.958.557-1.672.557-.749 0-1.585-.401-1.585-1.811v-4.511h2.891v-.871h-2.891v-1.845l-1.01-.408v2.253.871 4.563c0 2.124 1.376 2.647 2.386 2.647z"/><path d="m21.127 23.915c0-1.38.713-2.256 1.868-2.256 1.225 0 1.868.876 1.868 2.256v4.267h1.654v-4.18c0-3.309-2.347-3.866-3.521-3.866 0 0 0 0-.001 0h-.001c-1.174 0-3.521.557-3.521 3.866v4.18h1.654z"/><path d="m40.311 30.177c.634-1.908.957-3.933.971-5.924 0-.007 0-.013 0-.02 0-.003 0-.005 0-.008-.014-1.99-.337-3.979-.971-5.887l-1.417 1.081c.465 1.57.702 3.192.714 4.816-.011 1.627-.249 3.289-.714 4.861z"/><path d="m43.931 32.939c1.126-2.766 1.696-5.742 1.713-8.685 0-.005 0-.009 0-.014s0-.009 0-.014c-.017-2.943-.587-5.883-1.713-8.648l-1.385 1.057c.935 2.442 1.409 5.02 1.424 7.601-.014 2.584-.488 5.203-1.424 7.648z"/><path d="m78.332 28.617c.596 0 1.081-.485 1.081-1.081s-.485-1.081-1.081-1.081-1.081.485-1.081 1.081.485 1.081 1.081 1.081zm0-2.056c.538 0 .975.437.975.975s-.438.975-.975.975c-.538 0-.975-.437-.975-.975 0-.537.438-.975.975-.975z"/><path d="m78.189 27.684h.093l.312.441h.317l-.382-.506c.103-.06.187-.158.187-.307 0-.112-.063-.364-.391-.364h-.389v1.177h.252v-.441zm0-.502h.112c.105 0 .163.053.163.135 0 .075-.045.14-.167.14h-.109v-.275z"/><path d="m49.709 33.766h-1.143v-.795h-.218v1.866h.218v-.871h1.143v.871h.218v-1.866h-.218z"/><path d="m50.829 32.972h.218v1.866h-.218z"/><path d="m51.747 33.828h1.194v.2h-1.194z"/><path d="m53.449 33.171h.574v1.666h.217v-1.666h.574v-.2h-1.365z"/><path d="m55.423 34.837h1.242v-.199h-1.024v-.672h.842v-.2h-.842v-.595h1.024v-.2h-1.242z"/><path d="m57.267 33.904c0 .592.468.966.987.966.272 0 .497-.073.737-.203v-.236c-.221.149-.479.24-.737.24-.439 0-.762-.319-.762-.766 0-.381.301-.766.784-.766.276 0 .563.12.73.229v-.232c-.247-.134-.49-.196-.73-.196-.566-.001-1.009.463-1.009.964z"/><path d="m61.118 33.766h-1.144v-.795h-.218v1.866h.218v-.871h1.144v.871h.218v-1.866h-.218z"/><path d="m63.85 34.511-.671-1.54h-.243l.816 1.866h.193l.816-1.866h-.243z"/><path d="m65.875 32.971-.835 1.866h.243l.203-.457h.987l.203.457h.243l-.835-1.866zm-.297 1.209.403-.911.403.911z"/><path d="m67.46 33.904c0 .592.468.966.987.966.272 0 .497-.073.737-.203v-.236c-.222.149-.479.24-.737.24-.439 0-.762-.319-.762-.766 0-.381.301-.766.784-.766.276 0 .563.12.73.229v-.232c-.247-.134-.49-.196-.73-.196-.566-.001-1.009.463-1.009.964z"/><path d="m71.395 34.042c0 .41-.309.628-.606.628-.298 0-.606-.218-.606-.628v-1.071h-.218v1.035c0 .563.396.864.824.864s.824-.301.824-.864v-1.035h-.218z"/><path d="m73.873 34.042c0 .41-.309.628-.606.628-.298 0-.606-.218-.606-.628v-1.071h-.218v1.035c0 .563.396.864.824.864s.824-.301.824-.864v-1.035h-.218z"/><path d="m75.915 33.919-.791-.948h-.218v1.866h.218v-1.546l.791.933.791-.933v1.546h.218v-1.866h-.218z"/><path d="m79.41 32.971h-.65v1.866h.661c.508 0 .973-.356.973-.933-.001-.566-.498-.933-.984-.933zm-.004 1.667h-.428v-1.466h.432c.406 0 .759.309.759.733-.001.508-.422.733-.763.733z"/><path d="m82.386 34.638h-1.024v-.672h.842v-.2h-.842v-.595h1.024v-.2h-1.242v1.866h1.242z"/><path d="m83.994 33.139c.276 0 .563.12.73.229v-.232c-.247-.134-.49-.196-.73-.196-.566 0-1.009.465-1.009.966 0 .592.468.966.987.966.272 0 .497-.073.737-.203v-.846h-.77v.2h.552v.534c-.167.076-.341.116-.519.116-.439 0-.762-.319-.762-.766 0-.384.301-.768.784-.768z"/><path d="m86.995 34.837-.613-.802c.276-.065.428-.265.428-.515 0-.24-.163-.548-.635-.548h-.628v1.866h.218v-.78h.363l.588.78h.279zm-1.231-.98v-.686h.403c.33 0 .417.185.417.352 0 .182-.12.334-.41.334z"/><path d="m88.86 33.171v-.2h-1.241v1.866h1.241v-.199h-1.023v-.672h.842v-.2h-.842v-.595z"/><path d="m90.991 34.837h.243l-.835-1.866h-.21l-.835 1.866h.243l.203-.457h.987zm-1.1-.657.403-.911.403.911z"/><path d="m92.881 34.365c0-.258-.21-.396-.515-.574s-.396-.258-.396-.396c0-.123.109-.265.316-.265.171 0 .294.069.407.229l.163-.116c-.127-.182-.301-.305-.548-.305-.331 0-.555.218-.555.49 0 .218.134.334.439.515.367.218.472.29.472.436 0 .189-.167.298-.341.298-.221 0-.385-.138-.461-.283l-.167.109c.083.163.276.367.617.367.286 0 .569-.181.569-.505z"/><path d="m94.869 33.171v-.2h-1.241v1.866h1.241v-.199h-1.023v-.672h.842v-.2h-.842v-.595z"/><path d="m96.862 33.52c0-.24-.163-.548-.635-.548h-.628v1.866h.218v-.78h.363l.588.78h.279l-.613-.802c.275-.066.428-.266.428-.516zm-.635.337h-.41v-.686h.403c.33 0 .417.185.417.352 0 .182-.12.334-.41.334z"/><path d="m98.128 34.87c.287 0 .57-.181.57-.505 0-.258-.211-.396-.515-.574-.305-.178-.396-.258-.396-.396 0-.123.109-.265.316-.265.171 0 .294.069.407.229l.163-.116c-.127-.182-.301-.305-.548-.305-.33 0-.555.218-.555.49 0 .218.134.334.439.515.367.218.472.29.472.436 0 .189-.167.298-.341.298-.222 0-.385-.138-.461-.283l-.167.109c.082.164.275.367.616.367z"/></g></svg>