<svg enable-background="new 0 0 160 35.729" height="35.729" viewBox="0 0 160 35.729" width="160" xmlns="http://www.w3.org/2000/svg"><g fill="#4bbab5"><path d="m6.658 26.307c-2.604 0-5.208-.821-6.278-1.32v-3.389c1.712.927 4.066 1.712 6.42 1.712 1.855 0 3.104-.678 3.104-1.748 0-.855-.821-1.355-1.89-1.676-4.638-1.426-5.85-1.926-6.742-2.783-.678-.642-1.141-1.534-1.141-2.818 0-2.568 1.998-4.923 6.349-4.923 1.962 0 3.745.499 5.315 1.069v3.282c-1.748-.892-3.674-1.426-5.351-1.426-2.212 0-2.997.785-2.997 1.64s.678 1.212 2.497 1.784c4.137 1.248 5.03 1.676 5.885 2.318.927.678 1.462 1.926 1.462 2.997.003 2.818-2.175 5.281-6.633 5.281z"/><path d="m24.607 26.27c-4.994 0-8.632-3.745-8.632-8.453 0-4.709 3.638-8.453 8.632-8.453s8.632 3.745 8.632 8.453c.001 4.707-3.637 8.453-8.632 8.453zm0-13.841c-2.925 0-5.172 2.176-5.172 5.385s2.247 5.385 5.172 5.385 5.172-2.176 5.172-5.385c.002-3.208-2.246-5.385-5.172-5.385z"/><path d="m63.953 26.27c-4.994 0-8.632-3.745-8.632-8.453 0-4.709 3.638-8.453 8.632-8.453s8.632 3.745 8.632 8.453c-.001 4.707-3.639 8.453-8.632 8.453zm0-13.841c-2.925 0-5.172 2.176-5.172 5.385s2.247 5.385 5.172 5.385 5.172-2.176 5.172-5.385c0-3.208-2.247-5.385-5.172-5.385z"/></g><path d="m114.332 26.106h-1.676l-4.245-12.45-4.245 12.45h-1.676l-6.243-16.159h2.318l4.709 12.664 4.28-12.664h1.712l4.28 12.664 4.709-12.664h2.318z" fill="#435363"/><path d="m134.588 26.106v-1.712c-1.248 1.069-2.96 2.104-5.137 2.104-3.068 0-5.28-1.855-5.28-4.566 0-1.32.499-3.247 2.746-4.494 1.534-.855 4.494-1.178 7.669-1.178v-1.069c0-3.139-1.926-3.817-3.674-3.817-1.962 0-4.209.713-5.6 1.426l.428-2.033c1.426-.607 3.282-1.178 5.494-1.178 3.282 0 5.422 1.748 5.422 5.494v11.022h-2.068zm0-8.097c-2.247 0-5.208.214-6.528.927-1.141.607-1.784 1.641-1.784 2.889 0 1.926 1.569 2.89 3.389 2.89 1.676 0 3.353-.821 4.923-2.212z" fill="#435363"/><path d="m147.527 26.499c-2.069 0-4.887-1.069-4.887-5.422v-9.345-1.784-4.613l2.069.835v3.778h5.921v1.784h-5.921v9.238c0 2.89 1.712 3.709 3.247 3.709 1.462 0 2.532-.464 3.424-1.141v1.998c-1.106.57-2.426.963-3.853.963z" fill="#435363"/><path d="m40.533 25.861v-8.739c0-2.827 1.46-4.62 3.825-4.62 2.509 0 3.825 1.793 3.825 4.62v8.739h3.387v-8.561c0-6.777-4.808-7.92-7.211-7.92h-.001-.001c-2.403 0-7.211 1.141-7.211 7.92v8.561z" fill="#4bbab5"/><path d="m81.813 17.775c0-.006 0-.012 0-.016-.028-4.076-.689-8.15-1.989-12.057l-2.903 2.214c.952 3.214 1.437 6.537 1.461 9.864-.022 3.332-.508 6.736-1.461 9.956l2.903 2.214c1.299-3.907 1.961-8.055 1.989-12.132h.001c-.001-.015-.001-.028-.001-.043z" fill="#4bbab5"/><path d="m90.749 17.787c0-.01 0-.018 0-.028h-.001c-.035-6.027-1.202-12.048-3.51-17.712l-2.836 2.164c1.914 5.002 2.885 10.282 2.916 15.567-.028 5.293-1 10.656-2.916 15.663l2.836 2.164c2.308-5.665 3.474-11.762 3.51-17.789h.001c0-.009 0-.019 0-.029z" fill="#4bbab5"/><path d="m157.695 26.753c-1.221 0-2.213-.992-2.213-2.213 0-1.22.992-2.213 2.213-2.213 1.22 0 2.213.992 2.213 2.213s-.992 2.213-2.213 2.213zm0-4.211c-1.101 0-1.997.895-1.997 1.997s.895 1.997 1.997 1.997c1.101 0 1.997-.895 1.997-1.997 0-1.101-.895-1.997-1.997-1.997z" fill="#435363"/><path d="m158.232 25.745-.64-.905h-.191v.905h-.517v-2.412h.798c.671 0 .801.517.801.747 0 .305-.172.506-.385.628l.782 1.037zm-.598-1.93h-.23v.564h.222c.248 0 .341-.133.341-.288-.001-.169-.119-.276-.333-.276z" fill="#435363"/></svg>