<svg enable-background="new 0 0 100 50" height="50" viewBox="0 0 100 50" width="100" xmlns="http://www.w3.org/2000/svg"><g fill="#fff"><path d="m21.257 32.751h17.078v-21.347h-17.078zm5.488-15.256h2.253v7.157h3.849v2.008h-6.102z"/><path d="m50.558 20.443c0-.476-.36-.926-.978-.926h-1.274v1.853h1.274c.618 0 .978-.451.978-.927z"/><path d="m40.893 32.751h17.078v-21.347h-17.078zm5.16-15.256h3.63c2.033 0 3.128 1.442 3.128 2.948s-1.095 2.948-3.128 2.948h-1.377v3.269h-2.252v-9.165z"/><path d="m60.522 11.404v21.347h17.078v-21.347zm11.86 15.256h-1.841l-1.48-4.519-1.481 4.519h-1.828l-2.523-9.165h2.356l1.197 4.841 1.48-4.841h1.596l1.48 4.841 1.198-4.841h2.355z"/><path d="m42.303 36.63-.852-1.814h-.442v2.916h.442v-1.95l.688 1.422h.328l.672-1.422v1.95h.442v-2.916h-.442z"/><path d="m45.155 35.631c-.283 0-.483.107-.618.246-.197.205-.246.467-.246.815 0 .352.049.614.246.819.135.139.336.246.618.246.283 0 .487-.106.623-.246.197-.205.246-.467.246-.819 0-.348-.049-.61-.246-.815-.136-.14-.34-.246-.623-.246zm.307 1.63c-.078.078-.184.123-.307.123s-.225-.045-.303-.123c-.127-.127-.143-.344-.143-.569s.016-.442.143-.569c.078-.078.18-.119.303-.119s.229.041.307.119c.127.127.143.344.143.569s-.016.442-.143.569z"/><path d="m47.098 35.881v-.225h-.41v2.076h.418v-1.262c0-.287.188-.467.414-.467.143 0 .217.045.311.139l.315-.315c-.143-.143-.295-.197-.496-.197-.233.001-.446.103-.552.251z"/><path d="m49.361 35.631c-.532 0-.881.389-.881 1.061 0 .791.414 1.065.934 1.065.365 0 .565-.111.778-.324l-.266-.25c-.147.147-.27.213-.504.213-.34 0-.528-.225-.528-.582h1.347v-.184c0-.59-.323-.999-.88-.999zm-.467.893c.004-.127.012-.188.053-.283.066-.156.217-.262.414-.262s.344.107.41.262c.041.094.053.156.057.283z"/><path d="m52.539 35.062h-.418v.631h-.237v.319h.237v1.143c0 .299.18.578.569.578h.25v-.356h-.172c-.156 0-.229-.09-.229-.242v-1.122h.401v-.319h-.401z"/><path d="m54.5 35.631c-.205 0-.393.078-.537.234v-1.049h-.418v2.916h.418v-1.274c0-.311.188-.455.422-.455.233 0 .418.139.418.455v1.274h.418v-1.339c0-.451-.258-.762-.721-.762z"/><path d="m56.635 35.631c-.344 0-.549.07-.745.299l.274.258c.115-.147.225-.201.455-.201.324 0 .455.127.455.389v.147h-.549c-.475 0-.717.25-.717.598 0 .176.057.336.164.446.127.127.299.188.557.188s.401-.061.553-.213v.188h.41v-1.388c-.001-.469-.288-.711-.857-.711zm.438 1.351c0 .147-.029.246-.09.307-.111.107-.229.119-.389.119-.262 0-.381-.106-.381-.295 0-.188.127-.299.373-.299h.487z"/><path d="m59.187 35.631c-.209 0-.41.078-.553.234v-.209h-.41v2.076h.418v-1.266c0-.32.197-.463.43-.463.234 0 .418.139.418.463v1.266h.418v-1.327c0-.233-.049-.43-.209-.586-.123-.118-.299-.188-.512-.188z"/><path d="m62.649 36.004c.164 0 .266.053.397.197l.287-.279c-.197-.209-.397-.291-.684-.291-.467 0-.926.283-.926 1.061s.459 1.065.926 1.065c.287 0 .487-.086.684-.295l-.287-.274c-.131.143-.234.197-.397.197-.16 0-.295-.066-.385-.184-.09-.115-.123-.266-.123-.508s.033-.389.123-.504c.09-.12.225-.185.385-.185z"/><path d="m64.329 37.134v-2.318h-.418v2.343c0 .307.172.573.569.573h.258v-.356h-.184c-.168 0-.225-.082-.225-.242z"/><path d="m66.068 35.631c-.532 0-.881.389-.881 1.061 0 .791.414 1.065.934 1.065.365 0 .565-.111.778-.324l-.266-.25c-.147.147-.27.213-.504.213-.34 0-.528-.225-.528-.582h1.348v-.184c-.001-.59-.324-.999-.881-.999zm-.467.893c.004-.127.012-.188.053-.283.066-.156.217-.262.414-.262s.344.107.409.262c.041.094.053.156.057.283z"/><path d="m68.295 35.631c-.344 0-.549.07-.745.299l.274.258c.115-.147.225-.201.455-.201.324 0 .455.127.455.389v.147h-.549c-.475 0-.717.25-.717.598 0 .176.057.336.164.446.127.127.299.188.557.188s.401-.061.553-.213v.188h.409v-1.388c0-.469-.287-.711-.856-.711zm.438 1.351c0 .147-.029.246-.09.307-.111.107-.229.119-.389.119-.262 0-.381-.106-.381-.295 0-.188.127-.299.373-.299h.487z"/><path d="m70.848 35.631c-.209 0-.41.078-.553.234v-.209h-.41v2.076h.418v-1.266c0-.32.197-.463.43-.463.234 0 .418.139.418.463v1.266h.418v-1.327c0-.233-.049-.43-.209-.586-.123-.118-.299-.188-.512-.188z"/><path d="m72.299 35.655h.418v2.076h-.418z"/><path d="m72.287 34.803h.442v.442h-.442z"/><path d="m74.423 35.631c-.209 0-.41.078-.553.234v-.209h-.41v2.076h.418v-1.266c0-.32.197-.463.43-.463s.418.139.418.463v1.266h.418v-1.327c0-.233-.049-.43-.209-.586-.123-.118-.299-.188-.512-.188z"/><path d="m77.071 35.877c-.156-.188-.324-.246-.545-.246-.209 0-.385.066-.5.18-.201.201-.233.492-.233.844s.033.643.233.844c.115.115.287.184.496.184.213 0 .385-.057.537-.237v.266c0 .279-.135.528-.487.528-.205 0-.32-.061-.451-.184l-.266.266c.217.201.418.274.733.274.553 0 .889-.369.889-.876v-2.064h-.405v.221zm-.435 1.429c-.377 0-.426-.324-.426-.651 0-.328.049-.651.426-.651s.422.324.422.651-.045.651-.422.651z"/></g></svg>