<svg enable-background="new 0 1.975 199.98 42.975" height="42.975" viewBox="0 1.975 199.98 42.975" width="199.98" xmlns="http://www.w3.org/2000/svg"><g fill="#fff"><path d="m6.929 30.642c-2.634 0-5.269-.83-6.351-1.335v-3.428c1.732.938 4.114 1.732 6.496 1.732 1.876 0 3.14-.686 3.14-1.768 0-.866-.83-1.371-1.913-1.696-4.691-1.443-5.918-1.949-6.82-2.815-.686-.65-1.155-1.552-1.155-2.851 0-2.598 2.021-4.98 6.423-4.98 1.985 0 3.789.505 5.377 1.083v3.32c-1.768-.902-3.717-1.443-5.413-1.443-2.237 0-3.031.794-3.031 1.66s.686 1.227 2.526 1.804c4.186 1.263 5.088 1.696 5.954 2.346.938.686 1.48 1.949 1.48 3.031-.001 2.85-2.202 5.34-6.713 5.34z"/><path d="m25.088 30.606c-5.052 0-8.733-3.789-8.733-8.553 0-4.763 3.681-8.553 8.733-8.553s8.733 3.789 8.733 8.553c0 4.763-3.681 8.553-8.733 8.553zm0-14.002c-2.959 0-5.233 2.201-5.233 5.449s2.273 5.449 5.233 5.449c2.959 0 5.233-2.201 5.233-5.449s-2.274-5.449-5.233-5.449z"/><path d="m64.891 30.606c-5.052 0-8.733-3.789-8.733-8.553 0-4.763 3.681-8.553 8.733-8.553s8.733 3.789 8.733 8.553c0 4.763-3.681 8.553-8.733 8.553zm0-14.002c-2.959 0-5.233 2.201-5.233 5.449s2.273 5.449 5.233 5.449c2.959 0 5.233-2.201 5.233-5.449s-2.274-5.449-5.233-5.449z"/><path d="m115.753 30.548h-1.768l-4.477-13.129-4.476 13.129h-1.768l-6.583-17.041h2.445l4.966 13.355 4.514-13.355h1.806l4.514 13.355 4.966-13.355h2.445z"/><path d="m136.772 30.432v-1.778c-1.296 1.111-3.074 2.185-5.333 2.185-3.185 0-5.481-1.926-5.481-4.74 0-1.37.519-3.37 2.852-4.666 1.592-.889 4.666-1.222 7.962-1.222v-1.111c0-3.259-2-3.963-3.815-3.963-2.037 0-4.37.741-5.814 1.481l.444-2.111c1.481-.63 3.407-1.222 5.703-1.222 3.407 0 5.629 1.815 5.629 5.703v11.444zm0-8.407c-2.333 0-5.407.222-6.777.963-1.185.63-1.852 1.704-1.852 3 0 2 1.629 3 3.518 3 1.741 0 3.481-.852 5.111-2.296z"/><path d="m149.414 30.835c-2.16 0-5.103-1.117-5.103-5.661v-9.758-1.862-4.818l2.16.872v3.946h6.183v1.862h-6.183v9.646c0 3.017 1.788 3.874 3.389 3.874 1.527 0 2.644-.484 3.576-1.192v2.086c-1.154.596-2.532 1.005-4.022 1.005z"/><path d="m41.159 30.603v-9.059c0-2.93 1.513-4.789 3.965-4.789 2.601 0 3.965 1.859 3.965 4.789v9.059h3.511v-8.874c0-7.025-4.983-8.209-7.475-8.209h-.001s-.001 0-.001 0c-2.492 0-7.475 1.183-7.475 8.209v8.874z"/><path d="m82.96 22.012c0-.006 0-.011 0-.017-.029-4.124-.698-8.245-2.012-12.197l-2.936 2.24c.962 3.252 1.454 6.614 1.478 9.978-.023 3.37-.514 6.814-1.478 10.072l2.936 2.24c1.314-3.953 1.983-8.149 2.012-12.274h.001c0-.015 0-.028-.001-.042z"/><path d="m92 22.024c0-.01 0-.019 0-.029-.035-6.097-1.216-12.189-3.55-17.92l-2.87 2.189c1.937 5.06 2.918 10.402 2.95 15.749-.029 5.354-1.011 10.78-2.95 15.846l2.87 2.189c2.334-5.731 3.515-11.899 3.55-17.996h.001c0-.009-.001-.018-.001-.028z"/><path d="m159.729 30.599c-1.235 0-2.239-1.005-2.239-2.239 0-1.235 1.005-2.239 2.239-2.239s2.239 1.005 2.239 2.239c0 1.235-1.005 2.239-2.239 2.239zm0-4.26c-1.114 0-2.021.906-2.021 2.021 0 1.114.906 2.021 2.021 2.021 1.114 0 2.021-.906 2.021-2.021-.001-1.114-.907-2.021-2.021-2.021z"/><path d="m160.272 29.58-.646-.915h-.192v.915h-.523v-2.44h.806c.679 0 .81.523.81.755 0 .309-.174.512-.389.636l.792 1.049zm-.607-1.954h-.232v.57h.225c.251 0 .345-.134.345-.291 0-.17-.12-.279-.338-.279z"/><path d="m99.267 43.656v-1.656h-2.172v1.655h-.414v-3.544h.414v1.51h2.172v-1.51h.414v3.544h-.414z"/><path d="m101.507 43.656v-3.544h.414v3.544z"/><path d="m103.362 42.118v-.379h2.269v.379z"/><path d="m108.211 40.49v3.165h-.414v-3.165h-1.089v-.379h2.593v.379z"/><path d="m110.57 43.656v-3.544h2.358v.379h-1.944v1.131h1.6v.378h-1.6v1.276h1.944v.379h-2.358z"/><path d="m116.102 40.428c-.917 0-1.489.731-1.489 1.455 0 .848.614 1.455 1.448 1.455.49 0 .979-.172 1.4-.455v.448c-.455.248-.883.386-1.4.386-.986 0-1.876-.71-1.876-1.834 0-.952.841-1.834 1.917-1.834.455 0 .917.117 1.386.372v.441c-.317-.206-.862-.434-1.386-.434z"/><path d="m121.613 43.656v-1.656h-2.172v1.655h-.414v-3.544h.414v1.51h2.172v-1.51h.414v3.544h-.414z"/><path d="m127.331 43.718c-.814 0-1.565-.572-1.565-1.641v-1.965h.414v2.034c0 .779.586 1.193 1.152 1.193s1.152-.414 1.152-1.193v-2.034h.414v1.965c-.002 1.068-.753 1.641-1.567 1.641z"/><path d="m130.558 43.656v-3.544h.414v3.165h1.848v.379z"/><path d="m134.586 40.49v3.165h-.414v-3.165h-1.089v-.379h2.593v.379z"/><path d="m139.165 43.656-1.117-1.483h-.69v1.483h-.414v-3.544h1.193c.896 0 1.207.586 1.207 1.041 0 .476-.289.855-.814.979l1.165 1.524zm-1.041-3.166h-.765v1.303h.779c.552 0 .779-.29.779-.634 0-.317-.166-.669-.793-.669z"/><path d="m143.655 43.656-.386-.869h-1.876l-.386.869h-.462l1.586-3.544h.4l1.586 3.544zm-1.324-2.979-.765 1.731h1.531z"/><path d="m146.277 43.718c-.648 0-1.014-.386-1.172-.697l.317-.207c.145.276.455.538.876.538.331 0 .648-.207.648-.565 0-.276-.2-.414-.896-.828-.579-.345-.835-.565-.835-.979 0-.517.428-.931 1.055-.931.469 0 .8.234 1.041.579l-.31.221c-.214-.303-.448-.434-.772-.434-.393 0-.6.269-.6.503 0 .262.172.414.751.752s.979.6.979 1.089c0 .614-.537.959-1.082.959z"/><path d="m150.641 43.718c-.924 0-1.848-.759-1.848-1.834 0-1.076.924-1.834 1.848-1.834s1.848.759 1.848 1.834c-.001 1.075-.925 1.834-1.848 1.834zm0-3.29c-.772 0-1.421.648-1.421 1.455s.648 1.455 1.421 1.455c.772 0 1.421-.648 1.421-1.455s-.649-1.455-1.421-1.455z"/><path d="m156.779 43.656-2.338-2.903v2.903h-.414v-3.544h.414l2.338 2.903v-2.903h.414v3.544z"/><path d="m159.019 43.656v-3.544h.414v3.544z"/><path d="m162.84 40.428c-.917 0-1.489.731-1.489 1.455 0 .848.614 1.455 1.448 1.455.489 0 .979-.172 1.4-.455v.448c-.455.248-.883.386-1.4.386-.986 0-1.876-.71-1.876-1.834 0-.952.841-1.834 1.917-1.834.455 0 .917.117 1.386.372v.441c-.317-.206-.862-.434-1.386-.434z"/><path d="m169.565 40.428c-.917 0-1.489.731-1.489 1.455 0 .848.614 1.455 1.448 1.455.49 0 .979-.172 1.4-.455v.448c-.455.248-.883.386-1.4.386-.986 0-1.876-.71-1.876-1.834 0-.952.841-1.834 1.917-1.834.455 0 .917.117 1.386.372v.441c-.317-.206-.862-.434-1.386-.434z"/><path d="m172.49 43.656v-3.544h.414v3.165h1.848v.379z"/><path d="m175.98 43.656v-3.544h2.358v.379h-1.945v1.131h1.6v.378h-1.6v1.276h1.945v.379h-2.358z"/><path d="m182.497 43.656-.386-.869h-1.876l-.386.869h-.462l1.586-3.544h.4l1.586 3.544zm-1.324-2.979-.765 1.731h1.531z"/><path d="m186.946 43.656-2.338-2.903v2.903h-.414v-3.544h.414l2.338 2.903v-2.903h.414v3.544z"/><path d="m189.138 43.656v-3.544h2.358v.379h-1.944v1.131h1.6v.378h-1.6v1.276h1.944v.379h-2.358z"/><path d="m195.214 43.656-1.117-1.483h-.69v1.483h-.414v-3.544h1.193c.896 0 1.207.586 1.207 1.041 0 .476-.29.855-.814.979l1.166 1.524zm-1.041-3.166h-.765v1.303h.779c.552 0 .779-.29.779-.634 0-.317-.165-.669-.793-.669z"/><path d="m197.911 43.718c-.648 0-1.014-.386-1.172-.697l.317-.207c.145.276.455.538.876.538.331 0 .648-.207.648-.565 0-.276-.2-.414-.896-.828-.579-.345-.835-.565-.835-.979 0-.517.428-.931 1.055-.931.469 0 .8.234 1.041.579l-.31.221c-.214-.303-.448-.434-.772-.434-.393 0-.6.269-.6.503 0 .262.172.414.751.752s.979.6.979 1.089c.001.614-.537.959-1.082.959z"/></g></svg>