<?xml version="1.0" encoding="utf-8"?>
<!-- Generator: Adobe Illustrator 17.0.0, SVG Export Plug-In . SVG Version: 6.00 Build 0)  -->
<!DOCTYPE svg PUBLIC "-//W3C//DTD SVG 1.1//EN" "http://www.w3.org/Graphics/SVG/1.1/DTD/svg11.dtd">
<svg version="1.1" id="Layer_1" xmlns="http://www.w3.org/2000/svg" xmlns:xlink="http://www.w3.org/1999/xlink" x="0px" y="0px"
	 width="221.823px" height="44.333px" viewBox="0 1.975 221.823 44.333" enable-background="new 0 1.975 221.823 44.333"
	 xml:space="preserve">
<g>
	<path fill="#4bbab5" d="M6.929,30.642c-2.634,0-5.269-0.83-6.351-1.335v-3.428c1.732,0.938,4.114,1.732,6.496,1.732
		c1.876,0,3.14-0.686,3.14-1.768c0-0.866-0.83-1.371-1.913-1.696c-4.691-1.443-5.918-1.949-6.82-2.815
		c-0.686-0.65-1.155-1.552-1.155-2.851c0-2.598,2.021-4.98,6.423-4.98c1.985,0,3.789,0.505,5.377,1.083v3.32
		c-1.768-0.902-3.717-1.443-5.413-1.443c-2.237,0-3.031,0.794-3.031,1.66c0,0.866,0.686,1.227,2.526,1.804
		c4.186,1.263,5.088,1.696,5.954,2.346c0.938,0.686,1.48,1.949,1.48,3.031C13.641,28.152,11.44,30.642,6.929,30.642z"/>
</g>
<g>
	<path fill="#4bbab5" d="M25.088,30.606c-5.052,0-8.733-3.789-8.733-8.553c0-4.763,3.681-8.553,8.733-8.553s8.733,3.789,8.733,8.553
		C33.821,26.816,30.14,30.606,25.088,30.606z M25.088,16.604c-2.959,0-5.233,2.201-5.233,5.449c0,3.248,2.273,5.449,5.233,5.449
		c2.959,0,5.233-2.201,5.233-5.449C30.321,18.805,28.047,16.604,25.088,16.604z"/>
</g>
<g>
	<path fill="#4bbab5" d="M64.891,30.606c-5.052,0-8.733-3.789-8.733-8.553c0-4.763,3.681-8.553,8.733-8.553s8.733,3.789,8.733,8.553
		C73.624,26.816,69.943,30.606,64.891,30.606z M64.891,16.604c-2.959,0-5.233,2.201-5.233,5.449c0,3.248,2.273,5.449,5.233,5.449
		c2.959,0,5.233-2.201,5.233-5.449C70.124,18.805,67.85,16.604,64.891,16.604z"/>
</g>
<g>
	<path fill="#435363" d="M115.753,30.548h-1.768l-4.477-13.129l-4.476,13.129h-1.768l-6.583-17.041h2.445l4.966,13.355l4.514-13.355
		h1.806l4.514,13.355l4.966-13.355h2.445L115.753,30.548z"/>
</g>
<g>
	<path fill="#435363" d="M136.772,30.432v-1.778c-1.296,1.111-3.074,2.185-5.333,2.185c-3.185,0-5.481-1.926-5.481-4.74
		c0-1.37,0.519-3.37,2.852-4.666c1.592-0.889,4.666-1.222,7.962-1.222v-1.111c0-3.259-2-3.963-3.815-3.963
		c-2.037,0-4.37,0.741-5.814,1.481l0.444-2.111c1.481-0.63,3.407-1.222,5.703-1.222c3.407,0,5.629,1.815,5.629,5.703v11.444H136.772
		z M136.772,22.025c-2.333,0-5.407,0.222-6.777,0.963c-1.185,0.63-1.852,1.704-1.852,3c0,2,1.629,3,3.518,3
		c1.741,0,3.481-0.852,5.111-2.296V22.025z"/>
</g>
<g>
	<path fill="#435363" d="M149.414,30.835c-2.16,0-5.103-1.117-5.103-5.661v-9.758v-1.862V8.736l2.16,0.872v3.946h6.183v1.862h-6.183
		v9.646c0,3.017,1.788,3.874,3.389,3.874c1.527,0,2.644-0.484,3.576-1.192v2.086C152.282,30.426,150.904,30.835,149.414,30.835z"/>
</g>
<g>
	<path fill="#4bbab5" d="M41.159,30.603v-9.059c0-2.93,1.513-4.789,3.965-4.789c2.601,0,3.965,1.859,3.965,4.789v9.059H52.6v-8.874
		c0-7.025-4.983-8.209-7.475-8.209c0,0-0.001,0-0.001,0s-0.001,0-0.001,0c-2.492,0-7.475,1.183-7.475,8.209v8.874H41.159z"/>
</g>
<g>
	<path fill="#4bbab5" d="M64.891,21.856"/>
</g>
<g>
	<g>
		<path fill="#4bbab5" d="M82.96,22.012c0-0.006,0-0.011,0-0.017H82.96c-0.029-4.124-0.698-8.245-2.012-12.197l-2.936,2.24
			c0.962,3.252,1.454,6.614,1.478,9.978c-0.023,3.37-0.514,6.814-1.478,10.072l2.936,2.24c1.314-3.953,1.983-8.149,2.012-12.274
			h0.001C82.961,22.039,82.961,22.026,82.96,22.012z"/>
	</g>
	<g>
		<path fill="#4bbab5" d="M92,22.024c0-0.01,0-0.019,0-0.029H92c-0.035-6.097-1.216-12.189-3.55-17.92l-2.87,2.189
			c1.937,5.06,2.918,10.402,2.95,15.749c-0.029,5.354-1.011,10.78-2.95,15.846l2.87,2.189c2.334-5.731,3.515-11.899,3.55-17.996
			h0.001C92.001,22.043,92,22.034,92,22.024z"/>
	</g>
</g>
<g>
	<path fill="#435363" d="M159.729,30.599c-1.235,0-2.239-1.005-2.239-2.239c0-1.235,1.005-2.239,2.239-2.239
		s2.239,1.005,2.239,2.239C161.968,29.595,160.963,30.599,159.729,30.599z M159.729,26.339c-1.114,0-2.021,0.906-2.021,2.021
		c0,1.114,0.906,2.021,2.021,2.021c1.114,0,2.021-0.906,2.021-2.021C161.749,27.246,160.843,26.339,159.729,26.339z"/>
</g>
<g>
	<g>
		<path fill="#435363" d="M160.272,29.58l-0.646-0.915h-0.192v0.915h-0.523v-2.44h0.806c0.679,0,0.81,0.523,0.81,0.755
			c0,0.309-0.174,0.512-0.389,0.636l0.792,1.049H160.272z M159.665,27.626h-0.232v0.57h0.225c0.251,0,0.345-0.134,0.345-0.291
			C160.003,27.735,159.883,27.626,159.665,27.626z"/>
	</g>
</g>
<g>
	<path fill="#435363" d="M99.784,44.377v-1.986h-2.607v1.986h-0.497v-4.253h0.497v1.812h2.607v-1.812h0.497v4.253H99.784z"/>
	<path fill="#435363" d="M102.472,44.377v-4.253h0.497v4.253H102.472z"/>
	<path fill="#435363" d="M104.698,42.532v-0.455h2.722v0.455H104.698z"/>
	<path fill="#435363" d="M110.517,40.579v3.798h-0.497v-3.798h-1.307v-0.455h3.111v0.455H110.517z"/>
	<path fill="#435363" d="M113.348,44.377v-4.253h2.83v0.455h-2.333v1.357h1.92v0.455h-1.92v1.531h2.333v0.455H113.348z"/>
	<path fill="#435363" d="M119.986,40.504c-1.101,0-1.787,0.877-1.787,1.746c0,1.018,0.736,1.746,1.738,1.746
		c0.588,0,1.175-0.207,1.68-0.546v0.538c-0.546,0.298-1.059,0.463-1.68,0.463c-1.183,0-2.251-0.852-2.251-2.201
		c0-1.142,1.009-2.201,2.3-2.201c0.546,0,1.101,0.141,1.663,0.447v0.53C121.269,40.777,120.615,40.504,119.986,40.504z"/>
	<path fill="#435363" d="M126.599,44.377v-1.986h-2.607v1.986h-0.497v-4.253h0.497v1.812h2.607v-1.812h0.496v4.253H126.599z"/>
	<path fill="#435363" d="M133.461,44.452c-0.976,0-1.878-0.687-1.878-1.969v-2.358h0.496v2.441c0,0.935,0.704,1.432,1.382,1.432
		c0.679,0,1.382-0.497,1.382-1.432v-2.441h0.497v2.358C135.34,43.765,134.438,44.452,133.461,44.452z"/>
	<path fill="#435363" d="M137.334,44.377v-4.253h0.497v3.798h2.217v0.455H137.334z"/>
	<path fill="#435363" d="M142.167,40.579v3.798h-0.497v-3.798h-1.307v-0.455h3.111v0.455H142.167z"/>
	<path fill="#435363" d="M147.662,44.377l-1.341-1.779h-0.827v1.779h-0.496v-4.253h1.431c1.076,0,1.448,0.703,1.448,1.25
		c0,0.571-0.347,1.026-0.976,1.175l1.398,1.829H147.662z M146.413,40.579h-0.918v1.564h0.935c0.662,0,0.935-0.348,0.935-0.761
		C147.364,41.001,147.166,40.579,146.413,40.579z"/>
	<path fill="#435363" d="M153.05,44.377l-0.463-1.043h-2.251l-0.463,1.043h-0.554l1.903-4.253h0.48l1.903,4.253H153.05z
		 M151.462,40.802l-0.918,2.077h1.837L151.462,40.802z"/>
	<path fill="#435363" d="M156.196,44.452c-0.778,0-1.217-0.463-1.407-0.836l0.38-0.248c0.174,0.331,0.546,0.645,1.051,0.645
		c0.397,0,0.778-0.248,0.778-0.679c0-0.331-0.24-0.497-1.076-0.993c-0.695-0.414-1.001-0.679-1.001-1.175
		c0-0.621,0.513-1.117,1.266-1.117c0.563,0,0.96,0.281,1.25,0.695l-0.372,0.265c-0.257-0.364-0.538-0.521-0.927-0.521
		c-0.472,0-0.72,0.323-0.72,0.604c0,0.314,0.207,0.497,0.902,0.902c0.695,0.406,1.175,0.72,1.175,1.307
		C157.495,44.038,156.85,44.452,156.196,44.452z"/>
	<path fill="#435363" d="M161.433,44.452c-1.109,0-2.218-0.91-2.218-2.201c0-1.291,1.109-2.201,2.218-2.201
		c1.109,0,2.217,0.91,2.217,2.201C163.65,43.541,162.541,44.452,161.433,44.452z M161.433,40.504c-0.927,0-1.705,0.778-1.705,1.746
		s0.778,1.746,1.705,1.746c0.927,0,1.705-0.778,1.705-1.746S162.359,40.504,161.433,40.504z"/>
	<path fill="#435363" d="M168.799,44.377l-2.805-3.484v3.484h-0.496v-4.253h0.496l2.805,3.484v-3.484h0.496v4.253H168.799z"/>
	<path fill="#435363" d="M171.487,44.377v-4.253h0.497v4.253H171.487z"/>
	<path fill="#435363" d="M176.072,40.504c-1.101,0-1.787,0.877-1.787,1.746c0,1.018,0.736,1.746,1.738,1.746
		c0.587,0,1.175-0.207,1.68-0.546v0.538c-0.546,0.298-1.059,0.463-1.68,0.463c-1.183,0-2.251-0.852-2.251-2.201
		c0-1.142,1.009-2.201,2.3-2.201c0.546,0,1.101,0.141,1.663,0.447v0.53C177.354,40.777,176.7,40.504,176.072,40.504z"/>
	<path fill="#435363" d="M184.142,40.504c-1.1,0-1.787,0.877-1.787,1.746c0,1.018,0.736,1.746,1.738,1.746
		c0.588,0,1.175-0.207,1.68-0.546v0.538c-0.546,0.298-1.059,0.463-1.68,0.463c-1.183,0-2.251-0.852-2.251-2.201
		c0-1.142,1.009-2.201,2.3-2.201c0.546,0,1.101,0.141,1.663,0.447v0.53C185.424,40.777,184.771,40.504,184.142,40.504z"/>
	<path fill="#435363" d="M187.652,44.377v-4.253h0.497v3.798h2.217v0.455H187.652z"/>
	<path fill="#435363" d="M191.84,44.377v-4.253h2.83v0.455h-2.334v1.357h1.92v0.455h-1.92v1.531h2.334v0.455H191.84z"/>
	<path fill="#435363" d="M199.661,44.377l-0.463-1.043h-2.251l-0.463,1.043h-0.554l1.903-4.253h0.48l1.903,4.253H199.661z
		 M198.072,40.802l-0.918,2.077h1.837L198.072,40.802z"/>
	<path fill="#435363" d="M205,44.377l-2.805-3.484v3.484h-0.497v-4.253h0.497L205,43.607v-3.484h0.496v4.253H205z"/>
	<path fill="#435363" d="M207.63,44.377v-4.253h2.83v0.455h-2.333v1.357h1.92v0.455h-1.92v1.531h2.333v0.455H207.63z"/>
	<path fill="#435363" d="M214.921,44.377l-1.341-1.779h-0.827v1.779h-0.497v-4.253h1.432c1.076,0,1.448,0.703,1.448,1.25
		c0,0.571-0.348,1.026-0.977,1.175l1.399,1.829H214.921z M213.672,40.579h-0.918v1.564h0.935c0.662,0,0.935-0.348,0.935-0.761
		C214.623,41.001,214.425,40.579,213.672,40.579z"/>
	<path fill="#435363" d="M218.157,44.452c-0.778,0-1.217-0.463-1.407-0.836l0.38-0.248c0.174,0.331,0.546,0.645,1.051,0.645
		c0.397,0,0.778-0.248,0.778-0.679c0-0.331-0.24-0.497-1.076-0.993c-0.695-0.414-1.001-0.679-1.001-1.175
		c0-0.621,0.513-1.117,1.266-1.117c0.563,0,0.96,0.281,1.25,0.695l-0.372,0.265c-0.257-0.364-0.538-0.521-0.927-0.521
		c-0.472,0-0.72,0.323-0.72,0.604c0,0.314,0.207,0.497,0.902,0.902c0.695,0.406,1.175,0.72,1.175,1.307
		C219.456,44.038,218.811,44.452,218.157,44.452z"/>
</g>
</svg>
