<svg enable-background="new 0 0 199.98 44.95" height="44.95" viewBox="0 0 199.98 44.95" width="199.98" xmlns="http://www.w3.org/2000/svg"><g fill="#fff"><path d="m8.445 33.054c-3.248 0-6.497-1.024-7.831-1.646v-4.228c2.136 1.156 5.072 2.136 8.009 2.136 2.314 0 3.872-.846 3.872-2.18 0-1.067-1.024-1.69-2.358-2.091-5.785-1.779-7.297-2.403-8.41-3.471-.846-.801-1.423-1.913-1.423-3.515 0-3.204 2.492-6.141 7.92-6.141 2.447 0 4.672.623 6.63 1.334v4.094c-2.18-1.113-4.583-1.779-6.675-1.779-2.759 0-3.738.979-3.738 2.046s.846 1.512 3.115 2.225c5.161 1.557 6.274 2.091 7.341 2.892 1.156.846 1.824 2.403 1.824 3.738.002 3.514-2.714 6.586-8.276 6.586z"/><path d="m30.836 33.008c-6.23 0-10.768-4.672-10.768-10.545 0-5.874 4.538-10.545 10.768-10.545s10.768 4.672 10.768 10.545c.001 5.873-4.538 10.545-10.768 10.545zm0-17.265c-3.649 0-6.452 2.714-6.452 6.718s2.803 6.718 6.452 6.718 6.452-2.714 6.452-6.718c.002-4.002-2.803-6.718-6.452-6.718z"/><path d="m79.916 33.008c-6.23 0-10.768-4.672-10.768-10.545 0-5.874 4.538-10.545 10.768-10.545s10.768 4.672 10.768 10.545c-.001 5.873-4.539 10.545-10.768 10.545zm0-17.265c-3.649 0-6.452 2.714-6.452 6.718s2.803 6.718 6.452 6.718 6.452-2.714 6.452-6.718c0-4.002-2.803-6.718-6.452-6.718z"/><path d="m142.76 32.804h-2.091l-5.295-15.53-5.295 15.53h-2.091l-7.787-20.157h2.892l5.874 15.797 5.339-15.797h2.136l5.339 15.797 5.874-15.797h2.892z"/><path d="m168.029 32.804v-2.136c-1.557 1.334-3.692 2.625-6.408 2.625-3.827 0-6.586-2.314-6.586-5.696 0-1.646.623-4.05 3.426-5.606 1.913-1.067 5.606-1.469 9.567-1.469v-1.334c0-3.916-2.403-4.761-4.583-4.761-2.447 0-5.25.89-6.985 1.779l.534-2.536c1.779-.757 4.094-1.469 6.853-1.469 4.094 0 6.764 2.18 6.764 6.853v13.749h-2.58v.001zm0-10.1c-2.803 0-6.497.267-8.143 1.156-1.423.757-2.225 2.047-2.225 3.604 0 2.403 1.957 3.605 4.228 3.605 2.091 0 4.182-1.024 6.141-2.759z"/><path d="m184.169 33.294c-2.581 0-6.096-1.334-6.096-6.764v-11.657-2.225-5.755l2.581 1.041v4.713h7.386v2.225h-7.386v11.524c0 3.605 2.136 4.627 4.05 4.627 1.824 0 3.159-.579 4.271-1.423v2.492c-1.379.712-3.026 1.202-4.806 1.202z"/><path d="m50.702 32.498v-10.901c0-3.526 1.821-5.763 4.772-5.763 3.13 0 4.772 2.237 4.772 5.763v10.901h4.225v-10.679c0-8.454-5.997-9.879-8.995-9.879h-.001-.001c-2.998 0-8.995 1.423-8.995 9.879v10.679c-.002 0 4.223 0 4.223 0z"/><path d="m102.195 22.412c0-.007 0-.015 0-.02-.035-5.085-.86-10.166-2.481-15.04l-3.621 2.762c1.187 4.009 1.792 8.155 1.823 12.304-.028 4.156-.634 8.403-1.823 12.419l3.621 2.762c1.62-4.874 2.446-10.048 2.481-15.134h.001c0-.019-.001-.035-.001-.053z"/><path d="m113.342 22.427c0-.012 0-.023 0-.035h-.001c-.044-7.518-1.499-15.029-4.378-22.095l-3.538 2.699c2.387 6.239 3.599 12.826 3.637 19.419-.035 6.602-1.247 13.293-3.637 19.539l3.538 2.699c2.879-7.067 4.334-14.672 4.378-22.19h.001c0-.011 0-.024 0-.036z"/><path d="m196.853 33.611c-1.523 0-2.761-1.238-2.761-2.761 0-1.522 1.238-2.761 2.761-2.761 1.522 0 2.761 1.238 2.761 2.761s-1.238 2.761-2.761 2.761zm0-5.253c-1.374 0-2.491 1.117-2.491 2.491s1.117 2.491 2.491 2.491 2.491-1.117 2.491-2.491c0-1.373-1.117-2.491-2.491-2.491z"/><path d="m197.522 32.354-.798-1.129h-.238v1.129h-.645v-3.009h.995c.837 0 .999.645.999.932 0 .381-.214.631-.48.783l.976 1.294zm-.746-2.408h-.287v.703h.277c.309 0 .426-.166.426-.359-.001-.21-.148-.344-.416-.344z"/></g></svg>