<svg enable-background="new 0 0 113.386 85.04" height="85.04" viewBox="0 0 113.386 85.04" width="113.386" xmlns="http://www.w3.org/2000/svg"><g fill="#fff"><path d="m72.396 51.566 2.994-3.619-5.139-5.154-3.613 3.011c-1.668-1.043-3.516-1.822-5.486-2.278l-.433-4.685h-7.265l-.434 4.699c-1.965.46-3.806 1.243-5.467 2.29l-3.626-3.02-5.137 5.156 3.017 3.645c-1.036 1.667-1.811 3.514-2.264 5.483l-4.69.436v7.266l4.69.436c.453 1.97 1.228 3.816 2.264 5.483l-3.017 3.645 5.137 5.156 3.626-3.02c1.661 1.047 3.502 1.829 5.467 2.29l.434 4.699h7.265l.433-4.685c1.97-.455 3.818-1.235 5.486-2.278l3.613 3.011 5.139-5.154-2.994-3.619c1.047-1.672 1.831-3.528 2.288-5.506l4.662-.434v-7.314l-4.662-.435c-.457-1.977-1.24-3.833-2.288-5.505zm-15.296 17.038c-4.088 0-7.416-3.338-7.416-7.44s3.327-7.44 7.416-7.44c4.088 0 7.415 3.338 7.415 7.44s-3.327 7.44-7.415 7.44z"/><path d="m37.041 39.236.034-.001c.949-.029 1.883-.213 2.777-.549 4.49-1.689 6.779-6.742 5.106-11.254l-6.91-13.437c-.393-.76-1.623-.761-2.016 0l-6.848 13.294-.058.131c-1.676 4.523.614 9.575 5.104 11.265.893.335 1.827.519 2.733.546zm-6.736-11.358 6.736-13.076 6.729 13.061c1.434 3.868-.522 8.19-4.361 9.633-.749.281-1.53.438-2.365.47v-.001c-.81-.025-1.608-.183-2.371-.468-3.838-1.443-5.795-5.765-4.368-9.619z"/><path d="m84.259 27.418-6.905-13.424c-.394-.758-1.621-.76-2.017.002l-6.841 13.282-.064.144c-1.676 4.522.613 9.575 5.103 11.265.893.335 1.827.519 2.732.546l.079.004.035-.001c.948-.029 1.882-.213 2.777-.549 4.491-1.69 6.78-6.743 5.101-11.269zm-5.545 10.079c-.748.281-1.529.438-2.364.47v-.001c-.811-.025-1.608-.183-2.371-.468-3.84-1.445-5.795-5.767-4.368-9.62l6.735-13.076 6.729 13.062c1.434 3.868-.523 8.19-4.361 9.633z"/><path d="m54.337 26.309c.891.334 1.825.519 2.811.549h.026.01c.951-.03 1.885-.215 2.776-.549 4.49-1.688 6.78-6.742 5.101-11.268l-6.905-13.422c-.392-.761-1.625-.758-2.016 0l-6.845 13.288-.061.138c-1.677 4.521.612 9.574 5.103 11.264zm-3.925-10.808 6.736-13.076 6.729 13.061c1.434 3.868-.523 8.19-4.361 9.634-.76.285-1.556.443-2.368.469-.811-.026-1.608-.184-2.368-.468-3.839-1.445-5.795-5.767-4.368-9.62z"/></g></svg>