<svg enable-background="new 0 0 85.04 85.04" height="85.04" viewBox="0 0 85.04 85.04" width="85.04" xmlns="http://www.w3.org/2000/svg"><g fill="#4bbab5"><path d="m58.231 51.38 2.994-3.619-5.139-5.154-3.613 3.011c-1.668-1.043-3.516-1.822-5.486-2.278l-.433-4.685h-7.265l-.434 4.699c-1.965.46-3.806 1.243-5.467 2.29l-3.626-3.02-5.137 5.156 3.017 3.645c-1.036 1.667-1.811 3.514-2.264 5.483l-4.69.436v7.266l4.69.436c.453 1.97 1.228 3.816 2.264 5.483l-3.017 3.645 5.137 5.156 3.626-3.02c1.661 1.047 3.502 1.829 5.467 2.29l.434 4.699h7.265l.433-4.685c1.97-.455 3.818-1.235 5.486-2.278l3.613 3.011 5.139-5.154-2.994-3.619c1.047-1.672 1.831-3.528 2.288-5.506l4.662-.434v-7.314l-4.662-.435c-.458-1.977-1.241-3.833-2.288-5.505zm-15.297 17.038c-4.088 0-7.416-3.338-7.416-7.44s3.327-7.44 7.416-7.44 7.415 3.338 7.415 7.44-3.327 7.44-7.415 7.44z"/><path d="m22.875 39.05.034-.001c.949-.029 1.883-.213 2.777-.549 4.49-1.689 6.779-6.742 5.106-11.254l-6.91-13.437c-.393-.76-1.623-.761-2.016 0l-6.848 13.294-.058.131c-1.676 4.523.614 9.575 5.104 11.265.893.335 1.827.519 2.733.546zm-6.736-11.358 6.736-13.076 6.729 13.061c1.434 3.868-.522 8.19-4.361 9.633-.749.281-1.53.438-2.365.47v-.001c-.81-.025-1.608-.183-2.371-.468-3.838-1.443-5.795-5.765-4.368-9.619z"/><path d="m70.094 27.232-6.905-13.424c-.394-.758-1.621-.76-2.017.002l-6.841 13.282-.064.144c-1.676 4.522.613 9.575 5.103 11.265.893.335 1.827.519 2.732.546l.079.004.035-.001c.948-.029 1.882-.213 2.777-.549 4.49-1.69 6.779-6.743 5.101-11.269zm-5.545 10.079c-.748.281-1.529.438-2.364.47v-.001c-.811-.025-1.608-.183-2.371-.468-3.84-1.445-5.795-5.767-4.368-9.62l6.735-13.076 6.729 13.062c1.433 3.868-.523 8.19-4.361 9.633z"/><path d="m40.171 26.123c.891.334 1.825.519 2.811.549h.026.01c.951-.03 1.885-.215 2.776-.549 4.49-1.688 6.78-6.742 5.101-11.268l-6.905-13.423c-.392-.761-1.625-.758-2.016 0l-6.845 13.288-.061.138c-1.677 4.522.612 9.575 5.103 11.265zm-3.924-10.808 6.736-13.076 6.728 13.061c1.434 3.868-.523 8.19-4.361 9.634-.76.285-1.556.443-2.368.469-.811-.026-1.608-.184-2.368-.468-3.838-1.445-5.795-5.767-4.367-9.62z"/><path d="m-103.424-18.362 5.712-6.902-9.802-9.831-6.892 5.744c-3.181-1.99-6.705-3.476-10.463-4.345l-.825-8.935h-13.858l-.828 8.963c-3.748.878-7.259 2.371-10.427 4.368l-6.916-5.76-9.798 9.834 5.754 6.952c-1.976 3.179-3.454 6.702-4.319 10.458l-8.946.831v13.859l8.946.831c.865 3.757 2.343 7.279 4.319 10.458l-5.754 6.952 9.798 9.834 6.916-5.76c3.168 1.997 6.679 3.489 10.427 4.368l.828 8.962h13.858l.825-8.935c3.758-.869 7.282-2.355 10.463-4.345l6.892 5.743 9.802-9.83-5.712-6.903c1.997-3.189 3.492-6.729 4.363-10.502l8.892-.828v-13.95l-8.891-.829c-.872-3.773-2.367-7.313-4.364-10.502zm-29.176 32.498c-7.798 0-14.144-6.367-14.144-14.191s6.347-14.191 14.144-14.191 14.143 6.367 14.143 14.191c0 7.823-6.345 14.191-14.143 14.191z"/><path d="m-170.86-41.88.066-.002c1.81-.055 3.592-.407 5.297-1.047 8.565-3.221 12.93-12.859 9.74-21.465l-13.18-25.628c-.749-1.45-3.096-1.451-3.846.001l-13.062 25.357-.111.251c-3.196 8.626 1.171 18.264 9.735 21.486 1.703.639 3.485.991 5.213 1.041zm-12.847-21.664 12.848-24.94 12.835 24.912c2.734 7.378-.996 15.622-8.317 18.374-1.428.537-2.918.836-4.51.897v-.002c-1.546-.047-3.068-.348-4.523-.893-7.322-2.754-11.055-10.997-8.333-18.348z"/><path d="m-80.797-64.422-13.171-25.604c-.751-1.446-3.092-1.45-3.847.004l-13.048 25.334-.123.274c-3.197 8.625 1.17 18.263 9.734 21.486 1.703.639 3.485.991 5.211 1.041l.151.007.067-.002c1.809-.055 3.59-.407 5.297-1.047 8.564-3.222 12.931-12.86 9.729-21.493zm-10.577 19.225c-1.427.537-2.917.836-4.509.897v-.002c-1.547-.047-3.068-.348-4.523-.893-7.323-2.756-11.054-10.999-8.332-18.349l12.847-24.941 12.835 24.914c2.735 7.378-.996 15.621-8.318 18.374z"/><path d="m-137.87-66.537c1.699.637 3.481.989 5.362 1.047h.049l.019-.001c1.814-.057 3.596-.409 5.295-1.048 8.565-3.22 12.931-12.859 9.73-21.492l-13.17-25.601c-.748-1.451-3.1-1.446-3.845.001l-13.057 25.345-.117.263c-3.198 8.624 1.168 18.262 9.734 21.486zm-7.485-20.615 12.848-24.94 12.834 24.912c2.736 7.378-.997 15.621-8.318 18.375-1.449.544-2.968.845-4.516.894-1.548-.049-3.067-.35-4.516-.893-7.324-2.756-11.055-10.999-8.332-18.348z"/></g></svg>