<svg enable-background="new 0 0 113.386 85.04" height="85.04" viewBox="0 0 113.386 85.04" width="113.386" xmlns="http://www.w3.org/2000/svg"><g fill="#fff"><path d="m65.378 31.572-7.896 8.202c.397.724.635 1.564.635 2.452l2.859 2.721c1.296 1.226 1.341 3.271.106 4.545-.636.664-1.495.992-2.353.992-.802 0-1.612-.293-2.236-.888l-2.389-2.266c-.401.093-.814.152-1.238.152-.823 0-1.6-.2-2.293-.538l-3.296 3.412c-.259.266-.587.395-.943.395-.317 0-.633-.105-.892-.35-.518-.502-.53-1.307-.048-1.821l3.191-3.307c-.603-.852-.955-1.881-.955-3.002 0-.35.024-.676.093-.993l-10.169-9.647c-1.28-1.226-1.328-3.271-.093-4.545 1.236-1.283 3.296-1.342 4.579-.105l10.638 10.092h.187c1.048 0 2.012.305 2.826.819l7.803-8.095c.495-.514 1.317-.538 1.847-.048.507.505.531 1.309.037 1.823zm10.65 15.594-2.13 1.507v.06l7.686.012-.754 4.015h-14.63l.555-3.035 4.613-3.54c4.296-3.469 7.062-5.956 7.062-8.504 0-1.507-1.061-2.58-2.968-2.58-1.904 0-3.39.562-4.519 1.238l-.952-3.364c1.717-1.05 4.191-1.833 6.625-1.833 4.345 0 6.685 2.524 6.685 5.792 0 4.344-3.482 7.346-7.273 10.232z"/><path d="m86.902 63.801c1.53-2.395.837-5.574-1.588-7.114-2.413-1.531-5.625-.831-7.168 1.564-5.555 8.633-15.004 13.773-25.281 13.773-16.534 0-29.987-13.339-29.987-29.752 0-16.41 13.452-29.761 29.987-29.761 8.77 0 16.914 3.774 22.575 10.22l-6.285 4.743 18.369 2.464 2.506-18.231-6.294 4.754c-7.626-9.007-18.819-14.264-30.87-14.264-22.252.012-40.364 17.987-40.366 40.07v.008c.002 22.074 18.113 40.06 40.363 40.062h.007c13.839-.002 26.561-6.939 34.032-18.536z"/><path d="m76.616 31.142c-2.434 0-4.908.783-6.625 1.833l.952 3.364c1.13-.676 2.616-1.238 4.519-1.238 1.907 0 2.968 1.073 2.968 2.58 0 2.548-2.766 5.036-7.062 8.504l-4.613 3.54-.555 3.035h14.63l.754-4.015-7.686-.012v-.06l2.13-1.507c3.791-2.886 7.273-5.888 7.273-10.232 0-3.268-2.34-5.792-6.685-5.792z"/><path d="m98.742 43.99.002-.012h-.002z"/><path d="m98.742 43.99v-.012h.002l2.363-12.487h-5.824l-10.216 12.954-.588 3.143h9.12l-.988 5.161h4.447l.991-5.161h2.54l.66-3.607v-.002h-2.504zm-3.459-4.613-.991 4.614h-4.471l.036-.06 3.531-4.509c1.024-1.411 1.846-2.745 2.799-4.192h.13c-.34 1.342-.741 2.804-1.034 4.147z"/><path d="m63.495 29.799-7.803 8.095c-.814-.515-1.778-.819-2.826-.819h-.187l-10.638-10.093c-1.284-1.238-3.344-1.178-4.579.105-1.235 1.274-1.187 3.319.093 4.545l10.169 9.647c-.069.317-.093.643-.093.993 0 1.121.352 2.15.955 3.002l-3.191 3.307c-.482.514-.47 1.319.048 1.821.259.245.575.35.892.35.356 0 .684-.129.943-.395l3.296-3.412c.693.338 1.47.538 2.293.538.425 0 .837-.06 1.238-.152l2.389 2.266c.624.595 1.434.888 2.236.888.858 0 1.717-.329 2.353-.992 1.235-1.274 1.19-3.319-.106-4.545l-2.859-2.721c0-.888-.238-1.728-.635-2.452l7.896-8.202c.494-.515.47-1.319-.036-1.821-.531-.491-1.354-.467-1.848.047z"/></g></svg>