<svg enable-background="new 0 0 113.386 85.04" height="85.04" viewBox="0 0 113.386 85.04" width="113.386" xmlns="http://www.w3.org/2000/svg"><path d="m91.758 56.99v-29.446c1.981-.33 3.497-2.051 3.497-4.124 0-2.307-1.877-4.185-4.185-4.185-1.328 0-2.512.624-3.279 1.593l-26.973-14.866c.153-.435.242-.901.242-1.388 0-2.308-1.877-4.185-4.185-4.185s-4.185 1.877-4.185 4.185c0 .487.088.953.242 1.388l-26.974 14.866c-.767-.968-1.951-1.593-3.279-1.593-2.307 0-4.184 1.876-4.185 4.182v.005c.001 2.072 1.517 3.792 3.497 4.121v29.447c-1.98.329-3.496 2.049-3.497 4.121v.005c.001 2.307 1.878 4.183 4.185 4.183 1.329 0 2.512-.624 3.279-1.593l26.973 14.866c-.154.435-.242.901-.242 1.388 0 2.307 1.876 4.184 4.183 4.185h.004c2.307-.001 4.183-1.878 4.183-4.185 0-.487-.088-.953-.242-1.388l26.973-14.866c.767.968 1.95 1.593 3.279 1.593 2.307 0 4.185-1.877 4.185-4.185.001-2.074-1.515-3.795-3.496-4.124zm-3.403-34.281c.12-.457.352-.869.665-1.205.513-.549 1.241-.895 2.05-.895 1.549 0 2.81 1.261 2.81 2.81 0 1.312-.905 2.413-2.122 2.721-.221.056-.45.089-.688.089-.237 0-.467-.033-.688-.089-.53-.134-1-.418-1.362-.806-.313-.335-.545-.747-.665-1.204-.06-.228-.095-.465-.095-.711.001-.245.036-.482.095-.71zm-.563 3.304c.631.797 1.546 1.357 2.591 1.531v29.446c-.298.049-.585.129-.858.238l-14.593-24.128zm-27.638-18.847 26.973 14.866c-.154.436-.242.901-.242 1.388s.088.953.242 1.389l-12.908 7.114-14.622-24.177c.203-.175.39-.37.557-.58zm-6.488 32.428-.052.012-.683-2.76 3.77-1.07h2.585v3.082 1.982 2.852 1.982 3.082h-3.496v-2.453-1.449-5.176-.568zm3.209-10.733c-4.811 0-9.028 2.535-11.393 6.342l-4.746-2.616 14.592-24.128c.479.191 1 .3 1.546.3.547 0 1.067-.108 1.546-.3l14.593 24.128-4.746 2.616c-2.365-3.807-6.581-6.342-11.392-6.342zm0-27.097c1.549 0 2.809 1.26 2.809 2.809 0 .246-.035.483-.095.711-.12.457-.351.869-.665 1.204-.018.019-.034.04-.053.058-.323.327-.725.575-1.176.713-.26.079-.535.123-.821.123s-.561-.044-.821-.123c-.45-.138-.853-.386-1.176-.713-.018-.019-.035-.039-.052-.058-.314-.335-.545-.747-.665-1.204-.06-.228-.095-.465-.095-.711 0-1.549 1.26-2.809 2.81-2.809zm-30.253 20.268 26.973-14.866c.167.21.354.405.557.58l-14.622 24.176-12.908-7.114c.153-.436.242-.901.242-1.389 0-.486-.088-.952-.242-1.387zm-.664 3.981 12.86 7.087-14.593 24.128c-.273-.109-.56-.189-.858-.238v-29.446c1.045-.174 1.959-.734 2.591-1.531zm-6.089-2.593c0-1.549 1.261-2.81 2.81-2.81.809 0 1.537.346 2.05.895.313.335.545.747.665 1.205.06.227.095.465.095.711s-.035.484-.095.711c-.12.457-.351.869-.665 1.204-.363.388-.832.672-1.362.806-.221.056-.45.089-.688.089s-.467-.033-.688-.089c-1.217-.309-2.122-1.41-2.122-2.722zm5.524 38.404c-.002.006-.003.011-.004.016-.121.451-.351.856-.66 1.188-.513.549-1.241.894-2.05.894-1.549 0-2.81-1.26-2.81-2.809 0-1.312.905-2.413 2.122-2.721.221-.056.45-.088.688-.088s.467.033.688.088c.044.011.089.021.133.035.45.138.853.386 1.176.713.018.019.035.039.053.058.313.335.545.747.665 1.204.006.021.011.042.016.062.049.209.078.425.078.649 0 .246-.034.484-.095.711zm.008-3.883 14.622-24.177 4.793 2.641c-.862 1.771-1.347 3.759-1.347 5.861s.485 4.09 1.347 5.861l-18.858 10.394c-.167-.211-.353-.405-.557-.58zm31.474 24.828c-1.549 0-2.81-1.26-2.81-2.81 0-.246.035-.483.095-.711.12-.457.351-.869.665-1.204.513-.549 1.241-.895 2.05-.895s1.537.346 2.05.895c.314.335.545.747.665 1.204.06.228.095.465.095.711-.001 1.55-1.261 2.81-2.81 2.81zm3.279-5.401c-.767-.969-1.951-1.593-3.279-1.593s-2.512.624-3.279 1.593l-26.974-14.867c.075-.213.134-.434.174-.661h60.157c.04.228.099.448.174.661zm26.787-16.903h-60.133c-.04-.255-.102-.502-.186-.739l18.859-10.394c2.365 3.806 6.582 6.342 11.393 6.342s9.028-2.536 11.393-6.342l18.86 10.394c-.084.237-.146.484-.186.739zm.85-1.944-18.857-10.393c.862-1.771 1.347-3.759 1.347-5.861s-.485-4.09-1.347-5.861l4.792-2.641 14.622 24.177c-.204.174-.39.368-.557.579zm3.279 5.401c-.809 0-1.536-.345-2.05-.894-.31-.332-.539-.737-.661-1.188-.002-.005-.003-.011-.004-.016-.06-.228-.095-.465-.095-.711 0-.224.029-.44.078-.649.005-.021.011-.042.016-.062.12-.457.352-.869.665-1.204.018-.019.035-.039.053-.058.324-.327.726-.575 1.176-.713.044-.014.089-.023.133-.035.221-.056.45-.088.688-.088s.467.033.688.088c1.217.308 2.122 1.409 2.122 2.721.001 1.549-1.26 2.809-2.809 2.809z" fill="#fff"/></svg>