<svg enable-background="new 0 0 113.386 85.04" height="85.04" viewBox="0 0 113.386 85.04" width="113.386" xmlns="http://www.w3.org/2000/svg"><path d="m13.492 18.132h-1.407v1.406 41.071h-8.282v18.342h17.972v-18.343h-8.283v-41.07h24.311v59.413h71.89v-73.368h-71.89v12.548zm-6.677 46.044c0-.231.186-.419.416-.419h2.779c.23 0 .416.188.416.419 0 .232-.186.42-.416.42h-1.775l2.68 2.701c.163.164.163.429 0 .593-.081.082-.188.122-.294.122s-.213-.04-.294-.122l-2.68-2.701v1.788c0 .232-.186.419-.416.419-.229 0-.416-.188-.416-.419zm4.183 8.002-2.762 2.784h1.775c.229 0 .416.188.416.419 0 .232-.186.419-.416.419h-2.779c-.23 0-.416-.187-.416-.419v-2.801c0-.232.186-.419.416-.419s.416.188.416.419v1.788l2.762-2.784c.163-.164.427-.164.588-.001.163.166.163.431 0 .595zm3.664-4.88 2.68-2.702h-1.774c-.23 0-.416-.188-.416-.419 0-.232.186-.419.416-.419h2.779c.229 0 .416.188.416.419v2.802c0 .232-.186.419-.416.419-.229 0-.416-.188-.416-.419v-1.789l-2.68 2.702c-.081.081-.188.123-.294.123s-.212-.041-.294-.123c-.163-.165-.163-.431-.001-.594zm-.083 4.287c.163-.164.426-.164.588 0l2.763 2.784v-1.788c0-.232.186-.419.416-.419.229 0 .416.188.416.419v2.801c0 .232-.186.42-.416.42h-2.779c-.23 0-.416-.188-.416-.42s.186-.419.416-.419h1.774l-2.762-2.785c-.162-.164-.162-.429 0-.593zm66.635-39.208 10.678-10.765h-7.07c-.916 0-1.658-.748-1.658-1.672 0-.923.742-1.672 1.658-1.672h11.073c.916 0 1.658.749 1.658 1.672v11.164c0 .922-.742 1.671-1.658 1.671s-1.658-.749-1.658-1.671v-7.128l-10.678 10.766c-.324.326-.748.49-1.173.49-.424 0-.848-.163-1.173-.49-.647-.654-.647-1.712.001-2.365zm-.331 17.084c.648-.653 1.697-.653 2.345 0l11.008 11.097v-7.127c0-.924.742-1.672 1.658-1.672s1.658.748 1.658 1.672v11.162c0 .923-.742 1.672-1.658 1.672h-11.072c-.916 0-1.658-.749-1.658-1.672s.742-1.672 1.658-1.672h7.07l-11.009-11.096c-.647-.653-.647-1.712 0-2.364zm-14.271 2.363-11.007 11.097h7.07c.917 0 1.658.75 1.658 1.672 0 .924-.741 1.672-1.658 1.672h-11.073c-.916 0-1.659-.747-1.659-1.672v-11.162c0-.924.743-1.672 1.659-1.672s1.657.748 1.657 1.672v7.127l11.007-11.097c.648-.653 1.698-.653 2.346-.001s.648 1.711 0 2.364zm-16.669-31.885c0-.922.743-1.671 1.658-1.671h11.073c.916 0 1.658.749 1.658 1.671 0 .924-.742 1.672-1.658 1.672h-7.071l10.68 10.764c.648.653.648 1.711 0 2.364-.324.327-.748.488-1.173.488-.424 0-.848-.161-1.172-.488l-10.68-10.764v7.127c0 .923-.743 1.672-1.658 1.672s-1.658-.749-1.658-1.672z" fill="#fff"/></svg>