<svg enable-background="new 0 0 113.386 85.04" height="85.04" viewBox="0 0 113.386 85.04" width="113.386" xmlns="http://www.w3.org/2000/svg"><g fill="#fff"><path d="m21.36 11.099v61.704c0 2.57 2.09 4.66 4.66 4.66h61.704c2.57 0 4.66-2.09 4.66-4.66v-61.704c0-2.57-2.09-4.66-4.66-4.66h-61.704c-2.57 0-4.66 2.091-4.66 4.66zm68.256 0v61.704c0 1.043-.849 1.892-1.892 1.892h-61.704c-1.043 0-1.892-.849-1.892-1.892v-61.704c0-1.043.849-1.892 1.892-1.892h61.704c1.043 0 1.892.849 1.892 1.892z"/><path d="m84.766 41.785c0 4.009-.84 7.889-2.497 11.532l-.439.965 2.157.967.435-.953c1.803-3.955 2.717-8.164 2.717-12.51 0-4.239-.871-8.351-2.588-12.224l-.429-.968-2.158.966.424.96c1.578 3.566 2.378 7.356 2.378 11.265z"/><path d="m81.19 41.806c0 3.349-.705 6.593-2.094 9.641l-.441.966 2.137.956.434-.954c1.524-3.352 2.297-6.921 2.297-10.61 0-3.596-.736-7.083-2.187-10.365l-.429-.97-2.136.958.425.96c1.324 2.985 1.994 6.153 1.994 9.418z"/><path d="m29.791 55.244 2.158-.964-.44-.967c-1.657-3.643-2.497-7.522-2.497-11.532 0-3.909.8-7.7 2.377-11.265l.424-.96-2.157-.967-.43.968c-1.717 3.873-2.587 7.986-2.587 12.224 0 4.346.914 8.555 2.717 12.51z"/><path d="m32.552 52.412.435.955 2.136-.958-.44-.966c-1.39-3.048-2.094-6.291-2.094-9.641 0-3.265.67-6.434 1.992-9.417l.426-.961-2.137-.957-.428.969c-1.451 3.281-2.187 6.769-2.187 10.365 0 3.689.773 7.259 2.297 10.611z"/><path d="m45.468 15.242c3.566-1.577 7.357-2.377 11.265-2.377 4.009 0 7.889.841 11.532 2.497l.966.439.967-2.157-.954-.435c-3.955-1.803-8.164-2.717-12.51-2.717-4.239 0-8.351.871-12.224 2.588l-.969.429.968 2.157z"/><path d="m56.755 14.108c-3.596 0-7.084.736-10.365 2.187l-.969.428.957 2.137.961-.426c2.984-1.322 6.151-1.993 9.417-1.993 3.349 0 6.593.705 9.641 2.094l.967.441.956-2.137-.954-.434c-3.353-1.524-6.923-2.297-10.611-2.297z"/><path d="m68.275 67.645c-3.566 1.577-7.357 2.376-11.265 2.376-4.009 0-7.889-.84-11.532-2.496l-.966-.439-.967 2.157.954.435c3.955 1.803 8.164 2.717 12.51 2.717 4.239 0 8.351-.871 12.224-2.588l.969-.43-.969-2.156z"/><path d="m45.426 66.048.954.434c3.351 1.524 6.921 2.297 10.609 2.297 3.597 0 7.084-.736 10.365-2.187l.969-.429-.957-2.136-.961.425c-2.984 1.323-6.152 1.993-9.417 1.993-3.35 0-6.593-.705-9.641-2.094l-.967-.441z"/><path d="m20.493 76.982v-15.968h-3.427v15.971c.002 2.632 2.143 4.772 4.775 4.772h15.24v-3.427h-15.241c-.743 0-1.347-.605-1.347-1.348z"/><path d="m91.905 2.145h-15.633v3.427h15.632c.743 0 1.348.605 1.348 1.348v14.903h3.427v-14.904c-.002-2.632-2.142-4.773-4.774-4.774z"/><path d="m93.251 76.982c0 .743-.605 1.348-1.348 1.348h-15.631v3.427h15.632c2.633 0 4.775-2.142 4.775-4.775v-15.968h-3.427v15.968z"/><path d="m20.493 6.92c0-.743.605-1.348 1.348-1.348h15.24v-3.427h-15.244c-2.63.002-4.77 2.141-4.771 4.771v14.906h3.427z"/></g></svg>