<?xml version="1.0" encoding="utf-8"?>
<!-- Generator: Adobe Illustrator 24.1.0, SVG Export Plug-In . SVG Version: 6.00 Build 0)  -->
<svg version="1.1" id="Layer_1" xmlns="http://www.w3.org/2000/svg" xmlns:xlink="http://www.w3.org/1999/xlink" x="0px" y="0px"
	 viewBox="0 0 80 80" style="enable-background:new 0 0 80 80;" xml:space="preserve">
<style type="text/css">
	.st0{fill:#4BB9B4;}
</style>
<g>
	<path class="st0" d="M67.8,44.9l-10.7-3.7c-0.3-0.1-0.5-0.1-0.8,0l-10.7,3.7c-0.5,0.2-0.8,0.6-0.8,1.1v8.4
		c0,10,10.9,14.9,11.4,15.1c0.1,0.1,0.3,0.1,0.5,0.1s0.3,0,0.5-0.1c0.5-0.2,11.4-5.1,11.4-15.1V46C68.6,45.5,68.2,45,67.8,44.9z
		 M66.2,54.4c0,7.4-7.5,11.7-9.5,12.7c-2-1-9.5-5.3-9.5-12.7v-7.6l9.5-3.3l9.5,3.3V54.4z"/>
	<path class="st0" d="M52.8,52.6c-0.4-0.5-1.2-0.6-1.7-0.2c-0.5,0.4-0.6,1.1-0.2,1.7l3.9,5c0.2,0.3,0.5,0.4,0.9,0.5c0,0,0,0,0.1,0
		c0.3,0,0.6-0.1,0.9-0.4l6.8-7c0.5-0.5,0.4-1.2,0-1.7c-0.5-0.5-1.2-0.4-1.7,0l-5.9,6.1L52.8,52.6z"/>
	<path class="st0" d="M39.5,55.3l-3,1.6V37.1l20.2-10.1v10.6c0,0.7,0.5,1.2,1.2,1.2c0.7,0,1.2-0.5,1.2-1.2V25c0,0,0,0,0,0
		c0,0,0,0,0-0.1c0-0.1,0-0.1,0-0.2c0,0,0,0,0,0c0,0,0-0.1,0-0.1c0,0,0,0,0,0c0,0,0-0.1,0-0.1c0,0,0,0,0,0c0,0,0-0.1-0.1-0.1
		c0,0,0,0,0-0.1c0,0,0,0,0,0c0,0,0,0-0.1-0.1c0,0,0,0,0,0c0,0,0,0-0.1-0.1c0,0,0,0,0,0c0,0-0.1-0.1-0.1-0.1c0,0,0,0,0,0c0,0,0,0,0,0
		c0,0-0.1,0-0.1,0L35.8,12.7c-0.3-0.2-0.7-0.2-1.1,0L12.2,24c0,0,0,0,0,0c0,0,0,0-0.1,0c0,0,0,0,0,0c0,0,0,0-0.1,0
		c0,0-0.1,0.1-0.1,0.1c0,0,0,0,0,0c-0.1,0.1-0.2,0.2-0.2,0.4c0,0,0,0,0,0c0,0,0,0.1,0,0.1c0,0,0,0,0,0c0,0,0,0.1,0,0.1
		c0,0,0,0,0,0.1c0,0,0,0.1,0,0.1c0,0,0,0,0,0v22c0,0.4,0.2,0.8,0.6,1.1l22.5,11.9l0,0l0,0c0,0,0,0,0,0c0,0,0.1,0,0.1,0
		c0,0,0,0,0.1,0c0,0,0.1,0,0.1,0c0,0,0.1,0,0.1,0c0,0,0,0,0.1,0c0,0,0.1,0,0.2,0c0,0,0.1,0,0.1,0c0,0,0,0,0.1,0c0,0,0.1,0,0.1,0
		c0,0,0,0,0.1,0c0,0,0.1,0,0.1,0c0,0,0,0,0,0c0,0,0,0,0.1,0l4.8-2.5c0.6-0.3,0.8-1,0.5-1.6C40.8,55.2,40.1,55,39.5,55.3z M35.3,35
		l-9.1-4.6l19.9-10l9.1,4.6L35.3,35z M35.3,15.1l8.1,4.1l-19.9,10L15.3,25L35.3,15.1z M34.1,56.9L13.9,46.3V26.9l8.4,4.2v8.1
		c0,0.7,0.5,1.2,1.2,1.2c0.7,0,1.2-0.5,1.2-1.2v-6.9l9.4,4.7V56.9z"/>
</g>
</svg>
