<?xml version="1.0" encoding="utf-8"?>
<!-- Generator: Adobe Illustrator 24.1.0, SVG Export Plug-In . SVG Version: 6.00 Build 0)  -->
<svg version="1.1" id="Layer_1" xmlns="http://www.w3.org/2000/svg" xmlns:xlink="http://www.w3.org/1999/xlink" x="0px" y="0px"
	 viewBox="0 0 80 80" style="enable-background:new 0 0 80 80;" xml:space="preserve">
<style type="text/css">
	.st0{fill:#4BB9B4;}
</style>
<g>
	<g>
		<path class="st0" d="M41.8,17.7H19.6c-3.3,0-5.9,2.6-5.9,5.9v19.7c0,3.3,2.6,5.9,5.9,5.9h22.2c3.3,0,5.9-2.6,5.9-5.9V23.6
			C47.7,20.4,45.1,17.7,41.8,17.7L41.8,17.7z M25.4,24.6l4.2,5h-3V36h-2.3v-6.5h-3L25.4,24.6z M39,42.1H22.4V40H39V42.1z M37.2,29.6
			V36h-2.3v-6.5h-3l4.2-5l4.2,5H37.2z M59.9,51.3c-0.1,0-46.2,0-46.4,0v14.4c0.1,0,46.2,0,46.4,0c3.8-0.2,6.8-3.3,6.8-7.2
			C66.8,54.6,63.8,51.5,59.9,51.3L59.9,51.3z M20.4,61.5c-1.7,0-3-1.4-3-3s1.4-3,3-3c1.7,0,3,1.4,3,3S22,61.5,20.4,61.5L20.4,61.5z
			 M34.1,61.5c-1.7,0-3-1.4-3-3s1.4-3,3-3c1.7,0,3,1.4,3,3S35.7,61.5,34.1,61.5L34.1,61.5z M46.9,61.5c-1.7,0-3-1.4-3-3s1.4-3,3-3
			s3,1.4,3,3S48.6,61.5,46.9,61.5L46.9,61.5z M59.7,61.5c-1.7,0-3-1.4-3-3s1.4-3,3-3s3,1.4,3,3S61.4,61.5,59.7,61.5L59.7,61.5z
			 M65.4,34.6l-5.9,5.9c-0.5,0.5-1.5,0.2-1.5-0.6v-2.4h-6.9c-0.5,0-0.9-0.4-0.9-0.9v-5.2c0-0.5,0.4-0.9,0.9-0.9H58v-2.4
			c0-0.8,0.9-1.2,1.5-0.6l5.9,5.9C65.7,33.7,65.7,34.3,65.4,34.6L65.4,34.6z M65.4,34.6"/>
	</g>
</g>
</svg>
