<svg enable-background="new 0 0 113.386 85.04" height="85.04" viewBox="0 0 113.386 85.04" width="113.386" xmlns="http://www.w3.org/2000/svg"><path d="m467.489 51.566 2.994-3.619-5.139-5.154-3.613 3.011c-1.668-1.043-3.516-1.822-5.486-2.278l-.433-4.685h-7.265l-.434 4.699c-1.965.46-3.806 1.243-5.467 2.29l-3.626-3.02-5.137 5.156 3.017 3.645c-1.036 1.667-1.811 3.514-2.264 5.483l-4.69.436v7.266l4.69.436c.453 1.97 1.228 3.816 2.264 5.483l-3.017 3.645 5.137 5.156 3.626-3.02c1.661 1.047 3.502 1.829 5.467 2.29l.434 4.699h7.265l.433-4.685c1.97-.455 3.818-1.235 5.486-2.278l3.613 3.011 5.139-5.154-2.994-3.619c1.047-1.672 1.831-3.528 2.288-5.506l4.662-.434v-7.314l-4.662-.435c-.457-1.977-1.24-3.833-2.288-5.505zm-15.296 17.038c-4.088 0-7.416-3.338-7.416-7.44s3.327-7.44 7.416-7.44c4.088 0 7.415 3.338 7.415 7.44s-3.327 7.44-7.415 7.44z" fill="#fff"/><path d="m432.134 39.236.034-.001c.949-.029 1.883-.213 2.777-.549 4.49-1.689 6.779-6.742 5.106-11.254l-6.91-13.437c-.393-.76-1.623-.761-2.016 0l-6.848 13.294-.058.131c-1.676 4.523.614 9.575 5.104 11.265.893.335 1.827.519 2.733.546zm-6.736-11.358 6.736-13.076 6.729 13.061c1.434 3.868-.522 8.19-4.361 9.633-.749.281-1.53.438-2.365.47v-.001c-.81-.025-1.608-.183-2.371-.468-3.838-1.443-5.795-5.765-4.368-9.619z" fill="#fff"/><path d="m479.352 27.418-6.905-13.424c-.394-.758-1.621-.76-2.017.002l-6.841 13.282-.064.144c-1.676 4.522.613 9.575 5.103 11.265.893.335 1.827.519 2.732.546l.079.004.035-.001c.948-.029 1.882-.213 2.777-.549 4.491-1.69 6.78-6.743 5.101-11.269zm-5.545 10.079c-.748.281-1.529.438-2.364.47v-.001c-.811-.025-1.608-.183-2.371-.468-3.84-1.445-5.795-5.767-4.368-9.62l6.735-13.076 6.729 13.062c1.434 3.868-.523 8.19-4.361 9.633z" fill="#fff"/><path d="m449.43 26.309c.891.334 1.825.519 2.811.549h.026.01c.951-.03 1.885-.215 2.776-.549 4.49-1.688 6.78-6.742 5.101-11.268l-6.905-13.422c-.392-.761-1.625-.758-2.016 0l-6.845 13.288-.061.138c-1.677 4.521.612 9.574 5.103 11.264zm-3.925-10.808 6.736-13.076 6.729 13.061c1.434 3.868-.523 8.19-4.361 9.634-.76.285-1.556.443-2.368.469-.811-.026-1.608-.184-2.368-.468-3.839-1.445-5.795-5.767-4.368-9.62z" fill="#fff"/><path d="m-89.251-18.362 5.712-6.902-9.802-9.831-6.892 5.744c-3.181-1.99-6.705-3.476-10.463-4.345l-.825-8.935h-13.858l-.828 8.963c-3.748.878-7.259 2.371-10.427 4.368l-6.916-5.76-9.798 9.834 5.754 6.952c-1.976 3.179-3.454 6.702-4.319 10.458l-8.946.831v13.859l8.946.831c.865 3.757 2.343 7.279 4.319 10.458l-5.754 6.952 9.798 9.834 6.916-5.76c3.168 1.997 6.679 3.489 10.427 4.368l.828 8.962h13.858l.825-8.935c3.758-.869 7.282-2.355 10.463-4.345l6.892 5.743 9.802-9.83-5.712-6.903c1.997-3.189 3.492-6.729 4.363-10.502l8.892-.828v-13.95l-8.892-.829c-.871-3.773-2.366-7.313-4.363-10.502zm-29.176 32.498c-7.798 0-14.144-6.367-14.144-14.191s6.347-14.191 14.144-14.191 14.143 6.367 14.143 14.191c0 7.823-6.345 14.191-14.143 14.191z" fill="#4bbab5"/><path d="m-156.687-41.88.066-.002c1.81-.055 3.592-.407 5.297-1.047 8.565-3.221 12.93-12.859 9.74-21.465l-13.18-25.628c-.749-1.45-3.096-1.451-3.846.001l-13.062 25.357-.111.251c-3.196 8.626 1.171 18.264 9.735 21.486 1.703.639 3.485.991 5.213 1.041zm-12.848-21.664 12.848-24.94 12.835 24.912c2.734 7.378-.996 15.622-8.317 18.374-1.428.537-2.918.836-4.51.897v-.002c-1.546-.047-3.068-.348-4.523-.893-7.321-2.754-11.054-10.997-8.333-18.348z" fill="#4bbab5"/><path d="m-66.624-64.422-13.171-25.604c-.751-1.446-3.092-1.45-3.847.004l-13.048 25.333-.123.274c-3.197 8.625 1.17 18.263 9.734 21.486 1.703.639 3.485.991 5.211 1.041l.151.007.067-.002c1.809-.055 3.59-.407 5.297-1.047 8.564-3.221 12.931-12.859 9.729-21.492zm-10.577 19.225c-1.427.537-2.917.836-4.509.897v-.002c-1.547-.047-3.068-.348-4.523-.893-7.323-2.756-11.054-10.999-8.332-18.349l12.847-24.941 12.835 24.914c2.735 7.378-.997 15.621-8.318 18.374z" fill="#4bbab5"/><path d="m-123.697-66.537c1.699.637 3.481.989 5.362 1.047h.049l.019-.001c1.814-.057 3.596-.409 5.295-1.048 8.565-3.22 12.931-12.859 9.73-21.492l-13.17-25.601c-.748-1.451-3.1-1.446-3.845.001l-13.057 25.345-.117.263c-3.198 8.624 1.168 18.262 9.734 21.486zm-7.486-20.615 12.848-24.94 12.834 24.912c2.736 7.378-.997 15.621-8.318 18.375-1.449.544-2.968.845-4.516.894-1.548-.049-3.067-.35-4.516-.893-7.323-2.756-11.054-10.999-8.332-18.348z" fill="#4bbab5"/><g fill="#fff"><path d="m227.217 74.121c-.255-.624-.54-1.241-.848-1.836-2.015-3.894-4.782-6.491-7.459-9.003-.754-.708-1.715-1.815-2.732-2.988-1.485-1.71-3.02-3.479-4.052-4.154-.935-.612-1.699-.628-2.271-.05-.834.842-.589 2.414.798 5.092.926 1.791 2.269 3.9 3.693 6.133.229.359.46.723.694 1.09-2.52-2.755-4.37-5.261-5.509-7.461-1.308-2.526-1.573-4.477-.748-5.496.582-.719 1.691-.897 3.122-.503l.212.059-.051-.215c-.027-.111-2.67-11.125-3.229-13.21-.123-.459-.293-.903-.508-1.317-.77-1.488-1.987-2.391-2.894-2.148-.438.117-1.159.616-1.064 2.63l1.377 17.387c.071.568.12 1.162.173 1.793.16 1.927.327 3.919 1.115 5.441.328.634.708 1.207 1.162 1.75.817.979 3.087 3.342 5.493 5.843 2.34 2.436 4.761 4.954 5.645 6.006.693.825 1.293 1.734 1.835 2.78.435.843.802 1.712 1.129 2.601h8.46l-.127-.431c-1.018-3.454-2.135-6.657-3.416-9.793z"/><path d="m259.428 38.115c-.907-.243-2.124.66-2.894 2.149-.215.414-.386.857-.508 1.317-.559 2.085-3.203 13.099-3.229 13.21l-.051.214.212-.058c1.43-.395 2.539-.216 3.122.502.825 1.018.559 2.969-.749 5.495-1.139 2.2-2.988 4.706-5.509 7.462.235-.368.466-.733.695-1.091 1.423-2.233 2.766-4.342 3.692-6.132 1.387-2.679 1.633-4.249.799-5.093-.573-.578-1.337-.561-2.271.05-1.032.675-2.567 2.444-4.052 4.155-1.017 1.172-1.978 2.279-2.732 2.987-2.677 2.513-5.444 5.11-7.459 9.005-.308.594-.593 1.211-.848 1.835-1.281 3.136-2.398 6.339-3.414 9.793l-.127.432h8.461c.327-.89.692-1.759 1.128-2.601.541-1.046 1.142-1.956 1.835-2.781.884-1.052 3.304-3.57 5.645-6.005 2.405-2.501 4.676-4.865 5.493-5.843.454-.543.833-1.116 1.161-1.75.789-1.523.955-3.515 1.116-5.441.053-.63.102-1.225.173-1.793l1.353-17.091v-1.254c-.137-1.224-.684-1.576-1.042-1.673z"/><path d="m259.523 27.827h-3.154c-.734 0-1.318.585-1.318 1.319s.584 1.318 1.318 1.318h3.154c.734 0 1.318-.584 1.318-1.317v-.002c-.001-.734-.585-1.318-1.318-1.318z"/><path d="m253.202 18.651c.217 0 .442-.075.659-.15l2.719-1.618c.666-.36.884-1.169.517-1.828s-1.176-.883-1.836-.517l-2.718 1.618c-.66.367-.884 1.176-.517 1.835.218.443.734.66 1.176.66z"/><path d="m217.54 38.104c.584 1.101 1.393 2.053 2.202 2.936 2.42 3.521 3.745 6.532 3.67 8.442v6.973c0 2.712 2.202 4.989 4.989 4.989h8.142c2.712 0 4.989-2.202 4.989-4.989v-6.315c0-.217-.075-.435-.075-.584v-.075c-.068-1.978 1.251-5.063 3.82-8.659.733-.733 1.325-1.611 1.909-2.494l.15-.218c.142-.15.217-.299.292-.517 1.468-2.644 2.277-5.58 2.277-8.591 0-9.617-7.857-17.467-17.467-17.392-9.61 0-17.467 7.851-17.467 17.468 0 3.004.809 6.015 2.351 8.659.068.149.143.216.218.367zm21.28 18.5c-.143 1.176-1.101 2.053-2.27 2.053h-8.149c-1.176 0-2.128-.877-2.277-2.053v-.516h12.696zm0-3.236h-12.696v-2.494h12.696zm-6.388-39.121c8.149 0 14.755 6.606 14.755 14.755 0 2.644-.659 5.213-1.977 7.416 0 .075-.075.074-.075.149s-.074.075-.074.15c-.435.809-1.026 1.618-1.686 2.277-.075.075-.15.075-.15.15-1.835 2.569-3.888 6.015-4.33 9.026h-12.845c-.367-2.42-1.767-5.356-4.187-8.808l-.149-.15c-.734-.809-1.4-1.692-1.985-2.644v-.074c-1.319-2.277-2.053-4.847-2.053-7.49 0-8.151 6.606-14.757 14.756-14.757z"/><path d="m205.646 30.464h3.153c.734 0 1.319-.584 1.319-1.318s-.584-1.319-1.319-1.319h-3.153c-.734 0-1.318.584-1.318 1.319 0 .734.584 1.318 1.318 1.318z"/><path d="m208.582 16.891 2.719 1.617c.218.15.442.15.66.15.442 0 .951-.217 1.175-.659.361-.666.143-1.475-.516-1.842l-2.719-1.618c-.659-.367-1.468-.149-1.835.517-.367.659-.15 1.468.516 1.835z"/><path d="m243.651 8.975c.217.075.442.15.659.15.442 0 .958-.218 1.176-.66l1.618-2.718c.367-.66.142-1.468-.517-1.836-.66-.367-1.468-.142-1.835.517l-1.617 2.719c-.367.666-.15 1.468.516 1.828z"/><path d="m232.417 5.978c.734 0 1.318-.584 1.318-1.318v-3.154c0-.734-.584-1.318-1.317-1.319h-.002c-.734.001-1.317.585-1.317 1.319v3.153c-.075.728.509 1.319 1.318 1.319z"/><path d="m219.354 8.472c.217.442.733.659 1.175.659.218 0 .442-.075.66-.15.659-.367.883-1.175.516-1.835l-1.618-2.719c-.366-.659-1.175-.883-1.835-.516-.659.367-.883 1.175-.516 1.835z"/><path d="m374.67 56.99v-29.446c1.981-.33 3.497-2.051 3.497-4.124 0-2.307-1.877-4.185-4.185-4.185-1.328 0-2.512.624-3.279 1.593l-26.973-14.866c.153-.435.242-.901.242-1.388 0-2.308-1.877-4.185-4.185-4.185s-4.185 1.877-4.185 4.185c0 .487.088.953.242 1.388l-26.974 14.866c-.767-.968-1.951-1.593-3.279-1.593-2.307 0-4.184 1.876-4.185 4.182v.005c.001 2.072 1.517 3.792 3.497 4.121v29.447c-1.98.329-3.496 2.049-3.497 4.121v.005c.001 2.307 1.878 4.183 4.185 4.183 1.329 0 2.512-.624 3.279-1.593l26.973 14.866c-.154.435-.242.901-.242 1.388 0 2.307 1.876 4.184 4.183 4.185h.004c2.307-.001 4.183-1.878 4.183-4.185 0-.487-.088-.953-.242-1.388l26.973-14.866c.767.968 1.95 1.593 3.279 1.593 2.307 0 4.185-1.877 4.185-4.185.001-2.074-1.515-3.795-3.496-4.124zm-3.402-34.281c.12-.457.352-.869.665-1.205.513-.549 1.241-.895 2.05-.895 1.549 0 2.81 1.261 2.81 2.81 0 1.312-.905 2.413-2.122 2.721-.22.056-.45.089-.688.089-.237 0-.467-.033-.688-.089-.53-.134-1-.418-1.362-.806-.313-.335-.545-.747-.665-1.204-.06-.228-.095-.465-.095-.711 0-.245.035-.482.095-.71zm-.564 3.304c.631.797 1.546 1.357 2.591 1.531v29.446c-.298.049-.585.129-.858.238l-14.593-24.128zm-27.638-18.847 26.973 14.866c-.154.436-.242.901-.242 1.388s.088.953.242 1.389l-12.908 7.114-14.622-24.177c.204-.175.39-.37.557-.58zm-6.487 32.428-.052.012-.683-2.76 3.77-1.07h2.585v3.082 1.982 2.852 1.982 3.082h-3.497v-2.453-1.449-5.176-.568zm3.208-10.733c-4.811 0-9.028 2.535-11.393 6.342l-4.746-2.616 14.593-24.128c.479.191 1 .3 1.546.3.547 0 1.067-.108 1.546-.3l14.593 24.128-4.746 2.616c-2.366-3.807-6.582-6.342-11.393-6.342zm0-27.097c1.549 0 2.809 1.26 2.809 2.809 0 .246-.035.483-.095.711-.12.457-.351.869-.665 1.204-.018.019-.034.04-.053.058-.323.327-.725.575-1.176.713-.26.079-.535.123-.821.123s-.561-.044-.821-.123c-.45-.138-.853-.386-1.176-.713-.018-.019-.035-.039-.052-.058-.314-.335-.545-.747-.665-1.204-.06-.228-.095-.465-.095-.711 0-1.549 1.26-2.809 2.81-2.809zm-30.252 20.268 26.973-14.866c.167.21.354.405.557.58l-14.622 24.177-12.908-7.114c.153-.436.242-.901.242-1.389-.001-.487-.089-.953-.242-1.388zm-.665 3.981 12.86 7.087-14.593 24.128c-.273-.109-.56-.189-.858-.238v-29.446c1.045-.174 1.96-.734 2.591-1.531zm-6.089-2.593c0-1.549 1.261-2.81 2.81-2.81.809 0 1.537.346 2.05.895.314.335.545.747.665 1.205.06.227.095.465.095.711s-.035.484-.095.711c-.12.457-.351.869-.665 1.204-.363.388-.832.672-1.362.806-.221.056-.45.089-.688.089s-.467-.033-.688-.089c-1.217-.309-2.122-1.41-2.122-2.722zm5.525 38.404c-.002.006-.003.011-.004.016-.121.451-.351.856-.66 1.188-.513.549-1.241.894-2.05.894-1.549 0-2.81-1.26-2.81-2.809 0-1.312.905-2.413 2.122-2.721.221-.056.45-.088.688-.088s.467.033.688.088c.044.011.089.021.133.035.45.138.853.386 1.176.713.018.019.035.039.053.058.314.335.545.747.665 1.204.005.021.011.042.016.062.049.209.078.425.078.649-.001.246-.035.484-.095.711zm.008-3.883 14.622-24.177 4.793 2.641c-.862 1.771-1.347 3.759-1.347 5.861s.485 4.09 1.347 5.861l-18.859 10.394c-.166-.211-.353-.405-.556-.58zm31.473 24.828c-1.549 0-2.81-1.26-2.81-2.81 0-.246.035-.483.095-.711.12-.457.351-.869.665-1.204.513-.549 1.241-.895 2.05-.895s1.537.346 2.05.895c.314.335.545.747.665 1.204.06.228.095.465.095.711-.001 1.55-1.261 2.81-2.81 2.81zm3.279-5.401c-.767-.969-1.951-1.593-3.279-1.593s-2.512.624-3.279 1.593l-26.973-14.866c.075-.213.134-.434.174-.661h60.157c.04.228.099.448.174.661zm26.787-16.903h-60.132c-.04-.255-.102-.502-.186-.739l18.859-10.394c2.365 3.806 6.582 6.342 11.393 6.342s9.028-2.536 11.393-6.342l18.86 10.394c-.085.237-.147.484-.187.739zm.85-1.944-18.857-10.393c.862-1.771 1.347-3.759 1.347-5.861s-.485-4.09-1.347-5.861l4.792-2.641 14.622 24.177c-.204.174-.39.368-.557.579zm3.28 5.401c-.809 0-1.536-.345-2.05-.894-.31-.332-.539-.737-.661-1.188-.002-.005-.003-.011-.004-.016-.06-.228-.095-.465-.095-.711 0-.224.029-.44.078-.649.005-.021.011-.042.016-.062.12-.457.352-.869.665-1.204.018-.019.035-.039.053-.058.324-.327.726-.575 1.176-.713.044-.014.089-.023.133-.035.221-.056.45-.088.688-.088s.467.033.688.088c1.217.308 2.122 1.409 2.122 2.721 0 1.549-1.26 2.809-2.809 2.809z"/><path d="m560.359 31.572-7.896 8.202c.397.724.635 1.564.635 2.452l2.859 2.721c1.296 1.226 1.341 3.271.106 4.545-.636.664-1.495.992-2.353.992-.802 0-1.612-.293-2.236-.888l-2.389-2.266c-.401.093-.814.152-1.238.152-.823 0-1.6-.2-2.293-.538l-3.296 3.412c-.259.266-.587.395-.943.395-.317 0-.633-.105-.892-.35-.518-.502-.53-1.307-.048-1.821l3.191-3.307c-.603-.852-.955-1.881-.955-3.002 0-.35.024-.676.093-.993l-10.169-9.647c-1.28-1.226-1.328-3.271-.093-4.545 1.236-1.283 3.296-1.342 4.579-.105l10.638 10.092h.187c1.048 0 2.012.305 2.826.819l7.803-8.095c.495-.514 1.317-.538 1.847-.048.507.505.531 1.309.037 1.823zm10.65 15.594-2.13 1.507v.06l7.686.012-.754 4.015h-14.63l.555-3.035 4.613-3.54c4.296-3.469 7.062-5.956 7.062-8.504 0-1.507-1.061-2.58-2.968-2.58-1.904 0-3.39.562-4.519 1.238l-.952-3.364c1.717-1.05 4.191-1.833 6.625-1.833 4.345 0 6.685 2.524 6.685 5.792 0 4.344-3.482 7.346-7.273 10.232z"/><path d="m581.883 63.801c1.53-2.395.837-5.574-1.588-7.114-2.413-1.531-5.625-.831-7.168 1.564-5.555 8.633-15.004 13.773-25.281 13.773-16.534 0-29.987-13.339-29.987-29.752 0-16.41 13.452-29.761 29.987-29.761 8.77 0 16.914 3.774 22.575 10.22l-6.285 4.743 18.369 2.464 2.507-18.231-6.294 4.754c-7.628-9.006-18.821-14.263-30.872-14.263-22.251.012-40.364 17.987-40.366 40.07v.008c.002 22.074 18.113 40.06 40.363 40.062h.007c13.84-.003 26.561-6.94 34.033-18.537z"/><path d="m571.597 31.142c-2.434 0-4.908.783-6.625 1.833l.952 3.364c1.13-.676 2.615-1.238 4.519-1.238 1.907 0 2.968 1.073 2.968 2.58 0 2.548-2.766 5.036-7.062 8.504l-4.613 3.54-.555 3.035h14.63l.754-4.015-7.686-.012v-.06l2.13-1.507c3.791-2.886 7.273-5.888 7.273-10.232 0-3.268-2.341-5.792-6.685-5.792z"/><path d="m593.723 43.99.002-.012h-.002z"/><path d="m593.723 43.99v-.012h.002l2.362-12.487h-5.823l-10.216 12.953-.588 3.143h9.12l-.988 5.161h4.447l.991-5.161h2.54l.66-3.607v-.002h-2.504zm-3.459-4.613-.991 4.614h-4.471l.036-.06 3.531-4.509c1.024-1.411 1.846-2.745 2.799-4.192h.13c-.341 1.342-.741 2.804-1.034 4.147z"/><path d="m558.476 29.799-7.803 8.095c-.814-.515-1.778-.819-2.826-.819h-.187l-10.638-10.092c-1.284-1.238-3.344-1.178-4.579.105-1.235 1.274-1.187 3.319.093 4.545l10.169 9.647c-.069.317-.093.643-.093.993 0 1.121.352 2.15.955 3.002l-3.191 3.307c-.482.514-.47 1.319.048 1.821.259.245.575.35.892.35.356 0 .684-.129.943-.395l3.296-3.412c.693.338 1.47.538 2.293.538.424 0 .837-.06 1.238-.152l2.389 2.266c.624.595 1.434.888 2.236.888.858 0 1.717-.329 2.353-.992 1.235-1.274 1.19-3.319-.106-4.545l-2.859-2.721c0-.888-.238-1.728-.635-2.452l7.896-8.202c.494-.515.47-1.319-.036-1.821-.532-.492-1.354-.468-1.848.046z"/><path d="m785.352 11.099v61.704c0 2.57 2.091 4.66 4.66 4.66h61.704c2.57 0 4.66-2.09 4.66-4.66v-61.704c0-2.57-2.09-4.66-4.66-4.66h-61.704c-2.569 0-4.66 2.091-4.66 4.66zm68.257 0v61.704c0 1.043-.849 1.892-1.892 1.892h-61.704c-1.043 0-1.892-.849-1.892-1.892v-61.704c0-1.043.849-1.892 1.892-1.892h61.704c1.043 0 1.892.849 1.892 1.892z"/><path d="m848.758 41.785c0 4.009-.84 7.889-2.497 11.532l-.439.965 2.157.967.435-.953c1.803-3.955 2.717-8.164 2.717-12.51 0-4.239-.871-8.351-2.588-12.224l-.429-.968-2.158.966.424.96c1.579 3.566 2.378 7.356 2.378 11.265z"/><path d="m845.183 41.806c0 3.349-.705 6.593-2.094 9.641l-.441.966 2.137.956.434-.954c1.524-3.352 2.297-6.921 2.297-10.61 0-3.596-.736-7.083-2.187-10.365l-.429-.97-2.136.958.425.96c1.324 2.985 1.994 6.153 1.994 9.418z"/><path d="m793.783 55.244 2.158-.964-.44-.967c-1.657-3.643-2.497-7.522-2.497-11.532 0-3.909.8-7.7 2.377-11.265l.424-.96-2.157-.967-.43.968c-1.717 3.873-2.587 7.986-2.587 12.224 0 4.346.914 8.555 2.717 12.51z"/><path d="m796.545 52.412.435.955 2.136-.958-.44-.966c-1.39-3.048-2.094-6.291-2.094-9.641 0-3.265.67-6.434 1.992-9.417l.426-.961-2.137-.957-.428.969c-1.451 3.281-2.187 6.769-2.187 10.365-.001 3.689.772 7.259 2.297 10.611z"/><path d="m809.461 15.242c3.566-1.577 7.357-2.377 11.265-2.377 4.009 0 7.889.841 11.532 2.497l.966.439.967-2.157-.954-.435c-3.955-1.803-8.164-2.717-12.51-2.717-4.239 0-8.351.871-12.224 2.588l-.969.429.968 2.157z"/><path d="m820.747 14.108c-3.596 0-7.084.736-10.365 2.187l-.969.428.957 2.137.961-.426c2.984-1.322 6.151-1.993 9.417-1.993 3.349 0 6.593.705 9.641 2.094l.967.441.956-2.137-.954-.434c-3.352-1.524-6.922-2.297-10.611-2.297z"/><path d="m832.268 67.645c-3.566 1.577-7.357 2.376-11.265 2.376-4.009 0-7.889-.84-11.532-2.496l-.966-.439-.967 2.157.954.435c3.955 1.803 8.164 2.717 12.51 2.717 4.239 0 8.351-.871 12.224-2.588l.969-.43-.969-2.156z"/><path d="m809.419 66.048.954.434c3.351 1.524 6.921 2.297 10.609 2.297 3.597 0 7.084-.736 10.365-2.187l.969-.429-.957-2.136-.961.425c-2.984 1.323-6.152 1.993-9.417 1.993-3.35 0-6.593-.705-9.641-2.094l-.967-.441z"/><path d="m784.485 76.982v-15.968h-3.427v15.971c.002 2.632 2.143 4.772 4.775 4.772h15.24v-3.427h-15.24c-.743 0-1.348-.605-1.348-1.348z"/><path d="m855.898 2.145h-15.633v3.427h15.632c.743 0 1.348.605 1.348 1.348v14.903h3.427v-14.904c-.002-2.632-2.143-4.773-4.774-4.774z"/><path d="m857.243 76.982c0 .743-.605 1.348-1.348 1.348h-15.632v3.427h15.632c2.633 0 4.775-2.142 4.775-4.775v-15.968h-3.427z"/><path d="m784.485 6.92c0-.743.605-1.348 1.348-1.348h15.24v-3.427h-15.243c-2.63.002-4.77 2.141-4.771 4.771v14.906h3.427v-14.902z"/></g><path d="m-307.782-464.684c-.27-.291-.593-.522-.97-.693-.377-.17-.787-.255-1.23-.255-.444 0-.851.083-1.223.25-.372.166-.693.396-.963.687-.27.292-.48.632-.63 1.02-.15.389-.225.805-.225 1.248v.02c0 .444.077.862.23 1.256.153.393.365.735.635 1.025s.593.52.968.69.784.255 1.228.255c.443 0 .852-.083 1.225-.25s.695-.395.965-.685.48-.63.631-1.02c.15-.39.225-.807.225-1.25v-.02c0-.444-.077-.861-.23-1.253-.154-.391-.366-.733-.636-1.025z" fill="none"/><path d="m-282.66-480.95c0-25.516-20.685-46.2-46.2-46.2s-46.2 20.684-46.2 46.2 20.685 46.2 46.2 46.2 46.2-20.684 46.2-46.2zm-48.302 4.613h-3.946v5.912h-8.303v-5.912h-14.966l-1.401-6.144 16.023-19.099h8.648v18.749h3.946v6.494zm6.985 17.517-.91-2.005h-4.231l-.911 2.005h-.555l3.341-7.222h.51l3.341 7.222zm8.286 0h-.4l-5.051-6.372v6.372h-.51v-7.172h.5l4.952 6.241v-6.241h.51v7.172zm-4.496-7.817c.097-.388.212-.65.348-.788.135-.138.306-.207.513-.207.097 0 .203.023.318.068.115.046.233.096.352.15.12.054.234.104.343.152.108.047.207.071.297.071.123 0 .221-.038.293-.113.071-.075.144-.216.217-.422l.35.095c-.097.388-.214.651-.35.788-.137.138-.307.207-.51.207-.097 0-.202-.023-.317-.068s-.233-.095-.353-.149-.234-.104-.342-.152c-.109-.047-.208-.071-.298-.071-.123 0-.221.037-.292.111-.072.075-.146.215-.223.422zm13.82 4.231c0 .49-.087.959-.26 1.408-.174.448-.418.844-.733 1.185-.315.342-.696.614-1.143.815-.447.202-.94.302-1.48.302-.547 0-1.04-.101-1.481-.302-.44-.202-.817-.472-1.13-.81-.314-.339-.555-.729-.725-1.173-.17-.443-.255-.912-.255-1.405v-.02c0-.49.087-.959.26-1.408.173-.448.417-.843.73-1.183s.693-.611 1.138-.813.939-.302 1.483-.302c.54 0 1.032.101 1.475.302.444.202.823.471 1.138.808s.558.727.728 1.173c.17.445.255.913.255 1.403.003.003.005.007.005.01s-.001.007-.005.01zm6.763 1.731c0 .287-.06.552-.18.795-.12.244-.285.451-.493.621s-.458.302-.75.398c-.292.095-.611.142-.958.142-.574 0-1.091-.095-1.551-.285s-.905-.477-1.335-.86l.345-.4c.197.183.393.342.59.475s.397.243.6.33.419.152.645.195c.226.044.473.065.74.065s.513-.036.738-.108c.225-.071.416-.171.573-.298.156-.127.279-.276.368-.45.088-.173.132-.362.132-.565v-.025c0-.19-.029-.36-.087-.51-.059-.15-.164-.287-.318-.41-.153-.123-.36-.234-.62-.333-.26-.098-.594-.189-1-.273-.43-.09-.8-.194-1.108-.312s-.56-.258-.755-.417c-.195-.16-.337-.346-.425-.558s-.132-.454-.132-.728v-.02c0-.267.058-.515.175-.743s.278-.428.483-.6.448-.306.728-.401.587-.142.92-.142c.52 0 .969.072 1.348.215.378.143.748.361 1.107.655l-.335.42c-.34-.293-.683-.501-1.028-.625s-.716-.185-1.113-.185c-.267 0-.508.036-.723.108s-.399.169-.552.292-.271.267-.353.43c-.081.163-.122.339-.122.525v.02c0 .19.028.362.085.515.057.154.163.294.318.421s.368.241.64.342c.272.102.619.197 1.043.288.833.17 1.435.411 1.805.723s.555.729.555 1.253zm.361-25.22c0 2.187-.337 4.258-1.011 6.214s-1.618 3.665-2.829 5.125c-1.213 1.46-2.726 2.618-4.541 3.474-1.816.856-3.798 1.284-5.95 1.284-2.855 0-5.376-.73-7.564-2.19s-3.845-3.395-4.971-5.804-1.689-5.081-1.689-8.016v-.086c0-2.187.341-4.254 1.022-6.203.682-1.949 1.628-3.654 2.841-5.114 1.212-1.46 2.725-2.618 4.54-3.474s3.791-1.284 5.929-1.284c2.841 0 5.355.726 7.543 2.179s3.848 3.384 4.982 5.793c1.133 2.41 1.7 5.082 1.7 8.016v.086z" fill="none"/><path d="m-313.575-494.353c-1.7 0-3.069.776-4.106 2.327-1.038 1.552-1.556 3.57-1.556 6.055v.086c0 2.486.533 4.518 1.599 6.099s2.456 2.37 4.17 2.37c1.715 0 3.087-.779 4.117-2.338s1.545-3.574 1.545-6.045v-.087c0-2.456-.537-4.482-1.61-6.077-1.072-1.593-2.459-2.39-4.159-2.39z" fill="none"/><path d="m-328.893-461.31h3.781l-1.886-4.147z" fill="none"/><path d="m-343.211-482.789v-8.889l-7.375 8.889z" fill="none"/><g fill="#fff"><path d="m-334.909-501.58h-8.648l-16.023 19.099 1.401 6.144h14.966v5.912h8.303v-5.912h3.946v-6.494h-3.946v-18.749zm-8.302 18.791h-7.375l7.375-8.889z"/><path d="m-305.924-499.791c-2.188-1.453-4.702-2.179-7.543-2.179-2.138 0-4.114.428-5.929 1.284s-3.328 2.014-4.54 3.474-2.159 3.165-2.841 5.114-1.022 4.016-1.022 6.203v.086c0 2.935.563 5.607 1.689 8.016 1.126 2.41 2.783 4.345 4.971 5.804 2.188 1.46 4.709 2.19 7.564 2.19 2.152 0 4.135-.428 5.95-1.284s3.328-2.014 4.541-3.474c1.211-1.46 2.155-3.168 2.829-5.125.674-1.956 1.011-4.028 1.011-6.214v-.087c0-2.934-.567-5.606-1.7-8.016-1.132-2.408-2.792-4.339-4.98-5.792zm-1.881 13.993c0 2.471-.515 4.486-1.545 6.045-1.03 1.558-2.402 2.338-4.117 2.338-1.714 0-3.104-.79-4.17-2.37-1.066-1.581-1.599-3.613-1.599-6.099v-.086c0-2.486.518-4.504 1.556-6.055 1.037-1.552 2.406-2.327 4.106-2.327s3.086.797 4.159 2.392 1.61 3.621 1.61 6.077z"/><path d="m-309.156-431.519c2.996-5.001 7.4-7.57 13.229-7.639 5.838-.068 8.774-3.03 8.877-8.868.059-5.829 2.594-10.199 7.596-13.204 5.036-2.962 6.102-6.998 3.269-12.102-2.868-5.061-2.868-10.165 0-15.235 2.833-5.096 1.766-9.098-3.269-12.103-5.002-2.996-7.537-7.366-7.596-13.238-.103-5.796-3.039-8.766-8.877-8.834-5.829-.094-10.233-2.629-13.229-7.63-2.97-5.036-7.007-6.103-12.068-3.235-5.104 2.834-10.174 2.834-15.269 0-5.07-2.868-9.107-1.801-12.103 3.235-2.97 5.001-7.374 7.536-13.204 7.63-5.804.068-8.774 3.038-8.868 8.834-.068 5.872-2.603 10.242-7.604 13.238-5.036 3.005-6.137 7.007-3.269 12.103 2.868 5.07 2.868 10.174 0 15.235-2.868 5.104-1.766 9.141 3.269 12.102 5.002 3.005 7.536 7.375 7.604 13.204.095 5.839 3.065 8.8 8.868 8.868 5.83.068 10.234 2.638 13.229 7.639 2.97 5.002 7.007 6.103 12.077 3.235 5.096-2.8 10.165-2.8 15.269 0 5.062 2.868 9.098 1.767 12.069-3.235zm-19.704-3.23c-25.516 0-46.2-20.685-46.2-46.2 0-25.516 20.685-46.2 46.2-46.2s46.2 20.684 46.2 46.2c0 25.515-20.684 46.2-46.2 46.2z"/><path d="m-362.349-434.272c-6.13 0-6.957-2.858-6.957-2.858l-23.914 46.928 19.183-2.161 10.589 15.918s22.114-45.992 22.114-45.694c-11.458-.299-6.896-11.835-21.015-12.133z"/><path d="m-306.635-425.835c-4.587 4.889-10.306 3.926-10.306 3.926l26.926 46.376 6.613-17.162 18.85 2.462-24.203-45.149c-17.412 1.831-13.889 6.157-17.88 9.547z"/><path d="m-327.243-466.042-3.341 7.222h.555l.911-2.005h4.231l.91 2.005h.585l-3.341-7.222zm-1.65 4.732 1.896-4.146 1.886 4.146z"/><path d="m-319.327-467.077c.09 0 .189.024.298.071.108.047.222.098.342.152s.237.104.353.149c.115.046.221.068.317.068.203 0 .373-.069.51-.207s.253-.401.35-.788l-.35-.095c-.073.206-.146.347-.217.422-.072.075-.17.113-.293.113-.09 0-.189-.024-.297-.071-.109-.047-.223-.098-.343-.152s-.237-.104-.352-.15c-.115-.045-.221-.068-.318-.068-.207 0-.378.069-.513.207s-.251.401-.348.788l.345.092c.077-.207.151-.347.223-.422.072-.072.17-.109.293-.109z"/><path d="m-316.201-459.75-4.952-6.242h-.5v7.172h.51v-6.372l5.052 6.372h.4v-7.172h-.51z"/><path d="m-306.622-463.829c-.17-.445-.413-.836-.728-1.173s-.694-.606-1.138-.808c-.443-.202-.935-.302-1.475-.302-.544 0-1.038.101-1.483.302-.445.202-.825.473-1.138.813s-.557.735-.73 1.183-.26.918-.26 1.408v.02c0 .494.085.962.255 1.405.17.444.412.834.725 1.173.313.338.69.609 1.13.81.441.202.934.302 1.481.302.54 0 1.033-.101 1.48-.302.447-.202.828-.474 1.143-.815s.559-.737.733-1.185c.173-.448.26-.918.26-1.408.003-.003.005-.007.005-.01s-.002-.007-.005-.01c0-.49-.085-.957-.255-1.403zm-.295 1.443c0 .444-.075.86-.225 1.25s-.36.73-.631 1.02c-.27.29-.592.519-.965.685-.373.167-.782.25-1.225.25-.444 0-.853-.085-1.228-.255-.375-.171-.698-.401-.968-.69-.27-.29-.482-.632-.635-1.025-.153-.394-.23-.812-.23-1.256v-.02c0-.444.075-.86.225-1.248s.36-.728.63-1.02c.27-.291.591-.521.963-.687.372-.167.779-.25 1.223-.25.443 0 .853.085 1.23.255.376.17.7.401.97.693s.482.634.635 1.026.23.809.23 1.253v.019z"/><path d="m-301.964-462.671c-.424-.09-.771-.186-1.043-.288-.272-.101-.485-.216-.64-.342-.155-.127-.261-.267-.318-.421-.057-.153-.085-.325-.085-.515v-.02c0-.186.041-.362.122-.525.082-.163.199-.307.353-.43.153-.123.338-.221.552-.292.215-.071.456-.108.723-.108.396 0 .768.062 1.113.185s.688.332 1.028.625l.335-.42c-.36-.294-.729-.511-1.107-.655-.379-.143-.828-.215-1.348-.215-.333 0-.64.047-.92.142s-.523.228-.728.401c-.205.171-.366.371-.483.6-.117.228-.175.476-.175.743v.02c0 .274.044.516.132.728s.23.397.425.558c.195.16.447.299.755.417.308.119.678.223 1.108.312.406.083.74.174 1 .273s.467.209.62.333c.153.123.259.26.318.41.058.15.087.32.087.51v.025c0 .203-.044.392-.132.565-.088.174-.211.323-.368.45s-.348.226-.573.298-.471.108-.738.108-.514-.022-.74-.065c-.227-.043-.442-.108-.645-.195s-.403-.196-.6-.33c-.197-.133-.393-.292-.59-.475l-.345.4c.43.383.875.67 1.335.86s.977.285 1.551.285c.347 0 .666-.047.958-.142s.541-.228.75-.398c.208-.17.373-.377.493-.621.12-.243.18-.508.18-.795v-.02c0-.523-.185-.941-.555-1.253s-.971-.553-1.805-.723z"/><path d="m-162.282-438.817 5.712-6.902-9.802-9.831-6.892 5.744c-3.181-1.99-6.705-3.476-10.463-4.345l-.825-8.935h-13.858l-.828 8.962c-3.748.878-7.259 2.371-10.427 4.368l-6.916-5.76-9.798 9.834 5.754 6.952c-1.976 3.179-3.454 6.702-4.319 10.458l-8.946.831v13.858l8.946.831c.865 3.757 2.343 7.279 4.319 10.458l-5.754 6.952 9.798 9.834 6.916-5.76c3.168 1.997 6.679 3.489 10.427 4.368l.828 8.962h13.858l.825-8.935c3.758-.869 7.282-2.355 10.463-4.345l6.892 5.743 9.802-9.83-5.712-6.903c1.997-3.189 3.492-6.729 4.363-10.502l8.892-.828v-13.951l-8.892-.829c-.872-3.77-2.366-7.309-4.363-10.499zm-29.177 32.498c-7.798 0-14.144-6.367-14.144-14.191s6.347-14.191 14.144-14.191 14.143 6.367 14.143 14.191c.001 7.824-6.345 14.191-14.143 14.191z"/><path d="m-229.718-462.335.066-.002c1.81-.055 3.592-.407 5.297-1.047 8.565-3.221 12.93-12.859 9.74-21.465l-13.18-25.628c-.749-1.45-3.096-1.451-3.846.001l-13.062 25.357-.111.251c-3.196 8.626 1.171 18.264 9.735 21.486 1.703.639 3.485.991 5.213 1.041zm-12.848-21.663 12.848-24.94 12.835 24.912c2.734 7.378-.996 15.622-8.317 18.374-1.428.537-2.918.836-4.51.897v-.002c-1.546-.047-3.068-.348-4.523-.893-7.322-2.755-11.055-10.998-8.333-18.348z"/><path d="m-139.656-484.876-13.171-25.604c-.751-1.446-3.092-1.449-3.847.004l-13.048 25.334-.123.274c-3.197 8.625 1.17 18.263 9.734 21.486 1.703.639 3.485.991 5.211 1.041l.151.007.067-.002c1.809-.055 3.59-.407 5.297-1.047 8.565-3.223 12.931-12.86 9.729-21.493zm-10.576 19.224c-1.427.537-2.917.836-4.509.897v-.002c-1.547-.047-3.068-.348-4.523-.893-7.323-2.756-11.054-10.999-8.332-18.349l12.847-24.941 12.835 24.914c2.734 7.378-.997 15.621-8.318 18.374z"/><path d="m-196.729-486.991c1.699.637 3.481.989 5.362 1.047h.049l.019-.001c1.814-.057 3.596-.409 5.295-1.048 8.565-3.22 12.931-12.859 9.73-21.492l-13.17-25.601c-.748-1.451-3.1-1.446-3.845.001l-13.057 25.345-.117.263c-3.198 8.623 1.168 18.262 9.734 21.486zm-7.485-20.616 12.848-24.94 12.834 24.912c2.736 7.378-.997 15.621-8.318 18.375-1.449.544-2.968.845-4.516.894-1.548-.049-3.067-.35-4.516-.893-7.324-2.755-11.055-10.999-8.332-18.348z"/><path d="m-103.579-512.933v108.477c0 4.517 3.675 8.192 8.192 8.192h108.477c4.517 0 8.192-3.675 8.192-8.192v-108.477c0-4.517-3.675-8.192-8.192-8.192h-108.476c-4.518 0-8.193 3.675-8.193 8.192zm119.996 0v108.477c0 1.833-1.493 3.326-3.327 3.326h-108.476c-1.834 0-3.327-1.493-3.327-3.326v-108.477c0-1.834 1.493-3.327 3.327-3.327h108.476c1.835 0 3.327 1.493 3.327 3.327z"/><path d="m7.89-458.987c0 7.048-1.477 13.869-4.39 20.273l-.771 1.697 3.791 1.699.764-1.676c3.17-6.953 4.777-14.353 4.777-21.993 0-7.451-1.53-14.681-4.549-21.49l-.753-1.701-3.793 1.698.745 1.688c2.774 6.27 4.179 12.933 4.179 19.805z"/><path d="m1.605-458.95c0 5.888-1.239 11.591-3.682 16.95l-.774 1.698 3.757 1.681.763-1.677c2.68-5.893 4.039-12.168 4.039-18.652 0-6.321-1.294-12.452-3.844-18.221l-.754-1.705-3.754 1.684.747 1.687c2.323 5.245 3.502 10.815 3.502 16.555z"/><path d="m-88.757-435.326 3.794-1.695-.773-1.699c-2.913-6.404-4.39-13.225-4.39-20.273 0-6.872 1.406-13.536 4.178-19.805l.745-1.687-3.791-1.7-.755 1.702c-3.018 6.809-4.548 14.039-4.548 21.49 0 7.641 1.606 15.04 4.776 21.993z"/><path d="m-83.903-440.304.764 1.678 3.755-1.684-.774-1.698c-2.443-5.358-3.682-11.06-3.682-16.949 0-5.741 1.178-11.31 3.503-16.555l.749-1.689-3.756-1.682-.752 1.704c-2.551 5.768-3.845 11.899-3.845 18.221 0 6.485 1.359 12.761 4.038 18.654z"/><path d="m-61.196-505.649c6.269-2.772 12.933-4.178 19.805-4.178 7.048 0 13.87 1.478 20.273 4.39l1.698.772 1.699-3.792-1.676-.764c-6.953-3.169-14.353-4.777-21.993-4.777-7.451 0-14.681 1.53-21.49 4.549l-1.703.755 1.702 3.791z"/><path d="m-41.354-507.643c-6.322 0-12.454 1.294-18.221 3.844l-1.704.753 1.682 3.756 1.689-.749c5.245-2.324 10.814-3.503 16.555-3.503 5.888 0 11.591 1.239 16.949 3.682l1.699.774 1.68-3.757-1.676-.763c-5.893-2.679-12.169-4.037-18.653-4.037z"/><path d="m-21.1-413.525c-6.269 2.772-12.933 4.178-19.805 4.178-7.048 0-13.87-1.477-20.273-4.389l-1.698-.772-1.699 3.791 1.676.765c6.952 3.169 14.352 4.776 21.993 4.776 7.451 0 14.681-1.53 21.49-4.549l1.703-.755-1.703-3.789z"/><path d="m-61.27-416.333 1.677.763c5.891 2.68 12.167 4.039 18.651 4.039 6.324 0 12.455-1.294 18.222-3.844l1.703-.754-1.682-3.754-1.689.748c-5.245 2.325-10.815 3.504-16.555 3.504-5.889 0-11.591-1.239-16.949-3.682l-1.699-.774z"/><path d="m-105.103-397.109v-28.073h-6.025v28.078c.003 4.627 3.767 8.389 8.394 8.389h26.791v-6.025h-26.791c-1.306 0-2.369-1.063-2.369-2.369z"/><path d="m20.441-528.674h-27.484v6.025h27.48c1.306 0 2.369 1.063 2.369 2.369v26.199h6.025v-26.2c0-4.627-3.764-8.392-8.39-8.393z"/><path d="m22.807-397.109c0 1.306-1.063 2.369-2.369 2.369h-27.48v6.025h27.48c4.628 0 8.394-3.765 8.394-8.394v-28.073h-6.025z"/><path d="m-105.103-520.281c0-1.306 1.063-2.369 2.369-2.369h26.791v-6.025h-26.797c-4.624.003-8.385 3.764-8.388 8.388v26.204h6.025z"/><path d="m62.59-528.674v140.149h140.149v-140.149zm134.36 134.36h-128.571v-128.571h128.571z"/><path d="m88.321-466.461-5.885 3.397 5.369 9.298 5.897-3.403c1.633 1.82 3.522 3.408 5.606 4.709l-2.327 6.394 10.089 3.671 2.324-6.385c1.198.169 2.421.26 3.664.26 1.244 0 2.467-.091 3.665-.26l2.323 6.386 10.09-3.674-2.329-6.393c2.085-1.303 3.972-2.891 5.607-4.71l5.895 3.404 5.369-9.298-5.885-3.398c.749-2.283 1.19-4.706 1.271-7.216l6.694-1.181-1.865-10.573-6.693 1.18c-.925-2.293-2.166-4.424-3.671-6.341l4.376-5.212-8.226-6.901-4.371 5.208c-2.135-1.143-4.447-1.998-6.884-2.512v-6.794h-10.737v6.794c-2.437.513-4.75 1.368-6.885 2.512l-4.371-5.208-8.224 6.901 4.374 5.214c-1.505 1.915-2.745 4.047-3.671 6.339l-6.693-1.18-1.864 10.573 6.693 1.181c.087 2.511.527 4.934 1.275 7.218zm24.738-21.795c7.561 0 13.711 6.15 13.711 13.712 0 7.561-6.15 13.711-13.711 13.711-7.562 0-13.712-6.15-13.712-13.711.001-7.562 6.15-13.712 13.712-13.712z"/><path d="m172.96-444.397-4.628 1.497c-.883-1.533-1.973-2.923-3.229-4.131l2.586-4.128-6.512-4.081-2.585 4.126c-1.627-.601-3.35-.979-5.128-1.102l-.671-4.817-7.612 1.062.671 4.815c-1.678.605-3.233 1.441-4.633 2.462l-3.613-3.262-5.149 5.706 3.616 3.265c-.877 1.507-1.546 3.141-1.976 4.858l-4.861-.175-.278 7.68 4.861.177c.306 1.772.859 3.445 1.615 4.991l-3.836 2.99 4.725 6.063 3.844-2.996c1.339 1.129 2.834 2.068 4.44 2.786l-1.019 4.763 7.517 1.607 1.015-4.759c.865.003 1.742-.056 2.624-.179s1.741-.308 2.572-.544l2.279 4.298 6.79-3.601-2.282-4.303c1.35-1.129 2.53-2.442 3.51-3.893l4.517 1.83 2.887-7.122-4.507-1.827c.305-1.693.377-3.455.188-5.244l4.631-1.498zm-19.432 20.488c-5.361.747-10.33-3.006-11.077-8.366-.748-5.361 3.006-10.33 8.367-11.077 5.361-.748 10.328 3.006 11.077 8.367.746 5.361-3.007 10.328-8.367 11.076z"/><path d="m148.84-465.999 3.647-1.206c.713 1.228 1.582 2.314 2.567 3.252l-2.017 3.267 5.162 3.188 2.022-3.273c1.301.467 2.665.751 4.051.84l.555 3.807 6.004-.878-.553-3.801c.641-.236 1.273-.519 1.893-.852.619-.333 1.204-.706 1.754-1.111l2.868 2.554 4.035-4.53-2.87-2.556c.688-1.207 1.2-2.504 1.526-3.846l3.845.114.18-6.065-3.838-.115c-.241-1.336-.67-2.66-1.301-3.933l3.015-2.381-3.762-4.76-3.013 2.38c-1.075-.893-2.265-1.622-3.527-2.172l.779-3.766-5.939-1.23-.781 3.764c-1.37.001-2.747.196-4.098.594l-1.82-3.38-5.342 2.877 1.821 3.381c-1.076.908-1.998 1.954-2.753 3.095l-3.569-1.421-2.244 5.637 3.573 1.424c-.235 1.357-.28 2.748-.127 4.137l-3.647 1.207zm12.683-15.428c3.762-2.028 8.47-.613 10.498 3.148 2.024 3.762.613 8.471-3.149 10.497-3.763 2.026-8.472.613-10.498-3.147-2.026-3.764-.614-8.473 3.149-10.498z"/><path d="m15.829 1.403v81.727h81.727v-81.727zm78.352 78.351h-74.976v-74.975h74.975v74.975z"/><path d="m30.834 37.683-3.432 1.981 3.131 5.422 3.439-1.984c.952 1.061 2.054 1.987 3.269 2.746l-1.357 3.729 5.884 2.141 1.355-3.723c.699.099 1.412.151 2.137.151s1.438-.053 2.137-.151l1.355 3.724 5.884-2.142-1.358-3.728c1.216-.76 2.316-1.686 3.27-2.747l3.438 1.985 3.131-5.422-3.432-1.982c.437-1.331.694-2.744.741-4.208l3.904-.689-1.088-6.166-3.903.688c-.539-1.337-1.263-2.58-2.141-3.698l2.552-3.039-4.797-4.025-2.549 3.037c-1.245-.667-2.593-1.165-4.014-1.465v-3.962h-6.26v3.962c-1.421.299-2.77.798-4.015 1.465l-2.549-3.037-4.796 4.024 2.551 3.04c-.877 1.117-1.601 2.36-2.141 3.697l-3.903-.688-1.087 6.166 3.903.689c.049 1.464.305 2.876.741 4.209zm14.426-12.71c4.409 0 7.995 3.586 7.995 7.996 0 4.409-3.586 7.995-7.995 7.995s-7.996-3.586-7.996-7.995c.001-4.41 3.587-7.996 7.996-7.996z"/><path d="m80.192 50.549-2.699.873c-.515-.894-1.151-1.705-1.883-2.409l1.508-2.408-3.798-2.38-1.507 2.406c-.949-.351-1.954-.571-2.991-.642l-.392-2.809-4.439.619.391 2.808c-.979.353-1.885.84-2.702 1.436l-2.107-1.902-3.003 3.327 2.109 1.904c-.512.879-.902 1.831-1.152 2.833l-2.835-.102-.162 4.478 2.835.103c.179 1.033.501 2.009.942 2.911l-2.237 1.744 2.755 3.536 2.241-1.747c.781.659 1.653 1.206 2.589 1.625l-.594 2.777 4.383.937.593-2.774c.505.002 1.016-.033 1.53-.105.514-.071 1.015-.18 1.5-.318l1.329 2.506 3.96-2.1-1.331-2.509c.787-.658 1.475-1.424 2.047-2.27l2.634 1.067 1.683-4.153-2.628-1.066c.178-.987.22-2.015.11-3.058l2.7-.873zm-11.333 11.947c-3.126.436-6.024-1.753-6.459-4.879-.436-3.126 1.753-6.024 4.879-6.459 3.126-.436 6.023 1.753 6.46 4.879.435 3.127-1.754 6.023-4.88 6.459z"/><path d="m66.126 37.952 2.127-.703c.416.716.923 1.349 1.497 1.896l-1.176 1.905 3.01 1.859 1.178-1.909c.759.272 1.554.438 2.362.49l.324 2.22 3.501-.512-.323-2.216c.374-.137.743-.303 1.104-.497s.702-.412 1.023-.648l1.672 1.489 2.353-2.642-1.673-1.491c.401-.704.7-1.46.89-2.243l2.242.066.105-3.537-2.238-.067c-.14-.779-.391-1.551-.759-2.293l1.758-1.389-2.194-2.776-1.757 1.388c-.627-.521-1.321-.946-2.057-1.266l.454-2.196-3.464-.717-.455 2.195c-.799 0-1.602.114-2.39.346l-1.062-1.971-3.115 1.677 1.062 1.972c-.627.529-1.165 1.14-1.606 1.805l-2.081-.829-1.309 3.287 2.083.83c-.137.791-.164 1.602-.074 2.413l-2.127.704zm7.396-8.997c2.194-1.182 4.939-.358 6.122 1.836 1.18 2.194.358 4.94-1.836 6.121s-4.94.358-6.122-1.835c-1.182-2.195-.359-4.941 1.836-6.122z"/><path d="m727.641 66.787c-7.005-3.694-11.102-17.83-15.067-31.5-3.833-13.221-7.452-25.71-13.551-27.488-2.494-.728-5.156.339-8.143 3.263-4.292 4.391-8.293 13.818-12.165 22.935-4.62 10.885-9.397 22.14-13.991 22.605-3.096.332-6.285-4.12-9.65-8.814-4.303-6.001-9.412-13.125-16.245-12.986-1.595.057-5.307.683-6.261 5.169 2.367-2.396 4.574-3.334 6.737-2.871 5.691 1.221 10.295 12.259 14.356 21.998 4.103 9.838 7.658 18.364 12.172 18.364.098 0 .197-.004.299-.013 6.422-.533 8.798-9.755 11.549-20.435 1.953-7.579 4.165-16.166 8.167-22.297 3.561-5.219 6.739-7.629 9.718-7.361 5.334.477 9.556 9.486 14.026 19.024 4.733 10.101 9.603 20.634 16.641 22.86 4.826 1.525 8.517-2.272 8.52-2.275-2.594 1.036-4.921.978-7.112-.178zm-73.278-18.41c3.673 5.123 6.838 9.551 10.446 9.186 5.111-.517 9.781-11.518 14.724-23.164 3.835-9.033 7.8-18.373 11.959-22.629 2.735-2.677 5.122-3.67 7.296-3.038 5.622 1.639 9.171 13.882 12.93 26.846 1.798 6.203 3.625 12.496 5.75 17.908-2.013-4.777-3.815-10.256-5.591-15.661-4.044-12.31-7.864-23.939-13.832-25.315-2.661-.612-5.477.803-8.609 4.326-4.282 4.818-7.787 13.919-11.177 22.718-4.269 11.081-8.302 21.549-13.2 22.018-3.319.329-6.634-5.146-10.136-10.933-2.306-3.81-4.792-7.907-7.61-10.939 2.56 2.418 4.862 5.624 7.05 8.677zm-.192 2.79c3.812 6.299 7.112 11.735 10.968 11.367 5.441-.522 9.575-11.252 13.951-22.612 3.359-8.718 6.832-17.733 10.998-22.421 2.899-3.261 5.438-4.587 7.77-4.048 5.477 1.263 9.214 12.644 13.172 24.693 1.986 6.047 4.003 12.189 6.334 17.379-2.171-4.535-4.13-9.814-6.055-15.018-4.237-11.439-8.238-22.243-14.133-23.302-2.854-.511-5.858 1.254-9.18 5.404-4.222 5.275-7.247 14.052-10.175 22.537-3.711 10.759-7.216 20.925-12.428 21.399-3.543.321-6.984-6.214-10.619-13.138-1.972-3.757-4.074-7.752-6.398-11.024 2.08 2.654 3.995 5.808 5.795 8.784zm-.179 2.713c3.943 7.513 7.331 13.997 11.478 13.625 5.781-.526 9.382-10.969 13.194-22.024 2.9-8.406 5.898-17.099 10.015-22.243 3.097-3.872 5.831-5.536 8.347-5.083 5.396.969 9.307 11.53 13.448 22.709 2.284 6.161 4.608 12.422 7.304 17.486-2.523-4.442-4.784-9.852-7.008-15.177-4.42-10.596-8.599-20.605-14.436-21.367-3.06-.404-6.265 1.749-9.775 6.575-4.194 5.762-6.773 14.304-9.266 22.564-3.12 10.333-6.066 20.094-11.563 20.571-3.774.346-7.339-7.323-11.1-15.424-1.581-3.404-3.183-6.848-4.876-9.914 1.487 2.469 2.893 5.14 4.238 7.702zm56.404-7.932c-4.586-9.787-8.919-19.033-14.753-19.553-3.31-.297-6.757 2.24-10.524 7.76-4.097 6.276-6.331 14.95-8.304 22.603-2.661 10.329-4.96 19.249-10.753 19.73-4.022.334-7.693-8.465-11.58-17.786-1.187-2.847-2.386-5.721-3.627-8.423 1.024 2.06 2.013 4.183 2.969 6.245 3.972 8.552 7.414 15.969 11.66 15.968.105 0 .211-.004.319-.014 6.093-.531 8.991-10.125 12.346-21.237 2.469-8.18 5.024-16.639 9.118-22.266 3.301-4.537 6.236-6.568 8.96-6.213 5.332.698 9.41 10.463 13.725 20.805 2.465 5.904 4.976 11.901 7.864 16.637-2.66-4.109-5.062-9.224-7.42-14.256z"/><path d="m-267.859-253.515v-46.876c3.153-.525 5.567-3.265 5.567-6.565 0-3.673-2.989-6.662-6.662-6.662-2.115 0-3.999.994-5.22 2.535l-42.94-23.666c.244-.693.385-1.434.385-2.21 0-3.674-2.989-6.662-6.663-6.662s-6.663 2.988-6.663 6.662c0 .776.14 1.517.385 2.21l-42.94 23.666c-1.222-1.541-3.106-2.535-5.22-2.535-3.673 0-6.66 2.987-6.662 6.658v.008c.002 3.298 2.415 6.036 5.568 6.56v46.876c-3.152.524-5.565 3.262-5.568 6.56v.008c.002 3.672 2.99 6.659 6.662 6.659 2.115 0 3.999-.994 5.22-2.535l42.94 23.666c-.245.693-.385 1.435-.385 2.21 0 3.672 2.987 6.66 6.659 6.663h.007c3.672-.002 6.659-2.99 6.659-6.663 0-.775-.141-1.517-.385-2.21l42.94-23.666c1.22 1.542 3.105 2.535 5.22 2.535 3.673 0 6.662-2.989 6.662-6.663.001-3.299-2.413-6.039-5.566-6.563zm-5.417-54.572c.191-.728.56-1.384 1.059-1.918.817-.874 1.976-1.424 3.264-1.424 2.466 0 4.473 2.007 4.473 4.473 0 2.088-1.44 3.841-3.378 4.332-.351.089-.716.141-1.095.141-.378 0-.744-.052-1.095-.141-.844-.214-1.591-.666-2.169-1.283-.499-.533-.868-1.189-1.059-1.916-.095-.362-.151-.741-.151-1.132.001-.392.056-.771.151-1.132zm-.897 5.258c1.005 1.269 2.462 2.16 4.125 2.437v46.876c-.474.079-.932.206-1.367.379l-23.23-38.41zm-43.998-30.003 42.94 23.666c-.245.693-.385 1.435-.385 2.21 0 .776.14 1.517.385 2.21l-20.549 11.325-23.277-38.488c.323-.279.62-.588.886-.923zm-10.328 51.624-.083.019-1.087-4.393 6.002-1.703h4.116v4.907 3.155 4.541 3.155 4.907h-5.567v-3.906-2.307-8.239-.904zm5.107-17.087c-7.659 0-14.372 4.036-18.137 10.095l-7.555-4.164 23.231-38.41c.763.305 1.592.477 2.462.477s1.699-.172 2.462-.477l23.231 38.41-7.556 4.164c-3.766-6.059-10.479-10.095-18.138-10.095zm0-43.136c2.467 0 4.472 2.006 4.472 4.472 0 .392-.056.77-.151 1.132-.19.728-.559 1.383-1.059 1.917-.028.031-.054.063-.084.093-.515.52-1.155.916-1.873 1.136-.413.126-.852.195-1.307.195s-.893-.069-1.307-.195c-.717-.22-1.358-.615-1.873-1.136-.029-.03-.055-.062-.083-.093-.5-.534-.868-1.189-1.059-1.917-.096-.362-.151-.74-.151-1.132.003-2.466 2.009-4.472 4.475-4.472zm-48.16 32.265 42.94-23.666c.266.335.563.644.886.923l-23.277 38.488-20.549-11.325c.244-.694.385-1.435.385-2.21s-.14-1.517-.385-2.21zm-1.058 6.337 20.473 11.283-23.231 38.41c-.435-.174-.892-.3-1.367-.379v-46.876c1.665-.277 3.12-1.169 4.125-2.438zm-9.692-4.127c0-2.466 2.007-4.473 4.473-4.473 1.288 0 2.447.55 3.264 1.424.499.534.868 1.189 1.058 1.918.096.362.151.74.151 1.131 0 .392-.055.77-.151 1.132-.19.727-.559 1.383-1.058 1.916-.577.617-1.325 1.069-2.169 1.283-.352.089-.716.141-1.095.141-.378 0-.744-.052-1.095-.141-1.938-.49-3.378-2.243-3.378-4.331zm8.794 61.137c-.002.009-.004.018-.007.026-.192.718-.558 1.364-1.051 1.891-.817.874-1.976 1.423-3.264 1.423-2.466 0-4.473-2.006-4.473-4.472 0-2.088 1.44-3.841 3.378-4.332.351-.089.716-.141 1.095-.141s.743.052 1.095.141c.071.018.142.033.212.055.717.219 1.357.615 1.872 1.135.029.031.056.062.084.093.499.534.868 1.189 1.058 1.917.009.033.018.066.026.099.079.332.125.676.125 1.032.001.393-.054.771-.15 1.133zm.013-6.181 23.277-38.488 7.629 4.205c-1.373 2.819-2.145 5.984-2.145 9.331 0 3.346.772 6.511 2.145 9.33l-30.02 16.545c-.265-.336-.563-.645-.886-.923zm50.103 39.525c-2.467 0-4.473-2.006-4.473-4.473 0-.392.056-.77.151-1.132.191-.728.559-1.383 1.058-1.917.817-.874 1.976-1.424 3.264-1.424s2.447.55 3.263 1.424c.5.534.868 1.189 1.059 1.917.095.362.151.74.151 1.132 0 2.467-2.006 4.473-4.473 4.473zm5.221-8.599c-1.222-1.542-3.106-2.536-5.22-2.536-2.115 0-3.999.994-5.22 2.536l-42.94-23.666c.119-.339.213-.69.277-1.052h95.766c.064.362.157.713.277 1.052zm42.643-26.909h-95.727c-.064-.406-.162-.799-.296-1.177l30.023-16.547c3.766 6.059 10.478 10.095 18.137 10.095s14.372-4.037 18.137-10.095l30.023 16.547c-.134.378-.233.771-.297 1.177zm1.354-3.095-30.02-16.545c1.372-2.819 2.144-5.984 2.144-9.33 0-3.347-.772-6.511-2.144-9.331l7.628-4.205 23.278 38.489c-.324.278-.62.587-.886.922zm5.22 8.6c-1.287 0-2.446-.55-3.264-1.423-.493-.528-.859-1.174-1.052-1.891-.003-.008-.004-.017-.007-.026-.095-.362-.151-.74-.151-1.132 0-.356.046-.7.125-1.032.008-.033.017-.066.026-.099.191-.728.56-1.383 1.059-1.917.028-.031.055-.062.084-.093.515-.52 1.156-.916 1.873-1.135.069-.022.142-.037.212-.055.351-.089.717-.141 1.095-.141.379 0 .744.052 1.095.141 1.938.491 3.378 2.244 3.378 4.332 0 2.464-2.007 4.471-4.473 4.471z"/></g><path d="m253.367-284.425-5.879 7.508-.06.099h7.444l1.65-7.681c.487-2.235 1.154-4.67 1.72-6.905h-.216c-1.585 2.409-2.954 4.629-4.659 6.979z" fill="none"/><path d="m206.733-297.492-13.147 13.655c.661 1.205 1.057 2.603 1.057 4.082l4.761 4.531c2.157 2.041 2.232 5.446.176 7.567-1.059 1.105-2.489 1.652-3.918 1.652-1.335 0-2.684-.488-3.722-1.478l-3.977-3.773c-.667.154-1.355.253-2.061.253-1.37 0-2.664-.333-3.817-.896l-5.488 5.68c-.431.444-.978.658-1.57.658-.527 0-1.053-.175-1.485-.583-.863-.836-.883-2.176-.081-3.031l5.312-5.506c-1.003-1.419-1.59-3.132-1.59-4.998 0-.583.04-1.126.155-1.653l-16.929-16.06c-2.131-2.04-2.211-5.446-.155-7.566 2.057-2.136 5.487-2.235 7.624-.174l17.712 16.801h.311c1.745 0 3.35.508 4.705 1.364l12.991-13.476c.823-.856 2.192-.896 3.075-.08.844.835.884 2.174.061 3.031zm17.731 25.961-3.546 2.509v.1l12.796.02-1.255 6.685h-24.357l.923-5.052 7.68-5.894c7.152-5.775 11.758-9.916 11.758-14.159 0-2.509-1.766-4.296-4.941-4.296-3.17 0-5.643.936-7.524 2.061l-1.584-5.6c2.859-1.748 6.977-3.051 11.03-3.051 7.233 0 11.13 4.202 11.13 9.643-.001 7.232-5.799 12.23-12.11 17.034z" fill="none"/><path d="m-196.079-294.926h-1.715v1.714 50.065h-10.096v22.359h21.908v-22.359h-10.097v-50.065h29.635v72.424h87.634v-89.435h-87.634v15.297zm-8.139 56.129c0-.281.227-.511.507-.511h3.387c.281 0 .507.23.507.511 0 .283-.226.512-.507.512h-2.163l3.267 3.293c.198.2.198.523 0 .723-.099.1-.229.149-.359.149s-.26-.049-.359-.149l-3.267-3.293v2.18c0 .282-.227.511-.507.511s-.507-.229-.507-.511v-3.415zm5.098 9.754-3.367 3.394h2.163c.28 0 .507.229.507.511 0 .283-.227.511-.507.511h-3.387c-.281 0-.508-.228-.508-.511v-3.414c0-.282.227-.511.508-.511s.507.229.507.511v2.18l3.367-3.394c.198-.2.52-.2.717-.001.199.2.199.524 0 .724zm4.467-5.949 3.266-3.294h-2.162c-.281 0-.507-.229-.507-.511s.226-.511.507-.511h3.387c.28 0 .507.229.507.511v3.415c0 .282-.227.511-.507.511s-.507-.229-.507-.511v-2.181l-3.267 3.293c-.099.099-.229.15-.359.15-.129 0-.259-.05-.359-.15-.196-.199-.196-.523.001-.722zm-.101 5.225c.198-.2.519-.2.717 0l3.368 3.394v-2.18c0-.282.227-.511.507-.511s.507.229.507.511v3.414c0 .282-.227.512-.507.512h-3.387c-.281 0-.507-.23-.507-.512s.226-.511.507-.511h2.162l-3.367-3.394c-.198-.2-.198-.523 0-.723zm81.227-47.794 13.016-13.123h-8.618c-1.116 0-2.021-.912-2.021-2.038 0-1.125.905-2.038 2.021-2.038h13.498c1.116 0 2.021.913 2.021 2.038v13.609c0 1.124-.905 2.037-2.021 2.037-1.117 0-2.021-.913-2.021-2.037v-8.689l-13.017 13.123c-.395.397-.912.597-1.429.597s-1.034-.199-1.429-.597c-.789-.796-.789-2.086 0-2.882zm-.402 20.825c.79-.796 2.069-.796 2.859 0l13.419 13.527v-8.688c0-1.126.904-2.038 2.021-2.038 1.116 0 2.021.912 2.021 2.038v13.607c0 1.125-.905 2.038-2.021 2.038h-13.498c-1.116 0-2.021-.913-2.021-2.038s.905-2.038 2.021-2.038h8.618l-13.418-13.527c-.79-.796-.79-2.086-.001-2.881zm-17.397 2.881-13.418 13.527h8.618c1.118 0 2.021.914 2.021 2.038 0 1.127-.903 2.038-2.021 2.038h-13.497c-1.116 0-2.022-.911-2.022-2.038v-13.607c0-1.126.906-2.038 2.022-2.038s2.02.912 2.02 2.038v8.688l13.418-13.527c.79-.796 2.07-.796 2.859-.001.79.795.79 2.086 0 2.882zm-20.32-38.867c0-1.124.906-2.037 2.021-2.037h13.498c1.117 0 2.021.913 2.021 2.037 0 1.127-.904 2.039-2.021 2.039h-8.62l13.019 13.121c.79.796.79 2.086 0 2.882-.395.399-.912.595-1.429.595-.516 0-1.034-.196-1.428-.595l-13.019-13.121v8.688c0 1.125-.906 2.038-2.021 2.038s-2.021-.913-2.021-2.038z" fill="#fff"/><path d="m242.568-243.837c2.547-3.988 1.394-9.28-2.644-11.844-4.018-2.549-9.365-1.384-11.933 2.603-9.249 14.373-24.979 22.93-42.089 22.93-27.527 0-49.924-22.207-49.924-49.534 0-27.32 22.397-49.548 49.924-49.548 14.601 0 28.16 6.283 37.585 17.015l-10.464 7.896 30.583 4.102 4.173-30.352-10.478 7.915c-12.7-14.994-31.334-23.746-51.399-23.746-37.046.019-67.2 29.946-67.204 66.712v.013c.003 36.751 30.156 66.695 67.2 66.698h.011c23.04-.002 44.22-11.551 56.659-30.86z" fill="#fff"/><path d="m225.443-298.209c-4.053 0-8.171 1.304-11.03 3.051l1.584 5.6c1.881-1.125 4.355-2.061 7.524-2.061 3.175 0 4.941 1.787 4.941 4.296 0 4.242-4.605 8.384-11.758 14.159l-7.68 5.894-.923 5.052h24.357l1.255-6.685-12.796-.02v-.1l3.546-2.509c6.311-4.804 12.109-9.802 12.109-17.036.001-5.439-3.896-9.641-11.129-9.641z" fill="#fff"/><path d="m262.28-276.818.004-.02h-.004z" fill="#fff"/><path d="m262.28-276.818v-.02h.004l3.933-20.788h-9.695l-17.009 21.565-.979 5.232h15.184l-1.645 8.592h7.403l1.65-8.592h4.229l1.098-6.006v-.004h-4.169zm-5.758-7.681-1.65 7.681h-7.444l.06-.099 5.879-7.508c1.705-2.35 3.074-4.57 4.66-6.98h.216c-.567 2.236-1.235 4.671-1.721 6.906z" fill="#fff"/><path d="m203.598-300.445-12.991 13.476c-1.355-.857-2.96-1.364-4.705-1.364h-.311l-17.712-16.801c-2.137-2.061-5.567-1.962-7.624.174-2.056 2.12-1.976 5.526.155 7.566l16.929 16.06c-.115.527-.155 1.07-.155 1.653 0 1.866.587 3.579 1.59 4.998l-5.312 5.506c-.802.856-.782 2.196.081 3.031.431.408.958.583 1.485.583.592 0 1.138-.214 1.57-.658l5.488-5.68c1.153.563 2.447.896 3.817.896.707 0 1.394-.099 2.061-.253l3.977 3.773c1.038.991 2.388 1.478 3.722 1.478 1.429 0 2.859-.547 3.918-1.652 2.056-2.121 1.981-5.526-.176-7.567l-4.761-4.531c0-1.478-.396-2.877-1.057-4.082l13.147-13.655c.822-.857.782-2.196-.06-3.032-.884-.815-2.253-.775-3.076.081z" fill="#fff"/><path d="m17.905-235.257c-.437-1.068-.925-2.125-1.452-3.143-3.45-6.666-8.187-11.112-12.77-15.414-1.292-1.212-2.936-3.108-4.678-5.116-2.543-2.928-5.171-5.956-6.938-7.111-1.601-1.047-2.909-1.075-3.888-.086-1.428 1.442-1.008 4.133 1.367 8.718 1.586 3.066 3.885 6.676 6.322 10.499.392.614.788 1.238 1.189 1.867-4.314-4.717-7.481-9.007-9.432-12.773-2.239-4.325-2.693-7.665-1.281-9.409.997-1.23 2.895-1.535 5.345-.861l.362.101-.087-.367c-.046-.189-4.572-19.047-5.529-22.616-.21-.786-.502-1.546-.87-2.254-1.319-2.547-3.402-4.093-4.954-3.678-.75.201-1.984 1.054-1.821 4.503l2.357 29.767c.121.972.205 1.99.296 3.069.274 3.299.56 6.709 1.909 9.315.562 1.086 1.212 2.066 1.989 2.995 1.399 1.677 5.285 5.721 9.403 10.004 4.005 4.17 8.15 8.481 9.665 10.282 1.186 1.413 2.213 2.968 3.141 4.76.745 1.442 1.373 2.931 1.932 4.453h14.483l-.217-.738c-1.737-5.914-3.651-11.398-5.843-16.767z" fill="#fff"/><path d="m73.052-296.9c-1.553-.416-3.636 1.13-4.954 3.678-.367.709-.661 1.468-.87 2.254-.957 3.569-5.483 22.426-5.529 22.616l-.087.367.363-.099c2.448-.676 4.347-.37 5.345.86 1.412 1.742.957 5.083-1.282 9.408-1.949 3.766-5.116 8.057-9.431 12.775.402-.63.798-1.255 1.19-1.869 2.436-3.823 4.735-7.434 6.321-10.499 2.375-4.586 2.796-7.275 1.368-8.719-.98-.989-2.289-.961-3.888.086-1.767 1.155-4.395 4.183-6.938 7.113-1.741 2.006-3.386 3.902-4.678 5.114-4.583 4.302-9.32 8.749-12.771 15.416-.527 1.017-1.015 2.074-1.451 3.141-2.193 5.369-4.106 10.853-5.845 16.766l-.218.74h14.485c.559-1.523 1.185-3.011 1.932-4.453.927-1.791 1.955-3.349 3.142-4.761 1.513-1.8 5.657-6.112 9.665-10.281 4.117-4.282 8.005-8.328 9.403-10.003.777-.93 1.427-1.911 1.987-2.995 1.35-2.607 1.634-6.018 1.91-9.315.09-1.079.175-2.097.296-3.069l2.317-29.261v-2.147c-.233-2.096-1.169-2.698-1.782-2.863z" fill="#fff"/><path d="m73.213-314.515h-5.4c-1.256 0-2.257 1.001-2.257 2.258s1.001 2.257 2.257 2.257h5.4c1.256 0 2.256-1 2.257-2.255v-.003c-.001-1.257-1.001-2.257-2.257-2.257z" fill="#fff"/><path d="m62.392-330.223c.372 0 .757-.128 1.129-.256l4.654-2.77c1.14-.616 1.513-2.001.885-3.13-.629-1.129-2.014-1.513-3.143-.885l-4.653 2.77c-1.129.628-1.513 2.013-.885 3.142.372.757 1.256 1.129 2.013 1.129z" fill="#fff"/><path d="m1.338-296.921c1 1.885 2.385 3.514 3.77 5.026 4.143 6.027 6.412 11.183 6.284 14.452v11.938c0 4.644 3.771 8.541 8.541 8.541h13.939c4.643 0 8.541-3.771 8.541-8.541v-10.81c0-.372-.128-.744-.128-1v-.128c-.116-3.386 2.141-8.669 6.54-14.825 1.256-1.256 2.268-2.758 3.269-4.269l.257-.373c.244-.256.372-.512.5-.885 2.513-4.526 3.898-9.553 3.898-14.708 0-16.465-13.451-29.904-29.904-29.776-16.453 0-29.904 13.44-29.904 29.905 0 5.143 1.385 10.298 4.026 14.824.114.257.243.372.371.629zm36.432 31.673c-.245 2.013-1.885 3.514-3.886 3.514h-13.952c-2.013 0-3.642-1.501-3.898-3.514v-.884h21.736zm0-5.539h-21.736v-4.27h21.736zm-10.938-66.977c13.951 0 25.261 11.31 25.261 25.261 0 4.526-1.129 8.926-3.386 12.696 0 .128-.129.127-.129.255s-.127.128-.127.256c-.745 1.385-1.757 2.77-2.886 3.898-.128.128-.256.128-.256.256-3.142 4.398-6.656 10.298-7.413 15.453h-21.99c-.629-4.143-3.025-9.17-7.168-15.08l-.255-.257c-1.257-1.385-2.397-2.897-3.398-4.526v-.127c-2.258-3.898-3.514-8.298-3.514-12.824-.001-13.951 11.31-25.261 25.261-25.261z" fill="#fff"/><path d="m-19.025-310h5.399c1.257 0 2.258-1 2.258-2.257s-1-2.258-2.258-2.258h-5.399c-1.257 0-2.257 1-2.257 2.258 0 1.257 1 2.257 2.257 2.257z" fill="#fff"/><path d="m-13.999-333.237 4.654 2.769c.373.256.757.256 1.129.256.756 0 1.628-.372 2.012-1.129.617-1.14.245-2.525-.884-3.153l-4.655-2.77c-1.129-.628-2.513-.255-3.142.885-.627 1.128-.254 2.513.886 3.142z" fill="#fff"/><path d="m46.041-346.789c.372.128.757.256 1.129.256.757 0 1.641-.373 2.013-1.129l2.77-4.653c.628-1.129.244-2.514-.885-3.143-1.129-.628-2.513-.244-3.142.885l-2.769 4.654c-.629 1.14-.256 2.513.884 3.13z" fill="#fff"/><path d="m26.807-351.921c1.256 0 2.257-1 2.257-2.257v-5.399c0-1.257-1-2.257-2.256-2.258h-.003c-1.256.001-2.255 1.001-2.255 2.258v5.399c-.128 1.245.872 2.257 2.257 2.257z" fill="#fff"/><path d="m4.443-347.65c.372.756 1.256 1.129 2.012 1.129.373 0 .757-.128 1.129-.256 1.129-.629 1.513-2.012.884-3.142l-2.77-4.654c-.627-1.129-2.012-1.513-3.141-.884-1.129.628-1.513 2.012-.884 3.141z" fill="#fff"/><path d="m61.811-202.701-3.542-.027-1.124-3.364c-.072-.217-.262-.326-.452-.326h-.001c-.19 0-.38.109-.452.326l-1.12 3.364-3.546.027c-.458.004-.647.59-.28.863l2.853 2.104-1.071 3.379c-.136.435.36.799.734.53l2.884-2.059 2.88 2.059c.375.269.874-.095.734-.53l-1.067-3.379 2.85-2.104c.37-.273.177-.86-.28-.863z" fill="#fff"/><path d="m61.811-130.526-3.542-.027-1.124-3.364c-.144-.435-.761-.435-.904 0l-1.12 3.364-3.546.027c-.458.004-.647.59-.28.863l2.853 2.104-1.071 3.379c-.136.435.36.798.734.53l2.884-2.059 2.88 2.059c.375.269.874-.095.734-.53l-1.067-3.379 2.85-2.104c.369-.273.176-.859-.281-.863z" fill="#fff"/><path d="m97.898-166.614-3.542-.027-1.124-3.364c-.144-.435-.761-.435-.904 0l-1.12 3.364-3.546.027c-.458.004-.647.59-.28.863l2.853 2.104-1.071 3.379c-.136.435.36.798.734.53l2.884-2.059 2.88 2.059c.375.269.874-.095.734-.53l-1.067-3.379 2.85-2.104c.37-.272.177-.859-.281-.863z" fill="#fff"/><path d="m23.488-159.736c.375.269.87-.095.734-.534l-1.071-3.376 2.85-2.108c.371-.272.182-.855-.276-.859l-3.546-.03-1.12-3.36c-.144-.435-.761-.435-.904 0l-1.124 3.36-3.542.03c-.458.004-.651.587-.28.859l2.85 2.108-1.067 3.376c-.14.439.36.802.73.534l2.884-2.059z" fill="#fff"/><path d="m31.14-185.459-3.542-.027-1.124-3.364c-.144-.435-.761-.435-.904 0l-1.12 3.364-3.546.027c-.458.004-.647.59-.28.863l2.853 2.104-1.071 3.379c-.136.435.36.799.734.53l2.884-2.059 2.88 2.059c.375.269.874-.095.734-.53l-1.067-3.379 2.85-2.104c.37-.273.177-.86-.281-.863z" fill="#fff"/><path d="m93.646-149.372-3.542-.027-1.124-3.364c-.144-.435-.761-.435-.904 0l-1.12 3.364-3.546.027c-.458.004-.647.59-.28.863l2.853 2.104-1.071 3.379c-.136.435.36.799.734.53l2.884-2.059 2.884 2.059c.371.269.87-.095.73-.53l-1.067-3.379 2.85-2.104c.37-.273.177-.859-.281-.863z" fill="#fff"/><path d="m80.437-198.668-3.542-.027-1.124-3.364c-.144-.435-.761-.435-.904 0l-1.12 3.364-3.546.027c-.458.004-.647.587-.28.863l2.853 2.104-1.071 3.379c-.136.435.36.798.734.53l2.884-2.059 2.884 2.059c.371.269.87-.095.73-.53l-1.067-3.379 2.85-2.104c.37-.276.177-.859-.281-.863z" fill="#fff"/><path d="m44.349-136.162-3.542-.027-1.124-3.364c-.144-.435-.761-.435-.904 0l-1.12 3.364-3.546.027c-.458.004-.647.59-.28.863l2.853 2.104-1.071 3.379c-.136.435.36.798.734.53l2.884-2.059 2.88 2.059c.375.269.874-.095.734-.53l-1.067-3.379 2.85-2.104c.37-.273.177-.859-.281-.863z" fill="#fff"/><path d="m85.982-182.494-1.067 3.379c-.14.439.36.799.73.534l2.884-2.062 2.884 2.062c.371.265.87-.095.73-.534l-1.067-3.379 2.85-2.104c.371-.272.178-.859-.28-.863l-3.542-.027-1.12-3.36c-.148-.435-.761-.435-.908 0l-1.12 3.36-3.542.027c-.458.004-.651.59-.28.863z" fill="#fff"/><path d="m31.14-149.372-3.542-.027-1.124-3.364c-.144-.435-.761-.435-.904 0l-1.12 3.364-3.546.027c-.458.004-.647.59-.28.863l2.853 2.104-1.071 3.379c-.136.435.36.799.734.53l2.884-2.059 2.88 2.059c.375.269.874-.095.734-.53l-1.067-3.379 2.85-2.104c.37-.273.177-.859-.281-.863z" fill="#fff"/><path d="m36.684-195.702-1.067 3.379c-.14.435.36.798.73.534l2.884-2.062 2.884 2.062c.371.265.87-.098.73-.534l-1.067-3.379 2.85-2.104c.371-.272.178-.859-.28-.863l-3.542-.026-1.12-3.364c-.148-.431-.761-.431-.908 0l-1.12 3.364-3.542.026c-.462.004-.651.59-.28.863z" fill="#fff"/><path d="m80.437-136.162-3.542-.027-1.124-3.364c-.144-.435-.761-.435-.904 0l-1.12 3.364-3.546.027c-.458.004-.647.59-.28.863l2.853 2.104-1.071 3.379c-.136.435.36.798.734.53l2.884-2.059 2.884 2.059c.371.269.87-.095.73-.53l-1.067-3.379 2.85-2.104c.37-.273.177-.859-.281-.863z" fill="#fff"/></svg>