<svg enable-background="new 0 0 113.386 85.04" height="85.04" viewBox="0 0 113.386 85.04" width="113.386" xmlns="http://www.w3.org/2000/svg"><g fill="#4bbab5"><path d="m-94.131 109.38 2.994-3.619-5.139-5.154-3.613 3.011c-1.668-1.043-3.516-1.822-5.486-2.278l-.433-4.685h-7.265l-.434 4.699c-1.965.46-3.806 1.243-5.467 2.29l-3.626-3.02-5.137 5.156 3.017 3.645c-1.036 1.667-1.811 3.514-2.264 5.483l-4.69.436v7.266l4.69.436c.453 1.97 1.228 3.816 2.264 5.483l-3.017 3.645 5.137 5.156 3.626-3.02c1.661 1.047 3.502 1.829 5.467 2.29l.434 4.699h7.265l.433-4.685c1.97-.455 3.818-1.235 5.486-2.278l3.613 3.011 5.139-5.154-2.994-3.619c1.047-1.672 1.831-3.528 2.288-5.506l4.662-.434v-7.314l-4.662-.435c-.457-1.977-1.24-3.833-2.288-5.505zm-15.296 17.038c-4.088 0-7.416-3.338-7.416-7.44s3.327-7.44 7.416-7.44c4.088 0 7.415 3.338 7.415 7.44s-3.327 7.44-7.415 7.44z"/><path d="m-129.486 97.05.034-.001c.949-.029 1.883-.213 2.777-.549 4.49-1.689 6.779-6.742 5.106-11.254l-6.91-13.437c-.393-.76-1.623-.761-2.016 0l-6.848 13.294-.058.131c-1.676 4.523.614 9.575 5.104 11.265.893.335 1.827.519 2.733.546zm-6.736-11.358 6.736-13.076 6.729 13.061c1.434 3.868-.522 8.19-4.361 9.633-.749.281-1.53.438-2.365.47v-.001c-.81-.025-1.608-.183-2.371-.468-3.838-1.443-5.795-5.765-4.368-9.619z"/><path d="m-82.268 85.232-6.905-13.424c-.394-.758-1.621-.76-2.017.002l-6.841 13.282-.064.144c-1.676 4.522.613 9.575 5.103 11.265.893.335 1.827.519 2.732.546l.079.004.035-.001c.948-.029 1.882-.213 2.777-.549 4.491-1.69 6.78-6.743 5.101-11.269zm-5.545 10.079c-.748.281-1.529.438-2.364.47v-.001c-.811-.025-1.608-.183-2.371-.468-3.84-1.445-5.795-5.767-4.368-9.62l6.735-13.076 6.729 13.062c1.434 3.868-.523 8.19-4.361 9.633z"/><path d="m-112.19 84.123c.891.334 1.825.519 2.811.549h.026.01c.951-.03 1.885-.215 2.776-.549 4.49-1.688 6.78-6.742 5.101-11.268l-6.905-13.422c-.392-.761-1.625-.758-2.016 0l-6.845 13.288-.061.138c-1.677 4.521.612 9.574 5.103 11.264zm-3.925-10.808 6.736-13.076 6.729 13.061c1.434 3.868-.523 8.19-4.361 9.634-.76.285-1.556.443-2.368.469-.811-.026-1.608-.184-2.368-.468-3.839-1.445-5.795-5.767-4.368-9.62z"/><path d="m-89.251-18.362 5.712-6.902-9.802-9.831-6.892 5.744c-3.181-1.99-6.705-3.476-10.463-4.345l-.825-8.935h-13.858l-.828 8.963c-3.748.878-7.259 2.371-10.427 4.368l-6.916-5.76-9.798 9.834 5.754 6.952c-1.976 3.179-3.454 6.702-4.319 10.458l-8.946.831v13.859l8.946.831c.865 3.757 2.343 7.279 4.319 10.458l-5.754 6.952 9.798 9.834 6.916-5.76c3.168 1.997 6.679 3.489 10.427 4.368l.828 8.962h13.858l.825-8.935c3.758-.869 7.282-2.355 10.463-4.345l6.892 5.743 9.802-9.83-5.712-6.903c1.997-3.189 3.492-6.729 4.363-10.502l8.892-.828v-13.95l-8.892-.829c-.871-3.773-2.366-7.313-4.363-10.502zm-29.176 32.498c-7.798 0-14.144-6.367-14.144-14.191s6.347-14.191 14.144-14.191 14.143 6.367 14.143 14.191c0 7.823-6.345 14.191-14.143 14.191z"/><path d="m-156.687-41.88.066-.002c1.81-.055 3.592-.407 5.297-1.047 8.565-3.221 12.93-12.859 9.74-21.465l-13.18-25.628c-.749-1.45-3.096-1.451-3.846.001l-13.062 25.357-.111.251c-3.196 8.626 1.171 18.264 9.735 21.486 1.703.639 3.485.991 5.213 1.041zm-12.848-21.664 12.848-24.94 12.835 24.912c2.734 7.378-.996 15.622-8.317 18.374-1.428.537-2.918.836-4.51.897v-.002c-1.546-.047-3.068-.348-4.523-.893-7.321-2.754-11.054-10.997-8.333-18.348z"/><path d="m-66.624-64.422-13.171-25.604c-.751-1.446-3.092-1.45-3.847.004l-13.048 25.333-.123.274c-3.197 8.625 1.17 18.263 9.734 21.486 1.703.639 3.485.991 5.211 1.041l.151.007.067-.002c1.809-.055 3.59-.407 5.297-1.047 8.564-3.221 12.931-12.859 9.729-21.492zm-10.577 19.225c-1.427.537-2.917.836-4.509.897v-.002c-1.547-.047-3.068-.348-4.523-.893-7.323-2.756-11.054-10.999-8.332-18.349l12.847-24.941 12.835 24.914c2.735 7.378-.997 15.621-8.318 18.374z"/><path d="m-123.697-66.537c1.699.637 3.481.989 5.362 1.047h.049l.019-.001c1.814-.057 3.596-.409 5.295-1.048 8.565-3.22 12.931-12.859 9.73-21.492l-13.17-25.601c-.748-1.451-3.1-1.446-3.845.001l-13.057 25.345-.117.263c-3.198 8.624 1.168 18.262 9.734 21.486zm-7.486-20.615 12.848-24.94 12.834 24.912c2.736 7.378-.997 15.621-8.318 18.375-1.449.544-2.968.845-4.516.894-1.548-.049-3.067-.35-4.516-.893-7.323-2.756-11.054-10.999-8.332-18.348z"/><path d="m52.586 74.374c-.255-.624-.54-1.241-.848-1.836-2.015-3.894-4.782-6.491-7.459-9.003-.754-.708-1.715-1.815-2.732-2.988-1.485-1.71-3.02-3.479-4.052-4.154-.935-.612-1.699-.628-2.271-.05-.834.842-.589 2.414.798 5.092.926 1.791 2.269 3.9 3.693 6.133.229.359.46.723.694 1.09-2.52-2.755-4.37-5.261-5.509-7.461-1.308-2.526-1.573-4.477-.748-5.496.582-.719 1.691-.897 3.122-.503l.212.059-.051-.215c-.027-.111-2.67-11.125-3.229-13.21-.123-.459-.293-.903-.508-1.317-.77-1.488-1.987-2.391-2.894-2.148-.438.117-1.159.616-1.064 2.63l1.377 17.387c.071.568.12 1.162.173 1.793.16 1.927.327 3.919 1.115 5.441.328.634.708 1.207 1.162 1.75.817.979 3.087 3.342 5.493 5.843 2.34 2.436 4.761 4.954 5.645 6.006.693.825 1.293 1.734 1.835 2.78.435.843.802 1.712 1.129 2.601h8.46l-.129-.43c-1.016-3.454-2.134-6.658-3.414-9.794z"/><path d="m84.797 38.369c-.907-.243-2.124.66-2.894 2.149-.215.414-.386.857-.508 1.317-.559 2.085-3.203 13.099-3.229 13.21l-.051.214.212-.058c1.43-.395 2.539-.216 3.122.502.825 1.018.559 2.969-.749 5.495-1.139 2.2-2.989 4.706-5.509 7.462.235-.368.466-.733.695-1.091 1.423-2.233 2.766-4.342 3.692-6.132 1.387-2.679 1.633-4.249.799-5.093-.573-.578-1.337-.561-2.271.05-1.032.675-2.567 2.444-4.052 4.155-1.017 1.172-1.978 2.279-2.732 2.987-2.677 2.513-5.444 5.11-7.459 9.005-.308.594-.593 1.211-.848 1.835-1.281 3.136-2.398 6.339-3.414 9.793l-.128.431h8.461c.327-.89.692-1.759 1.128-2.601.541-1.046 1.142-1.956 1.835-2.781.884-1.052 3.304-3.57 5.645-6.005 2.405-2.501 4.676-4.865 5.493-5.843.454-.543.833-1.116 1.161-1.75.789-1.523.955-3.515 1.115-5.441.053-.63.102-1.225.173-1.793l1.353-17.091v-1.254c-.136-1.224-.682-1.576-1.04-1.672z"/><path d="m84.891 28.08h-3.154c-.734 0-1.318.585-1.318 1.319s.584 1.318 1.318 1.318h3.154c.734 0 1.318-.584 1.318-1.317v-.002c0-.734-.584-1.318-1.318-1.318z"/><path d="m78.57 18.905c.217 0 .442-.075.659-.15l2.719-1.618c.666-.36.884-1.169.517-1.828s-1.176-.883-1.836-.517l-2.718 1.618c-.66.367-.884 1.176-.517 1.835.218.442.734.66 1.176.66z"/><path d="m42.908 38.357c.584 1.101 1.393 2.053 2.202 2.936 2.42 3.521 3.746 6.532 3.67 8.442v6.973c0 2.712 2.202 4.989 4.989 4.989h8.142c2.712 0 4.989-2.202 4.989-4.989v-6.314c0-.217-.075-.435-.075-.584v-.075c-.068-1.978 1.251-5.063 3.82-8.659.733-.733 1.325-1.611 1.909-2.494l.15-.218c.142-.15.217-.299.292-.517 1.468-2.644 2.277-5.58 2.277-8.591 0-9.617-7.857-17.467-17.467-17.392-9.61 0-17.467 7.851-17.467 17.468 0 3.004.809 6.015 2.351 8.659.068.148.144.216.218.366zm21.281 18.5c-.143 1.176-1.101 2.053-2.27 2.053h-8.149c-1.176 0-2.128-.877-2.277-2.053v-.516h12.696zm0-3.236h-12.697v-2.494h12.696v2.494zm-6.389-39.121c8.149 0 14.755 6.606 14.755 14.755 0 2.644-.659 5.213-1.977 7.416 0 .075-.075.074-.075.149s-.074.075-.074.15c-.435.809-1.026 1.618-1.686 2.277-.075.075-.15.075-.15.15-1.835 2.569-3.888 6.015-4.33 9.026h-12.845c-.367-2.42-1.767-5.356-4.187-8.808l-.149-.15c-.734-.809-1.4-1.692-1.985-2.644v-.074c-1.319-2.277-2.053-4.847-2.053-7.491 0-8.15 6.607-14.756 14.756-14.756z"/><path d="m31.014 30.717h3.153c.734 0 1.319-.584 1.319-1.318s-.584-1.319-1.319-1.319h-3.153c-.734 0-1.318.584-1.318 1.319 0 .734.584 1.318 1.318 1.318z"/><path d="m33.95 17.144 2.719 1.617c.218.15.442.15.66.15.442 0 .951-.217 1.175-.659.361-.666.143-1.475-.516-1.842l-2.719-1.618c-.659-.367-1.468-.149-1.835.517-.367.659-.15 1.468.516 1.835z"/><path d="m69.02 9.228c.217.075.442.15.659.15.442 0 .958-.218 1.176-.66l1.618-2.718c.367-.66.142-1.468-.517-1.836-.66-.367-1.468-.142-1.835.517l-1.618 2.719c-.367.666-.149 1.468.517 1.828z"/><path d="m57.785 6.231c.734 0 1.318-.584 1.318-1.318v-3.154c0-.734-.584-1.318-1.317-1.319h-.002c-.733.001-1.317.585-1.317 1.319v3.153c-.075.728.509 1.319 1.318 1.319z"/><path d="m44.722 8.726c.217.442.733.659 1.175.659.218 0 .442-.075.66-.15.659-.367.883-1.175.516-1.835l-1.618-2.719c-.366-.659-1.175-.883-1.835-.516-.658.367-.883 1.176-.515 1.835z"/></g></svg>