<svg enable-background="new 0 0 113.386 85.04" height="85.04" viewBox="0 0 113.386 85.04" width="113.386" xmlns="http://www.w3.org/2000/svg"><g fill="#fff"><path d="m51.326 74.121c-.255-.624-.54-1.241-.848-1.836-2.015-3.894-4.782-6.491-7.459-9.003-.754-.708-1.715-1.815-2.732-2.988-1.485-1.71-3.02-3.479-4.052-4.154-.935-.612-1.699-.628-2.271-.05-.834.842-.589 2.414.798 5.092.926 1.791 2.269 3.9 3.693 6.133.229.359.46.723.694 1.09-2.52-2.755-4.37-5.261-5.509-7.461-1.308-2.526-1.573-4.477-.748-5.496.582-.719 1.691-.897 3.122-.503l.212.059-.051-.215c-.027-.111-2.67-11.125-3.229-13.21-.123-.459-.293-.903-.508-1.317-.77-1.488-1.987-2.391-2.894-2.148-.438.117-1.159.616-1.064 2.63l1.377 17.387c.071.568.12 1.162.173 1.793.16 1.927.327 3.919 1.115 5.441.328.634.708 1.207 1.162 1.75.817.979 3.087 3.342 5.493 5.843 2.34 2.436 4.761 4.954 5.645 6.006.693.825 1.293 1.734 1.835 2.78.435.843.802 1.712 1.129 2.601h8.46l-.127-.431c-1.018-3.454-2.136-6.657-3.416-9.793z"/><path d="m83.537 38.115c-.907-.243-2.124.66-2.894 2.149-.215.414-.386.857-.508 1.317-.559 2.085-3.203 13.099-3.229 13.21l-.051.214.212-.058c1.43-.395 2.539-.216 3.122.502.825 1.018.559 2.969-.749 5.495-1.139 2.2-2.989 4.706-5.509 7.462.235-.368.466-.733.695-1.091 1.423-2.233 2.766-4.342 3.692-6.132 1.387-2.679 1.633-4.249.799-5.093-.573-.578-1.337-.561-2.271.05-1.032.675-2.567 2.444-4.052 4.155-1.017 1.172-1.978 2.279-2.732 2.987-2.677 2.513-5.444 5.11-7.459 9.005-.308.594-.593 1.211-.848 1.835-1.281 3.136-2.398 6.339-3.414 9.793l-.127.432h8.461c.327-.89.692-1.759 1.128-2.601.541-1.046 1.142-1.956 1.835-2.781.884-1.052 3.304-3.57 5.645-6.005 2.405-2.501 4.676-4.865 5.493-5.843.454-.543.833-1.116 1.161-1.75.789-1.523.955-3.515 1.116-5.441.053-.63.102-1.225.173-1.793l1.353-17.091v-1.254c-.137-1.224-.684-1.576-1.042-1.673z"/><path d="m83.631 27.827h-3.154c-.734 0-1.318.585-1.318 1.319s.584 1.318 1.318 1.318h3.154c.734 0 1.318-.584 1.318-1.317v-.002c0-.734-.584-1.318-1.318-1.318z"/><path d="m77.311 18.651c.217 0 .442-.075.659-.15l2.719-1.618c.666-.36.884-1.169.517-1.828s-1.176-.883-1.836-.517l-2.718 1.618c-.66.367-.884 1.176-.517 1.835.217.443.734.66 1.176.66z"/><path d="m41.649 38.104c.584 1.101 1.393 2.053 2.202 2.936 2.42 3.521 3.745 6.532 3.67 8.442v6.973c0 2.712 2.202 4.989 4.989 4.989h8.142c2.712 0 4.989-2.202 4.989-4.989v-6.315c0-.217-.075-.435-.075-.584v-.075c-.068-1.978 1.251-5.063 3.82-8.659.733-.733 1.325-1.611 1.909-2.494l.15-.218c.142-.15.217-.299.292-.517 1.468-2.644 2.277-5.58 2.277-8.591 0-9.617-7.857-17.467-17.467-17.392-9.61 0-17.467 7.851-17.467 17.468 0 3.004.809 6.015 2.351 8.659.068.149.143.216.218.367zm21.28 18.5c-.143 1.176-1.101 2.053-2.27 2.053h-8.149c-1.176 0-2.128-.877-2.277-2.053v-.516h12.696zm0-3.236h-12.696v-2.494h12.696zm-6.389-39.121c8.149 0 14.755 6.606 14.755 14.755 0 2.644-.659 5.213-1.977 7.416 0 .075-.075.074-.075.149s-.074.075-.074.15c-.435.809-1.026 1.618-1.686 2.277-.075.075-.15.075-.15.15-1.835 2.569-3.888 6.015-4.33 9.026h-12.845c-.367-2.42-1.767-5.356-4.187-8.808l-.149-.15c-.734-.809-1.4-1.692-1.985-2.644v-.074c-1.319-2.277-2.053-4.847-2.053-7.49.001-8.151 6.607-14.757 14.756-14.757z"/><path d="m29.755 30.464h3.153c.734 0 1.319-.584 1.319-1.318s-.584-1.319-1.319-1.319h-3.153c-.734 0-1.318.584-1.318 1.319-.001.734.584 1.318 1.318 1.318z"/><path d="m32.691 16.891 2.719 1.617c.218.15.442.15.66.15.442 0 .951-.217 1.175-.659.361-.666.143-1.475-.516-1.842l-2.719-1.618c-.659-.367-1.468-.149-1.835.517-.368.659-.15 1.468.516 1.835z"/><path d="m67.76 8.975c.217.075.442.15.659.15.442 0 .958-.218 1.176-.66l1.618-2.718c.367-.66.142-1.468-.517-1.836-.66-.367-1.468-.142-1.835.517l-1.617 2.719c-.367.666-.15 1.468.516 1.828z"/><path d="m56.526 5.978c.734 0 1.318-.584 1.318-1.318v-3.154c0-.734-.584-1.318-1.317-1.319h-.002c-.733.001-1.317.585-1.317 1.319v3.153c-.076.728.508 1.319 1.318 1.319z"/><path d="m43.462 8.472c.217.442.733.659 1.175.659.218 0 .442-.075.66-.15.659-.367.883-1.175.516-1.835l-1.618-2.719c-.366-.659-1.175-.883-1.835-.516-.659.367-.883 1.175-.516 1.835z"/></g></svg>