<svg enable-background="new 0 0 85.04 85.04" height="85.04" viewBox="0 0 85.04 85.04" width="85.04" xmlns="http://www.w3.org/2000/svg"><g fill="#4bbab5"><path d="m47.233 6.693-3.352-.025-1.064-3.184c-.068-.206-.248-.309-.428-.309h-.001c-.18 0-.36.103-.428.309l-1.06 3.184-3.356.025c-.433.004-.612.559-.265.817l2.7 1.991-1.014 3.198c-.129.412.34.756.695.501l2.729-1.948 2.725 1.948c.355.254.827-.089.695-.501l-1.007-3.199 2.697-1.991c.35-.258.168-.813-.266-.816z"/><path d="m47.233 74.998-3.352-.025-1.064-3.184c-.136-.412-.72-.412-.856 0l-1.06 3.184-3.356.025c-.433.004-.612.559-.265.817l2.7 1.991-1.014 3.198c-.129.412.34.756.695.501l2.729-1.948 2.725 1.948c.355.254.827-.09.695-.501l-1.01-3.198 2.697-1.991c.352-.259.17-.814-.264-.817z"/><path d="m81.386 40.845-3.352-.025-1.064-3.184c-.136-.412-.72-.412-.856 0l-1.06 3.184-3.356.025c-.433.004-.612.559-.265.817l2.7 1.991-1.014 3.198c-.129.412.34.756.695.501l2.729-1.948 2.725 1.948c.355.254.827-.09.695-.501l-1.01-3.198 2.697-1.991c.352-.258.169-.813-.264-.817z"/><path d="m10.965 47.354c.355.254.824-.09.695-.505l-1.014-3.195 2.697-1.995c.351-.258.172-.809-.261-.813l-3.356-.029-1.06-3.18c-.136-.412-.72-.412-.856 0l-1.064 3.18-3.352.029c-.433.004-.616.555-.265.813l2.697 1.995-1.01 3.195c-.132.415.34.759.691.505l2.729-1.948z"/><path d="m18.208 23.01-3.352-.025-1.064-3.184c-.136-.412-.72-.412-.856 0l-1.06 3.184-3.356.025c-.433.004-.612.559-.265.817l2.7 1.991-1.014 3.198c-.129.412.34.756.695.501l2.729-1.948 2.725 1.948c.355.254.827-.09.695-.501l-1.01-3.198 2.697-1.991c.352-.258.169-.813-.264-.817z"/><path d="m77.361 57.162-3.352-.025-1.064-3.184c-.136-.412-.72-.412-.856 0l-1.06 3.184-3.356.025c-.433.004-.612.559-.265.817l2.7 1.991-1.014 3.198c-.129.412.34.756.695.501l2.729-1.948 2.729 1.948c.351.254.824-.09.691-.501l-1.01-3.198 2.697-1.991c.352-.258.169-.813-.264-.817z"/><path d="m64.861 10.51-3.352-.025-1.064-3.184c-.136-.412-.72-.412-.856 0l-1.06 3.184-3.356.025c-.433.004-.612.555-.265.817l2.7 1.991-1.014 3.198c-.129.412.34.756.695.501l2.729-1.948 2.729 1.948c.351.254.824-.09.691-.501l-1.01-3.198 2.697-1.991c.352-.262.169-.813-.264-.817z"/><path d="m30.708 69.664-3.352-.025-1.064-3.184c-.136-.412-.72-.412-.856 0l-1.06 3.184-3.356.025c-.433.004-.612.559-.265.817l2.7 1.991-1.014 3.198c-.129.412.34.756.695.501l2.729-1.948 2.725 1.948c.355.254.827-.09.695-.501l-1.01-3.198 2.697-1.991c.352-.258.169-.814-.264-.817z"/><path d="m70.108 25.817-1.01 3.198c-.133.415.34.756.691.505l2.729-1.952 2.729 1.952c.351.251.824-.09.691-.505l-1.01-3.198 2.697-1.991c.351-.258.168-.813-.265-.817l-3.352-.025-1.06-3.18c-.14-.412-.72-.412-.86 0l-1.06 3.18-3.352.025c-.433.004-.616.559-.265.817z"/><path d="m18.207 57.162-3.352-.025-1.064-3.184c-.136-.412-.72-.412-.856 0l-1.06 3.184-3.355.025c-.433.004-.612.559-.265.817l2.7 1.991-1.014 3.198c-.129.412.34.756.695.501l2.729-1.948 2.725 1.948c.355.254.827-.09.695-.501l-1.01-3.198 2.697-1.991c.351-.258.169-.813-.265-.817z"/><path d="m23.454 13.317-1.01 3.198c-.132.412.34.756.691.505l2.729-1.952 2.729 1.952c.351.251.824-.093.691-.505l-1.01-3.198 2.697-1.991c.351-.258.168-.813-.265-.817l-3.352-.025-1.06-3.184c-.14-.408-.72-.408-.86 0l-1.06 3.184-3.352.025c-.437.004-.616.559-.265.817z"/><path d="m64.861 69.664-3.352-.025-1.064-3.184c-.136-.412-.72-.412-.856 0l-1.06 3.184-3.356.025c-.433.004-.612.559-.265.817l2.7 1.991-1.014 3.198c-.129.412.34.756.695.501l2.729-1.948 2.729 1.948c.351.254.824-.09.691-.501l-1.01-3.198 2.697-1.991c.352-.258.169-.814-.264-.817z"/></g></svg>