<svg enable-background="new 0 0 85.04 85.04" height="85.04" viewBox="0 0 85.04 85.04" width="85.04" xmlns="http://www.w3.org/2000/svg"><g fill="#4bbab5"><path d="m38.852 18.406h-4.481l-8.302 9.896.726 3.184h7.755v3.063h4.302v-3.063h2.045v-3.366h-2.045zm-4.302 9.736h-3.821l3.821-4.606z"/><path d="m53.87 19.333c-1.133-.753-2.436-1.129-3.908-1.129-1.108 0-2.132.222-3.072.665s-1.724 1.043-2.352 1.8c-.628.756-1.119 1.64-1.472 2.65s-.53 2.081-.53 3.214v.045c0 1.521.292 2.905.875 4.153.584 1.249 1.442 2.251 2.576 3.008s2.44 1.135 3.919 1.135c1.115 0 2.142-.222 3.083-.665.94-.443 1.724-1.044 2.353-1.8.628-.756 1.117-1.642 1.466-2.655.349-1.014.524-2.087.524-3.22v-.045c0-1.52-.294-2.905-.881-4.153-.587-1.25-1.447-2.25-2.581-3.003zm-.975 7.25c0 1.28-.267 2.324-.8 3.132-.534.808-1.244 1.211-2.133 1.211-.888 0-1.608-.409-2.161-1.228-.552-.819-.828-1.872-.828-3.16v-.045c0-1.288.269-2.334.806-3.138s1.246-1.206 2.127-1.206 1.599.413 2.155 1.239.834 1.876.834 3.149z"/><path d="m52.195 54.707c1.552-2.591 3.834-3.922 6.855-3.958 3.025-.035 4.546-1.57 4.599-4.595.031-3.02 1.344-5.285 3.936-6.841 2.609-1.534 3.162-3.626 1.694-6.271-1.486-2.623-1.486-5.267 0-7.894 1.468-2.64.915-4.714-1.694-6.271-2.591-1.552-3.905-3.816-3.936-6.859-.053-3.003-1.575-4.542-4.599-4.577-3.02-.049-5.302-1.362-6.855-3.954-1.539-2.609-3.631-3.162-6.253-1.676-2.645 1.468-5.271 1.468-7.912 0-2.627-1.486-4.719-.933-6.271 1.676-1.539 2.591-3.821 3.905-6.841 3.954-3.007.035-4.546 1.574-4.595 4.577-.035 3.043-1.349 5.307-3.94 6.859-2.609 1.557-3.18 3.631-1.694 6.271 1.486 2.627 1.486 5.271 0 7.894-1.486 2.645-.915 4.736 1.694 6.271 2.592 1.557 3.905 3.821 3.94 6.841.049 3.025 1.588 4.56 4.595 4.595 3.021.035 5.302 1.367 6.855 3.958 1.539 2.592 3.631 3.162 6.258 1.676 2.64-1.451 5.267-1.451 7.912 0 2.622 1.486 4.713.916 6.252-1.676zm-10.209-1.674c-13.221 0-23.938-10.718-23.938-23.938 0-13.221 10.717-23.938 23.938-23.938s23.938 10.717 23.938 23.938c.001 13.221-10.717 23.938-23.938 23.938z"/><path d="m24.634 53.281c-3.176 0-3.605-1.481-3.605-1.481l-12.39 24.315 9.939-1.12 5.487 8.248s11.458-23.83 11.458-23.676c-5.937-.154-3.573-6.132-10.889-6.286z"/><path d="m53.502 57.653c-2.377 2.533-5.34 2.034-5.34 2.034l13.951 24.029 3.426-8.892 9.767 1.275-12.54-23.394c-9.022.949-7.196 3.191-9.264 4.948z"/><path d="m42.824 36.819-1.731 3.742h.288l.472-1.039h2.192l.472 1.039h.303l-1.731-3.742zm-.855 2.452.982-2.148.977 2.148z"/><path d="m46.926 36.283c.047 0 .098.012.154.037.056.024.115.051.177.079s.123.054.183.077c.06.024.114.035.164.035.105 0 .193-.036.264-.107s.131-.208.181-.408l-.181-.049c-.038.107-.076.18-.113.219s-.088.058-.152.058c-.047 0-.098-.012-.154-.037-.056-.024-.115-.051-.178-.079-.062-.028-.123-.054-.183-.078-.06-.023-.115-.035-.165-.035-.107 0-.196.036-.266.107-.07.072-.13.208-.18.408l.179.048c.04-.107.078-.18.115-.218.04-.038.091-.057.155-.057z"/><path d="m48.545 40.079-2.565-3.233h-.259v3.716h.264v-3.302l2.617 3.302h.207v-3.716h-.264z"/><path d="m53.509 37.966c-.088-.231-.214-.433-.377-.608s-.36-.314-.59-.419c-.23-.104-.485-.157-.764-.157-.282 0-.538.052-.768.157-.231.105-.427.245-.59.421-.162.176-.289.381-.378.613-.09.232-.135.476-.135.729v.01c0 .256.044.498.132.728s.213.432.376.608c.162.175.357.315.586.42.228.104.484.157.767.157.28 0 .535-.052.767-.157.232-.104.429-.245.592-.423.163-.177.29-.382.38-.614s.135-.476.135-.729c.002-.002.002-.004.002-.005 0-.002-.001-.004-.002-.005-.001-.253-.045-.495-.133-.726zm-.153.748c0 .23-.039.446-.116.648-.078.202-.187.378-.327.529-.14.15-.307.269-.5.355s-.405.13-.635.13-.442-.044-.636-.132c-.195-.088-.362-.208-.502-.358s-.249-.327-.329-.531c-.079-.204-.119-.421-.119-.651v-.01c0-.23.039-.445.116-.647.078-.201.187-.377.326-.529.14-.151.306-.27.499-.356.193-.087.404-.13.634-.13s.442.044.637.132.363.208.502.359c.14.151.25.328.329.531s.119.419.119.649v.011z"/><path d="m55.922 38.566c-.22-.047-.4-.096-.54-.149-.141-.053-.251-.112-.332-.177-.08-.066-.135-.138-.165-.218-.029-.079-.044-.168-.044-.267v-.011c0-.097.021-.187.063-.272s.103-.159.183-.223c.079-.064.175-.114.286-.152.112-.037.236-.056.375-.056.205 0 .398.032.577.096s.356.172.532.324l.174-.218c-.186-.152-.378-.265-.574-.339s-.429-.112-.698-.112c-.173 0-.332.024-.477.074-.145.049-.271.118-.377.208-.106.089-.19.192-.25.311-.06.118-.091.247-.091.385v.01c0 .142.023.267.069.377s.119.206.22.289.232.155.391.216c.16.061.351.115.574.162.211.043.383.09.518.141s.242.109.321.172c.079.064.134.135.165.212.03.078.045.166.045.264v.013c0 .105-.023.203-.069.293s-.109.168-.19.233c-.081.066-.18.117-.297.154-.116.037-.244.056-.382.056s-.266-.011-.383-.034c-.117-.022-.229-.056-.334-.101s-.209-.102-.311-.171-.204-.151-.306-.246l-.179.207c.223.199.454.347.692.446.238.098.506.148.803.148.18 0 .345-.025.496-.074s.281-.118.389-.206.193-.195.255-.322c.062-.126.093-.263.093-.412v-.01c0-.271-.096-.488-.288-.649-.19-.159-.502-.284-.934-.372z"/></g></svg>