<svg enable-background="new 0 0 113.386 85.04" height="85.04" viewBox="0 0 113.386 85.04" width="113.386" xmlns="http://www.w3.org/2000/svg"><path d="m107.732 66.834c-1.205.481-2.371.725-3.464.725-1.231 0-2.386-.293-3.53-.897-6.948-3.664-11.036-17.759-14.99-31.391l-.136.04.126-.074c-3.843-13.254-7.473-25.774-13.644-27.573-2.553-.746-5.247.325-8.285 3.3-4.305 4.405-8.308 13.83-12.18 22.945l-.014.034c-4.603 10.847-9.363 22.062-13.875 22.519-3.006.318-6.166-4.077-9.52-8.755-4.168-5.813-9.356-13.047-16.164-13.047-.066 0-.133 0-.202.002-1.597.057-5.417.685-6.395 5.281l-.099.473.34-.344c2.335-2.365 4.483-3.288 6.606-2.832 5.62 1.206 10.208 12.208 14.257 21.919 4.128 9.898 7.693 18.446 12.3 18.446.102 0 .205-.004.311-.014 6.523-.542 8.91-9.81 11.677-20.55 1.949-7.564 4.158-16.137 8.144-22.243 3.535-5.181 6.667-7.557 9.589-7.3 5.252.47 9.456 9.44 13.911 18.943l.152.327c4.696 10.023 9.553 20.387 16.574 22.608.772.244 1.565.368 2.356.368 3.647 0 6.2-2.569 6.308-2.679l.468-.479zm-23.799-23.714c-4.437-10.635-8.626-20.68-14.549-21.453-.246-.032-.497-.049-.745-.049-2.896 0-5.893 2.186-9.162 6.681-1.709 2.347-3.149 5.15-4.424 8.206 1.979-5.175 4.148-9.902 6.768-13.177 3.069-3.836 5.745-5.479 8.212-5.032 5.315.954 9.213 11.476 13.34 22.619 1.061 2.862 2.139 5.769 3.264 8.575-.922-2.102-1.818-4.25-2.704-6.37zm1.111-5.338c-4.058-12.35-7.89-24.015-13.935-25.409-2.723-.626-5.569.796-8.746 4.37-4.299 4.836-7.808 13.944-11.204 22.761-4.253 11.04-8.27 21.467-13.082 21.928-.09.009-.182.014-.272.014-3.145 0-6.343-5.284-9.729-10.879-1.45-2.397-3.025-5-4.729-7.37 1.365 1.68 2.662 3.489 3.933 5.263l.027.038c3.696 5.154 6.876 9.574 10.548 9.207 5.196-.525 9.881-11.563 14.843-23.256 3.829-9.018 7.788-18.343 11.926-22.577 2.704-2.646 5.028-3.621 7.156-3.003 5.547 1.617 9.084 13.817 12.834 26.75.758 2.614 1.526 5.266 2.325 7.87-.643-1.898-1.273-3.814-1.895-5.707zm-57.962 13.459c3.844 6.353 7.148 11.814 11.103 11.435 5.528-.53 9.677-11.3 14.072-22.709 3.354-8.704 6.821-17.704 10.968-22.371 2.871-3.229 5.349-4.535 7.633-4.004 5.397 1.245 9.123 12.584 13.076 24.618.839 2.554 1.689 5.145 2.57 7.68-.69-1.808-1.365-3.634-2.033-5.438-4.25-11.474-8.265-22.312-14.238-23.385-2.922-.519-5.954 1.254-9.314 5.456-4.232 5.287-7.259 14.061-10.187 22.546l-.014.039c-3.695 10.713-7.185 20.833-12.305 21.298-3.459.316-6.868-6.181-10.48-13.063-.988-1.882-2.044-3.895-3.161-5.858.807 1.273 1.579 2.549 2.31 3.756zm-.183 2.706.039.073c3.842 7.32 7.16 13.642 11.226 13.643.117 0 .233-.005.352-.016 5.873-.535 9.488-11.019 13.317-22.124.028-.083.057-.166.085-.248-.593 1.868-1.163 3.758-1.729 5.633-3.105 10.284-6.038 19.999-11.439 20.467-3.674.349-7.213-7.276-10.958-15.342-.541-1.166-1.089-2.345-1.645-3.519.255.488.506.966.752 1.433zm11.617 18.688c.109 0 .22-.004.331-.015 5.375-.468 8.276-7.796 11.153-17.023-.098.378-.194.753-.291 1.127-2.646 10.276-4.933 19.151-10.627 19.624-3.935.319-7.571-8.427-11.438-17.7-.123-.293-.246-.589-.369-.884 3.771 8.1 7.104 14.871 11.241 14.871zm21.898-43.575c3.271-4.496 6.147-6.508 8.827-6.156 5.254.688 9.313 10.417 13.612 20.719 1.103 2.641 2.222 5.322 3.388 7.91-.913-1.863-1.805-3.765-2.686-5.644-4.604-9.826-8.952-19.107-14.868-19.634-.177-.016-.356-.024-.533-.024-3.208 0-6.519 2.566-10.123 7.848-1.053 1.614-1.984 3.385-2.818 5.256 1.466-3.881 3.138-7.44 5.201-10.275z" fill="#fff"/></svg>