<svg enable-background="new 0 0 113.386 85.04" height="85.04" viewBox="0 0 113.386 85.04" width="113.386" xmlns="http://www.w3.org/2000/svg"><g fill="#4bbab5"><path d="m-94.131 109.38 2.994-3.619-5.139-5.154-3.613 3.011c-1.668-1.043-3.516-1.822-5.486-2.278l-.433-4.685h-7.265l-.434 4.699c-1.965.46-3.806 1.243-5.467 2.29l-3.626-3.02-5.137 5.156 3.017 3.645c-1.036 1.667-1.811 3.514-2.264 5.483l-4.69.436v7.266l4.69.436c.453 1.97 1.228 3.816 2.264 5.483l-3.017 3.645 5.137 5.156 3.626-3.02c1.661 1.047 3.502 1.829 5.467 2.29l.434 4.699h7.265l.433-4.685c1.97-.455 3.818-1.235 5.486-2.278l3.613 3.011 5.139-5.154-2.994-3.619c1.047-1.672 1.831-3.528 2.288-5.506l4.662-.434v-7.314l-4.662-.435c-.457-1.977-1.24-3.833-2.288-5.505zm-15.296 17.038c-4.088 0-7.416-3.338-7.416-7.44s3.327-7.44 7.416-7.44c4.088 0 7.415 3.338 7.415 7.44s-3.327 7.44-7.415 7.44z"/><path d="m-129.486 97.05.034-.001c.949-.029 1.883-.213 2.777-.549 4.49-1.689 6.779-6.742 5.106-11.254l-6.91-13.437c-.393-.76-1.623-.761-2.016 0l-6.848 13.294-.058.131c-1.676 4.523.614 9.575 5.104 11.265.893.335 1.827.519 2.733.546zm-6.736-11.358 6.736-13.076 6.729 13.061c1.434 3.868-.522 8.19-4.361 9.633-.749.281-1.53.438-2.365.47v-.001c-.81-.025-1.608-.183-2.371-.468-3.838-1.443-5.795-5.765-4.368-9.619z"/><path d="m-82.268 85.232-6.905-13.424c-.394-.758-1.621-.76-2.017.002l-6.841 13.282-.064.144c-1.676 4.522.613 9.575 5.103 11.265.893.335 1.827.519 2.732.546l.079.004.035-.001c.948-.029 1.882-.213 2.777-.549 4.491-1.69 6.78-6.743 5.101-11.269zm-5.545 10.079c-.748.281-1.529.438-2.364.47v-.001c-.811-.025-1.608-.183-2.371-.468-3.84-1.445-5.795-5.767-4.368-9.62l6.735-13.076 6.729 13.062c1.434 3.868-.523 8.19-4.361 9.633z"/><path d="m-112.19 84.123c.891.334 1.825.519 2.811.549h.026.01c.951-.03 1.885-.215 2.776-.549 4.49-1.688 6.78-6.742 5.101-11.268l-6.905-13.422c-.392-.761-1.625-.758-2.016 0l-6.845 13.288-.061.138c-1.677 4.521.612 9.574 5.103 11.264zm-3.925-10.808 6.736-13.076 6.729 13.061c1.434 3.868-.523 8.19-4.361 9.634-.76.285-1.556.443-2.368.469-.811-.026-1.608-.184-2.368-.468-3.839-1.445-5.795-5.767-4.368-9.62z"/><path d="m-89.251-18.362 5.712-6.902-9.802-9.831-6.892 5.744c-3.181-1.99-6.705-3.476-10.463-4.345l-.825-8.935h-13.858l-.828 8.963c-3.748.878-7.259 2.371-10.427 4.368l-6.916-5.76-9.798 9.834 5.754 6.952c-1.976 3.179-3.454 6.702-4.319 10.458l-8.946.831v13.859l8.946.831c.865 3.757 2.343 7.279 4.319 10.458l-5.754 6.952 9.798 9.834 6.916-5.76c3.168 1.997 6.679 3.489 10.427 4.368l.828 8.962h13.858l.825-8.935c3.758-.869 7.282-2.355 10.463-4.345l6.892 5.743 9.802-9.83-5.712-6.903c1.997-3.189 3.492-6.729 4.363-10.502l8.892-.828v-13.95l-8.892-.829c-.871-3.773-2.366-7.313-4.363-10.502zm-29.176 32.498c-7.798 0-14.144-6.367-14.144-14.191s6.347-14.191 14.144-14.191 14.143 6.367 14.143 14.191c0 7.823-6.345 14.191-14.143 14.191z"/><path d="m-156.687-41.88.066-.002c1.81-.055 3.592-.407 5.297-1.047 8.565-3.221 12.93-12.859 9.74-21.465l-13.18-25.628c-.749-1.45-3.096-1.451-3.846.001l-13.062 25.357-.111.251c-3.196 8.626 1.171 18.264 9.735 21.486 1.703.639 3.485.991 5.213 1.041zm-12.848-21.664 12.848-24.94 12.835 24.912c2.734 7.378-.996 15.622-8.317 18.374-1.428.537-2.918.836-4.51.897v-.002c-1.546-.047-3.068-.348-4.523-.893-7.321-2.754-11.054-10.997-8.333-18.348z"/><path d="m-66.624-64.422-13.171-25.604c-.751-1.446-3.092-1.45-3.847.004l-13.048 25.333-.123.274c-3.197 8.625 1.17 18.263 9.734 21.486 1.703.639 3.485.991 5.211 1.041l.151.007.067-.002c1.809-.055 3.59-.407 5.297-1.047 8.564-3.221 12.931-12.859 9.729-21.492zm-10.577 19.225c-1.427.537-2.917.836-4.509.897v-.002c-1.547-.047-3.068-.348-4.523-.893-7.323-2.756-11.054-10.999-8.332-18.349l12.847-24.941 12.835 24.914c2.735 7.378-.997 15.621-8.318 18.374z"/><path d="m-123.697-66.537c1.699.637 3.481.989 5.362 1.047h.049l.019-.001c1.814-.057 3.596-.409 5.295-1.048 8.565-3.22 12.931-12.859 9.73-21.492l-13.17-25.601c-.748-1.451-3.1-1.446-3.845.001l-13.057 25.345-.117.263c-3.198 8.624 1.168 18.262 9.734 21.486zm-7.486-20.615 12.848-24.94 12.834 24.912c2.736 7.378-.997 15.621-8.318 18.375-1.449.544-2.968.845-4.516.894-1.548-.049-3.067-.35-4.516-.893-7.323-2.756-11.054-10.999-8.332-18.348z"/><path d="m99.479 66.128c-6.815-3.594-10.801-17.346-14.658-30.645-3.729-12.862-7.25-25.013-13.183-26.742-2.426-.708-5.016.33-7.922 3.175-4.176 4.271-8.068 13.443-11.834 22.313-4.496 10.589-9.143 21.539-13.612 21.991-3.012.323-6.114-4.008-9.388-8.575-4.186-5.838-9.157-12.769-15.804-12.633-1.552.056-5.163.665-6.091 5.029 2.303-2.331 4.45-3.243 6.554-2.793 5.537 1.188 10.015 11.926 13.966 21.401 3.992 9.571 7.45 17.866 11.841 17.866.096 0 .192-.004.291-.012 6.247-.519 8.559-9.491 11.236-19.88 1.9-7.373 4.052-15.727 7.945-21.692 3.464-5.077 6.556-7.422 9.455-7.161 5.19.464 9.297 9.228 13.646 18.508 4.605 9.827 9.342 20.075 16.189 22.239 4.695 1.484 8.286-2.21 8.289-2.213-2.525 1.006-4.789.949-6.92-.176zm-71.289-17.909c3.573 4.984 6.653 9.292 10.163 8.937 4.973-.503 9.516-11.206 14.324-22.535 3.73-8.788 7.588-17.875 11.634-22.015 2.66-2.604 4.983-3.57 7.098-2.956 5.47 1.595 8.922 13.506 12.579 26.117 1.749 6.034 3.527 12.157 5.594 17.422-1.959-4.647-3.711-9.978-5.439-15.236-3.934-11.976-7.65-23.289-13.456-24.628-2.588-.596-5.328.781-8.375 4.209-4.166 4.687-7.576 13.541-10.874 22.102-4.153 10.78-8.077 20.964-12.842 21.42-3.229.32-6.454-5.006-9.861-10.636-2.244-3.706-4.662-7.692-7.404-10.642 2.49 2.351 4.73 5.47 6.859 8.441zm-.187 2.714c3.708 6.128 6.919 11.417 10.67 11.059 5.293-.508 9.315-10.947 13.572-21.998 3.268-8.481 6.646-17.252 10.699-21.812 2.821-3.172 5.291-4.463 7.559-3.939 5.328 1.229 8.964 12.301 12.814 24.023 1.932 5.883 3.894 11.859 6.162 16.908-2.113-4.412-4.018-9.548-5.891-14.61-4.122-11.128-8.014-21.64-13.749-22.669-2.776-.497-5.699 1.22-8.93 5.257-4.107 5.132-7.051 13.671-9.899 21.926-3.61 10.467-7.021 20.357-12.091 20.818-3.447.312-6.795-6.046-10.331-12.782-1.919-3.655-3.963-7.542-6.224-10.725 2.025 2.58 3.887 5.648 5.639 8.544zm-.174 2.639c3.836 7.309 7.132 13.617 11.166 13.256 5.624-.512 9.127-10.671 12.836-21.427 2.821-8.178 5.738-16.635 9.743-21.639 3.013-3.767 5.673-5.385 8.121-4.945 5.249.943 9.055 11.217 13.083 22.092 2.222 5.994 4.483 12.084 7.106 17.011-2.455-4.322-4.654-9.585-6.818-14.765-4.3-10.308-8.366-20.046-14.044-20.787-2.977-.393-6.095 1.701-9.51 6.396-4.08 5.606-6.589 13.916-9.015 21.952-3.035 10.053-5.902 19.549-11.249 20.013-3.671.337-7.139-7.124-10.799-15.005-1.538-3.312-3.097-6.662-4.743-9.644 1.446 2.4 2.814 5 4.123 7.492zm54.873-7.717c-4.462-9.522-8.677-18.516-14.353-19.023-3.22-.289-6.574 2.179-10.238 7.55-3.986 6.106-6.159 14.544-8.078 21.989-2.588 10.049-4.826 18.727-10.461 19.195-3.913.325-7.485-8.236-11.266-17.303-1.155-2.77-2.322-5.566-3.529-8.194.996 2.005 1.958 4.07 2.888 6.076 3.864 8.32 7.213 15.536 11.344 15.535.102 0 .205-.004.31-.013 5.928-.516 8.747-9.85 12.011-20.661 2.402-7.958 4.888-16.188 8.871-21.662 3.212-4.414 6.067-6.39 8.716-6.044 5.188.679 9.155 10.179 13.353 20.24 2.398 5.744 4.841 11.578 7.651 16.186-2.588-3.999-4.925-8.975-7.219-13.871z"/></g></svg>