<?xml version="1.0" encoding="utf-8"?>
<!-- Generator: Adobe Illustrator 17.0.0, SVG Export Plug-In . SVG Version: 6.00 Build 0)  -->
<!DOCTYPE svg PUBLIC "-//W3C//DTD SVG 1.1//EN" "http://www.w3.org/Graphics/SVG/1.1/DTD/svg11.dtd">
<svg version="1.1" id="Layer_1" xmlns="http://www.w3.org/2000/svg" xmlns:xlink="http://www.w3.org/1999/xlink" x="0px" y="0px"
	 width="100px" height="100px" viewBox="0 0 100 100" enable-background="new 0 0 100 100" xml:space="preserve">
<g>
	<defs>
		<rect id="SVGID_1_" x="19.507" y="19.309" width="60.889" height="61.381"/>
	</defs>
	<clipPath id="SVGID_2_">
		<use xlink:href="#SVGID_1_"  overflow="visible"/>
	</clipPath>
	<path clip-path="url(#SVGID_2_)" fill="#4bbab5" d="M21.628,37.861c1.167,0,2.118-0.957,2.118-2.138v-9.115l13.66,13.765
		c0.413,0.42,0.957,0.63,1.502,0.63c0.538,0,1.082-0.21,1.495-0.63c0.833-0.833,0.833-2.19,0-3.023L26.749,23.584h9.043
		c1.167,0,2.118-0.957,2.118-2.138c0-1.18-0.951-2.138-2.118-2.138H21.628c-1.167,0-2.118,0.957-2.118,2.138v14.276
		C19.509,36.903,20.46,37.861,21.628,37.861"/>
	<path clip-path="url(#SVGID_2_)" fill="#4bbab5" d="M78.275,62.139c-1.174,0-2.118,0.957-2.118,2.138v9.115l-14.08-14.191
		c-0.833-0.839-2.171-0.839-3.003,0c-0.826,0.833-0.826,2.184,0,3.023l14.08,14.191H64.11c-1.167,0-2.118,0.957-2.118,2.138
		c0,1.18,0.951,2.138,2.118,2.138h14.165c1.174,0,2.118-0.957,2.118-2.138V64.277C80.394,63.097,79.449,62.139,78.275,62.139"/>
	<path clip-path="url(#SVGID_2_)" fill="#4bbab5" d="M37.826,59.2l-14.08,14.191v-9.115c0-1.18-0.944-2.138-2.118-2.138
		c-1.167,0-2.118,0.957-2.118,2.138v14.276c0,1.18,0.951,2.138,2.118,2.138h14.158c1.174,0,2.125-0.957,2.125-2.138
		c0-1.18-0.951-2.138-2.125-2.138H26.75l14.073-14.191c0.833-0.833,0.833-2.19,0-3.023C39.997,58.367,38.652,58.367,37.826,59.2"/>
	<path clip-path="url(#SVGID_2_)" fill="#4bbab5" d="M78.275,19.308H64.11c-1.167,0-2.118,0.957-2.118,2.138
		c0,1.18,0.951,2.138,2.118,2.138h9.043L59.5,37.349c-0.826,0.839-0.826,2.19,0,3.03c0.413,0.413,0.957,0.623,1.495,0.623
		c0.544,0,1.089-0.21,1.502-0.623l13.66-13.771v9.115c0,1.18,0.944,2.138,2.118,2.138c1.174,0,2.118-0.957,2.118-2.138V21.446
		C80.394,20.266,79.449,19.308,78.275,19.308"/>
</g>
</svg>
