<?xml version="1.0" encoding="utf-8"?>
<!-- Generator: Adobe Illustrator 17.0.0, SVG Export Plug-In . SVG Version: 6.00 Build 0)  -->
<!DOCTYPE svg PUBLIC "-//W3C//DTD SVG 1.1//EN" "http://www.w3.org/Graphics/SVG/1.1/DTD/svg11.dtd">
<svg version="1.1" id="Layer_1" xmlns="http://www.w3.org/2000/svg" xmlns:xlink="http://www.w3.org/1999/xlink" x="0px" y="0px"
	 width="100px" height="100px" viewBox="0 0 100 100" enable-background="new 0 0 100 100" xml:space="preserve">
<g>
	<defs>
		<rect id="SVGID_1_" x="14.337" y="19.309" width="71.326" height="61.381"/>
	</defs>
	<clipPath id="SVGID_2_">
		<use xlink:href="#SVGID_1_"  overflow="visible"/>
	</clipPath>
	<path clip-path="url(#SVGID_2_)" fill="#4bbab5" d="M73.344,65.939L54.912,73.03c-0.544-0.627-1.259-1.105-2.067-1.374V50.558
		l20.499-7.542V65.939z M52.845,34.479l17.706,6.432l-17.706,6.52V34.479z M49.871,47.293L33.144,40.91l16.728-6.3V47.293z
		 M49.871,71.656c-0.588,0.198-1.127,0.506-1.589,0.896l-17.794-5.624V43.043l19.383,7.399V71.656z M85.663,62.707
		c0-0.027,0-0.055,0-0.077c-0.006-0.027-0.006-0.049-0.011-0.071c-0.005-0.022-0.005-0.049-0.011-0.071
		c0-0.022-0.011-0.049-0.011-0.071c-0.006-0.022-0.011-0.044-0.016-0.066c-0.011-0.022-0.016-0.049-0.022-0.071
		c-0.011-0.022-0.016-0.044-0.022-0.06c-0.011-0.027-0.022-0.049-0.033-0.071c-0.005-0.022-0.016-0.038-0.027-0.06
		c-0.011-0.022-0.022-0.044-0.033-0.06c-0.011-0.022-0.022-0.044-0.038-0.066c-0.011-0.016-0.022-0.033-0.033-0.055
		c-0.016-0.016-0.033-0.038-0.044-0.06c-0.016-0.016-0.027-0.033-0.044-0.049c-0.016-0.016-0.033-0.038-0.049-0.06
		c-0.016-0.011-0.033-0.027-0.049-0.044c-0.016-0.016-0.033-0.033-0.055-0.055c-0.016-0.011-0.033-0.027-0.055-0.038
		c-0.016-0.016-0.038-0.033-0.055-0.049c-0.022-0.011-0.044-0.027-0.066-0.038c-0.016-0.016-0.038-0.027-0.055-0.038
		c-0.027-0.011-0.049-0.027-0.077-0.038c-0.016-0.011-0.033-0.016-0.055-0.027c-0.027-0.011-0.055-0.022-0.082-0.033
		c-0.016-0.006-0.027-0.011-0.044-0.016l-4.991-1.748c-0.775-0.269-1.627,0.132-1.897,0.896c-0.275,0.764,0.132,1.6,0.902,1.875
		l2.155,0.748l-4.524,1.715v-23.72c0-0.033-0.005-0.066-0.005-0.099c0-0.038,0.005-0.082,0.005-0.121
		c-0.005-0.616-0.39-1.16-0.973-1.374l-22.5-8.174v-7.163l1.22,1.209c0.291,0.286,0.671,0.429,1.05,0.429s0.764-0.143,1.05-0.429
		c0.583-0.572,0.583-1.501,0.006-2.078l-3.557-3.513c-0.022-0.022-0.038-0.044-0.066-0.066c-0.291-0.286-0.671-0.429-1.05-0.429
		c-0.385,0-0.764,0.143-1.055,0.429c-0.022,0.022-0.044,0.044-0.066,0.071l-3.551,3.507c-0.577,0.577-0.577,1.506,0,2.078
		c0.291,0.286,0.671,0.429,1.05,0.429s0.764-0.143,1.055-0.429l0.94-0.935v7.003l-21.4,8.064c-0.005,0.005-0.011,0.005-0.022,0.011
		c-0.016,0.006-0.038,0.016-0.055,0.022c-0.022,0.011-0.044,0.022-0.066,0.033c-0.016,0.005-0.033,0.016-0.049,0.022
		c-0.033,0.022-0.066,0.038-0.099,0.06c-0.005,0.005-0.005,0.005-0.011,0.011c-0.033,0.022-0.071,0.049-0.104,0.071
		c-0.005,0.011-0.016,0.016-0.027,0.027c-0.022,0.016-0.044,0.038-0.066,0.06c-0.011,0.011-0.022,0.016-0.033,0.027
		c-0.022,0.022-0.044,0.049-0.066,0.071c-0.005,0.011-0.016,0.016-0.022,0.027c-0.027,0.033-0.049,0.066-0.077,0.099
		c-0.005,0.011-0.011,0.022-0.016,0.033c-0.016,0.022-0.033,0.049-0.049,0.077c-0.005,0.011-0.016,0.027-0.022,0.044
		c-0.016,0.022-0.027,0.044-0.033,0.071c-0.011,0.016-0.016,0.027-0.022,0.044c-0.016,0.038-0.033,0.077-0.044,0.115
		c-0.005,0.011-0.005,0.022-0.011,0.038c-0.011,0.027-0.016,0.06-0.022,0.088c-0.005,0.016-0.005,0.033-0.011,0.049
		c-0.006,0.027-0.011,0.06-0.016,0.088c0,0.016,0,0.027,0,0.044c-0.005,0.044-0.011,0.088-0.011,0.132v25.117l-7.537-2.386
		l2.589-1.061c0.759-0.313,1.121-1.171,0.808-1.919c-0.319-0.748-1.187-1.105-1.946-0.792l-5.898,2.413
		c-0.137,0.06-0.264,0.132-0.374,0.22c-0.693,0.341-1.006,1.16-0.704,1.875l2.452,5.827c0.236,0.566,0.792,0.907,1.374,0.907
		c0.187,0,0.379-0.038,0.566-0.115c0.759-0.308,1.121-1.165,0.803-1.913l-1.193-2.848l10.274,3.254
		c0.088,0.027,0.181,0.049,0.275,0.06l17.75,5.613c-0.06,0.291-0.093,0.594-0.093,0.902c0,2.556,2.111,4.64,4.7,4.64
		s4.695-2.083,4.695-4.64c0-0.104-0.005-0.209-0.016-0.308l14.392-5.536c0.005-0.006,0.016-0.006,0.027-0.011l11.511-4.359
		l-0.286,1.281c-0.176,0.792,0.335,1.572,1.138,1.743c0.104,0.027,0.214,0.038,0.319,0.038c0.682,0,1.297-0.473,1.451-1.154
		l1.039-4.7c0.005-0.011,0.005-0.027,0.005-0.044c0.005-0.027,0.011-0.06,0.016-0.088c0.006-0.022,0.006-0.038,0.006-0.06
		c0.006-0.027,0.006-0.055,0.006-0.088C85.663,62.751,85.663,62.729,85.663,62.707"/>
</g>
</svg>
