<?xml version="1.0" encoding="utf-8"?>
<!-- Generator: Adobe Illustrator 17.0.0, SVG Export Plug-In . SVG Version: 6.00 Build 0)  -->
<!DOCTYPE svg PUBLIC "-//W3C//DTD SVG 1.1//EN" "http://www.w3.org/Graphics/SVG/1.1/DTD/svg11.dtd">
<svg version="1.1" id="Layer_1" xmlns="http://www.w3.org/2000/svg" xmlns:xlink="http://www.w3.org/1999/xlink" x="0px" y="0px"
	 width="100px" height="100px" viewBox="0 0 100 100" enable-background="new 0 0 100 100" xml:space="preserve">
<g>
	<defs>
		<rect id="SVGID_1_" x="15.519" y="16.651" width="68.962" height="66.695"/>
	</defs>
	<clipPath id="SVGID_2_">
		<use xlink:href="#SVGID_1_"  overflow="visible"/>
	</clipPath>
	<path clip-path="url(#SVGID_2_)" fill="#4bbab5" d="M84.469,50.682c-0.015,1.089-0.074,2.17-0.201,3.273l-5.028-0.014
		c0.134-1.04,0.193-2.08,0.215-3.106c0-0.014,0-0.028,0-0.042c0.03-1.78-0.104-3.524-0.401-5.241
		c-0.007-0.056-0.468-2.184-0.542-2.491c-0.928-3.44-2.488-6.644-4.553-9.456l3.105-4.09c2.815,3.503,4.947,7.558,6.187,11.975
		c0,0,0.371,1.431,0.401,1.563c0.542,2.366,0.832,4.822,0.832,7.349C84.484,50.493,84.469,50.584,84.469,50.682 M50.564,58.156
		c-4.122,0-7.457-3.266-7.457-7.307c0-4.027,3.335-7.3,7.457-7.3h0.067l24.213-23.755l2.897,2.443L57.694,48.679
		c0.215,0.691,0.334,1.424,0.334,2.17C58.028,54.89,54.686,58.156,50.564,58.156 M20.743,53.955h-5.036
		c-0.126-1.131-0.178-2.275-0.178-3.406c0-0.056-0.007-0.105-0.007-0.154c0-0.112,0.007-0.223,0.007-0.335
		c0-0.3,0.015-0.593,0.022-0.886c0.015-0.279,0.022-0.565,0.037-0.844c0.007-0.035,0.007-0.07,0.007-0.098h0.007
		c1.136-17.635,16.102-31.586,34.396-31.586c6.506,0,12.567,1.794,17.766,4.857l-3.639,3.566c-4.196-2.247-9.009-3.524-14.127-3.524
		c-15.597,0-28.365,11.864-29.397,26.882c-0.03,0.335-0.037,0.677-0.052,1.012c-0.007,0.195-0.015,0.384-0.015,0.572
		C20.513,51.317,20.58,52.629,20.743,53.955"/>
	<path clip-path="url(#SVGID_2_)" fill="#4bbab5" d="M77.739,22.239l-2.897-2.443L50.637,43.552h-0.074
		c-4.115,0-7.457,3.266-7.457,7.3c0,4.041,3.342,7.307,7.457,7.307c4.122,0,7.464-3.266,7.464-7.307c0-0.754-0.119-1.486-0.334-2.17
		L77.739,22.239z"/>
	<path clip-path="url(#SVGID_2_)" fill="#4bbab5" d="M20.548,49.439c0.015-0.335,0.022-0.677,0.052-1.012
		c1.032-15.018,13.8-26.882,29.397-26.882c5.125,0,9.93,1.277,14.134,3.524l3.632-3.566c-5.199-3.064-11.26-4.857-17.766-4.857
		c-18.293,0-33.259,13.957-34.396,31.586h-0.007c0,0.028,0,0.063-0.007,0.098c-0.015,0.279-0.022,0.565-0.037,0.844
		c-0.007,0.293-0.022,0.586-0.022,0.886c0,0.112-0.007,0.223-0.007,0.335c0,0.056,0.007,0.098,0.007,0.154
		c0,1.131,0.052,2.275,0.178,3.406h5.036c-0.163-1.319-0.223-2.638-0.208-3.943C20.533,49.823,20.541,49.634,20.548,49.439"/>
	<path clip-path="url(#SVGID_2_)" fill="#4bbab5" d="M83.255,41.488c-1.248-4.418-3.379-8.472-6.194-11.968l-3.097,4.09
		c2.065,2.812,3.617,6.009,4.545,9.456c0.082,0.3,0.542,2.436,0.542,2.484c0.305,1.717,0.431,3.468,0.408,5.241
		c0,0.021-0.007,0.028-0.007,0.049h0.007c-0.022,1.026-0.089,2.059-0.223,3.106l5.036,0.007c0.119-1.096,0.178-2.184,0.193-3.273
		c0.007-0.091,0.015-0.188,0.015-0.279c0-2.526-0.29-4.983-0.824-7.349C83.619,42.919,83.255,41.488,83.255,41.488"/>
</g>
<polygon fill="#4bbab5" points="22.07,68.649 22.07,73.332 17.227,73.332 17.227,75.991 22.07,75.991 22.07,80.68 24.84,80.68 
	24.84,75.991 29.683,75.991 29.683,73.332 24.84,73.332 24.84,68.649 "/>
<rect x="40.311" y="74.421" fill="#4bbab5" width="7.368" height="2.784"/>
<polygon fill="#4bbab5" points="69.176,66.112 64.898,78.813 60.738,66.154 57.433,66.154 63.501,83.349 66.145,83.349 
	70.423,71.088 74.709,83.349 77.346,83.349 83.429,66.154 80.22,66.154 76.061,78.813 71.768,66.112 "/>
</svg>
