<?xml version="1.0" encoding="utf-8"?>
<!-- Generator: Adobe Illustrator 17.0.0, SVG Export Plug-In . SVG Version: 6.00 Build 0)  -->
<!DOCTYPE svg PUBLIC "-//W3C//DTD SVG 1.1//EN" "http://www.w3.org/Graphics/SVG/1.1/DTD/svg11.dtd">
<svg version="1.1" id="Layer_1" xmlns="http://www.w3.org/2000/svg" xmlns:xlink="http://www.w3.org/1999/xlink" x="0px" y="0px"
	 width="100px" height="100px" viewBox="0 0 100 100" enable-background="new 0 0 100 100" xml:space="preserve">
<g>
	<defs>
		<rect id="SVGID_1_" x="14.156" y="22.63" width="71.687" height="54.741"/>
	</defs>
	<clipPath id="SVGID_2_">
		<use xlink:href="#SVGID_1_"  overflow="visible"/>
	</clipPath>
	<path clip-path="url(#SVGID_2_)" fill="#4bbab5" d="M79.543,43.626h-8.402c-1.159,0-2.104-0.938-2.104-2.097
		c0-1.159,0.944-2.104,2.104-2.104h8.402c1.153,0,2.097,0.944,2.097,2.104C81.64,42.689,80.696,43.626,79.543,43.626 M77.439,71.072
		c0,1.159-0.944,2.097-2.097,2.097c-1.159,0-2.104-0.938-2.104-2.097V47.827h4.201V71.072z M54.202,43.626H45.8
		c-1.159,0-2.104-0.938-2.104-2.097c0-1.159,0.944-2.104,2.104-2.104h8.402c1.153,0,2.097,0.944,2.097,2.104
		C56.299,42.689,55.354,43.626,54.202,43.626 M52.098,71.072c0,1.159-0.944,2.097-2.097,2.097c-1.159,0-2.104-0.938-2.104-2.097
		V47.827h4.201V71.072z M28.86,43.626h-8.402c-1.159,0-2.104-0.938-2.104-2.097c0-1.159,0.944-2.104,2.104-2.104h8.402
		c1.153,0,2.097,0.944,2.097,2.104C30.957,42.689,30.013,43.626,28.86,43.626 M26.756,71.072c0,1.159-0.944,2.097-2.097,2.097
		c-1.159,0-2.104-0.938-2.104-2.097V47.827h4.201V71.072z M81.64,35.59v-6.663c0-1.159,0.944-2.097,2.104-2.097
		c1.153,0,2.097-0.944,2.097-2.104c0-1.159-0.944-2.097-2.097-2.097c-3.478,0-6.304,2.827-6.304,6.298v6.298h-4.201v-6.298
		c0-3.471-2.827-6.298-6.298-6.298h-8.538c-3.478,0-6.304,2.827-6.304,6.298v6.298h-4.201v-6.298c0-3.471-2.827-6.298-6.298-6.298
		h-8.538c-3.478,0-6.304,2.827-6.304,6.298v6.298h-4.201v-6.298c0-3.471-2.827-6.298-6.298-6.298c-1.159,0-2.104,0.938-2.104,2.097
		c0,1.159,0.944,2.104,2.104,2.104c1.159,0,2.097,0.938,2.097,2.097v6.663c-2.442,0.866-4.201,3.204-4.201,5.94
		c0,2.735,1.758,5.074,4.201,5.94v23.603c0,3.471,2.827,6.298,6.304,6.298c3.471,0,6.298-2.827,6.298-6.298V47.469
		c2.442-0.866,4.201-3.204,4.201-5.94c0-2.735-1.758-5.074-4.201-5.94v-6.663c0-1.159,0.944-2.097,2.104-2.097h8.538
		c1.159,0,2.097,0.938,2.097,2.097v6.663c-2.442,0.866-4.201,3.204-4.201,5.94c0,2.735,1.758,5.074,4.201,5.94v23.603
		c0,3.471,2.827,6.298,6.304,6.298c3.471,0,6.298-2.827,6.298-6.298V47.469c2.442-0.866,4.201-3.204,4.201-5.94
		c0-2.735-1.758-5.074-4.201-5.94v-6.663c0-1.159,0.944-2.097,2.104-2.097h8.538c1.159,0,2.097,0.938,2.097,2.097v6.663
		c-2.442,0.866-4.201,3.204-4.201,5.94c0,2.735,1.758,5.074,4.201,5.94v23.603c0,3.471,2.827,6.298,6.304,6.298
		c3.471,0,6.298-2.827,6.298-6.298V47.469c2.442-0.866,4.201-3.204,4.201-5.94C85.841,38.794,84.083,36.456,81.64,35.59"/>
</g>
</svg>
