<?xml version="1.0" encoding="utf-8"?>
<!-- Generator: Adobe Illustrator 17.0.0, SVG Export Plug-In . SVG Version: 6.00 Build 0)  -->
<!DOCTYPE svg PUBLIC "-//W3C//DTD SVG 1.1//EN" "http://www.w3.org/Graphics/SVG/1.1/DTD/svg11.dtd">
<svg version="1.1" id="Layer_1" xmlns="http://www.w3.org/2000/svg" xmlns:xlink="http://www.w3.org/1999/xlink" x="0px" y="0px"
	 width="100px" height="100px" viewBox="0 0 100 100" enable-background="new 0 0 100 100" xml:space="preserve">
<polygon fill="#4bbab5" points="49.953,12.675 46.873,20.063 43.786,27.452 49.953,27.452 56.119,27.452 53.033,20.063 "/>
<polygon fill="#4bbab5" points="49.953,72.548 43.786,72.548 46.873,79.937 49.953,87.326 53.033,79.937 56.119,72.548 "/>
<g>
	<defs>
		<rect id="SVGID_1_" x="19.268" y="12.674" width="61.367" height="74.652"/>
	</defs>
	<clipPath id="SVGID_2_">
		<use xlink:href="#SVGID_1_"  overflow="visible"/>
	</clipPath>
	<path clip-path="url(#SVGID_2_)" fill="#4bbab5" d="M75.498,45.839h-7.139v-5.896h8.003L75.498,45.839z M74.641,53.876h-6.281
		V47.98h6.943L74.641,53.876z M73.79,61.914h-5.43v-5.889h6.281L73.79,61.914z M66.036,45.839h-6.274v-5.896h6.274V45.839z
		 M66.036,53.876h-6.274V47.98h6.274V53.876z M66.036,61.914h-6.274v-5.896h6.274V61.914z M57.364,45.839h-6.281v-5.896h6.281
		V45.839z M57.364,53.876h-6.281V47.98h6.281V53.876z M57.364,61.914h-6.281v-5.896h6.281V61.914z M48.82,45.839h-6.281v-5.896
		h6.281V45.839z M48.82,53.876h-6.281V47.98h6.281V53.876z M48.82,61.914h-6.281v-5.896h6.281V61.914z M40.141,45.839h-6.274v-5.896
		h6.274V45.839z M40.141,53.876h-6.274V47.98h6.274V53.876z M40.141,61.914h-6.274v-5.896h6.274V61.914z M31.544,45.839h-7.139
		l-0.865-5.896h8.003V45.839z M31.544,53.876h-6.281L24.6,47.98h6.943V53.876z M31.544,61.914h-5.43l-0.851-5.889h6.281V61.914z
		 M79.443,36.458c-0.068-0.034-0.142-0.061-0.216-0.081v-8.26c0-0.371-0.297-0.669-0.662-0.669c-0.371,0-0.669,0.297-0.669,0.669
		v8.206H49.982h-0.061H22.007v-8.206c0-0.371-0.297-0.669-0.669-0.669c-0.365,0-0.662,0.297-0.662,0.669v8.26
		c-0.074,0.02-0.149,0.047-0.216,0.081c-0.77,0.142-1.29,1-1.175,1.945l3.053,24.713c0.074,0.601,0.392,1.087,0.804,1.344
		c0.196,0.23,0.473,0.371,0.777,0.371h26.003h0.061h26.003c0.304,0,0.581-0.142,0.777-0.371c0.412-0.257,0.729-0.743,0.804-1.344
		l3.053-24.713C80.733,37.458,80.213,36.6,79.443,36.458"/>
</g>
</svg>
