<?xml version="1.0" encoding="utf-8"?>
<!-- Generator: Adobe Illustrator 17.0.0, SVG Export Plug-In . SVG Version: 6.00 Build 0)  -->
<!DOCTYPE svg PUBLIC "-//W3C//DTD SVG 1.1//EN" "http://www.w3.org/Graphics/SVG/1.1/DTD/svg11.dtd">
<svg version="1.1" id="Layer_1" xmlns="http://www.w3.org/2000/svg" xmlns:xlink="http://www.w3.org/1999/xlink" x="0px" y="0px"
	 width="100px" height="100px" viewBox="0 0 100 100" enable-background="new 0 0 100 100" xml:space="preserve">
<path fill="#4bbab5" d="M86.718,38.47v-3.976c0-0.419-0.342-0.763-0.757-0.763H28.591c-0.178,0-0.348,0.064-0.47,0.168
	l-17.17,13.634l0.076,0.1c-0.038,0.07-0.068,0.153-0.068,0.255v17.576c0,0.417,0.344,0.757,0.763,0.757h60.879
	c0.072,0,0.134-0.015,0.189-0.036l0.091,0.085l13.643-14.271c0.136-0.151,0.213-0.332,0.213-0.523v-0.189
	c1.103-0.493,1.834-1.59,1.847-2.813v-5.113c0.255-0.181,0.427-0.474,0.465-0.837v-2.484C89.028,39.22,88.165,38.646,86.718,38.47z
	 M85.192,38.465c-1.564,0.134-2.52,0.733-2.52,1.6l0.002,2.527c0.036,0.323,0.206,0.608,0.463,0.793v1.764
	c0,0.147,0,0.438-0.011,0.618h-2.38c-1.137,0-1.647,1.468-1.647,2.924c0,1.407,0.516,2.918,1.647,2.918h4.033L73.352,63.568V48.23
	l11.843-11.87v2.106L85.192,38.465z M81.271,50.064h-0.393c-0.096-0.168-0.274-0.625-0.274-1.4c0-0.776,0.179-1.23,0.274-1.398
	h0.387c-0.13,0.455-0.2,0.929-0.2,1.398C81.065,49.135,81.135,49.607,81.271,50.064z M84.644,43.861
	c0.752,0.104,1.596,0.115,2.397-0.002v0.578c-0.74,0.213-1.619,0.215-2.397-0.004V43.861z M82.6,48.663
	c0-0.774,0.181-1.23,0.278-1.398h0.308c1.077,0,1.339-0.682,1.405-1.279c0.797,0.166,1.636,0.17,2.437,0.004l0.013,2.486
	c0,0.871-0.712,1.585-1.583,1.587h-2.58C82.78,49.896,82.6,49.439,82.6,48.663z M85.825,42.429
	c-0.055,0.002-0.123,0.004-0.178,0.002c-0.476,0-0.956-0.068-1.432-0.2v-0.767c1.054,0.31,2.235,0.31,3.296,0v0.733
	c-0.108,0.045-0.219,0.085-0.336,0.119L85.825,42.429z M71.83,48.657v16.04H12.47v-16.04L71.83,48.657z M13.888,47.121l14.96-11.872
	h55.288l-11.86,11.872H13.888z"/>
</svg>
