<?xml version="1.0" encoding="utf-8"?>
<!-- Generator: Adobe Illustrator 17.0.0, SVG Export Plug-In . SVG Version: 6.00 Build 0)  -->
<!DOCTYPE svg PUBLIC "-//W3C//DTD SVG 1.1//EN" "http://www.w3.org/Graphics/SVG/1.1/DTD/svg11.dtd">
<svg version="1.1" id="Layer_1" xmlns="http://www.w3.org/2000/svg" xmlns:xlink="http://www.w3.org/1999/xlink" x="0px" y="0px"
	 width="100px" height="100px" viewBox="0 0 100 100" enable-background="new 0 0 100 100" xml:space="preserve">
<g>
	<defs>
		<rect id="SVGID_1_" x="26.782" y="14.876" width="46.436" height="76.59"/>
	</defs>
	<clipPath id="SVGID_2_">
		<use xlink:href="#SVGID_1_"  overflow="visible"/>
	</clipPath>
	<path clip-path="url(#SVGID_2_)" fill="#4bbab5" d="M59.651,28.711c3.815,0,6.915-3.105,6.915-6.915c0-3.815-3.1-6.92-6.915-6.92
		c-3.815,0-6.915,3.105-6.915,6.92C52.736,25.607,55.836,28.711,59.651,28.711"/>
	<path clip-path="url(#SVGID_2_)" fill="#4bbab5" d="M51.736,54.369v13.934c0,1.157,0.936,2.089,2.093,2.089h11.643
		c1.157,0,2.093-0.931,2.093-2.089v-6.525v-7.409l3.481-5.302c0.226-0.339,0.343-0.739,0.343-1.148V37.513
		c0-2.639-1.505-5.005-3.825-6.144c-0.278-0.136-0.565-0.259-0.861-0.358c-0.014-0.005-1.75-0.541-1.75-0.541
		c-0.565-0.169-1.176-0.099-1.679,0.202l-3.627,2.15l-3.622-2.15c-0.508-0.301-1.115-0.372-1.679-0.202c0,0-1.736,0.536-1.75,0.541
		c-2.804,0.931-4.69,3.547-4.69,6.501v10.406c0,0.409,0.122,0.809,0.343,1.148L51.736,54.369z"/>
	<path clip-path="url(#SVGID_2_)" fill="#4bbab5" d="M71.127,74.545H45.776c-1.157,0-2.093,0.936-2.093,2.093v6.355H28.874
		c-1.157,0-2.093,0.936-2.093,2.093v6.36l46.441,0.019V76.639C73.221,75.481,72.285,74.545,71.127,74.545"/>
</g>
</svg>
