<?xml version="1.0" encoding="utf-8"?>
<!-- Generator: Adobe Illustrator 17.0.0, SVG Export Plug-In . SVG Version: 6.00 Build 0)  -->
<!DOCTYPE svg PUBLIC "-//W3C//DTD SVG 1.1//EN" "http://www.w3.org/Graphics/SVG/1.1/DTD/svg11.dtd">
<svg version="1.1" id="Layer_1" xmlns="http://www.w3.org/2000/svg" xmlns:xlink="http://www.w3.org/1999/xlink" x="0px" y="0px"
	 width="100px" height="100px" viewBox="0 0 100 100" enable-background="new 0 0 100 100" xml:space="preserve">
<path fill="#4bbab5" d="M46.257,76.686l30.239-30.455l3.743,3.77L50,80.452L46.257,76.686z M19.761,50.002L50,19.548l25.801,25.98
	L45.557,75.982L19.761,50.002z M50,11.881L12.148,50.002L50,88.119l37.852-38.116L50,11.881z"/>
<polygon fill="#4bbab5" points="48.866,58.832 46.503,61.212 34.197,48.82 33.557,49.46 45.863,61.856 43.499,64.236 47.163,65.225 
	50.832,66.214 49.847,62.525 "/>
<polygon fill="#4bbab5" points="56.487,51.157 54.124,53.537 41.818,41.145 41.178,41.785 53.484,54.181 51.12,56.561 54.784,57.55 
	58.453,58.538 57.468,54.85 "/>
<polygon fill="#4bbab5" points="64.615,47.651 63.635,43.958 61.271,46.342 48.961,33.947 48.325,34.591 60.631,46.982 
	58.268,49.362 61.932,50.355 65.596,51.344 "/>
</svg>
