<?xml version="1.0" encoding="utf-8"?>
<!-- Generator: Adobe Illustrator 17.0.0, SVG Export Plug-In . SVG Version: 6.00 Build 0)  -->
<!DOCTYPE svg PUBLIC "-//W3C//DTD SVG 1.1//EN" "http://www.w3.org/Graphics/SVG/1.1/DTD/svg11.dtd">
<svg version="1.1" id="Layer_1" xmlns="http://www.w3.org/2000/svg" xmlns:xlink="http://www.w3.org/1999/xlink" x="0px" y="0px"
	 width="100px" height="100px" viewBox="0 0 100 100" enable-background="new 0 0 100 100" xml:space="preserve">
<path fill="#4bbab5" d="M88.015,11.123l-1.881-1.636l-2.547,2.598l0.516,0.449l-2.584,2.63l-1.164-1.022l-0.983,1.002l-0.308-0.19
	l-0.287,0.298l-0.123-0.083l-0.294,0.305l-0.294-0.259l-1.12,1.145c-0.847-0.71-1.471-1.108-1.959-1.203l-0.287-0.051l-9.709,9.903
	l-0.099,0.139c-0.396,0.636-0.037,1.511,1.134,2.737l-3.502,3.632l-1.307,0.065l-0.481,0.488h-0.037l0.021,0.019L11.509,82.231
	l-0.104,0.118l-1.094,6.584c-0.028,0.652,0.22,1.034,0.43,1.235c0.234,0.222,0.546,0.345,0.9,0.345c0.104,0,0.213-0.012,0.326-0.032
	c0.77-0.148,5.626-1.159,6.251-1.291l0.162-0.032l49.088-50.155l0.093,0.125l0.007-0.227l0.481-0.481l0.058-1.33l3.574-3.56
	c1.673,1.571,2.045,1.402,2.461,1.219L83.765,25l0.171-0.208c0.43-0.65-0.079-1.372-0.847-2.253l1.083-1.101l-0.338-0.396
	l0.215-0.405l0.301-0.305l-0.229-0.377l0.969-0.995l-1.062-1.252l2.577-2.637l0.539,0.657l2.547-2.605L88.015,11.123z
	 M14.518,86.391c0.685,0.703,1.226,1.224,1.649,1.608c-1.4,0.291-3.401,0.703-4.245,0.872l0.731-4.407
	C13.079,84.915,13.676,85.537,14.518,86.391z M15.462,85.102l-0.116-0.123c-1.108-1.122-1.753-1.818-2.124-2.232l48.441-49.35
	c0.372,0.28,1.02,0.833,2.031,1.862l0.266,0.28c1.307,1.302,1.945,2.089,2.246,2.505l-48.316,49.35
	C17.479,87.062,16.721,86.393,15.462,85.102z M64.118,32.141l3-3.111c0.359,0.396,0.905,0.972,1.737,1.811
	c0.775,0.793,1.298,1.307,1.642,1.636l-3.058,3.058c-0.315-0.412-0.796-0.969-1.522-1.707
	C65.136,33.002,64.548,32.474,64.118,32.141z M69.837,29.587l-0.093-0.097c-1.587-1.61-2.082-2.188-2.124-2.235
	c-0.625-0.592-1.034-1.127-1.219-1.413l8.684-8.86c1.478,1.309,5.943,5.862,7.169,7.31l-8.603,8.77
	c-0.389-0.308-1.055-0.854-1.659-1.356C71.81,31.547,71.236,31.022,69.837,29.587z"/>
</svg>
