<?xml version="1.0" encoding="utf-8"?>
<!-- Generator: Adobe Illustrator 17.0.0, SVG Export Plug-In . SVG Version: 6.00 Build 0)  -->
<!DOCTYPE svg PUBLIC "-//W3C//DTD SVG 1.1//EN" "http://www.w3.org/Graphics/SVG/1.1/DTD/svg11.dtd">
<svg version="1.1" id="Layer_1" xmlns="http://www.w3.org/2000/svg" xmlns:xlink="http://www.w3.org/1999/xlink" x="0px" y="0px"
	 width="100px" height="100px" viewBox="0 0 100 100" enable-background="new 0 0 100 100" xml:space="preserve">
<polygon fill="#4bbab5" points="26.379,73.125 26.379,77.628 21.629,77.628 21.629,80.176 26.379,80.176 26.379,84.679 
	29.092,84.679 29.092,80.176 33.822,80.176 33.822,77.628 29.092,77.628 29.092,73.125 "/>
<rect x="44.22" y="78.674" fill="#4bbab5" width="7.204" height="2.667"/>
<polygon fill="#4bbab5" points="62.268,70.737 62.268,87.12 65.268,87.12 65.268,80.461 73.862,80.461 73.862,77.827 65.268,77.827 
	65.268,73.364 74.959,73.364 74.959,70.737 "/>
<g>
	<defs>
		<rect id="SVGID_1_" x="17.926" y="12.876" width="64.149" height="74.246"/>
	</defs>
	<clipPath id="SVGID_2_">
		<use xlink:href="#SVGID_1_"  overflow="visible"/>
	</clipPath>
	<path clip-path="url(#SVGID_2_)" fill="#4bbab5" d="M72.233,36.687c-0.725,4.689-1.65,10.476-2.701,14.068
		c-0.233,0.792-1.483,0.792-1.716,0c-1.051-3.592-1.976-9.379-2.694-14.068H72.233z M52.67,34.446
		c0.718-4.689,1.643-10.476,2.694-14.062c0.233-0.798,1.483-0.798,1.716,0c1.051,3.585,1.982,9.372,2.701,14.062H52.67z
		 M44.628,50.756c-0.233,0.792-1.483,0.792-1.716,0c-1.044-3.592-1.976-9.379-2.694-14.068h7.111
		C46.61,41.377,45.679,47.164,44.628,50.756 M27.766,34.446c0.718-4.683,1.643-10.476,2.701-14.062c0.226-0.798,1.477-0.798,1.709,0
		c1.051,3.585,1.982,9.372,2.701,14.062H27.766z M56.222,12.874c-4.956,0-6.332,7.024-8.554,21.571h-7.796
		c-2.222-14.547-3.599-21.571-8.547-21.571c-4.962,0-6.332,7.024-8.561,21.571h-4.836v2.242h17.288
		c2.228,14.554,3.605,21.571,8.554,21.571c4.962,0,6.332-7.018,8.561-21.571h7.789c2.228,14.554,3.599,21.571,8.554,21.571
		s6.332-7.018,8.561-21.571h4.836v-2.242H64.776C62.554,19.892,61.177,12.874,56.222,12.874"/>
</g>
</svg>
