<svg enable-background="new 0 0 700 300" height="300" viewBox="0 0 700 300" width="700" xmlns="http://www.w3.org/2000/svg" xmlns:xlink="http://www.w3.org/1999/xlink"><clipPath id="a"><path d="m-7.478-199.081h716.256v504.75h-716.256z"/></clipPath><clipPath id="b"><path d="m-7.478-199.081h716.256v504.75h-716.256z"/></clipPath><clipPath id="c"><path d="m-8.042 72.917h22.489v21.863h-22.489z"/></clipPath><clipPath id="d"><path d="m525.012 11.808h22.489v21.863h-22.489z"/></clipPath><clipPath id="e"><path d="m233.249 72.917h22.489v21.863h-22.489z"/></clipPath><clipPath id="f"><path d="m283.722 11.808h22.489v21.863h-22.489z"/></clipPath><clipPath id="g"><path d="m133.615 11.808h22.489v21.863h-22.489z"/></clipPath><clipPath id="h"><path d="m383.355 72.917h22.489v21.863h-22.489z"/></clipPath><clipPath id="i"><path d="m-8.042 47.68h22.489v21.863h-22.489z"/></clipPath><clipPath id="j"><path d="m525.012 37.045h22.489v21.863h-22.489z"/></clipPath><clipPath id="k"><path d="m233.249 47.68h22.489v21.863h-22.489z"/></clipPath><clipPath id="l"><path d="m283.722 37.045h22.489v21.863h-22.489z"/></clipPath><clipPath id="m"><path d="m499.775 11.808h22.489v21.863h-22.489z"/></clipPath><clipPath id="n"><path d="m17.195 47.68h22.489v21.863h-22.489z"/></clipPath><clipPath id="o"><path d="m600.713 37.045h22.487v21.863h-22.487z"/></clipPath><clipPath id="p"><path d="m635.082 73.162h22.487v21.863h-22.487z"/></clipPath><clipPath id="q"><path d="m108.379 37.045h22.489v21.863h-22.489z"/></clipPath><clipPath id="r"><path d="m408.592 47.68h22.489v21.863h-22.489z"/></clipPath><clipPath id="s"><path d="m42.432 47.68h22.489v21.863h-22.489z"/></clipPath><clipPath id="t"><path d="m474.539 37.045h22.489v21.863h-22.489z"/></clipPath><clipPath id="u"><path d="m83.142 37.045h22.489v21.863h-22.489z"/></clipPath><clipPath id="v"><path d="m433.829 47.68h22.489v21.863h-22.489z"/></clipPath><clipPath id="w"><path d="m42.432 1.081h22.489v21.863h-22.489z"/></clipPath><clipPath id="x"><path d="m474.539 83.644h22.489v21.863h-22.489z"/></clipPath><clipPath id="y"><path d="m83.142 83.644h22.489v21.863h-22.489z"/></clipPath><clipPath id="z"><path d="m433.829 1.081h22.489v21.863h-22.489z"/></clipPath><clipPath id="A"><path d="m42.432-24.156h22.489v21.863h-22.489z"/></clipPath><clipPath id="B"><path d="m474.539 108.881h22.489v21.863h-22.489z"/></clipPath><clipPath id="C"><path d="m83.142 108.881h22.489v21.863h-22.489z"/></clipPath><clipPath id="D"><path d="m433.829-24.156h22.489v21.863h-22.489z"/></clipPath><clipPath id="E"><path d="m42.432-148.927h22.489v21.863h-22.489z"/></clipPath><clipPath id="F"><path d="m474.539 233.652h22.489v21.863h-22.489z"/></clipPath><clipPath id="G"><path d="m83.142 233.652h22.489v21.863h-22.489z"/></clipPath><clipPath id="H"><path d="m433.829-148.927h22.489v21.863h-22.489z"/></clipPath><clipPath id="I"><path d="m42.432-199.519h22.489v21.863h-22.489z"/></clipPath><clipPath id="J"><path d="m474.539 284.244h22.489v21.863h-22.489z"/></clipPath><clipPath id="K"><path d="m83.142 284.244h22.489v21.863h-22.489z"/></clipPath><clipPath id="L"><path d="m433.829-199.519h22.489v21.863h-22.489z"/></clipPath><clipPath id="M"><path d="m548.944 284.244h22.489v21.863h-22.489z"/></clipPath><clipPath id="N"><path d="m686.855-174.037h22.487v21.863h-22.487z"/></clipPath><clipPath id="O"><path d="m157.547 284.244h22.489v21.863h-22.489z"/></clipPath><clipPath id="P"><path d="m359.423-199.519h22.489v21.863h-22.489z"/></clipPath><clipPath id="Q"><path d="m42.432-76.238h22.489v21.863h-22.489z"/></clipPath><clipPath id="R"><path d="m474.539 160.963h22.489v21.863h-22.489z"/></clipPath><clipPath id="S"><path d="m83.142 160.963h22.489v21.863h-22.489z"/></clipPath><clipPath id="T"><path d="m433.829-76.238h22.489v21.863h-22.489z"/></clipPath><clipPath id="U"><path d="m570.872 72.34h22.489v21.863h-22.489z"/></clipPath><clipPath id="V"><path d="m179.475 72.34h22.489v21.863h-22.489z"/></clipPath><clipPath id="W"><path d="m337.496 12.385h22.489v21.863h-22.489z"/></clipPath><clipPath id="X"><path d="m570.872 97.577h22.489v21.863h-22.489z"/></clipPath><clipPath id="Y"><path d="m664.925 12.63h22.487v21.863h-22.487z"/></clipPath><clipPath id="Z"><path d="m179.475 97.577h22.489v21.863h-22.489z"/></clipPath><clipPath id="aa"><path d="m337.496-12.852h22.489v21.863h-22.489z"/></clipPath><clipPath id="ab"><path d="m570.872 171.021h22.489v21.863h-22.489z"/></clipPath><clipPath id="ac"><path d="m179.475 171.021h22.489v21.863h-22.489z"/></clipPath><clipPath id="ad"><path d="m337.496-86.297h22.489v21.863h-22.489z"/></clipPath><clipPath id="ae"><path d="m570.872 196.259h22.489v21.863h-22.489z"/></clipPath><clipPath id="af"><path d="m179.475 196.259h22.489v21.863h-22.489z"/></clipPath><clipPath id="ag"><path d="m337.496-111.533h22.489v21.863h-22.489z"/></clipPath><clipPath id="ah"><path d="m570.872 247.586h22.489v21.863h-22.489z"/></clipPath><clipPath id="ai"><path d="m664.925-137.378h22.487v21.863h-22.487z"/></clipPath><clipPath id="aj"><path d="m179.475 247.586h22.489v21.863h-22.489z"/></clipPath><clipPath id="ak"><path d="m337.496-162.861h22.489v21.863h-22.489z"/></clipPath><clipPath id="al"><path d="m600.713 284.244h22.487v21.863h-22.487z"/></clipPath><clipPath id="am"><path d="m635.082-174.037h22.487v21.863h-22.487z"/></clipPath><clipPath id="an"><path d="m209.317 284.244h22.489v21.863h-22.489z"/></clipPath><clipPath id="ao"><path d="m307.654-199.519h22.489v21.863h-22.489z"/></clipPath><clipPath id="ap"><path d="m42.432 283.869h22.489v21.863h-22.489z"/></clipPath><clipPath id="aq"><path d="m474.539-199.143h22.489v21.863h-22.489z"/></clipPath><clipPath id="ar"><path d="m83.142-199.143h22.489v21.863h-22.489z"/></clipPath><clipPath id="as"><path d="m433.829 283.869h22.489v21.863h-22.489z"/></clipPath><clipPath id="at"><path d="m42.432 159.097h22.489v21.863h-22.489z"/></clipPath><clipPath id="au"><path d="m474.539-74.372h22.489v21.863h-22.489z"/></clipPath><clipPath id="av"><path d="m83.142-74.372h22.489v21.863h-22.489z"/></clipPath><clipPath id="aw"><path d="m433.829 159.097h22.489v21.863h-22.489z"/></clipPath><clipPath id="ax"><path d="m42.432 133.861h22.489v21.863h-22.489z"/></clipPath><clipPath id="ay"><path d="m83.142-49.135h22.489v21.863h-22.489z"/></clipPath><clipPath id="az"><path d="m433.829 133.861h22.489v21.863h-22.489z"/></clipPath><clipPath id="aA"><path d="m42.432 108.505h22.489v21.863h-22.489z"/></clipPath><clipPath id="aB"><path d="m474.539-23.78h22.489v21.863h-22.489z"/></clipPath><clipPath id="aC"><path d="m83.142-23.78h22.489v21.863h-22.489z"/></clipPath><clipPath id="aD"><path d="m433.829 108.505h22.489v21.863h-22.489z"/></clipPath><clipPath id="aE"><path d="m548.944-23.78h22.489v21.863h-22.489z"/></clipPath><clipPath id="aF"><path d="m686.855 133.988h22.487v21.863h-22.487z"/></clipPath><clipPath id="aG"><path d="m209.317 108.505h22.489v21.863h-22.489z"/></clipPath><clipPath id="aH"><path d="m307.654-23.78h22.489v21.863h-22.489z"/></clipPath><clipPath id="aI"><path d="m157.547-23.78h22.489v21.863h-22.489z"/></clipPath><clipPath id="aJ"><path d="m359.423 108.505h22.489v21.863h-22.489z"/></clipPath><clipPath id="aK"><path d="m42.432 231.787h22.489v21.863h-22.489z"/></clipPath><clipPath id="aL"><path d="m474.539-147.062h22.489v21.863h-22.489z"/></clipPath><clipPath id="aM"><path d="m83.142-147.062h22.489v21.863h-22.489z"/></clipPath><clipPath id="aN"><path d="m433.829 231.787h22.489v21.863h-22.489z"/></clipPath><clipPath id="aO"><path d="m570.872-137.003h22.489v21.863h-22.489z"/></clipPath><clipPath id="aP"><path d="m664.925 247.21h22.487v21.863h-22.487z"/></clipPath><clipPath id="aQ"><path d="m179.475-137.003h22.489v21.863h-22.489z"/></clipPath><clipPath id="aR"><path d="m337.496 221.728h22.489v21.863h-22.489z"/></clipPath><clipPath id="aS"><path d="m570.872-111.766h22.489v21.863h-22.489z"/></clipPath><clipPath id="aT"><path d="m179.475-111.766h22.489v21.863h-22.489z"/></clipPath><clipPath id="aU"><path d="m337.496 196.491h22.489v21.863h-22.489z"/></clipPath><clipPath id="aV"><path d="m570.872-60.439h22.489v21.863h-22.489z"/></clipPath><clipPath id="aW"><path d="m179.475-60.439h22.489v21.863h-22.489z"/></clipPath><clipPath id="aX"><path d="m337.496 145.164h22.489v21.863h-22.489z"/></clipPath><g clip-path="url(#a)" opacity=".5"><g clip-path="url(#b)" opacity=".1"><path clip-path="url(#c)" d="m3.203 73.355c-5.899 0-10.681 4.782-10.681 10.681s4.782 10.681 10.681 10.681 10.681-4.782 10.681-10.681-4.782-10.681-10.681-10.681" fill="#fff"/></g><g clip-path="url(#b)" opacity=".1"><path clip-path="url(#d)" d="m536.257 33.233c5.899 0 10.681-4.782 10.681-10.681s-4.782-10.681-10.681-10.681-10.681 4.782-10.681 10.681 4.782 10.681 10.681 10.681" fill="#fff"/></g><g clip-path="url(#b)" opacity=".1"><path clip-path="url(#e)" d="m244.493 73.355c-5.899 0-10.681 4.782-10.681 10.681s4.782 10.681 10.681 10.681 10.681-4.782 10.681-10.681-4.782-10.681-10.681-10.681" fill="#fff"/></g><g clip-path="url(#b)" opacity=".1"><path clip-path="url(#f)" d="m294.967 33.233c5.899 0 10.681-4.782 10.681-10.681s-4.782-10.681-10.681-10.681-10.681 4.782-10.681 10.681c-.001 5.899 4.782 10.681 10.681 10.681" fill="#fff"/></g><g clip-path="url(#b)" opacity=".1"><path clip-path="url(#g)" d="m144.86 33.233c5.899 0 10.681-4.782 10.681-10.681s-4.782-10.681-10.681-10.681-10.681 4.782-10.681 10.681 4.782 10.681 10.681 10.681" fill="#fff"/></g><g clip-path="url(#b)" opacity=".1"><path clip-path="url(#h)" d="m394.6 73.355c-5.899 0-10.681 4.782-10.681 10.681s4.782 10.681 10.681 10.681 10.681-4.782 10.681-10.681-4.782-10.681-10.681-10.681" fill="#fff"/></g><g clip-path="url(#b)" opacity=".1"><path clip-path="url(#i)" d="m3.203 48.118c-5.899 0-10.681 4.782-10.681 10.681s4.782 10.681 10.681 10.681 10.681-4.782 10.681-10.681c0-5.898-4.782-10.681-10.681-10.681" fill="#fff"/></g><g clip-path="url(#b)" opacity=".1"><path clip-path="url(#j)" d="m536.257 58.47c5.899 0 10.681-4.782 10.681-10.681s-4.782-10.681-10.681-10.681-10.681 4.782-10.681 10.681 4.782 10.681 10.681 10.681" fill="#fff"/></g><g clip-path="url(#b)" opacity=".1"><path clip-path="url(#k)" d="m244.493 48.118c-5.899 0-10.681 4.782-10.681 10.681s4.782 10.681 10.681 10.681 10.681-4.782 10.681-10.681c0-5.898-4.782-10.681-10.681-10.681" fill="#fff"/></g><g clip-path="url(#b)" opacity=".1"><path clip-path="url(#l)" d="m294.967 58.47c5.899 0 10.681-4.782 10.681-10.681s-4.782-10.681-10.681-10.681-10.681 4.782-10.681 10.681c-.001 5.899 4.782 10.681 10.681 10.681" fill="#fff"/></g><g clip-path="url(#b)" opacity=".1"><path clip-path="url(#m)" d="m511.02 33.233c5.899 0 10.681-4.782 10.681-10.681s-4.782-10.681-10.681-10.681-10.681 4.782-10.681 10.681 4.782 10.681 10.681 10.681" fill="#fff"/></g><g clip-path="url(#b)" opacity=".1"><path clip-path="url(#n)" d="m28.44 48.118c-5.899 0-10.681 4.782-10.681 10.681s4.782 10.681 10.681 10.681 10.681-4.782 10.681-10.681c0-5.898-4.782-10.681-10.681-10.681" fill="#fff"/></g><g clip-path="url(#b)" opacity=".1"><path clip-path="url(#o)" d="m611.958 58.47c5.899 0 10.681-4.782 10.681-10.681s-4.782-10.681-10.681-10.681-10.681 4.782-10.681 10.681 4.782 10.681 10.681 10.681" fill="#fff"/></g><g clip-path="url(#b)" opacity=".1"><path clip-path="url(#p)" d="m646.327 73.601c-5.899 0-10.681 4.782-10.681 10.681s4.782 10.681 10.681 10.681 10.681-4.782 10.681-10.681-4.782-10.681-10.681-10.681" fill="#fff"/></g><g clip-path="url(#b)" opacity=".1"><path clip-path="url(#q)" d="m119.623 58.47c5.899 0 10.681-4.782 10.681-10.681s-4.782-10.681-10.681-10.681-10.681 4.782-10.681 10.681 4.782 10.681 10.681 10.681" fill="#fff"/></g><g clip-path="url(#b)" opacity=".1"><path clip-path="url(#r)" d="m419.837 48.118c-5.899 0-10.681 4.782-10.681 10.681s4.782 10.681 10.681 10.681 10.681-4.782 10.681-10.681c0-5.898-4.783-10.681-10.681-10.681" fill="#fff"/></g><g clip-path="url(#b)" opacity=".1"><path clip-path="url(#s)" d="m53.677 48.118c-5.899 0-10.681 4.782-10.681 10.681s4.782 10.681 10.681 10.681 10.681-4.782 10.681-10.681c0-5.898-4.783-10.681-10.681-10.681" fill="#fff"/></g><g clip-path="url(#b)" opacity=".1"><path clip-path="url(#t)" d="m485.783 58.47c5.899 0 10.681-4.782 10.681-10.681s-4.782-10.681-10.681-10.681-10.681 4.782-10.681 10.681 4.782 10.681 10.681 10.681" fill="#fff"/></g><g clip-path="url(#b)" opacity=".1"><path clip-path="url(#u)" d="m94.386 58.47c5.899 0 10.681-4.782 10.681-10.681s-4.782-10.681-10.681-10.681-10.681 4.782-10.681 10.681 4.782 10.681 10.681 10.681" fill="#fff"/></g><g clip-path="url(#b)" opacity=".1"><path clip-path="url(#v)" d="m445.073 48.118c-5.899 0-10.681 4.782-10.681 10.681s4.782 10.681 10.681 10.681 10.681-4.782 10.681-10.681c0-5.898-4.782-10.681-10.681-10.681" fill="#fff"/></g><g clip-path="url(#b)" opacity=".1"><path clip-path="url(#w)" d="m53.677 1.519c-5.899 0-10.681 4.782-10.681 10.681s4.782 10.681 10.681 10.681 10.681-4.782 10.681-10.681c0-5.898-4.783-10.681-10.681-10.681" fill="#fff"/></g><g clip-path="url(#b)" opacity=".1"><path clip-path="url(#x)" d="m485.783 105.069c5.899 0 10.681-4.782 10.681-10.681s-4.782-10.681-10.681-10.681-10.681 4.782-10.681 10.681 4.782 10.681 10.681 10.681" fill="#fff"/></g><g clip-path="url(#b)" opacity=".1"><path clip-path="url(#y)" d="m94.386 105.069c5.899 0 10.681-4.782 10.681-10.681s-4.782-10.681-10.681-10.681-10.681 4.782-10.681 10.681 4.782 10.681 10.681 10.681" fill="#fff"/></g><g clip-path="url(#b)" opacity=".1"><path clip-path="url(#z)" d="m445.073 1.519c-5.899 0-10.681 4.782-10.681 10.681s4.782 10.681 10.681 10.681 10.681-4.782 10.681-10.681c0-5.898-4.782-10.681-10.681-10.681" fill="#fff"/></g><g clip-path="url(#b)" opacity=".1"><path clip-path="url(#A)" d="m53.677-23.717c-5.899 0-10.681 4.782-10.681 10.681s4.782 10.681 10.681 10.681 10.681-4.782 10.681-10.681-4.783-10.681-10.681-10.681" fill="#fff"/></g><g clip-path="url(#b)" opacity=".1"><path clip-path="url(#B)" d="m485.783 130.306c5.899 0 10.681-4.782 10.681-10.681s-4.782-10.681-10.681-10.681-10.681 4.782-10.681 10.681c0 5.898 4.782 10.681 10.681 10.681" fill="#fff"/></g><g clip-path="url(#b)" opacity=".1"><path clip-path="url(#C)" d="m94.386 130.306c5.899 0 10.681-4.782 10.681-10.681s-4.782-10.681-10.681-10.681-10.681 4.782-10.681 10.681c0 5.898 4.782 10.681 10.681 10.681" fill="#fff"/></g><g clip-path="url(#b)" opacity=".1"><path clip-path="url(#D)" d="m445.073-23.717c-5.899 0-10.681 4.782-10.681 10.681s4.782 10.681 10.681 10.681 10.681-4.782 10.681-10.681-4.782-10.681-10.681-10.681" fill="#fff"/></g><g clip-path="url(#b)" opacity=".1"><path clip-path="url(#E)" d="m53.677-148.489c-5.899 0-10.681 4.782-10.681 10.681s4.782 10.681 10.681 10.681 10.681-4.782 10.681-10.681-4.783-10.681-10.681-10.681" fill="#fff"/></g><g clip-path="url(#b)" opacity=".1"><path clip-path="url(#F)" d="m485.783 255.077c5.899 0 10.681-4.782 10.681-10.681s-4.782-10.681-10.681-10.681-10.681 4.782-10.681 10.681 4.782 10.681 10.681 10.681" fill="#fff"/></g><g clip-path="url(#b)" opacity=".1"><path clip-path="url(#G)" d="m94.386 255.077c5.899 0 10.681-4.782 10.681-10.681s-4.782-10.681-10.681-10.681-10.681 4.782-10.681 10.681 4.782 10.681 10.681 10.681" fill="#fff"/></g><g clip-path="url(#b)" opacity=".1"><path clip-path="url(#H)" d="m445.073-148.489c-5.899 0-10.681 4.782-10.681 10.681s4.782 10.681 10.681 10.681 10.681-4.782 10.681-10.681-4.782-10.681-10.681-10.681" fill="#fff"/></g><g clip-path="url(#b)" opacity=".1"><path clip-path="url(#I)" d="m53.677-199.081c-5.899 0-10.681 4.782-10.681 10.681s4.782 10.681 10.681 10.681 10.681-4.782 10.681-10.681-4.783-10.681-10.681-10.681" fill="#fff"/></g><g clip-path="url(#b)" opacity=".1"><path clip-path="url(#J)" d="m485.783 305.669c5.899 0 10.681-4.782 10.681-10.681s-4.782-10.681-10.681-10.681-10.681 4.782-10.681 10.681 4.782 10.681 10.681 10.681" fill="#fff"/></g><g clip-path="url(#b)" opacity=".1"><path clip-path="url(#K)" d="m94.386 305.669c5.899 0 10.681-4.782 10.681-10.681s-4.782-10.681-10.681-10.681-10.681 4.782-10.681 10.681 4.782 10.681 10.681 10.681" fill="#fff"/></g><g clip-path="url(#b)" opacity=".1"><path clip-path="url(#L)" d="m445.073-199.081c-5.899 0-10.681 4.782-10.681 10.681s4.782 10.681 10.681 10.681 10.681-4.782 10.681-10.681-4.782-10.681-10.681-10.681" fill="#fff"/></g><g clip-path="url(#b)" opacity=".1"><path clip-path="url(#M)" d="m560.189 305.669c5.899 0 10.681-4.782 10.681-10.681s-4.782-10.681-10.681-10.681-10.681 4.782-10.681 10.681c-.001 5.899 4.781 10.681 10.681 10.681" fill="#fff"/></g><g clip-path="url(#b)" opacity=".1"><path clip-path="url(#N)" d="m698.097-173.599c-5.899 0-10.681 4.782-10.681 10.681s4.782 10.681 10.681 10.681 10.681-4.782 10.681-10.681c0-5.898-4.782-10.681-10.681-10.681" fill="#fff"/></g><g clip-path="url(#b)" opacity=".1"><path clip-path="url(#O)" d="m168.792 305.669c5.899 0 10.681-4.782 10.681-10.681s-4.782-10.681-10.681-10.681-10.681 4.782-10.681 10.681c-.001 5.899 4.782 10.681 10.681 10.681" fill="#fff"/></g><g clip-path="url(#b)" opacity=".1"><path clip-path="url(#P)" d="m370.668-199.081c-5.899 0-10.681 4.782-10.681 10.681s4.782 10.681 10.681 10.681 10.681-4.782 10.681-10.681-4.782-10.681-10.681-10.681" fill="#fff"/></g><g clip-path="url(#b)" opacity=".1"><path clip-path="url(#Q)" d="m53.677-75.8c-5.899 0-10.681 4.782-10.681 10.681s4.782 10.681 10.681 10.681 10.681-4.782 10.681-10.681c0-5.898-4.783-10.681-10.681-10.681" fill="#fff"/></g><g clip-path="url(#b)" opacity=".1"><path clip-path="url(#R)" d="m485.783 182.388c5.899 0 10.681-4.782 10.681-10.681s-4.782-10.681-10.681-10.681-10.681 4.782-10.681 10.681 4.782 10.681 10.681 10.681" fill="#fff"/></g><g clip-path="url(#b)" opacity=".1"><path clip-path="url(#S)" d="m94.386 182.388c5.899 0 10.681-4.782 10.681-10.681s-4.782-10.681-10.681-10.681-10.681 4.782-10.681 10.681 4.782 10.681 10.681 10.681" fill="#fff"/></g><g clip-path="url(#b)" opacity=".1"><path clip-path="url(#T)" d="m445.073-75.8c-5.899 0-10.681 4.782-10.681 10.681s4.782 10.681 10.681 10.681 10.681-4.782 10.681-10.681c0-5.898-4.782-10.681-10.681-10.681" fill="#fff"/></g><g clip-path="url(#b)" opacity=".1"><path clip-path="url(#U)" d="m582.116 93.765c5.899 0 10.681-4.782 10.681-10.681s-4.782-10.681-10.681-10.681-10.681 4.782-10.681 10.681 4.782 10.681 10.681 10.681" fill="#fff"/></g><g clip-path="url(#b)" opacity=".1"><path clip-path="url(#V)" d="m190.72 93.765c5.899 0 10.681-4.782 10.681-10.681s-4.782-10.681-10.681-10.681-10.681 4.782-10.681 10.681c-.001 5.899 4.781 10.681 10.681 10.681" fill="#fff"/></g><g clip-path="url(#b)" opacity=".1"><path clip-path="url(#W)" d="m348.74 12.823c-5.899 0-10.681 4.782-10.681 10.681s4.782 10.681 10.681 10.681 10.681-4.782 10.681-10.681-4.782-10.681-10.681-10.681" fill="#fff"/></g><g clip-path="url(#b)" opacity=".1"><path clip-path="url(#X)" d="m582.116 119.002c5.899 0 10.681-4.782 10.681-10.681s-4.782-10.681-10.681-10.681-10.681 4.782-10.681 10.681 4.782 10.681 10.681 10.681" fill="#fff"/></g><g clip-path="url(#b)" opacity=".1"><path clip-path="url(#Y)" d="m676.169 13.068c-5.899 0-10.681 4.782-10.681 10.681s4.782 10.681 10.681 10.681 10.681-4.782 10.681-10.681c0-5.898-4.782-10.681-10.681-10.681" fill="#fff"/></g><g clip-path="url(#b)" opacity=".1"><path clip-path="url(#Z)" d="m190.72 119.002c5.899 0 10.681-4.782 10.681-10.681s-4.782-10.681-10.681-10.681-10.681 4.782-10.681 10.681c-.001 5.899 4.781 10.681 10.681 10.681" fill="#fff"/></g><g clip-path="url(#b)" opacity=".1"><path clip-path="url(#aa)" d="m348.74-12.414c-5.899 0-10.681 4.782-10.681 10.681s4.782 10.681 10.681 10.681 10.681-4.782 10.681-10.681c0-5.898-4.782-10.681-10.681-10.681" fill="#fff"/></g><g clip-path="url(#b)" opacity=".1"><path clip-path="url(#ab)" d="m582.116 192.447c5.899 0 10.681-4.782 10.681-10.681s-4.782-10.681-10.681-10.681-10.681 4.782-10.681 10.681 4.782 10.681 10.681 10.681" fill="#fff"/></g><g clip-path="url(#b)" opacity=".1"><path clip-path="url(#ac)" d="m190.72 192.447c5.899 0 10.681-4.782 10.681-10.681s-4.782-10.681-10.681-10.681-10.681 4.782-10.681 10.681 4.781 10.681 10.681 10.681" fill="#fff"/></g><g clip-path="url(#b)" opacity=".1"><path clip-path="url(#ad)" d="m348.74-85.858c-5.899 0-10.681 4.782-10.681 10.681s4.782 10.681 10.681 10.681 10.681-4.782 10.681-10.681-4.782-10.681-10.681-10.681" fill="#fff"/></g><g clip-path="url(#b)" opacity=".1"><path clip-path="url(#ae)" d="m582.116 217.683c5.899 0 10.681-4.782 10.681-10.681s-4.782-10.681-10.681-10.681-10.681 4.782-10.681 10.681 4.782 10.681 10.681 10.681" fill="#fff"/></g><g clip-path="url(#b)" opacity=".1"><path clip-path="url(#af)" d="m190.72 217.683c5.899 0 10.681-4.782 10.681-10.681s-4.782-10.681-10.681-10.681-10.681 4.782-10.681 10.681c-.001 5.899 4.781 10.681 10.681 10.681" fill="#fff"/></g><g clip-path="url(#b)" opacity=".1"><path clip-path="url(#ag)" d="m348.74-111.095c-5.899 0-10.681 4.782-10.681 10.681s4.782 10.681 10.681 10.681 10.681-4.782 10.681-10.681-4.782-10.681-10.681-10.681" fill="#fff"/></g><g clip-path="url(#b)" opacity=".1"><path clip-path="url(#ah)" d="m582.116 269.011c5.899 0 10.681-4.782 10.681-10.681s-4.782-10.681-10.681-10.681-10.681 4.782-10.681 10.681c0 5.898 4.782 10.681 10.681 10.681" fill="#fff"/></g><g clip-path="url(#b)" opacity=".1"><path clip-path="url(#ai)" d="m676.169-136.94c-5.899 0-10.681 4.782-10.681 10.681s4.782 10.681 10.681 10.681 10.681-4.782 10.681-10.681-4.782-10.681-10.681-10.681" fill="#fff"/></g><g clip-path="url(#b)" opacity=".1"><path clip-path="url(#aj)" d="m190.72 269.011c5.899 0 10.681-4.782 10.681-10.681s-4.782-10.681-10.681-10.681-10.681 4.782-10.681 10.681c-.001 5.898 4.781 10.681 10.681 10.681" fill="#fff"/></g><g clip-path="url(#b)" opacity=".1"><path clip-path="url(#ak)" d="m348.74-162.422c-5.899 0-10.681 4.782-10.681 10.681s4.782 10.681 10.681 10.681 10.681-4.782 10.681-10.681-4.782-10.681-10.681-10.681" fill="#fff"/></g><g clip-path="url(#b)" opacity=".1"><path clip-path="url(#al)" d="m611.958 305.669c5.899 0 10.681-4.782 10.681-10.681s-4.782-10.681-10.681-10.681-10.681 4.782-10.681 10.681 4.782 10.681 10.681 10.681" fill="#fff"/></g><g clip-path="url(#b)" opacity=".1"><path clip-path="url(#am)" d="m646.327-173.599c-5.899 0-10.681 4.782-10.681 10.681s4.782 10.681 10.681 10.681 10.681-4.782 10.681-10.681c0-5.898-4.782-10.681-10.681-10.681" fill="#fff"/></g><g clip-path="url(#b)" opacity=".1"><path clip-path="url(#an)" d="m220.561 305.669c5.899 0 10.681-4.782 10.681-10.681s-4.782-10.681-10.681-10.681-10.681 4.782-10.681 10.681 4.782 10.681 10.681 10.681" fill="#fff"/></g><g clip-path="url(#b)" opacity=".1"><path clip-path="url(#ao)" d="m318.898-199.081c-5.899 0-10.681 4.782-10.681 10.681s4.782 10.681 10.681 10.681 10.681-4.782 10.681-10.681c.001-5.899-4.782-10.681-10.681-10.681" fill="#fff"/></g><g clip-path="url(#b)" opacity=".1"><path clip-path="url(#ap)" d="m53.677 284.307c-5.899 0-10.681 4.782-10.681 10.681s4.782 10.681 10.681 10.681 10.681-4.782 10.681-10.681-4.783-10.681-10.681-10.681" fill="#fff"/></g><g clip-path="url(#b)" opacity=".1"><path clip-path="url(#aq)" d="m485.783-177.719c5.899 0 10.681-4.782 10.681-10.681s-4.782-10.681-10.681-10.681-10.681 4.782-10.681 10.681 4.782 10.681 10.681 10.681" fill="#fff"/></g><g clip-path="url(#b)" opacity=".1"><path clip-path="url(#ar)" d="m94.386-177.719c5.899 0 10.681-4.782 10.681-10.681s-4.782-10.681-10.681-10.681-10.681 4.782-10.681 10.681 4.782 10.681 10.681 10.681" fill="#fff"/></g><g clip-path="url(#b)" opacity=".1"><path clip-path="url(#as)" d="m445.073 284.307c-5.899 0-10.681 4.782-10.681 10.681s4.782 10.681 10.681 10.681 10.681-4.782 10.681-10.681-4.782-10.681-10.681-10.681" fill="#fff"/></g><g clip-path="url(#b)" opacity=".1"><path clip-path="url(#at)" d="m53.677 159.535c-5.899 0-10.681 4.782-10.681 10.681s4.782 10.681 10.681 10.681 10.681-4.782 10.681-10.681-4.783-10.681-10.681-10.681" fill="#fff"/></g><g clip-path="url(#b)" opacity=".1"><path clip-path="url(#au)" d="m485.783-52.947c5.899 0 10.681-4.782 10.681-10.681s-4.782-10.681-10.681-10.681-10.681 4.782-10.681 10.681 4.782 10.681 10.681 10.681" fill="#fff"/></g><g clip-path="url(#b)" opacity=".1"><path clip-path="url(#av)" d="m94.386-52.947c5.899 0 10.681-4.782 10.681-10.681s-4.782-10.681-10.681-10.681-10.681 4.782-10.681 10.681 4.782 10.681 10.681 10.681" fill="#fff"/></g><g clip-path="url(#b)" opacity=".1"><path clip-path="url(#aw)" d="m445.073 159.535c-5.899 0-10.681 4.782-10.681 10.681s4.782 10.681 10.681 10.681 10.681-4.782 10.681-10.681-4.782-10.681-10.681-10.681" fill="#fff"/></g><g clip-path="url(#b)" opacity=".1"><path clip-path="url(#ax)" d="m53.677 134.299c-5.899 0-10.681 4.782-10.681 10.681s4.782 10.681 10.681 10.681 10.681-4.782 10.681-10.681-4.783-10.681-10.681-10.681" fill="#fff"/></g><g clip-path="url(#b)" opacity=".1"><path clip-path="url(#ay)" d="m94.386-27.71c5.899 0 10.681-4.782 10.681-10.681s-4.782-10.681-10.681-10.681-10.681 4.782-10.681 10.681 4.782 10.681 10.681 10.681" fill="#fff"/></g><g clip-path="url(#b)" opacity=".1"><path clip-path="url(#az)" d="m445.073 134.299c-5.899 0-10.681 4.782-10.681 10.681s4.782 10.681 10.681 10.681 10.681-4.782 10.681-10.681-4.782-10.681-10.681-10.681" fill="#fff"/></g><g clip-path="url(#b)" opacity=".1"><path clip-path="url(#aA)" d="m53.677 108.944c-5.899 0-10.681 4.782-10.681 10.681s4.782 10.681 10.681 10.681 10.681-4.782 10.681-10.681-4.783-10.681-10.681-10.681" fill="#fff"/></g><g clip-path="url(#b)" opacity=".1"><path clip-path="url(#aB)" d="m485.783-2.355c5.899 0 10.681-4.782 10.681-10.681s-4.782-10.681-10.681-10.681-10.681 4.782-10.681 10.681 4.782 10.681 10.681 10.681" fill="#fff"/></g><g clip-path="url(#b)" opacity=".1"><path clip-path="url(#aC)" d="m94.386-2.355c5.899 0 10.681-4.782 10.681-10.681s-4.782-10.681-10.681-10.681-10.681 4.782-10.681 10.681 4.782 10.681 10.681 10.681" fill="#fff"/></g><g clip-path="url(#b)" opacity=".1"><path clip-path="url(#aD)" d="m445.073 108.944c-5.899 0-10.681 4.782-10.681 10.681s4.782 10.681 10.681 10.681 10.681-4.782 10.681-10.681-4.782-10.681-10.681-10.681" fill="#fff"/></g><g clip-path="url(#b)" opacity=".1"><path clip-path="url(#aE)" d="m560.189-2.355c5.899 0 10.681-4.782 10.681-10.681s-4.782-10.681-10.681-10.681-10.681 4.782-10.681 10.681c-.001 5.899 4.781 10.681 10.681 10.681" fill="#fff"/></g><g clip-path="url(#b)" opacity=".1"><path clip-path="url(#aF)" d="m698.097 134.426c-5.899 0-10.681 4.782-10.681 10.681s4.782 10.681 10.681 10.681 10.681-4.782 10.681-10.681-4.782-10.681-10.681-10.681" fill="#fff"/></g><g clip-path="url(#b)" opacity=".1"><path clip-path="url(#aG)" d="m220.561 108.944c-5.899 0-10.681 4.782-10.681 10.681s4.782 10.681 10.681 10.681 10.681-4.782 10.681-10.681c.001-5.899-4.782-10.681-10.681-10.681" fill="#fff"/></g><g clip-path="url(#b)" opacity=".1"><path clip-path="url(#aH)" d="m318.898-2.355c5.899 0 10.681-4.782 10.681-10.681s-4.782-10.681-10.681-10.681-10.681 4.782-10.681 10.681 4.782 10.681 10.681 10.681" fill="#fff"/></g><g clip-path="url(#b)" opacity=".1"><path clip-path="url(#aI)" d="m168.792-2.355c5.899 0 10.681-4.782 10.681-10.681s-4.782-10.681-10.681-10.681-10.681 4.782-10.681 10.681c-.001 5.899 4.782 10.681 10.681 10.681" fill="#fff"/></g><g clip-path="url(#b)" opacity=".1"><path clip-path="url(#aJ)" d="m370.668 108.944c-5.899 0-10.681 4.782-10.681 10.681s4.782 10.681 10.681 10.681 10.681-4.782 10.681-10.681-4.782-10.681-10.681-10.681" fill="#fff"/></g><g clip-path="url(#b)" opacity=".1"><path clip-path="url(#aK)" d="m53.677 232.225c-5.899 0-10.681 4.782-10.681 10.681s4.782 10.681 10.681 10.681 10.681-4.782 10.681-10.681-4.783-10.681-10.681-10.681" fill="#fff"/></g><g clip-path="url(#b)" opacity=".1"><path clip-path="url(#aL)" d="m485.783-125.636c5.899 0 10.681-4.782 10.681-10.682 0-5.899-4.782-10.681-10.681-10.681s-10.681 4.782-10.681 10.681 4.782 10.682 10.681 10.682" fill="#fff"/></g><g clip-path="url(#b)" opacity=".1"><path clip-path="url(#aM)" d="m94.386-125.636c5.899 0 10.681-4.782 10.681-10.682 0-5.899-4.782-10.681-10.681-10.681s-10.681 4.782-10.681 10.681 4.782 10.682 10.681 10.682" fill="#fff"/></g><g clip-path="url(#b)" opacity=".1"><path clip-path="url(#aN)" d="m445.073 232.225c-5.899 0-10.681 4.782-10.681 10.681s4.782 10.681 10.681 10.681 10.681-4.782 10.681-10.681-4.782-10.681-10.681-10.681" fill="#fff"/></g><g clip-path="url(#b)" opacity=".1"><path clip-path="url(#aO)" d="m582.116-115.578c5.899 0 10.681-4.782 10.681-10.681s-4.782-10.681-10.681-10.681-10.681 4.782-10.681 10.681 4.782 10.681 10.681 10.681" fill="#fff"/></g><g clip-path="url(#b)" opacity=".1"><path clip-path="url(#aP)" d="m676.169 247.648c-5.899 0-10.681 4.782-10.681 10.681s4.782 10.681 10.681 10.681 10.681-4.782 10.681-10.681-4.782-10.681-10.681-10.681" fill="#fff"/></g><g clip-path="url(#b)" opacity=".1"><path clip-path="url(#aQ)" d="m190.72-115.578c5.899 0 10.681-4.782 10.681-10.681s-4.782-10.681-10.681-10.681-10.681 4.782-10.681 10.681c-.001 5.899 4.781 10.681 10.681 10.681" fill="#fff"/></g><g clip-path="url(#b)" opacity=".1"><path clip-path="url(#aR)" d="m348.74 222.166c-5.899 0-10.681 4.782-10.681 10.681s4.782 10.681 10.681 10.681 10.681-4.782 10.681-10.681-4.782-10.681-10.681-10.681" fill="#fff"/></g><g clip-path="url(#b)" opacity=".1"><path clip-path="url(#aS)" d="m582.116-90.341c5.899 0 10.681-4.782 10.681-10.681s-4.782-10.681-10.681-10.681-10.681 4.782-10.681 10.681 4.782 10.681 10.681 10.681" fill="#fff"/></g><g clip-path="url(#b)" opacity=".1"><path clip-path="url(#aT)" d="m190.72-90.341c5.899 0 10.681-4.782 10.681-10.681s-4.782-10.681-10.681-10.681-10.681 4.782-10.681 10.681c-.001 5.899 4.781 10.681 10.681 10.681" fill="#fff"/></g><g clip-path="url(#b)" opacity=".1"><path clip-path="url(#aU)" d="m348.74 196.929c-5.899 0-10.681 4.782-10.681 10.681s4.782 10.681 10.681 10.681 10.681-4.782 10.681-10.681-4.782-10.681-10.681-10.681" fill="#fff"/></g><g clip-path="url(#b)" opacity=".1"><path clip-path="url(#aV)" d="m582.116-39.014c5.899 0 10.681-4.782 10.681-10.681s-4.782-10.681-10.681-10.681-10.681 4.782-10.681 10.681 4.782 10.681 10.681 10.681" fill="#fff"/></g><g clip-path="url(#b)" opacity=".1"><path clip-path="url(#aW)" d="m190.72-39.014c5.899 0 10.681-4.782 10.681-10.681s-4.782-10.681-10.681-10.681-10.681 4.782-10.681 10.681c-.001 5.899 4.781 10.681 10.681 10.681" fill="#fff"/></g><g clip-path="url(#b)" opacity=".1"><path clip-path="url(#aX)" d="m348.74 145.602c-5.899 0-10.681 4.782-10.681 10.681s4.782 10.681 10.681 10.681 10.681-4.782 10.681-10.681-4.782-10.681-10.681-10.681" fill="#fff"/></g></g></svg>