<svg enable-background="new 0 0 700 300" height="300" viewBox="0 0 700 300" width="700" xmlns="http://www.w3.org/2000/svg" xmlns:xlink="http://www.w3.org/1999/xlink"><clipPath id="a"><path d="m-7.478-101.75h716.256v504.75h-716.256z"/></clipPath><clipPath id="b"><path d="m-7.478-101.75h716.256v504.75h-716.256z"/></clipPath><clipPath id="c"><path d="m-8.042 170.248h22.489v21.863h-22.489z"/></clipPath><clipPath id="d"><path d="m525.012 109.139h22.489v21.863h-22.489z"/></clipPath><clipPath id="e"><path d="m233.249 170.248h22.489v21.863h-22.489z"/></clipPath><clipPath id="f"><path d="m283.722 109.139h22.489v21.863h-22.489z"/></clipPath><clipPath id="g"><path d="m133.615 109.139h22.489v21.863h-22.489z"/></clipPath><clipPath id="h"><path d="m383.355 170.248h22.489v21.863h-22.489z"/></clipPath><clipPath id="i"><path d="m-8.042 145.011h22.489v21.863h-22.489z"/></clipPath><clipPath id="j"><path d="m525.012 134.376h22.489v21.863h-22.489z"/></clipPath><clipPath id="k"><path d="m233.249 145.011h22.489v21.863h-22.489z"/></clipPath><clipPath id="l"><path d="m283.722 134.376h22.489v21.863h-22.489z"/></clipPath><clipPath id="m"><path d="m499.775 109.139h22.489v21.863h-22.489z"/></clipPath><clipPath id="n"><path d="m17.195 145.011h22.489v21.863h-22.489z"/></clipPath><clipPath id="o"><path d="m600.713 134.376h22.487v21.863h-22.487z"/></clipPath><clipPath id="p"><path d="m635.082 170.493h22.487v21.863h-22.487z"/></clipPath><clipPath id="q"><path d="m108.379 134.376h22.489v21.863h-22.489z"/></clipPath><clipPath id="r"><path d="m408.592 145.011h22.489v21.863h-22.489z"/></clipPath><clipPath id="s"><path d="m42.432 145.011h22.489v21.863h-22.489z"/></clipPath><clipPath id="t"><path d="m474.539 134.376h22.489v21.863h-22.489z"/></clipPath><clipPath id="u"><path d="m83.142 134.376h22.489v21.863h-22.489z"/></clipPath><clipPath id="v"><path d="m433.829 145.011h22.489v21.863h-22.489z"/></clipPath><clipPath id="w"><path d="m42.432 98.412h22.489v21.863h-22.489z"/></clipPath><clipPath id="x"><path d="m474.539 180.974h22.489v21.863h-22.489z"/></clipPath><clipPath id="y"><path d="m83.142 180.974h22.489v21.863h-22.489z"/></clipPath><clipPath id="z"><path d="m433.829 98.412h22.489v21.863h-22.489z"/></clipPath><clipPath id="A"><path d="m42.432 73.175h22.489v21.863h-22.489z"/></clipPath><clipPath id="B"><path d="m474.539 206.212h22.489v21.863h-22.489z"/></clipPath><clipPath id="C"><path d="m83.142 206.212h22.489v21.863h-22.489z"/></clipPath><clipPath id="D"><path d="m433.829 73.175h22.489v21.863h-22.489z"/></clipPath><clipPath id="E"><path d="m42.432-51.596h22.489v21.863h-22.489z"/></clipPath><clipPath id="F"><path d="m474.539 330.983h22.489v21.863h-22.489z"/></clipPath><clipPath id="G"><path d="m83.142 330.983h22.489v21.863h-22.489z"/></clipPath><clipPath id="H"><path d="m433.829-51.596h22.489v21.863h-22.489z"/></clipPath><clipPath id="I"><path d="m42.432-102.188h22.489v21.863h-22.489z"/></clipPath><clipPath id="J"><path d="m474.539 381.575h22.489v21.863h-22.489z"/></clipPath><clipPath id="K"><path d="m83.142 381.575h22.489v21.863h-22.489z"/></clipPath><clipPath id="L"><path d="m433.829-102.188h22.489v21.863h-22.489z"/></clipPath><clipPath id="M"><path d="m548.944 381.575h22.489v21.863h-22.489z"/></clipPath><clipPath id="N"><path d="m686.855-76.706h22.487v21.863h-22.487z"/></clipPath><clipPath id="O"><path d="m157.547 381.575h22.489v21.863h-22.489z"/></clipPath><clipPath id="P"><path d="m359.423-102.188h22.489v21.863h-22.489z"/></clipPath><clipPath id="Q"><path d="m42.432 21.093h22.489v21.863h-22.489z"/></clipPath><clipPath id="R"><path d="m474.539 258.293h22.489v21.863h-22.489z"/></clipPath><clipPath id="S"><path d="m83.142 258.293h22.489v21.863h-22.489z"/></clipPath><clipPath id="T"><path d="m433.829 21.093h22.489v21.863h-22.489z"/></clipPath><clipPath id="U"><path d="m570.872 169.671h22.489v21.863h-22.489z"/></clipPath><clipPath id="V"><path d="m179.475 169.671h22.489v21.863h-22.489z"/></clipPath><clipPath id="W"><path d="m337.496 109.716h22.489v21.863h-22.489z"/></clipPath><clipPath id="X"><path d="m570.872 194.908h22.489v21.863h-22.489z"/></clipPath><clipPath id="Y"><path d="m664.925 109.961h22.487v21.863h-22.487z"/></clipPath><clipPath id="Z"><path d="m179.475 194.908h22.489v21.863h-22.489z"/></clipPath><clipPath id="aa"><path d="m337.496 84.479h22.489v21.863h-22.489z"/></clipPath><clipPath id="ab"><path d="m570.872 268.352h22.489v21.863h-22.489z"/></clipPath><clipPath id="ac"><path d="m179.475 268.352h22.489v21.863h-22.489z"/></clipPath><clipPath id="ad"><path d="m337.496 11.034h22.489v21.863h-22.489z"/></clipPath><clipPath id="ae"><path d="m570.872 293.589h22.489v21.863h-22.489z"/></clipPath><clipPath id="af"><path d="m179.475 293.589h22.489v21.863h-22.489z"/></clipPath><clipPath id="ag"><path d="m337.496-14.203h22.489v21.863h-22.489z"/></clipPath><clipPath id="ah"><path d="m570.872 344.916h22.489v21.863h-22.489z"/></clipPath><clipPath id="ai"><path d="m664.925-40.048h22.487v21.863h-22.487z"/></clipPath><clipPath id="aj"><path d="m179.475 344.916h22.489v21.863h-22.489z"/></clipPath><clipPath id="ak"><path d="m337.496-65.53h22.489v21.863h-22.489z"/></clipPath><clipPath id="al"><path d="m600.713 381.575h22.487v21.863h-22.487z"/></clipPath><clipPath id="am"><path d="m635.082-76.706h22.487v21.863h-22.487z"/></clipPath><clipPath id="an"><path d="m209.317 381.575h22.489v21.863h-22.489z"/></clipPath><clipPath id="ao"><path d="m307.654-102.188h22.489v21.863h-22.489z"/></clipPath><clipPath id="ap"><path d="m42.432 381.2h22.489v21.863h-22.489z"/></clipPath><clipPath id="aq"><path d="m474.539-101.813h22.489v21.863h-22.489z"/></clipPath><clipPath id="ar"><path d="m83.142-101.813h22.489v21.863h-22.489z"/></clipPath><clipPath id="as"><path d="m433.829 381.2h22.489v21.863h-22.489z"/></clipPath><clipPath id="at"><path d="m42.432 256.428h22.489v21.863h-22.489z"/></clipPath><clipPath id="au"><path d="m474.539 22.959h22.489v21.863h-22.489z"/></clipPath><clipPath id="av"><path d="m83.142 22.959h22.489v21.863h-22.489z"/></clipPath><clipPath id="aw"><path d="m433.829 256.428h22.489v21.863h-22.489z"/></clipPath><clipPath id="ax"><path d="m42.432 231.191h22.489v21.863h-22.489z"/></clipPath><clipPath id="ay"><path d="m83.142 48.195h22.489v21.863h-22.489z"/></clipPath><clipPath id="az"><path d="m433.829 231.191h22.489v21.863h-22.489z"/></clipPath><clipPath id="aA"><path d="m42.432 205.836h22.489v21.863h-22.489z"/></clipPath><clipPath id="aB"><path d="m474.539 73.551h22.489v21.863h-22.489z"/></clipPath><clipPath id="aC"><path d="m83.142 73.551h22.489v21.863h-22.489z"/></clipPath><clipPath id="aD"><path d="m433.829 205.836h22.489v21.863h-22.489z"/></clipPath><clipPath id="aE"><path d="m548.944 73.551h22.489v21.863h-22.489z"/></clipPath><clipPath id="aF"><path d="m686.855 231.318h22.487v21.863h-22.487z"/></clipPath><clipPath id="aG"><path d="m209.317 205.836h22.489v21.863h-22.489z"/></clipPath><clipPath id="aH"><path d="m307.654 73.551h22.489v21.863h-22.489z"/></clipPath><clipPath id="aI"><path d="m157.547 73.551h22.489v21.863h-22.489z"/></clipPath><clipPath id="aJ"><path d="m359.423 205.836h22.489v21.863h-22.489z"/></clipPath><clipPath id="aK"><path d="m42.432 329.118h22.489v21.863h-22.489z"/></clipPath><clipPath id="aL"><path d="m474.539-49.731h22.489v21.863h-22.489z"/></clipPath><clipPath id="aM"><path d="m83.142-49.731h22.489v21.863h-22.489z"/></clipPath><clipPath id="aN"><path d="m433.829 329.118h22.489v21.863h-22.489z"/></clipPath><clipPath id="aO"><path d="m570.872-39.672h22.489v21.863h-22.489z"/></clipPath><clipPath id="aP"><path d="m664.925 344.541h22.487v21.863h-22.487z"/></clipPath><clipPath id="aQ"><path d="m179.475-39.672h22.489v21.863h-22.489z"/></clipPath><clipPath id="aR"><path d="m337.496 319.059h22.489v21.863h-22.489z"/></clipPath><clipPath id="aS"><path d="m570.872-14.435h22.489v21.863h-22.489z"/></clipPath><clipPath id="aT"><path d="m179.475-14.435h22.489v21.863h-22.489z"/></clipPath><clipPath id="aU"><path d="m337.496 293.822h22.489v21.863h-22.489z"/></clipPath><clipPath id="aV"><path d="m570.872 36.892h22.489v21.863h-22.489z"/></clipPath><clipPath id="aW"><path d="m179.475 36.892h22.489v21.863h-22.489z"/></clipPath><clipPath id="aX"><path d="m337.496 242.495h22.489v21.863h-22.489z"/></clipPath><g clip-path="url(#a)" opacity=".5"><g clip-path="url(#b)" opacity=".1"><path clip-path="url(#c)" d="m3.203 170.686c-5.899 0-10.681 4.782-10.681 10.681s4.782 10.681 10.681 10.681 10.681-4.782 10.681-10.681-4.782-10.681-10.681-10.681" fill="#fff"/></g><g clip-path="url(#b)" opacity=".1"><path clip-path="url(#d)" d="m536.257 130.564c5.899 0 10.681-4.782 10.681-10.681s-4.782-10.681-10.681-10.681-10.681 4.782-10.681 10.681 4.782 10.681 10.681 10.681" fill="#fff"/></g><g clip-path="url(#b)" opacity=".1"><path clip-path="url(#e)" d="m244.493 170.686c-5.899 0-10.681 4.782-10.681 10.681s4.782 10.681 10.681 10.681 10.681-4.782 10.681-10.681-4.782-10.681-10.681-10.681" fill="#fff"/></g><g clip-path="url(#b)" opacity=".1"><path clip-path="url(#f)" d="m294.967 130.564c5.899 0 10.681-4.782 10.681-10.681s-4.782-10.681-10.681-10.681-10.681 4.782-10.681 10.681c-.001 5.899 4.782 10.681 10.681 10.681" fill="#fff"/></g><g clip-path="url(#b)" opacity=".1"><path clip-path="url(#g)" d="m144.86 130.564c5.899 0 10.681-4.782 10.681-10.681s-4.782-10.681-10.681-10.681-10.681 4.782-10.681 10.681 4.782 10.681 10.681 10.681" fill="#fff"/></g><g clip-path="url(#b)" opacity=".1"><path clip-path="url(#h)" d="m394.6 170.686c-5.899 0-10.681 4.782-10.681 10.681s4.782 10.681 10.681 10.681 10.681-4.782 10.681-10.681-4.782-10.681-10.681-10.681" fill="#fff"/></g><g clip-path="url(#b)" opacity=".1"><path clip-path="url(#i)" d="m3.203 145.449c-5.899 0-10.681 4.782-10.681 10.681s4.782 10.681 10.681 10.681 10.681-4.782 10.681-10.681-4.782-10.681-10.681-10.681" fill="#fff"/></g><g clip-path="url(#b)" opacity=".1"><path clip-path="url(#j)" d="m536.257 155.801c5.899 0 10.681-4.782 10.681-10.681s-4.782-10.681-10.681-10.681-10.681 4.782-10.681 10.681 4.782 10.681 10.681 10.681" fill="#fff"/></g><g clip-path="url(#b)" opacity=".1"><path clip-path="url(#k)" d="m244.493 145.449c-5.899 0-10.681 4.782-10.681 10.681s4.782 10.681 10.681 10.681 10.681-4.782 10.681-10.681-4.782-10.681-10.681-10.681" fill="#fff"/></g><g clip-path="url(#b)" opacity=".1"><path clip-path="url(#l)" d="m294.967 155.801c5.899 0 10.681-4.782 10.681-10.681s-4.782-10.681-10.681-10.681-10.681 4.782-10.681 10.681c-.001 5.899 4.782 10.681 10.681 10.681" fill="#fff"/></g><g clip-path="url(#b)" opacity=".1"><path clip-path="url(#m)" d="m511.02 130.564c5.899 0 10.681-4.782 10.681-10.681s-4.782-10.681-10.681-10.681-10.681 4.782-10.681 10.681 4.782 10.681 10.681 10.681" fill="#fff"/></g><g clip-path="url(#b)" opacity=".1"><path clip-path="url(#n)" d="m28.44 145.449c-5.899 0-10.681 4.782-10.681 10.681s4.782 10.681 10.681 10.681 10.681-4.782 10.681-10.681-4.782-10.681-10.681-10.681" fill="#fff"/></g><g clip-path="url(#b)" opacity=".1"><path clip-path="url(#o)" d="m611.958 155.801c5.899 0 10.681-4.782 10.681-10.681s-4.782-10.681-10.681-10.681-10.681 4.782-10.681 10.681 4.782 10.681 10.681 10.681" fill="#fff"/></g><g clip-path="url(#b)" opacity=".1"><path clip-path="url(#p)" d="m646.327 170.931c-5.899 0-10.681 4.782-10.681 10.681s4.782 10.681 10.681 10.681 10.681-4.782 10.681-10.681-4.782-10.681-10.681-10.681" fill="#fff"/></g><g clip-path="url(#b)" opacity=".1"><path clip-path="url(#q)" d="m119.623 155.801c5.899 0 10.681-4.782 10.681-10.681s-4.782-10.681-10.681-10.681-10.681 4.782-10.681 10.681 4.782 10.681 10.681 10.681" fill="#fff"/></g><g clip-path="url(#b)" opacity=".1"><path clip-path="url(#r)" d="m419.837 145.449c-5.899 0-10.681 4.782-10.681 10.681s4.782 10.681 10.681 10.681 10.681-4.782 10.681-10.681-4.783-10.681-10.681-10.681" fill="#fff"/></g><g clip-path="url(#b)" opacity=".1"><path clip-path="url(#s)" d="m53.677 145.449c-5.899 0-10.681 4.782-10.681 10.681s4.782 10.681 10.681 10.681 10.681-4.782 10.681-10.681-4.783-10.681-10.681-10.681" fill="#fff"/></g><g clip-path="url(#b)" opacity=".1"><path clip-path="url(#t)" d="m485.783 155.801c5.899 0 10.681-4.782 10.681-10.681s-4.782-10.681-10.681-10.681-10.681 4.782-10.681 10.681 4.782 10.681 10.681 10.681" fill="#fff"/></g><g clip-path="url(#b)" opacity=".1"><path clip-path="url(#u)" d="m94.386 155.801c5.899 0 10.681-4.782 10.681-10.681s-4.782-10.681-10.681-10.681-10.681 4.782-10.681 10.681 4.782 10.681 10.681 10.681" fill="#fff"/></g><g clip-path="url(#b)" opacity=".1"><path clip-path="url(#v)" d="m445.073 145.449c-5.899 0-10.681 4.782-10.681 10.681s4.782 10.681 10.681 10.681 10.681-4.782 10.681-10.681-4.782-10.681-10.681-10.681" fill="#fff"/></g><g clip-path="url(#b)" opacity=".1"><path clip-path="url(#w)" d="m53.677 98.85c-5.899 0-10.681 4.782-10.681 10.681s4.782 10.681 10.681 10.681 10.681-4.782 10.681-10.681-4.783-10.681-10.681-10.681" fill="#fff"/></g><g clip-path="url(#b)" opacity=".1"><path clip-path="url(#x)" d="m485.783 202.4c5.899 0 10.681-4.782 10.681-10.681s-4.782-10.681-10.681-10.681-10.681 4.782-10.681 10.681 4.782 10.681 10.681 10.681" fill="#fff"/></g><g clip-path="url(#b)" opacity=".1"><path clip-path="url(#y)" d="m94.386 202.4c5.899 0 10.681-4.782 10.681-10.681s-4.782-10.681-10.681-10.681-10.681 4.782-10.681 10.681 4.782 10.681 10.681 10.681" fill="#fff"/></g><g clip-path="url(#b)" opacity=".1"><path clip-path="url(#z)" d="m445.073 98.85c-5.899 0-10.681 4.782-10.681 10.681s4.782 10.681 10.681 10.681 10.681-4.782 10.681-10.681-4.782-10.681-10.681-10.681" fill="#fff"/></g><g clip-path="url(#b)" opacity=".1"><path clip-path="url(#A)" d="m53.677 73.613c-5.899 0-10.681 4.782-10.681 10.681s4.782 10.681 10.681 10.681 10.681-4.782 10.681-10.681c0-5.898-4.783-10.681-10.681-10.681" fill="#fff"/></g><g clip-path="url(#b)" opacity=".1"><path clip-path="url(#B)" d="m485.783 227.636c5.899 0 10.681-4.782 10.681-10.681s-4.782-10.681-10.681-10.681-10.681 4.782-10.681 10.681 4.782 10.681 10.681 10.681" fill="#fff"/></g><g clip-path="url(#b)" opacity=".1"><path clip-path="url(#C)" d="m94.386 227.636c5.899 0 10.681-4.782 10.681-10.681s-4.782-10.681-10.681-10.681-10.681 4.782-10.681 10.681 4.782 10.681 10.681 10.681" fill="#fff"/></g><g clip-path="url(#b)" opacity=".1"><path clip-path="url(#D)" d="m445.073 73.613c-5.899 0-10.681 4.782-10.681 10.681s4.782 10.681 10.681 10.681 10.681-4.782 10.681-10.681c0-5.898-4.782-10.681-10.681-10.681" fill="#fff"/></g><g clip-path="url(#b)" opacity=".1"><path clip-path="url(#E)" d="m53.677-51.158c-5.899 0-10.681 4.782-10.681 10.681s4.782 10.681 10.681 10.681 10.681-4.782 10.681-10.681-4.783-10.681-10.681-10.681" fill="#fff"/></g><g clip-path="url(#b)" opacity=".1"><path clip-path="url(#F)" d="m485.783 352.408c5.899 0 10.681-4.782 10.681-10.681s-4.782-10.681-10.681-10.681-10.681 4.782-10.681 10.681 4.782 10.681 10.681 10.681" fill="#fff"/></g><g clip-path="url(#b)" opacity=".1"><path clip-path="url(#G)" d="m94.386 352.408c5.899 0 10.681-4.782 10.681-10.681s-4.782-10.681-10.681-10.681-10.681 4.782-10.681 10.681 4.782 10.681 10.681 10.681" fill="#fff"/></g><g clip-path="url(#b)" opacity=".1"><path clip-path="url(#H)" d="m445.073-51.158c-5.899 0-10.681 4.782-10.681 10.681s4.782 10.681 10.681 10.681 10.681-4.782 10.681-10.681-4.782-10.681-10.681-10.681" fill="#fff"/></g><g clip-path="url(#b)" opacity=".1"><path clip-path="url(#I)" d="m53.677-101.75c-5.899 0-10.681 4.782-10.681 10.681s4.782 10.681 10.681 10.681 10.681-4.782 10.681-10.681-4.783-10.681-10.681-10.681" fill="#fff"/></g><g clip-path="url(#b)" opacity=".1"><path clip-path="url(#J)" d="m485.783 403c5.899 0 10.681-4.782 10.681-10.681s-4.782-10.681-10.681-10.681-10.681 4.782-10.681 10.681 4.782 10.681 10.681 10.681" fill="#fff"/></g><g clip-path="url(#b)" opacity=".1"><path clip-path="url(#K)" d="m94.386 403c5.899 0 10.681-4.782 10.681-10.681s-4.782-10.681-10.681-10.681-10.681 4.782-10.681 10.681 4.782 10.681 10.681 10.681" fill="#fff"/></g><g clip-path="url(#b)" opacity=".1"><path clip-path="url(#L)" d="m445.073-101.75c-5.899 0-10.681 4.782-10.681 10.681s4.782 10.681 10.681 10.681 10.681-4.782 10.681-10.681-4.782-10.681-10.681-10.681" fill="#fff"/></g><g clip-path="url(#b)" opacity=".1"><path clip-path="url(#M)" d="m560.189 403c5.899 0 10.681-4.782 10.681-10.681s-4.782-10.681-10.681-10.681-10.681 4.782-10.681 10.681c-.001 5.899 4.781 10.681 10.681 10.681" fill="#fff"/></g><g clip-path="url(#b)" opacity=".1"><path clip-path="url(#N)" d="m698.097-76.268c-5.899 0-10.681 4.782-10.681 10.681s4.782 10.681 10.681 10.681 10.681-4.782 10.681-10.681-4.782-10.681-10.681-10.681" fill="#fff"/></g><g clip-path="url(#b)" opacity=".1"><path clip-path="url(#O)" d="m168.792 403c5.899 0 10.681-4.782 10.681-10.681s-4.782-10.681-10.681-10.681-10.681 4.782-10.681 10.681c-.001 5.899 4.782 10.681 10.681 10.681" fill="#fff"/></g><g clip-path="url(#b)" opacity=".1"><path clip-path="url(#P)" d="m370.668-101.75c-5.899 0-10.681 4.782-10.681 10.681s4.782 10.681 10.681 10.681 10.681-4.782 10.681-10.681-4.782-10.681-10.681-10.681" fill="#fff"/></g><g clip-path="url(#b)" opacity=".1"><path clip-path="url(#Q)" d="m53.677 21.531c-5.899 0-10.681 4.782-10.681 10.681s4.782 10.681 10.681 10.681 10.681-4.782 10.681-10.681-4.783-10.681-10.681-10.681" fill="#fff"/></g><g clip-path="url(#b)" opacity=".1"><path clip-path="url(#R)" d="m485.783 279.719c5.899 0 10.681-4.782 10.681-10.681s-4.782-10.681-10.681-10.681-10.681 4.782-10.681 10.681c0 5.898 4.782 10.681 10.681 10.681" fill="#fff"/></g><g clip-path="url(#b)" opacity=".1"><path clip-path="url(#S)" d="m94.386 279.719c5.899 0 10.681-4.782 10.681-10.681s-4.782-10.681-10.681-10.681-10.681 4.782-10.681 10.681c0 5.898 4.782 10.681 10.681 10.681" fill="#fff"/></g><g clip-path="url(#b)" opacity=".1"><path clip-path="url(#T)" d="m445.073 21.531c-5.899 0-10.681 4.782-10.681 10.681s4.782 10.681 10.681 10.681 10.681-4.782 10.681-10.681-4.782-10.681-10.681-10.681" fill="#fff"/></g><g clip-path="url(#b)" opacity=".1"><path clip-path="url(#U)" d="m582.116 191.096c5.899 0 10.681-4.782 10.681-10.681s-4.782-10.681-10.681-10.681-10.681 4.782-10.681 10.681 4.782 10.681 10.681 10.681" fill="#fff"/></g><g clip-path="url(#b)" opacity=".1"><path clip-path="url(#V)" d="m190.72 191.096c5.899 0 10.681-4.782 10.681-10.681s-4.782-10.681-10.681-10.681-10.681 4.782-10.681 10.681c-.001 5.899 4.781 10.681 10.681 10.681" fill="#fff"/></g><g clip-path="url(#b)" opacity=".1"><path clip-path="url(#W)" d="m348.74 110.154c-5.899 0-10.681 4.782-10.681 10.681s4.782 10.681 10.681 10.681 10.681-4.782 10.681-10.681-4.782-10.681-10.681-10.681" fill="#fff"/></g><g clip-path="url(#b)" opacity=".1"><path clip-path="url(#X)" d="m582.116 216.333c5.899 0 10.681-4.782 10.681-10.681s-4.782-10.681-10.681-10.681-10.681 4.782-10.681 10.681 4.782 10.681 10.681 10.681" fill="#fff"/></g><g clip-path="url(#b)" opacity=".1"><path clip-path="url(#Y)" d="m676.169 110.399c-5.899 0-10.681 4.782-10.681 10.681s4.782 10.681 10.681 10.681 10.681-4.782 10.681-10.681-4.782-10.681-10.681-10.681" fill="#fff"/></g><g clip-path="url(#b)" opacity=".1"><path clip-path="url(#Z)" d="m190.72 216.333c5.899 0 10.681-4.782 10.681-10.681s-4.782-10.681-10.681-10.681-10.681 4.782-10.681 10.681c-.001 5.899 4.781 10.681 10.681 10.681" fill="#fff"/></g><g clip-path="url(#b)" opacity=".1"><path clip-path="url(#aa)" d="m348.74 84.917c-5.899 0-10.681 4.782-10.681 10.681s4.782 10.681 10.681 10.681 10.681-4.782 10.681-10.681-4.782-10.681-10.681-10.681" fill="#fff"/></g><g clip-path="url(#b)" opacity=".1"><path clip-path="url(#ab)" d="m582.116 289.777c5.899 0 10.681-4.782 10.681-10.681s-4.782-10.681-10.681-10.681-10.681 4.782-10.681 10.681 4.782 10.681 10.681 10.681" fill="#fff"/></g><g clip-path="url(#b)" opacity=".1"><path clip-path="url(#ac)" d="m190.72 289.777c5.899 0 10.681-4.782 10.681-10.681s-4.782-10.681-10.681-10.681-10.681 4.782-10.681 10.681 4.781 10.681 10.681 10.681" fill="#fff"/></g><g clip-path="url(#b)" opacity=".1"><path clip-path="url(#ad)" d="m348.74 11.472c-5.899 0-10.681 4.782-10.681 10.681s4.782 10.681 10.681 10.681 10.681-4.782 10.681-10.681c0-5.898-4.782-10.681-10.681-10.681" fill="#fff"/></g><g clip-path="url(#b)" opacity=".1"><path clip-path="url(#ae)" d="m582.116 315.014c5.899 0 10.681-4.782 10.681-10.681s-4.782-10.681-10.681-10.681-10.681 4.782-10.681 10.681 4.782 10.681 10.681 10.681" fill="#fff"/></g><g clip-path="url(#b)" opacity=".1"><path clip-path="url(#af)" d="m190.72 315.014c5.899 0 10.681-4.782 10.681-10.681s-4.782-10.681-10.681-10.681-10.681 4.782-10.681 10.681c-.001 5.899 4.781 10.681 10.681 10.681" fill="#fff"/></g><g clip-path="url(#b)" opacity=".1"><path clip-path="url(#ag)" d="m348.74-13.764c-5.899 0-10.681 4.782-10.681 10.681s4.782 10.681 10.681 10.681 10.681-4.782 10.681-10.681-4.782-10.681-10.681-10.681" fill="#fff"/></g><g clip-path="url(#b)" opacity=".1"><path clip-path="url(#ah)" d="m582.116 366.341c5.899 0 10.681-4.782 10.681-10.681s-4.782-10.681-10.681-10.681-10.681 4.782-10.681 10.681 4.782 10.681 10.681 10.681" fill="#fff"/></g><g clip-path="url(#b)" opacity=".1"><path clip-path="url(#ai)" d="m676.169-39.609c-5.899 0-10.681 4.782-10.681 10.681s4.782 10.681 10.681 10.681 10.681-4.782 10.681-10.681-4.782-10.681-10.681-10.681" fill="#fff"/></g><g clip-path="url(#b)" opacity=".1"><path clip-path="url(#aj)" d="m190.72 366.341c5.899 0 10.681-4.782 10.681-10.681s-4.782-10.681-10.681-10.681-10.681 4.782-10.681 10.681c-.001 5.899 4.781 10.681 10.681 10.681" fill="#fff"/></g><g clip-path="url(#b)" opacity=".1"><path clip-path="url(#ak)" d="m348.74-65.091c-5.899 0-10.681 4.782-10.681 10.681s4.782 10.681 10.681 10.681 10.681-4.782 10.681-10.681-4.782-10.681-10.681-10.681" fill="#fff"/></g><g clip-path="url(#b)" opacity=".1"><path clip-path="url(#al)" d="m611.958 403c5.899 0 10.681-4.782 10.681-10.681s-4.782-10.681-10.681-10.681-10.681 4.782-10.681 10.681 4.782 10.681 10.681 10.681" fill="#fff"/></g><g clip-path="url(#b)" opacity=".1"><path clip-path="url(#am)" d="m646.327-76.268c-5.899 0-10.681 4.782-10.681 10.681s4.782 10.681 10.681 10.681 10.681-4.782 10.681-10.681-4.782-10.681-10.681-10.681" fill="#fff"/></g><g clip-path="url(#b)" opacity=".1"><path clip-path="url(#an)" d="m220.561 403c5.899 0 10.681-4.782 10.681-10.681s-4.782-10.681-10.681-10.681-10.681 4.782-10.681 10.681 4.782 10.681 10.681 10.681" fill="#fff"/></g><g clip-path="url(#b)" opacity=".1"><path clip-path="url(#ao)" d="m318.898-101.75c-5.899 0-10.681 4.782-10.681 10.681s4.782 10.681 10.681 10.681 10.681-4.782 10.681-10.681c.001-5.899-4.782-10.681-10.681-10.681" fill="#fff"/></g><g clip-path="url(#b)" opacity=".1"><path clip-path="url(#ap)" d="m53.677 381.638c-5.899 0-10.681 4.782-10.681 10.681s4.782 10.681 10.681 10.681 10.681-4.782 10.681-10.681-4.783-10.681-10.681-10.681" fill="#fff"/></g><g clip-path="url(#b)" opacity=".1"><path clip-path="url(#aq)" d="m485.783-80.388c5.899 0 10.681-4.782 10.681-10.681s-4.782-10.681-10.681-10.681-10.681 4.782-10.681 10.681 4.782 10.681 10.681 10.681" fill="#fff"/></g><g clip-path="url(#b)" opacity=".1"><path clip-path="url(#ar)" d="m94.386-80.388c5.899 0 10.681-4.782 10.681-10.681s-4.782-10.681-10.681-10.681-10.681 4.782-10.681 10.681 4.782 10.681 10.681 10.681" fill="#fff"/></g><g clip-path="url(#b)" opacity=".1"><path clip-path="url(#as)" d="m445.073 381.638c-5.899 0-10.681 4.782-10.681 10.681s4.782 10.681 10.681 10.681 10.681-4.782 10.681-10.681-4.782-10.681-10.681-10.681" fill="#fff"/></g><g clip-path="url(#b)" opacity=".1"><path clip-path="url(#at)" d="m53.677 256.866c-5.899 0-10.681 4.782-10.681 10.681s4.782 10.681 10.681 10.681 10.681-4.782 10.681-10.681-4.783-10.681-10.681-10.681" fill="#fff"/></g><g clip-path="url(#b)" opacity=".1"><path clip-path="url(#au)" d="m485.783 44.384c5.899 0 10.681-4.782 10.681-10.681s-4.782-10.681-10.681-10.681-10.681 4.782-10.681 10.681 4.782 10.681 10.681 10.681" fill="#fff"/></g><g clip-path="url(#b)" opacity=".1"><path clip-path="url(#av)" d="m94.386 44.384c5.899 0 10.681-4.782 10.681-10.681s-4.782-10.681-10.681-10.681-10.681 4.782-10.681 10.681 4.782 10.681 10.681 10.681" fill="#fff"/></g><g clip-path="url(#b)" opacity=".1"><path clip-path="url(#aw)" d="m445.073 256.866c-5.899 0-10.681 4.782-10.681 10.681s4.782 10.681 10.681 10.681 10.681-4.782 10.681-10.681-4.782-10.681-10.681-10.681" fill="#fff"/></g><g clip-path="url(#b)" opacity=".1"><path clip-path="url(#ax)" d="m53.677 231.629c-5.899 0-10.681 4.782-10.681 10.681s4.782 10.681 10.681 10.681 10.681-4.782 10.681-10.681-4.783-10.681-10.681-10.681" fill="#fff"/></g><g clip-path="url(#b)" opacity=".1"><path clip-path="url(#ay)" d="m94.386 69.621c5.899 0 10.681-4.782 10.681-10.681s-4.782-10.681-10.681-10.681-10.681 4.782-10.681 10.681c0 5.898 4.782 10.681 10.681 10.681" fill="#fff"/></g><g clip-path="url(#b)" opacity=".1"><path clip-path="url(#az)" d="m445.073 231.629c-5.899 0-10.681 4.782-10.681 10.681s4.782 10.681 10.681 10.681 10.681-4.782 10.681-10.681-4.782-10.681-10.681-10.681" fill="#fff"/></g><g clip-path="url(#b)" opacity=".1"><path clip-path="url(#aA)" d="m53.677 206.274c-5.899 0-10.681 4.782-10.681 10.681s4.782 10.681 10.681 10.681 10.681-4.782 10.681-10.681-4.783-10.681-10.681-10.681" fill="#fff"/></g><g clip-path="url(#b)" opacity=".1"><path clip-path="url(#aB)" d="m485.783 94.976c5.899 0 10.681-4.782 10.681-10.681s-4.782-10.681-10.681-10.681-10.681 4.782-10.681 10.681 4.782 10.681 10.681 10.681" fill="#fff"/></g><g clip-path="url(#b)" opacity=".1"><path clip-path="url(#aC)" d="m94.386 94.976c5.899 0 10.681-4.782 10.681-10.681s-4.782-10.681-10.681-10.681-10.681 4.782-10.681 10.681 4.782 10.681 10.681 10.681" fill="#fff"/></g><g clip-path="url(#b)" opacity=".1"><path clip-path="url(#aD)" d="m445.073 206.274c-5.899 0-10.681 4.782-10.681 10.681s4.782 10.681 10.681 10.681 10.681-4.782 10.681-10.681-4.782-10.681-10.681-10.681" fill="#fff"/></g><g clip-path="url(#b)" opacity=".1"><path clip-path="url(#aE)" d="m560.189 94.976c5.899 0 10.681-4.782 10.681-10.681s-4.782-10.681-10.681-10.681-10.681 4.782-10.681 10.681c-.001 5.899 4.781 10.681 10.681 10.681" fill="#fff"/></g><g clip-path="url(#b)" opacity=".1"><path clip-path="url(#aF)" d="m698.097 231.756c-5.899 0-10.681 4.782-10.681 10.681s4.782 10.681 10.681 10.681 10.681-4.782 10.681-10.681-4.782-10.681-10.681-10.681" fill="#fff"/></g><g clip-path="url(#b)" opacity=".1"><path clip-path="url(#aG)" d="m220.561 206.274c-5.899 0-10.681 4.782-10.681 10.681s4.782 10.681 10.681 10.681 10.681-4.782 10.681-10.681c.001-5.899-4.782-10.681-10.681-10.681" fill="#fff"/></g><g clip-path="url(#b)" opacity=".1"><path clip-path="url(#aH)" d="m318.898 94.976c5.899 0 10.681-4.782 10.681-10.681s-4.782-10.681-10.681-10.681-10.681 4.782-10.681 10.681 4.782 10.681 10.681 10.681" fill="#fff"/></g><g clip-path="url(#b)" opacity=".1"><path clip-path="url(#aI)" d="m168.792 94.976c5.899 0 10.681-4.782 10.681-10.681s-4.782-10.681-10.681-10.681-10.681 4.782-10.681 10.681c-.001 5.899 4.782 10.681 10.681 10.681" fill="#fff"/></g><g clip-path="url(#b)" opacity=".1"><path clip-path="url(#aJ)" d="m370.668 206.274c-5.899 0-10.681 4.782-10.681 10.681s4.782 10.681 10.681 10.681 10.681-4.782 10.681-10.681-4.782-10.681-10.681-10.681" fill="#fff"/></g><g clip-path="url(#b)" opacity=".1"><path clip-path="url(#aK)" d="m53.677 329.556c-5.899 0-10.681 4.782-10.681 10.681s4.782 10.681 10.681 10.681 10.681-4.782 10.681-10.681-4.783-10.681-10.681-10.681" fill="#fff"/></g><g clip-path="url(#b)" opacity=".1"><path clip-path="url(#aL)" d="m485.783-28.306c5.899 0 10.681-4.782 10.681-10.681s-4.782-10.681-10.681-10.681-10.681 4.782-10.681 10.681 4.782 10.681 10.681 10.681" fill="#fff"/></g><g clip-path="url(#b)" opacity=".1"><path clip-path="url(#aM)" d="m94.386-28.306c5.899 0 10.681-4.782 10.681-10.681s-4.782-10.681-10.681-10.681-10.681 4.782-10.681 10.681 4.782 10.681 10.681 10.681" fill="#fff"/></g><g clip-path="url(#b)" opacity=".1"><path clip-path="url(#aN)" d="m445.073 329.556c-5.899 0-10.681 4.782-10.681 10.681s4.782 10.681 10.681 10.681 10.681-4.782 10.681-10.681-4.782-10.681-10.681-10.681" fill="#fff"/></g><g clip-path="url(#b)" opacity=".1"><path clip-path="url(#aO)" d="m582.116-18.247c5.899 0 10.681-4.782 10.681-10.681s-4.782-10.681-10.681-10.681-10.681 4.782-10.681 10.681 4.782 10.681 10.681 10.681" fill="#fff"/></g><g clip-path="url(#b)" opacity=".1"><path clip-path="url(#aP)" d="m676.169 344.979c-5.899 0-10.681 4.782-10.681 10.681s4.782 10.681 10.681 10.681 10.681-4.782 10.681-10.681-4.782-10.681-10.681-10.681" fill="#fff"/></g><g clip-path="url(#b)" opacity=".1"><path clip-path="url(#aQ)" d="m190.72-18.247c5.899 0 10.681-4.782 10.681-10.681s-4.782-10.681-10.681-10.681-10.681 4.782-10.681 10.681c-.001 5.899 4.781 10.681 10.681 10.681" fill="#fff"/></g><g clip-path="url(#b)" opacity=".1"><path clip-path="url(#aR)" d="m348.74 319.497c-5.899 0-10.681 4.782-10.681 10.681s4.782 10.681 10.681 10.681 10.681-4.782 10.681-10.681-4.782-10.681-10.681-10.681" fill="#fff"/></g><g clip-path="url(#b)" opacity=".1"><path clip-path="url(#aS)" d="m582.116 6.99c5.899 0 10.681-4.782 10.681-10.681s-4.782-10.681-10.681-10.681-10.681 4.782-10.681 10.681 4.782 10.681 10.681 10.681" fill="#fff"/></g><g clip-path="url(#b)" opacity=".1"><path clip-path="url(#aT)" d="m190.72 6.99c5.899 0 10.681-4.782 10.681-10.681s-4.782-10.681-10.681-10.681-10.681 4.782-10.681 10.681c-.001 5.899 4.781 10.681 10.681 10.681" fill="#fff"/></g><g clip-path="url(#b)" opacity=".1"><path clip-path="url(#aU)" d="m348.74 294.26c-5.899 0-10.681 4.782-10.681 10.681s4.782 10.681 10.681 10.681 10.681-4.782 10.681-10.681-4.782-10.681-10.681-10.681" fill="#fff"/></g><g clip-path="url(#b)" opacity=".1"><path clip-path="url(#aV)" d="m582.116 58.317c5.899 0 10.681-4.782 10.681-10.681s-4.782-10.681-10.681-10.681-10.681 4.782-10.681 10.681 4.782 10.681 10.681 10.681" fill="#fff"/></g><g clip-path="url(#b)" opacity=".1"><path clip-path="url(#aW)" d="m190.72 58.317c5.899 0 10.681-4.782 10.681-10.681s-4.782-10.681-10.681-10.681-10.681 4.782-10.681 10.681c-.001 5.899 4.781 10.681 10.681 10.681" fill="#fff"/></g><g clip-path="url(#b)" opacity=".1"><path clip-path="url(#aX)" d="m348.74 242.933c-5.899 0-10.681 4.782-10.681 10.681s4.782 10.681 10.681 10.681 10.681-4.782 10.681-10.681-4.782-10.681-10.681-10.681" fill="#fff"/></g></g></svg>