<?xml version="1.0" encoding="utf-8"?>
<!-- Generator: Adobe Illustrator 24.1.0, SVG Export Plug-In . SVG Version: 6.00 Build 0)  -->
<svg version="1.1" id="Layer_1" xmlns="http://www.w3.org/2000/svg" xmlns:xlink="http://www.w3.org/1999/xlink" x="0px" y="0px"
	 viewBox="0 0 80 80" style="enable-background:new 0 0 80 80;" xml:space="preserve">
<style type="text/css">
	.st0{fill:#FFFFFF;}
</style>
<g>
	<path class="st0" d="M38.8,34.2c-0.8,0.2-1.5,0.5-2.2,0.9l-1.5-1.2l-2.1,2l1.2,1.4c-0.4,0.6-0.7,1.4-0.9,2.1l-1.9,0.2v2.8l1.3,0.1
		l2.5-2.3c0.1-0.1,0.3-0.2,0.5-0.2c0.2,0,0.3,0.1,0.5,0.2c0.3,0.2,0.3,0.7,0,0.9l-2.5,2.4c0.2,0.4,0.4,0.9,0.6,1.2L33,46.1l2.1,2
		l1.5-1.2c0.7,0.4,1.4,0.7,2.2,0.9l0.2,1.8h3l0.2-1.8c0.8-0.2,1.6-0.5,2.2-0.9l1.5,1.2l2.1-2l-1.2-1.4c0.4-0.6,0.7-1.4,0.9-2.1
		l1.9-0.2v-2.8l-1.9-0.2c-0.2-0.8-0.5-1.5-0.9-2.1l1.2-1.4l-1.1-1.1l-3.3,3.1c-0.1,0.1-0.3,0.2-0.5,0.2c-0.2,0-0.3-0.1-0.5-0.2
		c-0.3-0.2-0.3-0.7,0-0.9l3.3-3.1l0,0l-1.5,1.2c-0.7-0.4-1.4-0.7-2.2-0.9l-0.2-1.8h-3L38.8,34.2z M43.4,41c0,1.6-1.4,2.9-3,2.9
		c-1.7,0-3-1.3-3-2.9s1.4-2.9,3-2.9C42.1,38.2,43.4,39.5,43.4,41z"/>
	<path class="st0" d="M54.2,19.8H25.8c-1.5,0-2.7,1.2-2.7,2.6v36c0,1.4,1.2,2.6,2.7,2.6h28.4c1.5,0,2.7-1.2,2.7-2.6V27.9v-4.5v-1
		C56.9,20.9,55.7,19.8,54.2,19.8z M26.4,21h27.1c0.8,0,1.6,0.5,1.9,1.2h-31C24.8,21.4,25.6,21,26.4,21z M55.7,24.5L55.7,24.5v0.1
		L45.8,34l-3.3,3.1c-0.2,0.2-0.2,0.6,0,0.8c0.2,0.2,0.6,0.2,0.8,0l3.3-3.1l9-8.6v0.1v0.1v1.6v29.9c0,1.1-1,2-2.1,2H26.4
		c-1.2,0-2.1-0.9-2.1-2V23.4h31.4V24.5z"/>
	<path class="st0" d="M28.9,36.3L40,25.8c0.2-0.2,0.2-0.6,0-0.8c-0.2-0.2-0.6-0.2-0.9,0L28.1,35.5c-0.2,0.2-0.2,0.6,0,0.8
		C28.3,36.6,28.7,36.6,28.9,36.3z"/>
	<path class="st0" d="M27.1,38.2c0.4,0,0.6-0.3,0.6-0.6c0-0.3-0.3-0.6-0.6-0.6s-0.6,0.3-0.6,0.6C26.4,37.9,26.7,38.2,27.1,38.2z"/>
	<path class="st0" d="M33.5,49.8l-6.8,6.5c-0.2,0.2-0.2,0.6,0,0.8c0.2,0.2,0.6,0.2,0.9,0l6.8-6.5c0.2-0.2,0.2-0.6,0-0.8
		S33.8,49.6,33.5,49.8z"/>
	<path class="st0" d="M29.1,47.6l4.4-4.2l2.5-2.3c0.2-0.2,0.2-0.6,0-0.8c-0.1-0.1-0.3-0.2-0.4-0.2c-0.2,0-0.3,0.1-0.4,0.2l-2.4,2.3
		l-4.4,4.2c-0.2,0.2-0.2,0.6,0,0.8C28.5,47.8,28.9,47.8,29.1,47.6z"/>
	<path class="st0" d="M45.6,55.1c0.2,0.2,0.6,0.2,0.9,0l6.8-6.5c0.2-0.2,0.2-0.6,0-0.8c-0.2-0.2-0.6-0.2-0.9,0l-6.8,6.5
		C45.4,54.5,45.4,54.8,45.6,55.1z"/>
</g>
</svg>
