<?xml version="1.0" encoding="utf-8"?>
<!-- Generator: Adobe Illustrator 24.1.0, SVG Export Plug-In . SVG Version: 6.00 Build 0)  -->
<svg version="1.1" id="Layer_1" xmlns="http://www.w3.org/2000/svg" xmlns:xlink="http://www.w3.org/1999/xlink" x="0px" y="0px"
	 viewBox="0 0 80 80" style="enable-background:new 0 0 80 80;" xml:space="preserve">
<style type="text/css">
	.st0{fill:#FFFFFF;}
</style>
<g>
	<path class="st0" d="M46.5,62.3l2.3,1.9l3.2-3.3l-1.9-2.3c0.7-1.1,1.2-2.2,1.4-3.5l2.9-0.3v-4.6l-2.9-0.3c-0.3-1.2-0.8-2.4-1.4-3.5
		L52,44l-3.2-3.3l-2.3,1.9c-1.1-0.7-2.2-1.2-3.5-1.4l-0.3-3H38l-0.3,3c-1.2,0.3-2.4,0.8-3.5,1.4l-2.3-1.9L28.6,44l1.9,2.3
		c-0.7,1.1-1.1,2.2-1.4,3.5l-3,0.3v4.6l3,0.3c0.3,1.2,0.8,2.4,1.4,3.5l-1.9,2.3l3.2,3.3l2.3-1.9c1,0.7,2.2,1.2,3.5,1.4l0.3,3h4.6
		l0.3-3C44.2,63.5,45.4,63,46.5,62.3z M40.4,57.3c-2.6,0-4.7-2.1-4.7-4.7c0-2.6,2.1-4.7,4.7-4.7s4.7,2.1,4.7,4.7
		C45.1,55.2,43,57.3,40.4,57.3z"/>
	<path class="st0" d="M28.3,22.6c-0.2-0.5-1-0.5-1.3,0l-4.3,8.5v0.1c-1.1,2.9,0.4,6,3.2,7.2c0.6,0.2,1.2,0.3,1.7,0.3l0,0l0,0
		c0.6,0,1.2-0.1,1.8-0.3c2.8-1.1,4.3-4.3,3.2-7.2L28.3,22.6z M29.2,37.5c-0.5,0.2-1,0.3-1.5,0.3l0,0c-0.5,0-1-0.1-1.5-0.3
		c-2.4-0.9-3.7-3.6-2.8-6.1l4.3-8.4l4.2,8.3C32.9,33.9,31.6,36.6,29.2,37.5z"/>
	<path class="st0" d="M53.3,22.6c-0.2-0.5-1-0.5-1.3,0l-4.3,8.5v0.1c-1.1,2.9,0.4,6,3.2,7.2c0.6,0.2,1.2,0.3,1.7,0.3l0,0l0,0
		c0.6,0,1.2-0.1,1.8-0.3c2.8-1.1,4.3-4.3,3.2-7.2L53.3,22.6z M54.2,37.5c-0.5,0.2-1,0.3-1.5,0.3l0,0c-0.5,0-1-0.1-1.5-0.3
		c-2.4-0.9-3.7-3.6-2.8-6.1l4.3-8.4l4.2,8.3C57.8,33.9,56.6,36.6,54.2,37.5z"/>
	<path class="st0" d="M41.1,14.8c-0.2-0.5-1-0.5-1.3,0l-4.3,8.5v0.1c-1.1,2.9,0.4,6,3.2,7.2c0.6,0.2,1.2,0.3,1.8,0.3l0,0l0,0
		c0.6,0,1.2-0.1,1.8-0.3c2.8-1.1,4.3-4.3,3.2-7.2L41.1,14.8z M42,29.7c-0.5,0.2-1,0.3-1.5,0.3s-1-0.1-1.5-0.3
		c-2.4-0.9-3.7-3.6-2.8-6.1l4.3-8.4l4.2,8.3C45.6,26.1,44.4,28.8,42,29.7z"/>
</g>
</svg>
