<?xml version="1.0" encoding="utf-8"?>
<!-- Generator: Adobe Illustrator 24.1.0, SVG Export Plug-In . SVG Version: 6.00 Build 0)  -->
<svg version="1.1" id="Layer_1" xmlns="http://www.w3.org/2000/svg" xmlns:xlink="http://www.w3.org/1999/xlink" x="0px" y="0px"
	 viewBox="0 0 80 80" style="enable-background:new 0 0 80 80;" xml:space="preserve">
<style type="text/css">
	.st0{fill:#FFFFFF;}
</style>
<g>
	<path class="st0" d="M43.7,30.1c-1.6,0-3,1.4-3,3.1c0,1.7,1.3,3.1,3,3.1c1.6,0,3-1.4,3-3.1C46.7,31.5,45.4,30.1,43.7,30.1z"/>
	<path class="st0" d="M33.3,33.2c-1.6,0-3,1.4-3,3.1c0,1.7,1.3,3.1,3,3.1s3-1.4,3-3.1C36.3,34.6,35,33.2,33.3,33.2z"/>
	<path class="st0" d="M52.6,37.9c-1.6,0-3,1.4-3,3.1c0,1.7,1.3,3.1,3,3.1s3-1.4,3-3.1C55.6,39.3,54.3,37.9,52.6,37.9z"/>
	<path class="st0" d="M63,36.4c-1.6,0-3,1.4-3,3.1c0,1.7,1.3,3.1,3,3.1c1.6,0,3-1.4,3-3.1C66,37.8,64.7,36.4,63,36.4z"/>
	<path class="st0" d="M40.7,42.6c-1.6,0-3,1.4-3,3.1c0,1.7,1.3,3.1,3,3.1c1.6,0,3-1.4,3-3.1C43.7,44,42.4,42.6,40.7,42.6z"/>
	<path class="st0" d="M30.3,47.4c-1.6,0-3,1.4-3,3.1s1.3,3.1,3,3.1s3-1.4,3-3.1S32,47.4,30.3,47.4z"/>
	<path class="st0" d="M17,48.9c1.6,0,3-1.4,3-3.1c0-1.7-1.3-3.1-3-3.1c-1.6,0-3,1.4-3,3.1v0C14,47.5,15.3,48.9,17,48.9z"/>
</g>
</svg>
