<?xml version="1.0" encoding="utf-8"?>
<!-- Generator: Adobe Illustrator 24.1.0, SVG Export Plug-In . SVG Version: 6.00 Build 0)  -->
<svg version="1.1" id="Layer_1" xmlns="http://www.w3.org/2000/svg" xmlns:xlink="http://www.w3.org/1999/xlink" x="0px" y="0px"
	 viewBox="0 0 80 80" style="enable-background:new 0 0 80 80;" xml:space="preserve">
<style type="text/css">
	.st0{fill:#FFFFFF;}
</style>
<g>
	<path class="st0" d="M54.9,37.2c0-0.3-0.1-1.6-1.1-2.5c-0.4-0.4-3.6-3.7-6.2-6.4c-2.7-2.9-4.4-4.6-4.7-4.9
		c-0.1-0.1-0.2-0.2-0.3-0.3c-0.9-1-3.2-3.3-6.4-3.1c-0.9,0-2.3,0.1-4.2,0.1c-3.3,0-7-0.1-7-0.1h-3.9c-0.1,0.1-0.2,0.2-0.2,0.2
		c0.1-0.1,0.2-0.2,0.2-0.2h-0.5l0,0l-0.7-0.8l0,0L11.3,14c-0.3,0.4-0.6,0.7-0.9,1.1l8.7,5.3c-0.8,0.9-1.9,2.2-3,4.1
		c-1.3,2.1-2.9,5.2-3.9,9c-0.3,1.3-0.6,2.7-0.8,4.2l-9.5-3.4v0l0,0c-0.1,0.5-0.1,0.9-0.2,1.4l9.6,3.4c0,0,0,0,0,0h0l0,0v0l1,0.1v0
		c0.1,0.1,0.2,0.1,0.3,0.2c1.3,0.8,2.9,1.7,4,2.2c1.7,0.7,4.7,2.1,5,2.3c0.4,0.3,6.1,3.6,8.1,6.5l0.1,0.1c0.2,0.2,3.8,4.2,4.1,4.5
		c0.3,0.3,1.2,1,2.2,1c0.3,0,0.8-0.1,1.2-0.4v5.2H43v8.2l0.1,2.3l0,0.3c0.3,0,0.5,0,0.8,0l0-0.3h0l0.1-2.3v-8.2h5.8v-6.3
		c0.6,0.9,1.5,1.7,2.8,1.7c0.2,0,0.5,0,0.7-0.1c2.1-0.5,2.7-2.7,2.7-4.8V51c0-0.7-0.1-1.4-0.2-1.9L54.9,37.2z M48,46.5h-0.5h-0.7h-1
		h-2.5h-0.5H41h-1.9l-1.2,4.6c-0.7-1.7-2.2-3.5-3.6-5.3c-0.2-0.2-0.5-0.5-0.5-0.6c-0.1-0.1-0.2-0.3-0.5-0.6c-1-1.2-3.6-4.5-3.3-6.7
		c0.4-2.2,2.4-2.9,4.2-2.9c0.4,0,0.8,0,1.1,0.1c2.5,0.4,3.5,0.9,3.5,0.9c0.5,0.3,6.2,3.9,6.3,3.9c0,0,0.1,0.1,0.1,0.1
		c0.8,0.4,1.8,1.2,2.5,2.5c0.2,0.3,0.3,0.7,0.4,1.1c0,0,0,0,0,0c0.1,0.4,0.2,0.9,0.2,1.4c0,1.1,0,2,0,2.8L48,46.5z M53,54.4
		c-0.1,0-0.2,0-0.4,0c-1.5,0-2.3-2.5-2.5-3.4l0-0.1c-0.2-0.8-0.3-2.5-0.3-6c0-3.7-2.6-5.5-3.5-6.1c-0.1-0.1-0.1-0.1-0.2-0.1
		c-0.1-0.1-0.2-0.2-0.4-0.2c-1.1-0.7-4.2-2.6-5.6-3.5c-0.4-0.2-0.7-0.4-0.7-0.4c-0.1,0-1.2-0.6-3.9-1.1c-0.5-0.1-0.9-0.1-1.4-0.1
		c-3,0-5.3,1.7-5.8,4.2c-0.5,2.9,2.4,6.4,3.6,8c0.2,0.2,0.3,0.4,0.4,0.5c0.1,0.2,0.3,0.4,0.6,0.8c1,1.2,4.1,4.8,3.6,6.4
		c-0.2,0.9-0.6,0.9-0.7,0.9h0c-0.4,0-0.9-0.4-1.1-0.5c-0.3-0.3-3-3.3-4.1-4.4c-2.3-3.2-8.4-6.8-8.6-6.9l-0.1,0
		c-0.1-0.1-3.3-1.6-5.1-2.3c-1-0.4-2.6-1.3-3.8-2.1c0.8-5.5,2.8-9.8,4.4-12.4c1.1-1.8,2.2-3.2,2.9-3.9h4.5c0,0,3.7,0.1,7,0.1
		c1.9,0,3.3,0,4.3-0.1c0.1,0,0.2,0,0.3,0c2.3,0,4.1,1.8,4.9,2.6c0.2,0.2,0.3,0.3,0.4,0.4c0.3,0.2,2.5,2.6,4.6,4.8
		c3.5,3.7,5.9,6.2,6.3,6.5c0.5,0.4,0.5,1.2,0.5,1.3v0l0,0l0.9,12.1C54.5,50.5,54.7,54.1,53,54.4z"/>
	<path class="st0" d="M1.8,34.2C2.3,31,3.1,28,4.4,25c1.5-3.6,3.5-7,6-10L10.3,15l-0.7-0.4c0,0,0,0,0,0l0,0c-2.5,3-4.5,6.4-6.1,10.1
		c-1.3,3-2.1,6.1-2.6,9.3L1.8,34.2C1.8,34.2,1.8,34.2,1.8,34.2L1.8,34.2L1.8,34.2L1.8,34.2z"/>
	<polygon class="st0" points="1.8,34.2 1.8,34.2 1.8,34.2 1.8,34.2 	"/>
	<path class="st0" d="M0.9,33.9L0.9,33.9c-0.1,0.5-0.1,0.9-0.2,1.4l0.8,0.3c0.1-0.5,0.1-0.9,0.2-1.4L0.9,33.9
		C0.9,33.9,0.9,33.9,0.9,33.9z"/>
	<polygon class="st0" points="0.9,33.9 0.9,33.9 1.8,34.2 1.8,34.2 	"/>
	<path class="st0" d="M10.4,15c0.3-0.4,0.6-0.7,0.9-1.1l-0.8-0.5c-0.3,0.4-0.6,0.7-0.9,1.1L10.4,15L10.4,15z"/>
	<polygon class="st0" points="10.3,15 9.7,14.6 9.7,14.6 	"/>
</g>
</svg>
