<?xml version="1.0" encoding="utf-8"?>
<!-- Generator: Adobe Illustrator 24.1.0, SVG Export Plug-In . SVG Version: 6.00 Build 0)  -->
<svg version="1.1" id="Layer_1" xmlns="http://www.w3.org/2000/svg" xmlns:xlink="http://www.w3.org/1999/xlink" x="0px" y="0px"
	 viewBox="0 0 80 80" style="enable-background:new 0 0 80 80;" xml:space="preserve">
<style type="text/css">
	.st0{fill:#FFFFFF;}
</style>
<g>
	<path class="st0" d="M49.6,35.5h-5.3l-2.7-4.6h-6.1l-2.7,4.6h-5.4l-3,5.2l3,5.2h6.1l2.7-4.6h4.7l2.7,4.6h6.1l3-5.2L49.6,35.5z
		 M32.8,44.7h-4.7l-2.3-4l2.3-4h4.7l2.3,4L32.8,44.7z M40.8,40.1h-4.6l-2.3-4l2.3-4h4.7l2.3,4L40.8,40.1z M48.9,44.7h-4.7l-2.3-4
		l2.4-4.1h4.6l2.3,4L48.9,44.7z"/>
	<polygon class="st0" points="28.1,37.7 26.6,40.6 27.1,40.8 28.6,38 	"/>
	<rect x="28.4" y="43.8" class="st0" width="3.3" height="0.5"/>
	<polygon class="st0" points="42.7,40.6 43.1,40.8 45,37.4 44.6,37.2 	"/>
	<polygon class="st0" points="48.5,37.2 48,37.4 49.9,40.8 50.4,40.6 	"/>
	<path class="st0" d="M64.6,63.5l-9.4-9.4c3.7-4,6-9.3,6-15.2c0-12.3-10.1-22.3-22.5-22.3h0c-12.4,0-22.5,10-22.5,22.3v0
		c0,12.3,10.1,22.3,22.5,22.3c5.1,0,9.7-1.7,13.5-4.4l9.6,9.5c0.4,0.4,0.9,0.6,1.4,0.6c0.5,0,1.1-0.2,1.4-0.6
		C65.3,65.6,65.3,64.3,64.6,63.5z M38.6,57.3c-10.2,0-18.4-8.2-18.4-18.3c0-10.1,8.2-18.3,18.4-18.3C48.8,20.7,57,28.9,57,39
		C57,49.1,48.8,57.3,38.6,57.3z"/>
</g>
</svg>
