<?xml version="1.0" encoding="utf-8"?>
<!-- Generator: Adobe Illustrator 24.1.0, SVG Export Plug-In . SVG Version: 6.00 Build 0)  -->
<svg version="1.1" id="Layer_1" xmlns="http://www.w3.org/2000/svg" xmlns:xlink="http://www.w3.org/1999/xlink" x="0px" y="0px"
	 viewBox="0 0 80 80" style="enable-background:new 0 0 80 80;" xml:space="preserve">
<style type="text/css">
	.st0{fill:#FFFFFF;}
</style>
<g>
	<path class="st0" d="M43.9,56.4c-1.5,0-2.7,1.2-2.7,2.7c0,1.5,1.2,2.7,2.7,2.7c1.5,0,2.7-1.2,2.7-2.7
		C46.5,57.6,45.3,56.4,43.9,56.4z"/>
	<path class="st0" d="M21.4,49.4c-1.5,0-2.7,1.2-2.7,2.7c0,1.5,1.2,2.7,2.7,2.7c1.5,0,2.7-1.2,2.7-2.7
		C24.1,50.6,22.9,49.4,21.4,49.4z"/>
	<path class="st0" d="M57.1,47.4c-1.5,0-2.7,1.2-2.7,2.7c0,1.5,1.2,2.7,2.7,2.7c1.5,0,2.7-1.2,2.7-2.7
		C59.8,48.6,58.6,47.4,57.1,47.4z"/>
	<path class="st0" d="M55.3,25.2c0-2.1-1.7-3.8-3.7-3.8c-1.4,0-2.6,0.8-3.2,1.9c-1.1-0.5-2.2-0.7-3.5-0.7c-1.2,0-2.3,0.2-3.3,0.6
		c0-0.1-0.1-0.2-0.1-0.3c0,0,0-0.1,0-0.1c0-0.1-0.1-0.1-0.1-0.2c0,0,0-0.1-0.1-0.1c0-0.1-0.1-0.1-0.1-0.2c0,0,0-0.1,0-0.1
		c0-0.1-0.1-0.2-0.1-0.2c0,0,0-0.1-0.1-0.1c0,0-0.1-0.1-0.1-0.1c0,0-0.1-0.1-0.1-0.1c0,0,0-0.1-0.1-0.1c0,0-0.1-0.1-0.1-0.1
		c0,0,0,0,0-0.1c-0.1-0.2-0.3-0.3-0.4-0.5c0,0,0,0,0,0c0-0.1-0.1-0.1-0.1-0.2c0,0,0,0,0,0c-1.6-1.7-3.9-2.8-6.5-2.8
		c-4.9,0-8.8,4-8.8,8.9c0,2.2,0.8,4.2,2.1,5.8c-1.3,1.6-2.1,3.6-2.1,5.8c0,3.9,2.5,7.3,6,8.5v11.3c0,1.3,1.1,2.4,2.4,2.4
		c1.3,0,2.4-1.1,2.4-2.4V47.2c1.4-0.3,2.7-1,3.8-1.9c0,0,0,0,0,0c0.1-0.1,0.2-0.2,0.3-0.2c0,0,0,0,0,0c0.1-0.1,0.2-0.2,0.3-0.3
		c0,0,0,0,0,0c0.3-0.4,0.7-0.7,0.9-1.1c0,0,0,0,0,0c0.1-0.1,0.1-0.2,0.2-0.3c0,0,0,0,0-0.1c0.1-0.1,0.1-0.2,0.2-0.3c0,0,0,0,0-0.1
		c0.1-0.1,0.1-0.2,0.2-0.3c0,0,0,0,0,0c0.1-0.2,0.2-0.4,0.3-0.7c0,0,0-0.1,0-0.1c0-0.1,0.1-0.2,0.1-0.3c0,0,0-0.1,0-0.1
		c0-0.1,0.1-0.1,0.1-0.2c0,0,0-0.1,0-0.1c0-0.1,0-0.1,0.1-0.2c0,0,0-0.1,0-0.1c0-0.1,0-0.2,0.1-0.2c0,0,0-0.1,0-0.1
		c0-0.1,0.1-0.2,0.1-0.4c0.8,0.3,1.7,0.4,2.7,0.4c0.2,0,0.5,0,0.7,0v7.9c0,1.3,1.1,2.4,2.4,2.4s2.4-1.1,2.4-2.4v-9.7
		c2.1-1.6,3.4-4.2,3.4-7c0-1-0.2-2-0.5-2.9C54.5,28,55.3,26.7,55.3,25.2z"/>
</g>
</svg>
