<?xml version="1.0" encoding="utf-8"?>
<!-- Generator: Adobe Illustrator 24.1.0, SVG Export Plug-In . SVG Version: 6.00 Build 0)  -->
<svg version="1.1" id="Layer_1" xmlns="http://www.w3.org/2000/svg" xmlns:xlink="http://www.w3.org/1999/xlink" x="0px" y="0px"
	 viewBox="0 0 80 80" style="enable-background:new 0 0 80 80;" xml:space="preserve">
<style type="text/css">
	.st0{fill:#FFFFFF;}
</style>
<path class="st0" d="M18.6,43.9l3.9-7h7.9l3.9,7l-3.9,7h-7.9L18.6,43.9z M45.7,44l4-7.1h7.8l3.9,7l-3.9,7h-7.9L45.7,44z M32.2,35.8
	l3.9-7H44l3.9,7l-4,7.1h-7.8L32.2,35.8z M35,26.7l-4.5,8.1h-9.1l-5.1,9.1l5.1,9.1h10.2l4.5-8.1h7.8l4.5,8.1h10.2l5.1-9.1l-5.1-9.1
	h-8.9l-4.5-8.1H35z"/>
<polygon class="st0" points="22.6,38.7 20,43.7 20.8,44.1 23.4,39.1 "/>
<rect x="23" y="49.2" class="st0" width="5.6" height="0.9"/>
<polygon class="st0" points="47.8,44.1 50.9,38.2 50.1,37.7 47,43.7 "/>
<polygon class="st0" points="60,43.7 56.8,37.7 56,38.2 59.2,44.1 "/>
</svg>
