<?xml version="1.0" encoding="utf-8"?>
<!-- Generator: Adobe Illustrator 24.1.0, SVG Export Plug-In . SVG Version: 6.00 Build 0)  -->
<svg version="1.1" id="Layer_1" xmlns="http://www.w3.org/2000/svg" xmlns:xlink="http://www.w3.org/1999/xlink" x="0px" y="0px"
	 viewBox="0 0 80 80" style="enable-background:new 0 0 80 80;" xml:space="preserve">
<style type="text/css">
	.st0{fill:#FFFFFF;}
</style>
<g>
	<path class="st0" d="M58.9,47.7L57.1,42c-0.3-0.9-1.2-1.8-2.1-2.1l-14-4.5c-0.8-0.3-2.1-0.3-2.9,0l-13.9,4.5
		c-0.9,0.3-1.8,1.2-2.1,2.1l-1.8,5.8c-0.2,0.6-0.1,1.1,0.3,1.5c0.3,0.3,0.6,0.4,1.1,0.4c0.1,0,0.3,0,0.5-0.1L36,46.5
		c1-0.2,1.9-1.1,2.2-2l1.2-3.9c0.1-0.2,0-0.4-0.1-0.6c-0.1-0.2-0.3-0.3-0.5-0.4c-0.4-0.1-0.9,0.1-1,0.5L36.7,44
		c-0.1,0.4-0.6,0.8-1,0.9l-13.8,3.1l1.8-5.7c0.1-0.4,0.7-0.9,1.1-1.1l13.9-4.5c0.5-0.2,1.4-0.2,1.9,0l14,4.5
		c0.4,0.1,0.9,0.7,1.1,1.1l1.8,5.7L43.6,45c-0.4-0.1-0.9-0.5-1-0.9l-1.2-3.9c-0.1-0.4-0.6-0.6-1-0.5c-0.2,0.1-0.4,0.2-0.5,0.4
		c-0.1,0.2-0.1,0.4-0.1,0.6l1.2,3.9c0.3,0.9,1.2,1.8,2.2,2l13.9,3.1c0.6,0.1,1.2,0,1.5-0.4C59,48.9,59.1,48.3,58.9,47.7z"/>
	<path class="st0" d="M56,50.3c-0.4,0-0.8,0.4-0.8,0.8v7.4c0,0.3-0.3,0.8-0.7,0.9l-13.9,4.2c-0.5,0.2-1.4,0.2-2,0l-13.9-4.2
		c-0.3-0.1-0.7-0.5-0.7-0.9v-7.4c0-0.4-0.4-0.8-0.8-0.8c-0.4,0-0.8,0.4-0.8,0.8v7.4c0,1,0.8,2,1.8,2.3l13.9,4.2
		c0.4,0.1,0.9,0.2,1.4,0.2c0.5,0,1.1-0.1,1.5-0.2L55,60.9c1-0.3,1.8-1.3,1.8-2.3v-7.4C56.8,50.6,56.4,50.3,56,50.3z"/>
	<path class="st0" d="M38.4,32.9c0.2,0.3,0.6,0.5,0.9,0.5c0.4,0,0.7-0.2,0.9-0.5l3.5-4.6c0.3-0.3,0.3-0.8,0.1-1.1
		c-0.2-0.3-0.5-0.5-1-0.5h-1.5v-7.2c0-0.4-0.4-0.8-0.8-0.8c-0.4,0-0.8,0.4-0.8,0.8v8c0,0.4,0.4,0.8,0.8,0.8h1.1l-2.5,3.3l-2.6-3.3
		H38c0.4,0,0.8-0.4,0.8-0.8v-5.6c0-0.4-0.4-0.8-0.8-0.8c-0.4,0-0.8,0.4-0.8,0.8v4.8h-1.6c-0.4,0-0.8,0.2-1,0.5
		c-0.2,0.3-0.1,0.8,0.2,1.1L38.4,32.9z"/>
</g>
</svg>
