<?xml version="1.0" encoding="utf-8"?>
<!-- Generator: Adobe Illustrator 24.1.0, SVG Export Plug-In . SVG Version: 6.00 Build 0)  -->
<svg version="1.1" id="Layer_1" xmlns="http://www.w3.org/2000/svg" xmlns:xlink="http://www.w3.org/1999/xlink" x="0px" y="0px"
	 viewBox="0 0 80 80" style="enable-background:new 0 0 80 80;" xml:space="preserve">
<style type="text/css">
	.st0{fill:#FFFFFF;}
</style>
<g>
	<path class="st0" d="M40.1,57.2c8,0,14.5-1.7,14.5-3.8c0-0.7-0.7-1.4-2-1.9c0.6,0.4,0.9,0.8,0.9,1.3c0,2-6,3.5-13.4,3.5
		c-7.4,0-13.4-1.6-13.4-3.5c0-0.5,0.3-0.9,0.9-1.3c-1.3,0.6-2,1.2-2,1.9C25.6,55.4,32.1,57.2,40.1,57.2z"/>
	<path class="st0" d="M59,52.2c0.9,0.6,1.4,1.3,1.4,1.9c0,3-9.1,5.4-20.3,5.4c-11.2,0-20.3-2.4-20.3-5.4c0-0.7,0.5-1.3,1.4-1.9
		c-1.9,0.9-3,1.9-3,2.9C18.2,58.4,28,61,40,61h0.1C52.2,61,62,58.4,62,55.2C62,54.1,60.9,53.1,59,52.2z"/>
	<path class="st0" d="M40.1,55.9c6.2,0,11.2-1.3,11.2-2.9c0-0.5-0.6-1.1-1.5-1.5c0.5,0.3,0.7,0.6,0.7,1c0,1.5-4.6,2.7-10.3,2.7
		c-5.7,0-10.3-1.2-10.3-2.7c0-0.3,0.2-0.7,0.7-1c-1,0.4-1.5,0.9-1.5,1.5C28.9,54.5,33.9,55.9,40.1,55.9z"/>
	<path class="st0" d="M55.9,51.5c0.7,0.5,1.2,1.1,1.2,1.6c0,2.5-7.6,4.5-17,4.5s-17-2-17-4.5c0-0.6,0.4-1.1,1.2-1.6
		c-1.6,0.7-2.5,1.6-2.5,2.5c0,2.7,8.2,4.9,18.4,4.9c10.2,0,18.4-2.2,18.4-4.9C58.5,53.1,57.6,52.3,55.9,51.5z"/>
	<path class="st0" d="M30.3,38.8L30.3,38.8c-0.3,0.6-0.5,1.3-0.6,2c-0.1,0.7-0.2,1.4-0.2,2.1c0,5.9,4.8,10.6,10.6,10.6
		c5.9,0,10.6-4.8,10.6-10.6c0-1.4-0.3-2.8-0.8-4.1h0l0,0c-0.4-0.9-0.9-1.7-1.4-2.5L40.1,22h0l-8.4,14.3
		C31.1,37.1,30.6,37.9,30.3,38.8z M48.3,39.8c0-0.6,0-1.1-0.1-1.7c0,0.1,0.1,0.2,0.1,0.3l0,0c0.5,1.1,0.7,2.4,0.7,3.7
		c0,5.4-4.3,9.7-9.7,9.7c-0.5,0-1,0-1.5-0.1C43.8,50.9,48.3,45.8,48.3,39.8z"/>
</g>
</svg>
