<?xml version="1.0" encoding="utf-8"?>
<!-- Generator: Adobe Illustrator 24.1.0, SVG Export Plug-In . SVG Version: 6.00 Build 0)  -->
<svg version="1.1" id="Layer_1" xmlns="http://www.w3.org/2000/svg" xmlns:xlink="http://www.w3.org/1999/xlink" x="0px" y="0px"
	 viewBox="0 0 80 80" style="enable-background:new 0 0 80 80;" xml:space="preserve">
<style type="text/css">
	.st0{fill:#FFFFFF;}
</style>
<g>
	<path class="st0" d="M30.1,20.2c4.1,7.3,1.2,12.4-2.3,19.4C24,47,23.4,55.1,30.1,61c-3.8-8.6-1.7-14.3,2.2-22.2
		C35.6,32.2,36.8,25,30.1,20.2z"/>
	<path class="st0" d="M50.1,24.2c4.1,7.3,1.2,12.4-2.3,19.4C44,51,43.4,59.1,50.1,65c-3.8-8.5-1.7-14.3,2.2-22.2
		C55.6,36.2,56.8,28.9,50.1,24.2z"/>
	<path class="st0" d="M43.8,38.2c4.4-8.8,5.9-18.5-3-25c5.6,9.9,1.7,16.6-3.1,25.9c-5.1,10-5.9,20.9,3.1,28.8h0
		C35.6,56.5,38.5,48.8,43.8,38.2z"/>
</g>
</svg>
