<?xml version="1.0" encoding="utf-8"?>
<!-- Generator: Adobe Illustrator 24.1.0, SVG Export Plug-In . SVG Version: 6.00 Build 0)  -->
<svg version="1.1" id="Layer_1" xmlns="http://www.w3.org/2000/svg" xmlns:xlink="http://www.w3.org/1999/xlink" x="0px" y="0px"
	 viewBox="0 0 80 80" style="enable-background:new 0 0 80 80;" xml:space="preserve">
<style type="text/css">
	.st0{fill:#FFFFFF;}
</style>
<g>
	<path class="st0" d="M22.7,31.5c0.1-0.4,0.2-0.7,0.2-1.1v0c0-0.4-0.1-0.8-0.2-1.1s-0.3-0.7-0.5-0.9c-0.2-0.3-0.5-0.5-0.8-0.6
		c-0.3-0.2-0.7-0.2-1-0.2s-0.7,0.1-1,0.2c-0.3,0.2-0.6,0.4-0.8,0.6c-0.2,0.3-0.4,0.6-0.5,0.9c-0.1,0.4-0.2,0.7-0.2,1.1v0
		c0,0.4,0.1,0.8,0.2,1.1s0.3,0.7,0.5,0.9c0.2,0.3,0.5,0.5,0.8,0.6c0.3,0.2,0.7,0.2,1,0.2c0.4,0,0.7-0.1,1-0.2
		c0.3-0.2,0.6-0.4,0.8-0.6C22.5,32.2,22.6,31.8,22.7,31.5z M21.9,30.4c0,0.3,0,0.5-0.1,0.8c-0.1,0.2-0.2,0.5-0.3,0.6
		c-0.1,0.2-0.3,0.3-0.5,0.4c-0.2,0.1-0.4,0.2-0.6,0.2s-0.4-0.1-0.6-0.2c-0.2-0.1-0.3-0.3-0.5-0.4c-0.1-0.2-0.2-0.4-0.3-0.6
		c-0.1-0.2-0.1-0.5-0.1-0.8v0c0-0.3,0-0.5,0.1-0.8c0.1-0.2,0.2-0.5,0.3-0.6c0.1-0.2,0.3-0.3,0.5-0.4c0.2-0.1,0.4-0.2,0.6-0.2
		c0.2,0,0.4,0.1,0.6,0.2c0.2,0.1,0.3,0.3,0.5,0.4c0.1,0.2,0.2,0.4,0.3,0.6C21.8,29.8,21.9,30.1,21.9,30.4L21.9,30.4z"/>
	<polygon class="st0" points="24.7,28.5 24.7,33.2 25.7,33.2 25.7,27.4 25,27.4 23.5,27.9 23.7,28.8 	"/>
	<path class="st0" d="M20.5,37.8c-0.2-0.3-0.5-0.5-0.8-0.6c-0.3-0.2-0.7-0.2-1-0.2s-0.7,0.1-1,0.2c-0.3,0.2-0.6,0.4-0.8,0.6
		c-0.2,0.3-0.4,0.6-0.5,0.9s-0.2,0.7-0.2,1.1v0c0,0.4,0.1,0.8,0.2,1.1c0.1,0.4,0.3,0.7,0.5,0.9c0.2,0.3,0.5,0.5,0.8,0.6
		s0.7,0.2,1,0.2c0.4,0,0.7-0.1,1-0.2c0.3-0.2,0.6-0.4,0.8-0.6c0.2-0.3,0.4-0.6,0.5-0.9c0.1-0.4,0.2-0.7,0.2-1.1v0
		c0-0.4-0.1-0.8-0.2-1.1S20.7,38,20.5,37.8z M20.1,39.9c0,0.3,0,0.5-0.1,0.8c-0.1,0.2-0.2,0.5-0.3,0.6c-0.1,0.2-0.3,0.3-0.5,0.4
		c-0.2,0.1-0.4,0.2-0.6,0.2s-0.4-0.1-0.6-0.2c-0.2-0.1-0.3-0.3-0.5-0.4c-0.1-0.2-0.2-0.4-0.3-0.6c-0.1-0.2-0.1-0.5-0.1-0.8v0
		c0-0.3,0-0.5,0.1-0.8c0.1-0.2,0.2-0.5,0.3-0.6c0.1-0.2,0.3-0.3,0.5-0.4c0.2-0.1,0.4-0.2,0.6-0.2c0.2,0,0.4,0.1,0.6,0.2
		c0.2,0.1,0.3,0.3,0.5,0.4c0.1,0.2,0.2,0.4,0.3,0.6C20.1,39.3,20.1,39.6,20.1,39.9L20.1,39.9z"/>
	<path class="st0" d="M24.5,40.9c0.3-0.2,0.5-0.4,0.7-0.6c0.2-0.2,0.3-0.3,0.5-0.5c0.1-0.2,0.2-0.3,0.3-0.5c0.1-0.2,0.1-0.4,0.1-0.6
		v0c0-0.3,0-0.5-0.1-0.7c-0.1-0.2-0.2-0.4-0.4-0.5s-0.4-0.3-0.6-0.3c-0.2-0.1-0.5-0.1-0.8-0.1c-0.3,0-0.5,0-0.7,0.1
		c-0.2,0.1-0.4,0.1-0.6,0.2c-0.2,0.1-0.3,0.2-0.5,0.4c-0.1,0.1-0.3,0.3-0.4,0.5l0.7,0.6c0.2-0.3,0.4-0.5,0.6-0.6
		c0.2-0.1,0.4-0.2,0.7-0.2c0.3,0,0.5,0.1,0.7,0.2c0.2,0.2,0.3,0.4,0.3,0.7c0,0.1,0,0.3-0.1,0.4c0,0.1-0.1,0.2-0.2,0.4
		c-0.1,0.1-0.2,0.2-0.3,0.4c-0.1,0.1-0.3,0.3-0.5,0.4l-2,1.7v0.8H26v-0.9h-2.8L24.5,40.9z"/>
	<path class="st0" d="M16.8,51.5c0.2,0.3,0.5,0.5,0.8,0.6c0.3,0.2,0.7,0.2,1,0.2c0.4,0,0.7-0.1,1-0.2c0.3-0.2,0.6-0.4,0.8-0.6
		c0.2-0.3,0.4-0.6,0.5-0.9c0.1-0.4,0.2-0.7,0.2-1.1v0c0-0.4-0.1-0.8-0.2-1.1s-0.3-0.7-0.5-0.9c-0.2-0.3-0.5-0.5-0.8-0.6
		c-0.3-0.2-0.7-0.2-1-0.2s-0.7,0.1-1,0.2c-0.3,0.2-0.6,0.4-0.8,0.6c-0.2,0.3-0.4,0.6-0.5,0.9s-0.2,0.7-0.2,1.1v0
		c0,0.4,0.1,0.8,0.2,1.1C16.4,50.9,16.6,51.2,16.8,51.5z M17.1,49.4c0-0.3,0-0.5,0.1-0.8c0.1-0.2,0.2-0.5,0.3-0.6
		c0.1-0.2,0.3-0.3,0.5-0.4c0.2-0.1,0.4-0.2,0.6-0.2c0.2,0,0.4,0.1,0.6,0.2c0.2,0.1,0.3,0.3,0.5,0.4s0.2,0.4,0.3,0.6
		c0.1,0.2,0.1,0.5,0.1,0.8v0c0,0.3,0,0.5-0.1,0.8c-0.1,0.2-0.2,0.5-0.3,0.6s-0.3,0.3-0.5,0.4c-0.2,0.1-0.4,0.2-0.6,0.2
		s-0.4-0.1-0.6-0.2c-0.2-0.1-0.3-0.3-0.5-0.4c-0.1-0.2-0.2-0.4-0.3-0.6C17.2,50,17.1,49.7,17.1,49.4L17.1,49.4z"/>
	<path class="st0" d="M25.5,49.4c-0.2-0.1-0.3-0.2-0.5-0.3c-0.2-0.1-0.4-0.1-0.6-0.2l1.6-1.6v-0.7h-3.8v0.9h2.5L23,49.1l0.2,0.6h0.5
		c0.4,0,0.7,0.1,1,0.2c0.2,0.2,0.4,0.4,0.4,0.6v0c0,0.3-0.1,0.5-0.3,0.6c-0.2,0.2-0.4,0.2-0.7,0.2c-0.3,0-0.6-0.1-0.9-0.2
		c-0.2-0.1-0.5-0.3-0.7-0.6l-0.7,0.7c0.2,0.3,0.6,0.5,0.9,0.7c0.4,0.2,0.8,0.3,1.3,0.3c0.3,0,0.6,0,0.8-0.1c0.3-0.1,0.5-0.2,0.6-0.4
		c0.2-0.2,0.3-0.3,0.4-0.6c0.1-0.2,0.1-0.5,0.1-0.7v0c0-0.3,0-0.5-0.1-0.7C25.8,49.7,25.6,49.5,25.5,49.4z"/>
	<path class="st0" d="M41.4,46.1h-3.7c-0.8,0-1.4,0.7-1.4,1.4S37,49,37.7,49h3.7c0.8,0,1.4-0.7,1.4-1.4S42.2,46.1,41.4,46.1z"/>
	<path class="st0" d="M37.7,33.3h12.5c0.8,0,1.4-0.7,1.4-1.4c0-0.8-0.6-1.4-1.4-1.4H37.7c-0.8,0-1.4,0.7-1.4,1.4
		C36.3,32.7,37,33.3,37.7,33.3z"/>
	<path class="st0" d="M60.6,44.7l-7.6,8.8l-3.8-3.8c-0.6-0.6-1.4-0.5-2,0c-0.5,0.6-0.5,1.5,0,2.1l4.9,4.9c0.3,0.3,0.6,0.4,1,0.4h0
		c0.4,0,0.7-0.2,1-0.5l8.6-9.9c0.5-0.6,0.5-1.5-0.1-2.1C62,44.1,61.1,44.1,60.6,44.7z"/>
	<path class="st0" d="M29.4,23.5v33c0,0.8,0.6,1.4,1.4,1.4h12.1c0.8,0,1.4-0.7,1.4-1.4c0-0.8-0.6-1.4-1.4-1.4H32.2V24.9h23.2v16.2
		c0,0.8,0.6,1.4,1.4,1.4c0.8,0,1.4-0.7,1.4-1.4V23.5c0-0.8-0.6-1.4-1.4-1.4h-26C30,22,29.4,22.7,29.4,23.5z"/>
	<path class="st0" d="M51.7,39.9c0-0.8-0.6-1.4-1.4-1.4H37.7c-0.8,0-1.4,0.7-1.4,1.4c0,0.8,0.6,1.4,1.4,1.4h12.5
		C51,41.3,51.7,40.7,51.7,39.9z"/>
</g>
</svg>
