<?xml version="1.0" encoding="utf-8"?>
<!-- Generator: Adobe Illustrator 24.1.0, SVG Export Plug-In . SVG Version: 6.00 Build 0)  -->
<svg version="1.1" id="Layer_1" xmlns="http://www.w3.org/2000/svg" xmlns:xlink="http://www.w3.org/1999/xlink" x="0px" y="0px"
	 viewBox="0 0 80 80" style="enable-background:new 0 0 80 80;" xml:space="preserve">
<style type="text/css">
	.st0{fill:#FFFFFF;}
</style>
<g>
	<path class="st0" d="M18.2,50.3c1,0.6,2.2,0.5,3.2,0l7.3,7c-0.7,1-0.6,2.4,0.1,3.4c0.7,1,2,1.5,3.3,1.3c1.3-0.2,2.3-1.1,2.6-2.3
		h10.2c0.3,1.2,1.3,2.1,2.6,2.3c1.3,0.2,2.5-0.3,3.3-1.3c0.7-1,0.7-2.3,0.1-3.4l7.2-7c1.1,0.6,2.5,0.5,3.5-0.2
		c1-0.7,1.5-1.9,1.3-3.1c-0.2-1.2-1.2-2.1-2.4-2.4v-9.8c1.2-0.3,2.2-1.2,2.4-2.4c0-0.1,0-0.3,0.1-0.4v-0.2c0-1-0.5-1.9-1.4-2.4
		c-1-0.7-2.4-0.7-3.5-0.1l-7.2-6.9c0.7-1,0.6-2.4-0.1-3.4c-0.7-1-2-1.5-3.3-1.3c-1.3,0.2-2.3,1.1-2.5,2.3H34.7
		c-0.3-1.2-1.3-2.1-2.5-2.3c-1.2-0.2-2.5,0.3-3.3,1.3c-0.7,1-0.8,2.3-0.1,3.4l-7.3,6.9c-1.1-0.6-2.4-0.6-3.5,0.1
		c-1,0.7-1.6,1.9-1.4,3.1c0.2,1.2,1.1,2.2,2.3,2.5v9.8c-1.4,0.4-2.3,1.6-2.4,3v0C16.6,48.7,17.2,49.8,18.2,50.3z M31.5,60.5
		c-0.9,0-1.7-0.7-1.7-1.6c0-0.9,0.8-1.6,1.7-1.6c0.9,0,1.7,0.7,1.7,1.6C33.2,59.8,32.5,60.5,31.5,60.5z M48.1,60.5
		c-0.9,0-1.7-0.7-1.7-1.6c0-0.9,0.8-1.6,1.7-1.6c0.9,0,1.7,0.7,1.7,1.6C49.8,59.8,49,60.5,48.1,60.5z M61.4,47.6
		c0,0.9-0.8,1.6-1.7,1.6c-0.9,0-1.7-0.7-1.7-1.6c0-0.9,0.8-1.6,1.7-1.6C60.6,46,61.4,46.7,61.4,47.6z M59.7,30.2
		c0.9,0,1.7,0.7,1.7,1.6c0,0.9-0.8,1.6-1.7,1.6c-0.9,0-1.7-0.7-1.7-1.6C58,30.9,58.7,30.2,59.7,30.2z M48.1,19
		c0.9,0,1.7,0.7,1.7,1.6c0,0.9-0.8,1.6-1.7,1.6c-0.9,0-1.7-0.7-1.7-1.6C46.4,19.8,47.1,19,48.1,19z M31.5,19c0.9,0,1.7,0.7,1.7,1.6
		c0,0.9-0.8,1.6-1.7,1.6c-0.9,0-1.7-0.7-1.7-1.6C29.9,19.8,30.6,19,31.5,19z M22.6,30.2l7.2-6.9c0.9,0.5,2,0.6,2.9,0.2
		c1-0.4,1.7-1.2,1.9-2.1h10.2c0.2,1,1,1.7,1.9,2.1c0.9,0.4,2,0.3,2.9-0.2l7.2,6.9c-0.6,0.8-0.6,1.9-0.3,2.8c0.4,0.9,1.2,1.6,2.2,1.8
		v9.8c-1,0.2-1.9,0.9-2.2,1.8c-0.4,0.9-0.3,2,0.3,2.8l-7.2,7c-0.9-0.5-2-0.6-2.9-0.2c-0.9,0.4-1.6,1.2-1.9,2.1H34.7
		c-0.2-1-1-1.7-1.9-2.1c-0.9-0.4-2-0.3-2.9,0.2l-7.3-7c0.6-0.9,0.7-1.9,0.2-2.9c-0.4-0.9-1.3-1.6-2.3-1.8v-9.7
		c1-0.2,1.9-0.9,2.3-1.8C23.2,32.1,23.2,31,22.6,30.2z M18.2,31.8c0-0.9,0.8-1.6,1.7-1.6c0.9,0,1.7,0.7,1.7,1.6
		c0,0.9-0.8,1.6-1.7,1.6C18.9,33.4,18.2,32.7,18.2,31.8z M19.8,46L19.8,46c1,0,1.7,0.7,1.7,1.6c0,0.9-0.8,1.6-1.7,1.6
		s-1.7-0.7-1.7-1.6C18.2,46.7,18.9,46,19.8,46z"/>
	<path class="st0" d="M32.3,44.1l-1.5,1.8l2.6,2.5l1.8-1.5c0.8,0.5,1.8,0.9,2.7,1.1l0.2,2.3h3.7l0.2-2.3c1-0.2,1.9-0.6,2.8-1.1
		l1.8,1.4l2.6-2.5l-1.5-1.7c0.5-0.8,0.9-1.7,1.2-2.6l2.3-0.2v-3.5l-2.3-0.2c-0.2-1-0.6-1.8-1.2-2.6l1.5-1.7l-2.6-2.5l-1.8,1.4
		c-0.8-0.5-1.8-0.9-2.8-1.1l-0.2-2.3h-3.7L38,31.1c-1,0.2-1.9,0.6-2.7,1.1l-1.8-1.5l-2.6,2.5l1.5,1.8c-0.5,0.8-0.9,1.7-1.1,2.6
		l-2.4,0.2v3.5l2.4,0.2C31.4,42.4,31.8,43.3,32.3,44.1z M40,36c2.1,0,3.7,1.6,3.7,3.6c0,2-1.7,3.6-3.7,3.6c-2.1,0-3.7-1.6-3.7-3.6
		C36.3,37.6,38,36,40,36z"/>
</g>
</svg>
