<?xml version="1.0" encoding="utf-8"?>
<!-- Generator: Adobe Illustrator 24.1.0, SVG Export Plug-In . SVG Version: 6.00 Build 0)  -->
<svg version="1.1" id="Layer_1" xmlns="http://www.w3.org/2000/svg" xmlns:xlink="http://www.w3.org/1999/xlink" x="0px" y="0px"
	 viewBox="0 0 80 80" style="enable-background:new 0 0 80 80;" xml:space="preserve">
<style type="text/css">
	.st0{clip-path:url(#SVGID_2_);fill:#4BBAB5;}
</style>
<g>
	<defs>
		<rect id="SVGID_1_" x="16.6" y="17.6" width="46.3" height="44.4"/>
	</defs>
	<clipPath id="SVGID_2_">
		<use xlink:href="#SVGID_1_"  style="overflow:visible;"/>
	</clipPath>
	<path class="st0" d="M59.7,33.4c-0.9,0-1.7-0.7-1.7-1.6s0.8-1.6,1.7-1.6c0.9,0,1.7,0.7,1.7,1.6C61.4,32.7,60.6,33.4,59.7,33.4
		 M61.4,47.6c0,0.9-0.8,1.6-1.7,1.6c-0.9,0-1.7-0.7-1.7-1.6c0-0.9,0.8-1.6,1.7-1.6C60.6,46,61.4,46.7,61.4,47.6 M56.9,49.3l-7.2,7
		c-0.9-0.5-2-0.6-2.9-0.2c-0.9,0.4-1.6,1.2-1.9,2.1H34.7c-0.2-1-1-1.7-1.9-2.1c-0.9-0.4-2-0.3-2.9,0.2l-7.3-7
		c0.6-0.9,0.7-1.9,0.2-2.9c-0.4-0.9-1.3-1.6-2.3-1.8v-9.7c1-0.2,1.9-0.9,2.3-1.8c0.4-0.9,0.3-2-0.2-2.9l7.2-6.9
		c0.9,0.5,2,0.6,2.9,0.2c1-0.4,1.7-1.2,1.9-2.1h10.2c0.2,1,1,1.7,1.9,2.1c0.9,0.4,2,0.3,2.9-0.2l7.2,6.9c-0.6,0.8-0.6,1.9-0.3,2.8
		c0.4,0.9,1.2,1.6,2.2,1.8v9.8c-1,0.2-1.9,0.9-2.2,1.8C56.3,47.4,56.4,48.4,56.9,49.3 M48.1,60.5c-0.9,0-1.7-0.7-1.7-1.6
		c0-0.9,0.8-1.6,1.7-1.6c0.9,0,1.7,0.7,1.7,1.6C49.8,59.8,49,60.5,48.1,60.5 M31.5,60.5c-0.9,0-1.7-0.7-1.7-1.6
		c0-0.9,0.8-1.6,1.7-1.6c0.9,0,1.7,0.7,1.7,1.6C33.2,59.8,32.5,60.5,31.5,60.5 M19.9,49.2c-0.9,0-1.7-0.7-1.7-1.6
		c0-0.9,0.7-1.6,1.7-1.6h0c0.9,0,1.7,0.7,1.7,1.6C21.6,48.5,20.8,49.2,19.9,49.2 M18.2,31.8c0-0.9,0.8-1.6,1.7-1.6
		c0.9,0,1.7,0.7,1.7,1.6s-0.8,1.6-1.7,1.6C18.9,33.4,18.2,32.7,18.2,31.8 M31.5,19c0.9,0,1.7,0.7,1.7,1.6s-0.8,1.6-1.7,1.6
		c-0.9,0-1.7-0.7-1.7-1.6C29.9,19.8,30.6,19,31.5,19 M48.1,19c0.9,0,1.7,0.7,1.7,1.6s-0.8,1.6-1.7,1.6c-0.9,0-1.7-0.7-1.7-1.6
		C46.4,19.8,47.1,19,48.1,19 M62.8,32.4c0-0.1,0-0.3,0.1-0.4v-0.2c0-1-0.5-1.9-1.4-2.4c-1-0.7-2.4-0.7-3.5-0.1l-7.2-6.9
		c0.7-1,0.6-2.4-0.1-3.4c-0.7-1-2-1.5-3.3-1.3c-1.3,0.2-2.3,1.1-2.5,2.3H34.7c-0.3-1.2-1.3-2.1-2.5-2.3c-1.2-0.2-2.5,0.3-3.3,1.3
		c-0.7,1-0.8,2.3-0.1,3.4l-7.3,6.9c-1.1-0.6-2.4-0.6-3.5,0.1c-1,0.7-1.6,1.9-1.4,3.1c0.2,1.2,1.1,2.2,2.3,2.5v9.8
		c-1.4,0.4-2.3,1.6-2.4,3c0,1.1,0.6,2.1,1.6,2.7c1,0.6,2.2,0.5,3.2,0l7.3,7c-0.7,1-0.6,2.4,0.1,3.4c0.7,1,2,1.5,3.3,1.3
		c1.3-0.2,2.3-1.1,2.6-2.3h10.2c0.3,1.2,1.3,2.1,2.6,2.3c1.3,0.2,2.5-0.3,3.3-1.3c0.7-1,0.7-2.3,0.1-3.4l7.2-7
		c1.1,0.6,2.5,0.5,3.5-0.2c1-0.7,1.5-1.9,1.3-3.1c-0.2-1.2-1.2-2.1-2.4-2.4v-9.8C61.7,34.5,62.6,33.6,62.8,32.4"/>
	<path class="st0" d="M44.8,46.9l1.8,1.4l2.6-2.5l-1.5-1.7c0.5-0.8,0.9-1.7,1.2-2.6l2.3-0.2v-3.5l-2.3-0.2c-0.2-1-0.6-1.8-1.2-2.6
		l1.5-1.7l-2.6-2.5l-1.8,1.4c-0.8-0.5-1.8-0.9-2.8-1.1l-0.2-2.3h-3.7L38,31.1c-1,0.2-1.9,0.6-2.7,1.1l-1.8-1.5l-2.6,2.5l1.5,1.8
		c-0.5,0.8-0.9,1.7-1.1,2.6l-2.4,0.2v3.5l2.4,0.2c0.2,0.9,0.6,1.8,1.1,2.6l-1.5,1.8l2.6,2.5l1.8-1.5c0.8,0.5,1.8,0.9,2.7,1.1
		l0.2,2.3h3.7l0.2-2.3C43.1,47.8,44,47.4,44.8,46.9 M36.3,39.5c0-2,1.7-3.6,3.7-3.6c2.1,0,3.7,1.6,3.7,3.6s-1.7,3.6-3.7,3.6
		C38,43.1,36.3,41.5,36.3,39.5"/>
</g>
</svg>
