<?xml version="1.0" encoding="utf-8"?>
<!-- Generator: Adobe Illustrator 24.1.0, SVG Export Plug-In . SVG Version: 6.00 Build 0)  -->
<svg version="1.1" id="Layer_1" xmlns="http://www.w3.org/2000/svg" xmlns:xlink="http://www.w3.org/1999/xlink" x="0px" y="0px"
	 viewBox="0 0 80 80" style="enable-background:new 0 0 80 80;" xml:space="preserve">
<style type="text/css">
	.st0{fill:#FFFFFF;}
</style>
<g>
	<path class="st0" d="M56.1,23.5c-1.6-1.4-3.6-2.1-5.9-2c-6.1,0.1-12.6,5.3-12.8,5.5c-0.3,0.2-0.3,0.6-0.1,0.9
		c0.2,0.3,0.6,0.4,0.9,0.2l0.2-0.1c1.8-1.2,4-2,6.1-1.7c0.9,0.1,1.8,0.5,2.2,1.3c0.5,0.8,0.5,1.7,0.4,2.6c-0.4,5-2.8,9.5-6.2,13
		c-2.1,2.2-5.1,4.6-8.3,4.9c-1.5,0.1-2.5-0.2-3.2-1c-1.1-1.1-1-2.9-1-2.9c0-0.3-0.1-0.5-0.4-0.6c-0.2-0.1-0.5-0.1-0.7,0.2
		c-1.2,1.2-1.4,3.6-1.4,5.4c-3.5-6.2,2.1-16.3,2.2-16.4c0.1-0.3,0.1-0.6-0.1-0.8c-0.2-0.2-0.5-0.3-0.8-0.1c-4.2,2.3-7,10.6-7.1,11
		c-1.3,4.1-0.8,8.5,1.4,11.6c1.9,2.6,4.8,4,8.2,3.9c3.1-0.1,6.7-1.3,10.5-3.7c11.8-7.4,14.3-18.3,14.9-22.8c3.1,6.1-1.8,14.9-1.8,15
		c-0.2,0.3-0.1,0.6,0.2,0.8c0.2,0.2,0.6,0.2,0.8,0c3.3-3,5.7-9,5.7-14.4C60,29.1,58.6,25.7,56.1,23.5z"/>
	<path class="st0" d="M35.5,30.6c0.9-0.7,1.3-1.6,1.1-1.9c-0.3-0.3-1.2,0-2,0.7c-0.9,0.7-1.3,1.6-1.1,1.9
		C33.7,31.7,34.7,31.3,35.5,30.6z"/>
	<path class="st0" d="M32.5,33.4c0.4-0.4,0.6-0.9,0.4-1.1c-0.2-0.3-0.7-0.2-1.2,0.2s-0.6,0.9-0.4,1.1C31.5,33.8,32.1,33.7,32.5,33.4
		z"/>
</g>
</svg>
