<?xml version="1.0" encoding="utf-8"?>
<!-- Generator: Adobe Illustrator 24.1.0, SVG Export Plug-In . SVG Version: 6.00 Build 0)  -->
<svg version="1.1" id="Layer_1" xmlns="http://www.w3.org/2000/svg" xmlns:xlink="http://www.w3.org/1999/xlink" x="0px" y="0px"
	 viewBox="0 0 80 80" style="enable-background:new 0 0 80 80;" xml:space="preserve">
<style type="text/css">
	.st0{fill:#FFFFFF;}
</style>
<g>
	<circle class="st0" cx="40.1" cy="39.7" r="4.4"/>
	<polygon class="st0" points="38.2,28.6 39.2,31.2 40.1,33.7 41,31.2 42,28.6 40.5,28.6 40.5,15.3 42,15.3 41,12.7 40.1,10.1 
		39.2,12.7 38.2,15.3 39.7,15.3 39.7,28.6 	"/>
	<polygon class="st0" points="42,50.9 41,48.4 40.1,45.8 39.2,48.4 38.2,50.9 39.7,50.9 39.7,64.2 38.2,64.2 39.2,66.8 40.1,69.4 
		41,66.8 42,64.2 40.5,64.2 40.5,50.9 	"/>
	<polygon class="st0" points="21.5,23.8 22.5,22.7 31.9,32.1 30.9,33.2 33.4,34.3 35.8,35.5 34.7,33 33.5,30.5 32.4,31.6 23,22.2 
		24.1,21.1 21.6,20 19.1,18.8 20.3,21.3 	"/>
	<polygon class="st0" points="58.7,55.7 57.7,56.8 48.3,47.4 49.3,46.3 46.8,45.2 44.3,44 45.5,46.5 46.7,49 47.8,47.9 57.1,57.3 
		56.1,58.4 58.6,59.5 61.1,60.7 59.9,58.2 	"/>
	<polygon class="st0" points="28.9,41.6 31.5,40.7 34.1,39.8 31.5,38.8 28.9,37.9 28.9,39.4 15.6,39.4 15.6,37.9 13,38.8 10.5,39.8 
		13,40.7 15.6,41.6 15.6,40.1 28.9,40.1 	"/>
	<polygon class="st0" points="64.6,37.9 64.6,39.4 51.3,39.4 51.3,37.9 48.7,38.8 46.1,39.8 48.7,40.7 51.3,41.6 51.3,40.1 
		64.6,40.1 64.6,41.6 67.1,40.7 69.7,39.8 67.1,38.8 	"/>
	<polygon class="st0" points="30.9,46.3 31.9,47.4 22.5,56.8 21.5,55.7 20.3,58.2 19.1,60.7 21.6,59.5 24.1,58.4 23,57.3 32.4,47.9 
		33.5,49 34.7,46.5 35.8,44 33.4,45.2 	"/>
	<polygon class="st0" points="49.3,33.2 48.3,32.1 57.7,22.7 58.7,23.8 59.9,21.3 61.1,18.8 58.6,20 56.1,21.1 57.1,22.2 47.8,31.6 
		46.7,30.5 45.5,33 44.3,35.5 46.8,34.3 	"/>
</g>
</svg>
