<svg enable-background="new 0 0 100 100" height="100" viewBox="0 0 100 100" width="100" xmlns="http://www.w3.org/2000/svg"><path d="m21.321 77.029c7.167 7.712 17.364 12.534 28.679 12.534 8.579 0 16.515-2.773 22.975-7.474 7.923-5.765 13.624-14.433 15.569-24.457.48-2.47.733-5.021.733-7.631 0-3.949-.577-7.762-1.647-11.361-1.633-5.496-4.419-10.49-8.077-14.696-7.199-8.278-17.769-13.507-29.553-13.507-7.644 0-14.777 2.202-20.811 6.007-9.418 5.939-16.156 15.786-17.974 27.287-.323 2.042-.493 4.135-.493 6.268 0 4.61.785 9.035 2.224 13.149 1.825 5.214 4.701 9.927 8.375 13.881zm66.039-38.589c-.137.176-.271.355-.407.532.136-.177.271-.356.407-.532zm-5.367 9.094c1.335 0 2.418 1.09 2.418 2.435s-1.083 2.436-2.418 2.436c-1.336 0-2.418-1.09-2.418-2.436 0-1.345 1.082-2.435 2.418-2.435zm-31.993 37.095c-1.336 0-2.418-1.09-2.418-2.435s1.083-2.435 2.418-2.435 2.418 1.09 2.418 2.435-1.083 2.435-2.418 2.435zm24.332-10.151c-.944.951-2.475.951-3.419 0-.945-.951-.945-2.493 0-3.444.944-.951 2.475-.951 3.419 0 .944.95.944 2.493 0 3.444zm-3.419-49.018c.944-.951 2.475-.951 3.419 0s.944 2.493 0 3.444-2.475.951-3.419 0c-.945-.951-.945-2.493 0-3.444zm2.809 17.558c.018.007.021.009.03.012.018.007.024.01.022.009.002.001-.004-.002-.022-.009-.01-.004-.013-.005-.03-.012.641 2.215.987 4.558.987 6.982 0 4.22-1.044 8.194-2.884 11.676-4.154 7.86-12.369 13.212-21.825 13.212-7.878 0-14.894-3.714-19.418-9.497 4.524 5.784 11.54 9.498 19.418 9.498-7.878 0-14.894-3.714-19.418-9.498-.302-.386-.592-.78-.871-1.184-1.747-2.526-3.04-5.394-3.762-8.485-.429-1.837-.657-3.753-.657-5.722 0-2.655.417-5.212 1.182-7.612.705-2.212 1.705-4.29 2.96-6.184-1.255 1.894-2.255 3.972-2.96 6.184.705-2.212 1.706-4.29 2.96-6.184 4.429-6.686 11.986-11.092 20.566-11.092 11.24 0 20.725 7.559 23.722 17.906zm-23.722-27.71c1.335 0 2.418 1.09 2.418 2.435s-1.083 2.436-2.418 2.436c-1.336 0-2.418-1.09-2.418-2.436 0-1.344 1.082-2.435 2.418-2.435zm0 9.804c-8.58 0-16.138 4.406-20.567 11.093 4.429-6.687 11.987-11.093 20.567-11.093zm-24.332.348c.944-.951 2.475-.951 3.42 0 .944.951.944 2.493 0 3.444-.945.951-2.476.951-3.42 0-.945-.951-.945-2.493 0-3.444zm0 45.574c.944-.951 2.475-.951 3.42 0 .944.951.944 2.493 0 3.444-.945.951-2.476.951-3.42 0-.945-.951-.945-2.494 0-3.444zm-7.661-23.5c1.335 0 2.418 1.09 2.418 2.435s-1.083 2.436-2.418 2.436c-1.336 0-2.418-1.09-2.418-2.436 0-1.345 1.082-2.435 2.418-2.435z" fill="#fff"/></svg>