<svg enable-background="new 250 250 100 100" height="100" viewBox="250 250 100 100" width="100" xmlns="http://www.w3.org/2000/svg"><g fill="#fff"><path d="m335.746 311.751c-.156-.197-.33-.379-.519-.542-.378-.326-.817-.578-1.296-.733-.359-.117-.742-.18-1.137-.18-.132 0-.263.007-.391.021-.515.055-.999.216-1.432.462-.325.185-.622.417-.882.688-.173.181-.33.379-.467.592-.412.638-.653 1.407-.653 2.235s.241 1.597.653 2.236c.138.213.294.411.467.592.26.271.556.504.882.689.434.246.918.407 1.432.462.129.014.259.021.391.021.396 0 .778-.063 1.137-.18.479-.156.918-.407 1.296-.733.189-.163.363-.345.519-.542.546-.691.874-1.577.874-2.543-.001-.968-.328-1.854-.874-2.545z"/><path d="m341.83 285.778c0-5.215-4.046-9.442-9.037-9.442-3.621 0-6.735 2.231-8.177 5.445h-5.232c-1.442-3.214-4.557-5.445-8.177-5.445-3.621 0-6.736 2.231-8.178 5.445h-5.233c-1.441-3.214-4.556-5.445-8.177-5.445-4.986 0-9.028 4.22-9.036 9.428v.024c.004 3.781 2.137 7.032 5.21 8.537v11.424c-3.073 1.506-5.206 4.756-5.21 8.537v.024c.008 5.208 4.05 9.429 9.036 9.429 3.621 0 6.737-2.232 8.177-5.446h5.233c1.441 3.214 4.557 5.446 8.178 5.446 3.62 0 6.735-2.232 8.177-5.446h5.232c1.442 3.214 4.556 5.446 8.177 5.446 4.991 0 9.037-4.229 9.037-9.444 0-3.785-2.135-7.039-5.211-8.547v-11.424c3.076-1.506 5.211-4.761 5.211-8.546zm-35.449-3.997c1.129-1.487 2.869-2.443 4.826-2.443 1.956 0 3.696.956 4.825 2.443.834 1.098 1.337 2.485 1.337 3.997 0 1.513-.503 2.899-1.337 3.998-.294.388-.629.737-1 1.045v-1.045-3.998c0-2.207-1.712-3.997-3.825-3.997s-3.826 1.79-3.826 3.997v3.998 1.045c-.371-.308-.705-.657-1-1.045-.835-1.099-1.337-2.486-1.337-3.998s.502-2.899 1.337-3.997zm-22.924 3.997c0-3.557 2.759-6.44 6.162-6.44 1.957 0 3.696.956 4.826 2.443.834 1.098 1.336 2.485 1.336 3.997 0 1.513-.502 2.899-1.336 3.998-.295.388-.63.737-1 1.045v-1.045-3.998c0-2.207-1.713-3.997-3.826-3.997s-3.826 1.79-3.826 3.997v5.043c-1.422-1.179-2.336-2.998-2.336-5.043zm10.988 32.514c-1.13 1.487-2.869 2.442-4.826 2.442-3.403 0-6.162-2.883-6.162-6.439 0-2.045.914-3.864 2.336-5.043 1.052-.873 2.379-1.398 3.826-1.398s2.774.525 3.826 1.398c.37.307.705.656 1 1.045.834 1.098 1.336 2.485 1.336 3.998 0 1.511-.502 2.898-1.336 3.997zm8.584-7.995h-5.233c-.897-1.999-2.438-3.612-4.352-4.549v-11.424c1.914-.936 3.455-2.549 4.352-4.548h5.233c.896 1.999 2.439 3.612 4.352 4.548v11.424c-1.913.937-3.456 2.549-4.352 4.549zm13.003 7.995c-1.129 1.487-2.869 2.442-4.825 2.442-1.957 0-3.696-.956-4.826-2.442-.835-1.099-1.337-2.486-1.337-3.997 0-1.513.503-2.9 1.337-3.998.295-.388.629-.738 1-1.045 1.052-.873 2.379-1.398 3.826-1.398 1.446 0 2.774.525 3.825 1.398.371.307.706.656 1 1.045.834 1.098 1.337 2.485 1.337 3.998 0 1.511-.503 2.898-1.337 3.997zm8.584-7.995h-5.232c-.897-1.999-2.44-3.612-4.353-4.549v-11.424c1.913-.936 3.456-2.549 4.353-4.548h5.232c.897 1.999 2.44 3.612 4.352 4.548v11.424c-1.912.937-3.455 2.549-4.352 4.549zm14.339 3.998c0 3.556-2.758 6.439-6.162 6.439-1.956 0-3.696-.956-4.824-2.442-.836-1.099-1.337-2.486-1.337-3.997 0-1.513.502-2.9 1.337-3.998.293-.388.629-.738.999-1.045 1.052-.873 2.378-1.398 3.826-1.398 1.447 0 2.775.525 3.826 1.398 1.421 1.179 2.335 2.998 2.335 5.043zm-6.161-32.514c-2.113 0-3.826 1.79-3.826 3.997v3.998 1.045c-.37-.308-.705-.657-.999-1.045-.836-1.099-1.337-2.486-1.337-3.998s.502-2.899 1.337-3.997c1.128-1.487 2.868-2.443 4.824-2.443 3.404 0 6.162 2.883 6.162 6.44 0 2.044-.914 3.864-2.336 5.043v-5.043c0-2.207-1.713-3.997-3.825-3.997z"/><path d="m289.619 310.296c-2.113 0-3.826 1.79-3.826 3.999 0 2.208 1.713 3.998 3.826 3.998s3.826-1.79 3.826-3.998c0-2.209-1.713-3.999-3.826-3.999z"/><path d="m311.206 310.296c-2.113 0-3.826 1.79-3.826 3.998s1.713 3.999 3.826 3.999 3.826-1.79 3.826-3.999c0-2.208-1.713-3.998-3.826-3.998z"/><path d="m258.17 280.121v19.916 19.916l8.623-9.958 8.625-9.958-8.625-9.958z"/></g></svg>