<svg enable-background="new 250 250 100 100" height="100" viewBox="250 250 100 100" width="100" xmlns="http://www.w3.org/2000/svg"><g fill="#fff"><path d="m290.462 309.106 3.585-6.416h6.214l3.585 6.416h8.091l4.046-7.239-4.046-7.239h-7.106l-3.585-6.416h-8.09l-3.585 6.416h-7.198l-4.045 7.239 4.045 7.239zm20.554-12.831 3.125 5.592-3.125 5.592h-6.25l-3.093-5.535 3.157-5.649zm-16.941-6.415h6.25l3.092 5.535-3.157 5.649h-6.185l-3.125-5.592zm-10.783 6.415h6.25l3.125 5.592-3.125 5.592h-6.25l-3.125-5.592z"/><path d="m283.307 297.716-2.076 3.975.631.352 2.077-3.975z"/><path d="m283.623 306.101h4.44v.741h-4.44z"/><path d="m303.321 302.046 2.529-4.74-.628-.358-2.529 4.74z"/><path d="m313.037 301.688-2.528-4.74-.628.358 2.528 4.739z"/><path d="m297.31 330.549c6.749 0 12.954-2.293 17.981-6.176l12.841 13.186c.543.561 1.223.842 1.902.842s1.404-.281 1.902-.842c1.042-1.076 1.042-2.855 0-3.977l-12.615-12.999c4.937-5.521 8.017-12.916 8.017-21.058 0-17.08-13.452-31.025-30.029-31.025s-30.028 13.945-30.028 31.025c.001 17.079 13.452 31.024 30.029 31.024zm0-56.434c13.543 0 24.594 11.372 24.594 25.41 0 14.039-11.006 25.409-24.594 25.409s-24.593-11.417-24.593-25.409 11.005-25.41 24.593-25.41z"/></g></svg>