<svg enable-background="new 250 250 100 100" height="100" viewBox="250 250 100 100" width="100" xmlns="http://www.w3.org/2000/svg"><g fill="#fff"><path d="m317.973 285.739c0-5.216-4.047-9.444-9.038-9.444-3.622 0-6.736 2.231-8.179 5.446h-5.233c-1.443-3.215-4.558-5.446-8.179-5.446-3.622 0-6.737 2.231-8.179 5.446h-5.234c-1.441-3.215-4.557-5.446-8.179-5.446-4.987 0-9.03 4.22-9.038 9.43v.024c.004 3.781 2.138 7.033 5.211 8.538v11.426c-3.074 1.506-5.207 4.757-5.211 8.538v.024c.008 5.209 4.051 9.431 9.038 9.431 3.622 0 6.738-2.233 8.179-5.448h5.234c1.442 3.215 4.557 5.448 8.179 5.448 3.621 0 6.736-2.233 8.179-5.448h5.233c1.443 3.215 4.557 5.448 8.179 5.448 4.992 0 9.038-4.23 9.038-9.445 0-3.786-2.135-7.041-5.212-8.548v-11.425c3.076-1.508 5.212-4.764 5.212-8.549zm-35.456-3.998c1.129-1.487 2.869-2.443 4.826-2.443 1.956 0 3.697.956 4.826 2.443.834 1.099 1.337 2.486 1.337 3.998 0 1.513-.503 2.9-1.337 3.999-.294.388-.629.737-1 1.045v-1.045-3.999c0-2.208-1.712-3.998-3.825-3.998s-3.826 1.79-3.826 3.998v3.999 1.045c-.371-.308-.705-.657-1-1.045-.835-1.099-1.338-2.486-1.338-3.999-.001-1.513.502-2.9 1.337-3.998zm-22.929 3.998c0-3.558 2.76-6.441 6.163-6.441 1.957 0 3.697.956 4.827 2.443.834 1.099 1.336 2.486 1.336 3.998 0 1.513-.502 2.9-1.336 3.999-.295.388-.63.737-1 1.045v-1.045-3.999c0-2.208-1.713-3.998-3.826-3.998s-3.826 1.79-3.826 3.998v5.044c-1.423-1.18-2.338-2.999-2.338-5.044zm10.99 32.519c-1.13 1.487-2.87 2.443-4.827 2.443-3.403 0-6.163-2.883-6.163-6.44 0-2.045.914-3.865 2.336-5.044 1.052-.873 2.379-1.398 3.826-1.398s2.775.525 3.826 1.398c.37.307.705.657 1 1.045.834 1.099 1.336 2.486 1.336 3.999.002 1.511-.499 2.898-1.334 3.997zm8.586-7.996h-5.234c-.897-2-2.439-3.613-4.353-4.549v-11.426c1.914-.936 3.456-2.549 4.353-4.549h5.234c.896 2 2.439 3.613 4.353 4.549v11.426c-1.913.936-3.457 2.549-4.353 4.549zm13.005 7.996c-1.129 1.487-2.87 2.443-4.826 2.443-1.957 0-3.697-.956-4.826-2.443-.835-1.099-1.338-2.486-1.338-3.998 0-1.513.503-2.9 1.338-3.999.295-.388.629-.738 1-1.045 1.052-.873 2.379-1.398 3.826-1.398s2.775.525 3.825 1.398c.371.307.706.657 1 1.045.834 1.099 1.337 2.486 1.337 3.999.001 1.512-.502 2.899-1.336 3.998zm8.586-7.996h-5.233c-.897-2-2.441-3.613-4.354-4.549v-11.426c1.913-.936 3.457-2.549 4.354-4.549h5.233c.897 2 2.44 3.613 4.353 4.549v11.426c-1.913.936-3.456 2.549-4.353 4.549zm14.342 3.999c0 3.557-2.758 6.44-6.163 6.44-1.956 0-3.697-.956-4.825-2.443-.836-1.099-1.338-2.486-1.338-3.998 0-1.513.502-2.9 1.338-3.999.293-.388.629-.738.999-1.045 1.052-.873 2.379-1.398 3.826-1.398s2.776.525 3.826 1.398c1.423 1.18 2.337 2.999 2.337 5.045zm-6.163-32.52c-2.113 0-3.826 1.79-3.826 3.998v3.999 1.045c-.37-.308-.705-.657-.999-1.045-.836-1.099-1.338-2.486-1.338-3.999 0-1.512.502-2.899 1.338-3.998 1.128-1.487 2.869-2.443 4.825-2.443 3.405 0 6.163 2.883 6.163 6.441 0 2.045-.914 3.865-2.336 5.044v-5.044c0-2.208-1.714-3.998-3.827-3.998z"/><path d="m308.934 310.261c-2.113 0-3.826 1.791-3.826 3.999 0 2.209 1.713 3.999 3.826 3.999s3.826-1.791 3.826-3.999c.001-2.208-1.712-3.999-3.826-3.999z"/><path d="m265.752 310.261c-2.113 0-3.826 1.791-3.826 4 0 2.208 1.713 3.999 3.826 3.999s3.826-1.791 3.826-3.999c0-2.209-1.713-4-3.826-4z"/><path d="m287.343 310.261c-2.113 0-3.826 1.791-3.826 3.999 0 2.209 1.713 3.999 3.826 3.999s3.826-1.791 3.826-3.999-1.713-3.999-3.826-3.999z"/><path d="m326.035 280.08v19.92 19.92l8.626-9.96 8.625-9.96-8.625-9.96z"/></g></svg>