<svg enable-background="new 250 250 100 100" height="100" viewBox="250 250 100 100" width="100" xmlns="http://www.w3.org/2000/svg"><path d="m300 261.195c-21.431 0-38.805 17.373-38.805 38.805 0 21.43 17.371 38.803 38.801 38.805h.007c21.43-.002 38.801-17.375 38.801-38.805.001-21.431-17.373-38.805-38.804-38.805zm0 73.192c-17.236 0-31.51-12.682-34.001-29.223 9.115-1.138 18.67-1.753 28.453-1.816.662-.005 1.326-.006 1.989-.006-.042.069-.072.147-.071.233-.004.219.153.408.369.445l7.567 1.335-1.807 2.155c-.159.187-.136.468.051.627.094.08.217.117.34.103l2.84-.321-2.234 4.731c-.094.227.012.487.239.582.146.061.315.04.442-.057l4.291-3.69 1.095 2.492c.102.224.366.323.59.221.098-.045.176-.122.221-.221l1.238-2.63 2.189 1.821c.189.158.469.133.627-.056.073-.088.11-.2.103-.314l-.169-2.724 5.559 3.294c.212.125.485.055.61-.156.097-.163.079-.371-.045-.516l-4.553-5.341 3.599-.97c4.867.442 9.661 1.023 14.313 1.733-2.888 16.073-16.942 28.269-33.845 28.269zm34.029-29.424c-4.327-.661-8.778-1.209-13.295-1.639-.052-.047-.112-.087-.183-.105l-4.651-1.17 4.584-5.43c.16-.187.138-.468-.049-.628-.145-.123-.352-.142-.516-.045l-5.612 3.334.311-2.787c.026-.244-.15-.464-.395-.49-.121-.013-.242.024-.335.103l-2.337 1.994-1.143-2.506c-.102-.224-.366-.322-.59-.221-.098.045-.177.123-.221.221l-1.05 2.404-5.946-5.297c-.166-.143-.412-.143-.579 0-.171.138-.216.379-.107.569l3.445 5.965-3.784-1.496c-.223-.103-.487-.006-.591.217-.075.162-.046.353.075.486l3.116 3.65-1.223.171c-.729-.019-1.459-.043-2.188-.056-2.047-.035-4.199-.046-6.322-.032-9.832.063-19.436.681-28.598 1.825-.153-1.314-.233-2.649-.233-4.003 0-18.991 15.395-34.387 34.387-34.387 18.991 0 34.387 15.395 34.387 34.387.001 1.688-.123 3.345-.357 4.966z" fill="#fff"/></svg>