<svg enable-background="new 0 0 100 100" height="100" viewBox="0 0 100 100" width="100" xmlns="http://www.w3.org/2000/svg"><g fill="#4bbab5"><path d="m29.599 85.185c6.258 0 13.297-2.281 20.917-6.77 23.784-14.006 29.133-34.994 30.34-43.548 5.889 11.868-4.002 28.763-4.116 28.933-.326.538-.212 1.246.27 1.643.482.41 1.192.41 1.674 0 6.727-5.665 11.694-17.292 11.836-27.673.099-7.917-2.441-14.417-7.379-18.807-3.108-2.761-7.025-4.149-11.623-4.149-12.176 0-25.146 9.743-25.686 10.154-.553.424-.681 1.246-.269 1.813.411.566 1.192.792 1.774.396l.425-.141c3.534-2.266 7.99-3.767 12.248-3.158 1.745.255 3.504 1.104 4.413 2.62.893 1.473.88 3.3.709 5.014-.951 9.588-5.946 18.339-12.829 24.967-4.314 4.149-10.345 8.767-16.589 9.177-2.909.185-5.024-.481-6.428-1.968-2.115-2.237-1.931-5.679-1.931-5.707.028-.539-.269-1.049-.766-1.261-.483-.227-1.064-.127-1.448.269-2.341 2.337-2.881 6.968-2.922 10.409-6.812-12.194 4.824-31.482 4.952-31.694.298-.496.241-1.134-.156-1.558-.398-.425-1.022-.538-1.547-.269-8.345 4.277-14.206 20.308-14.447 21.003-2.739 7.901-1.788 16.498 2.469 22.46 3.62 5.055 9.339 7.845 16.109 7.845z"/><path d="m41.901 32.033c1.724-1.37 2.701-3.005 2.183-3.655-.518-.649-2.334-.064-4.058 1.305-1.723 1.37-2.701 3.006-2.183 3.655s2.335.065 4.058-1.305z"/><path d="m35.798 37.237c.863-.686 1.231-1.658.821-2.171-.409-.513-1.441-.373-2.303.313-.863.686-1.231 1.657-.821 2.171.409.512 1.44.373 2.303-.313z"/></g></svg>