<svg enable-background="new 250 250 100 100" height="100" viewBox="250 250 100 100" width="100" xmlns="http://www.w3.org/2000/svg"><g fill="#fff"><path d="m262.946 335.801h74.109v-74.109h-74.109zm3.652-70.457h66.806v66.806h-66.806z"/><path d="m330.077 298.805c0-16.833 2.736-31.594 2.736-31.594.154-.828-.398-1.379-1.226-1.225 0 0-14.753 2.743-31.591 2.743-16.833 0-31.594-2.736-31.594-2.736-.828-.154-1.379.398-1.225 1.226 0 0 2.743 14.753 2.743 31.591 0 16.833-2.736 31.593-2.736 31.593-.154.828.398 1.38 1.226 1.225 0 0 14.753-2.742 31.592-2.742 16.832 0 31.593 2.736 31.593 2.736.828.153 1.379-.398 1.225-1.226-.001 0-2.743-14.753-2.743-31.591zm-1.845 29.422s-13.375-2.791-28.231-2.791c-14.861 0-28.236 2.792-28.236 2.792-.824.172-1.358-.361-1.186-1.186 0 0 2.791-13.375 2.791-28.232 0-14.86-2.792-28.236-2.792-28.236-.172-.824.361-1.358 1.186-1.186 0 0 13.375 2.791 28.232 2.791 14.861 0 28.236-2.792 28.236-2.792.824-.172 1.358.361 1.186 1.186 0 0-2.791 13.375-2.791 28.231 0 14.861 2.792 28.236 2.792 28.236.171.825-.363 1.358-1.187 1.187z"/></g></svg>