<svg enable-background="new 0 0 100 100" height="100" viewBox="0 0 100 100" width="100" xmlns="http://www.w3.org/2000/svg"><g fill="#4bbab5"><path d="m30.26 24.174c0 1.354.873 2.708 2.619 2.708s2.619-1.354 2.619-2.708c0-1.353-.873-2.708-2.619-2.708-.585 0-1.063.161-1.452.414-.06.039-.12.078-.179.118-.657.518-.988 1.345-.988 2.176z"/><path d="m22.479 53.701c-1.746 0-2.619 1.354-2.619 2.708s.873 2.708 2.619 2.708 2.619-1.354 2.619-2.708-.872-2.708-2.619-2.708z"/><path d="m22.479 35.281c-3.493.001-3.493 5.416 0 5.416 3.492 0 3.492-5.416 0-5.416z"/><path d="m22.479 44.492c-1.746 0-2.619 1.354-2.619 2.708s.873 2.708 2.619 2.708 2.619-1.354 2.619-2.708-.872-2.708-2.619-2.708z"/><path d="m32.878 54.513c1.746 0 2.619-1.354 2.619-2.708s-.873-2.708-2.619-2.708-2.619 1.354-2.619 2.708.874 2.708 2.619 2.708z"/><path d="m43.279 31.487c1.746 0 2.619-1.354 2.619-2.708s-.873-2.708-2.619-2.708-2.619 1.354-2.619 2.708c-.001 1.354.871 2.708 2.619 2.708z"/><path d="m43.279 40.698c3.492 0 3.492-5.416 0-5.416-3.493-.001-3.493 5.416 0 5.416z"/><path d="m32.878 36.093c1.746 0 2.619-1.354 2.619-2.708s-.873-2.708-2.619-2.708-2.619 1.354-2.619 2.708.874 2.708 2.619 2.708z"/><path d="m43.279 59.119c1.746 0 2.619-1.354 2.619-2.708s-.873-2.708-2.619-2.708-2.619 1.354-2.619 2.708c-.001 1.354.871 2.708 2.619 2.708z"/><path d="m43.279 49.908c1.746 0 2.619-1.354 2.619-2.708s-.873-2.708-2.619-2.708-2.619 1.354-2.619 2.708c-.001 1.355.871 2.708 2.619 2.708z"/><path d="m32.878 72.934c1.746 0 2.619-1.354 2.619-2.708s-.873-2.708-2.619-2.708-2.619 1.354-2.619 2.708.874 2.708 2.619 2.708z"/><path d="m43.279 77.539c1.746 0 2.619-1.354 2.619-2.708s-.873-2.708-2.619-2.708-2.619 1.354-2.619 2.708c-.001 1.354.871 2.708 2.619 2.708z"/><path d="m50 11.945c-21.016 0-38.052 17.036-38.055 38.051v.007c.003 21.015 17.039 38.052 38.055 38.052 21.017 0 38.054-17.038 38.054-38.055.001-21.016-17.036-38.055-38.054-38.055zm-28.394 56.255v-.001zm9.628-23.438c-3.065 2.503-5.311 6.044-6.135 10.221l1.424.28c.822-4.17 3.19-7.647 6.388-9.961 1.136-.011 1.895-.598 2.283-1.382 3.086-1.538 6.681-2.11 10.318-1.394l.001-.004c1.319.249 2.633.34 3.923.293v8.231c-6.483-.734-12.679 2.198-16.311 7.274-.08-.006-.161-.012-.246-.012-2.555 0-3.239 2.898-2.054 4.454-.266.767-.486 1.559-.647 2.378l1.424.28c.122-.619.282-1.222.47-1.809.245.07.513.112.808.112 2.809 0 3.357-3.5 1.649-4.872 3.391-4.511 9.032-7.074 14.908-6.348v8.865c-1.787.323-3.498.918-5.08 1.75-.312-.13-.669-.206-1.077-.206-1.782 0-2.653 1.411-2.616 2.792-2.691 2.452-4.649 5.754-5.406 9.593l1.424.28c.646-3.28 2.248-6.133 4.459-8.328.428.633 1.14 1.078 2.139 1.078 2.41 0 3.156-2.58 2.24-4.178 1.236-.599 2.552-1.04 3.917-1.31v20.874c-1.214-.02-2.413-.103-3.593-.248-.051-.274-.14-.539-.266-.784-.007-.013-.012-.026-.019-.039-.025-.047-.053-.095-.081-.141-.012-.02-.024-.04-.038-.06-.027-.042-.056-.082-.086-.123-.017-.023-.035-.045-.052-.067-.03-.037-.06-.074-.091-.109-.021-.024-.045-.047-.067-.07-.031-.032-.061-.064-.094-.094-.032-.03-.066-.056-.099-.084-.044-.037-.09-.072-.137-.106-.044-.031-.088-.062-.134-.09-.029-.017-.059-.033-.089-.049-.043-.024-.086-.047-.131-.069-.032-.015-.065-.028-.098-.042-.046-.02-.093-.038-.142-.055-.034-.012-.068-.023-.102-.034-.052-.015-.105-.029-.159-.042-.034-.008-.068-.017-.103-.023-.061-.012-.123-.021-.186-.029-.031-.004-.062-.009-.093-.013-.096-.009-.195-.014-.297-.014-.078 0-.154.004-.229.009-.023.002-.045.004-.068.006-.052.005-.104.011-.154.019-.023.003-.047.007-.07.011-.056.01-.111.021-.164.034-.014.003-.029.006-.042.009-.064.017-.126.036-.187.056-.022.008-.044.016-.065.024-.04.015-.078.03-.117.046-.024.011-.049.021-.073.033-.035.016-.069.034-.102.051-.022.012-.045.023-.067.036-.049.028-.096.057-.142.088-.025.017-.05.036-.075.054-.023.017-.046.034-.068.051-.026.02-.052.042-.078.064-.018.015-.036.032-.052.047-.027.024-.053.049-.079.074-.005.005-.01.01-.015.015-.06.061-.116.126-.169.192-.007.01-.015.019-.022.029-.025.033-.049.067-.073.101-.008.011-.015.022-.023.034-.023.036-.047.072-.069.108-1.99-.545-3.907-1.265-5.733-2.147.025-.074.047-.149.066-.224.001-.003.002-.005.002-.008.017-.07.032-.141.044-.213.002-.009.003-.017.005-.026.011-.065.018-.131.025-.197.001-.014.003-.027.004-.041.007-.077.01-.155.01-.233 0-1.354-.873-2.708-2.619-2.708-.072 0-.142.003-.211.008-.021.001-.041.003-.061.005-.05.004-.1.009-.149.016-.019.003-.039.005-.058.008-.065.011-.128.022-.189.037-.005.001-.01.002-.015.004-.056.013-.111.029-.165.045-.019.006-.039.013-.058.019-.041.014-.081.029-.121.044-.018.007-.036.014-.054.021-.053.022-.105.046-.155.071-.011.006-.022.013-.033.018-.04.021-.079.043-.118.067-.018.011-.037.023-.055.035-.031.02-.061.04-.09.061-.018.013-.036.024-.052.038-.042.031-.082.064-.122.098-.014.012-.027.025-.041.038-.027.024-.053.048-.079.074-.018.017-.034.035-.051.052-.022.022-.043.046-.064.069-.015.018-.031.036-.046.054-.032.038-.062.076-.091.116-3.656-2.537-6.787-5.775-9.195-9.525h.001c.073.023.149.043.226.06.031.007.063.012.095.018.059.011.119.02.18.027.03.004.059.008.09.01.092.008.185.014.282.014 3.492 0 3.492-5.416 0-5.416-.104 0-.204.006-.302.015-.033.003-.064.009-.096.013-.064.008-.127.016-.188.029-.037.007-.072.017-.107.025-.053.013-.106.026-.157.042-.037.011-.073.024-.109.037-.046.016-.092.034-.136.052-.036.016-.071.032-.106.049-.041.02-.081.041-.12.063-.035.019-.069.039-.102.06-.036.022-.07.046-.104.069-.034.024-.068.047-.1.073-.03.023-.056.047-.084.071-.034.03-.068.058-.1.089-.019.019-.037.039-.056.059-.188.195-.342.418-.459.661-.004.007-.008.015-.011.022-.028.06-.054.121-.077.183-.004.009-.008.019-.012.028-.023.063-.044.126-.064.19-.003.009-.005.017-.008.026-.019.066-.036.132-.05.199-.002.006-.003.012-.004.018-.015.07-.027.141-.037.213-2.31-4.567-3.613-9.73-3.613-15.198 0-6.867 2.055-13.253 5.58-18.582.044.01.09.019.136.027.009.002.018.003.027.005.04.006.08.012.122.017.022.002.045.005.068.007.031.003.062.006.093.008.058.004.116.006.176.006.078 0 .153-.003.227-.008.024-.002.047-.005.072-.007.049-.005.098-.01.145-.017.027-.004.054-.009.08-.013.043-.008.086-.015.127-.025.027-.006.053-.012.079-.019.04-.01.08-.021.119-.033.025-.008.05-.015.075-.024.039-.013.077-.028.116-.043.022-.009.045-.018.066-.027.042-.018.082-.038.122-.058.017-.008.034-.016.05-.024.055-.029.109-.06.16-.093.01-.006.018-.013.028-.018.042-.028.083-.056.122-.086.018-.013.034-.027.051-.041.03-.024.06-.048.089-.074.018-.016.036-.033.054-.049.025-.024.051-.049.076-.075.017-.018.035-.036.051-.054.024-.026.046-.052.069-.078.016-.019.033-.039.048-.059.022-.027.042-.056.063-.084.014-.02.029-.04.042-.06.022-.031.041-.064.062-.096.011-.018.023-.036.034-.054.029-.049.056-.1.081-.151.011-.022.021-.045.032-.067.014-.031.029-.062.042-.093.011-.026.021-.053.032-.08s.021-.055.032-.083c.01-.029.019-.058.029-.087.009-.027.017-.054.025-.082.008-.03.016-.06.024-.091.007-.026.013-.053.019-.08.007-.032.014-.064.02-.095.005-.025.009-.05.013-.076.006-.034.011-.067.016-.101.003-.02.004-.041.006-.062.014-.131.02-.264.018-.396-.001-.02-.001-.039-.001-.058-.002-.038-.004-.076-.007-.114-.001-.021-.003-.042-.005-.062-.003-.038-.008-.075-.012-.112-.003-.021-.006-.041-.009-.062-.006-.038-.012-.075-.019-.112-.004-.02-.008-.039-.012-.059-.008-.038-.016-.076-.025-.114-.004-.016-.009-.033-.013-.049-.011-.041-.022-.081-.035-.121 0-.002-.001-.003-.002-.004-.033-.103-.071-.205-.115-.304 0 0 0 0 0-.001 1.886-2.112 4.047-3.967 6.405-5.55.055-.044.119-.079.179-.118 3.134-2.075 6.622-3.659 10.371-4.597-.279.187-.507.427-.684.699-.007.01-.013.021-.019.031-.045.072-.087.147-.125.223-.009.018-.018.036-.026.053-.018.037-.034.074-.049.112-.014.032-.026.065-.039.097-.015.041-.03.082-.044.124-.016.051-.032.102-.045.154-.007.026-.014.053-.02.08-.014.058-.026.116-.036.175-.002.013-.005.025-.007.037-.012.072-.02.144-.026.216-.002.019-.004.039-.005.059-.005.074-.009.149-.009.223 0 1.354.873 2.708 2.619 2.708s2.619-1.354 2.619-2.708c0-.081-.004-.163-.01-.244-.002-.029-.007-.056-.009-.085-.006-.053-.011-.106-.019-.158-.006-.034-.013-.068-.02-.102-.009-.046-.017-.091-.028-.136-.009-.037-.02-.073-.03-.11-.012-.041-.023-.082-.037-.123-.012-.038-.026-.076-.041-.114-.014-.038-.028-.075-.044-.111-.017-.039-.035-.077-.053-.115-.016-.034-.033-.067-.05-.1-.021-.039-.043-.078-.066-.116-.018-.03-.037-.059-.055-.089-.025-.039-.052-.077-.08-.114-.019-.026-.039-.052-.06-.077-.031-.038-.061-.075-.094-.111-.02-.022-.041-.043-.062-.065-.036-.037-.072-.073-.111-.108-.02-.018-.041-.035-.062-.052-.042-.035-.085-.071-.13-.103-.018-.013-.038-.025-.056-.037-.05-.035-.101-.069-.154-.099-.012-.007-.025-.013-.037-.019-.276-.152-.596-.257-.96-.298 1.885-.36 3.825-.564 5.806-.596l-.004 25.085c-1.241.05-2.507-.043-3.777-.293l-.001.004c-3.559-.673-7.08-.219-10.188 1.113-.156-1.207-1.018-2.305-2.591-2.305-1.746 0-2.619 1.354-2.619 2.708 0 .824.326 1.647.974 2.165zm19.284 38.954v-21.047c1.674-.213 3.408-.169 5.151.175l.001-.004c8.931 1.689 17.612-3.72 20.156-12.278l2.348.593-.858-3.026-.858-3.025-2.192 2.256-2.192 2.256 2.344.592c-2.369 7.859-10.385 12.806-18.603 11.186l-.001.004c-1.792-.339-3.573-.391-5.297-.191v-8.533c.024.005.048.008.072.012l.001-.004c8.931 1.689 17.612-3.72 20.156-12.278l2.348.593-.858-3.026-.858-3.026-2.191 2.256-2.192 2.256 2.344.592c-2.369 7.859-10.385 12.806-18.603 11.186l-.001.004c-.073-.014-.145-.023-.218-.036v-8.458c6.992-.695 13.087-5.562 15.15-12.5l2.348.593-.858-3.026-.858-3.025-2.192 2.256-2.192 2.256 2.344.592c-1.895 6.288-7.406 10.708-13.743 11.396v-25c18.385.277 33.204 15.265 33.204 33.715.004 18.449-14.816 33.437-33.202 33.714z"/><path d="m31.248 21.998c.059-.04.119-.079.179-.118-.061.039-.124.074-.179.118z"/></g></svg>