<svg enable-background="new 0 0 100 100" height="100" viewBox="0 0 100 100" width="100" xmlns="http://www.w3.org/2000/svg"><path d="m85.407 25.684c1.217 0 2.204-.987 2.204-2.204s-.987-2.204-2.204-2.204c-3.646 0-6.611 2.967-6.611 6.612v6.612h-4.408v-6.612c0-3.645-2.967-6.612-6.611-6.612h-8.963c-3.646 0-6.612 2.967-6.612 6.612v6.612h-4.408v-6.612c0-3.645-2.966-6.612-6.611-6.612h-8.963c-3.646 0-6.612 2.967-6.612 6.612v6.612h-4.407v-6.612c0-3.645-2.966-6.612-6.612-6.612-1.217 0-2.204.987-2.204 2.204s.987 2.204 2.204 2.204c1.215 0 2.204.989 2.204 2.204v6.991c-2.565.91-4.407 3.36-4.407 6.232 0 2.873 1.842 5.323 4.407 6.233v24.769c0 3.646 2.966 6.611 6.612 6.611s6.612-2.966 6.612-6.611v-24.768c2.565-.91 4.407-3.36 4.407-6.233 0-2.872-1.842-5.322-4.407-6.232v-6.991c0-1.215.989-2.204 2.204-2.204h8.963c1.215 0 2.204.989 2.204 2.204v6.991c-2.565.91-4.407 3.36-4.407 6.232 0 2.873 1.842 5.323 4.407 6.233v24.769c0 3.646 2.966 6.611 6.612 6.611s6.612-2.966 6.612-6.611v-24.769c2.564-.91 4.407-3.36 4.407-6.233 0-2.872-1.843-5.322-4.407-6.232v-6.991c0-1.215.988-2.204 2.204-2.204h8.963c1.214 0 2.204.989 2.204 2.204v6.991c-2.565.91-4.408 3.36-4.408 6.232 0 2.873 1.843 5.323 4.408 6.233v24.769c0 3.646 2.966 6.611 6.611 6.611s6.612-2.966 6.612-6.611v-24.769c2.565-.91 4.408-3.36 4.408-6.233 0-2.872-1.843-5.322-4.408-6.232v-6.991c-.002-1.216.986-2.205 2.201-2.205zm-59.798 46.428c0 1.215-.989 2.204-2.204 2.204s-2.204-.989-2.204-2.204v-24.39h4.407zm2.205-28.797h-8.815c-1.216 0-2.204-.989-2.204-2.204s.989-2.204 2.204-2.204h8.815c1.215 0 2.204.988 2.204 2.204-.001 1.216-.989 2.204-2.204 2.204zm24.389 28.797c0 1.215-.988 2.204-2.204 2.204s-2.204-.989-2.204-2.204v-24.39h4.408zm2.203-28.797h-8.815c-1.216 0-2.204-.989-2.204-2.204s.988-2.204 2.204-2.204h8.815c1.215 0 2.204.988 2.204 2.204.001 1.216-.989 2.204-2.204 2.204zm24.39 28.797c0 1.215-.989 2.204-2.204 2.204s-2.204-.989-2.204-2.204v-24.39h4.408zm2.204-28.797h-8.815c-1.215 0-2.204-.989-2.204-2.204s.988-2.204 2.204-2.204h8.815c1.215 0 2.204.988 2.204 2.204s-.989 2.204-2.204 2.204z" fill="#4bbab5"/></svg>