<svg enable-background="new 0 0 100 100" height="100" viewBox="0 0 100 100" width="100" xmlns="http://www.w3.org/2000/svg"><g fill="#4bbab5"><path d="m88.304 25.456c-3.108 0-4.725 1.479-6.024 2.667-1.125 1.028-1.869 1.708-3.55 1.708-1.682 0-2.425-.679-3.551-1.708-1.299-1.188-2.917-2.667-6.024-2.667s-4.725 1.479-6.025 2.668c-1.124 1.028-1.867 1.707-3.55 1.707-1.682 0-2.425-.679-3.549-1.708-1.299-1.188-2.917-2.667-6.024-2.667s-4.725 1.479-6.025 2.668c-1.124 1.028-1.867 1.707-3.55 1.707-1.682 0-2.424-.679-3.549-1.708-1.3-1.188-2.918-2.667-6.023-2.667-3.107 0-4.725 1.479-6.025 2.668-1.124 1.028-1.867 1.707-3.549 1.707-1.683 0-2.425-.679-3.55-1.708-1.301-1.188-2.919-2.666-6.024-2.666-1.01 0-1.832.82-1.832 1.829s.822 1.829 1.832 1.829c1.682 0 2.424.679 3.55 1.708 1.3 1.189 2.918 2.668 6.024 2.668s4.724-1.479 6.025-2.668c1.124-1.028 1.866-1.708 3.549-1.708 1.682 0 2.425.679 3.549 1.708 1.3 1.189 2.918 2.668 6.023 2.668 3.107 0 4.724-1.479 6.025-2.668 1.125-1.028 1.868-1.708 3.55-1.708s2.424.679 3.55 1.708c1.299 1.189 2.917 2.668 6.024 2.668s4.724-1.479 6.025-2.668c1.125-1.028 1.868-1.708 3.55-1.708 1.683 0 2.425.679 3.55 1.708 1.301 1.189 2.918 2.668 6.025 2.668 3.106 0 4.724-1.479 6.024-2.668 1.125-1.028 1.868-1.708 3.55-1.708 1.01 0 1.832-.82 1.832-1.829-.001-1.01-.823-1.83-1.833-1.83z"/><path d="m88.304 35.422c-3.107 0-4.724 1.479-6.024 2.668-1.125 1.028-1.868 1.707-3.55 1.707-1.683 0-2.426-.679-3.551-1.707-1.3-1.189-2.918-2.668-6.024-2.668-3.107 0-4.724 1.479-6.025 2.668-1.124 1.028-1.866 1.707-3.55 1.707-1.683 0-2.426-.679-3.549-1.707-1.3-1.189-2.918-2.668-6.024-2.668s-4.724 1.479-6.025 2.668c-1.123 1.028-1.866 1.707-3.55 1.707-1.682 0-2.425-.679-3.549-1.707-1.3-1.189-2.918-2.668-6.023-2.668s-4.724 1.479-6.024 2.668c-1.125 1.028-1.868 1.707-3.55 1.707-1.684 0-2.426-.679-3.552-1.709-1.3-1.188-2.918-2.666-6.022-2.666-1.01 0-1.832.821-1.832 1.83 0 1.008.822 1.829 1.832 1.829 1.681 0 2.424.679 3.55 1.708 1.3 1.188 2.919 2.666 6.024 2.666 3.104 0 4.723-1.478 6.025-2.667 1.124-1.028 1.867-1.708 3.549-1.708s2.424.679 3.549 1.708c1.301 1.188 2.919 2.666 6.023 2.666 3.105 0 4.723-1.478 6.025-2.668 1.125-1.028 1.868-1.707 3.549-1.707s2.424.679 3.55 1.708c1.3 1.188 2.918 2.666 6.023 2.666s4.723-1.478 6.025-2.668c1.125-1.028 1.868-1.707 3.549-1.707 1.682 0 2.425.679 3.552 1.709 1.301 1.188 2.919 2.666 6.024 2.666 3.104 0 4.723-1.478 6.024-2.667 1.125-1.028 1.868-1.708 3.55-1.708 1.01 0 1.832-.821 1.832-1.829.001-1.006-.821-1.827-1.831-1.827z"/><path d="m88.304 45.39c-3.106 0-4.724 1.48-6.026 2.67-1.125 1.027-1.868 1.705-3.548 1.705s-2.423-.678-3.551-1.707c-1.3-1.188-2.918-2.668-6.024-2.668s-4.724 1.48-6.026 2.669c-1.125 1.027-1.867 1.706-3.549 1.706-1.681 0-2.424-.679-3.549-1.707-1.3-1.188-2.918-2.668-6.024-2.668s-4.724 1.48-6.025 2.669c-1.124 1.028-1.868 1.707-3.549 1.707-1.68 0-2.423-.678-3.549-1.707-1.3-1.188-2.918-2.668-6.023-2.668s-4.724 1.48-6.028 2.671c-1.124 1.026-1.866 1.704-3.546 1.704-1.681 0-2.424-.679-3.553-1.709-1.3-1.188-2.918-2.666-6.022-2.666-1.01 0-1.832.821-1.832 1.83s.822 1.83 1.832 1.83c1.681 0 2.424.678 3.55 1.706 1.3 1.189 2.918 2.668 6.024 2.668s4.724-1.479 6.025-2.668c1.124-1.027 1.867-1.706 3.549-1.706s2.424.679 3.549 1.706c1.3 1.189 2.918 2.668 6.023 2.668 3.106 0 4.724-1.479 6.025-2.669 1.125-1.027 1.868-1.706 3.549-1.706s2.424.678 3.55 1.706c1.299 1.189 2.918 2.668 6.024 2.668s4.724-1.479 6.025-2.669c1.125-1.027 1.868-1.706 3.549-1.706 1.683 0 2.426.679 3.552 1.709 1.301 1.187 2.918 2.665 6.023 2.665 3.104 0 4.722-1.478 6.024-2.667 1.125-1.028 1.868-1.707 3.55-1.707 1.01 0 1.832-.821 1.832-1.83.001-1.009-.821-1.829-1.831-1.829z"/><path d="m88.304 55.358c-3.105 0-4.724 1.479-6.024 2.667-1.125 1.028-1.868 1.707-3.55 1.707-1.683 0-2.425-.679-3.552-1.707-1.3-1.188-2.918-2.667-6.024-2.667s-4.724 1.479-6.025 2.667c-1.124 1.028-1.867 1.707-3.55 1.707-1.682 0-2.425-.679-3.55-1.707-1.3-1.188-2.918-2.667-6.024-2.667-3.105 0-4.724 1.478-6.025 2.667-1.124 1.028-1.866 1.707-3.55 1.707-1.682 0-2.424-.679-3.549-1.707-1.301-1.188-2.918-2.667-6.023-2.667-3.104 0-4.723 1.478-6.024 2.667-1.125 1.028-1.868 1.707-3.55 1.707-1.683 0-2.425-.679-3.554-1.711-1.3-1.187-2.918-2.663-6.02-2.663-1.01 0-1.832.82-1.832 1.828 0 1.009.822 1.83 1.832 1.83 1.681 0 2.424.679 3.55 1.708 1.3 1.188 2.918 2.668 6.024 2.668s4.724-1.479 6.025-2.668c1.124-1.028 1.866-1.707 3.549-1.707 1.682 0 2.425.679 3.549 1.708 1.3 1.188 2.918 2.668 6.023 2.668 3.106 0 4.724-1.479 6.025-2.668 1.125-1.028 1.868-1.708 3.55-1.708 1.681 0 2.424.679 3.55 1.708 1.299 1.188 2.918 2.668 6.024 2.668s4.724-1.479 6.025-2.668c1.125-1.028 1.868-1.708 3.55-1.708s2.425.679 3.55 1.708c1.301 1.188 2.918 2.668 6.025 2.668 3.106 0 4.724-1.479 6.024-2.668 1.125-1.028 1.868-1.708 3.55-1.708 1.01 0 1.832-.821 1.832-1.83.001-1.009-.821-1.829-1.831-1.829z"/><path d="m88.304 65.324c-3.107 0-4.724 1.479-6.024 2.668-1.125 1.028-1.868 1.707-3.55 1.707-1.683 0-2.425-.679-3.551-1.707-1.3-1.189-2.918-2.668-6.024-2.668-3.107 0-4.724 1.479-6.025 2.668-1.124 1.028-1.867 1.707-3.55 1.707-1.682 0-2.425-.679-3.549-1.707-1.3-1.189-2.918-2.668-6.024-2.668s-4.724 1.479-6.025 2.668c-1.124 1.028-1.866 1.707-3.55 1.707-1.682 0-2.424-.679-3.549-1.707-1.3-1.189-2.918-2.668-6.023-2.668s-4.724 1.479-6.024 2.668c-1.125 1.028-1.868 1.707-3.55 1.707-1.683 0-2.425-.679-3.552-1.709-1.3-1.188-2.918-2.666-6.022-2.666-1.01 0-1.832.821-1.832 1.83 0 1.008.822 1.829 1.832 1.829 1.681 0 2.424.679 3.55 1.708 1.301 1.188 2.919 2.666 6.024 2.666 3.104 0 4.723-1.478 6.025-2.668 1.124-1.028 1.866-1.707 3.549-1.707 1.682 0 2.425.679 3.55 1.708 1.3 1.188 2.918 2.666 6.022 2.666s4.723-1.478 6.025-2.667c1.125-1.028 1.868-1.708 3.55-1.708 1.681 0 2.424.679 3.55 1.708 1.301 1.188 2.919 2.666 6.023 2.666s4.723-1.478 6.025-2.667c1.125-1.028 1.868-1.708 3.55-1.708 1.683 0 2.425.679 3.552 1.709 1.301 1.188 2.918 2.666 6.023 2.666 3.104 0 4.722-1.478 6.024-2.667 1.125-1.028 1.868-1.708 3.55-1.708 1.01 0 1.832-.821 1.832-1.829 0-1.006-.822-1.827-1.832-1.827z"/></g></svg>