<svg enable-background="new 0 0 100 100" height="100" viewBox="0 0 100 100" width="100" xmlns="http://www.w3.org/2000/svg"><path d="m77.243 52.081 11.097-11.099h-5.661l-.096-.428c-4.15-15.357-18.163-26.645-34.846-26.645-19.918 0-36.076 16.148-36.076 36.098 0 19.922 16.158 36.084 36.089 36.084 26.48 0 34.753-24.368 34.794-24.451l-10.562-.106c-4.126 9.187-13.348 15.024-24.057 15.024-14.565 0-26.37-11.809-26.37-26.39 0-14.555 11.806-26.367 26.37-26.367 11.151 0 20.668 6.924 24.537 16.686l.188.494h-6.518z" fill="#4bbab5"/></svg>