<svg enable-background="new 0 0 100 100" height="100" viewBox="0 0 100 100" width="100" xmlns="http://www.w3.org/2000/svg"><path d="m86.145 62.081c-.386-.269-.855-.425-1.348-.425h-6.536v-.469-.895-.895-.895-.895-.895-.895-.895-.895-.895-.895-.401c0-.17-.017-.335-.048-.494-.065-.331-.196-.633-.378-.895-.292-.422-.717-.738-1.224-.895-.233-.072-.481-.111-.743-.111h-23.357v-.783-.895-.895-.895-.895-.895-.895-.895-.057h8.291c.752 0 1.405-.321 1.839-.838.214-.255.372-.558.463-.895.057-.21.089-.43.089-.662v-.233-.895-.895-.895-.895-.895-.895-.895-.895-.895-.895-.895-.895-.895-.895-.895-.895-.895-.895-.895-.895-.895-.895-.895-.895-.895-.895-.29c0-.21-.028-.412-.075-.605-.082-.334-.23-.637-.432-.895-.432-.55-1.105-.895-1.884-.895h-21.285c-.78 0-1.452.344-1.884.895-.202.258-.35.56-.432.895-.048.193-.075.395-.075.605v.29.895.895.895.895.895.895.895.895.895.895.895.895.895.895.895.895.895.895.895.895.895.895.895.895.895.895.233c0 .232.032.452.089.662.091.337.249.64.463.895.433.517 1.086.838 1.839.838h8.211v.057.895.895.895.895.895.895.895.783h-23.357c-.262 0-.51.039-.743.111-.507.157-.932.474-1.224.895-.182.262-.313.564-.378.895-.031.159-.048.323-.048.494v.401.895.895.895.895.895.895.895.895.895.895.469h-6.696c-.524 0-.999.157-1.387.425-.326.226-.587.533-.762.895-.131.271-.212.572-.235.895-.004.06-.008.119-.008.179v.716.895.895.895.895.895.895.895.895.895.895.895.895.895.895.895.895.895.895.895.895.895.29c0 .21.028.412.075.605.082.334.229.637.432.895.432.55 1.105.895 1.884.895h17.14c.78 0 1.452-.344 1.885-.895.202-.258.35-.56.432-.895.048-.193.075-.395.075-.605v-.29-.895-.895-.896-.895-.895-.895-.895-.895-.895-.895-.895-.895-.895-.895-.895-.895-.895-.895-.895-.895-.895-.716c0-.06-.004-.119-.009-.179-.022-.323-.103-.624-.235-.895-.174-.362-.436-.668-.761-.895-.387-.269-.863-.425-1.387-.425h-5.74v-.469-.895-.895-.895-.895-.895-.895-.895-.691h20.966v.691.895.895.895.895.895.895.895.469h-6.218c-.524 0-.999.157-1.387.425-.326.226-.587.533-.762.895-.131.271-.212.572-.235.895-.004.06-.008.119-.008.179v.716.895.895.895.895.895.895.895.895.895.895.895.895.895.895.895.895.895.895.895.895.895.29c0 .21.028.412.075.605.082.334.23.637.432.895.432.55 1.105.895 1.884.895h17.14c.78 0 1.452-.344 1.885-.895.202-.258.35-.56.432-.895.048-.193.075-.395.075-.605v-.29-.895-.895-.895-.895-.895-.895-.895-.895-.895-.895-.895-.895-.895-.895-.895-.895-.895-.895-.895-.895-.895-.716c0-.06-.005-.119-.009-.179-.022-.323-.104-.624-.234-.895-.175-.362-.436-.668-.762-.895-.388-.269-.863-.425-1.387-.425h-6.138v-.469-.895-.895-.895-.895-.895-.895-.895-.691h20.966v.691.895.895.895.895.895.895.895.469h-5.819c-.524 0-1 .157-1.387.425-.326.226-.587.533-.762.895-.131.271-.212.572-.234.895-.004.06-.009.119-.009.179v.716.895.895.895.895.895.895.895.895.895.895.895.895.895.895.895.895.895.895.895.895.895.29c0 .21.028.412.075.605.082.334.229.637.432.895.432.55 1.105.895 1.885.895h17.139c.78 0 1.452-.344 1.884-.895.202-.258.35-.56.433-.895.048-.193.075-.395.075-.605v-.29-.895-.895-.895-.895-.895-.895-.895-.895-.895-.895-.895-.895-.895-.895-.895-.895-.895-.895-.895-.895-.895-.716c.003-.06.002-.119.001-.179-.006-.323-.08-.624-.207-.895-.169-.361-.433-.668-.757-.894zm-56.115 4.363v.111.895.895.895.895.895.895.895.895.895.895.895.895.895.895.895.895.58h-12.356v-.58-.895-.895-.895-.895-.895-.895-.895-.895-.895-.895-.895-.895-.895-.895-.895-.895-.111zm26.228 0v.111.895.895.895.895.895.895.895.895.895.895.895.895.895.895.895.895.58h-12.357v-.58-.895-.895-.895-.895-.895-.895-.895-.895-.895-.895-.895-.895-.895-.895-.895-.895-.111zm-14.35-28.892v-.522-.895-.895-.895-.895-.895-.895-.895-.895-.895-.895-.895-.895-.895-.895-.895-.895-.895-.895-.895-.895-.579h16.501v.579.895.895.895.895.895.895.895.895.895.895.895.895.895.895.895.895.895.895.895.895.522zm40.498 29.002v.895.895.895.895.895.895.895.895.895.895.895.895.895.895.895.895.58h-12.356v-.58-.895-.895-.895-.895-.895-.895-.895-.895-.895-.895-.895-.895-.895-.895-.895-.895-.111h12.356z" fill="#4bbab5"/></svg>