<svg enable-background="new 250 250 100 100" height="100" viewBox="250 250 100 100" width="100" xmlns="http://www.w3.org/2000/svg"><path d="m335.347 319.246c-5.756-3.036-9.122-14.651-12.381-25.884-3.15-10.864-6.123-21.127-11.134-22.587-2.049-.598-4.237.279-6.692 2.682-3.527 3.608-6.813 11.354-9.995 18.846-3.796 8.944-7.721 18.192-11.496 18.575-2.545.271-5.164-3.386-7.93-7.244-3.536-4.931-7.734-10.785-13.349-10.671-1.311.048-4.361.562-5.145 4.248 1.946-1.969 3.759-2.74 5.536-2.36 4.676 1.003 8.46 10.074 11.797 18.076 3.369 8.079 6.289 15.08 9.993 15.09h.019c.078 0 .156-.003.235-.01 5.277-.439 7.23-8.016 9.491-16.792 1.603-6.228 3.422-13.283 6.711-18.322 2.927-4.289 5.538-6.27 7.986-6.049 4.383.392 7.853 7.794 11.526 15.633 3.889 8.301 7.891 16.956 13.674 18.784 3.966 1.253 7.001-1.87 7.001-1.87-2.134.853-4.046.805-5.847-.145zm-60.213-15.128c3.019 4.21 5.619 7.849 8.584 7.549 4.2-.424 8.037-9.464 12.099-19.034 3.151-7.422 6.41-15.098 9.826-18.595 2.248-2.199 4.209-3.015 5.996-2.497 4.62 1.348 7.536 11.408 10.624 22.06 1.478 5.096 2.979 10.269 4.725 14.715-1.654-3.926-3.134-8.428-4.594-12.869-3.323-10.116-6.461-19.671-11.365-20.802-2.186-.503-4.5.66-7.074 3.555-3.519 3.959-6.398 11.438-9.184 18.668-3.508 9.106-6.822 17.707-10.848 18.094-2.727.269-5.451-4.229-8.329-8.984-1.895-3.131-3.937-6.497-6.254-8.988 2.105 1.986 3.996 4.62 5.794 7.128zm-.158 2.293c3.133 5.177 5.845 9.643 9.013 9.341 4.471-.429 7.868-9.246 11.463-18.58 2.761-7.164 5.614-14.572 9.037-18.423 2.383-2.68 4.469-3.77 6.386-3.326 4.5 1.038 7.571 10.389 10.823 20.29 1.632 4.969 3.289 10.016 5.205 14.28-1.785-3.725-3.393-8.064-4.977-12.34-3.481-9.4-6.769-18.277-11.613-19.147-2.344-.42-4.814 1.03-7.543 4.44-3.469 4.334-5.955 11.547-8.36 18.518-3.05 8.841-5.93 17.194-10.213 17.585-2.911.263-5.739-5.106-8.726-10.795-1.621-3.088-3.347-6.37-5.257-9.059 1.709 2.179 3.283 4.77 4.762 7.216zm-.147 2.229c3.24 6.172 6.024 11.501 9.432 11.196 4.749-.432 7.709-9.013 10.842-18.098 2.383-6.907 4.846-14.049 8.229-18.276 2.545-3.182 4.791-4.549 6.859-4.176 4.433.796 7.647 9.473 11.05 18.66 1.876 5.063 3.786 10.208 6.002 14.369-2.074-3.651-3.932-8.096-5.759-12.472-3.633-8.707-7.067-16.931-11.863-17.557-2.515-.332-5.149 1.436-8.033 5.403-3.445 4.734-5.564 11.753-7.613 18.542-2.563 8.489-4.985 16.511-9.502 16.904-3.1.283-6.03-6.018-9.121-12.675-1.299-2.797-2.616-5.628-4.007-8.146 1.224 2.027 2.379 4.222 3.484 6.326zm46.348-6.518c-3.769-8.043-7.329-15.639-12.123-16.068-2.721-.244-5.553 1.842-8.648 6.377-3.367 5.157-5.202 12.284-6.823 18.573-2.186 8.487-4.076 15.818-8.836 16.212-3.305.276-6.322-6.955-9.516-14.615-.976-2.34-1.962-4.7-2.981-6.921.841 1.694 1.654 3.438 2.44 5.133 3.263 7.027 6.092 13.121 9.58 13.121.087 0 .174-.003.262-.012 5.007-.436 7.389-8.32 10.145-17.451 2.029-6.721 4.128-13.673 7.493-18.296 2.713-3.728 5.125-5.397 7.363-5.105 4.381.573 7.731 8.598 11.277 17.096 2.026 4.852 4.089 9.779 6.462 13.671-2.183-3.377-4.157-7.579-6.095-11.715z" fill="#fff"/></svg>