<svg enable-background="new 0 0 100 100" height="100" viewBox="0 0 100 100" width="100" xmlns="http://www.w3.org/2000/svg"><path d="m91.905 69.889c-2.08.832-3.918.788-5.668-.137-5.673-2.991-9.026-14.553-12.283-25.78-3.164-10.91-6.152-21.215-11.272-22.707-2.131-.621-4.378.266-6.903 2.738-3.547 3.628-6.836 11.372-10.017 18.86l-.022.051c-3.771 8.887-7.672 18.076-11.323 18.447-2.427.239-4.993-3.333-7.735-7.156-3.438-4.794-7.716-10.762-13.36-10.762l-.169.002c-1.335.049-4.529.577-5.345 4.416l-.151.71.51-.516c1.896-1.919 3.627-2.668 5.34-2.301 4.569.98 8.329 9.995 11.646 17.95 3.403 8.161 6.342 15.21 10.189 15.221h.019c.084 0 .168-.004.253-.011 5.429-.452 7.398-8.098 9.679-16.951 1.597-6.206 3.408-13.241 6.681-18.255 2.885-4.227 5.412-6.172 7.791-5.957 4.264.381 7.707 7.73 11.353 15.511l.122.262c3.868 8.259 7.868 16.798 13.68 18.636.644.203 1.305.306 1.965.306 3.05 0 5.164-2.14 5.253-2.23l.696-.717zm-36.467-40.304c2.335-2.626 4.341-3.687 6.179-3.26 4.383 1.011 7.437 10.307 10.67 20.153.097.292.192.584.289.877-3.379-9.11-6.633-17.501-11.436-18.364-.273-.049-.553-.074-.829-.074-2.183 0-4.445 1.501-6.917 4.59-1.338 1.671-2.528 3.763-3.625 6.103 1.755-4.085 3.612-7.71 5.669-10.025zm17.033 20.871c-3.657-8.765-7.111-17.043-12.032-17.687-.206-.027-.416-.041-.624-.041-2.414 0-4.902 1.809-7.607 5.53-.733 1.007-1.406 2.116-2.031 3.303 1.234-2.833 2.58-5.357 4.112-7.272 2.498-3.123 4.658-4.459 6.656-4.099 4.314.774 7.507 9.396 10.888 18.524.235.635.472 1.273.709 1.911-.024-.056-.048-.112-.071-.169zm-10.604-25.323c-2.271-.524-4.644.655-7.281 3.621-3.538 3.981-6.421 11.463-9.223 18.732-3.483 9.043-6.773 17.584-10.671 17.958-2.596.28-5.281-4.181-8.126-8.882-.669-1.104-1.37-2.263-2.104-3.411.442.604.881 1.216 1.317 1.824 3.051 4.256 5.672 7.883 8.75 7.598 4.325-.437 8.186-9.532 12.273-19.163 3.143-7.404 6.394-15.061 9.779-18.526 2.194-2.147 4.07-2.944 5.788-2.445 4.508 1.315 7.408 11.321 10.479 21.915.07.244.142.489.213.733-3.223-9.799-6.335-18.834-11.194-19.954zm-27.392 41.541c.108 0 .216-.006.325-.016 4.603-.441 8.022-9.317 11.648-18.733.017-.043.034-.088.051-.131-.509 1.427-1.008 2.872-1.503 4.309-3.025 8.769-5.883 17.051-10.027 17.43-2.785.257-5.695-5.306-8.519-10.683-.271-.516-.547-1.043-.83-1.576 3.056 5.049 5.7 9.399 8.855 9.4zm.297 4.082c.099 0 .198-.005.298-.014 4.071-.37 6.819-6.429 9.449-13.737-2.526 8.368-4.925 16.234-9.275 16.613-.061.006-.122.009-.182.009-2.793 0-5.528-5.682-8.412-11.884 2.689 5.032 5.154 9.012 8.122 9.013zm18.361-31.761c2.667-3.665 5.005-5.304 7.163-5.019 4.261.558 7.587 8.528 11.108 16.967.221.528.442 1.059.665 1.59-3.763-8.027-7.329-15.559-12.206-15.996-.147-.013-.297-.02-.446-.02-2.67 0-5.416 2.123-8.398 6.493-.412.63-.8 1.29-1.168 1.973.961-2.233 2.034-4.274 3.282-5.988zm-25.638 27.262c2.436 4.932 4.771 8.585 7.566 8.585.094 0 .188-.004.28-.013 3.867-.337 6.184-4.898 8.273-11.044-1.954 7.468-3.879 13.564-8.094 13.914-.055.005-.11.007-.166.007-2.667 0-5.216-5.231-7.859-11.449z" fill="#4bbab5"/></svg>