<svg enable-background="new 0 0 50 50" height="50" viewBox="0 0 50 50" width="50" xmlns="http://www.w3.org/2000/svg"><g fill="#4bbab5"><path d="m22.145 3.219c-11.735 0-21.294 9.308-21.73 20.953l-.005 1.467c.338 11.733 9.936 21.142 21.735 21.142 12.013 0 21.751-9.752 21.751-21.781s-9.738-21.781-21.751-21.781zm17.891 23.714c-1.067 0-1.931-.866-1.931-1.933 0-1.068.864-1.933 1.931-1.933s1.931.866 1.931 1.933c-.001 1.067-.865 1.933-1.931 1.933zm-6.064-10.353-.272.165-.111-.068.271-.166-.271-.166-.271.166.271.166-.271.166.11.068-.298.182-.136-.083-.271.166.135.083-10.713 6.544-10.717-6.546.131-.081-.271-.166-.132.081-.272-.166.132-.082-.271-.166.271-.166-.271-.166-.271.166.271.166-.133.082-.272-.166.134-.082-.271-.166-.134.083-.135-.083h.269.312.231.542.542.542.542.542.543.542.542.542.542.542.542.549.542.542.542.544.543.542.545.542.542.542.542.543.542.542.542.542.542.543.542.542.542.542.542.543.542.542.542.542.595.186.357.225l-.112.069-.112-.069-.271.166zm-24.582 13.347v-11.552-1.538c0-.051.01-.098.024-.144l12.187 7.445-12.195 7.449c-.01-.039-.016-.078-.016-.12zm11.667 7.212-.271.166.268.164c-.156-.012-.31-.026-.464-.044l.197-.12-.271-.166.271-.166-.271-.166-.271.166.271.166-.271.166.16.098c-.089-.011-.179-.019-.267-.032l.108-.066-.271-.166-.261.16c-.009-.002-.018-.003-.028-.005l-.254-.156-.132.081c-.134-.028-.268-.056-.4-.087l.26-.16.271.166.271-.166-.271-.166-.271.166-.271-.166-.271.166.25.153c-.117-.028-.232-.061-.348-.092l.099-.061-.271-.166-.2.123c-.099-.029-.196-.062-.294-.093l-.048-.029-.016.009c-.117-.038-.232-.078-.348-.119l.092-.057-.271-.166-.159.097c-.035-.014-.071-.025-.106-.039v-.222l.265.163.271-.166-.274-.167-.265.162v-.325l.265.163.271-.166-.271-.166-.265.163v-.325l.265.162.271-.166-.271-.166-.265.163v-.325l.265.162.271-.166-.271-.166-.265.163v-3.347h-6.478-.627l12.257-7.488 12.257 7.488h-.628-6.478v3.351l-.271-.166-.271.166.271.166.271-.166v.332l-.271-.166-.271.166.271.166.271-.166v.333l-.271-.166-.271.166.271.166.271-.166v.332l-.271-.166-.271.166.271.166.271-.166v.225c-.036.014-.073.026-.11.041l-.162-.099-.271.166.094.058c-.115.042-.231.081-.348.119l-.018-.011-.055.034c-.095.03-.189.062-.285.091l-.203-.124-.271.166.1.062c-.118.031-.235.064-.353.093l.253-.155-.271-.166-.271.166-.273-.165-.271.166.271.167.271-.166.263.161c-.132.032-.266.06-.4.088l-.133-.082-.256.157c-.008.002-.016.003-.024.004l-.263-.161-.271.166.109.066c-.09.013-.18.021-.27.032l.162-.099-.271-.166-.271.166.198.121c-.155.017-.31.031-.467.044l.269-.165-.271-.166-.271.166.269.165c-.357.028-.716.045-1.08.045-.366 0-.727-.018-1.086-.045l.269-.165zm13.844-18.764v11.552 1.538c0 .042-.006.082-.016.12l-12.195-7.448 12.187-7.445c.014.046.024.093.024.144zm-30.646 8.558c-1.066 0-1.931-.866-1.931-1.933s.864-1.933 1.931-1.933 1.931.866 1.931 1.933-.864 1.933-1.931 1.933z"/><circle cx="4.255" cy="25" r=".348"/><circle cx="40.036" cy="25" r=".348"/><path d="m17.53 35.309.271.166.272-.166-.272-.167z"/><path d="m18.073 35.309.271.166.271-.166-.271-.167z"/><path d="m18.615 35.309.272.166.271-.166-.271-.167z"/><path d="m19.158 35.309.271.166.272-.166-.272-.167z"/><path d="m20.243 35.309-.271-.167-.271.167.271.166z"/><path d="m20.786 35.309-.272-.167-.271.167.271.166z"/><path d="m21.328 35.309-.271-.167-.271.167.271.166z"/><path d="m21.871 35.309-.272-.167-.271.167.271.166z"/><path d="m22.413 35.309-.271-.167-.271.167.271.166z"/><path d="m22.956 35.309-.271-.167-.272.167.272.166z"/><path d="m23.498 35.309-.271-.167-.271.167.271.166z"/><path d="m24.041 35.309-.271-.167-.272.167.272.166z"/><path d="m24.584 35.309-.271-.167-.272.167.272.166z"/><path d="m25.126 35.309-.271-.167-.271.167.271.166z"/><path d="m25.669 35.309-.271-.167-.272.167.272.166z"/><path d="m26.211 35.309-.27-.167-.272.167.272.166z"/><path d="m26.211 35.309.272.166.271-.166-.271-.167z"/><path d="m17.53 35.641.271.167.272-.167-.272-.166z"/><path d="m18.073 35.641.271.167.271-.167-.271-.166z"/><path d="m18.615 35.641.272.167.271-.167-.271-.166z"/><path d="m19.158 35.641.271.167.272-.167-.272-.166z"/><path d="m20.243 35.641-.271-.166-.271.166.271.167z"/><path d="m20.786 35.641-.272-.166-.271.166.271.167z"/><path d="m21.328 35.641-.271-.166-.271.166.271.167z"/><path d="m21.871 35.641-.272-.166-.271.166.271.167z"/><path d="m22.413 35.641-.271-.166-.271.166.271.167z"/><path d="m22.956 35.641-.271-.166-.272.166.272.167z"/><path d="m23.498 35.641-.271-.166-.271.166.271.167z"/><path d="m24.041 35.641-.271-.166-.272.166.272.167z"/><path d="m24.584 35.641-.271-.166-.272.166.272.167z"/><path d="m25.126 35.641-.271-.166-.271.166.271.167z"/><path d="m25.669 35.641-.271-.166-.272.166.272.167z"/><path d="m26.211 35.641-.27-.166-.272.166.272.167z"/><path d="m26.211 35.641.272.167.271-.167-.271-.166z"/><path d="m17.53 35.974.271.166.272-.166-.272-.166z"/><path d="m18.073 35.974.271.166.271-.166-.271-.166z"/><path d="m18.615 35.974.272.166.271-.166-.271-.166z"/><path d="m19.158 35.974.271.166.272-.166-.272-.166z"/><path d="m20.243 35.974-.271-.166-.271.166.271.166z"/><path d="m20.786 35.974-.272-.166-.271.166.271.166z"/><path d="m21.328 35.974-.271-.166-.271.166.271.166z"/><path d="m21.871 35.974-.272-.166-.271.166.271.166z"/><path d="m22.413 35.974-.271-.166-.271.166.271.166z"/><path d="m22.956 35.974-.271-.166-.272.166.272.166z"/><path d="m23.498 35.974-.271-.166-.271.166.271.166z"/><path d="m24.041 35.974-.271-.166-.272.166.272.166z"/><path d="m24.584 35.974-.271-.166-.272.166.272.166z"/><path d="m25.126 35.974-.271-.166-.271.166.271.166z"/><path d="m25.669 35.974-.271-.166-.272.166.272.166z"/><path d="m26.211 35.974-.27-.166-.272.166.272.166z"/><path d="m26.211 35.974.272.166.271-.166-.271-.166z"/><path d="m11.017 16.511.272.167.271-.167-.271-.166z"/><path d="m12.103 16.511-.272-.166-.271.166.271.167.272-.167.271.167.271-.167-.271-.166z"/><path d="m12.645 16.511.271.167.272-.167-.272-.166z"/><path d="m13.188 16.511.271.167.271-.167-.271-.166z"/><path d="m13.731 16.511.271.167.271-.167-.271-.166z"/><path d="m14.273 16.511.271.167.272-.167-.272-.166z"/><path d="m15.359 16.511-.272-.166-.271.166.271.167.272-.167.27.167.272-.167-.272-.166z"/><path d="m15.901 16.511.271.167.272-.167-.272-.166z"/><path d="m16.444 16.511.271.167.271-.167-.271-.166z"/><path d="m16.986 16.511.271.167.271-.167-.271-.166z"/><path d="m17.528 16.511.272.167.271-.167-.271-.166z"/><path d="m18.071 16.511.272.167.271-.167-.271-.166z"/><path d="m18.614 16.511.271.167.271-.167-.271-.166z"/><path d="m19.156 16.511.272.167.271-.167-.271-.166z"/><path d="m11.56 16.844-.271-.166-.272.166.272.166z"/><path d="m12.103 16.844-.272-.166-.271.166.271.166.272-.166.271.166.271-.166-.271-.166z"/><path d="m12.645 16.844.271.166.272-.166-.272-.166z"/><path d="m13.188 16.844.271.166.271-.166-.271-.166z"/><path d="m13.731 16.844.271.166.271-.166-.271-.166z"/><path d="m14.273 16.844.271.166.272-.166-.272-.166z"/><path d="m15.359 16.844-.272-.166-.271.166.271.166.272-.166.27.166.272-.166-.272-.166z"/><path d="m15.901 16.844.271.166.272-.166-.272-.166z"/><path d="m16.444 16.844.271.166.271-.166-.271-.166z"/><path d="m16.986 16.844.271.166.271-.166-.271-.166z"/><path d="m17.528 16.844.272.166.271-.166-.271-.166z"/><path d="m18.071 16.844.272.166.271-.166-.271-.166z"/><path d="m18.614 16.844.271.166.271-.166-.271-.166z"/><path d="m19.156 16.844.272.166.271-.166-.271-.166z"/><path d="m12.103 17.177-.272-.166-.271.166.271.167.272-.167.271.167.271-.167-.271-.166z"/><path d="m12.645 17.177.271.167.272-.167-.272-.166z"/><path d="m13.188 17.177.271.167.271-.167-.271-.166z"/><path d="m13.731 17.177.271.167.271-.167-.271-.166z"/><path d="m14.273 17.177.271.167.272-.167-.272-.166z"/><path d="m15.359 17.177-.272-.166-.271.166.271.167.272-.167.27.167.272-.167-.272-.166z"/><path d="m15.901 17.177.271.167.272-.167-.272-.166z"/><path d="m16.444 17.177.271.167.271-.167-.271-.166z"/><path d="m16.986 17.177.271.167.271-.167-.271-.166z"/><path d="m17.528 17.177.272.167.271-.167-.271-.166z"/><path d="m18.071 17.177.272.167.271-.167-.271-.166z"/><path d="m18.614 17.177.271.167.271-.167-.271-.166z"/><path d="m19.156 17.177.272.167.271-.167-.271-.166z"/><path d="m19.701 16.511.271.167.271-.167-.271-.166z"/><path d="m20.786 16.511-.272-.166-.271.166.271.167.272-.167.271.167.271-.167-.271-.166z"/><path d="m21.328 16.511.271.167.272-.167-.272-.166z"/><path d="m21.871 16.511.271.167.271-.167-.271-.166z"/><path d="m22.413 16.511.272.167.271-.167-.271-.166z"/><path d="m22.956 16.511.271.167.271-.167-.271-.166z"/><path d="m23.498 16.511.272.167.271-.167-.271-.166z"/><path d="m24.041 16.511.272.167.271-.167-.271-.166z"/><path d="m24.584 16.511.271.167.271-.167-.271-.166z"/><path d="m25.126 16.511.272.167.271-.167-.271-.166z"/><path d="m25.669 16.511.272.167.27-.167-.27-.166z"/><path d="m26.211 16.511.272.167.271-.167-.271-.166z"/><path d="m26.754 16.511.272.167.271-.167-.271-.166z"/><path d="m27.297 16.511.271.167.271-.167-.271-.166z"/><path d="m27.839 16.511.271.167.272-.167-.272-.166z"/><path d="m28.382 16.511.271.167.272-.167-.272-.166z"/><path d="m28.925 16.511.271.167.271-.167-.271-.166z"/><path d="m19.701 16.844.271.166.271-.166-.271-.166z"/><path d="m20.786 16.844-.272-.166-.271.166.271.166.272-.166.271.166.271-.166-.271-.166z"/><path d="m21.328 16.844.271.166.272-.166-.272-.166z"/><path d="m21.871 16.844.271.166.271-.166-.271-.166z"/><path d="m22.413 16.844.272.166.271-.166-.271-.166z"/><path d="m22.956 16.844.271.166.271-.166-.271-.166z"/><path d="m23.498 16.844.272.166.271-.166-.271-.166z"/><path d="m24.041 16.844.272.166.271-.166-.271-.166z"/><path d="m24.584 16.844.271.166.271-.166-.271-.166z"/><path d="m25.126 16.844.272.166.271-.166-.271-.166z"/><path d="m25.669 16.844.272.166.27-.166-.27-.166z"/><path d="m26.211 16.844.272.166.271-.166-.271-.166z"/><path d="m26.754 16.844.272.166.271-.166-.271-.166z"/><path d="m27.297 16.844.271.166.271-.166-.271-.166z"/><path d="m27.839 16.844.271.166.272-.166-.272-.166z"/><path d="m28.382 16.844.271.166.272-.166-.272-.166z"/><path d="m28.925 16.844.271.166.271-.166-.271-.166z"/><path d="m19.701 17.177.271.167.271-.167-.271-.166z"/><path d="m20.786 17.177-.272-.166-.271.166.271.167.272-.167.271.167.271-.167-.271-.166z"/><path d="m21.328 17.177.271.167.272-.167-.272-.166z"/><path d="m21.871 17.177.271.167.271-.167-.271-.166z"/><path d="m22.413 17.177.272.167.271-.167-.271-.166z"/><path d="m22.956 17.177.271.167.271-.167-.271-.166z"/><path d="m23.498 17.177.272.167.271-.167-.271-.166z"/><path d="m24.041 17.177.272.167.271-.167-.271-.166z"/><path d="m24.584 17.177.271.167.271-.167-.271-.166z"/><path d="m25.126 17.177.272.167.271-.167-.271-.166z"/><path d="m25.669 17.177.272.167.27-.167-.27-.166z"/><path d="m26.211 17.177.272.167.271-.167-.271-.166z"/><path d="m26.754 17.177.272.167.271-.167-.271-.166z"/><path d="m27.297 17.177.271.167.271-.167-.271-.166z"/><path d="m27.839 17.177.271.167.272-.167-.272-.166z"/><path d="m28.382 17.177.271.167.272-.167-.272-.166z"/><path d="m28.925 17.177.271.167.271-.167-.271-.166z"/><path d="m30.01 16.511-.272-.166-.271.166.271.167.272-.167.271.167.272-.167-.272-.166z"/><path d="m30.553 16.511.271.167.271-.167-.271-.166z"/><path d="m31.095 16.511.271.167.272-.167-.272-.166z"/><path d="m31.638 16.511.271.167.271-.167-.271-.166z"/><path d="m32.18 16.511.272.167.271-.167-.271-.166z"/><path d="m32.723 16.511.271.167.272-.167-.272-.166z"/><path d="m30.01 16.844-.272-.166-.271.166.271.166.272-.166.271.166.272-.166-.272-.166z"/><path d="m30.553 16.844.271.166.271-.166-.271-.166z"/><path d="m31.095 16.844.271.166.272-.166-.272-.166z"/><path d="m31.638 16.844.271.166.271-.166-.271-.166z"/><path d="m32.18 16.844.272.166.271-.166-.271-.166z"/><path d="m32.723 16.844.271.166.272-.166-.272-.166z"/><path d="m30.01 17.177-.272-.166-.271.166.271.167.272-.167.271.167.272-.167-.272-.166z"/><path d="m30.553 17.177.271.167.271-.167-.271-.166z"/><path d="m31.095 17.177.271.167.272-.167-.272-.166z"/><path d="m31.638 17.177.271.167.271-.167-.271-.166z"/><path d="m32.18 17.177.272.167.271-.167-.271-.166z"/><path d="m17.53 36.307.271.166.272-.166-.272-.167z"/><path d="m18.073 36.307.271.166.271-.166-.271-.167z"/><path d="m18.615 36.307.272.166.271-.166-.271-.167z"/><path d="m19.158 36.307.271.166.272-.166-.272-.167z"/><path d="m20.243 36.307-.271-.167-.271.167.271.166z"/><path d="m20.786 36.307-.272-.167-.271.167.271.166z"/><path d="m21.328 36.307-.271-.167-.271.167.271.166z"/><path d="m21.871 36.307-.272-.167-.271.167.271.166z"/><path d="m22.413 36.307-.271-.167-.271.167.271.166z"/><path d="m22.956 36.307-.271-.167-.272.167.272.166z"/><path d="m23.498 36.307-.271-.167-.271.167.271.166z"/><path d="m24.041 36.307-.271-.167-.272.167.272.166z"/><path d="m24.584 36.307-.271-.167-.272.167.272.166z"/><path d="m25.126 36.307-.271-.167-.271.167.271.166z"/><path d="m25.669 36.307-.271-.167-.272.167.272.166z"/><path d="m26.211 36.307-.27-.167-.272.167.272.166z"/><path d="m26.211 36.307.272.166.271-.166-.271-.167z"/><path d="m17.53 36.64.271.166.272-.166-.272-.166z"/><path d="m18.073 36.64.271.166.271-.166-.271-.166z"/><path d="m18.615 36.64.272.166.271-.166-.271-.166z"/><path d="m19.158 36.64.271.166.272-.166-.272-.166z"/><path d="m19.701 36.64.271.166.271-.166-.271-.166z"/><path d="m20.243 36.64.271.166.272-.166-.272-.166z"/><path d="m21.057 36.474-.271.166.271.166.271-.166z"/><path d="m21.871 36.64-.272-.166-.271.166.271.166z"/><path d="m22.413 36.64-.271-.166-.271.166.271.166z"/><path d="m22.956 36.64-.271-.166-.272.166.272.166z"/><path d="m23.498 36.64-.271-.166-.271.166.271.166z"/><path d="m24.041 36.64-.271-.166-.272.166.272.166z"/><path d="m24.584 36.64-.271-.166-.272.166.272.166z"/><path d="m25.126 36.64-.271-.166-.271.166.271.166z"/><path d="m25.669 36.64-.271-.166-.272.166.272.166z"/><path d="m26.211 36.64-.27-.166-.272.166.272.166z"/><path d="m26.754 36.64-.271-.166-.272.166.272.166z"/><path d="m19.701 36.972.271.167.271-.167-.271-.166z"/><path d="m21.328 36.972-.271-.166-.271.166.271.167z"/><path d="m21.871 36.972-.272-.166-.271.166.271.167z"/><path d="m22.413 36.972-.271-.166-.271.166.271.167z"/><path d="m22.956 36.972-.271-.166-.272.166.272.167z"/><path d="m23.498 36.972-.271-.166-.271.166.271.167z"/><path d="m24.041 36.972-.271-.166-.272.166.272.167z"/><path d="m24.584 36.972-.271-.166-.272.166.272.167z"/><path d="m21.871 37.305-.272-.166-.271.166.271.166z"/><path d="m22.413 37.305-.271-.166-.271.166.271.166z"/><path d="m22.956 37.305-.271-.166-.272.166.272.166z"/></g></svg>