<svg enable-background="new 0 0 150 50" height="50" viewBox="0 0 150 50" width="150" xmlns="http://www.w3.org/2000/svg"><g fill="#4bbab5"><path d="m22.788 2.47c-11.764 0-21.347 9.331-21.783 21.005l-.005 1.471c.339 11.762 9.96 21.195 21.788 21.195 12.042 0 21.805-9.776 21.805-21.835s-9.763-21.836-21.805-21.836zm17.935 23.773c-1.069 0-1.935-.868-1.935-1.938s.867-1.937 1.935-1.937 1.935.868 1.935 1.937c0 1.071-.866 1.938-1.935 1.938zm-6.079-10.379-.272.166-.111-.068.272-.167-.272-.166-.272.166.272.167-.272.167.111.068-.3.183-.136-.083-.272.166.135.083-10.739 6.56-10.744-6.563.132-.081-.272-.166-.132.081-.272-.165.133-.082-.271-.167.271-.167-.272-.166-.272.166.272.167-.133.082-.273-.167.134-.082-.272-.167-.134.083-.135-.083h.27.313.231.544.544.544.544.544.544.544.544.544.542.544.544.544.544.544.544.545.544.544.544.544.544.544.544.544.544.544.544.544.544.544.544.544.544.543.544.544.544.544.544.544.596.187.357.225l-.113.069-.112-.069-.272.167zm-24.643 13.381v-11.581-1.542c0-.051.01-.099.024-.145l12.217 7.463-12.225 7.467c-.01-.039-.016-.079-.016-.121zm11.696 7.23-.272.167.269.165c-.156-.012-.311-.027-.465-.044l.197-.121-.272-.167.272-.167-.272-.166-.272.166.272.167-.272.167.16.098c-.089-.011-.179-.02-.268-.032l.108-.066-.272-.167-.262.161c-.009-.002-.018-.003-.028-.005l-.255-.156-.132.081c-.134-.028-.269-.056-.401-.087l.261-.161.272.167.272-.167-.272-.166-.272.166-.272-.166-.272.167.25.153c-.118-.028-.233-.061-.349-.093l.099-.061-.272-.167-.201.123c-.099-.029-.197-.062-.295-.094l-.048-.029-.013.009c-.117-.038-.233-.078-.349-.12l.092-.057-.272-.166-.16.097c-.035-.014-.071-.025-.106-.04v-.222l.265.163.272-.167-.273-.166-.265.162v-.326l.265.163.272-.167-.272-.167-.265.163v-.326l.265.162.272-.166-.272-.167-.265.163v-.326l.265.162.272-.167-.272-.167-.265.163v-3.356h-6.494-.629l12.288-7.506 12.288 7.505h-.629-6.494v3.359l-.272-.166-.272.166.272.166.272-.166v.333l-.272-.166-.272.166.272.167.272-.167v.334l-.272-.166-.272.166.272.166.272-.166v.333l-.272-.166-.272.166.272.167.272-.167v.225c-.036.014-.074.027-.11.041l-.162-.099-.272.166.094.058c-.115.042-.232.081-.349.12l-.018-.011-.055.034c-.095.03-.19.062-.285.091l-.203-.125-.272.167.101.062c-.118.031-.236.064-.354.093l.253-.155-.272-.167-.272.167-.272-.166-.272.166.272.167.272-.167.263.161c-.133.032-.267.06-.401.088l-.134-.082-.257.158c-.008.002-.016.003-.024.004l-.263-.161-.272.167.109.067c-.09.013-.18.021-.271.032l.162-.099-.272-.167-.272.167.198.121c-.155.017-.311.031-.468.044l.27-.165-.272-.167-.272.167.27.166c-.358.028-.718.045-1.083.045-.367 0-.729-.018-1.089-.045l.269-.165zm13.879-18.811v11.581 1.542c0 .042-.007.082-.016.12l-12.226-7.467 12.217-7.463c.014.046.024.094.024.145v1.542zm-30.722 8.579c-1.069 0-1.935-.868-1.935-1.938s.867-1.937 1.935-1.937c1.069 0 1.935.868 1.935 1.937 0 1.071-.866 1.938-1.935 1.938z"/><circle cx="4.854" cy="24.305" r=".349"/><circle cx="40.723" cy="24.305" r=".349"/><path d="m18.162 34.64.272.166.271-.166-.271-.167z"/><path d="m18.705 34.64.272.166.272-.166-.272-.167z"/><path d="m19.249 34.64.273.166.271-.166-.271-.167z"/><path d="m19.793 34.64.273.166.271-.166-.271-.167z"/><path d="m20.881 34.64-.272-.167-.272.167.272.166z"/><path d="m21.425 34.64-.272-.167-.272.167.272.166z"/><path d="m21.969 34.64-.272-.167-.272.167.272.166z"/><path d="m22.513 34.64-.272-.167-.272.167.272.166z"/><path d="m23.057 34.64-.272-.167-.272.167.272.166z"/><path d="m23.601 34.64-.272-.167-.272.167.272.166z"/><path d="m24.145 34.64-.272-.167-.272.167.272.166z"/><path d="m24.689 34.64-.272-.167-.272.167.272.166z"/><path d="m25.233 34.64-.273-.167-.271.167.271.166z"/><path d="m25.777 34.64-.272-.167-.272.167.272.166z"/><path d="m26.321 34.64-.272-.167-.272.167.272.166z"/><path d="m26.864 34.64-.272-.167-.271.167.271.166z"/><path d="m26.864 34.64.273.166.271-.166-.271-.167z"/><path d="m18.162 34.973.272.167.271-.167-.271-.166z"/><path d="m18.705 34.973.272.167.272-.167-.272-.166z"/><path d="m19.249 34.973.273.167.271-.167-.271-.166z"/><path d="m19.793 34.973.273.167.271-.167-.271-.166z"/><path d="m20.881 34.973-.272-.166-.272.166.272.167z"/><path d="m21.425 34.973-.272-.166-.272.166.272.167z"/><path d="m21.969 34.973-.272-.166-.272.166.272.167z"/><path d="m22.513 34.973-.272-.166-.272.166.272.167z"/><path d="m23.057 34.973-.272-.166-.272.166.272.167z"/><path d="m23.601 34.973-.272-.166-.272.166.272.167z"/><path d="m24.145 34.973-.272-.166-.272.166.272.167z"/><path d="m24.689 34.973-.272-.166-.272.166.272.167z"/><path d="m25.233 34.973-.273-.166-.271.166.271.167z"/><path d="m25.777 34.973-.272-.166-.272.166.272.167z"/><path d="m26.321 34.973-.272-.166-.272.166.272.167z"/><path d="m26.864 34.973-.272-.166-.271.166.271.167z"/><path d="m26.864 34.973.273.167.271-.167-.271-.166z"/><path d="m18.162 35.307.272.167.271-.167-.271-.167z"/><path d="m18.705 35.307.272.167.272-.167-.272-.167z"/><path d="m19.249 35.307.273.167.271-.167-.271-.167z"/><path d="m19.793 35.307.273.167.271-.167-.271-.167z"/><path d="m20.881 35.307-.272-.167-.272.167.272.167z"/><path d="m21.425 35.307-.272-.167-.272.167.272.167z"/><path d="m21.969 35.307-.272-.167-.272.167.272.167z"/><path d="m22.513 35.307-.272-.167-.272.167.272.167z"/><path d="m23.057 35.307-.272-.167-.272.167.272.167z"/><path d="m23.601 35.307-.272-.167-.272.167.272.167z"/><path d="m24.145 35.307-.272-.167-.272.167.272.167z"/><path d="m24.689 35.307-.272-.167-.272.167.272.167z"/><path d="m25.233 35.307-.273-.167-.271.167.271.167z"/><path d="m25.777 35.307-.272-.167-.272.167.272.167z"/><path d="m26.321 35.307-.272-.167-.272.167.272.167z"/><path d="m26.864 35.307-.272-.167-.271.167.271.167z"/><path d="m26.864 35.307.273.167.271-.167-.271-.167z"/><path d="m11.633 15.796.272.167.271-.167-.271-.167z"/><path d="m12.721 15.796-.272-.167-.273.167.273.167.272-.167.272.167.272-.167-.272-.167z"/><path d="m13.265 15.796.272.167.271-.167-.271-.167z"/><path d="m13.808 15.796.272.167.272-.167-.272-.167z"/><path d="m14.352 15.796.273.167.271-.167-.271-.167z"/><path d="m14.896 15.796.273.167.271-.167-.271-.167z"/><path d="m15.984 15.796-.272-.167-.272.167.272.167.272-.167.272.167.272-.167-.272-.167z"/><path d="m16.528 15.796.272.167.272-.167-.272-.167z"/><path d="m17.072 15.796.272.167.272-.167-.272-.167z"/><path d="m17.616 15.796.272.167.272-.167-.272-.167z"/><path d="m18.16 15.796.272.167.272-.167-.272-.167z"/><path d="m18.704 15.796.272.167.272-.167-.272-.167z"/><path d="m19.248 15.796.272.167.272-.167-.272-.167z"/><path d="m19.792 15.796.272.167.272-.167-.272-.167z"/><path d="m12.176 16.13-.271-.167-.272.167.272.166z"/><path d="m12.721 16.13-.272-.167-.273.167.273.166.272-.166.272.166.272-.166-.272-.167z"/><path d="m13.265 16.13.272.166.271-.166-.271-.167z"/><path d="m13.808 16.13.272.166.272-.166-.272-.167z"/><path d="m14.352 16.13.273.166.271-.166-.271-.167z"/><path d="m14.896 16.13.273.166.271-.166-.271-.167z"/><path d="m15.984 16.13-.272-.167-.272.167.272.166.272-.166.272.166.272-.166-.272-.167z"/><path d="m16.528 16.13.272.166.272-.166-.272-.167z"/><path d="m17.072 16.13.272.166.272-.166-.272-.167z"/><path d="m17.616 16.13.272.166.272-.166-.272-.167z"/><path d="m18.16 16.13.272.166.272-.166-.272-.167z"/><path d="m18.704 16.13.272.166.272-.166-.272-.167z"/><path d="m19.248 16.13.272.166.272-.166-.272-.167z"/><path d="m19.792 16.13.272.166.272-.166-.272-.167z"/><path d="m12.721 16.463-.272-.166-.273.166.273.167.272-.167.272.167.272-.167-.272-.166z"/><path d="m13.265 16.463.272.167.271-.167-.271-.166z"/><path d="m13.808 16.463.272.167.272-.167-.272-.166z"/><path d="m14.352 16.463.273.167.271-.167-.271-.166z"/><path d="m14.896 16.463.273.167.271-.167-.271-.166z"/><path d="m15.984 16.463-.272-.166-.272.166.272.167.272-.167.272.167.272-.167-.272-.166z"/><path d="m16.528 16.463.272.167.272-.167-.272-.166z"/><path d="m17.072 16.463.272.167.272-.167-.272-.166z"/><path d="m17.616 16.463.272.167.272-.167-.272-.166z"/><path d="m18.16 16.463.272.167.272-.167-.272-.166z"/><path d="m18.704 16.463.272.167.272-.167-.272-.166z"/><path d="m19.248 16.463.272.167.272-.167-.272-.166z"/><path d="m19.792 16.463.272.167.272-.167-.272-.166z"/><path d="m20.337 15.796.272.167.272-.167-.272-.167z"/><path d="m21.425 15.796-.272-.167-.272.167.272.167.272-.167.272.167.272-.167-.272-.167z"/><path d="m21.969 15.796.272.167.272-.167-.272-.167z"/><path d="m22.513 15.796.272.167.272-.167-.272-.167z"/><path d="m23.057 15.796.272.167.272-.167-.272-.167z"/><path d="m23.601 15.796.272.167.272-.167-.272-.167z"/><path d="m24.145 15.796.272.167.272-.167-.272-.167z"/><path d="m24.689 15.796.271.167.273-.167-.273-.167z"/><path d="m25.233 15.796.272.167.272-.167-.272-.167z"/><path d="m25.777 15.796.272.167.272-.167-.272-.167z"/><path d="m26.321 15.796.271.167.272-.167-.272-.167z"/><path d="m26.864 15.796.273.167.271-.167-.271-.167z"/><path d="m27.408 15.796.273.167.272-.167-.272-.167z"/><path d="m27.953 15.796.271.167.272-.167-.272-.167z"/><path d="m28.496 15.796.272.167.272-.167-.272-.167z"/><path d="m29.04 15.796.273.167.271-.167-.271-.167z"/><path d="m29.584 15.796.272.167.272-.167-.272-.167z"/><path d="m20.337 16.13.272.166.272-.166-.272-.167z"/><path d="m21.425 16.13-.272-.167-.272.167.272.166.272-.166.272.166.272-.166-.272-.167z"/><path d="m21.969 16.13.272.166.272-.166-.272-.167z"/><path d="m22.513 16.13.272.166.272-.166-.272-.167z"/><path d="m23.057 16.13.272.166.272-.166-.272-.167z"/><path d="m23.601 16.13.272.166.272-.166-.272-.167z"/><path d="m24.145 16.13.272.166.272-.166-.272-.167z"/><path d="m24.689 16.13.271.166.273-.166-.273-.167z"/><path d="m25.233 16.13.272.166.272-.166-.272-.167z"/><path d="m25.777 16.13.272.166.272-.166-.272-.167z"/><path d="m26.321 16.13.271.166.272-.166-.272-.167z"/><path d="m26.864 16.13.273.166.271-.166-.271-.167z"/><path d="m27.408 16.13.273.166.272-.166-.272-.167z"/><path d="m27.953 16.13.271.166.272-.166-.272-.167z"/><path d="m28.496 16.13.272.166.272-.166-.272-.167z"/><path d="m29.04 16.13.273.166.271-.166-.271-.167z"/><path d="m29.584 16.13.272.166.272-.166-.272-.167z"/><path d="m20.337 16.463.272.167.272-.167-.272-.166z"/><path d="m21.425 16.463-.272-.166-.272.166.272.167.272-.167.272.167.272-.167-.272-.166z"/><path d="m21.969 16.463.272.167.272-.167-.272-.166z"/><path d="m22.513 16.463.272.167.272-.167-.272-.166z"/><path d="m23.057 16.463.272.167.272-.167-.272-.166z"/><path d="m23.601 16.463.272.167.272-.167-.272-.166z"/><path d="m24.145 16.463.272.167.272-.167-.272-.166z"/><path d="m24.689 16.463.271.167.273-.167-.273-.166z"/><path d="m25.233 16.463.272.167.272-.167-.272-.166z"/><path d="m25.777 16.463.272.167.272-.167-.272-.166z"/><path d="m26.321 16.463.271.167.272-.167-.272-.166z"/><path d="m26.864 16.463.273.167.271-.167-.271-.166z"/><path d="m27.408 16.463.273.167.272-.167-.272-.166z"/><path d="m27.953 16.463.271.167.272-.167-.272-.166z"/><path d="m28.496 16.463.272.167.272-.167-.272-.166z"/><path d="m29.04 16.463.273.167.271-.167-.271-.166z"/><path d="m29.584 16.463.272.167.272-.167-.272-.166z"/><path d="m30.672 15.796-.272-.167-.272.167.272.167.272-.167.272.167.272-.167-.272-.167z"/><path d="m31.216 15.796.272.167.272-.167-.272-.167z"/><path d="m31.76 15.796.272.167.272-.167-.272-.167z"/><path d="m32.304 15.796.272.167.272-.167-.272-.167z"/><path d="m32.848 15.796.272.167.272-.167-.272-.167z"/><path d="m33.392 15.796.272.167.272-.167-.272-.167z"/><path d="m30.672 16.13-.272-.167-.272.167.272.166.272-.166.272.166.272-.166-.272-.167z"/><path d="m31.216 16.13.272.166.272-.166-.272-.167z"/><path d="m31.76 16.13.272.166.272-.166-.272-.167z"/><path d="m32.304 16.13.272.166.272-.166-.272-.167z"/><path d="m32.848 16.13.272.166.272-.166-.272-.167z"/><path d="m33.392 16.13.272.166.272-.166-.272-.167z"/><path d="m30.672 16.463-.272-.166-.272.166.272.167.272-.167.272.167.272-.167-.272-.166z"/><path d="m31.216 16.463.272.167.272-.167-.272-.166z"/><path d="m31.76 16.463.272.167.272-.167-.272-.166z"/><path d="m32.304 16.463.272.167.272-.167-.272-.166z"/><path d="m32.848 16.463.272.167.272-.167-.272-.166z"/><path d="m18.162 35.64.272.167.271-.167-.271-.166z"/><path d="m18.705 35.64.272.167.272-.167-.272-.166z"/><path d="m19.249 35.64.273.167.271-.167-.271-.166z"/><path d="m19.793 35.64.273.167.271-.167-.271-.166z"/><path d="m20.881 35.64-.272-.166-.272.166.272.167z"/><path d="m21.425 35.64-.272-.166-.272.166.272.167z"/><path d="m21.969 35.64-.272-.166-.272.166.272.167z"/><path d="m22.513 35.64-.272-.166-.272.166.272.167z"/><path d="m23.057 35.64-.272-.166-.272.166.272.167z"/><path d="m23.601 35.64-.272-.166-.272.166.272.167z"/><path d="m24.145 35.64-.272-.166-.272.166.272.167z"/><path d="m24.689 35.64-.272-.166-.272.166.272.167z"/><path d="m25.233 35.64-.273-.166-.271.166.271.167z"/><path d="m25.777 35.64-.272-.166-.272.166.272.167z"/><path d="m26.321 35.64-.272-.166-.272.166.272.167z"/><path d="m26.864 35.64-.272-.166-.271.166.271.167z"/><path d="m26.864 35.64.273.167.271-.167-.271-.166z"/><path d="m18.162 35.974.272.167.271-.167-.271-.166z"/><path d="m18.705 35.974.272.167.272-.167-.272-.166z"/><path d="m19.249 35.974.273.167.271-.167-.271-.166z"/><path d="m19.793 35.974.273.167.271-.167-.271-.166z"/><path d="m20.337 35.974.272.167.272-.167-.272-.166z"/><path d="m20.881 35.974.272.167.272-.167-.272-.166z"/><path d="m21.697 35.808-.272.166.272.167.272-.167z"/><path d="m22.513 35.974-.272-.166-.272.166.272.167z"/><path d="m23.057 35.974-.272-.166-.272.166.272.167z"/><path d="m23.601 35.974-.272-.166-.272.166.272.167z"/><path d="m24.145 35.974-.272-.166-.272.166.272.167z"/><path d="m24.689 35.974-.272-.166-.272.166.272.167z"/><path d="m25.233 35.974-.273-.166-.271.166.271.167z"/><path d="m25.777 35.974-.272-.166-.272.166.272.167z"/><path d="m26.321 35.974-.272-.166-.272.166.272.167z"/><path d="m26.864 35.974-.272-.166-.271.166.271.167z"/><path d="m27.408 35.974-.271-.166-.273.166.273.167z"/><path d="m20.337 36.308.272.167.272-.167-.272-.167z"/><path d="m21.969 36.308-.272-.167-.272.167.272.167z"/><path d="m22.513 36.308-.272-.167-.272.167.272.167z"/><path d="m23.057 36.308-.272-.167-.272.167.272.167z"/><path d="m23.601 36.308-.272-.167-.272.167.272.167z"/><path d="m24.145 36.308-.272-.167-.272.167.272.167z"/><path d="m24.689 36.308-.272-.167-.272.167.272.167z"/><path d="m25.233 36.308-.273-.167-.271.167.271.167z"/><path d="m22.513 36.641-.272-.166-.272.166.272.167z"/><path d="m23.057 36.641-.272-.166-.272.166.272.167z"/><path d="m23.601 36.641-.272-.166-.272.166.272.167z"/><path d="m74.836 2.47c-11.764 0-21.347 9.331-21.783 21.005l-.005 1.471c.339 11.762 9.96 21.195 21.788 21.195 12.042 0 21.805-9.776 21.805-21.835s-9.763-21.836-21.805-21.836zm17.934 23.773c-1.069 0-1.935-.868-1.935-1.938s.867-1.937 1.935-1.937 1.935.868 1.935 1.937c0 1.071-.866 1.938-1.935 1.938zm-6.079-10.379-.272.166-.111-.068.272-.167-.272-.166-.272.166.272.167-.272.167.11.068-.299.183-.136-.083-.272.166.135.083-10.739 6.56-10.744-6.563.132-.081-.272-.166-.132.081-.272-.166.133-.082-.271-.167.271-.167-.272-.166-.272.166.272.167-.133.082-.273-.167.134-.082-.272-.167-.134.083-.135-.083h.27.313.231.544.544.544.544.544.544.544.544.544.544.544.544.544.544.544.544.545.544.544.544.544.544.544.544.544.544.544.544.544.544.544.544.544.544.544.544.544.544.544.544.544.596.187.357.225l-.113.069-.112-.069-.272.167zm-24.642 13.381v-11.581-1.542c0-.051.01-.099.024-.145l12.217 7.463-12.225 7.467c-.01-.039-.016-.079-.016-.121zm11.695 7.23-.272.167.269.165c-.156-.012-.311-.027-.465-.044l.197-.121-.272-.167.272-.167-.272-.166-.272.166.272.167-.272.167.16.098c-.089-.011-.179-.02-.268-.032l.108-.066-.272-.167-.262.161c-.009-.002-.018-.003-.028-.005l-.255-.156-.132.081c-.134-.028-.269-.056-.401-.087l.261-.161.272.167.272-.167-.272-.166-.272.166-.272-.166-.272.167.25.153c-.118-.028-.233-.061-.349-.093l.099-.061-.272-.167-.201.123c-.099-.029-.197-.062-.295-.094l-.048-.029-.016.009c-.117-.038-.233-.078-.349-.12l.092-.057-.272-.166-.16.097c-.035-.014-.071-.025-.106-.04v-.222l.265.163.272-.167-.273-.166-.265.162v-.326l.265.163.272-.167-.272-.167-.265.163v-.326l.265.162.272-.166-.272-.167-.265.163v-.326l.265.162.272-.167-.272-.167-.265.163v-3.356h-6.494-.629l12.288-7.506 12.288 7.505h-.629-6.492v3.359l-.272-.166-.272.166.272.166.272-.16v.333l-.272-.166-.272.166.272.167.272-.166v.334l-.272-.166-.272.166.272.166.272-.167v.333l-.272-.166-.272.166.272.167.272-.167v.225c-.036.014-.074.027-.11.041l-.162-.099-.272.166.094.058c-.115.042-.232.081-.349.12l-.018-.011-.055.034c-.095.03-.19.062-.285.091l-.203-.125-.272.167.101.062c-.118.031-.236.064-.354.093l.253-.155-.272-.167-.272.167-.272-.166-.272.166.272.167.272-.167.263.161c-.133.032-.267.06-.401.088l-.134-.082-.257.158c-.008.002-.016.003-.024.004l-.263-.161-.272.167.109.067c-.09.013-.18.021-.271.032l.162-.099-.272-.167-.272.167.198.121c-.155.017-.311.031-.468.044l.27-.165-.272-.167-.272.167.27.166c-.358.028-.718.045-1.083.045-.367 0-.729-.018-1.089-.045l.269-.165zm13.879-18.811v11.581 1.542c0 .042-.007.082-.016.12l-12.225-7.467 12.217-7.463c.014.046.024.094.024.145zm-30.722 8.579c-1.069 0-1.935-.868-1.935-1.938s.867-1.937 1.935-1.937c1.069 0 1.935.868 1.935 1.937.001 1.071-.866 1.938-1.935 1.938z"/><circle cx="56.901" cy="24.305" r=".349"/><circle cx="92.77" cy="24.305" r=".349"/><path d="m70.209 34.64.272.166.272-.166-.272-.167z"/><path d="m70.753 34.64.272.166.272-.166-.272-.167z"/><path d="m71.297 34.64.272.166.272-.166-.272-.167z"/><path d="m71.841 34.64.272.166.271-.166-.271-.167z"/><path d="m72.929 34.64-.272-.167-.272.167.272.166z"/><path d="m73.472 34.64-.271-.167-.272.167.272.166z"/><path d="m74.016 34.64-.272-.167-.272.167.272.166z"/><path d="m74.561 34.64-.273-.167-.272.167.272.166z"/><path d="m75.104 34.64-.271-.167-.272.167.272.166z"/><path d="m75.648 34.64-.272-.167-.272.167.272.166z"/><path d="m76.192 34.64-.272-.167-.272.167.272.166z"/><path d="m76.736 34.64-.272-.167-.272.167.272.166z"/><path d="m77.28 34.64-.272-.167-.272.167.272.166z"/><path d="m77.824 34.64-.272-.167-.272.167.272.166z"/><path d="m78.368 34.64-.272-.167-.272.167.272.166z"/><path d="m78.912 34.64-.272-.167-.272.167.272.166z"/><path d="m78.912 34.64.272.166.272-.166-.272-.167z"/><path d="m70.209 34.973.272.167.272-.167-.272-.166z"/><path d="m70.753 34.973.272.167.272-.167-.272-.166z"/><path d="m71.297 34.973.272.167.272-.167-.272-.166z"/><path d="m71.841 34.973.272.167.271-.167-.271-.166z"/><path d="m72.929 34.973-.272-.166-.272.166.272.167z"/><path d="m73.472 34.973-.271-.166-.272.166.272.167z"/><path d="m74.016 34.973-.272-.166-.272.166.272.167z"/><path d="m74.561 34.973-.273-.166-.272.166.272.167z"/><path d="m75.104 34.973-.271-.166-.272.166.272.167z"/><path d="m75.648 34.973-.272-.166-.272.166.272.167z"/><path d="m76.192 34.973-.272-.166-.272.166.272.167z"/><path d="m76.736 34.973-.272-.166-.272.166.272.167z"/><path d="m77.28 34.973-.272-.166-.272.166.272.167z"/><path d="m77.824 34.973-.272-.166-.272.166.272.167z"/><path d="m78.368 34.973-.272-.166-.272.166.272.167z"/><path d="m78.912 34.973-.272-.166-.272.166.272.167z"/><path d="m78.912 34.973.272.167.272-.167-.272-.166z"/><path d="m70.209 35.307.272.167.272-.167-.272-.167z"/><path d="m70.753 35.307.272.167.272-.167-.272-.167z"/><path d="m71.297 35.307.272.167.272-.167-.272-.167z"/><path d="m71.841 35.307.272.167.271-.167-.271-.167z"/><path d="m72.929 35.307-.272-.167-.272.167.272.167z"/><path d="m73.472 35.307-.271-.167-.272.167.272.167z"/><path d="m74.016 35.307-.272-.167-.272.167.272.167z"/><path d="m74.561 35.307-.273-.167-.272.167.272.167z"/><path d="m75.104 35.307-.271-.167-.272.167.272.167z"/><path d="m75.648 35.307-.272-.167-.272.167.272.167z"/><path d="m76.192 35.307-.272-.167-.272.167.272.167z"/><path d="m76.736 35.307-.272-.167-.272.167.272.167z"/><path d="m77.28 35.307-.272-.167-.272.167.272.167z"/><path d="m77.824 35.307-.272-.167-.272.167.272.167z"/><path d="m78.368 35.307-.272-.167-.272.167.272.167z"/><path d="m78.912 35.307-.272-.167-.272.167.272.167z"/><path d="m78.912 35.307.272.167.272-.167-.272-.167z"/><path d="m63.68 15.796.272.167.272-.167-.272-.167z"/><path d="m64.768 15.796-.272-.167-.272.167.272.167.272-.167.272.167.272-.167-.272-.167z"/><path d="m65.312 15.796.272.167.272-.167-.272-.167z"/><path d="m65.856 15.796.272.167.272-.167-.272-.167z"/><path d="m66.4 15.796.272.167.271-.167-.271-.167z"/><path d="m66.943 15.796.273.167.272-.167-.272-.167z"/><path d="m68.032 15.796-.272-.167-.272.167.272.167.272-.167.272.167.271-.167-.271-.167z"/><path d="m68.575 15.796.272.167.273-.167-.273-.167z"/><path d="m69.12 15.796.272.167.272-.167-.272-.167z"/><path d="m69.664 15.796.272.167.271-.167-.271-.167z"/><path d="m70.207 15.796.272.167.272-.167-.272-.167z"/><path d="m70.751 15.796.272.167.273-.167-.273-.167z"/><path d="m71.296 15.796.271.167.272-.167-.272-.167z"/><path d="m71.839 15.796.272.167.272-.167-.272-.167z"/><path d="m64.224 16.13-.272-.167-.272.167.272.166z"/><path d="m64.768 16.13-.272-.167-.272.167.272.166.272-.166.272.166.272-.166-.272-.167z"/><path d="m65.312 16.13.272.166.272-.166-.272-.167z"/><path d="m65.856 16.13.272.166.272-.166-.272-.167z"/><path d="m66.4 16.13.272.166.271-.166-.271-.167z"/><path d="m66.943 16.13.273.166.272-.166-.272-.167z"/><path d="m68.032 16.13-.272-.167-.272.167.272.166.272-.166.272.166.271-.166-.271-.167z"/><path d="m68.575 16.13.272.166.273-.166-.273-.167z"/><path d="m69.12 16.13.272.166.272-.166-.272-.167z"/><path d="m69.664 16.13.272.166.271-.166-.271-.167z"/><path d="m70.207 16.13.272.166.272-.166-.272-.167z"/><path d="m70.751 16.13.272.166.273-.166-.273-.167z"/><path d="m71.296 16.13.271.166.272-.166-.272-.167z"/><path d="m71.839 16.13.272.166.272-.166-.272-.167z"/><path d="m64.768 16.463-.272-.166-.272.166.272.167.272-.167.272.167.272-.167-.272-.166z"/><path d="m65.312 16.463.272.167.272-.167-.272-.166z"/><path d="m65.856 16.463.272.167.272-.167-.272-.166z"/><path d="m66.4 16.463.272.167.271-.167-.271-.166z"/><path d="m66.943 16.463.273.167.272-.167-.272-.166z"/><path d="m68.032 16.463-.272-.166-.272.166.272.167.272-.167.272.167.271-.167-.271-.166z"/><path d="m68.575 16.463.272.167.273-.167-.273-.166z"/><path d="m69.12 16.463.272.167.272-.167-.272-.166z"/><path d="m69.664 16.463.272.167.271-.167-.271-.166z"/><path d="m70.207 16.463.272.167.272-.167-.272-.166z"/><path d="m70.751 16.463.272.167.273-.167-.273-.166z"/><path d="m71.296 16.463.271.167.272-.167-.272-.166z"/><path d="m71.839 16.463.272.167.272-.167-.272-.166z"/><path d="m72.385 15.796.272.167.272-.167-.272-.167z"/><path d="m73.472 15.796-.271-.167-.272.167.272.167.271-.167.272.167.272-.167-.272-.167z"/><path d="m74.016 15.796.272.167.273-.167-.273-.167z"/><path d="m74.561 15.796.272.167.271-.167-.271-.167z"/><path d="m75.104 15.796.272.167.272-.167-.272-.167z"/><path d="m75.648 15.796.272.167.272-.167-.272-.167z"/><path d="m76.192 15.796.272.167.272-.167-.272-.167z"/><path d="m76.736 15.796.272.167.272-.167-.272-.167z"/><path d="m77.28 15.796.272.167.272-.167-.272-.167z"/><path d="m77.824 15.796.272.167.272-.167-.272-.167z"/><path d="m78.368 15.796.272.167.272-.167-.272-.167z"/><path d="m78.912 15.796.272.167.272-.167-.272-.167z"/><path d="m79.456 15.796.272.167.272-.167-.272-.167z"/><path d="m80 15.796.272.167.272-.167-.272-.167z"/><path d="m80.544 15.796.272.167.272-.167-.272-.167z"/><path d="m81.088 15.796.272.167.271-.167-.271-.167z"/><path d="m81.632 15.796.272.167.272-.167-.272-.167z"/><path d="m72.385 16.13.272.166.272-.166-.272-.167z"/><path d="m73.472 16.13-.271-.167-.272.167.272.166.271-.166.272.166.272-.166-.272-.167z"/><path d="m74.016 16.13.272.166.273-.166-.273-.167z"/><path d="m74.561 16.13.272.166.271-.166-.271-.167z"/><path d="m75.104 16.13.272.166.272-.166-.272-.167z"/><path d="m75.648 16.13.272.166.272-.166-.272-.167z"/><path d="m76.192 16.13.272.166.272-.166-.272-.167z"/><path d="m76.736 16.13.272.166.272-.166-.272-.167z"/><path d="m77.28 16.13.272.166.272-.166-.272-.167z"/><path d="m77.824 16.13.272.166.272-.166-.272-.167z"/><path d="m78.368 16.13.272.166.272-.166-.272-.167z"/><path d="m78.912 16.13.272.166.272-.166-.272-.167z"/><path d="m79.456 16.13.272.166.272-.166-.272-.167z"/><path d="m80 16.13.272.166.272-.166-.272-.167z"/><path d="m80.544 16.13.272.166.272-.166-.272-.167z"/><path d="m81.088 16.13.272.166.271-.166-.271-.167z"/><path d="m81.632 16.13.272.166.272-.166-.272-.167z"/><path d="m72.385 16.463.272.167.272-.167-.272-.166z"/><path d="m73.472 16.463-.271-.166-.272.166.272.167.271-.167.272.167.272-.167-.272-.166z"/><path d="m74.016 16.463.272.167.273-.167-.273-.166z"/><path d="m74.561 16.463.272.167.271-.167-.271-.166z"/><path d="m75.104 16.463.272.167.272-.167-.272-.166z"/><path d="m75.648 16.463.272.167.272-.167-.272-.166z"/><path d="m76.192 16.463.272.167.272-.167-.272-.166z"/><path d="m76.736 16.463.272.167.272-.167-.272-.166z"/><path d="m77.28 16.463.272.167.272-.167-.272-.166z"/><path d="m77.824 16.463.272.167.272-.167-.272-.166z"/><path d="m78.368 16.463.272.167.272-.167-.272-.166z"/><path d="m78.912 16.463.272.167.272-.167-.272-.166z"/><path d="m79.456 16.463.272.167.272-.167-.272-.166z"/><path d="m80 16.463.272.167.272-.167-.272-.166z"/><path d="m80.544 16.463.272.167.272-.167-.272-.166z"/><path d="m81.088 16.463.272.167.271-.167-.271-.166z"/><path d="m81.632 16.463.272.167.272-.167-.272-.166z"/><path d="m82.72 15.796-.272-.167-.272.167.272.167.272-.167.271.167.272-.167-.272-.167z"/><path d="m83.264 15.796.271.167.273-.167-.273-.167z"/><path d="m83.808 15.796.272.167.272-.167-.272-.167z"/><path d="m84.352 15.796.271.167.272-.167-.272-.167z"/><path d="m84.895 15.796.272.167.272-.167-.272-.167z"/><path d="m85.439 15.796.272.167.272-.167-.272-.167z"/><path d="m82.72 16.13-.272-.167-.272.167.272.166.272-.166.271.166.272-.166-.272-.167z"/><path d="m83.264 16.13.271.166.273-.166-.273-.167z"/><path d="m83.808 16.13.272.166.272-.166-.272-.167z"/><path d="m84.352 16.13.271.166.272-.166-.272-.167z"/><path d="m84.895 16.13.272.166.272-.166-.272-.167z"/><path d="m85.439 16.13.272.166.272-.166-.272-.167z"/><path d="m82.72 16.463-.272-.166-.272.166.272.167.272-.167.271.167.272-.167-.272-.166z"/><path d="m83.264 16.463.271.167.273-.167-.273-.166z"/><path d="m83.808 16.463.272.167.272-.167-.272-.166z"/><path d="m84.352 16.463.271.167.272-.167-.272-.166z"/><path d="m84.895 16.463.272.167.272-.167-.272-.166z"/><path d="m70.209 35.64.272.167.272-.167-.272-.166z"/><path d="m70.753 35.64.272.167.272-.167-.272-.166z"/><path d="m71.297 35.64.272.167.272-.167-.272-.166z"/><path d="m71.841 35.64.272.167.271-.167-.271-.166z"/><path d="m72.929 35.64-.272-.166-.272.166.272.167z"/><path d="m73.472 35.64-.271-.166-.272.166.272.167z"/><path d="m74.016 35.64-.272-.166-.272.166.272.167z"/><path d="m74.561 35.64-.273-.166-.272.166.272.167z"/><path d="m75.104 35.64-.271-.166-.272.166.272.167z"/><path d="m75.648 35.64-.272-.166-.272.166.272.167z"/><path d="m76.192 35.64-.272-.166-.272.166.272.167z"/><path d="m76.736 35.64-.272-.166-.272.166.272.167z"/><path d="m77.28 35.64-.272-.166-.272.166.272.167z"/><path d="m77.824 35.64-.272-.166-.272.166.272.167z"/><path d="m78.368 35.64-.272-.166-.272.166.272.167z"/><path d="m78.912 35.64-.272-.166-.272.166.272.167z"/><path d="m78.912 35.64.272.167.272-.167-.272-.166z"/><path d="m70.209 35.974.272.167.272-.167-.272-.166z"/><path d="m70.753 35.974.272.167.272-.167-.272-.166z"/><path d="m71.297 35.974.272.167.272-.167-.272-.166z"/><path d="m71.841 35.974.272.167.271-.167-.271-.166z"/><path d="m72.385 35.974.272.167.272-.167-.272-.166z"/><path d="m72.929 35.974.272.167.271-.167-.271-.166z"/><path d="m73.744 35.808-.272.166.272.167.272-.167z"/><path d="m74.561 35.974-.273-.166-.272.166.272.167z"/><path d="m75.104 35.974-.271-.166-.272.166.272.167z"/><path d="m75.648 35.974-.272-.166-.272.166.272.167z"/><path d="m76.192 35.974-.272-.166-.272.166.272.167z"/><path d="m76.736 35.974-.272-.166-.272.166.272.167z"/><path d="m77.28 35.974-.272-.166-.272.166.272.167z"/><path d="m77.824 35.974-.272-.166-.272.166.272.167z"/><path d="m78.368 35.974-.272-.166-.272.166.272.167z"/><path d="m78.912 35.974-.272-.166-.272.166.272.167z"/><path d="m79.456 35.974-.272-.166-.272.166.272.167z"/><path d="m72.385 36.308.272.167.272-.167-.272-.167z"/><path d="m74.016 36.308-.272-.167-.272.167.272.167z"/><path d="m74.561 36.308-.273-.167-.272.167.272.167z"/><path d="m75.104 36.308-.271-.167-.272.167.272.167z"/><path d="m75.648 36.308-.272-.167-.272.167.272.167z"/><path d="m76.192 36.308-.272-.167-.272.167.272.167z"/><path d="m76.736 36.308-.272-.167-.272.167.272.167z"/><path d="m77.28 36.308-.272-.167-.272.167.272.167z"/><path d="m74.561 36.641-.273-.166-.272.166.272.167z"/><path d="m75.104 36.641-.271-.166-.272.166.272.167z"/><path d="m75.648 36.641-.272-.166-.272.166.272.167z"/><path d="m127.451 2.47c-11.764 0-21.347 9.331-21.783 21.005l-.005 1.471c.339 11.762 9.96 21.195 21.788 21.195 12.042 0 21.805-9.776 21.805-21.835s-9.763-21.836-21.805-21.836zm17.934 19.898c1.069 0 1.935.868 1.935 1.937 0 1.07-.867 1.938-1.935 1.938-1.069 0-1.935-.868-1.935-1.938s.867-1.937 1.935-1.937zm-6.078-6.504-.272.166-.111-.068.272-.167-.272-.166-.272.166.272.167-.272.167.111.068-.299.183-.137-.083-.272.166.135.083-10.739 6.56-10.744-6.563.132-.081-.272-.166-.132.081-.272-.166.133-.082-.271-.167.271-.167-.272-.166-.272.166.272.167-.133.082-.273-.167.134-.082-.272-.167-.134.083-.135-.083h.27.313.231.544.544.544.544.544.544.544.544.544.544.544.544.544.544.544.544.545.544.544.544.544.544.544.544.544.544.544.544.544.544.544.544.544.544.544.544.544.544.544.544.544.596.187.357.225l-.113.069-.112-.069-.272.167zm-24.643 13.381v-11.581-1.542c0-.051.01-.099.024-.145l12.217 7.463-12.225 7.468c-.01-.039-.016-.079-.016-.121zm9.792 7.063.272.167-.132.081c-.134-.028-.269-.056-.401-.087zm1.904.167-.272.167.269.165c-.156-.012-.311-.027-.465-.044l.197-.121-.272-.167-.272.167.16.098c-.089-.011-.179-.02-.268-.032l.108-.066-.272-.167-.262.161c-.009-.002-.018-.003-.028-.005l-.255-.156.272-.167-.272-.166-.272.166-.272-.166-.272.167.25.153c-.118-.028-.233-.061-.349-.093l.099-.061-.272-.167-.201.123c-.099-.029-.197-.062-.295-.094l-.048-.029-.016.009c-.117-.038-.233-.078-.349-.12l.092-.057-.272-.166-.16.097c-.035-.014-.071-.025-.106-.04v-.222l.265.163.272-.167-.272-.166-.265.162v-.326l.265.163.272-.167-.272-.167-.265.163v-.326l.265.162.272-.166-.272-.167-.265.163v-.326l.265.162.272-.167-.272-.167-.265.163v-3.356h-6.494-.629l12.288-7.506 12.288 7.506h-.629-6.494v3.359l-.272-.166-.272.166.272.166.272-.166v.333l-.272-.166-.272.166.272.167.272-.167v.334l-.272-.166-.272.166.272.166.272-.166v.333l-.272-.166-.272.166.272.167.272-.167v.225c-.036.014-.074.027-.11.041l-.162-.099-.272.166.094.058c-.115.042-.232.081-.349.12l-.016-.005-.055.034c-.095.03-.19.062-.285.091l-.203-.125-.272.167.101.062c-.118.031-.236.064-.354.093l.253-.155-.272-.167-.272.167-.272-.166-.272.166.272.167.272-.167.263.161c-.133.032-.267.06-.401.088l-.134-.082-.257.158c-.008.002-.016.003-.024.004l-.263-.161-.272.167.109.067c-.09.013-.18.021-.271.032l.162-.099-.272-.167-.272.167.198.121c-.155.017-.311.031-.468.044l.27-.165-.272-.167.272-.167-.272-.166-.272.166.272.167-.272.167.27.166c-.358.028-.718.046-1.083.046-.367 0-.729-.018-1.089-.046l.269-.165zm13.878-18.811v11.581 1.542c0 .042-.007.082-.016.12l-12.225-7.467 12.217-7.463c.014.046.024.094.024.145zm-30.722 8.579c-1.069 0-1.935-.868-1.935-1.938s.867-1.937 1.935-1.937c1.069 0 1.935.868 1.935 1.937.001 1.071-.865 1.938-1.935 1.938z"/><circle cx="109.517" cy="24.305" r=".349"/><circle cx="145.385" cy="24.305" r=".349"/><path d="m122.825 34.64.271.166.272-.166-.272-.167z"/><path d="m123.368 34.64.272.166.272-.166-.272-.167z"/><path d="m123.912 34.64.272.166.272-.166-.272-.167z"/><path d="m124.456 34.64.272.166.272-.166-.272-.167z"/><path d="m125 34.64.272.166.272-.166-.272-.167z"/><path d="m126.088 34.64-.272-.167-.272.167.272.166z"/><path d="m126.632 34.64-.272-.167-.272.167.272.166z"/><path d="m127.176 34.64-.272-.167-.272.167.272.166z"/><path d="m127.72 34.64-.272-.167-.272.167.272.166z"/><path d="m128.263 34.64-.271-.167-.272.167.272.166z"/><path d="m128.807 34.64-.271-.167-.273.167.273.166z"/><path d="m129.352 34.64-.272-.167-.272.167.272.166z"/><path d="m129.895 34.64-.272-.167-.271.167.271.166z"/><path d="m130.44 34.64-.273-.167-.272.167.272.166z"/><path d="m130.984 34.64-.272-.167-.272.167.272.166z"/><path d="m131.527 34.64-.272-.167-.271.167.271.166z"/><path d="m131.527 34.64.272.166.272-.166-.272-.167z"/><path d="m122.825 34.973.271.167.272-.167-.272-.166z"/><path d="m123.368 34.973.272.167.272-.167-.272-.166z"/><path d="m123.912 34.973.272.167.272-.167-.272-.166z"/><path d="m124.456 34.973.272.167.272-.167-.272-.166z"/><path d="m125 34.973.272.167.272-.167-.272-.166z"/><path d="m126.088 34.973-.272-.166-.272.166.272.167z"/><path d="m126.632 34.973-.272-.166-.272.166.272.167z"/><path d="m127.176 34.973-.272-.166-.272.166.272.167z"/><path d="m127.72 34.973-.272-.166-.272.166.272.167z"/><path d="m128.263 34.973-.271-.166-.272.166.272.167z"/><path d="m128.807 34.973-.271-.166-.273.166.273.167z"/><path d="m129.352 34.973-.272-.166-.272.166.272.167z"/><path d="m129.895 34.973-.272-.166-.271.166.271.167z"/><path d="m130.44 34.973-.273-.166-.272.166.272.167z"/><path d="m130.984 34.973-.272-.166-.272.166.272.167z"/><path d="m131.527 34.973-.272-.166-.271.166.271.167z"/><path d="m131.527 34.973.272.167.272-.167-.272-.166z"/><path d="m122.825 35.307.271.167.272-.167-.272-.167z"/><path d="m123.368 35.307.272.167.272-.167-.272-.167z"/><path d="m123.912 35.307.272.167.272-.167-.272-.167z"/><path d="m124.456 35.307.272.167.272-.167-.272-.167z"/><path d="m125 35.307.272.167.272-.167-.272-.167z"/><path d="m126.088 35.307-.272-.167-.272.167.272.167z"/><path d="m126.632 35.307-.272-.167-.272.167.272.167z"/><path d="m127.176 35.307-.272-.167-.272.167.272.167z"/><path d="m127.72 35.307-.272-.167-.272.167.272.167z"/><path d="m128.263 35.307-.271-.167-.272.167.272.167z"/><path d="m128.807 35.307-.271-.167-.273.167.273.167z"/><path d="m129.352 35.307-.272-.167-.272.167.272.167z"/><path d="m129.895 35.307-.272-.167-.271.167.271.167z"/><path d="m130.44 35.307-.273-.167-.272.167.272.167z"/><path d="m130.984 35.307-.272-.167-.272.167.272.167z"/><path d="m131.527 35.307-.272-.167-.271.167.271.167z"/><path d="m131.527 35.307.272.167.272-.167-.272-.167z"/><path d="m116.296 15.796.272.167.271-.167-.271-.167z"/><path d="m117.383 15.796-.272-.167-.272.167.272.167.272-.167.272.167.272-.167-.272-.167z"/><path d="m117.928 15.796.271.167.272-.167-.272-.167z"/><path d="m118.471 15.796.272.167.272-.167-.272-.167z"/><path d="m119.015 15.796.272.167.272-.167-.272-.167z"/><path d="m119.559 15.796.272.167.272-.167-.272-.167z"/><path d="m120.647 15.796-.272-.167-.272.167.272.167.272-.167.272.167.272-.167-.272-.167z"/><path d="m121.191 15.796.272.167.272-.167-.272-.167z"/><path d="m121.735 15.796.272.167.272-.167-.272-.167z"/><path d="m122.279 15.796.272.167.271-.167-.271-.167z"/><path d="m122.822 15.796.273.167.271-.167-.271-.167z"/><path d="m123.366 15.796.273.167.272-.167-.272-.167z"/><path d="m123.911 15.796.272.167.271-.167-.271-.167z"/><path d="m124.454 15.796.272.167.272-.167-.272-.167z"/><path d="m116.839 16.13-.271-.167-.272.167.272.166z"/><path d="m117.383 16.13.272.166.272-.166-.272-.167-.272.167-.272-.167-.272.167.272.166z"/><path d="m117.928 16.13.271.166.272-.166-.272-.167z"/><path d="m118.471 16.13.272.166.272-.166-.272-.167z"/><path d="m119.015 16.13.272.166.272-.166-.272-.167z"/><path d="m119.559 16.13.272.166.272-.166-.272-.167z"/><path d="m120.647 16.13-.272-.167-.272.167.272.166.272-.166.272.166.272-.166-.272-.167z"/><path d="m121.191 16.13.272.166.272-.166-.272-.167z"/><path d="m121.735 16.13.272.166.272-.166-.272-.167z"/><path d="m122.279 16.13.272.166.271-.166-.271-.167z"/><path d="m122.822 16.13.273.166.271-.166-.271-.167z"/><path d="m123.366 16.13.273.166.272-.166-.272-.167z"/><path d="m123.911 16.13.272.166.271-.166-.271-.167z"/><path d="m124.454 16.13.272.166.272-.166-.272-.167z"/><path d="m117.383 16.463-.272-.166-.272.166.272.167.272-.167.272.167.272-.167-.272-.166z"/><path d="m117.928 16.463.271.167.272-.167-.272-.166z"/><path d="m118.471 16.463.272.167.272-.167-.272-.166z"/><path d="m119.015 16.463.272.167.272-.167-.272-.166z"/><path d="m119.559 16.463.272.167.272-.167-.272-.166z"/><path d="m120.647 16.463-.272-.166-.272.166.272.167.272-.167.272.167.272-.167-.272-.166z"/><path d="m121.191 16.463.272.167.272-.167-.272-.166z"/><path d="m121.735 16.463.272.167.272-.167-.272-.166z"/><path d="m122.279 16.463.272.167.271-.167-.271-.166z"/><path d="m122.822 16.463.273.167.271-.167-.271-.166z"/><path d="m123.366 16.463.273.167.272-.167-.272-.166z"/><path d="m123.911 16.463.272.167.271-.167-.271-.166z"/><path d="m124.454 16.463.272.167.272-.167-.272-.166z"/><path d="m125 15.796.272.167.272-.167-.272-.167z"/><path d="m126.088 15.796-.272-.167-.272.167.272.167.272-.167.272.167.272-.167-.272-.167z"/><path d="m126.632 15.796.272.167.272-.167-.272-.167z"/><path d="m127.176 15.796.272.167.272-.167-.272-.167z"/><path d="m127.72 15.796.272.167.271-.167-.271-.167z"/><path d="m128.263 15.796.273.167.271-.167-.271-.167z"/><path d="m128.808 15.796.272.167.272-.167-.272-.167z"/><path d="m129.352 15.796.271.167.272-.167-.272-.167z"/><path d="m129.895 15.796.272.167.273-.167-.273-.167z"/><path d="m130.44 15.796.272.167.272-.167-.272-.167z"/><path d="m130.984 15.796.271.167.272-.167-.272-.167z"/><path d="m131.527 15.796.272.167.272-.167-.272-.167z"/><path d="m132.071 15.796.272.167.272-.167-.272-.167z"/><path d="m132.615 15.796.272.167.272-.167-.272-.167z"/><path d="m133.159 15.796.272.167.272-.167-.272-.167z"/><path d="m133.703 15.796.272.167.272-.167-.272-.167z"/><path d="m134.247 15.796.272.167.272-.167-.272-.167z"/><path d="m125 16.13.272.166.272-.166-.272-.167z"/><path d="m126.088 16.13-.272-.167-.272.167.272.166.272-.166.272.166.272-.166-.272-.167z"/><path d="m126.632 16.13.272.166.272-.166-.272-.167z"/><path d="m127.176 16.13.272.166.272-.166-.272-.167z"/><path d="m127.72 16.13.272.166.271-.166-.271-.167z"/><path d="m128.263 16.13.273.166.271-.166-.271-.167z"/><path d="m128.808 16.13.272.166.272-.166-.272-.167z"/><path d="m129.352 16.13.271.166.272-.166-.272-.167z"/><path d="m129.895 16.13.272.166.273-.166-.273-.167z"/><path d="m130.44 16.13.272.166.272-.166-.272-.167z"/><path d="m130.984 16.13.271.166.272-.166-.272-.167z"/><path d="m131.527 16.13.272.166.272-.166-.272-.167z"/><path d="m132.071 16.13.272.166.272-.166-.272-.167z"/><path d="m132.615 16.13.272.166.272-.166-.272-.167z"/><path d="m133.159 16.13.272.166.272-.166-.272-.167z"/><path d="m133.703 16.13.272.166.272-.166-.272-.167z"/><path d="m134.247 16.13.272.166.272-.166-.272-.167z"/><path d="m125 16.463.272.167.272-.167-.272-.166z"/><path d="m126.088 16.463-.272-.166-.272.166.272.167.272-.167.272.167.272-.167-.272-.166z"/><path d="m126.632 16.463.272.167.272-.167-.272-.166z"/><path d="m127.176 16.463.272.167.272-.167-.272-.166z"/><path d="m127.72 16.463.272.167.271-.167-.271-.166z"/><path d="m128.263 16.463.273.167.271-.167-.271-.166z"/><path d="m128.808 16.463.272.167.272-.167-.272-.166z"/><path d="m129.352 16.463.271.167.272-.167-.272-.166z"/><path d="m129.895 16.463.272.167.273-.167-.273-.166z"/><path d="m130.44 16.463.272.167.272-.167-.272-.166z"/><path d="m130.984 16.463.271.167.272-.167-.272-.166z"/><path d="m131.527 16.463.272.167.272-.167-.272-.166z"/><path d="m132.071 16.463.272.167.272-.167-.272-.166z"/><path d="m132.615 16.463.272.167.272-.167-.272-.166z"/><path d="m133.159 16.463.272.167.272-.167-.272-.166z"/><path d="m133.703 16.463.272.167.272-.167-.272-.166z"/><path d="m134.247 16.463.272.167.272-.167-.272-.166z"/><path d="m135.335 15.796-.272-.167-.272.167.272.167.272-.167.272.167.272-.167-.272-.167z"/><path d="m135.879 15.796.272.167.272-.167-.272-.167z"/><path d="m136.423 15.796.272.167.272-.167-.272-.167z"/><path d="m136.967 15.796.272.167.271-.167-.271-.167z"/><path d="m137.51 15.796.273.167.271-.167-.271-.167z"/><path d="m138.055 15.796.272.167.272-.167-.272-.167z"/><path d="m135.335 16.13-.272-.167-.272.167.272.166.272-.166.272.166.272-.166-.272-.167z"/><path d="m135.879 16.13.272.166.272-.166-.272-.167z"/><path d="m136.423 16.13.272.166.272-.166-.272-.167z"/><path d="m136.967 16.13.272.166.271-.166-.271-.167z"/><path d="m137.51 16.13.273.166.271-.166-.271-.167z"/><path d="m138.055 16.13.272.166.272-.166-.272-.167z"/><path d="m135.335 16.463-.272-.166-.272.166.272.167.272-.167.272.167.272-.167-.272-.166z"/><path d="m135.879 16.463.272.167.272-.167-.272-.166z"/><path d="m136.423 16.463.272.167.272-.167-.272-.166z"/><path d="m136.967 16.463.272.167.271-.167-.271-.166z"/><path d="m137.51 16.463.273.167.271-.167-.271-.166z"/><path d="m122.825 35.64.271.167.272-.167-.272-.166z"/><path d="m123.368 35.64.272.167.272-.167-.272-.166z"/><path d="m123.912 35.64.272.167.272-.167-.272-.166z"/><path d="m124.456 35.64.272.167.272-.167-.272-.166z"/><path d="m125 35.64.272.167.272-.167-.272-.166z"/><path d="m126.088 35.64-.272-.166-.272.166.272.167z"/><path d="m126.632 35.64-.272-.166-.272.166.272.167z"/><path d="m127.176 35.64-.272-.166-.272.166.272.167z"/><path d="m127.72 35.64-.272-.166-.272.166.272.167z"/><path d="m128.263 35.64-.271-.166-.272.166.272.167z"/><path d="m128.807 35.64-.271-.166-.273.166.273.167z"/><path d="m129.352 35.64-.272-.166-.272.166.272.167z"/><path d="m129.895 35.64-.272-.166-.271.166.271.167z"/><path d="m130.44 35.64-.273-.166-.272.166.272.167z"/><path d="m130.984 35.64-.272-.166-.272.166.272.167z"/><path d="m131.527 35.64-.272-.166-.271.166.271.167z"/><path d="m131.527 35.64.272.167.272-.167-.272-.166z"/><path d="m122.825 35.974.271.167.272-.167-.272-.166z"/><path d="m123.368 35.974.272.167.272-.167-.272-.166z"/><path d="m123.912 35.974.272.167.272-.167-.272-.166z"/><path d="m124.456 35.974.272.167.272-.167-.272-.166z"/><path d="m125 35.974.272.167.272-.167-.272-.166z"/><path d="m126.088 35.974-.272-.166-.272.166.272.167z"/><path d="m126.632 35.974-.272-.166-.272.166.272.167z"/><path d="m127.176 35.974-.272-.166-.272.166.272.167z"/><path d="m127.72 35.974-.272-.166-.272.166.272.167z"/><path d="m128.263 35.974-.271-.166-.272.166.272.167z"/><path d="m128.807 35.974-.271-.166-.273.166.273.167z"/><path d="m129.352 35.974-.272-.166-.272.166.272.167z"/><path d="m129.895 35.974-.272-.166-.271.166.271.167z"/><path d="m130.44 35.974-.273-.166-.272.166.272.167z"/><path d="m130.984 35.974-.272-.166-.272.166.272.167z"/><path d="m131.527 35.974-.272-.166-.271.166.271.167z"/><path d="m132.071 35.974-.272-.166-.272.166.272.167z"/><path d="m125 36.308.272.167.272-.167-.272-.167z"/><path d="m125.544 36.308.272.167.272-.167-.272-.167z"/><path d="m126.36 36.141-.272.167.272.167.272-.167z"/><path d="m127.176 36.308-.272-.167-.272.167.272.167z"/><path d="m127.72 36.308-.272-.167-.272.167.272.167z"/><path d="m128.263 36.308-.271-.167-.272.167.272.167z"/><path d="m129.352 36.308-.272-.167-.272.167.272.167z"/><path d="m129.895 36.308-.272-.167-.271.167.271.167z"/><path d="m126.632 36.641.272.167.272-.167-.272-.166z"/><path d="m127.72 36.641-.272-.166-.272.166.272.167z"/><path d="m128.263 36.641-.271-.166-.272.166.272.167z"/></g></svg>