<svg enable-background="new 0 0 100 50" height="50" viewBox="0 0 100 50" width="100" xmlns="http://www.w3.org/2000/svg"><g fill="#4bbab5"><path d="m22.351 2.821c-11.761 0-21.342 9.329-21.779 21l-.005 1.471c.339 11.76 9.959 21.19 21.783 21.19 12.04 0 21.8-9.773 21.8-21.83.001-12.058-9.759-21.831-21.799-21.831zm17.931 23.767c-1.069 0-1.935-.867-1.935-1.938 0-1.07.866-1.937 1.935-1.937 1.068 0 1.935.868 1.935 1.937 0 1.071-.867 1.938-1.935 1.938zm-6.077-10.376-.272.166-.111-.068.272-.167-.272-.166-.272.166.272.167-.272.167.11.068-.299.182-.136-.083-.272.166.136.083-10.737 6.559-10.741-6.561.132-.081-.272-.166-.132.081-.272-.166.133-.082-.271-.167.271-.167-.272-.166-.272.166.272.167-.133.082-.273-.167.134-.082-.272-.167-.134.083-.135-.083h.27.313.231.544.544.544.544.544.544.544.544.544.544.544.544.544.544.544.544.545.544.544.544.544.544.544.544.544.544.544.544.544.544.544.544.544.544.544.544.544.544.544.544.544.596.187.357.225l-.113.069-.112-.069-.272.167zm-24.638 13.377v-11.578-1.542c0-.051.01-.099.024-.145l12.215 7.462-12.223 7.466c-.01-.039-.016-.079-.016-.121zm11.694 7.228-.272.167.269.165c-.156-.012-.311-.027-.466-.044l.197-.121-.272-.167.272-.167-.272-.166-.272.166.272.167-.272.167.16.098c-.089-.011-.179-.019-.268-.032l.108-.066-.272-.167-.262.161c-.009-.002-.018-.003-.028-.005l-.255-.156-.132.081c-.134-.028-.269-.056-.401-.087l.261-.161.272.167.272-.167-.272-.166-.272.166-.272-.166-.272.167.25.153c-.118-.028-.233-.061-.349-.093l.099-.061-.272-.167-.201.123c-.099-.029-.197-.062-.295-.094l-.044-.028-.016.009c-.117-.038-.233-.078-.349-.12l.092-.057-.272-.166-.16.098c-.035-.014-.071-.025-.106-.04v-.221l.265.163.272-.167-.272-.166-.265.162v-.325l.265.163.272-.167-.272-.167-.265.163v-.325l.265.162.272-.166-.272-.167-.265.163v-.325l.265.162.272-.167-.272-.167-.264.164v-3.355h-6.493-.63l12.285-7.504 12.285 7.504h-.629-6.493v3.359l-.272-.166-.272.166.272.166.272-.166v.333l-.272-.166-.272.166.272.167.272-.167v.334l-.272-.166-.272.166.272.166.272-.166v.333l-.272-.166-.272.166.272.167.272-.167v.225c-.036.015-.074.027-.11.041l-.162-.099-.272.166.094.058c-.115.042-.232.081-.349.12l-.018-.011-.055.034c-.095.03-.19.062-.285.091l-.203-.125-.272.167.101.062c-.118.031-.235.064-.354.093l.253-.155-.272-.167-.272.167-.272-.166-.272.166.272.167.272-.167.263.161c-.133.032-.267.06-.401.088l-.134-.082-.257.158c-.008.002-.016.003-.024.004l-.263-.161-.272.167.109.067c-.09.013-.18.021-.271.032l.162-.099-.272-.167-.272.167.198.121c-.155.017-.311.031-.468.044l.27-.165-.272-.167-.272.167.27.166c-.358.028-.718.045-1.083.045-.367 0-.729-.018-1.088-.045l.269-.165zm13.875-18.806v11.578 1.542c0 .042-.006.082-.016.12l-12.222-7.465 12.215-7.462c.015.046.024.094.024.145v1.542zm-30.715 8.577c-1.068 0-1.934-.867-1.934-1.938 0-1.07.866-1.937 1.934-1.937 1.069 0 1.935.868 1.935 1.937 0 1.071-.866 1.938-1.935 1.938z"/><circle cx="4.421" cy="24.651" r=".349"/><circle cx="40.283" cy="24.651" r=".349"/><path d="m17.726 34.983.272.166.272-.166-.272-.167z"/><path d="m18.27 34.983.271.166.273-.166-.273-.167z"/><path d="m18.814 34.983.271.166.272-.166-.272-.167z"/><path d="m19.357 34.983.272.166.272-.166-.272-.167z"/><path d="m20.445 34.983-.272-.167-.272.167.272.166z"/><path d="m20.989 34.983-.272-.167-.272.167.272.166z"/><path d="m21.533 34.983-.272-.167-.272.167.272.166z"/><path d="m22.076 34.983-.272-.167-.271.167.271.166z"/><path d="m22.62 34.983-.271-.167-.273.167.273.166z"/><path d="m23.164 34.983-.272-.167-.272.167.272.166z"/><path d="m23.707 34.983-.271-.167-.272.167.272.166z"/><path d="m24.252 34.983-.272-.167-.273.167.273.166z"/><path d="m24.795 34.983-.272-.167-.271.167.271.166z"/><path d="m25.339 34.983-.272-.167-.272.167.272.166z"/><path d="m25.883 34.983-.272-.167-.272.167.272.166z"/><path d="m26.427 34.983-.272-.167-.272.167.272.166z"/><path d="m26.427 34.983.272.166.272-.166-.272-.167z"/><path d="m17.726 35.316.272.167.272-.167-.272-.166z"/><path d="m18.27 35.316.271.167.273-.167-.273-.166z"/><path d="m18.814 35.316.271.167.272-.167-.272-.166z"/><path d="m19.357 35.316.272.167.272-.167-.272-.166z"/><path d="m20.445 35.316-.272-.166-.272.166.272.167z"/><path d="m20.989 35.316-.272-.166-.272.166.272.167z"/><path d="m21.533 35.316-.272-.166-.272.166.272.167z"/><path d="m22.076 35.316-.272-.166-.271.166.271.167z"/><path d="m22.62 35.316-.271-.166-.273.166.273.167z"/><path d="m23.164 35.316-.272-.166-.272.166.272.167z"/><path d="m23.707 35.316-.271-.166-.272.166.272.167z"/><path d="m24.252 35.316-.272-.166-.273.166.273.167z"/><path d="m24.795 35.316-.272-.166-.271.166.271.167z"/><path d="m25.339 35.316-.272-.166-.272.166.272.167z"/><path d="m25.883 35.316-.272-.166-.272.166.272.167z"/><path d="m26.427 35.316-.272-.166-.272.166.272.167z"/><path d="m26.427 35.316.272.167.272-.167-.272-.166z"/><path d="m17.726 35.65.272.166.272-.166-.272-.167z"/><path d="m18.27 35.65.271.166.273-.166-.273-.167z"/><path d="m18.814 35.65.271.166.272-.166-.272-.167z"/><path d="m19.357 35.65.272.166.272-.166-.272-.167z"/><path d="m20.445 35.65-.272-.167-.272.167.272.166z"/><path d="m20.989 35.65-.272-.167-.272.167.272.166z"/><path d="m21.533 35.65-.272-.167-.272.167.272.166z"/><path d="m22.076 35.65-.272-.167-.271.167.271.166z"/><path d="m22.62 35.65-.271-.167-.273.167.273.166z"/><path d="m23.164 35.65-.272-.167-.272.167.272.166z"/><path d="m23.707 35.65-.271-.167-.272.167.272.166z"/><path d="m24.252 35.65-.272-.167-.273.167.273.166z"/><path d="m24.795 35.65-.272-.167-.271.167.271.166z"/><path d="m25.339 35.65-.272-.167-.272.167.272.166z"/><path d="m25.883 35.65-.272-.167-.272.167.272.166z"/><path d="m26.427 35.65-.272-.167-.272.167.272.166z"/><path d="m26.427 35.65.272.166.272-.166-.272-.167z"/><path d="m11.742 16.143-.271-.166-.272.166.272.167z"/><path d="m12.286 16.143-.272-.166-.272.166.272.167.272-.167.272.167.272-.167-.272-.166z"/><path d="m12.83 16.143.272.167.272-.167-.272-.166z"/><path d="m13.374 16.143.271.167.273-.167-.273-.166z"/><path d="m13.918 16.143.272.167.271-.167-.271-.166z"/><path d="m14.461 16.143.272.167.272-.167-.272-.166z"/><path d="m15.549 16.143-.272-.166-.272.166.272.167.272-.167.272.167.272-.167-.272-.166z"/><path d="m16.093 16.143.272.167.272-.167-.272-.166z"/><path d="m16.637 16.143.272.167.271-.167-.271-.166z"/><path d="m17.18 16.143.273.167.271-.167-.271-.166z"/><path d="m17.724 16.143.272.167.272-.167-.272-.166z"/><path d="m18.268 16.143.272.167.272-.167-.272-.166z"/><path d="m18.812 16.143.272.167.272-.167-.272-.166z"/><path d="m19.356 16.143.272.167.271-.167-.271-.166z"/><path d="m11.742 16.477-.271-.167-.272.167.272.166z"/><path d="m12.286 16.477-.272-.167-.272.167.272.166.272-.166.272.166.272-.166-.272-.167z"/><path d="m12.83 16.477.272.166.272-.166-.272-.167z"/><path d="m13.374 16.477.271.166.273-.166-.273-.167z"/><path d="m13.918 16.477.272.166.271-.166-.271-.167z"/><path d="m14.461 16.477.272.166.272-.166-.272-.167z"/><path d="m15.549 16.477-.272-.167-.272.167.272.166.272-.166.272.166.272-.166-.272-.167z"/><path d="m16.093 16.477.272.166.272-.166-.272-.167z"/><path d="m16.637 16.477.272.166.271-.166-.271-.167z"/><path d="m17.18 16.477.273.166.271-.166-.271-.167z"/><path d="m17.724 16.477.272.166.272-.166-.272-.167z"/><path d="m18.268 16.477.272.166.272-.166-.272-.167z"/><path d="m18.812 16.477.272.166.272-.166-.272-.167z"/><path d="m19.356 16.477.272.166.271-.166-.271-.167z"/><path d="m12.286 16.81-.272-.166-.272.166.272.167.272-.167.272.167.272-.167-.272-.166z"/><path d="m12.83 16.81.272.167.272-.167-.272-.166z"/><path d="m13.374 16.81.271.167.273-.167-.273-.166z"/><path d="m13.918 16.81.272.167.271-.167-.271-.166z"/><path d="m14.461 16.81.272.167.272-.167-.272-.166z"/><path d="m15.549 16.81-.272-.166-.272.166.272.167.272-.167.272.167.272-.167-.272-.166z"/><path d="m16.093 16.81.272.167.272-.167-.272-.166z"/><path d="m16.637 16.81.272.167.271-.167-.271-.166z"/><path d="m17.18 16.81.273.167.271-.167-.271-.166z"/><path d="m17.724 16.81.272.167.272-.167-.272-.166z"/><path d="m18.268 16.81.272.167.272-.167-.272-.166z"/><path d="m18.812 16.81.272.167.272-.167-.272-.166z"/><path d="m19.356 16.81.272.167.271-.167-.271-.166z"/><path d="m19.901 16.143.272.167.272-.167-.272-.166z"/><path d="m20.989 16.143-.272-.166-.272.166.272.167.272-.167.272.167.272-.167-.272-.166z"/><path d="m21.533 16.143.271.167.272-.167-.272-.166z"/><path d="m22.076 16.143.273.167.271-.167-.271-.166z"/><path d="m22.62 16.143.272.167.272-.167-.272-.166z"/><path d="m23.164 16.143.272.167.271-.167-.271-.166z"/><path d="m23.707 16.143.273.167.272-.167-.272-.166z"/><path d="m24.252 16.143.271.167.272-.167-.272-.166z"/><path d="m24.795 16.143.272.167.272-.167-.272-.166z"/><path d="m25.339 16.143.272.167.272-.167-.272-.166z"/><path d="m25.883 16.143.272.167.272-.167-.272-.166z"/><path d="m26.427 16.143.272.167.272-.167-.272-.166z"/><path d="m26.971 16.143.271.167.273-.167-.273-.166z"/><path d="m27.515 16.143.271.167.273-.167-.273-.166z"/><path d="m28.059 16.143.271.167.272-.167-.272-.166z"/><path d="m28.602 16.143.272.167.272-.167-.272-.166z"/><path d="m29.146 16.143.272.167.272-.167-.272-.166z"/><path d="m19.901 16.477.272.166.272-.166-.272-.167z"/><path d="m20.989 16.477-.272-.167-.272.167.272.166.272-.166.272.166.272-.166-.272-.167z"/><path d="m21.533 16.477.271.166.272-.166-.272-.167z"/><path d="m22.076 16.477.273.166.271-.166-.271-.167z"/><path d="m22.62 16.477.272.166.272-.166-.272-.167z"/><path d="m23.164 16.477.272.166.271-.166-.271-.167z"/><path d="m23.707 16.477.273.166.272-.166-.272-.167z"/><path d="m24.252 16.477.271.166.272-.166-.272-.167z"/><path d="m24.795 16.477.272.166.272-.166-.272-.167z"/><path d="m25.339 16.477.272.166.272-.166-.272-.167z"/><path d="m25.883 16.477.272.166.272-.166-.272-.167z"/><path d="m26.427 16.477.272.166.272-.166-.272-.167z"/><path d="m26.971 16.477.271.166.273-.166-.273-.167z"/><path d="m27.515 16.477.271.166.273-.166-.273-.167z"/><path d="m28.059 16.477.271.166.272-.166-.272-.167z"/><path d="m28.602 16.477.272.166.272-.166-.272-.167z"/><path d="m29.146 16.477.272.166.272-.166-.272-.167z"/><path d="m19.901 16.81.272.167.272-.167-.272-.166z"/><path d="m20.989 16.81-.272-.166-.272.166.272.167.272-.167.272.167.272-.167-.272-.166z"/><path d="m21.533 16.81.271.167.272-.167-.272-.166z"/><path d="m22.076 16.81.273.167.271-.167-.271-.166z"/><path d="m22.62 16.81.272.167.272-.167-.272-.166z"/><path d="m23.164 16.81.272.167.271-.167-.271-.166z"/><path d="m23.707 16.81.273.167.272-.167-.272-.166z"/><path d="m24.252 16.81.271.167.272-.167-.272-.166z"/><path d="m24.795 16.81.272.167.272-.167-.272-.166z"/><path d="m25.339 16.81.272.167.272-.167-.272-.166z"/><path d="m25.883 16.81.272.167.272-.167-.272-.166z"/><path d="m26.427 16.81.272.167.272-.167-.272-.166z"/><path d="m26.971 16.81.271.167.273-.167-.273-.166z"/><path d="m27.515 16.81.271.167.273-.167-.273-.166z"/><path d="m28.059 16.81.271.167.272-.167-.272-.166z"/><path d="m28.602 16.81.272.167.272-.167-.272-.166z"/><path d="m29.146 16.81.272.167.272-.167-.272-.166z"/><path d="m30.234 16.143-.272-.166-.272.166.272.167.272-.167.272.167.272-.167-.272-.166z"/><path d="m30.778 16.143.271.167.272-.167-.272-.166z"/><path d="m31.321 16.143.273.167.271-.167-.271-.166z"/><path d="m31.865 16.143.272.167.272-.167-.272-.166z"/><path d="m32.409 16.143.272.167.272-.167-.272-.166z"/><path d="m32.953 16.143.272.167.272-.167-.272-.166z"/><path d="m30.234 16.477-.272-.167-.272.167.272.166.272-.166.272.166.272-.166-.272-.167z"/><path d="m30.778 16.477.271.166.272-.166-.272-.167z"/><path d="m31.321 16.477.273.166.271-.166-.271-.167z"/><path d="m31.865 16.477.272.166.272-.166-.272-.167z"/><path d="m32.409 16.477.272.166.272-.166-.272-.167z"/><path d="m32.953 16.477.272.166.272-.166-.272-.167z"/><path d="m30.234 16.81-.272-.166-.272.166.272.167.272-.167.272.167.272-.167-.272-.166z"/><path d="m30.778 16.81.271.167.272-.167-.272-.166z"/><path d="m31.321 16.81.273.167.271-.167-.271-.166z"/><path d="m31.865 16.81.272.167.272-.167-.272-.166z"/><path d="m32.409 16.81.272.167.272-.167-.272-.166z"/><path d="m17.726 35.983.272.167.272-.167-.272-.167z"/><path d="m18.27 35.983.271.167.273-.167-.273-.167z"/><path d="m18.814 35.983.271.167.272-.167-.272-.167z"/><path d="m19.357 35.983.272.167.272-.167-.272-.167z"/><path d="m20.445 35.983-.272-.167-.272.167.272.167z"/><path d="m20.989 35.983-.272-.167-.272.167.272.167z"/><path d="m21.533 35.983-.272-.167-.272.167.272.167z"/><path d="m22.076 35.983-.272-.167-.271.167.271.167z"/><path d="m22.62 35.983-.271-.167-.273.167.273.167z"/><path d="m23.164 35.983-.272-.167-.272.167.272.167z"/><path d="m23.707 35.983-.271-.167-.272.167.272.167z"/><path d="m24.252 35.983-.272-.167-.273.167.273.167z"/><path d="m24.795 35.983-.272-.167-.271.167.271.167z"/><path d="m25.339 35.983-.272-.167-.272.167.272.167z"/><path d="m25.883 35.983-.272-.167-.272.167.272.167z"/><path d="m26.427 35.983-.272-.167-.272.167.272.167z"/><path d="m26.427 35.983.272.167.272-.167-.272-.167z"/><path d="m17.726 36.317.272.167.272-.167-.272-.166z"/><path d="m18.27 36.317.271.167.273-.167-.273-.166z"/><path d="m18.814 36.317.271.167.272-.167-.272-.166z"/><path d="m19.357 36.317.272.167.272-.167-.272-.166z"/><path d="m19.901 36.317.272.167.272-.167-.272-.166z"/><path d="m20.445 36.317.272.167.272-.167-.272-.166z"/><path d="m21.261 36.151-.272.166.272.167.272-.167z"/><path d="m22.076 36.317-.272-.166-.271.166.271.167z"/><path d="m22.62 36.317-.271-.166-.273.166.273.167z"/><path d="m23.164 36.317-.272-.166-.272.166.272.167z"/><path d="m23.707 36.317-.271-.166-.272.166.272.167z"/><path d="m24.252 36.317-.272-.166-.273.166.273.167z"/><path d="m24.795 36.317-.272-.166-.271.166.271.167z"/><path d="m25.339 36.317-.272-.166-.272.166.272.167z"/><path d="m25.883 36.317-.272-.166-.272.166.272.167z"/><path d="m26.427 36.317-.272-.166-.272.166.272.167z"/><path d="m26.971 36.317-.272-.166-.272.166.272.167z"/><path d="m19.901 36.65.272.167.272-.167-.272-.166z"/><path d="m21.533 36.65-.272-.166-.272.166.272.167z"/><path d="m22.076 36.65-.272-.166-.271.166.271.167z"/><path d="m22.62 36.65-.271-.166-.273.166.273.167z"/><path d="m23.164 36.65-.272-.166-.272.166.272.167z"/><path d="m23.707 36.65-.271-.166-.272.166.272.167z"/><path d="m24.252 36.65-.272-.166-.273.166.273.167z"/><path d="m24.795 36.65-.272-.166-.271.166.271.167z"/><path d="m22.076 36.984-.272-.167-.271.167.271.166z"/><path d="m22.62 36.984-.271-.167-.273.167.273.166z"/><path d="m23.164 36.984-.272-.167-.272.167.272.166z"/><path d="m74.545 2.821c-11.761 0-21.342 9.329-21.779 21l-.005 1.471c.339 11.76 9.959 21.19 21.783 21.19 12.04 0 21.8-9.773 21.8-21.83 0-12.058-9.76-21.831-21.799-21.831zm17.93 23.767c-1.069 0-1.935-.867-1.935-1.938 0-1.07.866-1.937 1.935-1.937 1.068 0 1.935.868 1.935 1.937 0 1.071-.867 1.938-1.935 1.938zm-6.077-10.376-.272.166-.111-.068.272-.167-.272-.166-.272.166.272.167-.272.167.11.068-.299.182-.136-.083-.272.166.136.083-10.737 6.559-10.741-6.561.132-.081-.272-.166-.132.081-.272-.166.133-.082-.273-.167.271-.167-.272-.166-.272.166.272.167-.133.082-.273-.167.134-.082-.272-.167-.134.083-.135-.083h.27.313.231.544.544.544.544.544.544.544.544.544.544.544.544.544.544.544.544.545.544.544.544.544.544.544.544.544.544.544.544.544.544.544.544.544.544.544.544.544.544.544.544.544.596.179.357.225l-.113.069-.112-.069-.272.167zm-24.638 13.377v-11.578-1.542c0-.051.01-.099.024-.145l12.215 7.462-12.222 7.465c-.01-.039-.016-.079-.016-.121v-1.541zm11.694 7.228-.272.167.269.165c-.156-.012-.311-.027-.466-.044l.197-.121-.272-.167.272-.167-.272-.166-.272.166.272.167-.272.167.16.098c-.089-.011-.179-.019-.268-.032l.108-.066-.272-.167-.262.161c-.009-.002-.018-.003-.028-.005l-.255-.156-.132.081c-.134-.028-.269-.056-.401-.087l.261-.161.272.167.272-.167-.272-.166-.272.166-.272-.166-.272.167.25.153c-.118-.028-.233-.061-.349-.093l.099-.061-.272-.167-.201.123c-.099-.029-.197-.062-.295-.094l-.048-.029-.016.009c-.117-.038-.233-.078-.349-.12l.092-.057-.272-.166-.16.098c-.035-.014-.071-.025-.106-.04v-.221l.265.163.272-.167-.272-.166-.265.162v-.325l.265.163.272-.167-.272-.167-.265.163v-.325l.265.162.272-.166-.272-.167-.265.163v-.325l.265.162.272-.167-.272-.167-.265.163v-3.355h-6.488-.63l12.285-7.504 12.285 7.504h-.63-6.493v3.359l-.272-.166-.272.166.272.166.272-.166v.333l-.272-.166-.272.166.272.167.272-.167v.334l-.272-.166-.272.166.272.166.272-.166v.333l-.272-.166-.272.166.272.167.272-.167v.225c-.036.015-.074.027-.11.041l-.162-.099-.272.166.094.058c-.115.042-.232.081-.349.12l-.018-.011-.055.034c-.095.03-.19.062-.285.091l-.203-.125-.272.167.101.062c-.118.031-.235.064-.354.093l.253-.155-.272-.167-.272.167-.272-.166-.272.166.272.167.272-.167.263.161c-.133.032-.267.06-.401.088l-.134-.082-.257.158c-.008.002-.016.003-.024.004l-.263-.161-.272.167.109.067c-.09.013-.18.021-.271.032l.162-.099-.272-.167-.272.167.198.121c-.155.017-.311.031-.468.044l.27-.165-.272-.167-.272.167.27.166c-.358.028-.718.045-1.083.045-.367 0-.729-.018-1.088-.045l.269-.165zm13.875-18.806v11.578 1.542c0 .042-.007.082-.016.12l-12.223-7.465 12.215-7.462c.015.046.024.094.024.145zm-30.715 8.577c-1.068 0-1.934-.867-1.934-1.938 0-1.07.866-1.937 1.934-1.937 1.069 0 1.935.868 1.935 1.937 0 1.071-.866 1.938-1.935 1.938z"/><circle cx="56.615" cy="24.651" r=".349"/><circle cx="92.476" cy="24.651" r=".349"/><path d="m69.919 34.983.272.166.272-.166-.272-.167z"/><path d="m70.463 34.983.271.166.273-.166-.273-.167z"/><path d="m71.007 34.983.272.166.271-.166-.271-.167z"/><path d="m71.55 34.983.272.166.272-.166-.272-.167z"/><path d="m72.638 34.983-.272-.167-.272.167.272.166z"/><path d="m73.182 34.983-.272-.167-.272.167.272.166z"/><path d="m73.726 34.983-.272-.167-.272.167.272.166z"/><path d="m74.269 34.983-.271-.167-.272.167.272.166z"/><path d="m74.813 34.983-.271-.167-.273.167.273.166z"/><path d="m75.357 34.983-.271-.167-.273.167.273.166z"/><path d="m75.901 34.983-.272-.167-.272.167.272.166z"/><path d="m76.445 34.983-.272-.167-.272.167.272.166z"/><path d="m76.988 34.983-.271-.167-.272.167.272.166z"/><path d="m77.532 34.983-.272-.167-.272.167.272.166z"/><path d="m78.076 34.983-.271-.167-.273.167.273.166z"/><path d="m78.62 34.983-.272-.167-.272.167.272.166z"/><path d="m78.62 34.983.272.166.272-.166-.272-.167z"/><path d="m69.919 35.316.272.167.272-.167-.272-.166z"/><path d="m70.463 35.316.271.167.273-.167-.273-.166z"/><path d="m71.007 35.316.272.167.271-.167-.271-.166z"/><path d="m71.55 35.316.272.167.272-.167-.272-.166z"/><path d="m72.638 35.316-.272-.166-.272.166.272.167z"/><path d="m73.182 35.316-.272-.166-.272.166.272.167z"/><path d="m73.726 35.316-.272-.166-.272.166.272.167z"/><path d="m74.269 35.316-.271-.166-.272.166.272.167z"/><path d="m74.813 35.316-.271-.166-.273.166.273.167z"/><path d="m75.357 35.316-.271-.166-.273.166.273.167z"/><path d="m75.901 35.316-.272-.166-.272.166.272.167z"/><path d="m76.445 35.316-.272-.166-.272.166.272.167z"/><path d="m76.988 35.316-.271-.166-.272.166.272.167z"/><path d="m77.532 35.316-.272-.166-.272.166.272.167z"/><path d="m78.076 35.316-.271-.166-.273.166.273.167z"/><path d="m78.62 35.316-.272-.166-.272.166.272.167z"/><path d="m78.62 35.316.272.167.272-.167-.272-.166z"/><path d="m69.919 35.65.272.166.272-.166-.272-.167z"/><path d="m70.463 35.65.271.166.273-.166-.273-.167z"/><path d="m71.007 35.65.272.166.271-.166-.271-.167z"/><path d="m71.55 35.65.272.166.272-.166-.272-.167z"/><path d="m72.638 35.65-.272-.167-.272.167.272.166z"/><path d="m73.182 35.65-.272-.167-.272.167.272.166z"/><path d="m73.726 35.65-.272-.167-.272.167.272.166z"/><path d="m74.269 35.65-.271-.167-.272.167.272.166z"/><path d="m74.813 35.65-.271-.167-.273.167.273.166z"/><path d="m75.357 35.65-.271-.167-.273.167.273.166z"/><path d="m75.901 35.65-.272-.167-.272.167.272.166z"/><path d="m76.445 35.65-.272-.167-.272.167.272.166z"/><path d="m76.988 35.65-.271-.167-.272.167.272.166z"/><path d="m77.532 35.65-.272-.167-.272.167.272.166z"/><path d="m78.076 35.65-.271-.167-.273.167.273.166z"/><path d="m78.62 35.65-.272-.167-.272.167.272.166z"/><path d="m78.62 35.65.272.166.272-.166-.272-.167z"/><path d="m63.935 16.143-.271-.166-.272.166.272.167z"/><path d="m64.479 16.143-.272-.166-.272.166.272.167.272-.167.272.167.272-.167-.272-.166z"/><path d="m65.023 16.143.272.167.272-.167-.272-.166z"/><path d="m65.567 16.143.271.167.273-.167-.273-.166z"/><path d="m66.111 16.143.272.167.271-.167-.271-.166z"/><path d="m66.654 16.143.272.167.272-.167-.272-.166z"/><path d="m67.742 16.143-.271-.166-.273.166.273.167.271-.167.272.167.272-.167-.272-.166z"/><path d="m68.286 16.143.272.167.272-.167-.272-.166z"/><path d="m68.83 16.143.272.167.271-.167-.271-.166z"/><path d="m69.373 16.143.273.167.271-.167-.271-.166z"/><path d="m69.917 16.143.273.167.271-.167-.271-.166z"/><path d="m70.461 16.143.272.167.272-.167-.272-.166z"/><path d="m71.005 16.143.272.167.272-.167-.272-.166z"/><path d="m71.549 16.143.272.167.271-.167-.271-.166z"/><path d="m63.935 16.477-.271-.167-.272.167.272.166z"/><path d="m64.479 16.477-.272-.167-.272.167.272.166.272-.166.272.166.272-.166-.272-.167z"/><path d="m65.023 16.477.272.166.272-.166-.272-.167z"/><path d="m65.567 16.477.271.166.273-.166-.273-.167z"/><path d="m66.111 16.477.272.166.271-.166-.271-.167z"/><path d="m66.654 16.477.272.166.272-.166-.272-.167z"/><path d="m67.742 16.477-.271-.167-.273.167.273.166.271-.166.272.166.272-.166-.272-.167z"/><path d="m68.286 16.477.272.166.272-.166-.272-.167z"/><path d="m68.83 16.477.272.166.271-.166-.271-.167z"/><path d="m69.373 16.477.273.166.271-.166-.271-.167z"/><path d="m69.917 16.477.273.166.271-.166-.271-.167z"/><path d="m70.461 16.477.272.166.272-.166-.272-.167z"/><path d="m71.005 16.477.272.166.272-.166-.272-.167z"/><path d="m71.549 16.477.272.166.271-.166-.271-.167z"/><path d="m64.479 16.81-.272-.166-.272.166.272.167.272-.167.272.167.272-.167-.272-.166z"/><path d="m65.023 16.81.272.167.272-.167-.272-.166z"/><path d="m65.567 16.81.271.167.273-.167-.273-.166z"/><path d="m66.111 16.81.272.167.271-.167-.271-.166z"/><path d="m66.654 16.81.272.167.272-.167-.272-.166z"/><path d="m67.742 16.81-.271-.166-.273.166.273.167.271-.167.272.167.272-.167-.272-.166z"/><path d="m68.286 16.81.272.167.272-.167-.272-.166z"/><path d="m68.83 16.81.272.167.271-.167-.271-.166z"/><path d="m69.373 16.81.273.167.271-.167-.271-.166z"/><path d="m69.917 16.81.273.167.271-.167-.271-.166z"/><path d="m70.461 16.81.272.167.272-.167-.272-.166z"/><path d="m71.005 16.81.272.167.272-.167-.272-.166z"/><path d="m71.549 16.81.272.167.271-.167-.271-.166z"/><path d="m72.094 16.143.272.167.272-.167-.272-.166z"/><path d="m73.182 16.143-.272-.166-.272.166.272.167.272-.167.272.167.272-.167-.272-.166z"/><path d="m73.726 16.143.272.167.271-.167-.271-.166z"/><path d="m74.269 16.143.273.167.271-.167-.271-.166z"/><path d="m74.813 16.143.273.167.271-.167-.271-.166z"/><path d="m75.357 16.143.272.167.272-.167-.272-.166z"/><path d="m75.901 16.143.272.167.272-.167-.272-.166z"/><path d="m76.445 16.143.272.167.271-.167-.271-.166z"/><path d="m76.988 16.143.272.167.272-.167-.272-.166z"/><path d="m77.532 16.143.273.167.271-.167-.271-.166z"/><path d="m78.076 16.143.272.167.272-.167-.272-.166z"/><path d="m78.62 16.143.272.167.272-.167-.272-.166z"/><path d="m79.164 16.143.272.167.272-.167-.272-.166z"/><path d="m79.708 16.143.271.167.273-.167-.273-.166z"/><path d="m80.252 16.143.272.167.271-.167-.271-.166z"/><path d="m80.795 16.143.272.167.272-.167-.272-.166z"/><path d="m81.339 16.143.272.167.272-.167-.272-.166z"/><path d="m72.094 16.477.272.166.272-.166-.272-.167z"/><path d="m73.182 16.477-.272-.167-.272.167.272.166.272-.166.272.166.272-.166-.272-.167z"/><path d="m73.726 16.477.272.166.271-.166-.271-.167z"/><path d="m74.269 16.477.273.166.271-.166-.271-.167z"/><path d="m74.813 16.477.273.166.271-.166-.271-.167z"/><path d="m75.357 16.477.272.166.272-.166-.272-.167z"/><path d="m75.901 16.477.272.166.272-.166-.272-.167z"/><path d="m76.445 16.477.272.166.271-.166-.271-.167z"/><path d="m76.988 16.477.272.166.272-.166-.272-.167z"/><path d="m77.532 16.477.273.166.271-.166-.271-.167z"/><path d="m78.076 16.477.272.166.272-.166-.272-.167z"/><path d="m78.62 16.477.272.166.272-.166-.272-.167z"/><path d="m79.164 16.477.272.166.272-.166-.272-.167z"/><path d="m79.708 16.477.271.166.273-.166-.273-.167z"/><path d="m80.252 16.477.272.166.271-.166-.271-.167z"/><path d="m80.795 16.477.272.166.272-.166-.272-.167z"/><path d="m81.339 16.477.272.166.272-.166-.272-.167z"/><path d="m72.094 16.81.272.167.272-.167-.272-.166z"/><path d="m73.182 16.81-.272-.166-.272.166.272.167.272-.167.272.167.272-.167-.272-.166z"/><path d="m73.726 16.81.272.167.271-.167-.271-.166z"/><path d="m74.269 16.81.273.167.271-.167-.271-.166z"/><path d="m74.813 16.81.273.167.271-.167-.271-.166z"/><path d="m75.357 16.81.272.167.272-.167-.272-.166z"/><path d="m75.901 16.81.272.167.272-.167-.272-.166z"/><path d="m76.445 16.81.272.167.271-.167-.271-.166z"/><path d="m76.988 16.81.272.167.272-.167-.272-.166z"/><path d="m77.532 16.81.273.167.271-.167-.271-.166z"/><path d="m78.076 16.81.272.167.272-.167-.272-.166z"/><path d="m78.62 16.81.272.167.272-.167-.272-.166z"/><path d="m79.164 16.81.272.167.272-.167-.272-.166z"/><path d="m79.708 16.81.271.167.273-.167-.273-.166z"/><path d="m80.252 16.81.272.167.271-.167-.271-.166z"/><path d="m80.795 16.81.272.167.272-.167-.272-.166z"/><path d="m81.339 16.81.272.167.272-.167-.272-.166z"/><path d="m82.427 16.143-.272-.166-.272.166.272.167.272-.167.272.167.272-.167-.272-.166z"/><path d="m82.971 16.143.272.167.271-.167-.271-.166z"/><path d="m83.514 16.143.273.167.271-.167-.271-.166z"/><path d="m84.058 16.143.272.167.272-.167-.272-.166z"/><path d="m84.602 16.143.272.167.272-.167-.272-.166z"/><path d="m85.146 16.143.272.167.272-.167-.272-.166z"/><path d="m82.427 16.477-.272-.167-.272.167.272.166.272-.166.272.166.272-.166-.272-.167z"/><path d="m82.971 16.477.272.166.271-.166-.271-.167z"/><path d="m83.514 16.477.273.166.271-.166-.271-.167z"/><path d="m84.058 16.477.272.166.272-.166-.272-.167z"/><path d="m84.602 16.477.272.166.272-.166-.272-.167z"/><path d="m85.146 16.477.272.166.272-.166-.272-.167z"/><path d="m82.427 16.81-.272-.166-.272.166.272.167.272-.167.272.167.272-.167-.272-.166z"/><path d="m82.971 16.81.272.167.271-.167-.271-.166z"/><path d="m83.514 16.81.273.167.271-.167-.271-.166z"/><path d="m84.058 16.81.272.167.272-.167-.272-.166z"/><path d="m84.602 16.81.272.167.272-.167-.272-.166z"/><path d="m69.919 35.983.272.167.272-.167-.272-.167z"/><path d="m70.463 35.983.271.167.273-.167-.273-.167z"/><path d="m71.007 35.983.272.167.271-.167-.271-.167z"/><path d="m71.55 35.983.272.167.272-.167-.272-.167z"/><path d="m72.638 35.983-.272-.167-.272.167.272.167z"/><path d="m73.182 35.983-.272-.167-.272.167.272.167z"/><path d="m73.726 35.983-.272-.167-.272.167.272.167z"/><path d="m74.269 35.983-.271-.167-.272.167.272.167z"/><path d="m74.813 35.983-.271-.167-.273.167.273.167z"/><path d="m75.357 35.983-.271-.167-.273.167.273.167z"/><path d="m75.901 35.983-.272-.167-.272.167.272.167z"/><path d="m76.445 35.983-.272-.167-.272.167.272.167z"/><path d="m76.988 35.983-.271-.167-.272.167.272.167z"/><path d="m77.532 35.983-.272-.167-.272.167.272.167z"/><path d="m78.076 35.983-.271-.167-.273.167.273.167z"/><path d="m78.62 35.983-.272-.167-.272.167.272.167z"/><path d="m78.62 35.983.272.167.272-.167-.272-.167z"/><path d="m69.919 36.317.272.167.272-.167-.272-.166z"/><path d="m70.463 36.317.271.167.273-.167-.273-.166z"/><path d="m71.007 36.317.272.167.271-.167-.271-.166z"/><path d="m71.55 36.317.272.167.272-.167-.272-.166z"/><path d="m72.094 36.317.272.167.272-.167-.272-.166z"/><path d="m72.638 36.317.272.167.272-.167-.272-.166z"/><path d="m73.454 36.151-.272.166.272.167.272-.167z"/><path d="m74.269 36.317-.271-.166-.272.166.272.167z"/><path d="m74.813 36.317-.271-.166-.273.166.273.167z"/><path d="m75.357 36.317-.271-.166-.273.166.273.167z"/><path d="m75.901 36.317-.272-.166-.272.166.272.167z"/><path d="m76.445 36.317-.272-.166-.272.166.272.167z"/><path d="m76.988 36.317-.271-.166-.272.166.272.167z"/><path d="m77.532 36.317-.272-.166-.272.166.272.167z"/><path d="m78.076 36.317-.271-.166-.273.166.273.167z"/><path d="m78.62 36.317-.272-.166-.272.166.272.167z"/><path d="m79.164 36.317-.272-.166-.272.166.272.167z"/><path d="m72.094 36.65.272.167.272-.167-.272-.166z"/><path d="m73.726 36.65-.272-.166-.272.166.272.167z"/><path d="m74.269 36.65-.271-.166-.272.166.272.167z"/><path d="m74.813 36.65-.271-.166-.273.166.273.167z"/><path d="m75.357 36.65-.271-.166-.273.166.273.167z"/><path d="m75.901 36.65-.272-.166-.272.166.272.167z"/><path d="m76.445 36.65-.272-.166-.272.166.272.167z"/><path d="m76.988 36.65-.271-.166-.272.166.272.167z"/><path d="m74.269 36.984-.271-.167-.272.167.272.166z"/><path d="m74.813 36.984-.271-.167-.273.167.273.166z"/><path d="m75.357 36.984-.271-.167-.273.167.273.166z"/></g></svg>