<svg enable-background="new 0 0 30 30" height="30" viewBox="0 0 30 30" width="30" xmlns="http://www.w3.org/2000/svg"><path d="m26.219 11.571c-.004-.072-.039-.117-.109-.135-.048-.014-.096-.027-.145-.034-.701-.111-1.404-.219-2.113-.269-.565-.039-1.132-.064-1.7-.09-1.091-.049-2.181-.024-3.266.113-.663.084-1.319.205-1.958.412-.322.105-.64.227-.962.33-.504.159-1.02.232-1.544.133-.314-.06-.625-.149-.929-.249-.552-.179-1.102-.356-1.674-.461-1.113-.207-2.234-.302-3.279-.291-.852.001-1.617.031-2.379.122-.625.076-1.249.159-1.872.245-.133.019-.262.057-.393.092-.069.018-.115.064-.117.141-.012.371-.024.741-.034 1.112-.001.056.012.111.02.167.007.048.033.079.077.099.048.02.096.042.139.071.205.144.304.361.383.586.056.162.091.329.137.493.03.102.068.202.091.306.107.482.208.969.319 1.45.106.461.243.91.462 1.332.246.47.594.832 1.09 1.038.3.125.611.205.932.257.573.091 1.15.102 1.727.06.586-.042 1.163-.132 1.727-.303.419-.126.814-.303 1.15-.59.511-.439.924-.959 1.241-1.557.317-.596.538-1.23.738-1.872.057-.185.111-.371.178-.552.098-.268.288-.432.572-.476.09-.015.183-.018.276-.014.212.014.417.058.558.236.062.077.12.164.159.254.077.177.151.356.209.541.25.795.582 1.552 1 2.27.348.598.807 1.08 1.416 1.413.429.236.89.386 1.368.48.721.14 1.448.175 2.181.143.442-.019.879-.076 1.304-.204.436-.132.819-.345 1.106-.711.186-.236.323-.499.438-.776.238-.584.391-1.192.53-1.806.068-.3.137-.599.211-.898.038-.156.086-.31.129-.465.041-.145.075-.292.166-.419.092-.125.186-.249.34-.304.067-.023.101-.071.115-.135.011-.049.022-.099.022-.148.001-.221.001-.443-.005-.664-.007-.156-.023-.314-.032-.473zm-21.533.701c-.239 0-.432-.049-.432-.107s.193-.106.432-.106c.238 0 .431.048.431.106s-.193.107-.431.107zm8.336 2.34c-.151.647-.401 1.253-.734 1.825-.182.313-.39.605-.652.856-.345.332-.762.527-1.22.648-.925.243-1.862.303-2.809.16-.186-.027-.368-.076-.552-.122-.375-.098-.66-.317-.878-.641-.241-.359-.387-.753-.486-1.17-.128-.544-.201-1.095-.255-1.651-.031-.322-.026-.643.014-.963.02-.162.034-.326.069-.484.129-.561.474-.919 1.03-1.065.508-.133 1.026-.212 1.548-.254.389-.033.776-.049 1.027-.062.891.011 1.64.068 2.376.238.3.069.606.132.88.279.136.073.266.159.385.257.196.162.295.382.337.63.086.511.037 1.018-.08 1.519zm11.108 2.036c-.113.296-.264.571-.493.792-.254.249-.572.38-.909.473-.424.114-.857.143-1.294.147-.659.005-1.307-.077-1.951-.215-.637-.136-1.145-.471-1.55-.978-.518-.651-.851-1.39-1.037-2.197-.086-.374-.159-.75-.148-1.135.004-.167.02-.334.05-.497.075-.408.323-.674.698-.827.378-.152.772-.246 1.17-.325.443-.088.889-.155 1.34-.183.351-.023.704-.033.942-.044.943.046 1.768.117 2.571.346.147.042.288.109.427.175.133.061.235.163.3.295.072.145.147.291.204.443.068.178.082.368.09.557.011.299.026.599.018.898-.02.78-.151 1.542-.428 2.275zm1.171-4.376c-.238 0-.431-.049-.431-.107s.193-.106.431-.106.432.048.432.106-.194.107-.432.107z" fill="#4bbab5"/></svg>