<svg enable-background="new 0 0 30 30" height="30" viewBox="0 0 30 30" width="30" xmlns="http://www.w3.org/2000/svg"><path d="m20.698 15.335c-.674 0-1.22.583-1.22 1.302 0 .611.397 1.122.931 1.26v2.142c0 1.922-1.423 3.483-3.176 3.483-1.366 0-2.529-.954-2.976-2.289.394-.234.663-.679.663-1.194v-2.942c0-.157-.029-.306-.075-.446 2.74-.588 4.559-3.008 4.559-6.288 0-.502-.302-.922-.72-1.079-.106-.797-.328-1.56-.654-2.256.162-.218.262-.495.262-.797 0-.718-.546-1.302-1.22-1.302s-1.22.583-1.22 1.302.546 1.302 1.22 1.302c.077 0 .148-.011.218-.025.26.571.442 1.196.534 1.846-.34.192-.574.569-.574 1.008 0 2.511-1.465 4.131-3.731 4.131s-3.731-1.62-3.731-4.131c0-.438-.232-.817-.572-1.008.089-.651.27-1.276.534-1.846.07.013.144.024.218.024.672 0 1.219-.583 1.219-1.302 0-.718-.546-1.302-1.219-1.302-.674 0-1.222.583-1.222 1.302 0 .302.102.579.263.797-.326.696-.549 1.459-.655 2.256-.418.157-.72.577-.72 1.079 0 3.362 1.909 5.818 4.764 6.327-.04.128-.063.265-.063.408v2.942c0 .675.455 1.234 1.055 1.351.525 1.769 2.046 3.053 3.839 3.053 2.225 0 4.036-1.976 4.036-4.404v-2.26c.382-.218.646-.645.646-1.142 0-.719-.546-1.302-1.213-1.302z" fill="#fff"/></svg>