<svg enable-background="new 0 0 30 30" height="30" viewBox="0 0 30 30" width="30" xmlns="http://www.w3.org/2000/svg"><g fill="#fff"><path d="m8.962 6.43c0-.188.151-.339.336-.339h11.412c.185 0 .336.151.336.339v16.551c0 .185-.151.337-.336.337h-11.412c-.185 0-.336-.152-.336-.337zm.336 17.486h11.412c.486 0 .882-.377.922-.856v-16.709c-.04-.479-.436-.856-.922-.856h-11.412c-.513 0-.931.42-.931.935v16.551c0 .515.418.935.931.935"/><path d="m10.863 15.004h8.281v6.067c0 .186-.151.339-.336.339h-7.608c-.185 0-.336-.152-.336-.339zm0-6.665c0-.186.151-.337.336-.337h7.608c.185 0 .336.151.336.337v6.068h-8.281v-6.068zm.337 13.667h7.608c.513 0 .931-.42.931-.935v-12.732c0-.515-.418-.934-.931-.934h-7.608c-.513 0-.931.419-.931.934v12.731c0 .516.418.936.931.936"/><path d="m15.004 16.914c.71 0 1.288.58 1.288 1.293s-.578 1.293-1.288 1.293-1.288-.58-1.288-1.293.578-1.293 1.288-1.293m0 3.182c1.038 0 1.881-.848 1.881-1.89 0-1.043-.843-1.89-1.881-1.89s-1.883.847-1.883 1.89c0 1.042.845 1.89 1.883 1.89"/><path d="m15.004 9.314c-.164 0-.297.133-.297.298v3.183c0 .165.133.298.297.298s.297-.133.297-.298v-3.182c0-.165-.133-.299-.297-.299"/></g></svg>