<svg enable-background="new 0 0 30 30" height="30" viewBox="0 0 30 30" width="30" xmlns="http://www.w3.org/2000/svg"><path d="m14.477 20.601h1.045v2.422h-1.045zm-.929-8.045 1.554 1.514 2.838-2.804.733.749-3.566 3.524-2.287-2.228zm-3.076-1.683-1.703-1.712.738-.743 1.702 1.712zm-.965 10.079-.738-.742 1.702-1.714.738.744zm-2.798-6.792h2.408v1.05h-2.408zm7.768-7.813h1.045v2.422h-1.045zm5.051 12.149 1.704 1.714-.739.743-1.702-1.712zm.965-10.078.739.743-1.704 1.712-.738-.743zm2.798 6.792h-2.408v-1.05h2.408zm.767-.525c0-5.03-4.056-9.108-9.057-9.108-5.003 0-9.058 4.078-9.058 9.108s4.056 9.108 9.058 9.108c5.001.001 9.057-4.078 9.057-9.108" fill="#4bbab5"/></svg>