<svg enable-background="new 0 0 30 30" height="30" viewBox="0 0 30 30" width="30" xmlns="http://www.w3.org/2000/svg"><path d="m17.351 22.321h-1.059v-1.209h1.358c.228-.392.44-.817.635-1.257h-1.993v-1.206h2.482c.149-.415.289-.827.418-1.234h-2.903v-1.205h3.254c.11-.415.207-.801.286-1.15h-3.541v-1.209h5.052s.009-.311.009-.545h.016c.529-.696.871-1.497.981-2.339.14-1.069-.025-2.692-1.594-4.362-1.942-2.065-5.246-.454-5.716-.211-1.506-.936-3.61-1.763-5.301-.584-1.217.843-1.92 1.933-2.084 3.24-.223 1.762.61 3.474 1.187 4.257h.022c0 .25-.009.545-.009.545h5.309v1.209h-3.539c.08.349.176.735.288 1.15h3.251v1.205h-2.901c.129.406.266.821.419 1.234h2.482v1.209h-1.997c.195.44.409.862.639 1.254h1.358v1.209h-1.059c.613.704 1.311 1.149 2.104 1.15h.041c.793-.002 1.492-.447 2.105-1.151zm-7.746-9.789c-.434-.686-1.031-2.023-.861-3.366.127-1.028.687-1.887 1.657-2.561 2.141-1.49 5.749 1.938 5.787 1.971.207.203.558.208.775.019.22-.189.229-.506.022-.707-.049-.048-.412-.392-.975-.821.879-.366 2.81-.976 3.908.19 1.036 1.106 1.5 2.347 1.338 3.594-.08.596-.305 1.17-.651 1.682h-11z" fill="#4bbab5"/></svg>