<svg enable-background="new 0 0 30 30" height="30" viewBox="0 0 30 30" width="30" xmlns="http://www.w3.org/2000/svg"><g fill="#4bbab5"><path d="m14.238 7.905c0 .33-.267.598-.596.6h-.001-4.629c-.327-.001-.593-.27-.593-.6v-1.79c0-.33.267-.6.596-.6h4.626c.329 0 .597.27.597.6zm9.252 13.834c-.565.57-1.483.57-2.048 0l-2.418-2.434c-.567-.57-.567-1.494 0-2.064.565-.57 1.483-.57 2.048 0l2.418 2.436c.565.569.565 1.492 0 2.062z"/><path d="m13.641 5.516h-4.626c-.329 0-.596.27-.596.6v1.79c0 .33.265.598.593.6h4.629.001c.329-.001.596-.27.596-.6v-1.79c0-.331-.268-.6-.597-.6z"/><path d="m7.808 22.298h4.776c.062-1.284 1.118-2.309 2.407-2.309h1.579v-6.526c0-.956-.773-1.735-1.722-1.735h-.13c-.859 0-1.559-.704-1.559-1.569v-.685h-3.682v.685c0 .865-.699 1.569-1.559 1.569h-.11c-.948 0-1.72.777-1.722 1.732v.487h6.949c.267 0 .482.216.482.485v5.059c0 .267-.215.483-.482.483h-6.949v.591c.002.955.774 1.733 1.722 1.733z"/><path d="m6.086 14.916h6.469v4.09h-6.469z"/><path d="m21.071 17.241c-.565-.57-1.483-.57-2.048 0-.567.57-.567 1.494 0 2.064l2.418 2.434c.565.57 1.483.57 2.048 0s.565-1.493 0-2.062z"/><path d="m19.92 22.345c0-.805-.648-1.458-1.448-1.458h-3.419c-.8 0-1.448.653-1.448 1.458 0 .806.647 1.459 1.447 1.459h3.421c.8 0 1.447-.653 1.447-1.459z"/></g></svg>