<svg enable-background="new 0 0 100 100" height="100" viewBox="0 0 100 100" width="100" xmlns="http://www.w3.org/2000/svg"><g fill="#4bbab5"><path d="m93.858 75.322c-6.883-5.548-14.697-8.468-22.581-8.468-7.912 0-15.615 2.934-22.317 8.482-13.557 11.263-26.308 11.263-39.921 0-.987-.82-2.433-.473-3.101.751-.667 1.237-.403 2.934.612 3.768 7.488 6.187 15.003 9.34 22.367 9.369h.206c7.364-.029 14.865-3.182 22.339-9.369 5.951-4.936 12.792-7.55 19.814-7.55s13.988 2.628 20.134 7.578c.375.278.793.445 1.224.445.751 0 1.446-.473 1.863-1.238.241-.451.352-.96.355-1.465v-.104c-.023-.86-.37-1.695-.994-2.199z"/><path d="m7.701 16.364c1.822 0 2.642.904 3.866 2.28 1.46 1.627 3.268 3.643 6.758 3.643 3.476 0 5.298-2.016 6.744-3.643 1.224-1.377 2.044-2.28 3.866-2.28 1.835 0 2.642.904 3.866 2.28 1.46 1.627 3.268 3.643 6.758 3.643s5.298-2.016 6.744-3.643c1.237-1.377 2.044-2.28 3.866-2.28 1.835 0 2.642.904 3.879 2.28 1.446 1.627 3.254 3.643 6.744 3.643 3.476 0 5.298-2.016 6.744-3.643 1.237-1.377 2.044-2.28 3.879-2.28 1.822 0 2.642.904 3.866 2.28 1.46 1.627 3.268 3.643 6.744 3.643 3.49 0 5.298-2.016 6.758-3.643 1.224-1.377 2.044-2.28 3.866-2.28 1.182 0 2.141-1.168 2.141-2.6s-.959-2.6-2.141-2.6c-3.476 0-5.298 2.016-6.744 3.643-1.238 1.377-2.044 2.28-3.879 2.28-1.822 0-2.628-.904-3.866-2.28-1.446-1.627-3.268-3.643-6.744-3.643-3.49 0-5.298 2.016-6.758 3.643-1.224 1.377-2.044 2.28-3.866 2.28s-2.642-.904-3.866-2.28c-1.46-1.627-3.268-3.643-6.758-3.643-3.476 0-5.284 2.016-6.744 3.643-1.224 1.377-2.044 2.28-3.866 2.28-1.835 0-2.642-.904-3.866-2.28-1.46-1.627-3.268-3.643-6.758-3.643-3.476 0-5.298 2.016-6.744 3.643-1.238 1.377-2.044 2.28-3.866 2.28-1.835 0-2.642-.904-3.879-2.28-1.446-1.627-3.268-3.643-6.744-3.643-1.182 0-2.127 1.168-2.127 2.6-.001 1.432.945 2.6 2.127 2.6z"/><path d="m21.094 48.859 10.943 14.767c.598.82 1.182 1.238 1.78 1.279.598-.042 1.196-.459 1.794-1.279l10.929-14.767c1.404-1.905.195-4.144-1.863-4.144h-7.828-6.049-7.842c-2.045.001-3.255 2.24-1.864 4.144z"/><path d="m30.838 32.043h5.965c-.222-3.574-5.742-3.574-5.965 0z"/><path d="m30.792 34.564h6.049v2.545h-6.049z"/><path d="m30.792 39.639h6.049v2.545h-6.049z"/><path d="m79.883 45.406-10.943-14.767c-.598-.82-1.182-1.238-1.78-1.279-.598.042-1.196.459-1.794 1.279l-10.928 14.767c-1.404 1.905-.195 4.144 1.863 4.144h7.828 6.049 7.842c2.044-.001 3.254-2.239 1.863-4.144z"/><path d="m70.139 62.223h-5.965c.222 3.574 5.742 3.574 5.965 0z"/><path d="m64.136 57.145h6.049v2.545h-6.049z"/><path d="m64.136 52.084h6.049v2.545h-6.049z"/></g></svg>