<svg enable-background="new 0 0 100 100" height="100" viewBox="0 0 100 100" width="100" xmlns="http://www.w3.org/2000/svg"><g fill="#4bbab5"><path d="m93.858 75.322c-6.883-5.551-14.697-8.47-22.581-8.47-7.912 0-15.615 2.934-22.317 8.485-13.557 11.26-26.308 11.26-39.92 0-1.001-.82-2.433-.475-3.101.748-.667 1.237-.403 2.934.612 3.782 7.468 6.168 14.963 9.312 22.309 9.358h.322c7.346-.045 14.827-3.19 22.281-9.372 5.951-4.933 12.792-7.536 19.814-7.536s13.988 2.617 20.134 7.564c.375.288.793.446 1.224.446.751 0 1.446-.46 1.863-1.237.24-.451.352-.96.355-1.464v-.106c-.024-.86-.372-1.695-.995-2.198z"/><path d="m7.702 16.364c1.821 0 2.642.906 3.865 2.287 1.46 1.625 3.268 3.638 6.758 3.638 3.476 0 5.298-2.013 6.744-3.638 1.224-1.381 2.044-2.287 3.865-2.287 1.835 0 2.642.906 3.865 2.287 1.46 1.625 3.268 3.638 6.758 3.638s5.298-2.013 6.744-3.638c1.237-1.381 2.044-2.287 3.865-2.287 1.835 0 2.642.906 3.879 2.287 1.446 1.625 3.254 3.638 6.744 3.638s5.298-2.013 6.758-3.638c1.224-1.381 2.03-2.287 3.865-2.287 1.822 0 2.642.906 3.865 2.287 1.46 1.625 3.268 3.638 6.744 3.638 3.49 0 5.298-2.013 6.758-3.638 1.224-1.381 2.044-2.287 3.865-2.287 1.182 0 2.141-1.165 2.141-2.603 0-1.418-.934-2.566-2.094-2.597h-.126c-3.422.032-5.23 2.035-6.665 3.647-1.237 1.366-2.044 2.272-3.879 2.272-1.821 0-2.628-.906-3.865-2.272-1.435-1.612-3.243-3.615-6.665-3.647h-.158c-3.435.032-5.23 2.035-6.679 3.647-1.224 1.366-2.044 2.272-3.865 2.272-1.822 0-2.642-.906-3.866-2.272-1.448-1.612-3.243-3.615-6.679-3.647h-.158c-3.422.032-5.217 2.035-6.665 3.647-1.224 1.366-2.044 2.272-3.865 2.272-1.835 0-2.642-.906-3.865-2.272-1.448-1.612-3.243-3.615-6.679-3.647h-.158c-3.422.032-5.23 2.035-6.665 3.647-1.238 1.366-2.044 2.272-3.866 2.272-1.835 0-2.642-.906-3.879-2.272-1.434-1.612-3.229-3.615-6.665-3.647h-.124c-1.159.031-2.08 1.179-2.08 2.597-.001 1.438.945 2.603 2.127 2.603z"/><path d="m21.811 35.495c-2.044 0-3.254 2.243-1.863 4.142l10.943 14.769c.598.82 1.182 1.237 1.78 1.28.598-.043 1.196-.46 1.794-1.28l10.929-14.769c1.404-1.898.195-4.142-1.863-4.142z"/><path d="m63.979 35.492c-.598.043-1.196.46-1.794 1.28l-10.928 14.769c-1.404 1.898-.195 4.142 1.863 4.142h21.719c2.044 0 3.254-2.243 1.863-4.142l-10.943-14.769c-.598-.82-1.182-1.237-1.78-1.28z"/></g></svg>