<svg enable-background="new 0 0 100 100" height="100" viewBox="0 0 100 100" width="100" xmlns="http://www.w3.org/2000/svg"><g fill="#4bbab5"><path d="m62.133 46.535c-3.242 0-5.905 2.638-5.905 5.906 0 3.229 2.663 5.905 5.905 5.905s5.905-2.676 5.905-5.905c0-3.268-2.663-5.906-5.905-5.906z"/><path d="m85.764 58.346c3.242 0 5.88-2.676 5.88-5.905 0-3.268-2.638-5.906-5.88-5.906-3.268 0-5.906 2.638-5.906 5.906 0 3.229 2.638 5.905 5.906 5.905z"/><path d="m94.613 76.092v-.102c-.028-4.865-3.977-8.801-8.849-8.801-4.915 0-8.878 3.963-8.878 8.852 0 4.902 3.963 8.878 8.878 8.878 4.871-.001 8.821-3.949 8.849-8.827z"/><path d="m70.984 76.041c0-4.889-3.963-8.852-8.852-8.852s-8.852 3.963-8.852 8.852c0 4.902 3.963 8.878 8.852 8.878 4.89-.001 8.852-3.976 8.852-8.878z"/><path d="m47.379 76.041c0-4.889-3.963-8.852-8.878-8.852-4.889 0-8.852 3.963-8.852 8.852 0 4.902 3.963 8.878 8.852 8.878 4.915-.001 8.878-3.976 8.878-8.878z"/><path d="m38.5 46.535c-3.242 0-5.88 2.638-5.88 5.906 0 3.229 2.638 5.905 5.88 5.905 3.268 0 5.905-2.676 5.905-5.905.001-3.268-2.637-5.906-5.905-5.906z"/><path d="m23.114 76.041c0-4.889-3.963-8.852-8.878-8.852-4.872 0-8.822 3.936-8.849 8.801v.102c.028 4.878 3.977 8.827 8.849 8.827 4.915-.001 8.878-3.976 8.878-8.878z"/><path d="m14.242 36.003c1.634 0 2.959-1.338 2.959-2.959 0-1.608-1.325-2.946-2.959-2.946-1.621 0-2.946 1.338-2.946 2.946-.001 1.621 1.325 2.959 2.946 2.959z"/><path d="m14.244 19.512c1.222 0 2.213-1.004 2.213-2.213 0-1.222-.991-2.213-2.213-2.213-1.209 0-2.2.991-2.2 2.213 0 1.209.991 2.213 2.2 2.213z"/><path d="m38.509 19.512c1.222 0 2.213-1.004 2.213-2.213 0-1.222-.991-2.213-2.213-2.213-1.209 0-2.2.991-2.2 2.213 0 1.209.991 2.213 2.2 2.213z"/><path d="m62.126 19.512c1.222 0 2.213-1.004 2.213-2.213 0-1.222-.991-2.213-2.213-2.213-1.209 0-2.2.991-2.2 2.213 0 1.209.991 2.213 2.2 2.213z"/><path d="m85.746 19.512c1.222 0 2.213-1.004 2.213-2.213 0-1.222-.991-2.213-2.213-2.213-1.209 0-2.2.991-2.2 2.213-.001 1.209.99 2.213 2.2 2.213z"/><path d="m38.507 36.003c1.634 0 2.959-1.338 2.959-2.959 0-1.608-1.325-2.946-2.959-2.946-1.621 0-2.946 1.338-2.946 2.946 0 1.621 1.325 2.959 2.946 2.959z"/><path d="m62.125 36.003c1.634 0 2.959-1.338 2.959-2.959 0-1.608-1.325-2.946-2.959-2.946-1.621 0-2.946 1.338-2.946 2.946 0 1.621 1.325 2.959 2.946 2.959z"/><path d="m85.913 36.489c1.634 0 2.959-1.338 2.959-2.959 0-1.608-1.325-2.946-2.959-2.946-1.621 0-2.946 1.338-2.946 2.946-.001 1.621 1.325 2.959 2.946 2.959z"/><path d="m14.235 46.535c-3.242 0-5.88 2.638-5.88 5.906 0 3.229 2.638 5.905 5.88 5.905 3.268 0 5.905-2.676 5.905-5.905.001-3.268-2.637-5.906-5.905-5.906z"/></g></svg>