<svg enable-background="new 250 250 100 100" height="100" viewBox="250 250 100 100" width="100" xmlns="http://www.w3.org/2000/svg"><g fill="#fff"><path d="m270.685 318.879h1.5 15.49v8.003l.633-.388.649.397-.649.398.649.398-.649.398.649.398-.649.397.649.398-.649.398.649.398-.22.135c.276.099.553.193.832.285l.036-.022-.648-.398.648-.398-.648-.398.648-.398-.648-.398.648-.398-.648-.398.648-.398-.648-.398.649-.398.649.398-.648.398.648.398-.648.398.648.398-.648.398.648.398-.648.398.648.398-.648.398.114.07c.234.076.467.153.703.224l.48-.294-.648-.398.648-.398-.648-.398.648-.398-.648-.398.648-.398-.648-.398.648-.398-.648-.398.649-.398.649.398-.648.398.648.398-.648.398.648.398-.648.398.648.398-.648.398.648.398-.648.398.648.398.648-.398-.648-.398.648-.398-.648-.398.648-.398-.648-.398.648-.398-.648-.398.648-.398-.648-.398.649-.398.649.398-.648.398.648.398-.648.398.648.398-.648.398.648.398-.648.398.648.398-.648.398.648.398-.624.383c.316.076.637.142.956.209l.316-.194-.648-.398.648-.398-.648-.398.648-.398-.648-.398.648-.398-.648-.398.648-.398-.648-.398.648-.398-.648-.398.649-.398.649.398-.648.398.648.398-.648.398.648.398-.648.398.648.398-.648.398.648.398-.648.398.648.398-.648.398.606.372c.022.004.044.007.066.011l.624-.383-.648-.398.648-.398-.648-.398.648-.398-.648-.398.648-.398-.648-.398.648-.398-.648-.398.648-.398-.648-.398.649-.398.649.398-.648.398.648.398-.648.398.648.398-.648.398.648.398-.648.398.648.398-.648.398.648.398-.648.398.648.398.649-.398-.648-.398.648-.398-.648-.398.648-.398-.648-.398.648-.398-.648-.398.648-.398-.648-.398.648-.398-.648-.398.649-.398.649.398-.648.398.648.398-.648.398.648.398-.648.398.648.398-.648.398.648.398-.648.398.648.398-.648.398.648.398.648-.398-.648-.398.648-.398-.648-.398.648-.398-.648-.398.648-.398-.648-.398.648-.398-.648-.398.648-.398-.648-.398.649-.398.649.398-.648.398.648.398-.648.398.648.398-.648.398.648.398-.648.398.648.398-.648.398.648.398-.648.398.648.398-.642.394c.858.066 1.721.109 2.596.109.87 0 1.729-.042 2.582-.109l-.643-.395.648-.398-.648-.398.648-.398-.648-.398.648-.398-.648-.398.648-.398-.648-.398.648-.398-.648-.398.648-.398-.648-.398.649-.398.649.398-.648.398.648.398-.648.398.648.398-.648.398.648.398-.648.398.648.398-.648.398.648.398-.648.398.648.398.648-.398-.648-.398.648-.398-.648-.398.648-.398-.648-.398.648-.398-.648-.398.648-.398-.648-.398.648-.398-.648-.398.649-.398.649.398-.648.398.648.398-.648.398.648.398-.648.398.648.398-.648.398.648.398-.648.398.648.398-.648.398.648.398.649-.398-.648-.398.648-.398-.648-.398.648-.398-.648-.398.648-.398-.648-.398.648-.398-.648-.398.648-.398-.648-.398.649-.398.649.398-.648.398.648.398-.648.398.648.398-.648.398.648.398-.648.398.648.398-.648.398.648.398-.648.398.628.385c.019-.004.038-.006.057-.01l.612-.376-.648-.398.648-.398-.648-.398.648-.398-.648-.398.648-.398-.648-.398.648-.398-.648-.398.648-.398-.648-.398.649-.398.649.398-.648.398.648.398-.648.398.648.398-.648.398.648.398-.648.398.648.398-.648.398.648.398-.648.398.32.196c.32-.066.64-.133.956-.209l-.628-.385.648-.398-.648-.398.648-.398-.648-.398.648-.398-.648-.398.648-.398-.648-.398.648-.398-.648-.398.649-.398.649.398-.648.398.648.398-.648.398.648.398-.648.398.648.398-.648.398.648.398-.648.398.649.398.648-.398-.648-.398.648-.398-.648-.398.648-.398-.648-.398.648-.398-.648-.398.648-.398-.648-.398.649-.398.649.398-.648.398.648.398.648-.398-.648-.398.649-.398.649.398.648-.398.649.398-.648.398.648.398-.648.398.648.398-.648.398.648.398-.649.398-.648-.398.648-.398-.648-.398.648-.398-.648-.398.648-.398-.648-.398-.648.398.648.398-.648.398.648.398-.648.398.648.398-.648.398.648.398-.648.398.041.026c.279-.092.557-.186.833-.285l-.226-.138.649-.398.386.237c.087-.034.176-.063.263-.097v-.537-.795-.796-.796-8.013h15.49 1.501l-29.31-17.903zm29.948 8.809-.648.398.648.398-.648.398.648.398.648-.398-.648-.398.648-.398-.648-.398.649-.398-.648-.398.649-.398.649.398-.648.398.648.398-.648.398.648.398-.648.398.648.398-.648.398.648.398-.648.398.648.398-.648.398.648.398-.649.398-.648-.398.648-.398-.648-.398.648-.398-.648-.398.648-.398-.648-.398-.648.398.648.398-.648.398.648.398-.648.398.648.398-.649.398-.648-.398-.649.398-.649-.398.648-.398-.648-.398.648-.398-.648-.398.648-.398-.648-.398.648-.398-.648-.398.648-.398-.648-.398.648-.398-.648-.398.649-.398.649.398-.648.398.648.398-.648.398.648.398-.648.398.648.398-.648.398.648.398-.648.398.648.398-.648.398.648.398.648-.398-.648-.398.648-.398-.648-.398.648-.398-.648-.398.648-.398-.648-.398.648-.398-.648-.398.648-.398-.648-.398.649-.398.649.398-.648.398z"/><path d="m271.768 282.145.65.397.319-.196.648.398-.317.195.65.397.315-.194-.648-.398.649-.398-.649-.398.649-.397h-1.297l.648.397-.649.398-.648-.398.648-.397h-.551-.746l.649.398z"/><path d="m304.784 331.826-.259-.159-.386.237c.214-.028.431-.047.645-.078z"/><path d="m292.147 331.236-.596-.366-.236.145c.277.075.553.154.832.221z"/><path d="m342.767 297.622c-2.549 0-4.615 2.07-4.615 4.622s2.066 4.622 4.615 4.622 4.616-2.07 4.616-4.622c-.001-2.552-2.067-4.622-4.616-4.622zm0 5.454c-.459 0-.831-.372-.831-.832 0-.459.372-.832.831-.832s.831.373.831.832c0 .46-.372.832-.831.832z"/><path d="m297.381 332.059-.64-.393-.47.289c.368.041.738.075 1.11.104z"/><path d="m303.7 331.956-.473-.29-.643.394c.374-.028.747-.063 1.116-.104z"/><path d="m295.826 331.901-.383-.234-.257.158c.213.029.427.049.64.076z"/><path d="m257.217 297.622c-2.549 0-4.616 2.07-4.616 4.622s2.067 4.622 4.616 4.622 4.615-2.07 4.615-4.622c.001-2.552-2.065-4.622-4.615-4.622zm0 5.454c-.459 0-.831-.372-.831-.832 0-.459.372-.832.831-.832s.831.373.831.832c0 .46-.372.832-.831.832z"/><path d="m308.658 331.018-.24-.148-.605.371c.283-.068.563-.147.845-.223z"/><path d="m269.55 282.381c-.034.109-.057.224-.057.344v3.679 27.622 3.679c0 .1.016.195.039.287l29.157-17.811z"/><path d="m274.034 282.346.648.398-.648.398.648.398-.314.193 25.624 15.652 25.615-15.646-.325-.199.649-.398-.649-.398.649-.398-.649-.398.649-.397h-1.297l.648.397-.648.398.648.398-.648.398.648.398-.648.398-.649-.398.649-.398-.649-.398.649-.398-.649-.398.649-.397h-1.297l.648.397-.648.398.648.398-.649.398.649.398-.649.398-.648-.398.648-.398-.648-.398.648-.398-.648-.398.648-.397h-1.297l.649.397-.649.398.649.398-.649.398.648.398-.648.398-.649-.398.649-.398-.649-.398.649-.398-.649-.398.649-.397h-1.297l.648.397-.648.398.648.398-.648.398.648.398-.649.398-.648-.398.648-.398-.648-.398.648-.398-.648-.398.649-.397h-.001-1.297l.649.397-.648.398.648.398-.649.398.649.398-.649.398-.648-.398.648-.398-.648-.398.648-.398-.648-.398.648-.397h-1.297l.649.397-.649.398.649.398-.649.398.649.398-.649.398-.649-.398.649-.398-.649-.398.649-.398-.649-.398.649-.397h-1.297l.648.397-.648.398.648.398-.648.398.648.398-.648.398-.649-.398.648-.398-.648-.398.649-.398-.649-.398.649-.397h-.001-1.297l.649.397-.649.398.649.398-.649.398.649.398-.649.398-.648-.398.648-.398-.648-.398.648-.398-.648-.398.648-.397h-1.297l.649.397-.649.398.649.398-.649.398.649.398-.649.398-.649-.398.649-.398-.649-.398.649-.398-.649-.398.649-.397h-1.297l.648.397-.648.398.648.398-.648.398.648.398-.648.398-.649-.398.649-.398-.649-.398.649-.398-.649-.398.649-.397h-1.298l.649.397-.649.398.649.398-.649.398.649.398-.649.398-.648-.398.648-.398-.648-.398.648-.398-.648-.398.648-.397h-1.297l.648.397-.648.398.648.398-.648.398.648.398-.648.398-.649-.398.649-.398-.649-.398.649-.398-.649-.398.649-.397h-1.297l.648.397-.648.398.648.398-.648.398.648.398-.648.398-.649-.398.649-.398-.649-.398.649-.398-.649-.398.649-.397h-1.298l.649.397-.649.398.649.398-.649.398.649.398-.649.398-.648-.398.648-.398-.648-.398.648-.398-.648-.398.648-.397h-1.297l.649.397-.649.398.649.398-.649.398.648.398-.648.398-.649-.398.649-.398-.649-.398.649-.398-.649-.398.649-.397h-1.297l.648.397-.648.398.648.398-.648.398.648.398-.649.398-.648-.398.648-.398-.648-.398.648-.398-.648-.398.648-.397h-1.297l.649.397-.649.398.649.398-.649.398.649.398-.649.398-.648-.398.648-.398-.648-.398.648-.398-.648-.398.648-.397h-1.297l.648.397-.648.398.648.398-.648.398.648.398-.648.398-.649-.398.649-.398-.649-.398.649-.398-.649-.398.649-.397h-1.297l.648.397-.648.398.648.398-.648.398.648.398-.649.398-.648-.398.648-.398-.648-.398.648-.398-.648-.398.648-.397h-1.297l.649.397-.649.398.649.398-.649.398.649.398-.649.398-.648-.398.648-.398-.648-.398.648-.398-.648-.398.648-.397h-1.297l.649.397-.649.398.649.398-.649.398.648.398-.648.398-.649-.398.649-.398-.649-.398.649-.398-.649-.398.649-.397h-1.297l.648.397-.648.398.648.398-.648.398.648.398-.649.398-.648-.398.648-.398-.648-.398.648-.398-.648-.398.648-.397h-1.297l.649.397-.649.398.649.398-.649.398.649.398-.649.398-.649-.398.649-.398-.648-.398.648-.398-.648-.398.648-.397h-1.297l.648.397-.648.398.648.398-.648.398.648.398-.648.398-.649-.398.649-.398-.649-.398.649-.398-.649-.398.649-.397h-1.301l.649.397-.649.398.649.398-.649.398.649.398-.649.398-.648-.398.648-.398-.648-.398.648-.398-.648-.398.648-.397h-1.297l.648.397-.648.398.648.398-.648.398.648.398-.648.398-.649-.398.649-.398-.649-.398.649-.398-.649-.398.649-.397h-1.298l.649.397-.649.398.649.398-.649.398.649.398-.649.398-.648-.398.648-.398-.648-.398.648-.398-.648-.398.648-.397h-1.297l.649.397-.649.398.649.398-.649.398.648.398-.648.398-.649-.398.649-.398-.649-.398.649-.398-.649-.398.649-.397h-1.297l.648.397-.648.398.648.398-.648.398.648.398-.648.398-.649-.398.649-.398-.649-.398.649-.398-.649-.398.649-.397h-1.298l.649.397-.649.398.649.398-.649.398.649.398-.649.398-.648-.398.648-.398-.648-.398.648-.398-.648-.398.648-.397h-1.297l.649.397-.649.398.649.398-.649.398.648.398-.648.398-.649-.398.649-.398-.649-.398.649-.398-.649-.398.649-.397h-1.297l.648.397-.648.398.648.398-.648.398.648.398-.649.398-.648-.398.648-.398-.648-.398.648-.398-.648-.398.649-.397h-.001-1.297l.649.397-.649.398.649.398-.649.398.649.398-.649.398-.648-.398.648-.398-.648-.398.648-.398-.648-.398.648-.397h-1.297l.649.397-.649.398.649.398-.649.398.649.398-.649.398-.649-.398.649-.398-.649-.398.649-.398-.649-.398.649-.397h-1.297l.648.397-.648.398.648.398-.648.398.648.398-.648.398-.649-.398.648-.398-.648-.398.648-.398-.648-.398.648-.397h-1.297l.649.397-.649.398.649.398-.649.398.649.398-.649.398-.648-.398.648-.398-.648-.398.648-.398-.648-.398.648-.397h-1.297l.648.397-.648.398.648.398-.648.398.648.398-.648.398-.649-.398.649-.398-.649-.398.649-.398-.649-.398.649-.397h-1.297l.648.397-.648.398.648.398-.648.398.648.398-.648.398-.649-.398-.649.398-.648-.398.648-.398-.648-.398.648-.398-.648-.398.648-.397h-1.297l.648.397z"/><path d="m275.331 282.346.649.398-.649.398.649.398.649-.398-.649-.398.648-.398-.648-.398.649-.397h-1.298l.649.397z"/><path d="m310.363 329.677-.648-.398.648-.398-.648-.398.648-.398-.648-.398-.648.398.648.398-.648.398.648.398-.648.398.648.398-.648.398.485.298c.228-.068.454-.143.68-.217l.131-.081-.648-.398z"/><path d="m325.931 282.346.649.398-.649.398.326.2.712-.436-.264-.162.649-.398.265.163.65-.397-.267-.163.649-.398h-.852-.445l.648.397-.648.398-.649-.398.649-.397h-1.423l.649.397z"/><path d="m287.675 329.817c.083.033.169.061.253.094l.38-.233-.633-.388z"/><path d="m301.295 300.181 29.157 17.811c.024-.092.039-.187.039-.287v-3.679-27.622-3.679c0-.12-.023-.234-.057-.344z"/><path d="m287.675 328.474.633-.388-.633-.388z"/><path d="m287.675 329.27.633-.389-.633-.388z"/><path d="m329.188 281.551h-.537l.268.164z"/><path d="m287.675 327.678.633-.388-.633-.388z"/><path d="m271.439 281.551h-.643l.322.197z"/></g></svg>