<svg enable-background="new 0 0 100 100" height="100" viewBox="0 0 100 100" width="100" xmlns="http://www.w3.org/2000/svg"><g fill="#4bbab5"><path d="m33.835 60.014c9.097 0 13.8-4.176 17.949-7.86 3.924-3.484 7.313-6.493 14.381-6.493 7.069 0 10.458 3.009 14.382 6.493 1.148 1.02 2.878.883 3.863-.306.986-1.189.853-2.98-.296-4-4.15-3.684-8.852-7.86-17.949-7.86-9.096 0-13.799 4.175-17.949 7.86-3.924 3.484-7.313 6.493-14.382 6.493-7.068 0-10.457-3.009-14.38-6.493-1.149-1.02-2.878-.883-3.864.306s-.853 2.98.296 4c4.151 3.684 8.853 7.86 17.949 7.86z"/><path d="m33.835 44.5c9.097 0 13.8-4.175 17.949-7.86 3.924-3.484 7.313-6.493 14.381-6.493 7.069 0 10.457 3.009 14.382 6.493 1.148 1.02 2.878.883 3.863-.307.986-1.189.853-2.98-.296-4-4.149-3.684-8.852-7.859-17.949-7.859s-13.799 4.175-17.949 7.86c-3.924 3.484-7.313 6.493-14.382 6.493-7.068 0-10.457-3.009-14.38-6.493-1.149-1.02-2.878-.883-3.864.306s-.853 2.98.296 4c4.151 3.685 8.853 7.86 17.949 7.86z"/><path d="m66.166 55.502c-9.096 0-13.799 4.175-17.949 7.86-3.924 3.484-7.313 6.493-14.382 6.493-7.068 0-10.456-3.009-14.38-6.493l-.001-.001c-1.148-1.02-2.878-.883-3.863.306s-.853 2.98.296 3.999c4.15 3.685 8.852 7.86 17.948 7.86 9.097 0 13.8-4.175 17.949-7.86 3.924-3.484 7.313-6.493 14.381-6.493s10.458 3.009 14.382 6.493c1.148 1.02 2.878.883 3.863-.306.986-1.189.853-2.98-.296-3.999-4.148-3.683-8.851-7.859-17.948-7.859z"/></g></svg>