<svg enable-background="new 0 0 100 100" height="100" viewBox="0 0 100 100" width="100" xmlns="http://www.w3.org/2000/svg"><g fill="#4bbab5"><path d="m35.75 20.414c6.008 10.64 1.807 17.892-3.371 28.028-5.51 10.787-6.349 22.588 3.371 31.144-5.572-12.383-2.428-20.691 3.252-32.217 4.699-9.536 6.393-20.033-3.252-26.955z"/><path d="m64.666 26.186c6.008 10.64 1.807 17.892-3.371 28.029-5.51 10.786-6.349 22.588 3.371 31.144-5.571-12.383-2.428-20.691 3.252-32.217 4.699-9.538 6.393-20.034-3.252-26.956z"/><path d="m51.09 10.328c8.057 14.267 2.423 23.991-4.52 37.583-7.389 14.464-8.514 30.289 4.52 41.761-7.47-16.604-3.255-27.744 4.361-43.2 6.302-12.788 8.573-26.862-4.361-36.144z"/></g></svg>