<svg enable-background="new 250 250 100 100" height="100" viewBox="250 250 100 100" width="100" xmlns="http://www.w3.org/2000/svg"><g fill="#fff"><path d="m282.415 302.949c-1.949-.234-3.696 1.279-3.896 3.25-.198 1.985 1.231 3.751 3.185 3.959.12.012.244.012.358.012 1.807 0 3.351-1.381 3.538-3.243l.005-.072c.207-1.979-1.23-3.712-3.19-3.906z"/><path d="m284.96 288.686c-1.885-.428-3.808.909-4.198 2.856-.384 1.953.865 3.859 2.794 4.251.232.044.467.065.713.065 1.658-.008 3.133-1.182 3.48-2.903l.012-.069c.39-1.954-.874-3.815-2.801-4.2z"/><path d="m287.156 274.359c-1.896-.402-3.813.915-4.197 2.869-.385 1.953.864 3.848 2.801 4.238.225.044.461.065.704.065 1.653.004 3.142-1.182 3.481-2.897l.018-.075c.392-1.941-.865-3.809-2.807-4.2z"/><path d="m280.564 317.309c-1.91-.408-3.801.909-4.199 2.86-.39 1.947.866 3.855 2.801 4.238.225.064.455.078.699.078 1.659.012 3.139-1.168 3.478-2.901l.027-.071c.39-1.953-.871-3.815-2.806-4.204z"/><path d="m299.998 319.171c-1.974 0-3.562 1.641-3.562 3.633 0 1.998 1.588 3.608 3.562 3.608 1.969 0 3.563-1.61 3.563-3.608v-.039c0-1.991-1.594-3.594-3.563-3.594z"/><path d="m258.187 322.102c.43.176.884.261 1.314.261 1.415 0 2.749-.85 3.307-2.271l.024-.065c.733-1.849-.159-3.906-1.993-4.64-1.807-.746-3.914.182-4.639 2.038-.723 1.842.148 3.945 1.987 4.677z"/><path d="m277.545 279.278.026-.078c.73-1.849-.16-3.904-1.994-4.652-1.795-.746-3.896.196-4.639 2.045-.724 1.842.16 3.944 1.987 4.678.429.182.878.261 1.319.261 1.411.003 2.743-.858 3.301-2.254z"/><path d="m299.998 304.214c-1.974 0-3.562 1.649-3.562 3.653 0 1.985 1.588 3.608 3.562 3.608 1.969 0 3.563-1.623 3.563-3.608v-.078c0-1.991-1.594-3.575-3.563-3.575z"/><path d="m270.367 288.057c-1.915-.609-3.882.533-4.441 2.447-.564 1.906.501 3.918 2.384 4.489.352.11.692.149 1.025.149 1.532 0 2.954-1.006 3.409-2.563l.021-.077c.57-1.913-.519-3.88-2.398-4.445z"/><path d="m265.755 301.768c-1.808-.732-3.91.188-4.64 2.045-.724 1.849.153 3.952 1.979 4.678.43.181.884.265 1.314.265 1.423 0 2.756-.862 3.307-2.271l.031-.07c.733-1.843-.159-3.907-1.991-4.647z"/><path d="m329.058 276.592-.025-.071c-.731-1.843-2.794-2.733-4.613-1.974-1.827.747-2.697 2.875-1.968 4.73.559 1.396 1.89 2.253 3.315 2.253.427.004.884-.078 1.311-.261 1.827-.726 2.711-2.834 1.98-4.677z"/><path d="m334.077 290.503-.019-.064c-.57-1.914-2.532-2.958-4.428-2.383-1.884.565-2.942 2.604-2.37 4.524.448 1.557 1.876 2.563 3.394 2.563.353 0 .694-.041 1.039-.151 1.876-.57 2.948-2.582 2.384-4.489z"/><path d="m323.619 320.111c-.39-1.961-2.276-3.212-4.179-2.796-1.942.382-3.184 2.322-2.786 4.269.34 1.72 1.819 2.9 3.48 2.9.243.014.479-.013.705-.071 1.928-.383 3.19-2.284 2.794-4.237z"/><path d="m343.771 317.347c-.723-1.849-2.786-2.731-4.606-1.959-1.839.726-2.704 2.862-1.969 4.703.558 1.415 1.879 2.273 3.301 2.273.437 0 .884-.084 1.322-.261 1.832-.732 2.708-2.835 1.979-4.678z"/><path d="m338.89 303.813-.027-.078c-.736-1.851-2.8-2.738-4.614-1.967-1.84.74-2.71 2.875-1.967 4.719.55 1.408 1.891 2.27 3.307 2.27.43 0 .878-.084 1.314-.265 1.832-.728 2.71-2.83 1.987-4.679z"/><path d="m299.998 274.268c-1.974 0-3.562 1.637-3.562 3.628 0 1.986 1.588 3.602 3.562 3.602 1.969 0 3.563-1.616 3.563-3.602v-.038c0-1.987-1.594-3.59-3.563-3.59z"/><path d="m314.237 281.466c1.936-.385 3.193-2.285 2.793-4.238l-.01-.07c-.387-1.955-2.296-3.193-4.179-2.785-1.943.378-3.179 2.304-2.789 4.263.347 1.713 1.828 2.899 3.48 2.899.244 0 .48-.024.705-.069z"/><path d="m318.294 310.158c1.96-.194 3.383-1.966 3.191-3.959l-.007-.063c-.192-1.979-1.927-3.421-3.896-3.187-1.952.194-3.381 1.992-3.184 3.978.179 1.855 1.731 3.244 3.538 3.244.114 0 .236 0 .358-.013z"/><path d="m299.998 289.238c-1.974 0-3.562 1.648-3.562 3.648 0 1.985 1.588 3.606 3.562 3.606 1.969 0 3.563-1.621 3.563-3.606v-.078c0-1.994-1.594-3.57-3.563-3.57z"/><path d="m316.435 295.779c1.929-.39 3.179-2.284 2.794-4.243l-.013-.065c-.377-1.941-2.255-3.18-4.178-2.785-1.927.392-3.172 2.318-2.787 4.269.346 1.721 1.827 2.895 3.48 2.895.243 0 .479-.019.704-.071z"/></g></svg>