<svg enable-background="new 0 0 100 37.984" height="37.984" viewBox="0 0 100 37.984" width="100" xmlns="http://www.w3.org/2000/svg"><path d="m26.356 17.903h3.147c-.445-7.853-1.1-12.217-1.573-13.854-.428 1.46-1.096 5.335-1.574 13.854z" fill="none"/><path d="m22.118 21.089c.094 2.231.236 5.602.516 8.523.233 2.42.487 3.713.679 4.398.191-.684.445-1.977.678-4.398.283-2.943.429-6.434.516-8.521.014-.337.027-.638.04-.917h-2.468z" fill="none"/><path d="m31.351 21.09c.098 2.297.242 5.651.517 8.522.232 2.419.486 3.712.678 4.397.191-.684.445-1.977.678-4.397.277-2.892.42-6.262.515-8.492l.041-.946h-2.469c.014.279.027.58.04.916z" fill="none"/><path d="m35.59 17.903h3.147c-.445-7.854-1.1-12.217-1.573-13.854-.428 1.461-1.096 5.335-1.574 13.854z" fill="none"/><path d="m9.456 4.068c-.428 1.476-1.092 5.354-1.568 13.835h3.146c-.123-2.147-.32-5.066-.602-7.778-.366-3.512-.728-5.227-.976-6.057z" fill="none"/><path d="m40.584 21.035c.097 2.289.24 5.667.519 8.575.233 2.419.487 3.712.679 4.398.191-.685.445-1.978.677-4.397.279-2.903.422-6.282.516-8.519l.041-.919h-2.468c.011.264.023.548.036.862z" fill="none"/><path d="m12.876 20.907.008.182c.095 2.237.237 5.617.516 8.523.232 2.421.486 3.713.678 4.398.191-.684.445-1.978.678-4.399.279-2.908.422-6.286.516-8.521l.04-.915h-2.468c.011.225.021.468.032.732z" fill="none"/><path d="m18.69 4.068c-.473 1.652-1.125 6.011-1.568 13.835h3.146c-.124-2.153-.321-5.077-.603-7.778-.365-3.513-.726-5.228-.975-6.057z" fill="none"/><path d="m44.823 17.903h3.147c-.444-7.854-1.1-12.218-1.573-13.855-.428 1.461-1.096 5.336-1.574 13.855z" fill="none"/><path d="m74.094 4.068c-.427 1.476-1.092 5.354-1.568 13.835h3.147c-.123-2.151-.321-5.072-.602-7.778-.367-3.512-.729-5.227-.977-6.057z" fill="none"/><path d="m63.292 17.903h3.147c-.445-7.854-1.1-12.217-1.573-13.854-.428 1.461-1.097 5.335-1.574 13.854z" fill="none"/><path d="m77.504 20.678.017.411c.096 2.269.239 5.632.517 8.521.232 2.419.486 3.713.678 4.398.191-.684.445-1.976.677-4.396.276-2.88.42-6.241.514-8.465l.043-.973h-2.468c.008.16.015.325.022.504z" fill="none"/><path d="m68.288 21.089c.095 2.235.238 5.613.517 8.522.232 2.42.486 3.712.678 4.397.191-.685.445-1.978.678-4.397.279-2.907.422-6.285.517-8.521.014-.337.027-.638.039-.917h-2.469z" fill="none"/><path d="m49.82 21.089c.094 2.23.236 5.601.517 8.522.232 2.419.486 3.712.678 4.397.191-.684.444-1.977.677-4.398.28-2.906.423-6.284.517-8.519.015-.349.027-.65.039-.918h-2.469z" fill="none"/><path d="m55.626 4.068c-.428 1.476-1.092 5.354-1.568 13.835h3.146c-.122-2.142-.319-5.055-.602-7.778-.366-3.512-.728-5.227-.976-6.057z" fill="none"/><path d="m59.051 21.027c.098 2.299.24 5.679.52 8.586.232 2.419.486 3.712.678 4.397.191-.683.445-1.976.678-4.398.28-2.92.422-6.29.516-8.521l.04-.917h-2.469c.012.261.024.542.037.853z" fill="none"/><path d="m68.132 17.903h2.7c.168-2.983.382-5.791.616-8.038.294-2.829.595-4.688.909-5.911h-5.752c.314 1.223.616 3.082.91 5.911.235 2.254.45 5.062.617 8.038z" fill="none"/><path d="m20.386 20.174h-3.38l-.046 1.023c-.294 6.969-.644 10.834-1.143 12.925h5.757c-.499-2.091-.849-5.955-1.144-12.921z" fill="none"/><path d="m11.151 20.174h-3.38c-.013.288-.027.599-.042.954-.296 7.014-.647 10.896-1.148 12.995h5.758c-.5-2.092-.849-5.957-1.143-12.926z" fill="none"/><path d="m12.728 17.903h2.7c.167-2.972.381-5.779.617-8.038.294-2.829.595-4.688.909-5.911h-5.751c.314 1.223.616 3.082.91 5.911.234 2.258.448 5.066.615 8.038z" fill="none"/><path d="m31.196 17.903h2.7c.167-2.97.381-5.777.616-8.037.295-2.829.596-4.689.91-5.911h-5.752c.314 1.223.615 3.082.909 5.911.235 2.247.449 5.054.617 8.037z" fill="none"/><path d="m21.962 17.903h2.7c.167-2.972.381-5.779.616-8.038.294-2.829.595-4.688.91-5.911h-5.751c.314 1.223.615 3.082.91 5.911.234 2.254.448 5.062.615 8.038z" fill="none"/><path d="m48.088 20.174h-3.38l-.046 1.023c-.294 6.969-.644 10.834-1.143 12.925h5.757c-.5-2.092-.849-5.957-1.143-12.926-.018-.396-.032-.73-.045-1.022z" fill="none"/><path d="m29.619 20.174h-3.38c-.014.307-.028.639-.044 1.023-.295 6.969-.645 10.834-1.144 12.926h5.758c-.499-2.091-.849-5.954-1.144-12.92z" fill="none"/><path d="m40.431 17.903h2.7c.167-2.966.381-5.773.616-8.037.294-2.829.595-4.689.909-5.911h-5.751c.314 1.223.615 3.082.91 5.911.234 2.257.448 5.064.616 8.037z" fill="none"/><path d="m38.854 20.174h-3.381c-.013.29-.027.603-.042.961-.297 7.01-.648 10.89-1.148 12.988h5.759c-.5-2.092-.849-5.957-1.143-12.926-.016-.383-.031-.716-.045-1.023z" fill="none"/><path d="m49.664 17.903h2.7c.167-2.968.381-5.775.616-8.038.294-2.829.595-4.688.909-5.911h-5.751c.314 1.223.615 3.082.909 5.911.237 2.265.451 5.071.617 8.038z" fill="none"/><path d="m87.272 29.611c.232 2.421.486 3.714.679 4.399.191-.684.445-1.978.677-4.399.279-2.906.422-6.284.516-8.519l.011-.26c.01-.235.02-.454.029-.658h-2.467c.012.264.024.549.038.865.096 2.288.238 5.666.517 8.572z" fill="none"/><path d="m77.366 17.903h2.7c.167-2.968.381-5.775.616-8.037.294-2.829.595-4.689.909-5.911h-5.751c.314 1.223.615 3.082.909 5.911.235 2.246.449 5.053.617 8.037z" fill="none"/><path d="m58.898 17.903h2.7c.168-2.974.382-5.781.617-8.038.294-2.829.595-4.688.909-5.911h-5.751c.314 1.223.615 3.082.909 5.911.235 2.263.449 5.07.616 8.038z" fill="none"/><path d="m81.76 17.903h3.147c-.445-7.854-1.1-12.216-1.573-13.854-.428 1.461-1.096 5.336-1.574 13.854z" fill="none"/><path d="m85.984 9.865c.234 2.254.448 5.062.616 8.038h2.7c.167-2.973.381-5.78.615-8.037.295-2.829.596-4.689.91-5.911h-5.751c.315 1.222.616 3.081.91 5.91z" fill="none"/><path d="m66.556 20.174h-3.381c-.011.253-.023.525-.036.831l-.008.192c-.294 6.969-.644 10.834-1.143 12.925h5.758c-.499-2.092-.849-5.955-1.144-12.922-.018-.385-.032-.719-.046-1.026z" fill="none"/><path d="m85.051 20.809c-.009-.229-.018-.438-.027-.635h-3.381c-.014.307-.028.64-.044 1.023-.295 6.969-.644 10.834-1.144 12.926h5.756c-.5-2.092-.849-5.957-1.143-12.926z" fill="none"/><path d="m75.789 20.174h-3.38l-.042.954c-.297 7.014-.648 10.896-1.148 12.995h5.759c-.499-2.092-.849-5.957-1.143-12.926z" fill="none"/><path d="m57.358 21.013c-.013-.31-.024-.584-.036-.839h-3.381c-.012.259-.024.538-.037.852l-.007.171c-.295 6.969-.645 10.834-1.144 12.926h5.757c-.499-2.092-.849-5.957-1.143-12.926z" fill="none"/><g fill="#004d71"><path d="m49.779 20.174h2.469c.009-.212.018-.405.026-.576.028-.57.058-1.134.09-1.695h-2.7c.031.561.062 1.125.09 1.695z"/><path d="m59.014 20.174h2.469l.025-.575c.028-.57.059-1.135.09-1.696h-2.7c.032.561.062 1.125.09 1.695.008.172.017.369.026.576z"/><path d="m68.248 20.174h2.469c.009-.207.018-.406.026-.576.028-.57.059-1.135.09-1.695h-2.7c.032.561.062 1.125.09 1.695z"/><path d="m40.547 20.174h2.468l.026-.576c.028-.57.058-1.134.09-1.695h-2.7c.032.561.062 1.125.09 1.695.008.172.017.369.026.576z"/><path d="m22.078 20.174h2.468c.009-.207.018-.406.026-.576.028-.57.059-1.134.09-1.695h-2.7c.032.561.062 1.125.09 1.695z"/><path d="m66.606 3.954h5.752c.427-1.662.878-2.146 1.371-2.271h-8.493c.492.125.943.609 1.37 2.271z"/><path d="m57.373 3.954h5.751c.427-1.662.879-2.146 1.371-2.271h-8.494c.493.125.945.609 1.372 2.271z"/><path d="m48.139 3.954h5.751c.427-1.662.879-2.146 1.371-2.271h-8.493c.492.125.944.609 1.371 2.271z"/><path d="m77.483 20.174h2.468l.025-.576c.028-.57.059-1.135.09-1.696h-2.7c.032.56.062 1.125.09 1.695.009.173.018.369.027.577z"/><path d="m75.84 3.954h5.751c.427-1.662.879-2.146 1.371-2.271h-8.493c.493.125.944.609 1.371 2.271z"/><path d="m85.075 3.954h5.751c.427-1.662.879-2.146 1.371-2.271h-8.494c.493.125.945.609 1.372 2.271z"/><path d="m31.313 20.174h2.469l.025-.575c.028-.57.059-1.135.09-1.696h-2.7c.032.56.062 1.125.09 1.695.008.171.017.37.026.576z"/><path d="m7.888 17.903c-.033.585-.065 1.19-.096 1.82-.007.134-.014.294-.021.451h3.38l-.02-.452c-.025-.501-.057-1.12-.097-1.819z"/><path d="m63.292 17.903c-.033.585-.065 1.19-.096 1.82-.007.135-.014.293-.021.451h3.381c-.007-.156-.014-.318-.021-.451-.031-.628-.063-1.231-.097-1.82z"/><path d="m44.823 17.903c-.033.585-.065 1.19-.096 1.82l-.02.451h3.38c-.007-.162-.014-.315-.021-.451-.031-.628-.063-1.232-.096-1.821z"/><path d="m54.058 17.903c-.033.585-.065 1.19-.096 1.82-.007.135-.014.293-.021.451h3.381c-.007-.159-.014-.317-.021-.452-.024-.501-.057-1.12-.097-1.82z"/><path d="m38.905 3.954h5.751c.427-1.662.879-2.146 1.371-2.271h-8.494c.493.125.945.609 1.372 2.271z"/><path d="m72.525 17.903c-.033.585-.065 1.19-.096 1.82l-.02.451h3.38l-.02-.452c-.025-.501-.057-1.121-.097-1.819z"/><path d="m17.123 17.903c-.033.589-.066 1.192-.097 1.82l-.02.451h3.38l-.02-.452c-.025-.502-.057-1.121-.097-1.819z"/><path d="m26.356 17.903c-.033.585-.065 1.19-.096 1.82-.007.134-.014.295-.021.451h3.38l-.02-.452c-.031-.628-.063-1.231-.097-1.819z"/><path d="m35.59 17.903c-.033.585-.065 1.19-.096 1.82-.007.134-.014.294-.021.451h3.381c-.007-.156-.014-.317-.021-.45-.031-.629-.063-1.233-.097-1.822h-3.146z"/><path d="m86.717 20.174h2.467c.009-.21.018-.403.027-.577.028-.57.058-1.134.09-1.695h-2.7c.032.561.062 1.125.09 1.695.008.172.017.37.026.577z"/><path d="m81.76 17.903c-.033.585-.065 1.19-.096 1.82-.007.134-.014.295-.021.451h3.381c-.007-.161-.014-.314-.021-.45-.031-.629-.063-1.232-.097-1.821z"/><path d="m12.845 20.174h2.468l.025-.576c.028-.57.059-1.135.09-1.696h-2.7c.031.561.062 1.125.09 1.695.009.173.018.368.027.577z"/><path d="m40.042 34.123h-5.759c-.371 1.555-.825 2.129-1.4 2.271h8.562c-.577-.142-1.032-.716-1.403-2.271z"/><path d="m30.809 34.123h-5.758c-.371 1.555-.826 2.129-1.402 2.271h8.561c-.576-.142-1.03-.716-1.401-2.271z"/><path d="m49.276 34.123h-5.757c-.371 1.555-.826 2.129-1.402 2.271h8.561c-.576-.142-1.031-.716-1.402-2.271z"/><path d="m58.51 34.123h-5.757c-.371 1.555-.826 2.129-1.402 2.271h8.56c-.575-.142-1.03-.716-1.401-2.271z"/><path d="m21.575 34.123h-5.757c-.371 1.555-.826 2.129-1.402 2.271h8.561c-.577-.142-1.031-.716-1.402-2.271z"/><path d="m6.105 19.598c.028-.57.059-1.135.09-1.695h-2.311v2.271h2.194c.009-.207.018-.405.027-.576z"/><path d="m3.884 36.394h.718c-.271-.055-.511-.203-.718-.444z"/><path d="m12.34 34.123h-5.758c-.371 1.555-.825 2.129-1.401 2.271h8.561c-.576-.142-1.03-.716-1.402-2.271z"/><path d="m76.978 34.123h-5.759c-.371 1.555-.825 2.129-1.4 2.271h8.561c-.576-.142-1.031-.716-1.402-2.271z"/><path d="m67.744 34.123h-5.758c-.371 1.555-.826 2.129-1.402 2.271h8.562c-.576-.142-1.03-.716-1.402-2.271z"/><path d="m93.385 1.682v1.735h-.585c-.057.098-.129.272-.209.536h3.159v-2.271z"/><path d="m90.897 19.723-.02.451h4.872v-2.271h-4.756c-.032.586-.065 1.189-.096 1.82z"/><path d="m20.437 3.954h5.751c.427-1.662.879-2.146 1.371-2.271h-8.493c.493.125.944.609 1.371 2.271z"/><path d="m29.671 3.954h5.752c.427-1.662.878-2.146 1.371-2.271h-8.494c.492.125.944.609 1.371 2.271z"/><path d="m11.203 3.954h5.751c.427-1.662.879-2.146 1.371-2.271h-8.493c.492.125.944.609 1.371 2.271z"/><path d="m88.287 36.394h7.463v-2.271h-6.063c-.371 1.555-.825 2.129-1.4 2.271z"/><path d="m86.211 34.123h-5.756c-.371 1.555-.826 2.129-1.402 2.271h8.561c-.577-.142-1.031-.716-1.403-2.271z"/><path d="m9.091 1.682h-5.207v2.271h3.836c.427-1.661.879-2.145 1.371-2.271z"/></g><path d="m95.75 3.954v-2.272h-2.365v-.04h-.817c-.126 0-.249.01-.37.04h-8.494c-.121-.031-.244-.04-.37-.04s-.249.01-.37.04h-8.493c-.121-.031-.244-.04-.37-.04s-.249.01-.37.04h-8.493c-.121-.031-.244-.04-.37-.04s-.25.01-.37.04h-8.494c-.121-.031-.244-.04-.37-.04s-.249.01-.37.04h-8.493c-.121-.031-.244-.04-.37-.04s-.249.01-.37.04h-8.494c-.121-.031-.244-.04-.37-.04s-.249.01-.37.04h-8.497c-.121-.031-.244-.04-.37-.04s-.249.01-.37.04h-8.493c-.121-.031-.244-.04-.37-.04s-.25.01-.37.04h-8.495c-.121-.031-.244-.04-.37-.04s-.249.01-.37.04h-5.208v2.271h3.836c-.314 1.223-.615 3.082-.91 5.911-.234 2.254-.448 5.061-.616 8.037h-2.31v2.271h2.194c-.012.279-.025.58-.039.917-.094 2.23-.237 5.602-.517 8.521-.238 2.48-.499 3.777-.692 4.448l-1.377-3.186v4.284l.065.224c.106.233.232.413.366.569v.444h.718c.08.016.157.04.243.04.117 0 .228-.013.336-.04h8.561c.108.027.22.04.336.04.117 0 .228-.013.336-.04h8.561c.108.027.22.04.336.04.117 0 .228-.013.336-.04h8.561c.108.027.219.04.336.04s.228-.013.336-.04h8.562c.108.027.22.04.337.04s.228-.013.336-.04h8.561c.108.027.22.04.337.04s.228-.013.336-.04h8.56c.108.027.22.04.336.04s.229-.013.337-.04h8.562c.108.027.219.04.336.04s.228-.013.336-.04h8.561c.108.027.22.04.336.04.117 0 .229-.013.336-.04h8.561c.108.027.22.04.337.04s.228-.013.336-.04h7.463v-2.271h-6.063c.501-2.098.851-5.981 1.148-12.994l.042-.955h4.872v-2.271h-4.756c.49-8.721 1.178-12.575 1.597-13.949h3.164z" fill="none"/><path d="m92.567 1.642c-.126 0-.249.01-.37.04-.492.125-.944.61-1.371 2.271-.314 1.223-.616 3.082-.91 5.911-.234 2.258-.448 5.065-.615 8.037-.032.561-.062 1.125-.09 1.695-.009.173-.018.367-.027.577-.009.204-.019.423-.029.658l-.011.26c-.095 2.235-.237 5.613-.516 8.519-.232 2.421-.486 3.715-.677 4.399-.192-.685-.446-1.978-.679-4.399-.279-2.906-.422-6.284-.518-8.571-.013-.316-.026-.601-.038-.865-.009-.207-.018-.405-.026-.576-.028-.57-.059-1.135-.09-1.695-.167-2.976-.382-5.783-.616-8.038-.294-2.829-.595-4.688-.91-5.911-.427-1.662-.879-2.146-1.372-2.271-.121-.031-.244-.04-.37-.04s-.249.01-.37.04c-.492.125-.944.61-1.371 2.271-.314 1.223-.615 3.082-.909 5.911-.234 2.263-.448 5.069-.616 8.037-.032.561-.062 1.126-.09 1.696l-.025.576-.043.973c-.095 2.224-.238 5.585-.514 8.465-.232 2.419-.486 3.712-.677 4.396-.192-.685-.446-1.979-.678-4.398-.278-2.89-.421-6.253-.517-8.521l-.017-.411c-.007-.179-.015-.344-.022-.504-.009-.209-.018-.404-.026-.576-.028-.57-.059-1.135-.09-1.695-.168-2.983-.382-5.791-.616-8.038-.294-2.829-.595-4.688-.909-5.911-.427-1.662-.879-2.146-1.371-2.271-.121-.031-.244-.04-.37-.04s-.249.01-.37.04c-.493.125-.944.61-1.371 2.271-.314 1.223-.615 3.082-.909 5.911-.234 2.247-.448 5.055-.616 8.038-.032.56-.062 1.125-.09 1.695-.008.171-.017.37-.026.576-.012.279-.025.58-.039.917-.095 2.235-.238 5.613-.517 8.521-.232 2.42-.486 3.713-.678 4.397-.192-.685-.445-1.978-.678-4.397-.279-2.909-.422-6.287-.517-8.522l-.04-.915-.025-.576c-.028-.57-.059-1.135-.09-1.695-.168-2.976-.382-5.783-.616-8.038-.295-2.829-.596-4.688-.91-5.911-.427-1.662-.878-2.146-1.371-2.271-.121-.031-.244-.04-.37-.04s-.25.01-.37.04c-.493.125-.944.61-1.371 2.271-.314 1.223-.615 3.082-.909 5.911-.235 2.257-.449 5.064-.617 8.038-.032.561-.062 1.126-.09 1.696l-.025.575-.04.917c-.094 2.23-.237 5.601-.516 8.521-.232 2.422-.487 3.715-.678 4.398-.192-.685-.446-1.978-.678-4.397-.28-2.908-.422-6.287-.52-8.586-.013-.311-.025-.592-.037-.852-.009-.207-.018-.405-.026-.576-.028-.57-.058-1.134-.09-1.695-.167-2.967-.381-5.774-.616-8.038-.294-2.829-.595-4.688-.909-5.911-.427-1.662-.879-2.146-1.371-2.271-.121-.031-.244-.04-.37-.04s-.249.01-.37.04c-.492.125-.944.61-1.371 2.271-.314 1.223-.615 3.082-.909 5.911-.235 2.263-.449 5.07-.616 8.038-.032.561-.062 1.125-.09 1.695-.008.171-.017.364-.026.576-.012.268-.024.569-.039.918-.095 2.235-.237 5.613-.517 8.519-.232 2.421-.486 3.714-.677 4.398-.192-.685-.446-1.978-.678-4.397-.281-2.921-.423-6.292-.517-8.522l-.04-.915-.025-.576c-.028-.57-.058-1.134-.09-1.695-.167-2.966-.381-5.773-.616-8.038-.294-2.829-.595-4.688-.909-5.911-.427-1.662-.879-2.146-1.371-2.271-.121-.031-.244-.04-.37-.04s-.249.01-.37.04c-.492.125-.944.61-1.371 2.271-.314 1.223-.615 3.082-.909 5.911-.235 2.265-.449 5.072-.616 8.037-.032.561-.062 1.125-.09 1.695l-.026.576-.041.919c-.095 2.236-.237 5.615-.516 8.519-.232 2.419-.486 3.712-.677 4.397-.192-.685-.446-1.979-.679-4.398-.279-2.908-.422-6.286-.519-8.575-.013-.314-.025-.598-.036-.861-.009-.207-.018-.405-.026-.576-.028-.57-.059-1.134-.09-1.695-.168-2.972-.382-5.78-.616-8.038-.294-2.829-.595-4.688-.91-5.911-.427-1.662-.879-2.146-1.372-2.271-.121-.031-.244-.04-.37-.04s-.249.01-.37.04c-.492.125-.943.61-1.371 2.271-.314 1.223-.616 3.082-.91 5.911-.234 2.26-.448 5.067-.616 8.037-.032.561-.062 1.126-.09 1.696l-.025.575-.048.944c-.095 2.23-.238 5.6-.515 8.492-.233 2.421-.487 3.714-.678 4.397-.192-.685-.446-1.978-.678-4.397-.275-2.871-.419-6.225-.517-8.522-.014-.336-.027-.636-.039-.915-.009-.207-.018-.406-.026-.576-.028-.57-.059-1.135-.09-1.695-.168-2.983-.382-5.79-.616-8.038-.294-2.829-.595-4.688-.909-5.911-.427-1.662-.878-2.146-1.371-2.271-.121-.031-.244-.04-.37-.04s-.249.01-.37.04c-.492.125-.944.61-1.371 2.271-.314 1.223-.615 3.082-.91 5.911-.235 2.259-.449 5.066-.616 8.038-.032.561-.062 1.125-.09 1.695-.008.171-.017.37-.026.576-.012.279-.025.58-.04.917-.087 2.086-.233 5.578-.516 8.521-.232 2.421-.486 3.714-.678 4.398-.192-.685-.446-1.978-.679-4.398-.28-2.921-.422-6.292-.516-8.523l-.04-.915-.025-.576c-.028-.57-.059-1.135-.09-1.695-.168-2.976-.382-5.783-.616-8.038-.294-2.829-.595-4.688-.91-5.911-.427-1.662-.879-2.146-1.371-2.271-.121-.031-.244-.04-.37-.04s-.25.01-.37.04c-.493.125-.944.61-1.371 2.271-.314 1.223-.615 3.082-.909 5.911-.235 2.259-.449 5.066-.617 8.038-.032.561-.062 1.125-.09 1.696l-.025.576-.04.915c-.095 2.235-.237 5.613-.516 8.521-.232 2.421-.486 3.715-.678 4.399-.192-.685-.446-1.978-.678-4.398-.279-2.906-.422-6.285-.516-8.523l-.008-.182c-.011-.263-.022-.507-.032-.732-.009-.21-.018-.404-.027-.576-.028-.57-.058-1.134-.09-1.695-.167-2.972-.381-5.779-.615-8.038-.295-2.829-.596-4.688-.91-5.911-.427-1.662-.879-2.146-1.371-2.271-.121-.031-.244-.04-.37-.04s-.249.01-.37.04c-.495.123-.947.607-1.374 2.269-.314 1.223-.615 3.082-.91 5.911-.234 2.254-.448 5.061-.616 8.037-.032.561-.062 1.125-.09 1.695-.008.171-.017.37-.026.576-.012.279-.025.58-.039.917-.094 2.23-.237 5.602-.517 8.521-.238 2.48-.499 3.777-.692 4.448l-1.377-3.186v4.284l.065.224c.106.233.232.413.366.569.207.241.447.388.718.444.08.016.157.04.243.04.117 0 .228-.013.336-.04.575-.143 1.029-.716 1.401-2.271.501-2.098.852-5.981 1.148-12.995.015-.355.029-.666.042-.954.007-.157.014-.317.021-.451.031-.63.063-1.235.096-1.82.476-8.48 1.14-12.359 1.568-13.835.248.83.61 2.545.976 6.056.282 2.713.479 5.631.602 7.778.04.699.072 1.318.097 1.819l.02.452.045 1.023c.294 6.969.644 10.834 1.143 12.926.371 1.555.826 2.129 1.402 2.271.108.027.22.04.336.04.117 0 .228-.013.336-.04.576-.143 1.031-.717 1.402-2.271.499-2.092.849-5.956 1.143-12.925l.046-1.023.02-.451c.031-.628.063-1.231.097-1.82.443-7.823 1.095-12.183 1.568-13.835.248.829.61 2.544.975 6.056.282 2.701.479 5.625.603 7.778.04.698.073 1.318.097 1.819l.02.452.045 1.027c.295 6.967.645 10.83 1.144 12.921.371 1.555.826 2.129 1.402 2.271.108.027.22.04.336.04.117 0 .228-.013.336-.04.576-.143 1.031-.717 1.402-2.271.5-2.092.849-5.957 1.144-12.926.016-.383.03-.716.044-1.023.007-.156.014-.318.021-.451.031-.63.063-1.235.096-1.82.479-8.519 1.147-12.393 1.574-13.854.473 1.637 1.129 6.001 1.573 13.854.033.588.066 1.191.097 1.819l.02.452.045 1.029c.295 6.966.645 10.829 1.144 12.92.371 1.555.825 2.129 1.401 2.271.108.027.219.04.336.04s.228-.013.336-.04c.575-.143 1.029-.716 1.4-2.271.501-2.098.852-5.978 1.148-12.988.015-.358.029-.671.042-.961.007-.157.014-.317.021-.451.031-.63.063-1.235.096-1.82.478-8.518 1.146-12.393 1.573-13.854.473 1.637 1.129 6 1.573 13.854.033.589.066 1.193.097 1.822.007.133.014.294.021.45.014.307.029.639.044 1.023.294 6.969.644 10.834 1.143 12.926.371 1.555.826 2.129 1.402 2.271.108.027.22.04.337.04s.228-.013.336-.04c.576-.143 1.03-.717 1.402-2.271.499-2.092.849-5.956 1.143-12.925l.046-1.023.02-.451c.031-.63.063-1.235.096-1.82.478-8.519 1.146-12.394 1.574-13.855.473 1.637 1.129 6 1.573 13.855.033.589.066 1.192.096 1.821.007.136.014.289.021.451.013.292.028.625.044 1.023.294 6.969.644 10.834 1.143 12.926.371 1.555.826 2.129 1.402 2.271.108.027.22.04.337.04s.228-.013.336-.04c.576-.143 1.03-.717 1.402-2.271.499-2.092.849-5.957 1.144-12.926l.007-.171c.013-.314.026-.592.037-.852.007-.158.014-.316.021-.451.031-.63.063-1.235.096-1.82.476-8.481 1.14-12.359 1.568-13.835.248.83.61 2.545.976 6.057.283 2.723.48 5.637.602 7.778.04.7.072 1.319.097 1.82.007.135.014.293.021.452.011.255.023.529.036.839l.009.184c.294 6.969.644 10.834 1.143 12.926.371 1.555.826 2.129 1.402 2.271.108.027.22.04.336.04s.229-.013.337-.04c.576-.143 1.031-.717 1.402-2.271.5-2.092.849-5.956 1.143-12.925l.008-.192c.013-.306.025-.578.036-.831.007-.159.014-.316.021-.451.031-.63.063-1.235.096-1.82.478-8.518 1.146-12.393 1.573-13.854.473 1.637 1.129 6.001 1.573 13.854.033.589.066 1.192.097 1.82.007.134.014.295.021.451.014.307.028.641.044 1.027.295 6.967.645 10.831 1.144 12.922.371 1.555.826 2.129 1.402 2.271.108.027.219.04.336.04s.228-.013.336-.04c.575-.143 1.029-.716 1.4-2.271.501-2.098.852-5.981 1.148-12.995l.042-.954.02-.451c.031-.63.063-1.235.096-1.82.477-8.481 1.141-12.359 1.568-13.835.248.83.61 2.545.976 6.057.281 2.707.479 5.628.602 7.778.04.698.073 1.318.097 1.819l.02.452.045 1.023c.294 6.969.644 10.834 1.143 12.926.371 1.555.826 2.129 1.402 2.271.108.027.22.04.336.04.117 0 .229-.013.336-.04.576-.143 1.031-.717 1.402-2.271.5-2.092.849-5.957 1.144-12.926.016-.383.03-.716.044-1.023.007-.156.014-.318.021-.451.031-.63.063-1.235.096-1.82.478-8.517 1.146-12.392 1.574-13.854.473 1.637 1.128 6 1.573 13.854.033.589.066 1.193.097 1.821.007.137.014.29.021.45.009.196.018.406.027.635l.017.388c.294 6.969.643 10.834 1.143 12.926.371 1.555.826 2.129 1.403 2.271.108.027.22.04.337.04s.228-.013.336-.04c.575-.143 1.029-.716 1.4-2.271.501-2.098.851-5.981 1.148-12.994l.042-.955.02-.451c.031-.631.063-1.234.096-1.82.49-8.721 1.178-12.575 1.597-13.949.081-.265.152-.438.209-.536h.584v-1.739-.04z" fill="#4bbab5"/></svg>