<svg enable-background="new 0 0 100 37.984" height="37.984" viewBox="0 0 100 37.984" width="100" xmlns="http://www.w3.org/2000/svg"><path d="m14.725 9.534c1.204 2.335 2.302 5.244 3.151 8.319h19.93c.849-3.075 1.946-5.984 3.15-8.319 1.263-2.448 2.653-4.33 4.156-5.654h-34.537c1.502 1.324 2.889 3.211 4.15 5.654z" fill="none"/><path d="m60.652 9.534c1.204 2.334 2.302 5.243 3.151 8.318h19.93c.849-3.075 1.946-5.984 3.15-8.319 1.263-2.448 2.653-4.33 4.156-5.654h-34.542c1.503 1.325 2.892 3.207 4.155 5.655z" fill="none"/><path d="m71.29 34.104h4.956c4.404-2.037 5.947-9.368 6.747-13.179.058-.275.114-.543.168-.794h-18.788c.051.237.105.491.162.766.806 3.836 2.35 11.17 6.755 13.207z" fill="none"/><path d="m25.362 34.104h4.956c4.405-2.037 5.948-9.368 6.748-13.179.058-.275.114-.543.168-.794h-18.789c.051.237.105.491.162.766.806 3.836 2.35 11.17 6.755 13.207z" fill="none"/><path d="m53.262 3.88h-4.913c-4.605 2.077-7.376 9.651-8.616 13.972h22.143c-1.239-4.322-4.008-11.895-8.614-13.972z" fill="none"/><path d="m62.717 21.277c-.092-.439-.172-.812-.248-1.145h-23.331c-.074.327-.153.692-.242 1.12-.728 3.468-2.006 9.539-5.424 12.853h34.665c-3.417-3.312-4.695-9.377-5.42-12.828z" fill="none"/><g fill="#004d71"><path d="m94.276 3.88h2.846v-.54h-.39c-.87 0-1.688.194-2.456.54z"/><path d="m71.29 34.104c.742.343 1.563.541 2.478.541s1.736-.198 2.478-.541z"/><path d="m85.137 19.817c-.023.093-.048.21-.072.314h12.056v-2.279h-11.461c-.222.776-.397 1.45-.523 1.965z"/><path d="m25.362 34.104c.742.343 1.563.541 2.478.541s1.736-.198 2.478-.541z"/><path d="m4.366 34.104v2.279h22.663c-1.963-.185-3.541-1.039-4.821-2.279z"/><path d="m18.445 20.132h18.789c.057-.261.111-.505.164-.72.128-.524.265-1.043.408-1.56h-19.93c.143.516.28 1.036.408 1.56.05.213.104.456.161.72z"/><path d="m74.58 36.384h22.542v-2.279h-17.722c-1.279 1.239-2.857 2.094-4.82 2.279z"/><path d="m45.112 3.88c1.522-1.341 3.162-2.106 4.912-2.279h-44.35c1.745.177 3.382.941 4.9 2.279z"/><path d="m91.04 3.88c1.522-1.341 3.162-2.106 4.912-2.279h-44.368c1.75.173 3.39.939 4.913 2.279z"/><path d="m33.472 34.104c-1.279 1.24-2.857 2.094-4.82 2.279h44.306c-1.963-.185-3.542-1.039-4.821-2.279z"/><path d="m64.373 20.132h18.789c.057-.261.111-.505.164-.72.128-.524.265-1.043.408-1.56h-19.93c.143.516.28 1.036.408 1.56.05.213.104.456.161.72z"/><path d="m4.986 3.343-.62.007v.53h2.952c-.731-.328-1.507-.522-2.332-.537z"/><path d="m16.47 19.819c-.125-.515-.3-1.189-.523-1.966h-11.581v2.279h12.176c-.024-.104-.049-.221-.072-.313z"/><path d="m53.262 3.88c-.768-.346-1.586-.541-2.457-.541s-1.689.194-2.456.541z"/><path d="m39.733 17.853c-.223.776-.397 1.45-.523 1.965-.023.093-.048.21-.072.314h23.332c-.024-.104-.049-.221-.071-.313-.125-.516-.3-1.19-.522-1.966z"/></g><path d="m95.952 1.601c-1.75.173-3.39.939-4.912 2.279-1.503 1.324-2.893 3.206-4.156 5.654-1.204 2.334-2.302 5.243-3.15 8.319-.143.516-.28 1.036-.408 1.56-.052.214-.107.458-.164.72-.054.251-.111.518-.168.794-.8 3.811-2.343 11.142-6.747 13.179-.742.343-1.563.541-2.478.541s-1.736-.198-2.478-.541c-4.405-2.037-5.949-9.372-6.755-13.206-.057-.275-.111-.529-.162-.766-.057-.264-.111-.507-.163-.719-.128-.524-.265-1.044-.408-1.56-.849-3.075-1.946-5.984-3.151-8.318-1.263-2.451-2.652-4.333-4.155-5.657-1.522-1.341-3.162-2.106-4.913-2.279-.258-.026-.518-.041-.78-.041-.263 0-.522.016-.78.041-1.75.173-3.39.939-4.912 2.279-1.503 1.324-2.893 3.206-4.156 5.654-1.204 2.334-2.302 5.243-3.15 8.319-.143.516-.28 1.036-.408 1.56-.052.214-.107.458-.164.72-.054.251-.111.518-.168.794-.8 3.811-2.343 11.142-6.748 13.179-.742.343-1.563.541-2.478.541s-1.736-.198-2.478-.541c-4.405-2.037-5.949-9.372-6.754-13.206-.057-.275-.111-.529-.162-.766-.057-.264-.111-.507-.163-.719-.128-.524-.265-1.044-.408-1.56-.849-3.075-1.946-5.984-3.151-8.319-1.261-2.443-2.648-4.33-4.15-5.654-1.519-1.339-3.155-2.102-4.9-2.279-.001-.002-.003-.003-.005-.003v-.04l-1.705.018v1.777l.402-.005.62-.007c.825.016 1.601.21 2.332.537 4.615 2.069 7.39 9.65 8.629 13.972.223.777.398 1.451.523 1.966.023.092.048.209.072.313.076.333.156.706.248 1.147.725 3.45 2.002 9.514 5.418 12.826 1.279 1.24 2.857 2.094 4.821 2.279.264.025.533.041.811.041s.547-.016.811-.041c1.963-.185 3.541-1.039 4.82-2.279 3.418-3.314 4.696-9.385 5.424-12.853.09-.428.168-.792.242-1.12.024-.105.049-.222.072-.314.126-.515.3-1.189.523-1.965 1.24-4.322 4.011-11.896 8.616-13.972.767-.346 1.585-.541 2.456-.541s1.69.194 2.457.541c4.607 2.077 7.375 9.65 8.614 13.972.222.776.397 1.45.522 1.966.023.092.048.209.071.313.076.333.156.706.248 1.145.725 3.451 2.003 9.516 5.419 12.827 1.279 1.24 2.857 2.094 4.821 2.279.264.025.533.041.811.041s.547-.016.811-.041c1.963-.185 3.541-1.039 4.82-2.279 3.418-3.314 4.696-9.385 5.423-12.852.09-.428.168-.793.243-1.12.024-.105.049-.222.072-.314.126-.515.3-1.189.523-1.965 1.24-4.322 4.011-11.896 8.616-13.972.767-.346 1.585-.541 2.456-.541h.39.402v-1.779h-.793c-.26 0-.52.015-.778.041z" fill="#4bbab5"/></svg>