<svg enable-background="new 0 0 100 37.984" height="37.984" viewBox="0 0 100 37.984" width="100" xmlns="http://www.w3.org/2000/svg"><path d="m20.65 20.915.012.094c.406 3.213 1.392 10.998 3.883 13.108h2.665c2.491-2.11 3.476-9.894 3.881-13.106.039-.309.075-.593.11-.854h-10.648c.03.233.063.486.097.758z" fill="none"/><path d="m18.337 9.692c.714 2.299 1.365 5.16 1.87 8.187h11.34c.506-3.027 1.156-5.888 1.869-8.187.784-2.522 1.645-4.437 2.595-5.773h-20.268c.949 1.337 1.81 3.251 2.594 5.773z" fill="none"/><path d="m45.95 9.692c.713 2.3 1.364 5.161 1.869 8.187h11.34c.506-3.027 1.157-5.888 1.87-8.186.784-2.523 1.645-4.437 2.594-5.773h-20.267c.949 1.336 1.811 3.25 2.594 5.772z" fill="none"/><path d="m13.356 3.919h-2.57c-1.1.905-2.19 2.936-3.16 5.946-.891 2.763-1.508 5.783-1.892 8.014h12.673c-1.23-7.288-3.092-12.372-5.051-13.96z" fill="none"/><path d="m48.275 21.008c.405 3.212 1.39 10.997 3.882 13.108h2.665c2.491-2.11 3.476-9.892 3.882-13.103.039-.311.075-.595.109-.857h-10.647c.034.261.07.544.109.852z" fill="none"/><path d="m40.969 3.919h-2.57c-1.1.905-2.19 2.936-3.161 5.946-.89 2.759-1.507 5.781-1.891 8.014h12.674c-1.231-7.288-3.093-12.372-5.052-13.96z" fill="none"/><path d="m75.886 21.004c.406 3.213 1.393 11.001 3.884 13.112h2.664c2.491-2.11 3.476-9.894 3.882-13.106.04-.313.076-.596.11-.854h-10.648c.034.26.07.542.108.848z" fill="none"/><path d="m68.581 3.919h-2.57c-1.1.905-2.19 2.936-3.16 5.946-.891 2.763-1.508 5.783-1.892 8.014h12.674c-1.231-7.288-3.093-12.372-5.052-13.96z" fill="none"/><path d="m46.514 21.239c-.052-.413-.098-.763-.141-1.083h-13.38c-.043.319-.088.667-.139 1.073-.469 3.708-1.22 9.637-3.346 12.887h20.35c-2.126-3.248-2.876-9.174-3.344-12.877z" fill="none"/><path d="m74.127 21.241c-.054-.428-.099-.781-.14-1.085h-13.381c-.043.318-.088.666-.139 1.07-.468 3.707-1.219 9.639-3.346 12.89h20.35c-2.125-3.248-2.876-9.172-3.344-12.875z" fill="none"/><path d="m73.563 9.692c.713 2.3 1.363 5.161 1.869 8.187h11.34c.506-3.028 1.156-5.89 1.87-8.187.783-2.522 1.645-4.437 2.594-5.773h-20.268c.95 1.337 1.811 3.251 2.595 5.773z" fill="none"/><g fill="#004d71"><path d="m22.246 34.116h-18.373v2.277h21.477c-1.278-.183-2.291-1.034-3.104-2.277z"/><path d="m70.968 3.919h20.268c.957-1.348 2.005-2.105 3.155-2.277h-26.578c1.15.172 2.198.929 3.155 2.277z"/><path d="m93.625 3.919h1.669v-.54h-.385c-.425 0-.856.188-1.284.54z"/><path d="m73.933 19.774c-.095-.647-.195-1.278-.299-1.895h-12.674c-.125.727-.225 1.37-.302 1.893-.016.114-.035.254-.052.384h13.381c-.019-.136-.037-.265-.054-.382z"/><path d="m18.408 17.879h-12.673c-.125.727-.225 1.37-.302 1.893-.017.115-.035.252-.053.384h13.381c-.019-.136-.036-.266-.054-.382-.095-.647-.195-1.278-.299-1.895z"/><path d="m43.356 3.919h20.267c.957-1.348 2.004-2.105 3.154-2.277h-26.576c1.151.172 2.198.929 3.155 2.277z"/><path d="m11.552 1.642h-7.68v2.277h4.525c.958-1.348 2.005-2.105 3.155-2.277z"/><path d="m77.471 34.116h-20.35c-.813 1.243-1.827 2.093-3.104 2.277h26.558c-1.277-.183-2.291-1.034-3.104-2.277z"/><path d="m15.743 3.919h20.268c.958-1.348 2.005-2.105 3.155-2.277h-26.578c1.15.172 2.197.929 3.155 2.277z"/><path d="m81.63 36.394h13.664v-2.277h-10.562c-.812 1.242-1.826 2.093-3.102 2.277z"/><path d="m49.858 34.116h-20.35c-.813 1.243-1.827 2.093-3.103 2.277h26.557c-1.277-.183-2.291-1.034-3.104-2.277z"/><path d="m75.69 19.508c.028.192.058.412.089.649h10.648c.031-.239.061-.457.089-.649.08-.547.167-1.09.257-1.628h-11.34c.089.538.176 1.08.257 1.628z"/><path d="m88.219 20.156h7.075v-2.277h-6.72c-.125.727-.226 1.37-.302 1.893-.017.114-.036.254-.053.384z"/><path d="m46.32 19.772c-.095-.647-.195-1.277-.299-1.893h-12.673c-.125.726-.225 1.37-.302 1.893-.017.114-.035.254-.053.384h13.38c-.018-.13-.036-.27-.053-.384z"/><path d="m25.877 34.657c.487 0 .929-.198 1.333-.54h-2.665c.403.341.845.54 1.332.54z"/><path d="m12.07 3.379c-.425 0-.856.187-1.284.54h2.57c-.426-.345-.856-.54-1.286-.54z"/><path d="m81.102 34.657c.487 0 .929-.198 1.332-.54h-2.664c.404.341.846.54 1.332.54z"/><path d="m48.076 19.508c.028.192.058.412.089.649h10.648c.031-.237.06-.456.089-.648.08-.547.167-1.09.257-1.629h-11.34c.09.538.177 1.08.257 1.628z"/><path d="m39.684 3.379c-.425 0-.856.187-1.284.54h2.57c-.427-.345-.857-.54-1.286-.54z"/><path d="m67.296 3.379c-.425 0-.856.187-1.284.54h2.57c-.427-.345-.857-.54-1.286-.54z"/><path d="m53.489 34.657c.487 0 .929-.198 1.332-.54h-2.665c.404.341.846.54 1.333.54z"/><path d="m3.873 17.879v.365c.02-.122.041-.243.061-.365z"/><path d="m20.464 19.508c.028.193.058.411.089.649h10.648c.031-.237.061-.456.089-.649.08-.547.167-1.09.257-1.628h-11.34c.09.538.177 1.08.257 1.628z"/></g><path d="m94.391 1.642c-1.15.172-2.197.929-3.155 2.277-.949 1.336-1.81 3.251-2.594 5.773-.714 2.297-1.365 5.158-1.87 8.187-.09.539-.177 1.081-.257 1.628-.028.192-.057.41-.089.649-.034.258-.07.541-.11.854-.406 3.212-1.391 10.995-3.882 13.106-.404.342-.846.54-1.332.54-.487 0-.928-.198-1.332-.54-2.491-2.111-3.478-9.899-3.884-13.112-.039-.306-.074-.588-.108-.848-.031-.237-.06-.456-.089-.649-.08-.547-.167-1.09-.257-1.628-.506-3.026-1.156-5.887-1.869-8.187-.784-2.522-1.646-4.437-2.595-5.773-.958-1.348-2.005-2.105-3.155-2.277-.17-.025-.343-.041-.518-.041s-.347.016-.518.041c-1.15.172-2.197.929-3.154 2.277-.949 1.336-1.811 3.251-2.594 5.773-.713 2.298-1.364 5.159-1.87 8.186-.09.539-.177 1.081-.257 1.629-.028.192-.058.411-.089.648-.034.262-.07.546-.109.857-.406 3.211-1.392 10.993-3.882 13.103-.404.342-.846.54-1.332.54-.487 0-.929-.198-1.333-.54-2.492-2.111-3.476-9.896-3.882-13.108-.039-.308-.075-.591-.109-.852-.031-.237-.061-.456-.089-.649-.08-.547-.167-1.09-.257-1.628-.505-3.026-1.156-5.887-1.869-8.187-.783-2.522-1.645-4.437-2.594-5.773-.957-1.348-2.005-2.105-3.155-2.277-.17-.025-.343-.041-.518-.041s-.347.016-.518.041c-1.15.172-2.197.929-3.155 2.277-.949 1.338-1.811 3.252-2.595 5.774-.713 2.298-1.364 5.16-1.869 8.187-.09.539-.177 1.081-.257 1.628-.028.192-.058.412-.089.649-.034.261-.071.545-.11.854-.405 3.212-1.39 10.995-3.881 13.106-.404.342-.846.54-1.333.54s-.929-.198-1.332-.54c-2.491-2.11-3.477-9.895-3.883-13.108l-.012-.094c-.034-.272-.067-.525-.097-.758-.031-.238-.061-.455-.089-.649-.08-.547-.167-1.09-.257-1.628-.506-3.027-1.156-5.888-1.87-8.187-.783-2.522-1.645-4.437-2.594-5.773-.957-1.348-2.005-2.105-3.155-2.277-.17-.025-.343-.041-.518-.041s-.347.016-.518.041c-1.15.172-2.197.929-3.155 2.277-.948 1.337-1.81 3.251-2.593 5.773-.713 2.297-1.364 5.158-1.87 8.187-.02.122-.041.243-.061.365-.068.419-.134.84-.196 1.264-.059.404-.124.913-.2 1.544l-.029 1.896 1.56.091.25-1.937c.045-.354.085-.661.123-.945.018-.132.036-.269.053-.384.077-.523.177-1.167.302-1.893.384-2.231 1.001-5.252 1.892-8.014.97-3.01 2.06-5.04 3.16-5.946.429-.353.859-.54 1.284-.54.43 0 .86.195 1.286.54 1.959 1.588 3.821 6.672 5.052 13.96.104.617.204 1.248.299 1.895.017.117.035.246.054.382.041.304.086.658.141 1.085.468 3.703 1.219 9.627 3.344 12.875.813 1.243 1.827 2.093 3.104 2.277.171.025.346.041.527.041s.356-.016.527-.041c1.277-.184 2.29-1.035 3.103-2.277 2.126-3.25 2.878-9.179 3.346-12.887.051-.405.096-.754.139-1.073.018-.13.036-.27.053-.384.077-.523.177-1.167.302-1.893.384-2.233 1.001-5.255 1.891-8.014.97-3.01 2.06-5.04 3.161-5.946.429-.353.859-.54 1.284-.54.43 0 .86.195 1.286.54 1.959 1.588 3.821 6.672 5.053 13.96.104.616.204 1.246.299 1.893.017.114.035.254.053.384.043.319.089.67.141 1.083.468 3.703 1.218 9.629 3.344 12.877.813 1.243 1.827 2.093 3.104 2.277.172.025.346.041.528.041.181 0 .356-.016.528-.041 1.277-.184 2.291-1.035 3.104-2.277 2.127-3.251 2.878-9.182 3.346-12.89.051-.405.096-.753.139-1.07.018-.13.036-.27.052-.384.077-.523.177-1.167.302-1.893.384-2.231 1.001-5.252 1.892-8.014.97-3.01 2.06-5.04 3.16-5.946.429-.353.859-.54 1.284-.54.43 0 .86.195 1.286.54 1.959 1.588 3.821 6.672 5.053 13.96.104.617.204 1.248.299 1.895.017.116.035.246.054.382.041.303.086.656.14 1.085.468 3.703 1.219 9.627 3.344 12.875.813 1.243 1.827 2.093 3.104 2.277.171.025.346.041.527.041s.356-.016.527-.041c1.276-.184 2.29-1.035 3.103-2.277 2.127-3.251 2.879-9.182 3.348-12.892.051-.403.096-.751.139-1.068.018-.13.036-.27.052-.384.077-.523.177-1.167.302-1.893.384-2.232 1.001-5.252 1.89-8.014.971-3.01 2.061-5.04 3.161-5.946.429-.353.859-.54 1.284-.54h.385.419v-1.779h-.804c-.179 0-.351.016-.522.041z" fill="#4bbab5"/></svg>