<svg enable-background="new 0 0 100 37.984" height="37.984" viewBox="0 0 100 37.984" width="100" xmlns="http://www.w3.org/2000/svg"><path d="m82.598 33.91h2.014c1.934-2.135 2.756-10.115 3.053-13.004.032-.315.061-.601.09-.866h-8.301c.027.255.056.531.086.833.302 2.921 1.125 10.902 3.058 13.037z" fill="none"/><path d="m49.201 3.907c-1.195 1.284-2.869 5.111-4.067 13.87h9.943c-1.197-8.76-2.871-12.586-4.066-13.87z" fill="none"/><path d="m71.534 3.907c-1.195 1.284-2.87 5.111-4.066 13.87h9.943c-1.197-8.76-2.871-12.586-4.066-13.87z" fill="none"/><path d="m60.265 33.91h2.015c1.933-2.135 2.755-10.114 3.053-13.003l.012-.113c.028-.274.054-.525.079-.754h-8.301c.027.255.056.531.087.833.298 2.918 1.121 10.902 3.055 13.037z" fill="none"/><path d="m79.174 17.777h8.862c.408-2.994.931-5.823 1.506-8.095.642-2.541 1.343-4.449 2.123-5.775h-16.12c.78 1.326 1.481 3.234 2.123 5.775.575 2.273 1.099 5.102 1.506 8.095z" fill="none"/><path d="m34.509 17.777h8.862c.408-2.994.932-5.823 1.506-8.095.642-2.541 1.342-4.449 2.123-5.775h-16.121c.781 1.326 1.481 3.234 2.124 5.775.574 2.273 1.098 5.102 1.506 8.095z" fill="none"/><path d="m12.545 20.906c.298 2.893 1.12 10.87 3.054 13.005h2.014c1.933-2.135 2.755-10.113 3.053-13.003.033-.323.062-.609.09-.867h-8.301c.025.238.052.497.081.776z" fill="none"/><path d="m34.879 20.901c.297 2.894 1.118 10.874 3.052 13.01h2.015c1.933-2.135 2.756-10.111 3.053-12.999.033-.326.063-.613.09-.871h-8.301c.025.239.052.497.08.776z" fill="none"/><path d="m56.841 17.777h8.862c.409-2.997.933-5.826 1.506-8.095.642-2.541 1.343-4.449 2.124-5.775h-16.121c.78 1.326 1.481 3.234 2.123 5.775.575 2.273 1.098 5.101 1.506 8.095z" fill="none"/><path d="m12.175 17.777h8.862c.408-2.994.931-5.823 1.506-8.095.643-2.541 1.343-4.449 2.124-5.775h-16.121c.78 1.326 1.481 3.234 2.123 5.775.574 2.273 1.098 5.102 1.506 8.095z" fill="none"/><path d="m33.028 20.04h-10.511c-.034.312-.07.652-.111 1.046-.404 3.924-.995 9.663-2.728 12.824h16.189c-1.733-3.161-2.324-8.896-2.727-12.808-.041-.402-.078-.747-.112-1.062z" fill="none"/><path d="m55.361 20.04h-10.511c-.035.315-.071.659-.112 1.058-.402 3.914-.992 9.651-2.726 12.812h16.188c-1.733-3.161-2.324-8.897-2.726-12.81-.042-.401-.078-.745-.113-1.06z" fill="none"/><path d="m77.694 20.04h-10.51c-.034.309-.069.646-.109 1.037-.405 3.931-.997 9.671-2.731 12.833h16.189c-1.734-3.161-2.325-8.898-2.727-12.812-.042-.412-.078-.751-.112-1.058z" fill="none"/><path d="m26.868 3.907c-1.195 1.284-2.869 5.111-4.066 13.87h9.942c-1.197-8.76-2.871-12.587-4.066-13.87z" fill="none"/><g fill="#004d71"><path d="m8.546 3.907h16.121c.794-1.349 1.671-2.093 2.658-2.263h-21.437c.986.169 1.864.914 2.658 2.263z"/><path d="m10.65 19.64c-.077-.647-.157-1.263-.239-1.862h-6.964v2.263h7.248c-.015-.138-.03-.283-.045-.401z"/><path d="m5.44 3.37h-.807v-1.726h-1.186v2.263h2.898c-.352-.377-.661-.537-.905-.537z"/><path d="m75.545 3.907h16.121c.794-1.349 1.671-2.093 2.658-2.263h-21.437c.987.169 1.864.914 2.658 2.263z"/><path d="m30.879 3.907h16.121c.794-1.349 1.671-2.093 2.658-2.263h-21.437c.986.169 1.864.914 2.658 2.263z"/><path d="m39.946 33.91h-2.015c.307.339.642.536 1.008.536.366.001.7-.196 1.007-.536z"/><path d="m79.455 20.04h8.301c.024-.227.048-.44.07-.625.066-.55.137-1.095.211-1.637h-8.862c.074.542.145 1.087.211 1.638.021.185.044.396.069.624z"/><path d="m53.212 3.907h16.121c.794-1.349 1.671-2.093 2.658-2.263h-21.437c.986.169 1.864.914 2.658 2.263z"/><path d="m34.789 20.04h8.301c.025-.232.048-.441.07-.625.066-.55.137-1.095.211-1.637h-8.862c.074.542.145 1.087.211 1.638.021.186.044.396.069.624z"/><path d="m93.867 3.907h1.291v-.537h-.386c-.244 0-.554.16-.905.537z"/><path d="m49.201 3.907h1.81c-.352-.377-.661-.537-.905-.537s-.554.16-.905.537z"/><path d="m57.122 20.04h8.301c.025-.231.047-.439.069-.625.066-.551.137-1.096.211-1.638h-8.862c.074.542.145 1.087.211 1.638.022.186.045.397.07.625z"/><path d="m89.562 19.639c-.015.12-.03.262-.045.401h5.641v-2.263h-5.357c-.082.6-.162 1.216-.239 1.862z"/><path d="m62.279 33.91h-2.015c.307.339.642.536 1.007.536.367.001.701-.196 1.008-.536z"/><path d="m84.054 36.173h11.103v-2.263h-8.48c-.679 1.24-1.534 2.081-2.623 2.263z"/><path d="m58.2 33.91h-16.188c-.679 1.239-1.535 2.081-2.623 2.263h21.434c-1.088-.182-1.944-1.023-2.623-2.263z"/><path d="m71.534 3.907h1.81c-.351-.377-.661-.537-.905-.537s-.554.16-.905.537z"/><path d="m35.867 33.91h-16.189c-.679 1.239-1.534 2.081-2.622 2.263h21.434c-1.088-.182-1.943-1.024-2.623-2.263z"/><path d="m80.533 33.91h-16.189c-.679 1.239-1.535 2.081-2.622 2.263h21.435c-1.089-.182-1.944-1.023-2.624-2.263z"/><path d="m13.534 33.91h-10.087v2.263h12.71c-1.088-.182-1.943-1.024-2.623-2.263z"/><path d="m12.456 20.04h8.301c.025-.231.048-.44.07-.625.066-.55.137-1.095.211-1.637h-8.862c.074.542.145 1.087.211 1.638.021.186.044.396.069.624z"/><path d="m22.802 17.777c-.082.599-.162 1.216-.239 1.862-.014.119-.03.264-.045.401h10.511c-.015-.137-.03-.282-.045-.401-.077-.646-.157-1.263-.239-1.862z"/><path d="m17.614 33.91h-2.014c.307.339.642.536 1.007.536.365.001.699-.196 1.007-.536z"/><path d="m26.868 3.907h1.81c-.352-.377-.661-.537-.905-.537s-.554.16-.905.537z"/><path d="m67.468 17.777c-.082.599-.162 1.216-.239 1.862-.014.119-.03.264-.045.401h10.511c-.015-.137-.03-.282-.045-.4-.077-.647-.157-1.263-.239-1.862z"/><path d="m84.613 33.91h-2.014c.307.339.641.536 1.007.536.365.001.699-.196 1.007-.536z"/><path d="m45.134 17.777c-.082.599-.162 1.216-.239 1.862-.014.119-.03.264-.045.401h10.511c-.015-.137-.031-.282-.045-.401-.077-.646-.157-1.262-.239-1.862z"/></g><path d="m94.324 1.644h-21.437c-.147-.025-.296-.041-.448-.041s-.301.016-.448.041h-21.437c-.147-.025-.296-.041-.448-.041s-.301.016-.448.041h-21.437c-.147-.025-.296-.041-.448-.041s-.301.016-.448.041h-21.437c-.147-.025-.296-.041-.448-.041h-.807v.041h-1.186v2.263h2.898c1.195 1.284 2.87 5.111 4.066 13.87h-6.964v2.263h7.248c.035.315.071.66.112 1.062.403 3.913.994 9.647 2.727 12.808h-10.087v2.263h12.71c.146.024.295.041.449.041s.303-.016.449-.041h21.435c.146.024.295.041.449.041s.303-.016.449-.041h21.434c.146.024.295.041.449.041s.303-.016.449-.041h21.435c.146.024.295.041.449.041s.303-.016.449-.041h11.103v-2.263h-8.48c1.733-3.161 2.325-8.897 2.727-12.812l.016-.16c.034-.334.065-.627.095-.898h5.641v-2.263h-5.357c1.196-8.76 2.871-12.587 4.066-13.87h1.291v-.537h.421v-1.767h-.807c-.149 0-.298.016-.445.041z" fill="none"/><path d="m94.324 1.644c-.987.169-1.864.913-2.658 2.263-.78 1.326-1.481 3.234-2.123 5.775-.575 2.272-1.098 5.101-1.506 8.095-.074.542-.145 1.087-.211 1.637-.022.186-.046.398-.07.625-.028.265-.058.551-.09.866-.297 2.89-1.119 10.869-3.053 13.004-.307.339-.642.536-1.007.536-.366 0-.7-.197-1.007-.536-1.933-2.135-2.756-10.116-3.058-13.038-.031-.302-.059-.578-.086-.833-.024-.228-.047-.439-.069-.625-.066-.55-.137-1.096-.211-1.638-.408-2.993-.932-5.822-1.506-8.095-.642-2.541-1.343-4.449-2.123-5.775-.794-1.349-1.671-2.093-2.658-2.263-.147-.025-.296-.041-.448-.041s-.301.016-.448.041c-.987.169-1.864.913-2.658 2.263-.78 1.326-1.481 3.234-2.124 5.775-.573 2.269-1.097 5.098-1.506 8.095-.074.542-.145 1.087-.211 1.638-.022.186-.045.395-.069.625-.024.229-.05.481-.079.754l-.012.113c-.297 2.89-1.119 10.868-3.053 13.003-.307.339-.641.536-1.007.536s-.7-.197-1.007-.536c-1.934-2.136-2.757-10.119-3.057-13.038-.031-.302-.059-.578-.087-.833-.024-.228-.048-.439-.07-.625-.066-.55-.137-1.096-.211-1.638-.408-2.994-.932-5.823-1.506-8.095-.642-2.541-1.343-4.449-2.123-5.775-.794-1.349-1.671-2.093-2.658-2.263-.147-.025-.296-.041-.448-.041s-.301.016-.448.041c-.987.172-1.864.917-2.658 2.266-.78 1.326-1.481 3.234-2.123 5.775-.574 2.272-1.098 5.101-1.506 8.095-.074.542-.145 1.087-.211 1.637-.022.185-.045.394-.07.625-.028.258-.057.545-.09.871-.297 2.889-1.12 10.865-3.053 12.999-.307.339-.641.536-1.007.536s-.701-.197-1.008-.536c-1.935-2.135-2.755-10.116-3.052-13.01l-.01-.085c-.028-.279-.055-.538-.08-.776-.024-.228-.047-.438-.069-.625-.066-.55-.137-1.096-.211-1.638-.408-2.993-.932-5.822-1.506-8.095-.643-2.541-1.343-4.449-2.124-5.775-.794-1.349-1.671-2.093-2.658-2.263-.147-.025-.296-.041-.448-.041s-.301.016-.448.041c-.986.169-1.864.913-2.658 2.263-.78 1.326-1.481 3.234-2.124 5.775-.575 2.272-1.098 5.101-1.506 8.095-.074.542-.145 1.087-.211 1.637-.022.185-.045.394-.07.625-.028.258-.057.545-.09.867-.298 2.89-1.12 10.868-3.053 13.003-.307.339-.641.536-1.007.536s-.7-.197-1.007-.536c-1.933-2.135-2.756-10.112-3.054-13.005l-.009-.09c-.029-.279-.055-.538-.081-.776-.024-.228-.048-.438-.07-.625-.066-.55-.137-1.096-.211-1.638-.408-2.994-.932-5.822-1.506-8.095-.642-2.541-1.343-4.449-2.123-5.775-.794-1.345-1.672-2.09-2.658-2.259-.147-.025-.296-.041-.448-.041h-.807v.041 1.726h.807c.244 0 .554.159.905.537 1.195 1.284 2.87 5.111 4.066 13.87.082.6.162 1.216.239 1.862.014.118.03.264.045.4.035.315.071.66.112 1.062.403 3.913.994 9.647 2.727 12.808.68 1.239 1.535 2.081 2.623 2.263.146.024.295.041.449.041s.303-.016.449-.041c1.088-.182 1.943-1.023 2.622-2.263 1.733-3.161 2.325-8.9 2.728-12.824.041-.395.076-.735.111-1.046.015-.137.031-.282.045-.401.077-.646.157-1.263.239-1.862 1.197-8.76 2.871-12.587 4.066-13.87.351-.377.661-.537.905-.537s.554.159.905.537c1.195 1.284 2.87 5.111 4.066 13.87.082.599.162 1.216.239 1.862.014.118.03.264.045.401.035.315.071.66.112 1.062.403 3.913.994 9.647 2.727 12.808.679 1.239 1.535 2.081 2.623 2.263.146.024.295.041.449.041s.303-.016.449-.041c1.089-.182 1.944-1.024 2.623-2.263 1.734-3.161 2.324-8.898 2.726-12.812.041-.4.077-.744.112-1.058.015-.137.031-.282.045-.401.077-.646.157-1.263.239-1.862 1.198-8.76 2.872-12.587 4.067-13.87.351-.377.661-.537.905-.537s.554.159.905.537c1.195 1.284 2.87 5.111 4.066 13.87.082.599.162 1.215.239 1.862.014.119.03.264.045.401.035.315.071.659.112 1.06.402 3.913.993 9.649 2.726 12.81.679 1.239 1.535 2.081 2.623 2.263.146.024.295.041.449.041s.303-.016.449-.041c1.088-.182 1.943-1.023 2.622-2.263 1.733-3.162 2.326-8.903 2.731-12.833.04-.391.075-.728.109-1.037.015-.137.03-.282.045-.401.077-.646.157-1.263.239-1.862 1.196-8.76 2.871-12.587 4.066-13.87.351-.377.661-.537.905-.537s.554.159.905.537c1.195 1.284 2.869 5.111 4.066 13.87.082.6.162 1.216.239 1.862.014.118.03.263.045.4.034.307.069.646.111 1.059.403 3.914.994 9.65 2.727 12.812.679 1.239 1.535 2.081 2.623 2.263.146.024.295.041.449.041s.303-.016.449-.041c1.088-.182 1.943-1.024 2.623-2.263 1.733-3.161 2.325-8.897 2.727-12.812l.016-.16c.034-.334.065-.627.095-.898.015-.138.031-.281.045-.401.077-.646.157-1.263.239-1.862 1.196-8.76 2.871-12.587 4.066-13.87.351-.377.661-.537.905-.537h.386.421v-1.766h-.807c-.144 0-.293.016-.44.041z" fill="#4bbab5"/></svg>