<svg enable-background="new 0 0 100 37.984" height="37.984" viewBox="0 0 100 37.984" width="100" xmlns="http://www.w3.org/2000/svg"><path d="m38.474 3.959h-.681c-.617 1.288-1.695 5.079-2.46 13.947h5.647c-.198-2.25-.518-5.316-.982-8.118-.587-3.538-1.157-5.124-1.524-5.829z" fill="none"/><path d="m42.995 20.901.012.179c.152 2.336.381 5.864.841 8.834.377 2.432.787 3.629 1.079 4.215h.645c.293-.587.702-1.783 1.08-4.215.457-2.948.686-6.463.838-8.789.023-.353.043-.664.062-.943h-4.604c.015.221.03.461.047.719z" fill="none"/><path d="m14.396 17.906h4.962c.259-2.997.589-5.817.95-8.073.446-2.794.914-4.645 1.39-5.874h-9.642c.476 1.229.944 3.08 1.39 5.874.363 2.273.693 5.093.95 8.073z" fill="none"/><path d="m28.82 21.075c.153 2.354.383 5.882.842 8.838.377 2.433.787 3.629 1.079 4.215h.644c.293-.586.702-1.783 1.08-4.215.457-2.95.687-6.469.839-8.798l.021-.323c.014-.218.028-.42.041-.611h-4.605c.019.273.038.568.059.894z" fill="none"/><path d="m71.358 20.752.021.329c.154 2.365.383 5.88.841 8.832.377 2.432.786 3.629 1.079 4.215h.645c.293-.587.702-1.783 1.08-4.215.459-2.967.689-6.497.84-8.833.022-.337.041-.633.059-.899h-4.603c.012.179.025.368.038.571z" fill="none"/><path d="m66.846 3.959h-.633c-.367.705-.936 2.287-1.523 5.83-.466 2.81-.786 5.873-.983 8.118h5.645c-.197-2.247-.517-5.311-.982-8.118-.587-3.544-1.157-5.126-1.524-5.83z" fill="none"/><path d="m12.789 20.181h-6.009c-.021.295-.042.615-.066.982-.193 2.982-.511 7.882-1.267 11.226l-.393 1.739h9.562c-.805-2.25-1.329-6.303-1.759-12.91-.025-.39-.047-.727-.068-1.037z" fill="none"/><path d="m52.659 3.959h-.633c-.367.705-.936 2.287-1.523 5.83-.466 2.81-.786 5.873-.983 8.118h5.646c-.197-2.247-.517-5.312-.983-8.118-.588-3.543-1.157-5.126-1.524-5.83z" fill="none"/><path d="m23.647 3.959c-.659 1.304-1.737 5.1-2.501 13.947h5.648c-.764-8.847-1.841-12.643-2.5-13.947z" fill="none"/><path d="m57.186 20.988.006.087c.153 2.354.383 5.882.842 8.838.378 2.432.787 3.629 1.08 4.215h.644c.293-.587.702-1.783 1.079-4.215.46-2.964.69-6.496.841-8.832l.061-.9h-4.606c.017.248.035.515.053.807z" fill="none"/><path d="m71.141 17.906h4.962c.258-2.99.589-5.811.951-8.073.446-2.794.913-4.645 1.39-5.874h-9.642c.476 1.229.944 3.08 1.389 5.874.362 2.267.693 5.087.95 8.073z" fill="none"/><path d="m42.769 17.906h4.962c.259-2.994.589-5.814.95-8.073.446-2.794.913-4.645 1.389-5.874h-9.637c.466 1.199.932 3.034 1.385 5.874.362 2.263.693 5.083.951 8.073z" fill="none"/><path d="m86.407 29.913c.377 2.432.787 3.629 1.08 4.215h.645c.293-.586.702-1.783 1.079-4.215.46-2.965.69-6.496.841-8.833.021-.33.041-.626.059-.9h-4.604c.019.273.038.568.059.894.152 2.354.382 5.882.841 8.839z" fill="none"/><path d="m28.583 17.906h4.962c.257-2.985.588-5.805.95-8.073.454-2.841.92-4.677 1.379-5.874h-9.631c.476 1.229.944 3.08 1.39 5.874.363 2.27.692 5.089.95 8.073z" fill="none"/><path d="m9.46 3.959c-.659 1.304-1.737 5.1-2.5 13.947h5.648c-.764-8.847-1.842-12.643-2.501-13.947z" fill="none"/><path d="m14.623 20.91.011.17c.152 2.335.381 5.864.842 8.835.377 2.431.786 3.627 1.079 4.213h.645c.293-.587.702-1.783 1.079-4.215.459-2.959.688-6.481.839-8.812.022-.342.042-.643.061-.92h-4.604c.016.225.031.468.048.729z" fill="none"/><path d="m56.955 17.906h4.962c.258-2.988.588-5.808.95-8.073.446-2.794.913-4.645 1.39-5.874h-9.642c.476 1.229.944 3.08 1.39 5.874.363 2.27.693 5.089.95 8.073z" fill="none"/><path d="m81.032 3.959h-.633c-.367.705-.936 2.287-1.523 5.83-.465 2.809-.786 5.872-.983 8.118h5.646c-.197-2.247-.517-5.312-.983-8.118-.588-3.544-1.157-5.126-1.524-5.83z" fill="none"/><path d="m84.378 9.833c.362 2.268.692 5.088.949 8.073h4.962c.257-2.983.588-5.803.95-8.073.446-2.794.913-4.646 1.39-5.874h-9.642c.477 1.228.945 3.079 1.391 5.874z" fill="none"/><path d="m69.533 20.181h-6.008c-.022.31-.045.646-.07 1.035-.429 6.608-.953 10.662-1.758 12.912h9.663c-.805-2.25-1.329-6.303-1.759-12.91-.024-.39-.046-.727-.068-1.037z" fill="none"/><path d="m55.347 20.181h-6.008c-.02.281-.04.584-.062.93l-.007.106c-.429 6.607-.953 10.661-1.758 12.911h9.663c-.805-2.25-1.329-6.304-1.758-12.912-.027-.4-.049-.739-.07-1.035z" fill="none"/><path d="m27.018 20.825c-.015-.233-.03-.445-.043-.644h-6.009c-.02.281-.04.584-.062.931l-.007.106c-.429 6.607-.953 10.661-1.758 12.91h9.663c-.805-2.25-1.329-6.304-1.759-12.912z" fill="none"/><path d="m41.212 20.948c-.018-.281-.035-.533-.051-.767h-6.009c-.016.232-.033.48-.051.757l-.018.278c-.396 6.094-.865 10.458-1.764 12.913h9.669c-.805-2.25-1.329-6.303-1.758-12.91z" fill="none"/><path d="m83.776 21.027c-.021-.313-.039-.589-.057-.846h-6.009c-.018.256-.036.531-.056.843l-.013.194c-.429 6.607-.953 10.661-1.759 12.911h9.664c-.805-2.25-1.329-6.304-1.759-12.912z" fill="none"/><g fill="#004d71"><path d="m71.32 20.181h4.604c.015-.219.029-.419.042-.595.043-.565.089-1.124.137-1.68h-4.962c.048.556.094 1.115.137 1.68.014.178.028.379.042.595z"/><path d="m54.615 3.959h9.642c.625-1.611 1.265-2.143 1.893-2.275h-13.428c.629.131 1.269.663 1.893 2.275z"/><path d="m94.585 3.959h1.165v-.54h-.783c-.053.039-.19.172-.382.54z"/><path d="m40.433 3.959h9.637c.625-1.611 1.265-2.143 1.893-2.275h-13.52l.193.033c.583.2 1.191.68 1.797 2.242z"/><path d="m82.988 3.959h9.642c.625-1.611 1.265-2.143 1.893-2.275h-13.428c.628.131 1.268.663 1.893 2.275z"/><path d="m73.622 34.618c.07-.069.183-.212.322-.49h-.644c.139.279.252.421.322.49z"/><path d="m80.715 3.478c-.07.073-.18.218-.316.48h.633c-.137-.262-.246-.407-.317-.48z"/><path d="m68.801 3.959h9.642c.625-1.611 1.265-2.143 1.893-2.275h-13.428c.629.131 1.269.663 1.893 2.275z"/><path d="m71.361 34.128h-9.663c-.505 1.412-1.122 2.116-1.897 2.275h13.458c-.776-.159-1.393-.863-1.898-2.275z"/><path d="m91.929 19.745c-.01.131-.02.284-.031.437h3.852v-2.275h-3.671c-.062.702-.112 1.328-.15 1.838z"/><path d="m5.035 19.586c.043-.565.089-1.125.137-1.68h-1.465v2.275h1.286c.015-.216.029-.417.042-.595z"/><path d="m57.175 34.128h-9.663c-.505 1.412-1.122 2.116-1.897 2.275h13.458c-.777-.159-1.393-.863-1.898-2.275z"/><path d="m14.616 34.128h-9.562l-.39 1.725-.896-.08.003-1.645h-.064v2.275h12.807c-.776-.159-1.393-.863-1.898-2.275z"/><path d="m28.802 34.128h-9.663c-.505 1.412-1.121 2.116-1.897 2.275h13.458c-.776-.159-1.392-.863-1.898-2.275z"/><path d="m9.405 1.683h-5.698v2.275h3.805c.624-1.611 1.264-2.143 1.893-2.275z"/><path d="m85.547 34.128h-9.664c-.505 1.412-1.121 2.116-1.897 2.275h13.458c-.775-.159-1.391-.863-1.897-2.275z"/><path d="m88.173 36.404h7.577v-2.275h-5.68c-.505 1.411-1.122 2.115-1.897 2.275z"/><path d="m12.057 3.959h9.642c.625-1.611 1.264-2.143 1.893-2.275h-13.429c.629.131 1.269.663 1.894 2.275z"/><path d="m66.529 3.478c-.07.073-.18.218-.316.48h.633c-.137-.262-.247-.407-.317-.48z"/><path d="m26.243 3.959h9.631c.598-1.557 1.185-2.032 1.72-2.221l.298-.054h-13.542c.628.131 1.268.663 1.893 2.275z"/><path d="m42.988 34.128h-9.668c-.498 1.362-1.132 2.126-1.957 2.275h13.524c-.777-.159-1.393-.863-1.899-2.275z"/><path d="m77.892 17.906c-.062.704-.112 1.329-.151 1.839-.01.131-.021.284-.031.437h6.009c-.011-.153-.021-.306-.031-.436-.038-.51-.088-1.135-.15-1.839z"/><path d="m42.948 20.181h4.604c.015-.218.029-.418.042-.595.043-.565.089-1.125.137-1.68h-4.962c.048.556.094 1.115.137 1.68.013.179.027.378.042.595z"/><path d="m45.25 34.618c.071-.069.184-.212.323-.49h-.645c.139.279.251.421.322.49z"/><path d="m38.474 3.959c-.163-.313-.286-.454-.352-.514-.082.07-.195.235-.329.514z"/><path d="m59.436 34.618c.071-.069.183-.212.322-.489h-.644c.139.277.252.42.322.489z"/><path d="m52.343 3.478c-.07.073-.18.218-.316.48h.633c-.137-.262-.247-.407-.317-.48z"/><path d="m57.133 20.181h4.606l.04-.594c.043-.565.089-1.125.137-1.681h-4.962c.048.556.094 1.115.137 1.68.014.178.028.379.042.595z"/><path d="m87.809 34.618c.07-.069.183-.212.322-.49h-.645c.139.279.252.421.323.49z"/><path d="m30.741 34.128c.139.278.252.42.322.489.07-.069.183-.211.322-.489z"/><path d="m35.333 17.906c-.051.592-.101 1.201-.149 1.839-.01.132-.021.283-.031.437h6.009c-.011-.154-.021-.305-.031-.436-.038-.51-.089-1.136-.15-1.839z"/><path d="m6.96 17.906c-.051.592-.101 1.201-.149 1.839-.01.13-.021.285-.031.437h6.008c-.01-.151-.021-.308-.031-.437-.048-.638-.098-1.247-.149-1.839z"/><path d="m63.706 17.906c-.062.704-.112 1.329-.15 1.839-.01.129-.021.286-.031.437h6.008c-.01-.15-.021-.307-.031-.436-.038-.51-.088-1.136-.15-1.839z"/><path d="m21.147 17.906c-.051.592-.101 1.201-.149 1.839-.01.13-.02.285-.031.437h6.009c-.011-.155-.021-.304-.031-.436-.048-.638-.098-1.247-.149-1.839z"/><path d="m49.52 17.906c-.062.704-.112 1.329-.15 1.839-.01.13-.02.285-.031.437h6.008c-.011-.157-.021-.305-.031-.437-.038-.51-.088-1.135-.15-1.839z"/><path d="m28.761 20.181h4.605c.015-.216.029-.417.042-.595.043-.565.089-1.124.137-1.68h-4.962c.048.556.094 1.115.137 1.68.013.176.027.381.041.595z"/><path d="m23.971 3.467c-.09.086-.199.245-.323.491h.647c-.125-.245-.235-.405-.324-.491z"/><path d="m16.877 34.618c.071-.069.183-.212.322-.489h-.644c.139.277.252.42.322.489z"/><path d="m14.575 20.181h4.604c.015-.215.029-.419.042-.595.043-.565.089-1.125.137-1.68h-4.962c.048.556.094 1.115.137 1.68.014.178.028.378.042.595z"/><path d="m9.784 3.467c-.09.086-.199.245-.324.492h.648c-.125-.247-.234-.406-.324-.492z"/><path d="m85.506 20.181h4.604c.015-.215.029-.419.042-.596.043-.565.089-1.124.137-1.68h-4.962c.048.556.094 1.115.137 1.68.013.178.028.382.042.596z"/></g><path d="m94.522 1.683h-13.427c-.127-.027-.254-.041-.379-.041s-.252.014-.379.041h-13.429c-.127-.027-.254-.041-.379-.041-.126 0-.252.014-.379.041h-13.428c-.127-.027-.254-.041-.379-.041s-.252.014-.379.041h-13.52l-.287-.048-.265.048h-13.542c-.127-.027-.253-.041-.379-.041s-.252.014-.379.041h-13.429c-.127-.026-.253-.041-.379-.041s-.252.014-.379.041h-5.698v2.275h3.805c-.476 1.229-.944 3.08-1.39 5.874-.362 2.266-.692 5.086-.95 8.073h-1.465v2.275h1.286c-.013.194-.027.4-.042.622l-.017.278c-.179 2.751-.477 7.355-1.159 10.622l-.004 2.427h-.064v2.275h12.807c.118.024.238.041.364.041s.246-.017.364-.041h13.458c.118.024.238.041.364.041.104 0 .2-.023.299-.041h13.524c.118.024.238.041.364.041s.246-.017.364-.041h13.458c.118.024.238.041.364.041s.246-.017.364-.041h13.458c.118.024.238.041.364.041s.246-.017.364-.041h13.458c.118.024.238.041.364.041s.246-.017.364-.041h7.577v-2.275h-5.68c.805-2.25 1.329-6.304 1.759-12.912l.013-.193c.02-.311.039-.587.056-.843h3.852v-2.275h-3.671c.197-2.247.517-5.311.983-8.118.588-3.545 1.157-5.126 1.524-5.83h1.165v-.54-1.735-.041h-.848c-.127 0-.254.015-.381.041z" fill="none"/><path d="m94.522 1.683c-.628.132-1.268.664-1.893 2.275-.476 1.229-.944 3.08-1.39 5.874-.363 2.27-.693 5.09-.95 8.073-.048.556-.094 1.115-.137 1.68-.014.177-.028.381-.042.596-.019.274-.038.57-.059.9-.152 2.337-.381 5.868-.841 8.833-.377 2.432-.786 3.628-1.079 4.215-.139.278-.252.421-.322.49-.07-.069-.183-.212-.322-.49-.293-.586-.702-1.783-1.08-4.215-.458-2.957-.688-6.485-.842-8.838-.021-.327-.04-.621-.059-.894-.015-.214-.029-.418-.042-.595-.043-.565-.089-1.124-.137-1.68-.257-2.987-.587-5.807-.949-8.074-.446-2.794-.914-4.645-1.39-5.874-.625-1.611-1.265-2.143-1.893-2.275-.127-.027-.254-.041-.379-.041s-.252.014-.379.041c-.628.132-1.268.664-1.893 2.275-.476 1.229-.944 3.08-1.39 5.874-.362 2.263-.693 5.083-.951 8.073-.048.556-.094 1.115-.137 1.68-.013.176-.027.376-.042.595-.018.266-.037.561-.059.899-.152 2.336-.381 5.866-.84 8.833-.378 2.432-.787 3.629-1.08 4.215-.139.278-.252.421-.322.49-.07-.069-.183-.211-.322-.49-.293-.586-.702-1.783-1.079-4.215-.458-2.952-.687-6.468-.841-8.832l-.021-.329c-.013-.203-.026-.392-.038-.571-.015-.216-.029-.417-.042-.595-.043-.565-.089-1.124-.137-1.68-.258-2.986-.588-5.806-.95-8.073-.446-2.794-.913-4.646-1.389-5.874-.625-1.611-1.265-2.143-1.893-2.275-.127-.027-.254-.041-.379-.041-.126 0-.252.014-.379.041-.628.132-1.268.664-1.893 2.275-.476 1.229-.944 3.08-1.39 5.874-.362 2.265-.692 5.085-.95 8.073-.048.556-.094 1.115-.137 1.681l-.04.594-.061.9c-.152 2.337-.381 5.868-.841 8.832-.377 2.432-.787 3.629-1.079 4.215-.139.278-.252.42-.322.489-.07-.069-.183-.211-.322-.489-.293-.586-.702-1.783-1.08-4.215-.459-2.957-.689-6.485-.842-8.838l-.006-.087c-.019-.292-.036-.559-.053-.807-.014-.216-.028-.417-.042-.595-.043-.565-.089-1.124-.137-1.68-.257-2.983-.587-5.803-.95-8.073-.446-2.794-.914-4.645-1.39-5.874-.625-1.611-1.265-2.143-1.893-2.275-.127-.027-.254-.041-.379-.041s-.252.014-.379.041c-.628.132-1.268.664-1.893 2.275-.476 1.229-.944 3.08-1.389 5.874-.361 2.259-.692 5.079-.95 8.073-.048.556-.094 1.115-.137 1.68-.013.177-.027.377-.042.595-.019.279-.039.59-.062.943-.152 2.326-.381 5.842-.838 8.789-.377 2.432-.787 3.629-1.08 4.215-.139.278-.252.421-.323.49-.07-.069-.183-.211-.322-.49-.293-.586-.702-1.783-1.079-4.215-.46-2.97-.69-6.498-.841-8.834l-.012-.179c-.017-.258-.032-.498-.047-.72-.015-.217-.029-.416-.042-.595-.043-.565-.089-1.125-.137-1.68-.258-2.99-.589-5.81-.95-8.073-.453-2.84-.919-4.676-1.385-5.874-.607-1.561-1.214-2.042-1.797-2.243l-.193-.033-.287-.048-.265.048-.298.054c-.535.189-1.122.664-1.72 2.221-.459 1.197-.925 3.033-1.379 5.874-.362 2.268-.693 5.088-.95 8.073-.048.556-.094 1.115-.137 1.68-.013.178-.027.379-.042.595-.013.191-.026.393-.041.611l-.021.323c-.152 2.329-.382 5.848-.839 8.798-.378 2.432-.787 3.629-1.08 4.215-.139.278-.252.42-.322.489-.07-.069-.183-.211-.322-.489-.293-.586-.702-1.783-1.079-4.215-.459-2.956-.689-6.484-.842-8.838-.021-.327-.04-.621-.058-.894-.015-.214-.029-.419-.042-.595-.042-.565-.089-1.124-.137-1.68-.257-2.983-.587-5.803-.949-8.073-.446-2.794-.914-4.645-1.39-5.874-.625-1.611-1.265-2.143-1.893-2.275-.127-.027-.253-.041-.379-.041s-.252.014-.379.041c-.628.132-1.268.664-1.893 2.275-.476 1.229-.944 3.08-1.39 5.874-.361 2.256-.691 5.076-.95 8.073-.048.556-.094 1.115-.137 1.68-.013.176-.027.38-.042.595-.019.277-.039.578-.061.92-.152 2.331-.38 5.853-.839 8.812-.377 2.432-.787 3.629-1.079 4.215-.139.278-.252.42-.322.489-.07-.069-.183-.211-.322-.489-.293-.586-.702-1.782-1.079-4.213-.461-2.972-.69-6.5-.842-8.835l-.011-.17c-.017-.262-.033-.505-.048-.729-.015-.217-.029-.417-.042-.595-.043-.565-.089-1.124-.137-1.68-.257-2.98-.587-5.799-.949-8.073-.446-2.794-.914-4.645-1.39-5.874-.625-1.611-1.265-2.143-1.893-2.275-.135-.025-.261-.04-.387-.04s-.252.014-.379.041c-.629.132-1.269.664-1.893 2.276-.476 1.229-.944 3.08-1.39 5.874-.362 2.266-.692 5.086-.95 8.073-.048.556-.094 1.115-.137 1.68-.013.178-.027.378-.042.595-.013.194-.027.4-.042.622l-.017.277c-.179 2.751-.477 7.355-1.159 10.622l-.004 2.427-.003 1.645.896.08.39-1.725.393-1.739c.756-3.344 1.074-8.245 1.267-11.226.024-.367.046-.687.066-.982.01-.151.021-.307.031-.437.048-.638.098-1.247.149-1.839.763-8.847 1.841-12.643 2.5-13.947.124-.246.234-.406.324-.492.09.086.199.245.324.492.659 1.304 1.737 5.1 2.501 13.947.051.592.101 1.201.149 1.839.01.129.02.286.031.437.021.31.044.647.069 1.037.429 6.607.953 10.661 1.759 12.91.505 1.412 1.122 2.116 1.898 2.275.118.024.238.041.364.041s.246-.017.364-.041c.776-.159 1.392-.864 1.897-2.275.805-2.25 1.329-6.304 1.758-12.91l.007-.106c.022-.347.043-.65.062-.931.011-.152.021-.306.031-.437.048-.638.098-1.247.149-1.839.764-8.847 1.842-12.643 2.501-13.947.124-.246.234-.405.323-.491.089.086.199.246.323.491.659 1.305 1.736 5.101 2.501 13.947.051.592.101 1.201.149 1.839.01.132.02.281.031.436.014.199.028.411.043.644l.025.391c.429 6.608.953 10.662 1.759 12.912.505 1.412 1.122 2.116 1.898 2.275.118.024.238.041.364.041.104 0 .2-.023.299-.041.825-.149 1.459-.913 1.957-2.275.898-2.455 1.368-6.819 1.764-12.913l.018-.278c.018-.277.035-.525.051-.757.011-.154.021-.305.031-.437.048-.638.098-1.247.149-1.839.765-8.868 1.843-12.659 2.46-13.947.134-.279.246-.444.329-.514.067.06.19.201.352.514.367.706.937 2.292 1.523 5.83.464 2.801.785 5.868.982 8.118.062.703.112 1.329.15 1.839.01.131.02.283.031.436.016.235.033.486.051.767l.018.27c.429 6.607.953 10.661 1.758 12.91.505 1.412 1.122 2.116 1.898 2.275.118.024.238.041.364.041s.246-.017.364-.041c.776-.159 1.392-.864 1.897-2.275.805-2.25 1.329-6.304 1.758-12.911l.007-.106c.022-.346.043-.649.062-.93.011-.152.021-.307.031-.437.038-.509.088-1.135.15-1.839.197-2.245.517-5.307.983-8.118.587-3.543 1.157-5.125 1.523-5.83.137-.263.246-.407.316-.48.07.073.18.218.316.48.367.705.936 2.287 1.523 5.83.466 2.805.786 5.87.983 8.118.062.703.112 1.329.15 1.839.01.132.02.28.031.437.02.296.043.635.069 1.036.429 6.608.953 10.662 1.758 12.912.505 1.412 1.122 2.116 1.898 2.275.118.024.238.041.364.041s.246-.017.364-.041c.776-.159 1.392-.864 1.897-2.275.805-2.25 1.329-6.304 1.758-12.912.025-.389.048-.726.07-1.035.011-.151.021-.307.031-.437.038-.509.088-1.135.15-1.839.197-2.245.517-5.307.983-8.118.587-3.543 1.157-5.125 1.523-5.83.137-.263.246-.407.316-.48.07.073.18.217.317.48.367.704.937 2.287 1.524 5.83.465 2.806.785 5.87.982 8.118.062.704.112 1.33.15 1.839.01.129.021.285.031.436.022.31.044.647.069 1.037.429 6.607.953 10.661 1.759 12.91.505 1.412 1.122 2.116 1.897 2.275.118.024.238.041.364.041s.246-.017.364-.041c.776-.159 1.392-.864 1.897-2.275.805-2.25 1.329-6.304 1.759-12.911l.013-.194c.02-.311.038-.586.056-.843.01-.153.021-.306.031-.437.038-.509.089-1.135.151-1.839.198-2.245.518-5.309.983-8.118.587-3.543 1.157-5.125 1.523-5.83.137-.263.246-.407.316-.48.07.073.18.218.317.48.367.705.936 2.287 1.523 5.83.465 2.806.785 5.87.983 8.118.062.704.112 1.329.15 1.839.01.13.021.284.031.436.018.257.036.534.057.846l.012.189c.429 6.608.953 10.662 1.759 12.912.505 1.412 1.122 2.116 1.897 2.275.118.024.238.041.364.041s.246-.017.364-.041c.776-.159 1.392-.864 1.897-2.275.805-2.25 1.329-6.304 1.759-12.912l.013-.193c.02-.311.039-.587.056-.843.011-.153.021-.306.031-.437.038-.509.089-1.135.15-1.839.197-2.247.517-5.311.983-8.118.588-3.545 1.157-5.126 1.524-5.83.191-.368.329-.5.382-.54h.783v-1.73-.041h-.848c-.121 0-.248.015-.375.041z" fill="#4bbab5"/></svg>