<svg enable-background="new 0 0 100 100" height="100" viewBox="0 0 100 100" width="100" xmlns="http://www.w3.org/2000/svg"><g fill="none"><path d="m56.546 45.18c-1.783-.875-3.218-2.377-4.053-4.238h-4.871c-.836 1.861-2.27 3.364-4.053 4.238v10.64c1.783.869 3.218 2.371 4.053 4.232h4.871c.835-1.861 2.27-3.364 4.053-4.233z"/><path d="m43.57 59.082c-.981-.812-2.22-1.3-3.565-1.3s-2.584.487-3.565 1.3c-1.323 1.098-2.175 2.791-2.175 4.697 0 3.313 2.573 5.998 5.74 5.998 1.821 0 3.441-.891 4.495-2.276.774-1.026 1.244-2.315 1.244-3.721 0-1.413-.47-2.702-1.244-3.728-.274-.359-.588-.684-.93-.97zm-3.565 8.42c-1.969 0-3.565-1.668-3.565-3.725s1.596-3.725 3.565-3.725 3.565 1.668 3.565 3.725-1.596 3.725-3.565 3.725z"/><path d="m36.44 37.221c0-2.058 1.597-3.728 3.565-3.728 1.967 0 3.565 1.671 3.565 3.728v3.722.97c.341-.286.655-.611.93-.97.773-1.026 1.244-2.315 1.244-3.722 0-1.413-.47-2.702-1.244-3.728-1.053-1.384-2.673-2.27-4.495-2.27-3.167 0-5.74 2.685-5.74 5.998 0 1.9.852 3.599 2.175 4.692z"/><path d="m63.676 59.081c-.981-.812-2.22-1.3-3.565-1.3s-2.584.487-3.565 1.3c-.341.286-.655.611-.93.97-.773 1.026-1.244 2.315-1.244 3.728 0 1.407.47 2.696 1.244 3.722 1.053 1.385 2.673 2.276 4.495 2.276s3.442-.891 4.496-2.276c.773-1.026 1.244-2.315 1.243-3.722 0-1.413-.471-2.702-1.244-3.728-.274-.359-.588-.684-.93-.97zm-3.566 8.423c-1.969 0-3.565-1.668-3.565-3.725s1.596-3.725 3.565-3.725 3.565 1.668 3.565 3.725-1.596 3.725-3.565 3.725z"/><path d="m56.546 41.913v-.97-3.722c0-2.058 1.598-3.728 3.565-3.728s3.565 1.671 3.565 3.728v3.722.97c.341-.286.655-.611.93-.97.773-1.026 1.244-2.315 1.244-3.722 0-1.413-.471-2.702-1.244-3.728-1.054-1.384-2.674-2.27-4.496-2.27-1.821 0-3.441.885-4.495 2.27-.773 1.026-1.244 2.315-1.243 3.728 0 1.407.47 2.696 1.244 3.722.274.359.588.684.93.97z"/><path d="m83.783 41.913c1.323-1.093 2.175-2.792 2.175-4.692 0-3.313-2.567-5.998-5.74-5.998-1.822 0-3.442.885-4.496 2.27-.779 1.026-1.244 2.315-1.244 3.728 0 1.407.465 2.696 1.244 3.722.275.359.589.684.931.97v-.97-3.722c0-2.058 1.597-3.728 3.565-3.728 1.967 0 3.565 1.671 3.565 3.728z"/><path d="m80.217 57.781c-1.351 0-2.584.487-3.565 1.3-.342.286-.656.611-.931.97-.779 1.026-1.244 2.315-1.244 3.728 0 1.407.465 2.696 1.244 3.722 1.054 1.385 2.674 2.276 4.496 2.276 3.173 0 5.74-2.685 5.74-5.999 0-1.905-.852-3.598-2.175-4.697-.981-.812-2.22-1.3-3.565-1.3zm0 9.723c-1.969 0-3.565-1.668-3.565-3.725s1.596-3.725 3.565-3.725 3.565 1.668 3.565 3.725-1.596 3.725-3.565 3.725z"/><path d="m76.653 45.18c-1.777-.875-3.218-2.377-4.053-4.238h-4.871c-.836 1.861-2.276 3.364-4.053 4.238v10.64c1.777.869 3.218 2.371 4.053 4.232h4.871c.835-1.861 2.276-3.364 4.053-4.233z"/></g><path d="m88.631 37.228v-.019c-.006-4.855-3.77-8.783-8.413-8.783-3.374 0-6.272 2.074-7.618 5.067h-4.871c-1.345-2.993-4.243-5.067-7.618-5.067s-6.272 2.074-7.618 5.067h-4.871c-1.345-2.993-4.243-5.067-7.618-5.067-4.647 0-8.408 3.929-8.414 8.778v.022c0 3.52 1.99 6.547 4.849 7.954v10.639c-2.859 1.401-4.849 4.428-4.849 7.948v.022c.006 4.854 3.767 8.784 8.414 8.784 3.374 0 6.272-2.08 7.618-5.073h4.871c1.345 2.993 4.243 5.073 7.618 5.073s6.272-2.08 7.618-5.073h4.871c1.345 2.993 4.243 5.073 7.618 5.073 4.643.001 8.407-3.934 8.413-8.783v-.019c-.003-3.522-1.986-6.552-4.848-7.952v-10.639c2.862-1.406 4.845-4.435 4.848-7.952zm-33.016-3.735c1.054-1.385 2.674-2.27 4.495-2.27 1.822 0 3.442.886 4.496 2.27.773 1.026 1.244 2.315 1.244 3.728 0 1.407-.471 2.696-1.244 3.722-.275.359-.589.684-.93.97v-.97-3.722c0-2.057-1.598-3.728-3.565-3.728s-3.565 1.67-3.565 3.728v3.722.97c-.342-.286-.656-.611-.93-.97-.774-1.026-1.244-2.315-1.244-3.722-.001-1.413.47-2.702 1.243-3.728zm-21.35 3.728c0-3.313 2.573-5.998 5.74-5.998 1.822 0 3.442.886 4.495 2.27.774 1.026 1.244 2.315 1.244 3.728 0 1.407-.471 2.696-1.244 3.722-.275.359-.589.684-.93.97v-.97-3.722c0-2.057-1.598-3.728-3.565-3.728-1.968 0-3.565 1.67-3.565 3.728v4.692c-1.323-1.093-2.175-2.792-2.175-4.692zm10.235 30.28c-1.054 1.385-2.674 2.276-4.495 2.276-3.167 0-5.74-2.685-5.74-5.998 0-1.906.852-3.599 2.175-4.697.981-.813 2.22-1.3 3.565-1.3s2.584.488 3.565 1.3c.342.286.656.611.93.97.774 1.026 1.244 2.315 1.244 3.728 0 1.406-.47 2.695-1.244 3.721zm7.993-7.449h-4.871c-.835-1.861-2.27-3.363-4.053-4.232v-10.64c1.783-.874 3.217-2.377 4.053-4.238h4.871c.835 1.861 2.27 3.363 4.053 4.238v10.639c-1.783.869-3.218 2.372-4.053 4.233zm12.114 7.449c-1.054 1.385-2.674 2.276-4.496 2.276s-3.442-.891-4.495-2.276c-.774-1.026-1.244-2.315-1.244-3.722 0-1.413.471-2.702 1.244-3.728.275-.359.589-.684.93-.97.981-.813 2.22-1.3 3.565-1.3s2.584.488 3.565 1.3c.342.286.656.611.93.97.773 1.026 1.244 2.315 1.244 3.728.001 1.407-.47 2.696-1.243 3.722zm7.993-7.449h-4.871c-.835-1.861-2.276-3.363-4.053-4.232v-10.64c1.777-.874 3.217-2.377 4.053-4.238h4.871c.835 1.861 2.276 3.363 4.053 4.238v10.639c-1.777.869-3.218 2.372-4.053 4.233zm13.357 3.726c0 3.314-2.567 5.999-5.74 5.999-1.822 0-3.442-.891-4.496-2.276-.779-1.026-1.244-2.315-1.244-3.722 0-1.413.465-2.702 1.244-3.728.275-.359.589-.684.931-.97.981-.813 2.214-1.3 3.565-1.3 1.345 0 2.584.488 3.565 1.3 1.323 1.099 2.175 2.792 2.175 4.697zm-5.739-30.285c-1.968 0-3.565 1.67-3.565 3.728v3.722.97c-.342-.286-.656-.611-.931-.97-.779-1.026-1.244-2.315-1.244-3.722 0-1.413.465-2.702 1.244-3.728 1.054-1.385 2.674-2.27 4.496-2.27 3.173 0 5.74 2.685 5.74 5.998 0 1.9-.852 3.599-2.175 4.692v-4.692c0-2.057-1.598-3.728-3.565-3.728z" fill="#4bbab5"/><ellipse cx="80.217" cy="63.779" fill="#4bbab5" rx="3.565" ry="3.725"/><ellipse cx="40.005" cy="63.777" fill="#4bbab5" rx="3.565" ry="3.725"/><ellipse cx="60.11" cy="63.779" fill="#4bbab5" rx="3.565" ry="3.725"/><path d="m12.369 31.95v18.548 18.548l8.033-9.271 8.032-9.277-8.032-9.272z" fill="#4bbab5"/></svg>