<svg enable-background="new 0 0 100 100" height="100" viewBox="0 0 100 100" width="100" xmlns="http://www.w3.org/2000/svg"><g fill="#4bbab5"><path d="m31.253 28.613c.199-.051.411-.077.636-.064 1.489 0 2.825 1.046 3.127 2.574.36 1.733-.758 3.454-2.504 3.794-1.714.366-3.409-.745-3.762-2.485l-.013-.058c-.354-1.732.782-3.427 2.516-3.761zm-20.633 6.277-.026-.071c-.655-1.637.135-3.505 1.778-4.154.398-.16.796-.238 1.194-.238 1.278 0 2.465.764 2.966 2.022.661 1.637-.116 3.531-1.772 4.179-1.637.689-3.492-.094-4.14-1.738zm4.415 12.096-.026-.071c-.648-1.643.141-3.512 1.785-4.154.398-.161.796-.238 1.188-.238 1.271 0 2.478.764 2.972 2.016.668 1.637-.116 3.537-1.772 4.192-1.63.688-3.485-.102-4.147-1.745zm4.324 11.813-.019-.058c-.507-1.695.456-3.48 2.144-3.987.315-.103.616-.135.937-.135 1.367 0 2.651.892 3.049 2.279.514 1.701-.437 3.512-2.131 4.019-1.701.507-3.466-.417-3.98-2.118zm8.669 14.12c-1.637.674-3.492-.116-4.154-1.753l-.019-.064c-.661-1.637.135-3.512 1.778-4.154.385-.167.796-.238 1.181-.238 1.284 0 2.485.764 2.985 2.003.656 1.651-.127 3.545-1.771 4.206zm2.649-28.066-.006-.058c-.173-1.772 1.104-3.345 2.87-3.518.109-.013.218-.013.321-.013 1.624 0 3.024 1.233 3.184 2.883.18 1.766-1.104 3.364-2.863 3.537-1.773.206-3.333-1.072-3.506-2.831zm2.032 13.026-.013-.058c-.347-1.74.783-3.422 2.517-3.769.199-.045.417-.064.636-.064 1.483 0 2.818 1.046 3.127 2.574.347 1.733-.77 3.448-2.504 3.794s-3.423-.75-3.763-2.477zm5.739 15.197c-1.695.359-3.415-.738-3.762-2.478l-.013-.064c-.353-1.733.777-3.422 2.517-3.762.199-.039.417-.064.636-.064 1.483 0 2.818 1.053 3.127 2.581.352 1.739-.758 3.446-2.505 3.787zm26.516-41.889.019-.064c.308-1.541 1.637-2.587 3.133-2.574.218 0 .424.013.629.071 1.74.34 2.87 2.035 2.517 3.762-.353 1.733-2.054 2.908-3.775 2.542-1.739-.347-2.876-2.004-2.523-3.737zm-14.963 28.678c-1.772 0-3.204-1.4-3.204-3.171v-.071c0-1.766 1.432-3.204 3.204-3.204 1.778 0 3.204 1.438 3.204 3.204 0 1.778-1.425 3.242-3.204 3.242zm0-13.307c-1.772 0-3.204-1.406-3.204-3.178v-.07c0-1.759 1.432-3.204 3.204-3.204 1.778 0 3.204 1.445 3.204 3.204 0 1.784-1.425 3.248-3.204 3.248zm0-13.289c-1.772 0-3.204-1.425-3.204-3.197v-.032c0-1.772 1.432-3.204 3.204-3.204 1.778 0 3.204 1.432 3.204 3.204s-1.425 3.229-3.204 3.229zm15.329 37.268c-.347 1.733-2.067 2.908-3.775 2.549-1.746-.347-2.876-2.009-2.523-3.73l.013-.071c.308-1.522 1.644-2.574 3.133-2.574.218 0 .43.019.636.058 1.74.346 2.863 2.035 2.516 3.768zm1.976-12.717c-.347 1.727-2.08 2.915-3.775 2.536-1.733-.34-2.87-1.997-2.517-3.73l.006-.064c.315-1.528 1.644-2.574 3.133-2.581.218 0 .43.019.642.058 1.735.346 2.858 2.041 2.511 3.781zm2.02-13.026c-.18 1.753-1.753 3.094-3.505 2.889-1.766-.173-3.056-1.714-2.87-3.473l.006-.064c.167-1.65 1.554-2.883 3.178-2.883.103 0 .218 0 .327.013 1.76.186 3.044 1.753 2.864 3.518zm6.821 26.309c-.668 1.643-2.562 2.478-4.173 1.817-1.65-.668-2.452-2.491-1.798-4.134l.026-.071c.501-1.239 1.701-2.003 2.972-2.003.392 0 .796.071 1.181.231 1.651.655 2.441 2.523 1.792 4.16zm4.507-12.365c-.501 1.701-2.266 2.716-3.993 2.176-1.688-.501-2.671-2.247-2.157-3.948l.019-.071c.411-1.38 1.688-2.279 3.069-2.279.295 0 .604.039.918.135 1.694.508 2.651 2.292 2.144 3.987zm4.329-11.823c-.655 1.65-2.549 2.465-4.173 1.817-1.65-.655-2.452-2.491-1.791-4.128l.026-.064c.501-1.252 1.695-2.016 2.979-2.016.385 0 .796.077 1.181.238 1.644.641 2.433 2.51 1.778 4.153zm4.424-12.095c-.648 1.65-2.549 2.472-4.173 1.81-1.65-.655-2.452-2.478-1.791-4.122l.019-.058c.501-1.265 1.701-2.022 2.979-2.022.385 0 .796.077 1.181.238 1.65.649 2.44 2.517 1.785 4.154z"/><path d="m66.463 41.276c-.109-.013-.225-.013-.327-.013-1.624 0-3.011 1.233-3.178 2.883l-.006.064c-.186 1.759 1.104 3.3 2.87 3.473 1.753.205 3.326-1.136 3.505-2.889.179-1.765-1.105-3.332-2.864-3.518z"/><path d="m64.796 54.038c-.212-.038-.424-.058-.642-.058-1.489.006-2.818 1.053-3.133 2.581l-.006.064c-.353 1.733.783 3.39 2.517 3.73 1.695.379 3.428-.809 3.775-2.536.346-1.739-.777-3.434-2.511-3.781z"/><path d="m62.814 66.768c-.205-.039-.417-.058-.636-.058-1.489 0-2.825 1.053-3.133 2.574l-.013.071c-.353 1.721.777 3.383 2.523 3.73 1.708.359 3.428-.815 3.775-2.549s-.776-3.421-2.516-3.768z"/><path d="m67.487 34.923c1.721.366 3.422-.809 3.775-2.542.353-1.727-.777-3.422-2.517-3.762-.205-.058-.411-.071-.629-.071-1.496-.013-2.825 1.034-3.133 2.574l-.019.064c-.353 1.734.784 3.391 2.523 3.737z"/><path d="m50.001 26.836c-1.772 0-3.204 1.432-3.204 3.204v.032c0 1.772 1.432 3.197 3.204 3.197 1.778 0 3.204-1.457 3.204-3.229s-1.425-3.204-3.204-3.204z"/><path d="m87.622 30.667c-.385-.161-.796-.238-1.181-.238-1.278 0-2.478.758-2.979 2.022l-.019.058c-.661 1.644.141 3.467 1.791 4.122 1.624.661 3.525-.16 4.173-1.81.655-1.638-.135-3.506-1.785-4.154z"/><path d="m74.356 66.943c-.385-.16-.79-.231-1.181-.231-1.271 0-2.472.764-2.972 2.003l-.026.071c-.655 1.643.148 3.467 1.798 4.134 1.611.661 3.505-.173 4.173-1.817.648-1.637-.142-3.505-1.792-4.16z"/><path d="m50.001 40.106c-1.772 0-3.204 1.445-3.204 3.204v.071c0 1.772 1.432 3.178 3.204 3.178 1.778 0 3.204-1.464 3.204-3.249 0-1.759-1.425-3.204-3.204-3.204z"/><path d="m78.509 54.751c-.315-.096-.623-.135-.918-.135-1.38 0-2.658.899-3.069 2.279l-.019.071c-.514 1.701.469 3.448 2.157 3.948 1.727.539 3.492-.475 3.993-2.176.508-1.695-.449-3.479-2.144-3.987z"/><path d="m83.205 42.761c-.385-.161-.796-.238-1.181-.238-1.284 0-2.478.764-2.979 2.016l-.026.064c-.661 1.637.141 3.473 1.791 4.128 1.624.648 3.518-.167 4.173-1.817.655-1.642-.134-3.511-1.778-4.153z"/><path d="m26.815 66.711c-.385 0-.796.071-1.181.238-1.643.642-2.44 2.517-1.778 4.154l.019.064c.661 1.637 2.517 2.427 4.154 1.753 1.643-.661 2.427-2.555 1.772-4.205-.502-1.24-1.702-2.004-2.986-2.004z"/><path d="m25.471 56.898c-.398-1.387-1.682-2.279-3.049-2.279-.321 0-.623.032-.937.135-1.688.507-2.651 2.292-2.144 3.987l.019.058c.514 1.701 2.279 2.626 3.98 2.119 1.694-.508 2.645-2.318 2.131-4.02z"/><path d="m28.749 32.433c.353 1.74 2.048 2.851 3.762 2.485 1.746-.34 2.863-2.061 2.504-3.794-.302-1.528-1.637-2.574-3.127-2.574-.225-.013-.437.013-.636.064-1.733.334-2.87 2.029-2.517 3.762z"/><path d="m16.532 32.451c-.501-1.258-1.688-2.022-2.966-2.022-.398 0-.796.077-1.194.238-1.644.648-2.433 2.517-1.778 4.154l.026.071c.648 1.644 2.504 2.427 4.141 1.74 1.656-.65 2.433-2.544 1.771-4.181z"/><path d="m20.955 44.54c-.494-1.252-1.701-2.016-2.972-2.016-.392 0-.79.077-1.188.238-1.644.642-2.433 2.51-1.785 4.154l.026.071c.661 1.644 2.517 2.433 4.147 1.746 1.656-.656 2.439-2.556 1.772-4.193z"/><path d="m53.205 69.944c0-1.766-1.425-3.204-3.204-3.204-1.772 0-3.204 1.438-3.204 3.204v.032c0 1.766 1.432 3.191 3.204 3.191 1.779 0 3.204-1.451 3.204-3.223z"/><path d="m37.826 66.707c-.218 0-.437.026-.636.064-1.74.34-2.87 2.029-2.517 3.762l.013.064c.347 1.74 2.067 2.838 3.762 2.478 1.746-.34 2.857-2.048 2.504-3.788-.308-1.527-1.643-2.58-3.126-2.58z"/><path d="m34.182 47.684c1.759-.173 3.043-1.772 2.863-3.537-.16-1.65-1.56-2.883-3.184-2.883-.103 0-.212 0-.321.013-1.766.173-3.043 1.746-2.87 3.518l.006.058c.174 1.759 1.734 3.037 3.506 2.831z"/><path d="m50.001 53.419c-1.772 0-3.204 1.438-3.204 3.204v.071c0 1.772 1.432 3.171 3.204 3.171 1.778 0 3.204-1.464 3.204-3.242 0-1.766-1.425-3.204-3.204-3.204z"/><path d="m36.471 60.357c1.733-.347 2.851-2.061 2.504-3.794-.308-1.528-1.644-2.574-3.127-2.574-.218 0-.437.019-.636.064-1.733.347-2.863 2.029-2.517 3.769l.013.058c.341 1.726 2.03 2.824 3.763 2.477z"/></g></svg>