<svg enable-background="new 0 0 100 100" height="100" viewBox="0 0 100 100" width="100" xmlns="http://www.w3.org/2000/svg"><g fill="#fff"><path d="m69.414 63.779c0-3.526-1.984-6.558-4.849-7.96v-10.639c2.864-1.407 4.849-4.439 4.849-7.96 0-4.853-3.757-8.783-8.394-8.794h-.033c-3.368.006-6.26 2.077-7.604 5.066h-4.873c-1.343-2.989-4.235-5.06-7.604-5.066h-.027c-3.368.006-6.26 2.077-7.604 5.066h-4.871c-1.343-2.989-4.235-5.06-7.604-5.066h-.033c-4.638.011-8.388 3.935-8.394 8.777v.022c0 3.52 1.99 6.547 4.849 7.954v10.639c-2.859 1.401-4.849 4.428-4.849 7.948v.022c.007 4.857 3.768 8.786 8.415 8.786 3.374 0 6.272-2.08 7.618-5.073h4.871c1.345 2.993 4.243 5.073 7.618 5.073 3.374 0 6.272-2.08 7.618-5.073h4.871c1.345 2.993 4.243 5.073 7.618 5.073 4.645 0 8.412-3.941 8.412-8.795zm-12.911-30.286c1.054-1.385 2.674-2.27 4.496-2.27 3.173 0 5.74 2.685 5.74 5.998 0 1.9-.852 3.599-2.175 4.692v-4.692c0-2.057-1.598-3.728-3.565-3.728s-3.565 1.67-3.565 3.728v3.722.97c-.342-.286-.656-.611-.93-.97-.779-1.026-1.244-2.315-1.244-3.722-.001-1.413.464-2.702 1.243-3.728zm-20.106 0c1.054-1.385 2.674-2.27 4.496-2.27s3.442.886 4.496 2.27c.774 1.026 1.244 2.315 1.244 3.728 0 1.407-.471 2.696-1.244 3.722-.275.359-.589.684-.93.97v-.97-3.722c0-2.057-1.598-3.728-3.565-3.728s-3.565 1.67-3.565 3.728v3.722.97c-.342-.286-.656-.611-.93-.97-.774-1.026-1.244-2.315-1.244-3.722-.002-1.413.468-2.702 1.242-3.728zm-21.351 3.728c0-3.313 2.573-5.998 5.74-5.998 1.822 0 3.442.886 4.496 2.27.774 1.026 1.244 2.315 1.244 3.728 0 1.407-.471 2.696-1.244 3.722-.275.359-.589.684-.93.97v-.97-3.722c0-2.057-1.598-3.728-3.565-3.728s-3.565 1.67-3.565 3.728v4.692c-1.324-1.093-2.176-2.792-2.176-4.692zm10.235 30.281c-1.054 1.385-2.674 2.276-4.496 2.276-3.167 0-5.74-2.685-5.74-5.998.001-1.907.853-3.6 2.176-4.698.981-.813 2.22-1.3 3.565-1.3s2.584.488 3.565 1.3c.342.286.656.611.93.97.774 1.026 1.244 2.315 1.244 3.728 0 1.407-.471 2.696-1.244 3.722zm7.994-7.45h-4.871c-.835-1.861-2.27-3.363-4.053-4.232v-10.64c1.782-.874 3.217-2.376 4.053-4.237h4.871c.835 1.861 2.27 3.363 4.053 4.238v10.639c-1.783.869-3.217 2.371-4.053 4.232zm12.113 7.449c-1.054 1.385-2.674 2.276-4.496 2.276s-3.442-.891-4.496-2.276c-.774-1.026-1.244-2.315-1.244-3.722 0-1.413.471-2.702 1.244-3.728.275-.359.589-.684.93-.97.981-.813 2.22-1.3 3.565-1.3s2.584.488 3.565 1.3c.342.286.656.611.93.97.774 1.026 1.244 2.315 1.244 3.728.002 1.407-.469 2.696-1.242 3.722zm7.993-7.449h-4.871c-.835-1.861-2.276-3.363-4.053-4.232v-10.64c1.777-.874 3.218-2.376 4.053-4.237h4.871c.835 1.861 2.276 3.363 4.053 4.238v10.639c-1.777.869-3.217 2.371-4.053 4.232zm7.618 9.725c-1.822 0-3.442-.891-4.496-2.276-.779-1.026-1.244-2.315-1.244-3.722 0-1.413.465-2.702 1.244-3.728.275-.359.589-.684.93-.97.981-.813 2.214-1.3 3.565-1.3 1.345 0 2.584.488 3.565 1.3 1.324 1.099 2.176 2.792 2.176 4.698 0 3.313-2.567 5.998-5.74 5.998z"/><ellipse cx="60.998" cy="63.779" rx="3.565" ry="3.725"/><ellipse cx="20.786" cy="63.777" rx="3.565" ry="3.725"/><ellipse cx="40.892" cy="63.779" rx="3.565" ry="3.725"/><path d="m75.445 31.95v18.548 18.548l8.033-9.271 8.033-9.271v-.012l-8.033-9.266z"/><path d="m91.516 50.498-.005-.006v.012z"/></g></svg>