<svg enable-background="new 0 0 100 100" height="100" viewBox="0 0 100 100" width="100" xmlns="http://www.w3.org/2000/svg"><g fill="#fff"><path d="m82.124 52.81c.001-.001.001-.001 0 0 2.146-2.131 3.532-5.02 3.836-8.031.043-.39-.181-.751-.556-1.011-.376-.253-.91-.39-1.495-.39-.592 0-1.127.13-1.517.303-.293.13-.508.284-.606.466-.033.061-.053.125-.059.192-.209 2.05-1.148 4.008-2.614 5.459-1.452 1.465-3.416 2.404-5.458 2.613-.134.015-.255.083-.364.197s-.207.273-.294.468c-.173.398-.303.925-.303 1.517 0 .585.137 1.12.39 1.495.252.376.628.599 1.01.557 3.018-.304 5.907-1.69 8.03-3.835z"/><path d="m69.407 59.483.883-.445.029.051c-.002-.005-.003-.007-.006-.012l.007.012c-.072-.152-.108-.224-.159-.318l-.137-.26-.267-.498-.549-.982-1.105-1.935-2.231-3.835-4.484-7.662-9.888-16.719-9.893 16.725-4.485 7.655-2.231 3.849-1.105 1.928-.542.975-.282.498-.13.26c-.051.094-.094.181-.159.325l-.036.087v.014c-1.242 3.055-1.726 6.413-1.401 9.691.325 3.307 1.48 6.535 3.336 9.301 1.856 2.773 4.398 5.07 7.33 6.637 2.939 1.582 6.268 2.405 9.597 2.398 3.329.007 6.658-.816 9.59-2.398 2.939-1.567 5.474-3.864 7.33-6.637 1.856-2.766 3.018-5.994 3.336-9.301.333-3.314-.158-6.708-1.438-9.785zm-6.714 16.676c-2.759 2.773-6.499 4.571-10.399 4.961-.505.058-.989-.26-1.314-.802-.332-.542-.505-1.3-.505-2.138 0-.079.008-.153.011-.23.005-.13.006-.261.018-.386.001-.016.005-.03.006-.046.042-.427.124-.815.227-1.154.036-.119.072-.237.113-.342.217-.556.484-.917.809-.953 2.52-.253 4.932-1.409 6.73-3.214 1.806-1.798 2.961-4.202 3.221-6.73.029-.325.39-.592.939-.808.563-.21 1.321-.376 2.166-.376.838 0 1.596.173 2.138.505.542.325.859.809.808 1.315-.315 3.094-1.523 6.079-3.389 8.562-.486.646-1.006 1.266-1.579 1.836z"/><path d="m88.5 39.451.004.005v-.001z"/><path d="m88.887 40.469c-.102-.302-.218-.606-.333-.902l-.029-.058v-.014l-.014-.029c-.003-.003-.005-.007-.007-.01v.001-.001l-.004-.004c0-.001-.001-.002-.002-.003s0-.001-.001-.002l.004.004c-.001-.002-.002-.004-.004-.006l-.065-.152-.116-.224-.224-.412-.895-1.589-1.82-3.141-3.654-6.247-8.225-13.901-.001.001-7.279 12.313c-2.138 3.626-4.276 7.251-6.377 10.912l1.726.989s0-.001.001-.001c2.094-3.64 4.232-7.265 6.362-10.89l5.567-9.423 6.507 11.013 3.654 6.239 1.813 3.127.874 1.56.209.383.094.173.029.065h.029c.137-.083.135-.065.1-.027s-.103.095-.099.091l-.001.001v.014c.108.26.202.527.296.794.729 2.13.924 4.434.599 6.665-.332 2.232-1.199 4.377-2.513 6.211-.75 1.045-1.654 1.972-2.654 2.779-.755.608-1.558 1.156-2.422 1.596-2 1.04-4.253 1.574-6.514 1.574v.001h-.001v1.993c2.571 0 5.142-.614 7.424-1.791 1.717-.888 3.267-2.077 4.566-3.499.433-.474.838-.975 1.212-1.499 1.502-2.073 2.499-4.528 2.874-7.07.368-2.542.137-5.171-.686-7.604z"/><path d="m34.874 47.829c1.177-1.755 1.914-3.791 2.116-5.893.209-2.101-.101-4.253-.91-6.203h-.001l-.912.381.884-.446c-.036-.072-.058-.116-.079-.166l-.087-.166-.173-.31-.339-.599-.679-1.199-1.372-2.354-2.759-4.708-6.405-10.832v.001-.001l-6.413 10.832-2.759 4.708-1.372 2.361-.679 1.192-.339.599-.166.31-.094.166c-.029.072-.058.115-.101.231l-.036.079-.007.029c-.78 1.921-1.076 4.037-.874 6.095.21 2.102.946 4.138 2.116 5.893 1.177 1.755 2.787 3.206 4.643 4.203.402.216.821.399 1.244.57 1.481.599 3.074.921 4.671.936.055.001.11.01.166.01 2.101.007 4.217-.52 6.073-1.516 1.863-.997 3.473-2.448 4.643-4.203zm-11.045.852c-.195-.274-.303-.65-.303-1.076 0-.412.101-.794.238-1.076s.318-.462.527-.484c1.632-.167 3.184-.91 4.347-2.073s1.914-2.723 2.08-4.355c.015-.21.202-.383.484-.52.274-.137.657-.238 1.076-.238.419-.008.802.101 1.069.303.016.011.027.025.041.036.244.188.382.457.355.736-.237 2.318-1.306 4.543-2.953 6.182-1.639 1.654-3.864 2.722-6.182 2.961-.227.016-.443-.065-.618-.219-.058-.051-.112-.111-.161-.177z"/></g></svg>