<svg enable-background="new 0 0 100 100" height="100" viewBox="0 0 100 100" width="100" xmlns="http://www.w3.org/2000/svg"><g fill="#4bbab5"><path d="m35.454 80.202c-9.928-8.731-9.067-20.783-3.446-31.791 5.285-10.351 9.578-17.753 3.446-28.616 9.848 7.066 8.117 17.783 3.314 27.513-5.796 11.775-9.008 20.251-3.314 32.894z"/><path d="m64.975 25.686c6.132 10.862 1.84 18.264-3.446 28.616-5.621 11.008-6.482 23.06 3.446 31.791-5.694-12.636-2.482-21.119 3.314-32.886 2.243-4.547 3.814-9.306 3.851-13.808v-.141c.007-5.087-1.963-9.839-7.165-13.572z"/><path d="m55.565 46.396c6.43-13.05 8.752-27.421-4.446-36.896h-.004c8.223 14.568 2.471 24.488-4.616 38.363-7.54 14.767-8.694 30.921 4.611 42.637h.001c-7.627-16.957-3.32-28.322 4.454-44.104z"/><path d="m35.454 19.795c6.132 10.862 1.84 18.264-3.446 28.616-5.621 11.008-6.482 23.06 3.446 31.791-5.694-12.643-2.482-21.119 3.314-32.893 4.804-9.731 6.534-20.448-3.314-27.514z"/></g></svg>