<svg enable-background="new 0 0 100 100" height="100" viewBox="0 0 100 100" width="100" xmlns="http://www.w3.org/2000/svg"><g fill="#fff"><path d="m49.998 76.767c10.889 0 19.717-2.453 19.717-5.477 0 0 0 0 0-.001 0-1.013-.991-1.968-2.717-2.781l.003.003c-.001 0-.002-.001-.003-.002.799.571 1.234 1.191 1.234 1.84-.001 2.802-8.159 5.069-18.234 5.069-10.068 0-18.226-2.268-18.227-5.069 0-.486.245-.957.704-1.403.017-.016.041-.032.058-.048.141-.132.294-.262.472-.389-.001 0-.002.001-.003.002.001-.001.002-.002.003-.003-1.726.813-2.717 1.768-2.717 2.781v.001c0 3.024 8.828 5.477 19.71 5.477z"/><path d="m49.996 79.195c.001 0 .001 0 0 0 14.192 0 25.694-3.195 25.694-7.138 0-1.319-1.291-2.553-3.544-3.615.001 0 .001.001.002.001-.001 0-.002-.001-.003-.001 1.042.742 1.612 1.547 1.612 2.396 0 3.644-10.633 6.603-23.76 6.603-13.121 0-23.753-2.959-23.753-6.603 0-.849.57-1.654 1.612-2.396-.001 0-.002.001-.003.001.001 0 .001-.001.002-.001-2.253 1.062-3.544 2.296-3.545 3.615 0 3.943 11.502 7.138 25.686 7.138z"/><path d="m83.409 70.035c1.569 1.127 2.432 2.346 2.432 3.615 0 5.505-16.045 9.962-35.841 9.962-19.789 0-35.841-4.457-35.841-9.962 0-1.269.87-2.489 2.439-3.615-3.394 1.604-5.348 3.473-5.348 5.462 0 5.947 17.35 10.768 38.75 10.768s38.75-4.821 38.75-10.768c0-1.99-1.947-3.858-5.341-5.462z"/><path d="m20.687 77.256c5.252 3.029 16.404 5.117 29.311 5.117 17.963 0 32.524-4.044 32.526-9.035 0-1.676-1.64-3.237-4.485-4.585-.001 0-.001-.001-.002-.001 1.319.941 2.039 1.961 2.039 3.038 0 4.614-13.463 8.35-30.079 8.35-12.973 0-24.028-2.28-28.246-5.477-1.18-.895-1.824-1.863-1.824-2.872 0-1.077.727-2.097 2.039-3.038-.003.002-.006.003-.01.005.003-.002.005-.004.008-.006-2.845 1.348-4.485 2.909-4.485 4.585 0 1.404 1.152 2.733 3.208 3.919z"/><path d="m43.007 70.902c.461.194.93.37 1.408.527 1.764.577 3.639.888 5.583.888 10.376 0 18.783-8.842 18.783-19.76 0-2.667-.506-5.213-1.419-7.538h.007l-.007-.007c-.656-1.669-1.526-3.216-2.567-4.621l-14.797-26.656-14.79 26.656c-1.041 1.405-1.911 2.952-2.567 4.621l-.007.007c-.449 1.163-.806 2.382-1.048 3.637-.236 1.263-.364 2.568-.364 3.901 0 8.317 4.878 15.428 11.785 18.345zm5.672-1.743c-.87 0-1.726-.072-2.56-.2 9.132-1.279 16.434-8.661 18.069-18.128.109-.631.193-1.272.25-1.92.061-.692.093-1.393.093-2.101 0-1.07-.078-2.118-.214-3.145.078.171.15.357.221.535l.007.014c.834 2.125 1.291 4.443 1.291 6.888 0 9.97-7.68 18.056-17.157 18.057z"/></g></svg>