<svg enable-background="new 0 0 100 100" height="100" viewBox="0 0 100 100" width="100" xmlns="http://www.w3.org/2000/svg"><path d="m91.615 69.808c-.979.387-1.924.583-2.811.583-1.001 0-1.94-.237-2.871-.727-5.657-2.985-8.987-14.476-12.209-25.587l-.015-.049c-3.134-10.806-6.095-21.012-11.143-22.483-2.09-.61-4.296.266-6.784 2.7-3.511 3.593-6.776 11.283-9.945 18.747-3.75 8.838-7.627 17.978-11.298 18.353-2.441.25-5.007-3.322-7.742-7.134-3.577-4.991-7.632-10.648-13.202-10.648l-.164.002c-1.309.047-4.437.563-5.236 4.326l-.1.473.339-.344c1.897-1.92 3.641-2.668 5.366-2.3 4.568.979 8.305 9.944 11.614 17.886 3.367 8.066 6.275 15.032 10.044 15.032.089 0 .178 0 .259-.012 5.333-.444 7.281-8.001 9.542-16.77 1.589-6.168 3.39-13.159 6.639-18.14 2.882-4.216 5.431-6.147 7.799-5.94 4.272.381 7.697 7.694 11.323 15.437l.146.31c3.825 8.16 7.78 16.598 13.511 18.402.634.201 1.285.303 1.935.303 3.042 0 5.137-2.168 5.157-2.189l.039-.042v-.265zm-19.3-19.144-.077-.184c-3.617-8.68-7.034-16.878-11.886-17.513-.202-.026-.407-.04-.61-.04-2.369 0-4.82 1.785-7.492 5.457-1.152 1.583-2.154 3.418-3.055 5.414 1.478-3.704 3.096-7.045 5.007-9.433 2.493-3.118 4.669-4.46 6.671-4.099 4.328.781 7.501 9.354 10.86 18.431.677 1.827 1.362 3.676 2.067 5.49-.501-1.171-.995-2.352-1.485-3.523zm.831-4.542c-3.311-10.077-6.438-19.595-11.379-20.736-2.233-.515-4.562.647-7.163 3.571-3.496 3.938-6.353 11.344-9.114 18.505l-.027.071c-3.464 8.992-6.737 17.486-10.644 17.866-.072.007-.145.01-.217.01-2.554 0-5.16-4.303-7.918-8.858-1.041-1.72-2.16-3.571-3.358-5.306.916 1.171 1.799 2.403 2.669 3.615 3.026 4.228 5.631 7.864 8.646 7.546 4.25-.425 8.075-9.436 12.13-18.991 3.12-7.348 6.346-14.945 9.714-18.39 2.203-2.155 4.089-2.949 5.814-2.445 4.504 1.31 7.385 11.238 10.436 21.75l.014.047c.46 1.591.926 3.199 1.403 4.796-.34-1.019-.674-2.039-1.006-3.051zm-47.317 11.003c3.036 5.019 5.659 9.352 8.765 9.353.104 0 .209-.005.315-.016 4.518-.43 7.899-9.198 11.479-18.481l.018-.047c2.734-7.099 5.562-14.44 8.943-18.241 2.332-2.628 4.337-3.691 6.197-3.259 4.388 1.011 7.421 10.25 10.636 20.043l.018.052c.51 1.55 1.024 3.116 1.552 4.668-.37-.985-.729-1.958-1.079-2.902-3.468-9.358-6.743-18.198-11.627-19.076-2.396-.427-4.874 1.024-7.624 4.453-3.454 4.322-5.926 11.489-8.316 18.421-3.013 8.733-5.859 16.982-10.018 17.361-.063.006-.127.009-.19.009-2.738 0-5.454-5.172-8.329-10.647-.668-1.274-1.346-2.565-2.045-3.831.44.711.874 1.428 1.305 2.14zm-.151 2.202.022.043c3.141 5.988 5.853 11.16 9.192 11.161.095 0 .19-.005.286-.013 4.552-.414 7.438-8.12 10.392-16.651-.307.997-.609 1.998-.91 2.993-2.526 8.364-4.912 16.265-9.296 16.645-.063.006-.125.009-.188.009-2.913 0-5.731-6.065-8.723-12.505l-.072-.155c-.261-.559-.523-1.122-.788-1.687.029.054.057.107.085.16zm9.503 15.259c.085 0 .177-.006.271-.013 4.207-.368 6.559-5.864 8.815-12.946-2.148 8.348-4.01 15.546-8.629 15.932-.056.005-.112.007-.167.007-3.059.001-5.932-6.759-8.965-14.021 2.87 6.115 5.475 11.041 8.675 11.041zm17.877-35.547c2.662-3.663 5.002-5.294 7.173-5.01 4.271.554 7.58 8.482 11.085 16.876.711 1.703 1.431 3.427 2.17 5.115-.516-1.071-1.023-2.152-1.527-3.224l-.028-.061c-3.755-8.02-7.302-15.596-12.146-16.026-.147-.014-.296-.021-.445-.021-2.619 0-5.323 2.095-8.268 6.408-.722 1.108-1.374 2.307-1.968 3.568 1.124-2.868 2.403-5.496 3.954-7.625z" fill="#4bbab5"/></svg>