<svg enable-background="new 0 0 100 100" height="100" viewBox="0 0 100 100" width="100" xmlns="http://www.w3.org/2000/svg"><path d="m85.867 69.789c-5.713-3.015-9.052-14.541-12.284-25.691-3.127-10.78-6.077-20.966-11.056-22.417-2.034-.594-4.203.276-6.642 2.663-3.497 3.579-6.759 11.267-9.916 18.703-3.768 8.881-7.664 18.056-11.414 18.438-2.521.27-5.125-3.362-7.87-7.188-3.509-4.896-7.67-10.703-13.248-10.591-1.299.047-4.326.558-5.102 4.214 1.928-1.951 3.726-2.715 5.496-2.339 4.637.993 8.393 9.998 11.702 17.939 3.35 8.023 6.248 14.976 9.927 14.976.082 0 .165 0 .247-.012 5.237-.435 7.171-7.953 9.416-16.663 1.593-6.183 3.397-13.184 6.659-18.185 2.909-4.255 5.496-6.219 7.929-6.001 4.349.388 7.794 7.735 11.438 15.517 3.862 8.235 7.829 16.828 13.572 18.638 3.925 1.242 6.927-1.83 6.946-1.85v-.001c-2.116.837-4.013.79-5.8-.15zm-59.758-15.012c2.992 4.179 5.578 7.788 8.517 7.488 4.167-.417 7.976-9.392 12.008-18.891 3.127-7.365 6.36-14.982 9.751-18.45 2.234-2.186 4.179-2.998 5.954-2.48 4.585 1.334 7.476 11.32 10.545 21.894 1.464 5.055 2.956 10.192 4.684 14.606-1.64-3.897-3.109-8.364-4.555-12.772-3.298-10.039-6.413-19.525-11.279-20.648-2.175-.5-4.467.652-7.024 3.527-3.491 3.932-6.348 11.356-9.116 18.532-3.48 9.034-6.771 17.568-10.762 17.956-2.71.265-5.413-4.197-8.27-8.916-1.881-3.109-3.903-6.448-6.207-8.922 2.092 1.969 3.967 4.584 5.754 7.076zm-.159 2.275c3.109 5.137 5.801 9.569 8.946 9.269 4.438-.423 7.806-9.175 11.379-18.438 2.739-7.112 5.572-14.465 8.969-18.285 2.363-2.663 4.432-3.744 6.336-3.303 4.467 1.029 7.512 10.309 10.738 20.137 1.622 4.931 3.268 9.939 5.166 14.171-1.769-3.697-3.368-8-4.937-12.243-3.456-9.328-6.718-18.138-11.526-19.002-2.328-.417-4.779 1.023-7.488 4.402-3.438 4.302-5.907 11.461-8.293 18.379-3.027 8.775-5.889 17.069-10.139 17.457-2.886.259-5.695-5.072-8.658-10.715-1.61-3.068-3.321-6.324-5.219-8.993 1.699 2.162 3.257 4.737 4.726 7.164zm-.147 2.21c3.215 6.13 5.978 11.414 9.363 11.115 4.714-.429 7.647-8.946 10.756-17.962 2.369-6.859 4.814-13.948 8.17-18.138 2.527-3.162 4.755-4.514 6.806-4.15 4.402.794 7.594 9.404 10.968 18.521 1.863 5.025 3.756 10.133 5.954 14.259-2.057-3.621-3.897-8.035-5.713-12.372-3.603-8.646-7.012-16.804-11.773-17.427-2.498-.329-5.108 1.428-7.97 5.36-3.421 4.702-5.525 11.667-7.559 18.403-2.545 8.429-4.943 16.387-9.428 16.775-3.08.282-5.983-5.972-9.052-12.578-1.293-2.774-2.598-5.584-3.979-8.082 1.218 2.009 2.364 4.189 3.457 6.276zm45.999-6.465c-3.738-7.982-7.271-15.523-12.031-15.946-2.698-.247-5.507 1.822-8.581 6.324-3.339 5.119-5.161 12.196-6.771 18.432-2.169 8.429-4.044 15.699-8.769 16.093-3.28.27-6.271-6.906-9.445-14.506-.964-2.322-1.946-4.667-2.956-6.871.835 1.681 1.64 3.415 2.422 5.096 3.239 6.977 6.048 13.025 9.51 13.025.082 0 .17-.006.259-.012 4.967-.435 7.329-8.258 10.068-17.321 2.01-6.671 4.097-13.572 7.435-18.156 2.692-3.703 5.084-5.36 7.306-5.067 4.349.564 7.676 8.528 11.197 16.963 2.01 4.814 4.056 9.71 6.413 13.571-2.172-3.356-4.129-7.523-6.057-11.625z" fill="#4bbab5" stroke="#4bbab5" stroke-miterlimit="10" stroke-width=".2835"/></svg>