<svg enable-background="new 0 0 30 30" height="30" viewBox="0 0 30 30" width="30" xmlns="http://www.w3.org/2000/svg"><path d="m19.067 9.113c-.338.112-.845.168-1.002.417l-.159.146s-.046.26.214.643c0 0 2.606.801 2.73 1.387 0 0 .181.373-.599.462l-.156.204-.418.02-.756-1.725s-.72.192-1.093.486l.057.293s-3.035-2.065-5.888.992c0 0-2.111.609-3.586-1.263 0 0-.024-.609-3.586-.495l.245.26s-.245.02-.349.179c-.101.159.058.327.87.327 0 0 1.838 2.098 3.248 1.974l2.007.97.892 1.522s.002.131.011.332c-.208.042-.437.091-.684.145-.476-1.436-1.829-2.472-3.424-2.472-1.993 0-3.609 1.617-3.609 3.609 0 1.993 1.617 3.609 3.609 3.609 1.455 0 2.705-.863 3.276-2.104l.859.661s6.302.046 6.646-.151c0 0-.782-2.136.211-3.037.105-.096.236-.203.381-.319-.167.415-.259.867-.259 1.342 0 1.993 1.617 3.609 3.609 3.609 1.99 0 3.603-1.613 3.607-3.603v-.013c-.004-1.991-1.617-3.603-3.607-3.603-.033 0-.065.003-.098.005.261-.168.428-.275.428-.275l-.271-.241s.782-.181.601-.572c-.179-.39-2.076-2.736-2.076-2.736s.338-.722-.357-1.233l-.333.722c-.002-.001-.853-.588-1.191-.474zm-11.427 10.916c-1.381 0-2.505-1.121-2.505-2.502s1.124-2.502 2.505-2.502c1.06 0 1.967.664 2.331 1.598-1.329.282-2.645.565-2.645.565l.17.934 2.6-.113c-.226 1.148-1.242 2.02-2.456 2.02zm3.471-1.524c.05-.179.088-.36.11-.547l.753-.035c.074.252.17.45.296.536zm11.251-3.482c1.381 0 2.502 1.123 2.502 2.504s-1.123 2.502-2.502 2.502c-1.381 0-2.504-1.123-2.504-2.502 0-1.381 1.123-2.504 2.504-2.504z" fill="#fff"/></svg>