<svg enable-background="new 0 0 30 30" height="30" viewBox="0 0 30 30" width="30" xmlns="http://www.w3.org/2000/svg"><g fill="#fff"><path d="m6.898 7.308h1.969v2.9l-.984.395v.331l.984-.397v.99l-.984.393v.33l.984-.395v.99l-.984.395v.328l.984-.394v.989l-.984.394v.331l.984-.396v.987l-.984.397v.329l.984-.395v.987l-.984.396v.33l.984-.397v.991l-.984.394v.329l.984-.396v2.867l1.518 1.493 1.437-1.493v-4.051l.983-.397v-.328l-.983.394v-.988l.983-.395v-.33l-.983.396v-.988l.983-.396v-.329l-.983.395v-.988l.983-.395v-.33l-.983.395v-.989l.983-.395v-.33l-.983.397v-.989l.983-.397v-.328l-.983.395v-.989l.983-.395v-.33l-.983.396v-1.714h1.968v-1.309h-6.892z"/><path d="m18.637 12.107c-1.481 0-2.686 1.21-2.686 2.696 0 1.487 1.205 2.696 2.686 2.696s2.686-1.21 2.686-2.696c0-1.487-1.205-2.696-2.686-2.696zm0 4.707c-1.105 0-2.003-.9-2.003-2.011s.898-2.011 2.003-2.011 2.003.9 2.003 2.011-.898 2.011-2.003 2.011z"/><path d="m20.863 10.932h-4.478l-2.24 3.955 2.24 3.953h4.478l2.239-3.953zm-2.226 6.896c-1.661 0-3.014-1.357-3.014-3.026s1.353-3.026 3.014-3.026 3.014 1.357 3.014 3.026-1.352 3.026-3.014 3.026z"/></g></svg>