<svg enable-background="new 0 0 30 30" height="30" viewBox="0 0 30 30" width="30" xmlns="http://www.w3.org/2000/svg"><g fill="#fff"><path d="m14.795 6.323c1.711 0 3.354.052 4.632.205l.274.025-.069-.333c-.022-.103-.091-.18-.205-.205h-.183c-1.233-.155-2.807-.257-4.427-.257-1.643 0-3.218.103-4.427.257l-.228.025c-.091 0-.181.077-.205.205l-.045.308.274-.025c1.278-.153 2.919-.205 4.609-.205z"/><path d="m18.127 24.371c.273-.103.455-.385.455-.718v-.143c.069-.001.125-.004.16-.011h.069c.433 0 .776-.385.776-.873s-.343-.898-.776-.898h-.251v-.638c1.326-.076 2.568-.197 3.651-.364l.229-.025c.273-.051.524-.283.569-.616l.091-.565c.024-.153 0-.308-.091-.436-.09-.129-.25-.205-.411-.18l-.25.025c-.055.008-.11.017-.164.024l-2.422-11.89c.115-.02.224-.087.281-.174.091-.128.138-.283.091-.437l-.069-.333c-.067-.335-.319-.565-.593-.59l-.205-.052c-1.231-.153-2.83-.231-4.472-.231-1.643 0-3.24.077-4.473.231l-.205.027c-.297.048-.524.279-.593.588l-.069.333c-.022.155 0 .308.091.437.067.112.172.184.285.204l-2.197 11.866c-.07-.01-.141-.02-.209-.03h-.024c-.159-.025-.319.051-.41.18-.091.128-.114.283-.091.436l.091.565c.069.333.297.565.593.616 1.084.163 2.333.29 3.675.373v2.581c0 .308.181.616.455.718l.091.051c.525.205 1.844.334 3.142.334h.014c1.253-.001 2.482-.129 3.028-.334zm-.252-1.156c-.297 0-.547-.283-.547-.616 0-.318.207-.589.502-.614v.024h.197c.226.076.396.315.396.59 0 .334-.251.616-.548.616zm-.773-.684c-1.962.276-3.919.344-5.205-.188l-.091-.025c-.034-.013-.063-.031-.091-.055v-1.164c1.064.058 2.179.089 3.309.089 1.047 0 2.085-.024 3.08-.073v.626c-.027.001-.053.003-.079.004-.049-.011-.098-.017-.149-.017-.414-.001-.743.349-.774.803zm1.709-.522c.297 0 .547.283.547.616s-.25.616-.547.616h-.268c-.02-.031-.045-.055-.076-.073.115-.152.184-.35.184-.568 0-.224-.077-.425-.2-.578.006-.004.011-.008.017-.013zm2.909-2.993c-.627.08-1.299.149-2.003.204.032-.028.044-.066.03-.112l-2.036-12.215c.235.015.464.031.686.049l1.532 8.263c.022.051.069.103.114.103h.022c.069-.025.115-.077.091-.155l-1.518-8.19c.222.02.436.042.64.066zm-5.172.357c-.503.011-1.012.017-1.525.017-.046 0-.091 0-.136 0v-12.58c.176 0 .351.001.526.004-.001.007-.001.014-.001.021zm-.932-12.557c.316.006.63.013.936.024l1.584 12.479c-.453.021-.914.038-1.382.049zm1.172.032c.232.008.46.02.683.031l2.047 12.28c.011.025.03.052.051.072-.391.028-.791.053-1.199.074zm-6.831-.603c.024-.128.113-.205.205-.205l.229-.025c1.209-.155 2.783-.257 4.427-.257 1.619 0 3.194.103 4.427.257h.183c.114.025.183.103.205.205l.069.333-.274-.025c-1.278-.153-2.921-.205-4.632-.205-1.69 0-3.332.052-4.609.205l-.275.025zm3.148 11.657c-.045 0-.114.051-.114.128l-.089 1.326c-.46-.015-.914-.035-1.358-.059l1.356-12.453c.298-.011.603-.02.912-.025l-.593 8.181c0 .051.046.128.115.128.067 0 .114-.051.114-.128l.593-8.184c.218-.003.44-.006.662-.006v12.578c-.53-.003-1.054-.011-1.573-.027l.089-1.333c0-.051-.045-.126-.114-.126zm-1.916-6.239c-.069-.025-.138.025-.138.103l-1.095 7.342c0 .031.004.058.015.08-.313-.025-.62-.055-.918-.084l2.024-12.151c.498-.042 1.03-.076 1.587-.098l-1.354 12.429c-.387-.024-.767-.049-1.139-.079.007-.014.013-.03.013-.045l1.095-7.343c.024-.078-.021-.154-.09-.154zm-.875-4.633c.17-.02.344-.038.524-.055l-2.017 12.103c-.246-.027-.488-.055-.723-.084zm-2.708 13.156c-.091-.025-.159-.103-.181-.205l-.091-.565.045-.025c2.123.308 4.837.463 7.644.463 2.716 0 5.339-.129 7.393-.437l.252-.025-.138.59c0 .103-.09.18-.181.205l-.229.025c-1.962.308-4.496.488-7.119.488-2.716-.001-5.341-.206-7.395-.514zm10.224 3.747c-1.21.463-4.678.463-5.865-.025l-.091-.025c-.091-.025-.16-.129-.16-.231v-1.091c.008.004.015.008.022.011l.091.027c.526.205 1.826.385 3.104.385.811 0 1.6-.118 2.186-.197.075.387.37.672.735.683v.027c.086 0 .18.001.274.004v.15c0 .101-.069.205-.16.231z"/></g></svg>