<svg enable-background="new 0 0 30 30" height="30" viewBox="0 0 30 30" width="30" xmlns="http://www.w3.org/2000/svg"><path d="m19.553 22.379v-1.945h1.818v-.664l2.325-.114v-1.23l-2.325-.114v-.511h-1.818v-1.582h1.818v-.662l2.325-.116v-1.23l-2.325-.114v-.509h-1.818v-1.428h1.818v-.664l2.325-.114v-1.23l-2.325-.114v-.51h-1.818v-2.25c0-.51-.392-.923-.873-.925h-7.36c-.481.002-.873.416-.873.925v2.25h-1.818v.511l-2.325.114v1.23l2.325.114v.664h1.818v1.428h-1.818v.509l-2.325.114v1.23l2.325.116v.662h1.818v1.582h-1.818v.511l-2.325.114v1.23l2.325.114v.664h1.818v1.945c0 .508.392.922.873.924h7.36c.481-.002.873-.416.873-.925zm.072-4.09h1.285v.488l2.325.114v.301l-2.325.114v.641h-1.285zm0-4.215h1.285v.489l2.325.114v.302l-2.325.114v.64h-1.285zm0-4.059h1.285v.488l2.325.114v.302l-2.325.114v.641h-1.285zm-9.251 1.659h-1.284v-.641l-2.326-.114v-.301l2.326-.116v-.488h1.285v1.66zm0 4.06h-1.284v-.64l-2.326-.114v-.302l2.326-.114v-.489h1.285v1.659zm0 4.213h-1.284v-.641l-2.326-.114v-.301l2.326-.114v-.488h1.285v1.658zm1.684-11.183c-.314 0-.568-.269-.568-.599 0-.332.254-.601.568-.601s.57.269.57.601c0 .33-.255.599-.57.599z" fill="#4bbab5"/></svg>