<svg enable-background="new 0 0 30 30" height="30" viewBox="0 0 30 30" width="30" xmlns="http://www.w3.org/2000/svg"><g fill="#4bbab5"><path d="m11.254 6.351c-.14 0-.252.112-.252.251 0-.139.113-.251.252-.251z"/><path d="m14.229 19.751c-.118-.105-.222-.226-.302-.364.079.138.184.259.302.364z"/><path d="m14.577 19.97c-.115-.056-.231-.112-.327-.194.096.083.211.139.327.194z"/><path d="m15.202 20.129c-.182 0-.356-.033-.516-.094.16.061.334.094.516.094z"/><path d="m20.751 19.266c.213.036.435.084.667.146-.133-.176-.269-.345-.405-.509h-3.857c-.123.974-.953 1.73-1.954 1.73-1.003 0-1.833-.756-1.956-1.73h-4.042c.324.188.644.36.957.515.083.041.136.124.139.217s-.046.181-.127.226c-.189.108-.399.219-.641.342.414.135.82.25 1.209.339.086.021.157.084.182.17.027.086.006.178-.052.243-.148.164-.302.33-.463.496.346.024.688.037 1.016.037h.114c.086 0 .166.043.213.118.046.075.05.169.01.246-.09.178-.191.362-.303.562.324-.059.638-.124.94-.197.087-.021.179.007.241.074.062.065.083.16.055.246-.059.189-.13.383-.21.581.271-.112.531-.226.778-.342.084-.04.186-.028.26.033.075.058.109.155.09.249-.044.201-.099.41-.166.626.254-.166.494-.328.721-.49.08-.058.185-.064.271-.013.084.049.133.142.124.24-.021.226-.053.462-.098.712.257-.24.5-.479.728-.718.047-.05.114-.077.181-.077.027 0 .053.004.081.013.092.031.157.115.167.213.024.237.038.491.046.762.244-.334.467-.664.67-.987.052-.081.143-.127.237-.118.095.009.176.071.21.16.081.213.163.447.246.709.178-.401.336-.796.47-1.176.03-.086.104-.149.192-.164.089-.015.181.019.238.089.143.179.287.365.426.553.078-.405.136-.802.176-1.185.01-.087.064-.163.143-.201.08-.037.173-.03.246.019.164.109.336.231.536.376-.021-.352-.053-.698-.095-1.033-.01-.089.025-.175.095-.231.071-.053.163-.067.247-.034.182.074.371.157.568.252-.086-.291-.178-.574-.272-.845-.031-.087-.01-.186.053-.254.062-.068.158-.095.247-.071.195.053.394.117.598.191-.136-.259-.269-.504-.404-.737-.049-.083-.046-.189.01-.269.055-.078.151-.12.247-.104z"/><path d="m14.686 20.035c-.04-.015-.071-.046-.109-.065.038.019.069.05.109.065z"/><path d="m14.249 19.776c-.008-.007-.013-.018-.021-.025.009.007.013.018.021.025z"/><path d="m15.202 20.129c.725 0 1.33-.531 1.448-1.226-.118.694-.723 1.226-1.448 1.226z"/><path d="m13.752 18.903c.03.174.09.337.175.484-.085-.147-.145-.31-.175-.484z"/><path d="m14.229 19.751c.008.007.013.018.021.025.096.082.212.139.327.194.038.019.069.05.109.065.161.061.335.094.516.094.725 0 1.33-.532 1.448-1.226h-2.898c.03.174.09.337.175.484.079.138.184.259.302.364z"/><path d="m19.597 13.172c-.006-.005-.013-.011-.018-.018l-8.375-8.337c-.358-.299-.833-.472-1.32-.472-1.153 0-2.089.941-2.089 2.096 0 .692.382 1.308 1.17 1.885.993.728 3.382 3.381 3.483 3.492.053.061.074.143.058.222-.016.078-.068.145-.142.178-2.456 1.093-4.07 3.502-4.166 6.181h14.007v-.004c-.074-2.04-1.013-3.932-2.608-5.223zm-8.806-4.84c0 .139-.112.252-.25.252s-.25-.113-.25-.252v-2.446c0-.139.112-.25.25-.25s.25.111.25.25zm.713.716c0 .139-.112.251-.25.251-.14 0-.252-.112-.252-.251v-2.446c0-.139.112-.251.252-.251.138 0 .25.112.25.251zm.712.716c0 .139-.111.251-.249.251-.139 0-.252-.112-.252-.251v-2.446c0-.139.113-.25.252-.25.138 0 .249.111.249.25z"/><path d="m11.002 9.048c0 .139.112.251.252.251-.139 0-.252-.112-.252-.251z"/></g></svg>