<svg enable-background="new 0 0 100 100" height="100" viewBox="0 0 100 100" width="100" xmlns="http://www.w3.org/2000/svg" xmlns:xlink="http://www.w3.org/1999/xlink"><clipPath id="a"><path d="m14.666 12.592h70.664v74.815h-70.664z"/></clipPath><clipPath id="b"><path d="m14.666 12.592h70.664v74.815h-70.664z"/></clipPath><clipPath id="c"><path d="m14.666 12.592h70.664v74.815h-70.664z"/></clipPath><clipPath id="d"><path d="m14.666 12.592h70.664v74.815h-70.664z"/></clipPath><clipPath id="e"><path d="m14.666 12.592h70.664v74.815h-70.664z"/></clipPath><clipPath id="f"><path d="m14.666 12.592h70.664v74.815h-70.664z"/></clipPath><clipPath id="g"><path d="m14.666 12.592h70.664v74.815h-70.664z"/></clipPath><clipPath id="h"><path d="m14.666 12.592h70.664v74.815h-70.664z"/></clipPath><clipPath id="i"><path d="m14.666 12.592h70.664v74.815h-70.664z"/></clipPath><g fill="#4bbab5"><path clip-path="url(#a)" d="m47.69 49.144-22.265-9.562c-1.1-.477-2.337.341-2.332 1.55l.059 24.575c0 .673.4 1.278 1.018 1.541l22.26 9.566c1.109.473 2.337-.341 2.332-1.555l-.059-24.57c.001-.672-.399-1.281-1.013-1.545"/><path clip-path="url(#b)" d="m73.844 33.398-23.424-10.376c-.214-.1-.446-.145-.677-.145s-.464.05-.677.15l-23.375 10.485c-1.328.596-1.323 2.487.009 3.078l23.42 10.375c.214.095.45.145.677.145.232-.005.464-.055.682-.15l23.37-10.485c1.332-.595 1.323-2.486-.005-3.077"/><path clip-path="url(#c)" d="m76.669 41.004c0-.968-.796-1.682-1.678-1.678-.218 0-.446.041-.664.136l-22.215 9.671c-.614.268-1.014.878-1.009 1.546l.055 24.575c.005.968.8 1.682 1.682 1.682.218 0 .441-.045.664-.141l22.215-9.666c.614-.268 1.009-.878 1.009-1.55z"/><path d="m46.395 85.453 1.15.609.373-.7-1.155-.609zm-2.065-1.095 1.155.609.368-.7-1.15-.609zm-2.064-1.091 1.155.609.368-.7-1.15-.609z"/><path d="m43.418 83.873-1.155-.609.369-.7 1.155.609z"/><path d="m45.485 84.966-1.155-.609.369-.7 1.155.609z"/><path d="m47.542 86.063-1.151-.609.371-.701 1.151.609z"/><path d="m40.187 82.168 1.15.609.373-.7-1.155-.609zm-2.064-1.096 1.155.609.368-.696-1.15-.614zm-2.064-1.091 1.155.609.368-.7-1.155-.609z"/><path d="m37.212 80.587-1.155-.609.369-.7 1.155.609z"/><path d="m39.278 81.68-1.155-.609.367-.696 1.155.609z"/><path d="m41.335 82.777-1.151-.609.371-.701 1.151.609z"/><path d="m33.975 78.882 1.155.609.373-.7-1.155-.609zm-2.06-1.091 1.155.609.368-.7-1.15-.609zm-2.064-1.096 1.155.609.368-.7-1.15-.609z"/><path d="m31.004 77.301-1.155-.609.369-.7 1.155.609z"/><path d="m33.07 78.398-1.155-.609.369-.7 1.155.609z"/><path d="m33.976 78.88 1.155.609.372-.7-1.154-.609z"/><path d="m27.767 75.595 1.155.609.368-.7-1.15-.609zm-2.055-1.091 1.15.609.368-.696-1.15-.614zm-2.069-1.091 1.155.609.368-.7-1.155-.609z"/><path d="m24.797 74.02-1.155-.609.369-.7 1.155.609z"/><path d="m26.863 75.112-1.155-.609.369-.7 1.155.609z"/><path d="m28.921 76.201-1.155-.609.369-.7 1.155.609z"/><path d="m21.56 72.31 1.155.609.368-.7-1.15-.609zm-2.06-1.092 1.15.609.373-.696-1.15-.614zm-2.064-1.091 1.155.609.368-.7-1.155-.609z"/><path d="m18.589 70.734-1.155-.609.369-.7 1.155.609z"/><path d="m20.65 71.83-1.15-.609.371-.701 1.151.609z"/><path d="m22.714 72.915-1.155-.609.369-.7 1.155.609z"/><path d="m14.725 65.652h.791v-1.2h-.791zm0-2.146h.791v-1.2h-.791zm0-2.146h.791v-1.2h-.791z"/><path d="m14.725 60.16h.791v1.2h-.791z"/><path d="m14.725 62.306h.791v1.2h-.791z"/><path d="m14.725 64.452h.791v1.2h-.791z"/><path d="m14.725 59.191h.791v-1.2h-.791zm0-2.137h.791v-1.2h-.791zm0-2.15h.791v-1.2h-.791z"/><path d="m14.725 53.703h.791v1.2h-.791z"/><path d="m14.725 55.854h.791v1.2h-.791z"/><path d="m14.725 57.991h.791v1.2h-.791z"/><path d="m14.725 52.739h.791v-1.2h-.791zm0-2.141h.791v-1.196h-.791zm0-2.151h.791v-1.2h-.791z"/><path d="m14.725 47.247h.791v1.2h-.791z"/><path d="m14.725 49.402h.791v1.196h-.791z"/><path d="m14.725 51.539h.791v1.2h-.791z"/><path d="m14.725 46.283h.791v-1.2h-.791zm0-2.141h.791v-1.2h-.791zm0-2.146h.791v-1.2h-.791z"/><path d="m14.725 40.795h.791v1.2h-.791z"/><path d="m14.725 42.941h.791v1.2h-.791z"/><path d="m14.725 45.083h.791v1.2h-.791z"/><path d="m14.725 39.831h.791v-1.2h-.791zm0-2.146h.791v-1.195h-.791zm0-2.146h.791v-1.2h-.791z"/><path d="m14.725 34.339h.791v1.2h-.791z"/><path d="m14.725 36.49h.791v1.196h-.791z"/><path d="m14.725 38.631h.791v1.2h-.791z"/><path d="m17.449 29.872.368.696 1.155-.609-.373-.7zm2.06-1.096.368.7 1.15-.609-.368-.7zm2.064-1.091.373.7 1.15-.609-.368-.7z"/><path d="m21.947 28.385-.373-.7 1.149-.612.373.7z"/><path d="m19.881 29.479-.373-.7 1.149-.612.373.7z"/><path d="m17.815 30.571-.368-.7 1.156-.608.368.7z"/><path d="m23.657 26.586.368.7 1.155-.614-.373-.7zm2.055-1.091.373.696 1.15-.609-.368-.7zm2.068-1.096.373.7 1.15-.609-.368-.7z"/><path d="m28.155 25.1-.373-.7 1.149-.612.373.7z"/><path d="m26.088 26.194-.373-.695 1.148-.615.373.695z"/><path d="m24.023 27.285-.368-.7 1.156-.608.368.7z"/><path d="m29.864 23.3.368.7 1.155-.614-.373-.7zm2.06-1.091.368.7 1.15-.609-.368-.7zm2.064-1.096.373.7 1.15-.609-.368-.7z"/><path d="m34.362 21.814-.373-.7 1.149-.612.373.7z"/><path d="m32.296 22.91-.373-.7 1.149-.612.373.7z"/><path d="m30.231 24-.368-.7 1.156-.608.368.7z"/><path d="m36.072 20.014.368.7 1.155-.614-.368-.696zm2.059-1.091.368.7 1.15-.609-.368-.7zm2.065-1.091.373.7 1.15-.609-.368-.7z"/><path d="m40.569 18.531-.373-.7 1.149-.612.373.7z"/><path d="m38.503 19.624-.373-.7 1.149-.612.373.7z"/><path d="m36.438 20.714-.368-.7 1.156-.608.368.7z"/><path d="m42.279 16.728.373.7 1.15-.609-.368-.7zm2.055-1.091.373.7 1.15-.609-.368-.7zm2.069-1.091.373.7 1.155-.609-.373-.7z"/><path d="m46.403 14.546.373.7 1.155-.609-.373-.701z"/><path d="m44.71 16.338-.373-.7 1.149-.612.373.7z"/><path d="m42.652 17.427-.373-.7 1.149-.612.373.7z"/><path d="m56.207 16.827 1.15.609.373-.7-1.155-.609zm-2.064-1.096 1.146.609.373-.696-1.15-.614zm-2.064-1.091 1.155.609.368-.7-1.15-.609z"/><path d="m57.36 17.432-1.151-.609.371-.701 1.151.609z"/><path d="m55.293 16.339-1.151-.609.371-.701 1.151.609z"/><path d="m53.232 15.249-1.155-.609.369-.7 1.155.609z"/><path d="m62.415 20.113 1.15.609.373-.7-1.155-.609zm-2.065-1.101 1.15.614.368-.7-1.15-.614zm-2.064-1.086 1.155.609.368-.7-1.15-.609z"/><path d="m63.567 20.717-1.151-.609.371-.701 1.151.609z"/><path d="m61.501 19.621-1.151-.609.371-.701 1.151.609z"/><path d="m59.439 18.534-1.155-.609.369-.7 1.155.609z"/><path d="m68.622 23.398 1.15.609.373-.7-1.155-.609zm-2.064-1.1 1.146.609.373-.696-1.15-.614zm-2.064-1.087 1.155.609.373-.7-1.155-.609z"/><path d="m69.775 24.003-1.151-.609.371-.701 1.151.609z"/><path d="m67.708 22.906-1.151-.609.371-.701 1.151.609z"/><path d="m64.494 21.211 1.155.61.373-.7-1.155-.61z"/><path d="m74.829 26.68 1.155.609.368-.7-1.155-.609zm-2.064-1.096 1.15.609.373-.696-1.155-.614zm-2.06-1.087 1.15.609.373-.7-1.155-.609z"/><path d="m75.981 27.287-1.155-.609.369-.7 1.155.609z"/><path d="m73.917 26.192-1.151-.609.371-.701 1.151.609z"/><path d="m71.858 25.104-1.151-.609.371-.701 1.151.609z"/><path d="m81.037 29.966 1.155.609.368-.7-1.155-.609zm-2.064-1.096 1.15.614.368-.7-1.15-.609zm-2.064-1.087 1.155.609.373-.7-1.155-.609z"/><path d="m82.189 30.573-1.155-.609.369-.7 1.155.609z"/><path d="m80.123 29.48-1.155-.609.369-.7 1.155.609z"/><path d="m76.909 27.783 1.155.609.373-.7-1.155-.609z"/><path d="m84.484 39.84h.791v-1.2h-.791zm0-2.146h.791v-1.2h-.791zm0-2.146h.791v-1.2h-.791z"/><path d="m84.484 38.64h.791v1.2h-.791z"/><path d="m84.484 36.494h.791v1.2h-.791z"/><path d="m84.484 34.348h.791v1.2h-.791z"/><path d="m84.484 46.297h.791v-1.2h-.791zm0-2.151h.791v-1.2h-.791zm0-2.141h.791v-1.2h-.791z"/><path d="m84.484 45.096h.791v1.2h-.791z"/><path d="m84.484 42.946h.791v1.2h-.791z"/><path d="m84.484 40.804h.791v1.2h-.791z"/><path d="m84.484 52.753h.791v-1.2h-.791zm0-2.151h.791v-1.2h-.791zm0-2.141h.791v-1.2h-.791z"/><path d="m84.484 51.553h.791v1.2h-.791z"/><path d="m84.484 49.402h.791v1.2h-.791z"/><path d="m84.484 47.261h.791v1.2h-.791z"/><path d="m84.484 59.205h.791v-1.2h-.791zm0-2.146h.791v-1.2h-.791zm0-2.142h.791v-1.2h-.791z"/><path d="m84.484 58.004h.791v1.2h-.791z"/><path d="m84.484 55.858h.791v1.2h-.791z"/><path d="m84.484 53.717h.791v1.2h-.791z"/><path d="m84.484 65.661h.791v-1.2h-.791zm0-2.151h.791v-1.196h-.791zm0-2.141h.791v-1.2h-.791z"/><path d="m84.484 64.461h.791v1.2h-.791z"/><path d="m84.484 62.315h.791v1.196h-.791z"/><path d="m84.484 60.169h.791v1.2h-.791z"/><path d="m76.902 72.228.368.696 1.155-.609-.373-.7zm2.064-1.096.368.7 1.155-.609-.373-.7zm2.059-1.091.373.7 1.15-.609-.368-.7z"/><path d="m77.266 72.929-.368-.7 1.156-.608.368.7z"/><path d="m79.332 71.838-.368-.7 1.156-.608.368.7z"/><path d="m81.401 70.74-.373-.7 1.149-.612.373.7z"/><path d="m70.694 75.514.368.696 1.155-.609-.373-.7zm2.064-1.1.368.7 1.155-.609-.373-.7zm2.06-1.087.373.7 1.15-.609-.368-.7z"/><path d="m71.058 76.215-.368-.7 1.156-.608.368.7z"/><path d="m73.124 75.118-.368-.7 1.156-.608.368.7z"/><path d="m75.193 74.025-.373-.7 1.149-.612.373.7z"/><path d="m64.487 78.8.368.7 1.155-.614-.373-.696zm2.064-1.1.368.7 1.155-.609-.373-.7zm2.059-1.087.373.7 1.15-.609-.368-.7z"/><path d="m64.851 79.5-.368-.7 1.156-.608.368.7z"/><path d="m66.917 78.404-.368-.7 1.156-.608.368.7z"/><path d="m68.986 77.312-.373-.7 1.15-.612.373.7z"/><path d="m58.274 82.081.373.7 1.15-.609-.368-.7zm2.069-1.096.368.7 1.155-.609-.373-.7zm2.06-1.086.368.7 1.155-.609-.368-.7z"/><path d="m58.649 82.779-.373-.7 1.149-.612.373.7z"/><path d="m60.709 81.689-.368-.7 1.156-.608.368.7z"/><path d="m62.767 80.602-.368-.7 1.156-.608.368.7z"/><path d="m52.067 85.367.373.7 1.155-.614-.373-.696zm2.064-1.096.373.7 1.15-.609-.368-.7zm2.064-1.086.368.7 1.155-.609-.373-.7z"/><path d="m52.066 85.366.373.7 1.155-.609-.373-.701z"/><path d="m54.509 84.972-.373-.7 1.149-.612.373.7z"/><path d="m56.56 83.888-.368-.7 1.156-.608.368.7z"/><path d="m16.66 69.781-.704-.373.372-.703.704.373z"/><path clip-path="url(#d)" d="m14.721 68.326v.273.091c-.018.032-.027.05-.027.05l.705.373.368-.705-.277-.15.009-.018.014-.023v-.005-.005-.014-.109-.155h-.791z"/><path d="m14.725 66.498h.791v.796h-.791z"/><path d="m14.666 32.743h.796v.796h-.796z"/><path clip-path="url(#e)" d="m15.46 31.788h.023.027.005l.005-.005.009-.005.095-.05c.068-.036.141-.073.141-.073l-.373-.7s-.173.091-.35.186c-.086.045-.173.091-.241.127-.032.018-.059.032-.077.041-.036 0-.059 0-.059 0v.796h.796v-.317z"/><path d="m16.326 31.36-.373-.704.701-.371.373.704z"/><path d="m48.618 14.213-.373-.704.619-.327.373.704z"/><path clip-path="url(#f)" d="m49.973 13.492.009.018.014.023v.005h.004l.005.005.009.005.082.045c.059.032.123.064.123.064l.368-.7s-.155-.082-.305-.164c-.077-.041-.155-.082-.214-.114-.027-.014-.055-.027-.068-.036-.018-.032-.027-.05-.027-.05l-.618.327.373.705z"/><path d="m51.329 14.242-.619-.328.37-.699.619.328z"/><path d="m83.668 31.291-.705-.368.367-.703.705.368z"/><path clip-path="url(#g)" d="m85.275 31.675v-.273-.091c.018-.032.027-.05.027-.05l-.705-.373-.368.705.277.15-.009.018-.014.023v.005.005.014.109.155h.791z"/><path d="m84.484 32.702h.791v.8h-.791z"/><path d="m84.539 66.461h.796v.796h-.796z"/><path clip-path="url(#h)" d="m84.535 68.213h-.023-.027-.005l-.005.005-.009.005-.095.05c-.073.036-.141.073-.141.073l.373.7s.173-.091.35-.186c.086-.045.173-.091.241-.127.032-.018.059-.032.077-.041h.059v-.796h-.796z"/><path d="m83.334 69.718-.368-.7.705-.371.368.7z"/><path d="m51.138 86.819-.373-.7.616-.328.373.7z"/><path clip-path="url(#i)" d="m50.022 86.51-.009-.018-.013-.023v-.005h-.005l-.005-.004-.005-.005-.085-.045c-.059-.032-.123-.064-.123-.064l-.368.7s.155.082.305.164c.077.041.155.082.214.114.027.014.055.027.073.036.014.032.023.05.023.05l.618-.327-.373-.705z"/><path d="m48.91 86.781-.614-.328.373-.7.614.328z"/></g></svg>