<svg enable-background="new 0 0 100 100" height="100" viewBox="0 0 100 100" width="100" xmlns="http://www.w3.org/2000/svg"><g fill="none"><path d="m28.051 74.186h.149c-.05-.031-.099-.061-.148-.091z"/><path d="m64.865 65.521c-1.682 0-2.396.478-3.479 1.199-1.216.807-2.856 1.872-5.635 2.048v.953h-5.001c.259.161.507.321.733.471 1.085.726 1.799 1.203 3.488 1.203 1.683 0 2.397-.478 3.479-1.2 1.404-.931 3.146-2.084 6.416-2.084 3.272 0 5.088 1.203 6.414 2.082.684.458 1.222.816 1.949 1.018v-2.509c-2.295-.287-3.671-1.18-4.802-1.931-1.164-.772-1.883-1.25-3.562-1.25z"/><path d="m55.771 55.75c-.006 0-.012.001-.019.001v.001c.006-.001.012-.002.019-.002z"/><path d="m44.939 52.202c-.67.007-.994.106-1.5.433.465-.065.958-.109 1.5-.115z"/><path d="m36.124 55.729c-.369.03-.741.057-1.145.057-.197 0-.371-.021-.56-.029.227.024.466.04.735.04.367.001.681-.026.97-.068z"/><path d="m64.865 57.723c-1.682 0-2.396.478-3.479 1.199-1.216.807-2.856 1.872-5.635 2.048v2.581c1.149-.13 1.801-.556 2.697-1.153 1.404-.931 3.146-2.084 6.416-2.084 3.272 0 5.088 1.203 6.414 2.082.684.457 1.223.815 1.949 1.017v-2.509c-2.295-.287-3.671-1.18-4.802-1.931-1.162-.773-1.881-1.25-3.56-1.25z"/><path d="m61.896 74.186h5.939c-.86-.542-1.592-.867-2.97-.867-1.405 0-2.137.336-2.969.867z"/><path d="m66.682 52.662c-.549-.362-.869-.462-1.613-.462-.681 0-1.007.088-1.483.383.401-.041.822-.068 1.279-.068.669 0 1.262.06 1.817.147z"/><path d="m35.154 63.597c1.69 0 2.409-.478 3.497-1.2 1.308-.867 3.099-2.044 6.289-2.077v-2.592c-1.58.027-2.292.493-3.341 1.194-1.329.881-3.145 2.084-6.416 2.084-3.321 0-5.138-1.203-6.464-2.083-.234-.156-.452-.295-.667-.424v2.173c1.608.422 2.715 1.141 3.594 1.723 1.045.699 1.798 1.202 3.508 1.202z"/><path d="m35.154 71.396c1.691 0 2.409-.478 3.496-1.201 1.308-.867 3.099-2.044 6.289-2.077v-2.591c-1.58.027-2.292.493-3.341 1.194-1.329.881-3.145 2.084-6.416 2.084-3.321 0-5.138-1.203-6.464-2.083-.234-.156-.452-.295-.667-.424v2.172c1.608.422 2.715 1.141 3.594 1.723 1.045.699 1.798 1.203 3.509 1.203z"/><path d="m42.107 74.186h5.937c-.839-.534-1.57-.867-2.968-.867-1.406 0-2.136.336-2.969.867z"/><path d="m22.088 21.111h1.278v7.224h-1.278z"/><path d="m32.685 31.021c.995.709 1.263.9 2.267.9.993 0 1.259-.19 2.248-.899 1.507-1.073 3.773-2.687 7.801-2.687 4.043 0 6.303 1.616 7.798 2.686 1.017.728 1.257.9 2.239.9.983 0 1.224-.172 2.236-.898 1.515-1.079 3.775-2.688 7.796-2.688 4.037 0 6.297 1.616 7.793 2.686.135.097.254.182.366.26v-10.17h-45.178v7.616c2.155.544 3.589 1.547 4.634 2.294z"/><path d="m23.365 77.03v-2.844-21.986h-1.278v26.689h3.131c-1.022 0-1.853-.831-1.853-1.859z"/><path d="m22.088 38.318h1.278v3.899h-1.278z"/><path d="m76.061 78.889h1.852v-1.843c-.01 1.021-.835 1.843-1.852 1.843z"/></g><path d="m73.228 21.111v10.17 2.729.377.186.559c-1.148-.22-1.895-.71-2.718-1.26-1.343-.889-2.864-1.898-5.805-1.898-2.938 0-4.46 1.008-5.802 1.896-1.114.745-2.073 1.387-4.093 1.387-2.024 0-2.983-.642-4.095-1.385-1.344-.89-2.865-1.898-5.805-1.898-2.945 0-4.535 1.053-5.812 1.899-1.116.742-2.081 1.384-4.104 1.384-2.045 0-3.005-.642-4.117-1.385-.792-.524-1.646-1.089-2.826-1.465v-.571-.25-.315-2.543-7.616h-4.686v7.224 9.982 3.899 9.983 21.986 2.844c0 1.029.831 1.859 1.853 1.859h50.842c1.017 0 1.843-.822 1.852-1.843v-55.935zm-18.257 51.384c-2.023 0-2.938-.611-4.095-1.386-.742-.492-1.549-1.014-2.609-1.388h1.377 1.106 5.002v-.953-.548-.549c2.433-.163 3.808-1.059 5.024-1.865 1.158-.773 2.073-1.384 4.089-1.384 2.011 0 2.93.61 4.095 1.384 1.117.741 2.303 1.523 4.268 1.796v.546.555 2.509.563.565c-1.058-.234-1.773-.705-2.558-1.23-1.342-.89-2.863-1.898-5.805-1.898-2.939 0-4.461 1.008-5.804 1.897-1.159.775-2.074 1.386-4.09 1.386zm-19.817 0c-2.045 0-3.005-.642-4.117-1.386-.825-.547-1.725-1.134-2.986-1.509v-.57-.561-2.172-.634-.621c.425.212.833.468 1.275.762 1.277.846 2.866 1.899 5.856 1.899 2.94 0 4.462-1.009 5.805-1.898 1.131-.756 2.037-1.351 3.953-1.379v.55.55 2.591.55.549c-2.858.032-4.423 1.061-5.681 1.893-1.116.745-2.081 1.386-4.105 1.386zm-5.827-29.247c.839.556 1.823 1.196 3.242 1.573.739.197 1.59.326 2.614.326.715 0 1.343-.062 1.908-.165 1.759-.321 2.88-1.061 3.896-1.734.404-.27.781-.518 1.183-.73.75-.394 1.594-.656 2.906-.656.133 0 .25.009.374.015-.09.116-.179.231-.27.348-.048.062-.097.126-.146.189-.145.188-.29.376-.437.566-.565.733-1.134 1.475-1.678 2.186-.035.046-.071.093-.106.139-.179.235-.355.465-.527.691-.202.265-.398.522-.586.77-1 .377-1.768.877-2.442 1.323-1.163.773-2.082 1.384-4.104 1.384-2.044 0-3.005-.642-4.117-1.385-.825-.547-1.725-1.134-2.986-1.509v-.571-.541-.019-1.708-.634-.496-.125c.152.075.302.155.451.242.27.157.54.331.825.521zm39.633 0c1.072.712 2.216 1.456 4.044 1.757.076.012.146.029.224.04v.119.426.555 2.045.079.484.564c-1.058-.234-1.773-.704-2.558-1.228-1.342-.89-2.863-1.899-5.805-1.899-2.423 0-3.878.686-5.069 1.426l-.355-.427-.234-.282-.121-.146-.83-1-.375-.452-.388-.468c1.411-.366 2.391-1.003 3.283-1.593.317-.211.616-.409.924-.587.818-.473 1.7-.798 3.165-.798 1.259 0 2.091.24 2.822.609.437.22.838.487 1.273.776zm4.268 17.656v2.509.563.564c-1.058-.234-1.773-.705-2.558-1.229-1.342-.89-2.863-1.898-5.805-1.898-2.939 0-4.461 1.008-5.804 1.897-.998.667-1.818 1.209-3.31 1.348v-.554-.554-2.58-.549-.549c2.433-.163 3.808-1.059 5.024-1.865 1.158-.773 2.073-1.384 4.089-1.384 2.011 0 2.93.61 4.095 1.384 1.117.741 2.303 1.523 4.268 1.796v.545.556zm-45.177-9.829v-.634-.045-.576c.425.212.833.469 1.276.763 1.276.846 2.865 1.899 5.855 1.899 1.712 0 2.935-.346 3.93-.807.111.107.261.184.432.245.062.022.126.043.195.059.191.045.402.076.651.076h.332 4.216v.146.319.549.55c-2.856.032-4.423 1.06-5.681 1.893-1.116.742-2.081 1.384-4.104 1.384-2.045 0-3.005-.642-4.117-1.386-.826-.547-1.726-1.133-2.986-1.508v-.273-.298-.561zm18.664-9.032c.599-.771 1.157-1.483 1.63-2.076.126-.159.24-.299.354-.441.129-.16.246-.304.357-.44.136-.166.257-.311.363-.436.157-.185.292-.339.375-.422.023-.023.043-.036.064-.053.152-.126.258-.134.295-.134.206 0 .424.191.475.248l.336.404 1.422 1.712.782.941.398.48.181.218 2.511 3.024.284.342.127.154.41.494 1.085 1.306.145.174.209.251.354.426 1.603 1.931c.13.123.258.278.346.409.008.013.022.028.029.04-.027.001-.06.002-.094.003-.01 0-.018.001-.029.001h-6.072v1.87.549.55 2.199.019.549.55 3.007.549.55 2.593.55.549 3.007.549.381h-1.779-4.446-2.391v-.466-2.564-.554-.554-3.027-.549-.548-2.567-.554-.554-3.027-.549-.548-.209-1.394h-3.588-1.03-.38-.626-.024c-.233 0-.37-.024-.444-.045.058-.132.213-.35.399-.542.846-1.12 1.936-2.557 3.074-4.047.158-.207.317-.414.476-.623l.441-.576c.033-.043.066-.086.099-.129.514-.671 1.025-1.334 1.519-1.973.13-.169.259-.335.386-.499.057-.073.115-.149.171-.221.07-.089.135-.171.203-.258zm-18.664 19.189v-.561-2.173-.634-.62c.425.212.833.468 1.275.762 1.277.846 2.866 1.899 5.856 1.899 2.94 0 4.462-1.009 5.805-1.898 1.131-.756 2.037-1.351 3.953-1.379v.549.55 2.592.549.55c-2.858.032-4.423 1.061-5.681 1.893-1.163.773-2.083 1.384-4.104 1.384-2.043 0-3.004-.642-4.117-1.385-.825-.546-1.725-1.133-2.986-1.509zm45.177-4.491c-1.058-.234-1.773-.705-2.558-1.23-1.277-.846-2.865-1.897-5.805-1.897-2.938 0-4.459 1.007-5.801 1.896-1 .668-1.82 1.211-3.312 1.35v-.555-.554-.001-2.204-.544-.004-.549c1.284-.086 2.274-.375 3.098-.75h1.136.059.68c.151 0 .286-.014.411-.036.387-.067.647-.242.786-.514.013-.025.034-.044.045-.072.08-.201.069-.408.016-.607-.009-.035-.019-.071-.031-.106-.05-.141-.119-.274-.199-.397.803-.457 1.679-.768 3.112-.768 2.011 0 2.931.611 4.095 1.384 1.117.741 2.303 1.523 4.268 1.796v.492.054.555 2.134.034.529zm-18.417-18.475c2.941 0 4.463-1.009 5.806-1.899 1.158-.773 2.073-1.384 4.089-1.384 2.013 0 2.932.611 4.095 1.384 1.147.761 2.367 1.565 4.428 1.816v.548.258.297 1.569.563.348.216c-.495-.109-.917-.271-1.303-.466-2.111-.533-3.516-1.513-4.54-2.243-.088-.063-.162-.115-.239-.171-.659-.151-1.401-.248-2.281-.248-.639 0-1.2.055-1.718.138-.095.067-.194.137-.306.217-1.171.838-2.81 1.994-5.379 2.469-.596.256-1.29.421-2.221.449l-.186-.225-.267-.322-.476-.573-1.504-1.812-.294-.355-.276-.332-.628-.757c.86.306 1.883.515 3.2.515zm-25.644-1.899c1.276.846 2.865 1.899 5.855 1.899 2.94 0 4.462-1.009 5.805-1.898 1.158-.774 2.073-1.385 4.09-1.385s2.931.611 4.089 1.385c.297.196.606.397.933.592-.187.028-.405.102-.634.256-.019.013-.038.033-.057.047-.077.056-.153.111-.231.188-.039.039-.086.089-.139.147-.137.151-.322.369-.543.636-.115.139-.239.29-.372.455-.119.147-.246.305-.378.47-.05.063-.099.124-.151.189-.06-.043-.126-.089-.184-.13-.103-.074-.194-.138-.283-.2-.562-.102-1.186-.163-1.896-.163-.782 0-1.463.078-2.073.202-.073.052-.143.101-.225.16-1.096.785-2.611 1.857-4.929 2.377-.699.33-1.503.544-2.69.544-1.054 0-1.818-.172-2.466-.44-2.064-.357-3.554-1.137-4.638-1.848v-.606-.57-.561-1.157-.443-.203-.624c.369.196.73.423 1.117.681zm-1.116 37.819v-.091-.633-.621c.425.212.833.469 1.276.763.284.188.588.387.916.582h-1.031-1.012zm14.056 0h-1.004-1.028c.319-.192.621-.389.911-.581 1.158-.774 2.072-1.386 4.089-1.386 2.018 0 2.932.611 4.09 1.386.292.193.595.389.915.581h-1.03-1.005zm19.789 0h-1.003-1.028c.319-.192.622-.389.912-.582 1.157-.773 2.072-1.385 4.089-1.385 2.012 0 2.931.611 4.095 1.385.293.195.593.391.908.582h-1.025-1.008z" fill="#4bbab5"/></svg>