<svg enable-background="new 0 0 100 100" height="100" viewBox="0 0 100 100" width="100" xmlns="http://www.w3.org/2000/svg"><g fill="#4bbab5"><path d="m49.666 15.349c-19.106 0-34.65 15.544-34.65 34.65s15.544 34.65 34.65 34.65 34.65-15.544 34.65-34.65-15.544-34.65-34.65-34.65zm-5.945 2.683 10.723 4.725-27.408 12.44-5.069-2.216c4.735-7.679 12.574-13.245 21.754-14.949zm-7.567 21.187-6.81-3.005 27.408-12.437 7.038 3.102zm28.729-9.259v29.078l-1.092.614-25.784 11.513v-29.206zm-30.639 11.975v29.218l-7.035-3.087v-29.23zm-13.785-6.223 4.87 2.294v29.237l-4.377-1.994c-2.427-4.551-3.808-9.741-3.808-15.249.001-5.125 1.196-9.973 3.315-14.288zm29.207 46.809c-10.245 0-19.393-4.767-25.359-12.194l10.974 4.838c.283.125.581.186.882.186s.599-.064.879-.189l30.313-13.535c.794-.353 1.214-1.065 1.274-1.804h.015v-32.683h-.021c.107-.888-.319-1.831-1.277-2.254l-17.59-7.407c17.891.049 32.431 14.617 32.431 32.519.001 17.934-14.588 32.523-32.521 32.523z"/><path d="m49.616 62.791 8.249-17.736-5.192.213 1.572-8.329-9.258 13.362h6.439z"/></g></svg>