<svg enable-background="new 0 0 100 100" height="100" viewBox="0 0 100 100" width="100" xmlns="http://www.w3.org/2000/svg"><path d="m46.015 17.475h7.969v32.527h-7.969z" fill="none"/><g fill="#4bbab5"><path d="m57.971 26.787v8.636c2.256 1.005 4.33 2.442 6.12 4.271 3.761 3.84 5.836 8.945 5.836 14.373s-2.074 10.534-5.836 14.373c-3.766 3.84-8.768 5.953-14.089 5.953s-10.328-2.114-14.089-5.953c-3.766-3.84-5.836-8.945-5.836-14.373s2.069-10.534 5.836-14.373c1.79-1.829 3.864-3.266 6.12-4.271v-8.636c-11.524 3.501-19.924 14.388-19.924 27.28 0 15.691 12.445 28.418 27.818 28.46h.151c15.342-.042 27.774-12.727 27.816-28.381v-.127c-.022-12.871-8.414-23.735-19.923-27.232z"/><path d="m46.015 17.475h7.969v32.527h-7.969z"/></g></svg>