<svg enable-background="new 0 0 100 100" height="100" viewBox="0 0 100 100" width="100" xmlns="http://www.w3.org/2000/svg" xmlns:xlink="http://www.w3.org/1999/xlink"><clipPath id="a"><path d="m17.235 28h65.53v44h-65.53z"/></clipPath><clipPath id="b"><path d="m17.235 28h65.53v44h-65.53z"/></clipPath><clipPath id="c"><path d="m17.235 28h65.53v44h-65.53z"/></clipPath><clipPath id="d"><path d="m17.235 28h65.53v44h-65.53z"/></clipPath><clipPath id="e"><path d="m17.235 28h65.53v44h-65.53z"/></clipPath><g fill="#4bbab5"><path clip-path="url(#a)" d="m75.079 65.088c-3.245 0-4.897-1.062-6.272-1.915-1.157-.726-1.997-1.244-3.885-1.244s-2.728.517-3.889 1.244c-1.371.853-3.077 1.915-6.272 1.915-3.186 0-4.897-1.062-6.268-1.915-1.162-.726-1.997-1.244-3.885-1.244-1.893 0-2.728.517-3.889 1.244-1.371.853-3.082 1.915-6.272 1.915s-4.951-1.062-6.327-1.915c-1.157-.726-2.065-1.244-3.944-1.244v-3.953c3.245 0 4.956 1.062 6.327 1.915 1.162.722 2.029 1.244 3.917 1.244s2.741-.522 3.903-1.244c1.371-.853 3.086-1.915 6.277-1.915s4.901 1.062 6.272 1.915c1.162.722 2.001 1.244 3.889 1.244s2.728-.522 3.889-1.244c1.371-.853 3.082-1.915 6.272-1.915 3.191 0 4.897 1.062 6.268 1.915 1.162.722 2.011 1.244 3.889 1.244z"/><path clip-path="url(#b)" d="m75.079 57.027c-3.245 0-4.897-1.062-6.272-1.915-1.157-.722-1.997-1.244-3.885-1.244s-2.728.522-3.889 1.244c-1.371.853-3.077 1.915-6.272 1.915-3.186 0-4.897-1.062-6.268-1.915-1.162-.722-1.997-1.244-3.885-1.244-1.893 0-2.728.522-3.889 1.244-1.371.853-3.082 1.915-6.272 1.915s-4.951-1.062-6.327-1.915c-1.157-.722-2.065-1.244-3.944-1.244v-3.953c3.245 0 4.956 1.062 6.327 1.915 1.162.726 2.029 1.244 3.917 1.244s2.741-.517 3.903-1.244c1.371-.853 3.086-1.915 6.277-1.915s4.901 1.062 6.272 1.915c1.162.726 2.001 1.244 3.889 1.244s2.728-.517 3.889-1.244c1.371-.853 3.082-1.915 6.272-1.915 3.191 0 4.897 1.062 6.268 1.915 1.162.726 2.011 1.244 3.889 1.244z"/><path clip-path="url(#c)" d="m75.079 48.967c-3.245 0-4.897-1.062-6.272-1.915-1.157-.722-1.997-1.244-3.885-1.244s-2.728.522-3.889 1.244c-1.371.853-3.077 1.915-6.272 1.915-3.186 0-4.897-1.062-6.268-1.915-1.162-.722-1.997-1.244-3.885-1.244-1.893 0-2.728.522-3.889 1.244-1.371.853-3.082 1.915-6.272 1.915s-4.951-1.062-6.327-1.915c-1.157-.722-2.065-1.244-3.944-1.244v-3.953c3.245 0 4.956 1.062 6.327 1.915 1.162.726 2.029 1.244 3.917 1.244s2.741-.517 3.903-1.244c1.371-.853 3.086-1.915 6.277-1.915s4.901 1.062 6.272 1.915c1.162.726 2.001 1.244 3.889 1.244s2.728-.517 3.889-1.244c1.371-.853 3.082-1.915 6.272-1.915 3.191 0 4.897 1.062 6.268 1.915 1.162.726 2.011 1.244 3.889 1.244z"/><path clip-path="url(#d)" d="m75.079 40.949c-3.245 0-4.897-1.062-6.272-1.915-1.157-.722-1.997-1.244-3.885-1.244s-2.728.522-3.889 1.244c-1.371.853-3.077 1.915-6.272 1.915-3.186 0-4.897-1.062-6.268-1.915-1.162-.722-1.997-1.244-3.885-1.244-1.893 0-2.728.522-3.889 1.244-1.371.853-3.082 1.915-6.272 1.915s-4.951-1.062-6.327-1.915c-1.157-.722-2.065-1.244-3.944-1.244v-3.953c3.245 0 4.956 1.062 6.327 1.915 1.162.726 2.029 1.244 3.917 1.244s2.741-.517 3.903-1.244c1.371-.853 3.086-1.915 6.277-1.915s4.901 1.062 6.272 1.915c1.162.726 2.001 1.244 3.889 1.244s2.728-.517 3.889-1.244c1.371-.853 3.082-1.915 6.272-1.915 3.191 0 4.897 1.062 6.268 1.915 1.162.726 2.011 1.244 3.889 1.244z"/><path clip-path="url(#e)" d="m79.738 67.52c0 .926-.817 1.679-1.815 1.679h-55.846c-.998 0-1.815-.753-1.815-1.679v-37.837c0-.926-.681-1.679-1.516-1.679-.831 0-1.511.753-1.511 1.679v40.637c0 .926.817 1.679 1.815 1.679h61.9c.998 0 1.815-.753 1.815-1.679v-40.637c0-.926-.681-1.679-1.516-1.679-.831 0-1.511.753-1.511 1.679z"/></g></svg>