<svg enable-background="new 0 0 100 100" height="100" viewBox="0 0 100 100" width="100" xmlns="http://www.w3.org/2000/svg"><g fill="none"><path d="m74.392 47.942c1.252 0 2.265-1.01 2.265-2.249s-1.013-2.243-2.265-2.243c-1.257 0-2.27 1.004-2.27 2.243s1.013 2.249 2.27 2.249z"/><path d="m69.851 33.817c1.252 0 2.27-1.004 2.27-2.249 0-1.239-1.018-2.243-2.27-2.243s-2.265 1.004-2.265 2.243c0 1.245 1.013 2.249 2.265 2.249z"/><ellipse cx="57.762" cy="77.318" rx="2.27" ry="2.246"/><path d="m66.786 43.45c2.016 0 3.642-1.615 3.642-3.608s-1.626-3.608-3.642-3.608c-2.011 0-3.642 1.615-3.642 3.608s1.632 3.608 3.642 3.608z"/><ellipse cx="50.001" cy="73.71" rx="3.642" ry="3.605"/><path d="m36.857 47.838c-6.213 0-11.248 4.983-11.248 11.134 0 6.145 5.034 11.134 11.248 11.134 6.208 0 11.242-4.988 11.242-11.134 0-6.151-5.034-11.134-11.242-11.134z"/><path d="m42.187 75.072c-1.252 0-2.265 1.004-2.265 2.243s1.013 2.249 2.265 2.249c1.257 0 2.27-1.01 2.27-2.249s-1.013-2.243-2.27-2.243z"/><path d="m51.902 58.972c0 6.145 5.034 11.134 11.242 11.134 6.213 0 11.248-4.988 11.248-11.134 0-6.151-5.034-11.134-11.248-11.134-6.208 0-11.242 4.983-11.242 11.134z"/><path d="m24.139 45.693c0 1.239 1.018 2.249 2.27 2.249s2.265-1.01 2.265-2.249-1.013-2.243-2.265-2.243-2.27 1.004-2.27 2.243z"/><path d="m29.573 39.843c0 1.992 1.626 3.608 3.642 3.608 2.011 0 3.642-1.615 3.642-3.608s-1.631-3.608-3.642-3.608c-2.016 0-3.642 1.616-3.642 3.608z"/><path d="m30.945 33.817c1.252 0 2.27-1.004 2.27-2.249 0-1.239-1.018-2.243-2.27-2.243s-2.27 1.004-2.27 2.243c-.001 1.245 1.018 2.249 2.27 2.249z"/><path d="m50.001 44.946c6.208 0 11.242-4.983 11.242-11.128 0-6.151-5.034-11.134-11.242-11.134s-11.242 4.983-11.242 11.134c-.001 6.145 5.033 11.128 11.242 11.128z"/></g><path d="m50.022 15.349h-.044c-19.321.012-34.978 15.523-34.978 34.65 0 19.135 15.669 34.651 35 34.651 19.324 0 34.988-15.505 34.999-34.629v-.043c-.011-19.118-15.663-34.617-34.977-34.629zm19.829 13.977c1.252 0 2.27 1.004 2.27 2.243 0 1.244-1.018 2.249-2.27 2.249s-2.265-1.004-2.265-2.249c0-1.239 1.013-2.243 2.265-2.243zm-3.065 6.909c2.016 0 3.642 1.615 3.642 3.608s-1.626 3.608-3.642 3.608c-2.011 0-3.642-1.615-3.642-3.608s1.632-3.608 3.642-3.608zm-16.785-13.551c6.208 0 11.242 4.983 11.242 11.134 0 6.145-5.034 11.128-11.242 11.128s-11.242-4.983-11.242-11.128c-.001-6.151 5.033-11.134 11.242-11.134zm-13.144 17.159c0 1.992-1.631 3.608-3.642 3.608-2.016 0-3.642-1.615-3.642-3.608s1.626-3.608 3.642-3.608c2.01 0 3.642 1.616 3.642 3.608zm-5.912-10.517c1.252 0 2.27 1.004 2.27 2.243 0 1.244-1.018 2.249-2.27 2.249s-2.27-1.004-2.27-2.249c-.001-1.239 1.018-2.243 2.27-2.243zm-6.806 16.367c0-1.239 1.018-2.243 2.27-2.243s2.265 1.004 2.265 2.243-1.013 2.249-2.265 2.249-2.27-1.01-2.27-2.249zm18.048 33.871c-1.252 0-2.265-1.01-2.265-2.249s1.013-2.243 2.265-2.243c1.257 0 2.27 1.004 2.27 2.243s-1.013 2.249-2.27 2.249zm-5.33-9.458c-6.213 0-11.248-4.988-11.248-11.134 0-6.151 5.034-11.134 11.248-11.134 6.208 0 11.242 4.983 11.242 11.134 0 6.145-5.034 11.134-11.242 11.134zm13.144 7.209c-2.011 0-3.642-1.615-3.642-3.608s1.631-3.602 3.642-3.602c2.01 0 3.642 1.61 3.642 3.602s-1.632 3.608-3.642 3.608zm7.761 2.249c-1.252 0-2.27-1.01-2.27-2.249s1.018-2.243 2.27-2.243 2.27 1.004 2.27 2.243-1.018 2.249-2.27 2.249zm5.382-9.458c-6.208 0-11.242-4.988-11.242-11.134 0-6.151 5.034-11.134 11.242-11.134 6.213 0 11.248 4.983 11.248 11.134 0 6.145-5.034 11.134-11.248 11.134zm11.248-22.164c-1.257 0-2.27-1.01-2.27-2.249s1.013-2.243 2.27-2.243c1.252 0 2.265 1.004 2.265 2.243s-1.013 2.249-2.265 2.249z" fill="#4bbab5"/></svg>