<svg enable-background="new 0 0 100 100" height="100" viewBox="0 0 100 100" width="100" xmlns="http://www.w3.org/2000/svg"><g fill="#4bbab5"><path d="m49.667 15.08c-19.18 0-34.785 15.604-34.785 34.785s15.604 34.784 34.785 34.784 34.784-15.604 34.784-34.784c0-19.181-15.603-34.785-34.784-34.785zm27.974 37.341h-2.434c-.995 0-1.802.815-1.802 1.823v3.685c0 1.008.806 1.823 1.802 1.823h2.434c.134 0 .25-.049.376-.079-.162.403-.339.797-.519 1.191h-3.463c-.388 0-.724.281-.791.669-.003.012-.006.024-.006.034-.089.501.29.962.794.962h2.663c-.183.342-.397.666-.592.998h-36.578c-1.258 0-2.482-.501-3.34-1.432-.772-.84-1.191-1.918-1.191-3.063v-.009c0-.058 0-.113 0-.171.031-.684.208-1.337.513-1.911v.153c-.052 1.429.458 2.779 1.435 3.805.986 1.035 2.376 1.631 3.814 1.631h28.238c.513 0 .895-.479.791-.986-.003-.006-.003-.012-.006-.021-.076-.382-.403-.656-.791-.656h-28.232c-1.011 0-1.939-.4-2.629-1.124-.666-.699-1.014-1.621-.974-2.602v-.031-1.857c0-.024-.003-.049-.006-.073.626-.385 1.347-.614 2.116-.644 1.224-.049 2.382.397 3.258 1.252.87.852 1.356 1.994 1.362 3.215.003.452.345.84.788.861.47.018.858-.36.858-.834v-16.631h33.817c.489 2.101.769 4.275.769 6.522 0 2.11-.241 4.165-.675 6.146v-.824c.002-1.007-.804-1.822-1.799-1.822zm.155 1.823v3.685c0 .086-.07.156-.156.156h-2.434c-.085 0-.156-.07-.156-.156v-3.685c0-.089.07-.159.156-.159h2.434c.086 0 .156.07.156.159zm-42.802.58v-15.924c0-2.489 1.957-4.543 4.369-4.583.024 0 .049-.003.073-.003 1.176 0 2.281.458 3.118 1.292.855.852 1.328 1.991 1.328 3.206v16.003c-.07-.079-.147-.153-.223-.226-1.2-1.176-2.785-1.783-4.458-1.722-1.655.067-3.145.809-4.207 1.957zm10.534-14.089v-1.09l32.998-.082c.134.388.272.776.388 1.172zm4.139 41.777c-18.001 0-32.647-14.646-32.647-32.647s14.646-32.647 32.647-32.647c13.776 0 25.578 8.581 30.364 20.675l-2.115.006-32.442.079c-.177-1.35-.791-2.589-1.765-3.56-1.172-1.166-2.73-1.798-4.376-1.768-3.301.055-5.985 2.861-5.985 6.25v20.11c-.006 1.612.595 3.127 1.701 4.296 1.16 1.215 2.718 1.887 4.388 1.887h35.633 3.411c-5.499 10.295-16.35 17.319-28.814 17.319z"/><path d="m79.439 45.026c.003-1.008-.806-1.826-1.798-1.826h-2.434c-.995 0-1.801.818-1.801 1.826v3.682c0 1.005.806 1.823 1.801 1.823h2.434c.992 0 1.798-.818 1.798-1.823zm-1.643 3.682c0 .086-.07.156-.156.156h-2.434c-.085 0-.156-.07-.156-.156v-3.682c0-.089.07-.159.156-.159h2.434c.086 0 .156.07.156.159z"/><path d="m56.897 43.201h-7.811c-.995 0-1.802.818-1.802 1.823v12.904c0 1.005.806 1.823 1.802 1.823h7.811c.992 0 1.802-.818 1.802-1.823v-12.904c0-1.005-.809-1.823-1.802-1.823zm.156 14.726c0 .086-.07.156-.156.156h-7.811c-.086 0-.156-.067-.156-.156v-12.903c0-.085.07-.156.156-.156h7.811c.086 0 .156.07.156.156z"/><path d="m66.765 45.2c-3.478 0-6.311 2.867-6.311 6.388s2.834 6.388 6.311 6.388c3.481 0 6.311-2.867 6.311-6.388s-2.83-6.388-6.311-6.388zm0 11.108c-2.571 0-4.663-2.119-4.663-4.721 0-2.605 2.092-4.724 4.663-4.724 2.574 0 4.666 2.119 4.666 4.724-.001 2.602-2.092 4.721-4.666 4.721z"/><path d="m54.693 46.089c-.455 0-.821.376-.821.834v4.666c0 .461.366.831.821.831.452 0 .824-.369.824-.831v-4.666c0-.459-.372-.834-.824-.834z"/><path d="m54.693 53.308c-.455 0-.821.372-.821.834v2.223c0 .458.366.834.821.834.452 0 .824-.376.824-.834v-2.223c0-.461-.372-.834-.824-.834z"/><path d="m51.4 46.089c-.452 0-.824.376-.824.834v1.887c0 .461.372.834.824.834s.821-.372.821-.834v-1.887c.001-.459-.369-.834-.821-.834z"/><path d="m51.4 50.199c-.452 0-.824.373-.824.834v5.331c0 .461.372.834.824.834s.821-.372.821-.834v-5.331c.001-.461-.369-.834-.821-.834z"/></g></svg>