<svg enable-background="new 0 0 100 100" height="100" viewBox="0 0 100 100" width="100" xmlns="http://www.w3.org/2000/svg"><g fill="none"><path d="m35.026 71.972c4.592-.366 7.051-7.757 9.655-15.589 2.083-6.255 4.237-12.73 7.737-17.092 2.93-3.656 5.609-5.288 8.163-4.983 4.878.576 8.363 8.163 12.059 16.19 1.853 4.031 3.746 8.133 5.849 11.498-2.249-3.836-4.192-8.583-6.1-13.251-3.455-8.468-6.721-16.471-11.228-17.202-2.103-.346-4.387.916-6.971 3.851-3.44 3.896-5.944 10.481-8.363 16.851-3.185 8.373-6.19 16.285-11.017 16.686-3.465.28-6.295-4.632-9.585-10.326-1.127-1.938-2.299-3.961-3.541-5.834 1.412 2.324 2.749 4.933 4.071 7.512 3.141 6.14 6.121 11.949 9.271 11.689z"/><path d="m34.746 68.206c4.352-.361 7.281-8.063 10.376-16.215 2.449-6.43 4.973-13.075 8.498-17.072 2.774-3.145 5.283-4.482 7.667-4.096 4.923.801 8.263 8.989 11.803 17.653 1.607 3.946 3.24 7.942 5.053 11.378-1.943-3.931-3.631-8.583-5.288-13.166-3.305-9.129-6.425-17.753-10.997-18.709-1.948-.406-4.071.601-6.49 3.07-3.48 3.551-6.38 10.381-9.184 16.987-3.656 8.603-7.106 16.736-11.648 17.132-3.225.275-5.979-3.841-9.159-8.613-1.507-2.254-3.105-4.642-4.843-6.655 1.943 2.479 3.696 5.509 5.343 8.353 3.034 5.241 5.909 10.193 8.869 9.953z"/><path d="m35.111 76.474c-3.766 0-6.736-6.46-10.166-13.912-3.39-7.382-7.231-15.745-11.984-16.666-1.808-.35-3.65.361-5.628 2.173"/><path d="m34.465 64.435c4.091-.356 7.457-8.283 11.022-16.681 2.834-6.665 5.759-13.561 9.335-17.212 2.614-2.669 4.968-3.741 7.191-3.275 4.983 1.042 8.173 9.85 11.548 19.18 1.482 4.091 2.99 8.243 4.667 11.864-1.773-4.101-3.3-8.869-4.797-13.566-3.14-9.825-6.105-19.1-10.797-20.342-1.818-.476-3.811.275-6.095 2.304-3.475 3.225-6.786 10.301-9.986 17.142-4.126 8.824-8.028 17.157-12.299 17.552-3.01.275-5.654-3.08-8.719-6.961-1.828-2.314-3.751-4.742-5.889-6.575 2.354 2.299 4.427 5.403 6.355 8.288 2.926 4.386 5.695 8.532 8.464 8.282z"/><path d="m60.491 35.034c-2.273-.27-4.722 1.267-7.482 4.707-3.42 4.262-5.554 10.672-7.612 16.866-2.804 8.418-5.223 15.69-10.311 16.09-.09.005-.18.01-.265.01-3.546 0-6.42-5.619-9.74-12.099-.796-1.562-1.622-3.17-2.479-4.727 1.037 2.043 2.038 4.222 3.03 6.38 3.245 7.061 6.315 13.726 9.67 13.476 4.838-.366 6.761-7.126 8.984-14.948 1.648-5.799 3.51-12.369 6.931-17.127 3.145-4.182 6.024-6.105 8.789-5.879 4.873.396 8.488 7.402 12.319 14.813 1.973 3.816 3.976 7.687 6.195 10.802-2.409-3.586-4.507-8.133-6.565-12.605-3.607-7.832-7.007-15.233-11.464-15.759z"/></g><path d="m92.568 68.256c-2.099.762-3.954.722-5.72-.126-5.736-2.745-9.139-13.393-12.444-23.738-3.223-10.071-6.267-19.584-11.503-20.97-2.188-.58-4.487.245-7.065 2.54-3.618 3.355-6.966 10.501-10.226 17.46-3.822 8.175-7.774 16.629-11.454 16.965-2.436.239-5.04-3.066-7.815-6.577-3.502-4.429-7.861-9.941-13.616-9.941l-.175.002c-1.372.047-4.652.543-5.494 4.133l-.209.894.677-.62c1.915-1.753 3.657-2.439 5.383-2.104 4.608.893 8.417 9.185 11.789 16.525 3.472 7.543 6.471 14.058 10.415 14.058.086 0 .167-.004.271-.011 5.558-.421 7.566-7.487 9.904-15.709 1.624-5.711 3.464-12.183 6.768-16.778 2.919-3.877 5.493-5.661 7.869-5.461 4.29.348 7.779 7.095 11.483 14.26l.121.234c3.939 7.631 8.013 15.521 13.949 17.226.659.189 1.336.285 2.012.285 3.118 0 5.281-1.988 5.371-2.073l1.011-.944zm-57.288 7.2c-2.431.166-4.822-3.773-7.188-8.614 2.133 3.628 4.25 6.149 6.728 6.149.09 0 .186-.005.288-.011 3.611-.284 5.896-3.82 7.891-8.758-1.838 6.136-3.799 10.938-7.719 11.234zm-.277-3.765c-2.522.206-5.109-4.077-7.651-8.931 2.41 3.879 4.717 6.688 7.482 6.454 3.748-.311 6.392-4.87 8.838-10.704-2.318 6.863-4.686 12.864-8.669 13.181zm9.883-19.879-.029.076c-3.063 8.067-5.956 15.687-10.134 16.033-2.706.211-5.549-4.548-8.319-9.329 2.616 3.848 5.014 6.87 7.824 6.871.11 0 .22-.005.332-.015 4.079-.355 7.237-6.556 10.415-13.87-.03.078-.06.156-.089.234zm.382-4.267-.045.105c-3.529 8.312-6.862 16.161-10.783 16.501-2.619.218-5.324-3.839-8.202-8.157-.305-.456-.611-.914-.919-1.372l.009.012c3.118 3.947 5.803 7.354 8.953 7.049 4.391-.407 8.284-8.637 12.396-17.429-.474 1.093-.943 2.195-1.409 3.291zm14.762-10.044c-.152-.012-.306-.019-.458-.019-2.732 0-5.539 1.966-8.585 6.015-.154.214-.305.432-.452.653.807-1.555 1.695-2.986 2.694-4.231 2.695-3.36 5.039-4.862 7.229-4.603 4.065.479 7.299 7.065 10.676 14.375-3.359-6.373-6.705-11.833-11.104-12.19zm.585-3.473c-.212-.025-.424-.038-.638-.038-2.472 0-5.016 1.676-7.779 5.125-.438.544-.853 1.121-1.25 1.725 1.054-2.023 2.191-3.825 3.456-5.257 2.521-2.864 4.698-4.087 6.713-3.759 4.143.672 7.274 7.899 10.526 15.846-3.285-7.024-6.559-13.115-11.028-13.642zm.716-3.487c-.279-.045-.565-.068-.849-.068-2.235 0-4.549 1.392-7.076 4.256-.832.943-1.608 2.031-2.342 3.228 1.412-2.716 2.898-5.072 4.505-6.712 2.353-2.402 4.371-3.38 6.23-2.991 4.05.847 6.987 8.109 9.978 16.297-3.029-7.198-6.116-13.305-10.446-14.01zm.741-3.552c-.354-.074-.716-.112-1.075-.112-2.007 0-4.093 1.134-6.376 3.466-1.28 1.306-2.475 3.019-3.61 4.983 1.865-3.548 3.77-6.6 5.718-8.408 2.213-1.965 4.106-2.693 5.834-2.242 4.153 1.1 6.968 8.886 9.8 17.66-2.903-7.789-5.891-14.427-10.291-15.347z" fill="#4bbab5" stroke="#4bbab5" stroke-miterlimit="10" stroke-width=".2835"/></svg>