<svg enable-background="new 0 0 100 100" height="100" viewBox="0 0 100 100" width="100" xmlns="http://www.w3.org/2000/svg"><g fill="#4bbab5"><path d="m78.333 27.811-6.145-6.145-4.905 4.905c-4.389-4.884-10.751-7.963-17.822-7.963-6.796 0-12.937 2.845-17.302 7.406l-4.348-4.348-6.145 6.145 5.642 5.642c-1.163 2.809-1.806 5.887-1.806 9.114v3.685c2.035 0 3.689-1.654 3.689-3.685 0-2.178.344-4.278.983-6.244l3.017 3.013c-.205 1.048-.315 2.125-.315 3.23 0 4.065-3.308 7.373-7.374 7.373v3.685c6.051 0 10.985-4.884 11.058-10.919l3.284 3.284c-1.548 6.485-7.39 11.32-14.342 11.32v.123c0 1.212.094 2.399.266 3.562 3.902-.053 7.607-1.314 10.69-3.599l-6.915 6.915c-.954.176-1.932.295-2.927.344.205.643.434 1.273.692 1.896l-5.642 5.638 6.145 6.145 4.348-4.348c.291.307.594.606.901.897 5.977-1.384 11.464-4.409 15.906-8.851 1.863-1.863 3.476-3.91 4.823-6.096l2.669 2.669c-.151.242-.311.479-.471.712.897 2.616 2.387 5.015 4.401 7.03 1.748 1.752 3.791 3.103 6.014 4.02.303-.307.594-.618.88-.938l4.905 4.905 6.145-6.145v-.001l-6.411-6.411c.143-.385.282-.778.405-1.175-.843-.127-1.642-.397-2.366-.786l-3.046-3.042c-.549-1.036-.864-2.211-.864-3.464v-14.742c0-.786-.057-1.556-.164-2.309l3.112-3.112c.479 1.728.737 3.546.737 5.421v14.743c0 1.945 1.515 3.541 3.423 3.677.172-1.159.266-2.346.266-3.554v-14.866c0-2.931-.532-5.744-1.503-8.344zm-42.296 42.297 13.965-13.961 1.081 1.081c-3.365 5.847-8.679 10.436-15.046 12.88zm4.299-16.589c1.044-1.404 1.871-2.944 2.469-4.569l1.052 1.052zm10.968-10.968c-.008-1.011-.827-1.826-1.842-1.826-.7 0-1.31.393-1.621.97l-2.641-2.641c1.011-1.232 2.547-2.014 4.262-2.014 1.994 0 3.742 1.056 4.716 2.641zm-1.842-9.2c-2.731 0-5.187 1.195-6.874 3.091l-2.612-2.608c2.362-2.563 5.74-4.168 9.486-4.168 4.02 0 7.619 1.851 9.986 4.741l-2.62 2.624c-1.687-2.234-4.361-3.68-7.366-3.68zm12.905 22.87-4.86-4.856c.311-1.142.561-2.301.749-3.476l4.111-4.11zm-.303-24.43c-3.046-3.554-7.562-5.81-12.602-5.81-4.761 0-9.064 2.018-12.09 5.245l-2.608-2.608c3.697-3.893 8.921-6.325 14.698-6.325 6.055 0 11.496 2.669 15.214 6.886z"/><path d="m54.556 68.868-1.228-1.998-1.752 1.769c-4.233 4.233-9.318 7.304-14.87 9.064 1.425.905 2.956 1.658 4.565 2.248 4.147-1.748 8-4.192 11.41-7.279.757 1.019 1.593 1.986 2.493 2.886 1.367 1.367 2.858 2.559 4.45 3.57 1.29-.606 2.522-1.322 3.672-2.141-2.01-1.036-3.869-2.387-5.515-4.033-1.232-1.237-2.321-2.608-3.225-4.086z"/><path d="m52.236 77.827c-1.674 1.273-3.431 2.42-5.261 3.439.819.082 1.65.127 2.489.127 2.047 0 4.033-.258 5.928-.741-.991-.77-1.932-1.597-2.821-2.485-.114-.115-.225-.225-.335-.34z"/></g></svg>