<svg enable-background="new 0 0 100 100" height="100" viewBox="0 0 100 100" width="100" xmlns="http://www.w3.org/2000/svg"><path d="m40.547 73.675h5.065v-16.594h8.916v16.264h4.682c1.797 0 .442 1.35.442 1.35s-7.649 10.169-8.717 11.237c-.772.767-1.51-.092-1.51-.092l-8.995-10.873s-1.369-1.292.117-1.292z" fill="none"/><path d="m59.45 26.326h-5.065v16.594h-8.916v-16.263h-4.682c-1.797 0-.442-1.35-.442-1.35s7.649-10.169 8.717-11.238c.772-.767 1.51.092 1.51.092l8.994 10.873c0 .001 1.37 1.292-.116 1.292z" fill="none"/><g fill="#4bbab5"><path d="m40.787 26.657h4.682v16.263h8.916v-16.594h5.065c1.486 0 .117-1.292.117-1.292l-8.994-10.873s-.738-.86-1.51-.092c-1.068 1.068-8.717 11.238-8.717 11.238s-1.356 1.35.441 1.35z"/><path d="m59.21 73.345h-4.682v-16.264h-8.916v16.594h-5.065c-1.486 0-.117 1.292-.117 1.292l8.994 10.873s.738.86 1.51.092c1.068-1.068 8.717-11.237 8.717-11.237s1.355-1.35-.441-1.35z"/><path d="m76.185 47.89h-52.375v4.215h52.375.005v-4.215z"/></g></svg>