<svg enable-background="new 0 0 100 100" height="100" viewBox="0 0 100 100" width="100" xmlns="http://www.w3.org/2000/svg"><g fill="none"><path d="m33.165 40.728h6.569v6.168h-6.569z"/><path d="m42.244 57.555h6.569v6.168h-6.569z"/><path d="m42.244 49.142h6.569v6.168h-6.569z"/><path d="m42.244 40.728h6.569v6.168h-6.569z"/><path d="m33.165 57.555h6.569v6.168h-6.569z"/><path d="m24.161 55.31h6.569v-6.174h-7.262z"/><path d="m25.048 63.724h5.682v-6.174h-6.569z"/><path d="m33.165 49.142h6.569v6.168h-6.569z"/><path d="m51.188 57.555h6.569v6.168h-6.569z"/><path d="m23.263 46.896h7.467v-6.174h-8.371z"/><path d="m60.268 49.142h6.569v6.168h-6.569z"/><path d="m69.271 46.896h7.467l.904-6.174h-8.371z"/><path d="m51.188 49.142h6.569v6.168h-6.569z"/><path d="m53.587 82.098-3.587 8.609-3.593-8.609-3.587-8.609h7.18 7.18zm28.508-42.983-3.198 25.864c-.076.622-.4 1.136-.839 1.401-.2.243-.492.395-.812.395h-27.216-.065-27.211c-.325 0-.611-.151-.817-.395-.433-.265-.758-.779-.839-1.401l-3.198-25.864c-.124-.99.427-1.894 1.228-2.04.076-.038.146-.065.227-.087v-8.641c0-.39.314-.703.698-.703s.698.314.698.703v8.587h29.213.065 29.219v-8.587c0-.39.308-.703.698-.703.384 0 .698.314.698.703v8.641c.076.022.151.049.222.087.807.146 1.353 1.05 1.229 2.04z"/><path d="m69.271 55.31h6.569l.687-6.174h-7.256z"/><path d="m69.271 63.724h5.682l.887-6.174h-6.569z"/><path d="m51.188 40.728h6.569v6.168h-6.569z"/><path d="m60.268 57.555h6.569v6.168h-6.569z"/><path d="m60.268 40.728h6.569v6.168h-6.569z"/></g><path d="m80.867 37.075c-.07-.038-.146-.065-.222-.087v-8.641c0-.39-.314-.703-.698-.703-.39 0-.698.314-.698.703v8.587h-29.219-.065-29.213v-8.587c0-.39-.314-.703-.698-.703s-.698.314-.698.703v8.641c-.081.022-.151.049-.227.087-.801.146-1.353 1.05-1.228 2.04l3.198 25.864c.081.622.406 1.136.839 1.401.206.243.492.395.817.395h27.211.065 27.217c.319 0 .611-.151.812-.395.438-.265.763-.779.839-1.401l3.198-25.864c.122-.99-.424-1.894-1.23-2.04zm-50.137 26.649h-5.681l-.887-6.174h6.569v6.174zm0-8.414h-6.569l-.693-6.174h7.261v6.174zm0-8.414h-7.467l-.904-6.174h8.371zm9.003 16.828h-6.569v-6.168h6.569zm0-8.414h-6.569v-6.168h6.569zm0-8.414h-6.569v-6.168h6.569zm9.08 16.828h-6.569v-6.168h6.569zm0-8.414h-6.569v-6.168h6.569zm0-8.414h-6.569v-6.168h6.569zm8.944 16.828h-6.569v-6.168h6.569zm0-8.414h-6.569v-6.168h6.569zm0-8.414h-6.569v-6.168h6.569zm9.079 16.828h-6.569v-6.168h6.569zm0-8.414h-6.569v-6.168h6.569zm0-8.414h-6.569v-6.168h6.569zm8.117 16.828h-5.681v-6.174h6.569zm.887-8.414h-6.569v-6.174h7.256zm.898-8.414h-7.467v-6.174h8.371z" fill="#4bbab5"/><path d="m57.18 26.508-3.593-8.608-3.587-8.608v-.001.001l-3.593 8.608-3.587 8.608h7.18z" fill="#4bbab5"/><path d="m42.82 73.489 3.587 8.609 3.593 8.609 3.587-8.609 3.593-8.609h-7.18z" fill="#4bbab5"/></svg>