<svg enable-background="new 0 0 100 100" height="100" viewBox="0 0 100 100" width="100" xmlns="http://www.w3.org/2000/svg"><g fill="none"><path d="m49.858 32.66-18.604 7.103 18.604 7.192z"/><path d="m55.467 75.945 20.494-7.989v-25.824l-22.796 8.496v23.767c.897.307 1.689.848 2.302 1.55z"/><path d="m53.164 32.51v14.595l19.692-7.342z"/><path d="m49.858 74.401v-23.906l-21.564-8.335v26.911l19.797 6.339c.513-.446 1.11-.792 1.767-1.009z"/></g><path d="m13.191 72.751c.262.636.875 1.02 1.522 1.02.212 0 .429-.039.636-.128.842-.346 1.243-1.316.892-2.158l-1.332-3.206 11.429 3.668c.106.028.206.05.312.061l19.736 6.328c-.061.329-.1.669-.1 1.015 0 2.882 2.347 5.224 5.229 5.224 2.877 0 5.218-2.342 5.218-5.224 0-.117-.006-.234-.017-.346l16.006-6.239c.011 0 .017-.006.028-.011l12.806-4.912-.318 1.444c-.195.892.373 1.767 1.266 1.962.117.028.234.039.351.039.764 0 1.444-.524 1.617-1.299l1.154-5.291c.006-.017.006-.033.011-.05.006-.033.011-.067.017-.1 0-.022.006-.045.006-.061.006-.033.006-.067.006-.1 0-.028 0-.05 0-.072 0-.028 0-.061-.006-.089 0-.028-.006-.05-.006-.078-.006-.028-.006-.056-.011-.078-.006-.028-.011-.056-.017-.084-.006-.022-.011-.05-.017-.073-.011-.028-.017-.056-.028-.084-.006-.022-.011-.045-.022-.067-.011-.028-.022-.05-.033-.078-.011-.022-.022-.045-.033-.072-.011-.022-.022-.045-.034-.067-.017-.022-.028-.05-.045-.073-.011-.017-.022-.039-.039-.061s-.033-.045-.05-.067c-.011-.022-.028-.039-.045-.056-.017-.022-.039-.045-.056-.067-.017-.017-.033-.033-.05-.05-.022-.022-.045-.045-.067-.061-.017-.017-.039-.033-.056-.05-.022-.017-.045-.033-.067-.05s-.045-.033-.072-.045c-.017-.017-.039-.028-.061-.045-.028-.017-.056-.028-.084-.045-.022-.011-.039-.022-.061-.028-.028-.017-.061-.028-.089-.039-.017-.006-.033-.017-.05-.022l-5.558-1.962c-.859-.307-1.801.145-2.107 1.003-.301.864.145 1.806 1.009 2.113l2.392.847-5.034 1.929v-26.719c0-.039 0-.078-.006-.112.006-.045.006-.095.006-.139 0-.691-.435-1.31-1.082-1.55l-25.021-9.21v-8.067l1.355 1.36c.323.323.747.485 1.171.485s.847-.162 1.171-.485c.641-.641.647-1.689 0-2.336l-3.953-3.958c-.028-.022-.05-.05-.072-.078-.323-.323-.747-.485-1.171-.479-.424-.006-.847.156-1.171.479-.028.028-.05.056-.072.084l-3.953 3.953c-.647.647-.647 1.695 0 2.336.323.323.747.485 1.171.485.418 0 .842-.162 1.165-.485l1.054-1.048v7.889l-23.806 9.087c-.006 0-.017.006-.022.011-.022.006-.045.017-.061.022-.028.011-.05.028-.078.039-.017.011-.034.017-.05.028-.039.022-.078.045-.111.067-.006 0-.011.006-.011.006-.039.028-.078.056-.117.084-.011.011-.017.022-.028.028-.028.022-.056.05-.078.072-.011.011-.022.022-.033.033-.028.028-.05.056-.072.084-.011.006-.017.017-.028.022-.028.039-.056.078-.084.117-.006.011-.017.022-.022.033-.017.028-.033.056-.05.084-.011.017-.022.039-.028.056-.017.022-.028.05-.039.078-.006.017-.017.033-.022.05-.017.045-.033.089-.05.128 0 .017-.006.028-.011.045-.006.033-.017.067-.022.1-.006.017-.011.033-.011.056-.006.033-.011.067-.017.1 0 .017-.006.028-.006.045-.006.05-.006.1-.006.151v28.293l-8.385-2.687 2.877-1.193c.847-.351 1.249-1.316.898-2.158-.351-.847-1.316-1.243-2.163-.898l-6.562 2.726c-.151.061-.29.145-.413.245-.575.288-.916.874-.912 1.488v.01c.003.204.043.41.126.609zm39.973-40.241 19.691 7.253-19.691 7.342zm0 18.119 22.796-8.496v25.824l-20.494 7.989c-.613-.702-1.405-1.243-2.302-1.55zm-3.306-17.969v14.294l-18.604-7.192zm-21.564 9.5 21.564 8.335v23.906c-.658.217-1.254.563-1.767 1.009l-19.797-6.339z" fill="#4bbab5"/></svg>