<svg enable-background="new 0 0 100 100" height="100" viewBox="0 0 100 100" width="100" xmlns="http://www.w3.org/2000/svg" xmlns:xlink="http://www.w3.org/1999/xlink"><clipPath id="a"><path d="m21.717 19.5h56.566v59h-56.566z"/></clipPath><clipPath id="b"><path d="m21.717 19.5h56.566v59h-56.566z"/></clipPath><clipPath id="c"><path d="m21.717 19.5h56.566v59h-56.566z"/></clipPath><clipPath id="d"><path d="m21.717 19.5h56.566v59h-56.566z"/></clipPath><g fill="#4bbab5"><path clip-path="url(#a)" d="m23.687 37.332c1.087 0 1.972-.92 1.972-2.056v-8.759l12.688 13.229c.384.403.885.6 1.392.6.502 0 1.008-.197 1.392-.6.772-.802.772-2.105 0-2.906l-12.688-13.229h8.4c1.092 0 1.972-.92 1.972-2.056s-.88-2.056-1.972-2.056h-13.156c-1.087 0-1.972.92-1.972 2.056v13.721c0 1.137.885 2.056 1.972 2.056"/><path clip-path="url(#b)" d="m76.315 60.669c-1.087 0-1.972.92-1.972 2.056v8.759l-13.077-13.643c-.772-.802-2.016-.802-2.788 0-.767.802-.767 2.105 0 2.906l13.081 13.643h-8.4c-1.087 0-1.972.92-1.972 2.056s.885 2.056 1.972 2.056h13.155c1.087 0 1.967-.92 1.967-2.056v-13.722c.001-1.136-.879-2.055-1.966-2.055"/><path clip-path="url(#c)" d="m38.737 57.843-13.077 13.643v-8.764c0-1.136-.88-2.051-1.972-2.051-1.087 0-1.967.915-1.967 2.051v13.721c0 1.136.88 2.056 1.967 2.056h13.155c1.092 0 1.972-.92 1.972-2.056 0-1.131-.88-2.051-1.972-2.051h-8.4l13.082-13.642c.767-.802.767-2.105 0-2.906-.772-.802-2.021-.802-2.788-.001"/><path clip-path="url(#d)" d="m76.315 19.5h-13.156c-1.087 0-1.972.92-1.972 2.056s.885 2.056 1.972 2.056h8.4l-12.688 13.233c-.767.802-.767 2.1 0 2.906.384.398.89.6 1.392.6.507 0 1.008-.202 1.397-.6l12.683-13.234v8.759c0 1.136.885 2.056 1.972 2.056s1.967-.92 1.967-2.056v-13.721c0-1.136-.88-2.055-1.967-2.055"/></g></svg>