<?xml version="1.0" encoding="utf-8"?>
<!-- Generator: Adobe Illustrator 17.0.0, SVG Export Plug-In . SVG Version: 6.00 Build 0)  -->
<!DOCTYPE svg PUBLIC "-//W3C//DTD SVG 1.1//EN" "http://www.w3.org/Graphics/SVG/1.1/DTD/svg11.dtd">
<svg version="1.1" id="Layer_1" xmlns="http://www.w3.org/2000/svg" xmlns:xlink="http://www.w3.org/1999/xlink" x="0px" y="0px"
	 width="100px" height="100px" viewBox="0 0 100 100" enable-background="new 0 0 100 100" xml:space="preserve">
<g>
	<defs>
		<rect id="SVGID_1_" x="10.528" y="25.922" width="79.406" height="48.155"/>
	</defs>
	<clipPath id="SVGID_2_">
		<use xlink:href="#SVGID_1_"  overflow="visible"/>
	</clipPath>
	<path clip-path="url(#SVGID_2_)" fill="#4bbab5" stroke="#4bbab5" stroke-width="0.2551" stroke-miterlimit="10" d="M83.286,49.613
		h-9.23v-7.591H84.41L83.286,49.613z M82.178,59.967h-8.122v-7.591h8.98L82.178,59.967z M81.085,70.32h-7.029V62.73h8.122
		L81.085,70.32z M71.043,49.613h-8.122v-7.591h8.122V49.613z M71.043,59.967h-8.122v-7.591h8.122V59.967z M71.043,70.32h-8.122
		V62.73h8.122V70.32z M59.824,49.613h-8.122v-7.591h8.122V49.613z M59.824,59.967h-8.122v-7.591h8.122V59.967z M59.824,70.32h-8.122
		V62.73h8.122V70.32z M48.764,49.613h-8.122v-7.591h8.122V49.613z M48.764,59.967h-8.122v-7.591h8.122V59.967z M48.764,70.32h-8.122
		V62.73h8.122V70.32z M37.545,49.613h-8.122v-7.591h8.122V49.613z M37.545,59.967h-8.122v-7.591h8.122V59.967z M37.545,70.32h-8.122
		V62.73h8.122V70.32z M26.409,49.613h-9.23l-1.123-7.591h10.354V49.613z M26.409,59.967h-8.122l-0.858-7.591h8.98V59.967z
		 M26.409,70.32h-7.029l-1.093-7.591h8.122V70.32z M88.395,37.529c-0.084-0.046-0.182-0.083-0.273-0.106V26.788
		c0-0.478-0.387-0.865-0.865-0.865s-0.865,0.387-0.865,0.865v10.566H50.275h-0.083H14.075V26.788c0-0.478-0.387-0.865-0.865-0.865
		c-0.478,0-0.865,0.387-0.865,0.865v10.635c-0.091,0.023-0.19,0.061-0.273,0.106c-0.994,0.182-1.67,1.29-1.518,2.505l3.955,31.835
		c0.091,0.767,0.493,1.397,1.032,1.723c0.25,0.296,0.607,0.486,1.01,0.486h33.642h0.083h33.642c0.395,0,0.759-0.19,1.01-0.486
		c0.539-0.326,0.941-0.956,1.032-1.723l3.955-31.835C90.065,38.819,89.389,37.711,88.395,37.529"/>
</g>
</svg>
