<?xml version="1.0" encoding="utf-8"?>
<!-- Generator: Adobe Illustrator 17.0.0, SVG Export Plug-In . SVG Version: 6.00 Build 0)  -->
<!DOCTYPE svg PUBLIC "-//W3C//DTD SVG 1.1//EN" "http://www.w3.org/Graphics/SVG/1.1/DTD/svg11.dtd">
<svg version="1.1" id="Layer_1" xmlns="http://www.w3.org/2000/svg" xmlns:xlink="http://www.w3.org/1999/xlink" x="0px" y="0px"
	 width="100px" height="100px" viewBox="0 0 100 100" enable-background="new 0 0 100 100" xml:space="preserve">
<g>
	<defs>
		<rect id="SVGID_1_" x="10.182" y="24.426" width="78.818" height="52.92"/>
	</defs>
	<clipPath id="SVGID_2_">
		<use xlink:href="#SVGID_1_"  overflow="visible"/>
	</clipPath>
	<path clip-path="url(#SVGID_2_)" fill="#4bbab5" stroke="#4bbab5" stroke-width="0.2911" stroke-miterlimit="10" d="M85.363,71.957
		c0,1.109-0.982,2.02-2.187,2.02H16.004c-1.196,0-2.179-0.911-2.179-2.02V26.444c0-1.109-0.824-2.02-1.822-2.02
		c-1.006,0-1.822,0.911-1.822,2.02v48.88c0,1.109,0.982,2.02,2.187,2.02h74.453c1.196,0,2.179-0.911,2.179-2.02v-48.88
		c0-1.109-0.816-2.02-1.814-2.02c-1.006,0-1.822,0.911-1.822,2.02V71.957z"/>
	<path clip-path="url(#SVGID_2_)" fill="#4bbab5" stroke="#4bbab5" stroke-width="0.2911" stroke-miterlimit="10" d="M49.143,54.064
		c-3.993,0-7.249-3.121-7.249-6.948c0-3.834,3.256-6.948,7.249-6.948c4.001,0,7.257,3.113,7.257,6.948
		C56.4,50.943,53.144,54.064,49.143,54.064 M70.906,50.531v-6.829l-4.563-0.412c-0.444-1.846-1.212-3.581-2.234-5.142l2.931-3.383
		l-5.031-4.809l-3.533,2.812c-1.632-0.974-3.438-1.703-5.363-2.131l-0.428-4.373h-7.106l-0.42,4.389
		c-1.925,0.428-3.723,1.157-5.347,2.139l-3.549-2.82l-5.023,4.817l2.947,3.407c-1.014,1.553-1.767,3.28-2.218,5.118l-4.587,0.412
		v6.781l4.587,0.412c0.452,1.838,1.204,3.565,2.218,5.118l-2.947,3.407l5.023,4.817l3.549-2.82c1.624,0.974,3.422,1.711,5.347,2.139
		l0.42,4.389h7.106l0.428-4.381c1.925-0.42,3.731-1.149,5.363-2.123l3.533,2.812l5.031-4.817l-2.931-3.383
		c1.022-1.561,1.79-3.296,2.234-5.142L70.906,50.531z"/>
</g>
</svg>
