<svg enable-background="new 0 0 100 100" height="100" viewBox="0 0 100 100" width="100" xmlns="http://www.w3.org/2000/svg"><path d="m39.474 35.78h5.64v-18.478h9.929v18.11h5.213c2.001 0 .492 1.503.492 1.503s-8.517 11.324-9.707 12.513c-.86.854-1.682-.103-1.682-.103l-10.014-12.107s-1.525-1.438.129-1.438zm-7.699 26.283c3.623 0 3.623-3.326 7.252-3.326s3.629 3.326 7.252 3.326 3.623-3.326 7.252-3.326c3.623 0 3.623 3.326 7.252 3.326 3.623 0 3.623-3.326 7.252-3.326s3.629 3.326 7.252 3.326v15.163h-50.764v-18.488c3.629 0 3.629 3.325 7.252 3.325z" fill="none"/><path d="m82.527 15.667v63.08 3.374c0 1.222-.99 2.212-2.206 2.212h-60.642c-1.217 0-2.206-.99-2.206-2.212v-3.374-63.08h-.003v68.667h65.06v-68.667z" fill="none"/><g fill="#4bbab5"><path d="m75.285 77.227v-15.164c-3.623 0-3.623-3.326-7.252-3.326s-3.629 3.326-7.252 3.326c-3.629 0-3.629-3.326-7.252-3.326-3.629 0-3.629 3.326-7.252 3.326s-3.623-3.326-7.252-3.326-3.629 3.326-7.252 3.326-3.623-3.326-7.252-3.326v18.489z"/><path d="m17.472 82.121c0 1.222.99 2.212 2.206 2.212h60.642c1.217 0 2.206-.99 2.206-2.212v-3.374-63.08h-5.586v63.08h-53.882v-63.08h-5.586v63.08z"/><path d="m39.345 37.218 10.015 12.108s.822.957 1.682.103c1.19-1.19 9.707-12.513 9.707-12.513s1.509-1.503-.492-1.503h-5.213v-18.11h-9.929v18.477h-5.64c-1.655 0-.13 1.438-.13 1.438z"/></g></svg>