<svg enable-background="new 0 0 100 100" height="100" viewBox="0 0 100 100" width="100" xmlns="http://www.w3.org/2000/svg"><g fill="#4bbab5"><path d="m42.757 57.901.203.578 5.535-2.116-.203-.578z"/><path d="m42.757 54.066.203.573 5.535-2.116-.203-.573z"/><path d="m48.235 48.88-.203-.573-5.535 2.112.203.577z"/><path d="m48.235 45.04-.203-.573-5.535 2.116.203.573z"/><path d="m42.757 42.45.203.573 5.535-2.112-.203-.578z"/><path d="m42.96 39.188 5.535-2.116-.203-.573-5.535 2.111z"/><path d="m48.235 33.428-.203-.578-5.535 2.117.203.573z"/><path d="m48.235 29.588-.203-.573-5.535 2.117.203.573z"/><path d="m48.235 25.493-.203-.572-5.535 2.111.203.578z"/><path d="m64.548 67.44h-38.362c-.327 0-.511.265-.407.582l5.369 17.135c.099.322.45.582.776.582h27.003c.327 0 .672-.265.772-.587l5.26-17.126c.1-.321-.085-.586-.411-.586z"/><path d="m63.543 63.611h-14.072c.398-.72.644-1.534.649-2.419h.043v-46.932h-9.607v46.932h.047c.005.885.251 1.7.649 2.419h-13.874c-.8 0-1.449.672-1.449 1.501s.649 1.501 1.449 1.501h36.165c.795 0 1.444-.672 1.444-1.501s-.649-1.501-1.444-1.501zm-14.503-5.545v1.956h-7.358v-1.956-42.642h7.358z"/><path d="m74.249 57.13h-3.4v-24.74h3.4v-.001l-1.908-4.743-1.908-4.74-1.904 4.74-1.903 4.744h3.399v24.74h-3.402l1.908 4.744 1.903 4.74 1.904-4.74 1.911-4.739.001-.005z"/></g></svg>