<svg enable-background="new 0 0 100 100" height="100" viewBox="0 0 100 100" width="100" xmlns="http://www.w3.org/2000/svg"><path d="m17.745 50.066c0-.312.012-.623.023-.929.012-.294.018-.6.035-.888 0-.035 0-.07 0-.106h.006c1.069-18.483 15.049-33.117 32.142-33.143h-32.214v35.331c.003-.079.007-.158.008-.239 0-.008 0-.017 0-.026z" fill="none"/><path d="m30.988 77.279h-4.527v4.921h-2.593v-4.921h-4.538v-2.787h4.539v-4.921h2.593v4.921h4.527zm16.849 1.278h-6.902v-2.928h6.902zm2.693-19.994c-.001 0-.001 0-.002 0s-.001 0-.002 0c-.993 0-1.936-.231-2.791-.642-2.465-1.183-4.19-3.878-4.19-7.024 0-3.142 1.725-5.836 4.19-7.018.855-.411 1.798-.642 2.791-.642h.003.065l8.966-9.869 13.682-15.063.002.002.002-.002 1.637 1.549 1.075 1.015-18.76 27.748c.046.166.07.342.106.512.125.573.209 1.162.209 1.769.001 4.238-3.127 7.665-6.983 7.665zm25.061 26.436h-2.469l-4.003-12.869-4.009 12.869h-2.481l-5.673-18.036h3.092l3.892 13.275 4.004-13.327h2.422l4.015 13.327 3.898-13.275h2.998z" fill="none"/><g fill="#4bbab5"><path d="m64.354 23.842.699-.708 3.007-3.033c-.002-.001-.004-.002-.007-.004v-.001c-1.041-.632-2.126-1.197-3.232-1.722-3.39-1.61-7.064-2.703-10.936-3.149-.033-.004-.066-.005-.1-.009-.612-.069-1.228-.124-1.85-.16-.091-.005-.186-.004-.278-.008-.555-.028-1.113-.049-1.676-.05h-.084c-.438.001-.872.017-1.307.034-.13.005-.261.004-.39.01-.461.023-.917.061-1.373.101-.113.01-.228.014-.341.026-.465.046-.925.107-1.384.17-.101.014-.205.023-.306.038-.48.071-.956.157-1.431.247-.077.015-.156.025-.233.041-.481.096-.958.205-1.433.32-.068.016-.137.029-.205.046-.497.124-.989.261-1.477.406-.042.013-.087.023-.13.036-.495.149-.984.311-1.471.481-.035.012-.071.022-.106.035-13.002 4.602-22.507 16.7-23.418 31.153h-.007v.106c-.02.288-.025.594-.038.888-.013.306-.025.617-.025.929v.026c-.001.081-.005.159-.009.239v.129c.003.034.008.068.009.106v.011c0 1.188.051 2.387.18 3.574v.002h5.135c-.167-1.387-.231-2.769-.211-4.139 0-.2.007-.394.013-.6.013-.353.025-.711.051-1.064 1.056-15.755 14.066-28.213 29.955-28.213 5.228.003 10.126 1.343 14.409 3.706z"/><path d="m85.051 49.101c-.009-.235-.008-.473-.022-.706-.033-.578-.084-1.151-.144-1.72-.007-.065-.01-.132-.016-.197-.142-1.277-.351-2.533-.624-3.764-.032-.141-.403-1.646-.403-1.646-.714-2.61-1.726-5.095-2.978-7.429-.97-1.808-2.081-3.529-3.336-5.132l-3.156 4.292c.411.575.783 1.177 1.152 1.782 1.526 2.501 2.72 5.229 3.478 8.145.06.23.323 1.462.465 2.147.052.259.089.445.089.46.046.27.081.543.119.815.113.802.194 1.611.241 2.425.044.75.068 1.504.057 2.263 0 .018-.007.029-.007.047h.007c-.008.317-.027.637-.042.956-.038.764-.091 1.529-.186 2.305h.004v.002l5.128.012c.049-.468.082-.932.111-1.396.046-.684.077-1.366.089-2.045 0-.075.005-.145.01-.216v-.046-.075-.066c-.002-.409-.022-.81-.036-1.213z"/><path d="m57.907 49.128c-.039-.17-.065-.346-.115-.512l20.43-27.748-1.171-1.015-1.783-1.549-.002.002-.002-.002-14.9 15.064-9.764 9.869h-.071-.003c-1.081 0-2.108.231-3.039.642-2.684 1.182-4.563 3.877-4.563 7.018 0 3.146 1.879 5.841 4.563 7.024.931.411 1.958.642 3.039.642h.002.002c4.2 0 7.606-3.427 7.606-7.666-.001-.607-.094-1.196-.229-1.769z"/><path d="m24.318 69.571h-2.823v4.921h-4.943v2.787h4.943v4.92h2.823v-4.92h4.93v-2.787h-4.93z"/><path d="m40.08 75.629h7.516v2.928h-7.516z"/><path d="m76.502 80.237-4.372-13.327h-2.638l-4.36 13.327-4.237-13.274h-3.368l6.178 18.036h2.702l4.367-12.869 4.359 12.869h2.689l6.191-18.036h-3.265z"/></g></svg>