<svg enable-background="new 0 0 100 100" height="100" viewBox="0 0 100 100" width="100" xmlns="http://www.w3.org/2000/svg"><path d="m69.484 85.606c-2.151 2.478-5.931 2.766-8.436.615-2.505-2.145-2.779-5.898-.621-8.383 3.152-3.636 5.421-6.258 5.421-11.974 0-5.722-2.276-8.344-5.421-11.98-3.714-4.277-8.338-9.6-8.338-19.742s4.623-15.466 8.338-19.742c2.158-2.491 5.931-2.766 8.436-.621 2.498 2.145 2.779 5.905.621 8.39-3.152 3.629-5.428 6.252-5.428 11.974s2.276 8.344 5.428 11.974c3.714 4.283 8.331 9.606 8.331 19.749 0 10.134-4.617 15.457-8.331 19.74z" fill="none"/><g fill="#4bbab5"><path d="m35.938 65.864c0 5.715-2.269 8.338-5.421 11.974-2.158 2.485-1.883 6.239.621 8.383 2.505 2.151 6.278 1.864 8.436-.615 3.714-4.283 8.331-9.606 8.331-19.742 0-10.143-4.617-15.466-8.331-19.749-3.152-3.629-5.428-6.252-5.428-11.974s2.276-8.344 5.428-11.974c2.158-2.485 1.877-6.245-.621-8.39-2.505-2.145-6.284-1.87-8.436.621-3.703 4.263-8.307 9.569-8.335 19.651v.183c.029 10.081 4.632 15.387 8.335 19.651 3.145 3.637 5.421 6.259 5.421 11.981z"/><path d="m64.056 34.141c0-5.722 2.276-8.344 5.428-11.974 2.158-2.485 1.877-6.245-.621-8.39-2.505-2.145-6.278-1.87-8.436.621-3.714 4.277-8.338 9.6-8.338 19.742s4.623 15.466 8.338 19.742c3.145 3.636 5.421 6.258 5.421 11.98 0 5.715-2.269 8.338-5.421 11.974-2.158 2.485-1.883 6.239.621 8.383 2.505 2.151 6.284 1.864 8.436-.615 3.714-4.283 8.331-9.606 8.331-19.742 0-10.143-4.617-15.466-8.331-19.749-3.152-3.627-5.428-6.25-5.428-11.972z"/></g></svg>