<svg enable-background="new 0 0 100 100" height="100" viewBox="0 0 100 100" width="100" xmlns="http://www.w3.org/2000/svg"><g fill="#4bbab5"><path d="m29.991 50.296 12.488-8.585-12.488-8.589v4.959h-18.74v7.261h18.74z"/><path d="m61.808 38.417c-1.982 0-3.593 1.699-3.593 3.797 0 2.093 1.611 3.792 3.593 3.792s3.593-1.699 3.593-3.792c0-2.097-1.611-3.797-3.593-3.797z"/><path d="m49.236 42.212c-1.982 0-3.593 1.699-3.593 3.797 0 2.093 1.611 3.792 3.593 3.792s3.593-1.699 3.593-3.792c0-2.097-1.612-3.797-3.593-3.797z"/><path d="m72.585 47.904c-1.987 0-3.593 1.699-3.593 3.797 0 2.093 1.607 3.792 3.593 3.792 1.982 0 3.593-1.699 3.593-3.792 0-2.098-1.611-3.797-3.593-3.797z"/><path d="m85.158 46.008c-1.982 0-3.593 1.699-3.593 3.792 0 2.098 1.611 3.797 3.593 3.797 1.986 0 3.593-1.699 3.593-3.797 0-2.093-1.607-3.792-3.593-3.792z"/><path d="m58.216 53.596c-1.986 0-3.593 1.699-3.593 3.792 0 2.098 1.607 3.797 3.593 3.797 1.982 0 3.593-1.699 3.593-3.797 0-2.093-1.611-3.792-3.593-3.792z"/><path d="m45.642 59.288c-1.982 0-3.593 1.699-3.593 3.792 0 2.098 1.611 3.797 3.593 3.797 1.986 0 3.593-1.699 3.593-3.797.001-2.092-1.606-3.792-3.593-3.792z"/><path d="m29.477 53.596c-1.987 0-3.593 1.699-3.593 3.792 0 2.098 1.607 3.797 3.593 3.797 1.982 0 3.593-1.699 3.593-3.797.001-2.093-1.611-3.792-3.593-3.792z"/></g></svg>