<svg enable-background="new 0 0 100 100" height="100" viewBox="0 0 100 100" width="100" xmlns="http://www.w3.org/2000/svg"><path d="m62.756 45.9c.962 0 1.747-.822 1.747-1.828s-.785-1.828-1.747-1.828-1.747.822-1.747 1.828.785 1.828 1.747 1.828z" fill="none"/><path d="m30.732 71.014c5.731 0 10.38-4.526 10.38-10.102 0-3.023-1.373-5.867-3.791-7.803l-.582-.481v-33.788h-10.979v33.176l-.733.471c-2.928 1.876-4.675 5.024-4.675 8.425 0 5.575 4.654 10.102 10.38 10.102zm-2.529-17.533v-1.514h4.025v-1.352h-4.025v-2.471h4.025v-1.352h-4.025v-2.304h4.025v-1.357h-4.025v-2.466h4.025v-1.352h-4.025v-2.195h4.025v-1.352h-4.025v-2.466h4.025v-1.352h-4.025v-2.99h6.214v24.875c2.72 1.292 4.623 3.98 4.628 7.133 0 4.391-3.666 7.949-8.169 7.949-4.519 0-8.175-3.558-8.175-7.949.001-3.478 2.304-6.409 5.502-7.485z" fill="none"/><path d="m68.003 34.649c.619 0 1.123-.53 1.123-1.173 0-.649-.504-1.179-1.123-1.179s-1.123.53-1.123 1.179c0 .643.504 1.173 1.123 1.173z" fill="none"/><path d="m68.137 55.58c-2.402 0-4.358 2.044-4.358 4.559s1.955 4.559 4.358 4.559c2.408 0 4.358-2.044 4.358-4.559s-1.951-4.559-4.358-4.559zm.001 6.631c-1.092 0-1.981-.93-1.981-2.071 0-1.146.889-2.077 1.981-2.077s1.981.93 1.981 2.077c0 1.14-.889 2.071-1.981 2.071z" fill="none"/><path d="m68.003 29.809c1.929 0 3.505 1.644 3.505 3.666 0 2.017-1.576 3.661-3.505 3.661s-3.5-1.644-3.5-3.661c0-2.022 1.571-3.666 3.5-3.666zm-5.247 9.948c2.272 0 4.124 1.936 4.124 4.315s-1.851 4.315-4.124 4.315-4.124-1.936-4.124-4.315 1.851-4.315 4.124-4.315zm-14.037 18.683c0-2.325-.374-4.559-1.05-6.651.946.27 1.986.065 2.725-.708 1.097-1.152 2.876-1.152 3.973 0 1.092 1.141 2.87 1.141 3.968 0 1.092-1.152 2.876-1.152 3.973 0 1.092 1.141 2.87 1.141 3.968-.005.525-.546 1.238-.86 1.981-.86.744 0 1.456.314 1.981.86 1.102 1.146 2.876 1.146 3.973 0v23.069c0 .584-.452 1.055-1.009 1.055h-32.47c4.841-3.852 7.987-9.919 7.987-16.76zm33.997 18.792c0 3.915-3.042 7.1-6.786 7.1h-39.308c-3.011 0-5.538-2.071-6.422-4.916 2.09-.178 4.087-.676 5.949-1.471.14.097.296.173.473.173h39.308c.468 0 .848-.4.848-.887v-44.812c0-1.72 1.326-3.109 2.969-3.109 1.638 0 2.969 1.39 2.969 3.109z" fill="none"/><g fill="#4bbab5"><path d="m30.732 74.188c7.519 0 13.645-5.948 13.645-13.276 0-3.72-1.586-7.235-4.384-9.745v-35.5h-17.498v34.673c-3.391 2.491-5.395 6.37-5.406 10.537v.075c.022 7.309 6.132 13.236 13.643 13.236zm-5.705-21.701.733-.471v-33.176h10.978v33.787l.582.481c2.418 1.936 3.791 4.78 3.791 7.803 0 5.575-4.649 10.102-10.38 10.102-5.725 0-10.38-4.526-10.38-10.102.001-3.4 1.749-6.548 4.676-8.424z"/><path d="m30.876 68.914c4.503 0 8.169-3.558 8.169-7.949-.005-3.153-1.908-5.84-4.628-7.133v-24.875h-6.214v2.99h4.025v1.352h-4.025v2.466h4.025v1.352h-4.025v2.195h4.025v1.352h-4.025v2.466h4.025v1.357h-4.025v2.304h4.025v1.352h-4.025v2.471h4.025v1.352h-4.025v1.514c-3.198 1.076-5.502 4.007-5.502 7.484.001 4.392 3.656 7.95 8.175 7.95z"/><path d="m74.21 74.144v-23.069c-1.097 1.146-2.87 1.146-3.973 0-.525-.546-1.238-.86-1.981-.86-.744 0-1.456.314-1.981.86-1.097 1.146-2.876 1.146-3.968.005-1.097-1.152-2.881-1.152-3.973 0-1.097 1.141-2.876 1.141-3.968 0-1.097-1.152-2.876-1.152-3.973 0-.738.773-1.778.979-2.725.708.676 2.093 1.05 4.326 1.05 6.651 0 6.841-3.146 12.908-7.987 16.758h32.47c.557.002 1.009-.469 1.009-1.053zm-6.073-9.447c-2.402 0-4.358-2.044-4.358-4.559s1.955-4.559 4.358-4.559c2.408 0 4.358 2.044 4.358 4.559s-1.951 4.559-4.358 4.559z"/><path d="m68.138 58.063c-1.092 0-1.981.93-1.981 2.077 0 1.141.889 2.071 1.981 2.071s1.981-.93 1.981-2.071c0-1.147-.889-2.077-1.981-2.077z"/><path d="m79.747 29.309c-1.643 0-2.969 1.39-2.969 3.109v44.813c0 .487-.38.887-.848.887h-39.308c-.177 0-.333-.076-.473-.173-1.862.795-3.859 1.292-5.949 1.471.884 2.844 3.411 4.916 6.422 4.916h39.308c3.744 0 6.786-3.185 6.786-7.1v-44.813c0-1.72-1.331-3.11-2.969-3.11z"/><path d="m62.756 48.387c2.272 0 4.124-1.936 4.124-4.315s-1.851-4.315-4.124-4.315-4.124 1.936-4.124 4.315 1.851 4.315 4.124 4.315zm0-6.143c.962 0 1.747.822 1.747 1.828s-.785 1.828-1.747 1.828-1.747-.822-1.747-1.828.785-1.828 1.747-1.828z"/><path d="m68.003 37.137c1.929 0 3.505-1.644 3.505-3.661 0-2.022-1.576-3.666-3.505-3.666s-3.5 1.644-3.5 3.666c0 2.017 1.571 3.661 3.5 3.661zm0-4.84c.619 0 1.123.53 1.123 1.179 0 .643-.504 1.173-1.123 1.173s-1.123-.53-1.123-1.173c0-.649.504-1.179 1.123-1.179z"/></g></svg>