<svg enable-background="new 0 0 100 100" height="100" viewBox="0 0 100 100" width="100" xmlns="http://www.w3.org/2000/svg"><g fill="#4bbab5"><path d="m74.784 50.864h-34.15l-13.236 12.256h34.146zm-43.49 10.729 9.939-9.202h29.655l-9.941 9.202z"/><path d="m28.379 36.93 12.259 12.135h33.737l-12.256-12.135z"/><path d="m62.574 36.495.317.314 11.936 11.811v-1.64l-10.281-10.171-.317-.314-.318-.315-1.792-1.774h-34.189v1.899h34.451z"/><path d="m25.443 45.46.94-3.704.943-3.704-3.151 2.208-3.148 2.205 1.826 1.24c-.94 1.716-1.493 3.603-1.582 5.542-.086 1.911.284 3.731 1.047 5.359l-1.829 1.24 3.151 2.205 3.151 2.205-.943-3.701-.943-3.704-1.829 1.24c-.66-1.463-.98-3.09-.901-4.8.079-1.774.58-3.499 1.429-5.078z"/><path d="m49.667 15.079c-19.18 0-34.784 15.604-34.784 34.785s15.604 34.784 34.784 34.784 34.785-15.604 34.785-34.784c0-19.181-15.604-34.785-34.785-34.785zm-32.646 34.784c0-18.001 14.645-32.647 32.646-32.647 18.002 0 32.648 14.646 32.648 32.647 0 7.89-2.814 15.134-7.49 20.784v-19.183l-11.935 11.81-.315.314-.195.189h-34.451v10.415c-6.689-5.981-10.908-14.67-10.908-24.329z"/></g></svg>