<svg enable-background="new 0 0 100 100" height="100" viewBox="0 0 100 100" width="100" xmlns="http://www.w3.org/2000/svg"><path d="m71.28 64.582 17.064-17.816v-9.464l-17.064 16.158z" fill="none"/><path d="m64.812 70.994v-4.621h-44.886v-.011h-2.88v.011 4.621c0 .374-1.144.677-2.575.689h52.911c-1.426-.012-2.57-.315-2.57-.689z" fill="none"/><path d="m67.468 57.742h-4.815v4.389h4.815zm-2.304 3.741c-.857 0-1.548-.691-1.548-1.548 0-.271.072-.525.193-.746.265-.475.768-.802 1.354-.802.708 0 1.305.481 1.487 1.133.039.133.061.271.061.415.001.857-.69 1.548-1.547 1.548z" fill="none"/><path d="m71.28 52.852 17.064-16.164v-10.541l-17.064 15.948z" fill="none"/><path d="m87.554 25.505h-54.135l-20.575 15.948h57.689z" fill="none"/><path d="m70.312 42.454h-58.645v22.93h58.645zm-54.771 3.362-.392.641-.393-.641-.365-.591-.37.591-.393.641-.392-.641-.393-.636h3.09zm.696-.608h-.061v.116h-.033v-.116h-.061v-.028h.155zm.234.116h-.033v-.116l-.05.116h-.033l-.055-.116v.116h-.028v-.144h.05l.05.105.044-.105h.055zm1.459 6.724v-6.534c0-.238.193-.426.426-.426l15.766-.028h.005c.238 0 .426.193.426.426v6.562c-.006.238-.193.426-.431.426h-15.766c-.232 0-.426-.188-.426-.426zm7.594 5.532c-1.039 0-1.879-.846-1.879-1.885s.84-1.879 1.879-1.879 1.879.84 1.879 1.879-.84 1.885-1.879 1.885zm7.63-1.007c-.774 0-1.399-.625-1.399-1.398 0-.774.625-1.399 1.399-1.399s1.399.625 1.399 1.399c0 .773-.625 1.398-1.399 1.398zm3.916-11.352h2.211v.79h-2.211zm2.239 8.712h-2.211v-.807h2.211zm0-1.592h-2.211v-.785h2.211zm0-1.586h-2.211v-.79h2.211zm0-1.598h-2.211v-.791h2.211zm0-1.592h-2.211v-.791h2.211zm28.845 15.191h-6.13v-5.699h6.13z" fill="none"/><path d="m11.733 70.994v-4.621h-.603v-.033c-.245-.011-.44-.205-.462-.453v5.796h3.634c-1.424-.012-2.569-.315-2.569-.689z" fill="none"/><path d="m18.809 51.622h14.881l.028-5.71h-14.909z" fill="none"/><g fill="#4bbab5"><path d="m68.154 57.056h-6.13v5.699h6.13zm-.686 5.075h-4.815v-4.389h4.815z"/><path d="m37.098 48.366h2.211v.791h-2.211z"/><path d="m37.098 51.556h2.211v.785h-2.211z"/><path d="m37.098 49.964h2.211v.79h-2.211z"/><path d="m37.098 53.126h2.211v.807h-2.211z"/><path d="m37.098 46.774h2.211v.791h-2.211z"/><path d="m18.356 52.474h15.766c.238 0 .426-.188.431-.426v-6.562c0-.232-.188-.426-.426-.426h-.005l-15.766.028c-.232 0-.426.188-.426.426v6.534c0 .238.194.426.426.426zm.453-6.562h14.909l-.028 5.71h-14.881z"/><path d="m37.07 45.221h2.211v.79h-2.211z"/><path d="m13.628 46.458.393-.642.37-.591.365.591.392.642.393-.642.392-.635h-3.09l.393.635z"/><path d="m16.299 45.208.056.116h.033l.05-.116v.116h.033v-.143h-.056l-.044.105-.05-.105h-.049v.143h.027z"/><path d="m16.143 45.324h.033v-.116h.061v-.027h-.155v.027h.061z"/><circle cx="33.154" cy="55.174" r="1.399"/><path d="m65.164 61.483c.857 0 1.548-.691 1.548-1.548 0-.144-.022-.282-.061-.415-.182-.652-.779-1.133-1.487-1.133-.586 0-1.089.326-1.354.802-.122.221-.193.475-.193.746-.001.857.69 1.548 1.547 1.548z"/><circle cx="25.524" cy="55.698" r="1.882"/><path d="m88.847 24.521.005-.006h-55.554-.006c-.111 0-.216.039-.299.1l-21.713 16.827h-.116c-.267 0-.478.215-.495.48v23.965c.022.249.217.442.462.453v.033h.603v4.621c0 .374 1.144.677 2.57.689h.168c1.43-.012 2.575-.315 2.575-.689v-4.621-.011h2.88v.011h44.886v4.621c0 .374 1.144.677 2.57.689h.167c1.425-.012 2.57-.315 2.57-.689v-4.621h.182l.978-.376 3.278-3.422 4.544-4.743 3.936-4.113v.564c0 .381 1.188.691 2.653.691s2.653-.31 2.653-.691v-6.113l.984-1.028v-22.134c-.005-.265-.216-.481-.481-.487zm-18.535 40.862h-58.645v-22.93h58.645zm.221-23.93h-57.689l20.575-15.948h54.135zm17.811 5.313-17.064 17.816v-11.122l17.065-16.158v9.464zm0-10.078-17.064 16.164v-10.757l17.065-15.948v10.541z"/></g></svg>