<svg enable-background="new 0 0 100 100" height="100" viewBox="0 0 100 100" width="100" xmlns="http://www.w3.org/2000/svg"><path d="m62.737 68.435h22.657v4.906h-22.657z" fill="none"/><path d="m17.994 37.769h4.533v24.526h-4.533z" fill="none"/><path d="m86.531 65.979h-2.264v-9.113c0-9.85-7.405-17.868-16.507-17.868h-26.127v-8.035h6.268c3.459 0 6.268-3.038 6.268-6.78 0-3.741-2.798-6.773-6.248-6.784h-25.105c-3.45.012-6.248 3.044-6.248 6.784 0 3.742 2.808 6.78 6.268 6.78h6.268v8.035h-4.314v-2.45c0-.683-.502-1.228-1.126-1.228h-6.801c-.625 0-1.132.545-1.132 1.228v2.45h-3.395v22.075h3.395v2.45c0 .678.507 1.228 1.132 1.228h6.801c.625 0 1.126-.55 1.126-1.228v-2.45h36.281c1.543 0 2.803 1.361 2.803 3.032v1.874h-2.264c-.625 0-1.132.55-1.132 1.228v7.362c0 .673.507 1.217 1.132 1.217h2.264v3.684h20.394v-3.684h2.264c.625 0 1.132-.545 1.132-1.217v-7.362c-.001-.678-.508-1.228-1.133-1.228zm-64.005-3.684h-4.533v-24.526h4.533zm62.868 11.046h-22.657v-4.906h22.657z" fill="#4bbab5"/></svg>